<?xml version="1.0" encoding="UTF-8" standalone="no"?>
<!DOCTYPE svg PUBLIC "-//W3C//DTD SVG 1.1//EN" "http://www.w3.org/Graphics/SVG/1.1/DTD/svg11.dtd">
<svg width="100%" height="100%" viewBox="0 0 2082 432" version="1.1" xmlns="http://www.w3.org/2000/svg" xmlns:xlink="http://www.w3.org/1999/xlink" xml:space="preserve" xmlns:serif="http://www.serif.com/" style="fill-rule:evenodd;clip-rule:evenodd;stroke-linejoin:round;stroke-miterlimit:2;">
    <g transform="matrix(1,0,0,1,-280.681161,-349.64243)">
        <g transform="matrix(8.627779,0,0,8.627779,-228.190529,-41.055402)">
            <path d="M151.227,76.444C152.363,77.904 152.932,79.571 152.932,81.444C152.932,84.148 151.987,86.29 150.098,87.872C148.209,89.454 145.574,90.245 142.196,90.245L127.128,90.245L127.128,57.899L141.689,57.899C144.976,57.899 147.548,58.652 149.407,60.156C151.265,61.661 152.194,63.704 152.194,66.285C152.194,68.189 151.695,69.771 150.697,71.03C149.699,72.29 148.37,73.166 146.711,73.656C148.584,74.057 150.09,74.986 151.227,76.444ZM135.007,70.984L140.168,70.984C141.458,70.984 142.449,70.701 143.14,70.132C143.831,69.564 144.177,68.727 144.177,67.621C144.177,66.515 143.831,65.671 143.14,65.087C142.449,64.504 141.458,64.21 140.168,64.21L135.007,64.21L135.007,70.984ZM143.877,82.988C144.599,82.388 144.96,81.522 144.96,80.384C144.96,79.249 144.583,78.357 143.831,77.712C143.078,77.067 142.041,76.745 140.721,76.745L135.007,76.745L135.007,83.886L140.813,83.886C142.134,83.886 143.155,83.587 143.877,82.988Z" style="fill:white;fill-rule:nonzero;"/>
            <path d="M157.424,60.641C156.549,59.827 156.111,58.821 156.111,57.622C156.111,56.394 156.549,55.372 157.424,54.558C158.299,53.745 159.428,53.337 160.811,53.337C162.162,53.337 163.276,53.745 164.152,54.558C165.027,55.372 165.465,56.394 165.465,57.622C165.465,58.821 165.027,59.827 164.152,60.641C163.276,61.455 162.162,61.861 160.811,61.861C159.428,61.861 158.299,61.455 157.424,60.641ZM164.727,90.246L156.848,90.246L156.848,64.535L164.727,64.535L164.727,90.246Z" style="fill:white;fill-rule:nonzero;"/>
            <path d="M174.704,89.001C172.692,87.926 171.11,86.39 169.958,84.393C168.806,82.397 168.23,80.062 168.23,77.389C168.23,74.748 168.813,72.421 169.981,70.409C171.148,68.397 172.746,66.853 174.773,65.777C176.801,64.703 179.074,64.165 181.593,64.165C184.111,64.165 186.385,64.703 188.412,65.777C190.44,66.853 192.037,68.397 193.204,70.409C194.371,72.421 194.955,74.748 194.955,77.389C194.955,80.031 194.364,82.358 193.182,84.37C191.998,86.383 190.386,87.926 188.343,89.001C186.3,90.077 184.019,90.614 181.5,90.614C178.981,90.614 176.716,90.077 174.704,89.001ZM185.348,82.135C186.408,81.029 186.938,79.447 186.938,77.389C186.938,75.332 186.423,73.749 185.394,72.643C184.365,71.538 183.098,70.984 181.593,70.984C180.056,70.984 178.782,71.53 177.768,72.62C176.754,73.711 176.247,75.3 176.247,77.389C176.247,79.447 176.746,81.029 177.745,82.135C178.743,83.241 179.995,83.793 181.5,83.793C183.005,83.793 184.288,83.241 185.348,82.135Z" style="fill:white;fill-rule:nonzero;"/>
        </g>
        <g transform="matrix(8.627779,0,0,8.627779,-228.190529,-41.055402)">
            <path d="M226.518,57.899L226.518,90.246L218.639,90.246L218.639,76.929L206.382,76.929L206.382,90.246L198.502,90.246L198.502,57.899L206.382,57.899L206.382,70.57L218.639,70.57L218.639,57.899L226.518,57.899Z" style="fill:white;fill-rule:nonzero;"/>
        </g>
        <g transform="matrix(8.627779,0,0,8.627779,-228.190529,-41.055402)">
            <path d="M231.471,70.386C232.469,68.389 233.828,66.854 235.549,65.778C237.269,64.703 239.189,64.166 241.309,64.166C243.121,64.166 244.71,64.534 246.078,65.271C247.444,66.008 248.497,66.976 249.234,68.174L249.234,64.534L257.114,64.534L257.114,90.246L249.234,90.246L249.234,86.605C248.466,87.803 247.398,88.771 246.032,89.508C244.664,90.246 243.075,90.615 241.263,90.615C239.173,90.615 237.269,90.069 235.549,88.979C233.828,87.888 232.469,86.337 231.471,84.324C230.472,82.313 229.973,79.986 229.973,77.344C229.973,74.702 230.472,72.383 231.471,70.386ZM247.598,72.736C246.508,71.599 245.179,71.031 243.613,71.031C242.046,71.031 240.717,71.592 239.627,72.713C238.536,73.835 237.991,75.379 237.991,77.344C237.991,79.31 238.536,80.869 239.627,82.021C240.717,83.172 242.046,83.749 243.613,83.749C245.179,83.749 246.508,83.181 247.598,82.043C248.688,80.908 249.234,79.356 249.234,77.39C249.234,75.425 248.688,73.872 247.598,72.736Z" style="fill:white;fill-rule:nonzero;"/>
        </g>
        <g transform="matrix(8.627779,0,0,8.627779,-228.190529,-41.055402)">
            <rect x="262.181" y="56.147" width="7.879" height="34.098" style="fill:white;fill-rule:nonzero;"/>
        </g>
        <g transform="matrix(8.627779,0,0,8.627779,-228.190529,-41.055402)">
            <path d="M280.037,89.001C278.024,87.926 276.443,86.39 275.291,84.393C274.139,82.397 273.563,80.062 273.563,77.389C273.563,74.748 274.146,72.421 275.314,70.409C276.481,68.397 278.079,66.853 280.106,65.777C282.133,64.703 284.407,64.165 286.926,64.165C289.444,64.165 291.718,64.703 293.745,65.777C295.772,66.853 297.37,68.397 298.537,70.409C299.704,72.421 300.288,74.748 300.288,77.389C300.288,80.031 299.697,82.358 298.515,84.37C297.331,86.383 295.719,87.926 293.676,89.001C291.633,90.077 289.352,90.614 286.833,90.614C284.314,90.614 282.049,90.077 280.037,89.001ZM290.681,82.135C291.741,81.029 292.27,79.447 292.27,77.389C292.27,75.332 291.756,73.749 290.727,72.643C289.698,71.538 288.431,70.984 286.926,70.984C285.389,70.984 284.115,71.53 283.101,72.62C282.087,73.711 281.58,75.3 281.58,77.389C281.58,79.447 282.079,81.029 283.078,82.135C284.076,83.241 285.328,83.793 286.833,83.793C288.338,83.793 289.621,83.241 290.681,82.135Z" style="fill:white;fill-rule:nonzero;"/>
        </g>
        <g transform="matrix(0.874024,0.485882,-0.485882,0.874024,358.764932,-206.88455)">
            <g transform="matrix(0.784703,0,0,0.784703,-561.090652,-491.150142)">
                <circle cx="1216.5" cy="1369.5" r="176.5" style="fill:rgb(44,252,117);"/>
            </g>
            <g transform="matrix(7.472703,0,0,7.472703,38.665058,50.35871)">
                <path d="M66.466,71.669C66.466,64.769 62.415,58.83 56.571,56.055C52.604,60.231 50.162,65.868 50.162,72.069C50.162,77.999 52.394,83.415 56.058,87.529C62.181,84.867 66.466,78.771 66.466,71.669Z" style="fill:black;fill-rule:nonzero;"/>
            </g>
            <g transform="matrix(0.445708,0,0,0.445708,231.247156,-88.49121)">
                <path d="M727.5,1004C994.351,1004 1211,1220.649 1211,1487.5C1211,1754.351 994.351,1971 727.5,1971C460.649,1971 244,1754.351 244,1487.5C244,1220.649 460.649,1004 727.5,1004ZM727.5,1176.349C899.229,1176.349 1038.651,1315.771 1038.651,1487.5C1038.651,1659.229 899.229,1798.651 727.5,1798.651C555.771,1798.651 416.349,1659.229 416.349,1487.5C416.349,1315.771 555.771,1176.349 727.5,1176.349Z" style="fill:#73DACA;"/>
            </g>
        </g>
    </g>
</svg>
