<?xml version="1.0" encoding="UTF-8"?><svg id="Ebene_1" xmlns="http://www.w3.org/2000/svg" viewBox="0 0 175.61 147.47"><defs><style>.cls-1{fill:#c2dee0;}.cls-2{fill:#ca3072;}.cls-3{fill:#305464;}</style></defs><path class="cls-2" d="M43.64,28.54C19.48,28.92,0,48.59,0,72.84s18.76,43.15,42.28,44.23c-8.89-12.18-14.15-27.17-14.15-43.37,0-17.01,5.8-32.68,15.51-45.17h0Z"/><path class="cls-1" d="M85.46,72.77c0-16.25-9.54-30.23-23.3-36.77-9.34,9.83-15.09,23.11-15.09,37.71s5.26,26.72,13.89,36.41c14.42-6.27,24.51-20.62,24.51-37.35h0Z"/><path class="cls-3" d="M28.13,73.74C28.13,33.08,61.21,0,101.87,0s73.74,33.08,73.74,73.74-33.08,73.74-73.74,73.74S28.13,114.4,28.13,73.74M156.68,73.74c0-30.22-24.59-54.81-54.81-54.81s-54.81,24.59-54.81,54.81,24.58,54.81,54.81,54.81,54.81-24.59,54.81-54.81"/></svg>