<?xml version="1.0" encoding="UTF-8"?><svg id="Ebene_2" xmlns="http://www.w3.org/2000/svg" viewBox="0 0 262.75 390.63"><defs><style>.cls-1{opacity:.51;}.cls-1,.cls-2,.cls-3,.cls-4{fill:none;stroke:#e9eaed;stroke-linecap:round;stroke-linejoin:round;stroke-width:.86px;}.cls-1,.cls-3,.cls-4{isolation:isolate;}.cls-3{opacity:.64;}.cls-4{opacity:.12;}</style></defs><g id="Ebene_17"><g id="vector-hidden"><path class="cls-2" d="M155.44,2.22v287.69c0,5.67-4.6,10.26-10.27,10.25-.22,0-.44,0-.66-.02l-113.17-7.52c-4.75-.3-8.44-4.24-8.43-9V14.62L155.44,2.22Z"/><path class="cls-2" d="M262.32,34.37v283.46c0,1.39-.61,2.71-1.66,3.61l-62.93,54.28c-5.24,4.52-12.13,6.63-19,5.82L4.93,361.14l-3-.36c-.84-.1-1.47-.81-1.47-1.66V18.25c0-.88.66-1.62,1.54-1.7l20.94-1.95v269c0,4.76,3.68,8.7,8.43,9l113.17,7.52c5.65.37,10.54-3.91,10.91-9.57.01-.22.02-.44.02-.66V2.22l15.77-1.5c11.75-1.09,23.57.93,34.29,5.86l55.34,25.54c.88.4,1.45,1.28,1.45,2.25Z"/><path class="cls-2" d="M138.45,113.57l24.22-1.39c4.62-.27,8.58,3.27,8.85,7.89,0,.16.01.32.01.48v83.85c0,4.15-3.37,7.51-7.52,7.5-.07,0-.15,0-.22,0l-24.3-.77c-4.52-.15-8.11-3.86-8.11-8.38v-81.69c0-3.98,3.1-7.26,7.07-7.49Z"/><polygon class="cls-2" points="123.27 278.91 123.27 281.72 50.51 277.5 50.51 240.55 52.8 240.63 52.8 274.82 123.27 278.91"/><polygon class="cls-2" points="123.27 243.23 123.27 278.91 52.8 274.82 52.8 240.63 123.27 243.23"/><ellipse class="cls-2" cx="151.98" cy="185.79" rx="13.79" ry="16.47" transform="translate(-19 17.32) rotate(-6.14)"/><ellipse class="cls-2" cx="156.02" cy="185.85" rx="8.54" ry="9.7" transform="translate(-18.98 17.75) rotate(-6.14)"/><path class="cls-2" d="M153.86,192.72c-.37.18-.76.31-1.17.39l1.17-.39Z"/><path class="cls-2" d="M160.05,190.4c-.53.53-1.16.95-1.85,1.25l-1.22.36-.54.08c-.25.01-.51.01-.76,0h.09c3.27-1.57,4.65-5.49,3.09-8.76-.84-1.75-2.41-3.04-4.3-3.53h1.03c.34,0,.67.03,1,.1.49.08.97.23,1.42.43,2.06.92,3.49,2.84,3.77,5.08.22,1.84-.42,3.68-1.73,4.99Z"/><polygon class="cls-2" points="136.29 141.84 136.29 151.89 165.78 151.2 165.78 141.26 136.29 141.84"/><path class="cls-2" d="M260.75,326.5c0,.42-.17.82-.48,1.11l-63.22,58.11c-3.64,3.35-8.57,4.94-13.48,4.35L6.33,368.72c-.8-.09-1.41-.77-1.4-1.58v-6l173.82,20.42c6.87.81,13.76-1.3,19-5.82l62.93-54.3.07,5.06Z"/><path class="cls-3" d="M262.32,34.39v283.46c0,1.39-.61,2.71-1.66,3.61l-62.93,54.26h0c-.73.61-1.81.51-2.42-.22-.26-.31-.4-.7-.4-1.11V6.27c.01-1.44,1.19-2.59,2.63-2.57.24,0,.48.04.7.1,2.46.81,4.88,1.75,7.23,2.83l55.37,25.51c.89.39,1.47,1.27,1.48,2.25Z"/><polyline class="cls-1" points="176.58 .48 176.58 381.56 184.48 381.56 184.48 .84 176.58 .48"/><path class="cls-4" d="M25.15,287.04L155.44,2.22,22.91,14.6v272c.02.65.56,1.16,1.2,1.14.45-.01.86-.28,1.04-.7Z"/></g><g id="Layer_5-hidden"><polygon class="cls-2" points="198.53 374.59 198.53 384.37 260.79 327.11 260.67 321.45 198.53 374.59"/><path class="cls-2" d="M198.42,375.15l-.68.59c-5.23,4.52-12.13,6.64-19,5.82L1.91,360.79c-.84-.11-1.48-.82-1.48-1.67V18.25c0-.88.67-1.62,1.55-1.7L171.24.72c11.74-1.1,23.57.92,34.28,5.85l55.36,25.55c.88.4,1.44,1.28,1.44,2.25v283.46c0,1.39-.6,2.71-1.65,3.61"/><line class="cls-2" x1="260.67" y1="321.44" x2="198.42" y2="375.15"/><line class="cls-2" x1="155.44" y1="112.6" x2="155.44" y2="2.23"/><path class="cls-2" d="M22.92,14.6v269c0,4.76,3.68,8.7,8.43,9l113.16,7.52c5.64.38,10.53-3.88,10.91-9.53.02-.22.02-.45.02-.67v-78.29"/><path class="cls-2" d="M138.45,113.57l24.22-1.39c4.62-.27,8.58,3.27,8.85,7.89,0,.16.01.32.01.48v83.85c0,4.15-3.37,7.51-7.52,7.5-.07,0-.15,0-.22,0l-24.3-.77c-4.52-.15-8.11-3.86-8.11-8.38v-81.69c0-3.98,3.1-7.26,7.07-7.49Z"/><line class="cls-2" x1="165.78" y1="247.25" x2="165.78" y2="217.89"/><line class="cls-2" x1="165.78" y1="285.72" x2="165.78" y2="250.57"/><line class="cls-2" x1="165.78" y1="43.51" x2="165.78" y2="9.29"/><line class="cls-2" x1="165.78" y1="85.12" x2="165.78" y2="47.59"/><line class="cls-2" x1="165.78" y1="106.57" x2="165.78" y2="87.93"/><path class="cls-2" d="M147.91,313.1c9.99-.43,17.87-8.66,17.87-18.66v-2.51"/><line class="cls-2" x1="134.14" y1="312.14" x2="143.08" y2="312.85"/><line class="cls-2" x1="33.91" y1="304.18" x2="42.74" y2="304.88"/><path class="cls-2" d="M11.45,282.58c0,11.2,8.62,20.51,19.79,21.39"/><line class="cls-2" x1="11.45" y1="244.19" x2="11.45" y2="275.78"/><line class="cls-2" x1="11.45" y1="206.66" x2="11.45" y2="240.63"/><line class="cls-2" x1="11.45" y1="169.63" x2="11.45" y2="203.85"/><line class="cls-2" x1="11.45" y1="132.36" x2="11.45" y2="166.83"/><line class="cls-2" x1="11.45" y1="95.08" x2="11.45" y2="129.55"/><line class="cls-2" x1="11.45" y1="57.8" x2="11.45" y2="92.27"/><line class="cls-2" x1="11.45" y1="21.29" x2="11.45" y2="54.49"/><path class="cls-2" d="M123.24,278.91v1.7c0,.58-.47,1.05-1.05,1.05-.02,0-.04,0-.06,0l-71.66-4.16v-36.07c0-.47.39-.86.87-.85,0,0,0,0,.01,0h1.41"/><path class="cls-2" d="M123.24,243.52v35.39l-70.45-4.09v-34.19l70.2,2.59c.15.02.25.15.25.3Z"/><path class="cls-2" d="M165.7,184.31c.48,3.98-.34,8.01-2.36,11.47-1.01,1.73-2.38,3.24-4,4.42-1.64,1.19-3.56,1.95-5.57,2.2-2.03.24-4.1-.03-6-.79-1.89-.76-3.59-1.92-5-3.4-5.75-6.16-6.74-15.37-2.44-22.61,2.1-3.57,5.75-5.95,9.86-6.44,2.03-.17,4.06.17,5.92,1,1.83.81,3.48,1.99,4.83,3.47,2.71,2.95,4.38,6.7,4.76,10.68ZM165.7,184.31c-.43-3.96-2.13-7.68-4.85-10.59-2.71-2.91-6.63-4.39-10.59-4-1.93.25-3.77.98-5.34,2.12-1.56,1.14-2.87,2.59-3.85,4.26-3.91,6.95-2.98,15.62,2.32,21.58,1.31,1.43,2.9,2.57,4.67,3.36,1.78.78,3.73,1.1,5.67.93,3.97-.48,7.49-2.79,9.51-6.25,2.04-3.43,2.9-7.44,2.46-11.41Z"/><ellipse class="cls-2" cx="156.02" cy="185.85" rx="8.54" ry="9.7" transform="translate(-18.98 17.75) rotate(-6.14)"/><path class="cls-2" d="M153.86,192.72c-.37.18-.76.31-1.17.39l1.17-.39Z"/><path class="cls-2" d="M154.56,179.79h1.03c.34,0,.67.03,1,.1.49.08.97.23,1.42.43,2.06.92,3.49,2.84,3.77,5.08.23,1.87-.42,3.75-1.76,5.07-.53.53-1.16.95-1.85,1.25l-1.22.36-.54.08c-.25.01-.51.01-.76,0h.09"/><path class="cls-2" d="M155.64,191.37c-.33.39-.72.72-1.15,1-.2.13-.41.25-.63.35l-1.17.39c-.17.04-.35.07-.52.09-3.25.35-6.21-2.36-6.6-6-.39-3.64,1.91-7,5.16-7.31h.63c.34,0,.67.04,1,.11.47.09.93.25,1.36.47,2.06,1.1,3.42,3.17,3.62,5.49.21,1.96-.41,3.92-1.7,5.41Z"/><path class="cls-2" d="M155.77,192.08h-.09l-.15.05-1.67.56c.22-.1.43-.22.63-.35.16-.1.3-.21.44-.33.26-.19.5-.42.71-.67,1.31-1.51,1.93-3.5,1.69-5.49-.2-2.32-1.56-4.39-3.62-5.49-.16-.09-.34-.16-.51-.22-.28-.11-.56-.19-.85-.25-.33-.07-.66-.11-1-.11l1.89-.06h.37c.33-.01.67,0,1,.07,3.52.9,5.64,4.48,4.74,7.99-.48,1.88-1.77,3.46-3.53,4.3h-.05Z"/><path class="cls-2" d="M151.36,179.81c1.53-.13,3.05.39,4.17,1.44,1.16,1.05,1.93,2.46,2.21,4,.29,1.53.09,3.12-.57,4.53-.33.7-.78,1.33-1.33,1.87-.54.54-1.2.95-1.92,1.21h0c-.4.09-.81.18-1.22.25.38-.18.75-.36,1.13-.52h0c1.18-.75,2.08-1.86,2.58-3.17.48-1.28.61-2.66.38-4-.24-1.35-.85-2.61-1.76-3.63-.95-1.07-2.25-1.77-3.67-1.98Z"/><path class="cls-2" d="M153.86,192.72l1.67-.56.15-.05h.09c3.27-1.57,4.65-5.49,3.09-8.76-.84-1.75-2.41-3.04-4.3-3.53-.33-.06-.67-.08-1-.07h-.37l-1.86.07h-.63c-3.25.35-5.56,3.62-5.16,7.31.4,3.69,3.35,6.4,6.6,6,.18-.02.35-.05.52-.09l1.2-.32Z"/><path class="cls-2" d="M136.29,142.47v8.76c0,.36.3.65.66.64,0,0,0,0,.01,0l28.19-.66c.35-.01.63-.3.63-.65v-8.64c0-.35-.29-.64-.64-.64,0,0-.01,0-.02,0l-28.19.54c-.35.01-.63.3-.64.65Z"/><path class="cls-2" d="M116.32,275.72c0,.24-.15.46-.37.54l-5.78,2.27-14.6,5.75c-2.64,1.07-5.48,1.56-8.33,1.44l-53.83-2.81-6.17-.35c-.33-.02-.57-.3-.55-.63.02-.23.16-.43.38-.51l24.79-9c1.73-.6,3.56-.84,5.38-.7l58.55,3.51c.27.02.49.22.53.49Z"/><path class="cls-2" d="M116.32,275.72v3.74c0,.24-.15.46-.37.54l-20.38,8c-2.64,1.06-5.48,1.55-8.33,1.42l-60-3.13c-.32-.01-.57-.27-.56-.59v-3.73c0,.32.24.58.56.59l6.12.32,53.88,2.84c2.86.15,5.72-.32,8.38-1.37l14.6-5.75,5.78-2.27c.23-.11.36-.36.32-.61Z"/><path class="cls-2" d="M26.68,281.97c0,.25.17.46.4.54.24.03.47.03.71,0h1.43l2.88.09,5.75.19,11.51.46,23,1.09,11.49.64c1.9.16,3.8.22,5.7.18,1.88-.12,3.73-.5,5.51-1.13l10.75-4.08,5.4-2,2.7-1,1.35-.49.68-.25c.23-.07.39-.29.39-.53.01.25-.14.49-.38.57l-.66.28-1.33.56-2.66,1.11-5.31,2.21-10.67,4.34c-1.83.71-3.75,1.14-5.71,1.28-.98.06-1.95.06-2.93,0l-2.87-.14-11.5-.55-23-1.32-11.49-.74-5.74-.41-2.84-.15-1.44-.11c-.24,0-.48-.03-.72-.08-.23-.09-.39-.31-.4-.56Z"/><path class="cls-2" d="M26.68,281.97v3.75c0,.32.24.58.56.59l60,3.13c2.86.15,5.72-.31,8.38-1.36l20.38-8c.22-.08.37-.3.37-.54v-3.82c0-.31-.24-.57-.55-.58l-58.58-3.42c-1.82-.11-3.65.15-5.36.78l-24.79,9c-.22.06-.38.25-.41.47Z"/><path class="cls-2" d="M198.53,384.37l61.71-56.75c.31-.29.49-.7.48-1.12l-.08-5.06"/><path class="cls-2" d="M4.93,361.14v6c0,.81.61,1.48,1.41,1.58l177.23,21.36c4.92.58,9.84-1.01,13.49-4.36l1.47-1.35"/><path class="cls-2" d="M104.1,273.49c0,.27-.17.51-.43.6l-5.61,2.07-8.48,3.14c-2.09.78-4.32,1.12-6.55,1l-39.27-2.23-5.52-.35c-.36-.03-.63-.35-.6-.71.02-.25.18-.46.41-.56l14.57-5.29c2.08-.76,4.28-1.08,6.49-.95l44.37,2.6c.35.01.63.31.62.66,0,0,0,.01,0,.02Z"/><path class="cls-2" d="M104.1,273.49v3.65c0,.27-.17.52-.43.61l-14.09,5.21c-2.09.78-4.32,1.12-6.55,1l-44.79-2.57c-.35-.01-.63-.31-.62-.66,0,0,0,0,0,0v-3.65c0,.35.27.63.62.64l5.52.31,39.27,2.23c2.23.12,4.46-.22,6.55-1l8.48-3.14,5.61-2.07c.24-.08.41-.3.43-.56Z"/><path class="cls-2" d="M104.1,273.49c0,.27-.17.51-.43.6l-5.61,2.07-8.48,3.14c-2.09.78-4.32,1.12-6.55,1l-39.27-2.23-5.52-.35c-.35-.01-.63-.31-.62-.66,0,0,0,0,0,0"/><path class="cls-2" d="M37.62,277.08v3.64c-.01.35.27.65.62.66,0,0,0,0,0,0l44.79,2.55c2.23.12,4.46-.22,6.55-1l14.09-5.21c.26-.09.43-.34.43-.61v-3.65c.01-.35-.27-.65-.62-.66,0,0,0,0,0,0l-44.37-2.6c-2.21-.13-4.41.19-6.49.95l-14.57,5.29c-.27.09-.45.35-.43.64Z"/><ellipse class="cls-2" cx="69.17" cy="278.13" rx="2.55" ry=".66"/><ellipse class="cls-2" cx="72.81" cy="276.81" rx="2.55" ry=".66"/><ellipse class="cls-2" cx="76.21" cy="275.54" rx="2.38" ry=".61"/><ellipse class="cls-2" cx="79.07" cy="274.31" rx="2.38" ry=".61"/><ellipse class="cls-2" cx="82.66" cy="273.09" rx="2.38" ry=".61"/><ellipse class="cls-2" cx="43.85" cy="276.63" rx="2.55" ry=".66"/><ellipse class="cls-2" cx="47.49" cy="275.31" rx="2.55" ry=".66"/><ellipse class="cls-2" cx="50.88" cy="274.04" rx="2.38" ry=".61"/><ellipse class="cls-2" cx="53.75" cy="272.82" rx="2.38" ry=".61"/><ellipse class="cls-2" cx="57.34" cy="271.59" rx="2.38" ry=".61"/><ellipse class="cls-2" cx="50.25" cy="276.95" rx="2.55" ry=".66"/><ellipse class="cls-2" cx="53.89" cy="275.63" rx="2.55" ry=".66"/><ellipse class="cls-2" cx="57.28" cy="274.36" rx="2.38" ry=".61"/><ellipse class="cls-2" cx="60.14" cy="273.13" rx="2.38" ry=".61"/><ellipse class="cls-2" cx="63.73" cy="271.9" rx="2.38" ry=".61"/><ellipse class="cls-2" cx="56.82" cy="277.38" rx="2.55" ry=".66"/><ellipse class="cls-2" cx="60.46" cy="276.06" rx="2.55" ry=".66"/><ellipse class="cls-2" cx="63.86" cy="274.79" rx="2.38" ry=".61"/><ellipse class="cls-2" cx="66.72" cy="273.56" rx="2.38" ry=".61"/><ellipse class="cls-2" cx="70.31" cy="272.34" rx="2.38" ry=".61"/><ellipse class="cls-2" cx="62.7" cy="277.76" rx="2.55" ry=".66"/><ellipse class="cls-2" cx="66.34" cy="276.44" rx="2.55" ry=".66"/><ellipse class="cls-2" cx="69.73" cy="275.17" rx="2.38" ry=".61"/><ellipse class="cls-2" cx="72.6" cy="273.94" rx="2.38" ry=".61"/><ellipse class="cls-2" cx="76.19" cy="272.71" rx="2.38" ry=".61"/><ellipse class="cls-2" cx="75.24" cy="278.56" rx="2.55" ry=".66"/><ellipse class="cls-2" cx="78.89" cy="277.24" rx="2.55" ry=".66"/><ellipse class="cls-2" cx="82.28" cy="275.97" rx="2.38" ry=".61"/><ellipse class="cls-2" cx="85.14" cy="274.75" rx="2.38" ry=".61"/><ellipse class="cls-2" cx="88.73" cy="273.52" rx="2.38" ry=".61"/><ellipse class="cls-2" cx="82.52" cy="278.7" rx="2.55" ry=".66"/><ellipse class="cls-2" cx="86.16" cy="277.38" rx="2.55" ry=".66"/><ellipse class="cls-2" cx="89.56" cy="276.11" rx="2.38" ry=".61"/><ellipse class="cls-2" cx="92.42" cy="274.88" rx="2.38" ry=".61"/><ellipse class="cls-2" cx="96.01" cy="273.65" rx="2.38" ry=".61"/><ellipse class="cls-2" cx="43.85" cy="276.63" rx="2.55" ry=".66"/><ellipse class="cls-2" cx="47.49" cy="275.31" rx="2.55" ry=".66"/><ellipse class="cls-2" cx="50.88" cy="274.04" rx="2.38" ry=".61"/><ellipse class="cls-2" cx="53.75" cy="272.82" rx="2.38" ry=".61"/><ellipse class="cls-2" cx="57.34" cy="271.59" rx="2.38" ry=".61"/><ellipse class="cls-2" cx="50.25" cy="276.95" rx="2.55" ry=".66"/><ellipse class="cls-2" cx="53.89" cy="275.63" rx="2.55" ry=".66"/><ellipse class="cls-2" cx="57.28" cy="274.36" rx="2.38" ry=".61"/><ellipse class="cls-2" cx="60.14" cy="273.13" rx="2.38" ry=".61"/><ellipse class="cls-2" cx="63.73" cy="271.9" rx="2.38" ry=".61"/><ellipse class="cls-2" cx="56.82" cy="277.38" rx="2.55" ry=".66"/><ellipse class="cls-2" cx="60.46" cy="276.06" rx="2.55" ry=".66"/><ellipse class="cls-2" cx="63.86" cy="274.79" rx="2.38" ry=".61"/><ellipse class="cls-2" cx="66.72" cy="273.56" rx="2.38" ry=".61"/><ellipse class="cls-2" cx="70.31" cy="272.34" rx="2.38" ry=".61"/><ellipse class="cls-2" cx="62.7" cy="277.76" rx="2.55" ry=".66"/><ellipse class="cls-2" cx="66.34" cy="276.44" rx="2.55" ry=".66"/><ellipse class="cls-2" cx="69.73" cy="275.17" rx="2.38" ry=".61"/><ellipse class="cls-2" cx="72.6" cy="273.94" rx="2.38" ry=".61"/><ellipse class="cls-2" cx="76.19" cy="272.71" rx="2.38" ry=".61"/><ellipse class="cls-2" cx="69.17" cy="278.13" rx="2.55" ry=".66"/><ellipse class="cls-2" cx="72.81" cy="276.81" rx="2.55" ry=".66"/><ellipse class="cls-2" cx="76.21" cy="275.54" rx="2.38" ry=".61"/><ellipse class="cls-2" cx="79.07" cy="274.31" rx="2.38" ry=".61"/><ellipse class="cls-2" cx="82.66" cy="273.09" rx="2.38" ry=".61"/><ellipse class="cls-2" cx="75.24" cy="278.56" rx="2.55" ry=".66"/><ellipse class="cls-2" cx="78.89" cy="277.24" rx="2.55" ry=".66"/><ellipse class="cls-2" cx="82.28" cy="275.97" rx="2.38" ry=".61"/><ellipse class="cls-2" cx="85.14" cy="274.75" rx="2.38" ry=".61"/><ellipse class="cls-2" cx="88.73" cy="273.52" rx="2.38" ry=".61"/><ellipse class="cls-2" cx="82.52" cy="278.7" rx="2.55" ry=".66"/><ellipse class="cls-2" cx="86.16" cy="277.38" rx="2.55" ry=".66"/><ellipse class="cls-2" cx="89.56" cy="276.11" rx="2.38" ry=".61"/><ellipse class="cls-2" cx="92.42" cy="274.88" rx="2.38" ry=".61"/><ellipse class="cls-2" cx="96.01" cy="273.65" rx="2.38" ry=".61"/></g><g id="artboardLabels-hidden"><line class="cls-2" x1="42.74" y1="304.88" x2="134.14" y2="312.14"/></g></g></svg>