<?xml version="1.0" encoding="UTF-8"?><svg id="Ebene_2" xmlns="http://www.w3.org/2000/svg" viewBox="0 0 448.31 497.73"><defs><style>.cls-1{fill:none;stroke:#e9eaed;stroke-linecap:round;stroke-linejoin:round;}</style></defs><g id="Ebene_17"><path class="cls-1" d="M394.36,33.83c-7.04-.9-13.18,1.51-17.59,7.26-.46.6-2.48,4.35-2.74,4.35-2.23-1.78-4.67-3.32-7.11-4.8-4.28-2.59-8-2.85-8.98-8.56-1.72-9.98,8.25-11.7,9.06-18.31.03-.28.2-1.45-.18-1.47-.75.48-.46,1.27-.89,1.97-1.9,3.06-6.59,4.46-9.18,6.65-2.3,1.95-4.54,6-5.24,8.92-.15.62-.15,3.3-.61,3.34l-13.82-4.35c2.39-6.1-3.32-16.73,3.04-21.22.78-.55,1.67-.51,2.39-.84,1.54-.71-1.05-.77-1.7-.65-2.57.48-4.65,2.46-6.05,4.59-3.18,4.84-1.19,12.12-4.75,16.83l-17.39-.88-.56-.61c.26-3.12,2.44-6,3.29-9.07,1.56-5.63.15-12.01-3.68-16.48-.73.43-.15.46-.01.86.74,2.06,1.36,3.7,1.47,5.94.43,8.27-5.12,11.12-8.14,17.8-.33.74-.2,1.81-1.02,2.05l-11.19,1.48c-.64-.2-1.66-3.02-2.15-3.85-3.47-5.93-7.57-10.2-6.92-17.6l1.3-5.43c-3.99,4.64-4.55,10.96-3.12,16.73.58,2.34,3.86,9.74,3.62,11.34-.03.24,0,.35-.22.54-.25.23-5.84,1.98-6.37,2.03-.28.03-.52.07-.77-.11-3.69-4.7-7.89-9.03-10.98-14.15-1.4-2.42-1.63-5.27-.36-7.79l1.21-1.94c-5.36,2.86-4.71,8.83-2.78,13.65,1.74,4.35,4.27,8.69,6.21,12.99l-11.16,5.27c-4.75-5.67-11.28-9.53-18.6-10.56-3.27-.46-7.79-.27-10.92.82-.27.09-.92.21-.82.6,1.77.23,3.67-.15,5.43.02,7.52.73,15.64,5.97,18.8,12.92l-10.02,6.99c-.43.04-2.83-2.26-3.48-2.71-3.01-2.07-7.85-2.97-11.46-2.29-5.97,1.13-10.1,8.19-16.07,7.45-1.01-.13-2.68-.76-3.38-1.48-.36-.36-.36-1.13-.87-1.2.14,2.46,2.54,3.89,4.71,4.43,7.55,1.86,13.43-7.5,21.14-2.65,5.32,3.35,3.01,3.6.09,6.62-2.77,2.86-5.36,5.93-7.94,8.96-3.95-1.89-8.34-1.02-11.67,1.74-5.58,4.62-7.11,13.22-15.9,12.94-2.35-.07-2.92-.62-4.94-1.35-.4-.15-.69-.45-1.07.03,4.19,3.88,10.97,4.5,15.71,1.26,2.96-2.02,9.1-9.23,12.48-8.71.31.05.47,0,.65.35-4,6.64-7.65,13.46-10.58,20.64-2.07.82-4.38,1.02-6.52,1.82-4.43,1.66-8.05,4.42-11.16,7.96.43.59.27.36.67.14.9-.52,1.73-1.27,2.65-1.74,3.84-1.98,8.32-2.8,12.6-2.5-.74,2.29-1.48,4.66-2.01,7.02-.35,1.53-.53,3.14-.8,4.59-.13.71-.65,4.4-.8,4.62-.13.19-3.32,1.27-4.15,1.85-7.27,5.06-4.85,15.85-14.48,17.23-3.03.44-5.49-.6-7.99-2.19-.39-.25-.34-.73-.85-.1,2.11,2.95,6.24,4.78,9.82,4.73,6.22-.07,10.06-4.24,12.82-9.4-.11-.25.07-.4.24-.56.13-.13.29-.23.41-.36-.11-.8.6-1.2,1.09-1.66.2-.19.42-.36.62-.53-.24-.34.32-.82.62-.53.15-.11.27-.25.41-.36,2.35-1.65,1.29,2.94,1.05,4.15-.03.13-.02.26-.03.39-.08,2.15.5,4.75-.31,6.76.03.24.13.44.15.59.17,1.22.08,1.2-.17,2.31.25,1.13.96,3.66.42,4.78-.41.84-1.85,1.9-2.62,2.54-.46.38-.66.19-.69.22-.21.17-.41.36-.62.53-.06.23-.16.54-.28.83-6.26,1.72-12.58,4.89-16.09,10.55-1.9,3.05-2.44,5.71-3.52,8.63-.56,1.5-1.24,2.76-2.54,3.64-2.22,1.5-5.23,1.3-7.78.65,3.51,2.68,8.29,3.8,12.28,1.12,1.93-1.24,3.36-3.05,4.75-4.69,1.26-1.51,2.42-2.77,3.59-3.54,4.27-2.77,10.07-2.03,15.17-.83,0,.09,0,.18,0,.27-.02.48-.05.82-.32,1.23.02.08.16.13.18.21l-.03.39c.03.17.11.37.15.59.03.17.43.58.54,1.1.14.68.45,3.83.22,4.29-.65,1.28-1.84,1.74-2.71,2.55-1.88,1.74-3.88,3.85-5.79,5.49-.48.41-1.65,1.15-2.29,1.32-.85.85-1.58,2.01-2.72,2.7.08.01.23.4.35.39.39-.02,1.27-1.33,2.17-.39.14-.11.27-.24.41-.36.04-.03.03-.51.51-.81.43-.27,1.01-.24,1.5-.2.1-.1.39-.36.41-.36.48-.43.6-.76.98-.12,2.05-1.11,4.41-2.25,6.54-3.2.34-.15,1.16-.66,1.33-.18.33,4.98,1.44,10.11,1.74,15.07.04.57.23,1.92.12,2.34-.33,1.21-4,2.2-5.26,2.51-9.1,2.26-18.35-.98-27.52-.16-.56.05-1.6.55-1.69.52-.48.33-.49.37-.06.77,11.64.18,23.15,7.43,34.82,3.64.34.3.31.7.37,1.09.33,2.32.35,5.76.38,8.18,0,.63.03,2.95-.01,4.67-.37-.05-.72-.1-1.06-.15-6.54-.85-14.07-.41-19.49,3.88-2.6,2.05-3.9,4.18-5.74,6.38-.95,1.12-1.93,2.01-3.34,2.36-2.41.59-4.82-.44-6.94-1.86,2.2,3.41,6.02,5.88,10.29,4.8,2.06-.47,3.87-1.59,5.58-2.58,1.56-.91,2.96-1.64,4.22-1.95,5.24-1.22,10.77,2.17,15.13,5.17-.14.77-.52,2.5-.58,2.61-.77,1.5-4.26,2.66-5.86,3.23-.43.15-.69.7-1.06.02-.15.11-.27.27-.41.36-.03.02.06.34-.3.57-.34.21-2.56,1.2-2.69.56-.08.04-.13.14-.21.18-.61.33-1.1,1.06-1.99.62-.08.04-.13.14-.21.18-1.76.88-2.36.92-4.18,1.42-4.94,1.37-10.22,2.12-15,3.5-.74.21-1.29.05-1.81.83l.56.24c.5-.2,4.99.19,6.1.17,6.22-.14,12.61-.68,18.74-1.73,1.69-.29,3.47-.87,5.13-1.17.26-.05.29-.36.57.13-1.24,5.25-2.28,10.58-3.97,15.7-4.27,2.48-8.77,4.6-13.38,6.35-3.81,1.45-7.77,2.44-11.62,3.75l3.62.12c6.75-.55,13.39-1.68,19.98-3.25l-4.66,19.62c-6.79,7.9-19.47,4.09-26.34,11.56-1.27,1.38-2.99,4.39-2.26,6.23.19-1.57.98-3.16,2.08-4.3,6.31-6.53,17.36-2.22,24.97-5.94l-2.73,15.98c-8.46,6.62-18.12,11.32-27.6,16.21.31.25.72.11,1.06.07,2.79-.35,7.05-1.59,9.87-2.35,5.16-1.39,10.29-3.07,15.3-4.92l-1.26,14.26c-1.24,4.85-11.97,9-16.18,11.48-4.67,2.75-10.56,6.79-11.31,12.5,5.74-9.7,17.98-9.33,27.11-13.72-.07.4.23.77.26,1.13.21,2.54-.05,5.79.05,8.44.07,1.7.65,3.69.52,5.43-.58,7.25-7.58,14.09-14.14,16.47l2.6.16c4.6-.87,9.25-2.55,12.75-5.77.21.22.4.44.53.72.67,1.47,1,4.97,1.46,6.71.52,1.97,2.65,7.54,2.3,9.1-.74,3.24-4.92,7.37-7.66,9.07-2.37,1.46-5.09,2.2-7.69,3.04.25.47.64.3,1.04.37,5.7.99,12.96-1.82,17.37-5.36l6.99,11.98c-6.3,7.36-13.68,13.85-22.09,18.67-.09.63,2.37-.14,2.63-.21,8.54-2.48,16.66-7.07,24.24-11.64,2.48,2.85,4.99,5.67,7.79,8.21.22.33.38.63.3,1.04-.15.75-1.37,3.3-1.81,4.08-2.61,4.6-6.92,8.56-11.69,10.85-.45.22-3.19.7-1.84,1.3.6.27,6.22-1.49,7.29-1.6,5.35-2.42,9.66-5.8,13.47-10.25,1.46,1.08,2.82,2.3,4.3,3.35,1.64,1.17,4.35,2.58,5.73,3.78,1.36,1.18.67,2.66.03,4.18-1.7,3.98-3.6,5.36-7.29,7.28-.37.19-.7.31-.24.68,4.58-.05,8.22-2.22,11.47-5.32.6-.57,2.23-2.87,2.72-2.92l13.33,5.9c-1.53,3.16-5.17,6.12-8.33,7.67-7.18,3.52-15.4,1.7-21.5,8.08-1.49,1.55-3.14,4.11-2.37,6.31.52-.71.5-1.53.94-2.35,4.13-7.72,14.93-5.21,21.93-6.54,6.84-1.3,12.45-5.45,16.9-10.66l5.5,1.41c-2.6,12.09-8.9,22.44-17.44,30.33,4.21-3.82,7.9-8.23,10.87-13.16l26.54-7.41c.45-1.58,1.65-6.97,2.14-7.26l10.31-.46c1.52.35,1.22,3.68,1.44,4.99,2,11.91,4.78,18.86.7,30.89-.89,2.62,1.36-.84,1.75-1.61,2.61-5.12,3.18-11.5,3.15-17.21-.03-5.73-.78-11.47-.62-17.21l.44-.76,15.51-4c.68.5.45,1.37.65,2.06,1.52,5.33,3.37,10.69,6.18,15.5.65-.36.24-.45.16-.85-.76-4.2-1.6-8.07-1.78-12.36-.09-2.06.07-4.14.05-6.2l16.46-8.53c.51,2,1.07,4.01,1.51,6.03.76,3.5,1.21,7.18,1.66,10.65.12.93.72,8.43,1.15,8.48l.96-4.19c.3-6.84,1.5-14.31,1.43-21.03,0-.24-.45-.57-.51-.91-.62-4.07.75-3.64,3.32-5.75,1.41-1.16,2.74-2.43,4.16-3.58l10.59-10.92c4.13,5.08,7.27,10.96,8.97,17.27.44,1.63.59,4.31,1.12,5.71.45,1.17.85-.27.91-.8.7-7.33-.87-16.91-3.8-23.66-.52-1.2-2.37-4.05-2.35-5.03.02-.94,3.48-5.76,4.24-7.05.86-1.47,1.62-3.04,2.36-4.57,7.28,5.8,11.51,14.03,13.22,23.03.21,1.1.22,2.31.4,3.33.05.29.09.91.53.82,1.64-9.19-.83-19.88-5.79-27.79-1.53-2.44-3.3-4.29-5-6.59,1.97-5.27,3.77-10.6,4.9-16.11.37-.44.3-.15.57,0,6.16,3.42,12.24,11.54,15.15,17.89,2.23,4.87,3.1,10.04,4.08,15.25,1.86-13.62-3.76-27.66-13.27-37.5-.85-.88-4.54-3.73-4.72-4.42.54-4.31,1.17-8.65,1.53-12.98.09-1.12.05-6.06.35-6.67.27-.54.54.04.75.25,1.15,1.15,2.07,2.58,3.21,3.74,9.19,9.35,15.55,11.83,20.13,25.21.09.27.22.92.6.82-.8-15.59-15.77-24.57-22.19-37.59-3.02-6.12-1.65-12.44-1.57-19.12,0-.25-.35-.39.25-.67,3.45,3.55,7.8,6.9,12.43,8.75.45.18,2.51,1.3,2.59.35-.98-.98-2.32-1.51-3.41-2.4-4.83-3.92-9.44-10.46-11.17-16.47-1.13-3.93.39-13.18.86-17.34.19-1.71-.09-3.51.53-5.15,4.51,4.85,9.91,9.71,15.82,12.74.46.24,1.08.62,1.61.43-7.05-6.16-12.69-13.82-16.16-22.46.83-5.81,1.74-11.65,3.24-17.32l12.3,13.06c1.87,2.88,3.99,5.89,5.13,9.12.33.94.33,2.28.56,2.95.12.34.41.36.57.04.73-1.45-1.61-8.28-2.35-9.88-3.6-7.79-10.65-14.12-13.78-22.01-.84-2.11-.69-2.53-.29-4.68.48-2.57,1.22-5.29,1.78-7.81.94-4.2,2.19-8.33,2.83-12.59.38-.78,2.04,1.3,2.23,1.53,1.35,1.68,2.45,4,3.82,5.72,4.44,5.59,10.55,8.83,17.55,9.64.46-.43,3.74.13,3.75-.34.01-.68-1.73-.56-2.18-.68-3.91-1.02-7.65-2.67-10.64-5.49-5.12-4.82-5.54-12.01-9.96-17.03-.55-.62-2.22-1.63-2.37-2.1-.25-.74.7-3.15.88-4.01.24-1.17,1.25-7.35,1.64-7.82.22-.25.98-.52,1.32-.52,2.16.03,6.42,7.03,8.07,8.78,4.58,4.87,12.42,9.07,19.02,10.01.42.06,3.56.4,3.59-.02-1.28-.76-2.84-.89-4.25-1.44-4.71-1.82-9.98-5.43-13.05-9.49-3.07-4.05-4.35-9.74-8.13-13.2-.8-.74-4.72-2.77-4.8-3.3l4.53-28.08c6.22,5.4,6.08,14.48,11.54,20.59,2.78,3.11,8.7,6.39,12.9,6.41.41,0,.77.2,1.08-.21.02-.2-2.86-.93-3.31-1.11-15.44-6.4-8.35-21.42-18.22-31.11-.84-.82-3.03-1.95-3.4-2.76-.33-.73.44-4.47.49-5.5.11-2.14-.1-4.44-.06-6.5.03-1.42.2-2.84.13-4.26,9.94,6.99,13.69,19.69,24.21,26.19,1.4.87,3.55,1.93,5.18,1.96-13.11-7.15-14.99-23.44-25.12-33.44-.97-.96-4-2.79-4.5-3.63-.24-.4-.68-6.16-.81-7.25-.08-.68.08-1.51.02-1.98-.11-.94-1.23-5.48-1.07-5.95.46-1.31,3.3-.64,4.3-.28,4.68,1.67,8.06,7.05,11.83,10.29,3.47,2.98,8.89,5.22,13.25,2.91l-2.99-.11c-9.43-1.48-10.91-12.61-17.67-17.8-2.85-2.19-6.47-3.59-10.08-3.18l-3.77-12.4c.08-.4,3.09.12,3.57.21,3.21.65,6.45,2.17,9.68,2.81,4.73.95,9.3.39,12.76-3.35-.44-.72-.44-.19-.86.01-9.48,4.69-15.5-4.19-24.55-6.3-.99-.23-2.65.14-3.26-.85-1.61-4.01-3.19-8.16-5.59-11.79.28-.27.58-.52.93-.71,1.78-.97,8.24.35,10.64.34,3.55-.02,8.3-1.25,9.51-5.09.69-2.19-.62-.22-1.19.3-5.35,4.97-13.45-2.25-19.83-2.09-.69.02-3.32.57-3.53.5-.31-.1-1.72-2.08-1.91-2.45-.07-.13.46-.72-.8-1.35,5.2-4.93,11.42-8.67,18.18-11,.29-.1,2.85-.3,1.43-.97-.36-.17-7.07.46-7.99.6-5.62.88-11.06,2.94-16.12,5.51-3.52-4.06-7.25-7.85-11.14-11.55-1.28-6.82,3.08-13.03,9.47-15.37.94-.34,4.14-.79,4.55-1.2.49-.49-.71-.32-.78-.33Z"/><path class="cls-1" d="M408.13,325.02c.19.36.46.36.84.35-.09-.28-.92-.64-.84-.35Z"/><path class="cls-1" d="M393.95,422.17l-.21.18c.18.08.25.02.21-.18Z"/><path class="cls-1" d="M54.23,99.1c-15.93-4.18-32.3-.15-42.74,9.62-6.24,5.84-10.36,13.73-10.99,23.15.16.12.32.14.48.07,0,0,.03-.02.04-.03.14-.08.42-.31.44-.37.07-.19.03-2.01.18-2.62,1.84-7.16,5.6-13.29,10.66-18.01,9.69-9.04,24.18-12.92,39.25-8.91,32.28,8.59,51.27,38.9,54.41,68.67,5.63,53.35-31.01,96.61-38.31,146.93-9.47,65.28,33.87,142.12,101.89,170.42,39.43,16.4,80.45,10.35,106.25-13.75.65-.62,1.29-1.25,1.93-1.89,3.25-3.25,6.26-6.77,8.95-10.62,4.97-7.13,8.91-15.26,11.57-24.35l-.37.08-32.2,6.82c-3.3,5.66-7.51,10.64-12.41,14.89-.58.51-1.18.99-1.78,1.48-15.2,12.19-36.51,17.52-58.51,13.46-57.35-10.59-102.55-68.49-110.92-121.71-10.02-63.72,36.85-111.7,31.99-173.98-2.61-33.47-22.81-69.63-59.79-79.33Z"/><path class="cls-1" d="M409.12,148.21c-.62,32.7-9.34,63.76-16.16,95.44-4.55,21.12-8.5,42.22-9.04,64.1-.97,39.31,1.96,74.98-28.32,105.66-16.08,16.3-39.65,26.76-62.51,27.39-29.24.8-61.71-13.27-78.55-38.41-31.13-46.47-7.1-114.79,3.41-164.41,2.72-12.84,3.23-20.71,2.4-33.9-2.54-40.59-16.06-85.16,7.84-122.23,38.6-59.87,134.29-64.33,168.08,3.01,10.27,20.46,13.27,40.87,12.84,63.34ZM397.91,146.38c.32-40.04-14.51-80.1-55.27-94.65-33.26-11.87-74.61-.22-97.53,26.58-34.8,40.69-11.98,92.17-12.83,139.44-.36,19.89-7.34,40.03-11.8,59.41-11.06,48.12-23.56,111.04,28.17,140.95,49.89,28.84,112.75-.8,121.29-58.29,4.04-27.17,1.1-55.63,4.93-83.08,6.01-43.04,22.69-86.96,23.04-130.36Z"/><path class="cls-1" d="M369.94,359.81c4.04-27.17,1.1-55.63,4.93-83.08,6.01-43.04,22.69-86.96,23.04-130.36.32-40.04-14.51-80.1-55.27-94.65-33.26-11.87-74.61-.22-97.53,26.58-34.8,40.69-11.98,92.17-12.83,139.44-.15,8.4-1.49,16.84-3.31,25.25-.46,1.69-.84,3.39-1.16,5.1-2.33,9.79-5.13,19.52-7.33,29.06-11.06,48.12-23.56,111.04,28.17,140.95,49.89,28.84,112.75-.8,121.29-58.29Z"/><path class="cls-1" d="M250.56,175.62c4.44,4.34-.37,8.44-1.47,12.58-.85,3.22,1.1,3.36,2.8,5.65,3.01,4.05,3.4,10.33-2.25,12.05-4.91,1.49-9.19-4.21-11.11-8.03-3.49-6.95-3.81-18.22,3.35-22.97,2.6-1.73,6.44-1.45,8.68.73ZM248.33,176.78c-1.4-1.08-4.02-.82-5.44.11-7.59,4.97-4.38,20.48,1.76,25.61,4.26,3.56,9.03-.64,6.35-5.82-1.17-2.26-4.03-3.7-4.42-6.16-.8-5.11,6.6-9.99,1.74-13.74Z"/><path class="cls-1" d="M355.85,372.03c1.89,1.89,4.08,5.8,1.91,8.18-2.57,2.82-5.34,2.37-8.42,3.55-3.57,1.37-3.56,4.74-5.87,7.2-4.38,4.65-10.53-1.19-8.77-6.89,1.19-3.83,7.24-9.9,10.66-11.88,2.79-1.61,7.98-2.67,10.49-.16ZM353.97,373.61c-1.98-1.53-6.12-.48-8.01.85-3.66,2.56-12.73,10.5-7.73,15.12,3.28,3.03,5.45-3.99,6.92-5.68,3-3.43,8.1-2.41,10.54-4.8,1.58-1.54-.32-4.4-1.73-5.49Z"/><path class="cls-1" d="M356.48,90.83c-1.14.25-.89,1.01-1.16,1.86-.04.14.22.37.21.4-.04.12-1.14,1.94-1.33,2.23-.35.52-1.11,1.53-1.51,2.02-1.51,1.83-3.48,3.63-5.24,5.22-.09.89,3.62.8,4,.89.18.04,2.19.67,2.46.77,2.15.8,5.32,2.74,7.16,4.15.4.31.46,1.06,1.03.36.02.4,1.24,2.12,1.6,2.17.16.02.36-.28.39-.27.46.1,3.87,6.37,4.27,7.41,1.15,3.01.8,4.98,1.11,7.84.22,2.05.96,4.07,1.24,6.11.56,4.06.33,9.79-.65,13.72-.2.8-1.57,4.16-1.42,4.55,2.56,3.44,5.03,7.01,6.3,11.15.21.7-.12,1.38.51,1.88,5.95-3.52,8.46,6.02,2.7,6.65-.81.09-1.97-.57-2.72.2-.12.12.16.44.09.66-.73,2.19-1.43,4.59-2.68,6.55-1.65,2.6-3.79,4.82-6.04,6.91,2.55,14.75,1.22,29.79-.82,44.55-.26,1.88-.99,2.88-.48,5.1-.34-.27-.42-1.02-.73-.15-.41,1.13-.45,2.71-.71,3.92-.41,1.87-2.08,4.36.54,5.67.13,1.24.82,2.69,1.28,3.88.1.24.32,1.07.68.92.05,1.28.75,3.02.9,4.24,1.67,13.55-7.17,25.01-15.83,34.57-1.11,1.22-1.94,1.09-2.57,3.29-1,.1-1.87,1.47-2.48,2.23-3.51,4.38-6.55,9.3-7.72,14.83-1.23,1.05-1.26,1.93-1.33,3.49.17.21.34-.17.5-.25-.53,1.08-.76,2.68-.78,3.92-.26,14.69,16.16,22,9.96,39.94-4.36,12.62-21.28,28.74-31.46,37.36-.96.81-2.13,1.35-3.18,2.36-.37-.68-.63-.16-1.06.08-1.69.94-3,1.87-4.42,3.19-.35-.63-.62-.21-1.05-.08-7.99,2.44-14.14,4.49-22.67,2.22-14.25-3.79-16.89-14.91-22.23-26.52-.53-1.15-3.32-5.45-3.36-5.79,0-.08.54-.03.17-.85-.56-1.25-1.54-2.33-2.38-3.39-8.46-10.67-25.94-21.47-23.29-36.99,1.38-8.07,7.73-10.88,13.54-15.24.35-.26,1.51-.91.78-1.41.29-.06.62.28,1.26-.08.91-.52,1.72-1.37,2.39-1.97,1.95-1.76,3.61-3.55,4.77-5.94.85-1.76,1.49-3.95.37-5.69.28.08.89.38.97-.12.02-.12-.42-2.32-.48-2.47-.21-.52-.59-.76-.8-1.12.73-.72-.18-2.3-.56-3.05-1.02-2.02-2.71-4.59-4.59-5.88-1.52-2.56-2.37-2.67-4.13-4.39-8.22-8.02-19.03-18.17-13.46-30.61,5.43-12.12,20.44-15.09,28.2-24.8.31-.39,1.87-2.65,1.93-2.91.06-.22-.67-3.78-.74-4.56-.51-6.23.15-11.5,1.25-17.55.16-.86.84-2.49.78-3.24-.14-1.98-2.76-8.58-3.54-10.94-4.08-12.2-8.95-23.28-3.68-36.16,1.29-3.14,6.12-9.82,9.35-10.63.03,0,.12.39.67.21.46-.15,1.44-.81,1.73-1.19,1,.73,3.93-.13,2.57-1.62-.62-.67-1.51-.56-1.62-.64-.09-.06-.98-1.51-1.43-1.65-.22.24-.67.47-.83.7.24-1.69-2.31-3.06-3.29-4.21-15.57-18.33-3.29-45.23,21.37-44.35.72.03,3.47.53,3.66.49.84-.19.88-1.7,1.76-1.72-.42.61-.92,1.26-1.21,1.94,2.18.62,1.94.19,3.29-1.2-.03.32-.23.65-.27.95-.05.47-.4.62.2,1,.86.55,1.72.1,1.85.13,2.25.55,6.11,2.21,8.39,3.12,3.19,1.28,6.3,2.92,9.47,4.26l2.22-5.94c1.77-3.45,5.78-7.91,9.23-9.67.61-.31,2.24-.87,2.99-1.13s1.9-.63,2.68-.79c2.22-.47,4.47.07,6.54-.63.5.67,2.4,1.31,2.52,0,1.17,1.48,2.79,1.38,4.4,2.11,1.84.84,3.4,2.36,5,3.13,1.09.52,2.96.6,4.17,1.31,2.74,1.59,3.74,3.73,4.12,6.74.12.92-.41,1.37.35,2.26ZM353.07,89.79c.74-.26.73-1.87.15-1.93-.09,0-1.15,1.02-1.55.73-1.42-1.03-2.92-5.09-4.79-5.38-.51-.08-3.34.44-3.93.67-1.42.54-3.59,1.85-4.77,2.82-.72.6-.98,1.13-1.48,1.63-.94.96-1.79,1.7-2.65,2.8-.75.97-4.72,6.81-4.21,7.64.25.41,4.29.72,5.04.86.17.03.64.48,1.21.58.65.11,3,.47,3.38.16,1.34,1.16,3.59,1.03,5.25,1.63l5.58-5.17c.35-.43.13-.82.16-.85.22-.36,1.17-1.11,1.69-1.81,1.12-1.49.43-1.11.74-2.08.2-.64,1.54-1.5.17-2.31ZM338.01,78.55c-.85-.2-.59-1.15-2.31-.18-1.53-1.31-4.1-.38-5.81-.06-1.35.25-1.46.14-2.96.74-4.7,1.87-8.03,4.84-10.31,9.4-.19.57.42.47.45.52.38.44-2.25,4.11-2.06,5.38.09.65,1.19.62,1.6.79,3.34,1.39,6.99,2.53,10.54,3.19,1.56-2.99,3.11-5.99,5.19-8.67.44-.56,2.59-3.39,2.79-3.57.11-.1,1.44-.94,1.84-1.22,2.39-1.66,4.9-2.61,7.46-3.89-1.62-1.09-3.48-1.91-5.35-2.45-.39-.11-.87.07-1.06.02ZM363.31,113.47c-.95-.91-1.19-2.34-2.26-.95.95.91,1.19,2.34,2.26.95ZM350.04,106.82c-.93-.45-1.23-.79-2.43-1.16-1.04-.32-1.75-.8-2.81-.13-.4.25-.99.59-.36,1.05-1.14.26-1.87,1.64-2.32,2.64-.17.38-.03.74-.07.86-1.34,3.89-1.18,8.75.58,12.55.27.58,1.23,1.64,1.25,1.75.01.07-.6.23.1,1.28.41.61.99.81,1.09.95.04.05.1.83.42,1.29,2.56,3.69,6.02,7.17,9.39,10.13.63.56,1.27.85,1.84,1.31,1,.79,1.92,1.73,2.91,2.53,3.59-3.24,6.37-7.73,7.2-12.52.39-2.24.3-2.35-.49-4.5-1.2-3.26-2.76-5.65-4.81-8.42-.4-.54-.62-1.15-1.22-1.84-3-3.45-6.24-5.81-10.27-7.77ZM368.23,141.96c.23-1.48.28-4.16.24-5.7,0-.33-.05-2.04-.32-2.06-1.55,2.16-2.56,4.69-4.27,6.75-.51.61-2.21,1.87-2.16,2.36,1.28,1.64,3.26,2.64,4.44,4.51.38-.27.65-.58.85-1,.29-.6,1.1-4.06,1.22-4.85ZM336.93,103.29c.06-.46.48-.65-.22-.89-.91-.32-2.63-.62-3.4.03-.6-.98-4.2-1.52-4.87-.88-.32.3-1.71,4.78-1.86,5.5-.12.58-.29.8.28,1.28-.83.48-1.07,1.48-.56,2.28-.75.45-1.05.75-.29,1.34-.77.46-.95,1.45-.56,2.28l1.92-2.37c.66-.18,1.07-1.27,1.27-1.45,1.68-1.52,4.23-2.73,5.95-4.39,2.27-.6,4.23-1.99,6.58-2.4-1.22-.9-3-1.33-4.24-.33ZM338.87,111.01c.63-.49,1.55-2.61,1.82-3.45.08-.27.29-.79-.13-.88-.15-.03-2.55.69-2.88.83-5.17,2.09-9.1,6.26-12.88,10.18.6.62,1.09,1.37,1.7,1.98s.36.62,1.06-.03c-.02.04.06.87.08.91.27.5,2.79,2.97,3.37,3.49.35.31.95.67,1.39.82l-.33.47c.74.59,1.84,1.37,2.47,2.03,3.81,3.99,7.75,8.97,10.09,14.06.31.67,2.04,4.46,2.07,4.72,0,.05-.38.24-.38.35.02.63,1.98.07,2.54-.03.77-.14.19.22,1.33-.44.27.5.63.27,1.04.19,1.11-.21,6.44-2.15,6.54-3.1-.5-.2-1.86-1.86-1.99-1.87-.06,0-.92.43-1,.48,1.08-.72-.83-1.95-1.43-1.66-1.28-2.21-3.88-3.83-5.68-5.75-1.07-1.14-2.24-2.52-3.2-3.75-.72-.91-1.67-3.26-2.74-3.6.93-.47-.56-2.09-1.19-2.22.23-.43.05-.84-.06-1.26-.81-3.31-1.81-5.92-1.72-9.44.02-.91.7-2.08.09-3ZM323.77,108.1c.16-.77,1.33-4.09,1.69-5.2.41-1.24,1.75-1.94-.19-2.69-2.36-.91-5.96-1.42-8.49-2.34-.25-.09-2.32-1.61-2.46-.77.3,2.68.76,5.16,2.14,7.54-.73.02-.56.32-.39.84.94,2.83,3.23,5.51,4.97,7.85.27.36.51,1.45,1.22,1.84,1.46-.65.68-2.02.76-2.46.15-.8,1.09-1.52.17-2.31,1.22-.56.51-2.07.56-2.28ZM353.47,164.5c.65.29,1.15,0,1.67-.35,2.07-1.4,6.17-6.01,7.67-8.15.67-.95,3.02-4.67,2.59-5.62-.35-.77-5.41-5.57-5.81-5.52-2.55,1.69-5.37,2.86-8.32,3.61-1.17.3-3.9.11-4.27,1.37-.24.84.23,3.74.63,4.51-.84.52-.4,2.17-.52,2.96-1,6.63-4.02,12.91-8.78,17.66.29.27,1.21-.43,1.5-.61,2.31-1.49,4.65-2.99,6.93-4.52,1.54-1.03,3.24-1.98,4.42-3.39.45.71,1.86-.7,2.27-1.24.17-.23-.03-.54,0-.72ZM352.95,168.92c-.46-.77-.64-.06-1.07.21-1.1.69-1.4.78-2.19,1.86-.63-.1-1.36.24-1.88.57-2.26,1.4-4.68,3.16-6.95,4.66-.42.27-.91.36-.94,1-.65.16-1.81.81-2.33,1.27s-.97.56-.36,1.05c-1.49.23-2.47,1.29-3.57,2.34-1.98,1.9-3.62,4.2-5.05,6.5-.5.8-1.85,1.51-.77,2.46-.1.02-.27.26-.41.36-.05.03-.26-.13-.51.22-.78,1.08-1.44,5.6-1.55,7.09-.03.44-.41.61.27,1.08-1.05,3.38.49,11.31.87,15.1.14,1.37-.12,3.07.59,4.22-.62.73-.38,2.02.18,2.73l-.51,8c-.57,3.5-2.42,8.82-4.65,11.58-.71.88-2.4,2.71-3.17,3.44-1.21,1.15-3.92,3.16-5.33,3.86-4.53,2.23-9.3,3.91-14.37,4.2-1.8.1-5.08-.4-6.6.11-.48.16-.2.34-.05.57.34.52,1.06,1.31,1.52,1.77,3.08,3.1,7.74,4.78,12.06,4.69.46,0,.81-.38,1-.39,1.41-.1,1.3-.14,2.55-.39,4.16-.81,7.75-1.85,11.14-4.85.67-.59.96-1.51,1.39-1.95.1-.1,1.02-.19,1.48-.96.24-.41-.49-1.15.24-1.2.24-.02.35.84,1.26-.63.32-.52.06-.86.15-.96.45-.5,1.75-.71.98-1.95.43-.37.9-.7,1.25-1.16,3.45-4.52,6.16-20.65,5.98-26.5-.02-.52.09-.89-.4-1.29,1.1-.75.96-1.76.2-2.7,1.02-.76.46-2.13.52-3.16.33-5.63.69-12.25,1.82-17.61.09-.44,1.48-1.84.38-2.49,1.43-2.12,1.94-4.94,3.17-7.22.86-1.61,1.83-2.64,2.9-4.04.28-.38.75-.67.5-1.22,1.36-.42,6.31-3.59,7.52-4.66.06,1.04,1.61.13,2.22.1,5.81-.35,8.55,1.3,12.19,5.76.37.45.63,1.55,1.23,1.47,3.61-3.08,6.32-7.17,7.24-11.89.98-5.01-1.52-12.22-4.74-16.28-.46-.58-.81-.98-1.36-.3-.81,1.02-1.53,3.08-2.41,4.29-2.26,3.14-5.64,6.18-8.62,8.66-1.15.96-2.06,1-3,2.57ZM318.12,113.68c-2.8-3.56-5.37-9.24-5.97-13.74-.13-1,.13-3.49-.36-4.08-.33-.4-4.21-2.11-5.03-2.49-2.78-1.27-10.91-4.82-13.59-4.99-.65-.04-1.06.68-1.45,0,.1-.15.51-.26.33-.46l-3.85-.88c-1.04,1.48-1.39,3.79-2.58,5.13-.56-.41-.07-.65.11-1.05.31-.7,1.93-3.55,1.33-3.98l-6.96-.29c-21.99,4.14-27.46,28.13-11.47,43,.05.05.13.61.41.9,1.81,1.91,1.35-.14,2.06-.12.5.4.04.99.26,1.47s1.4,1.98,2.06,1.22c.6,1.21,5.73,3,7.21,3.36.65.16,1.34.39,1.84.05.68.82,1.92.84,2.7.21.1,1.19,1.12.6,1.8.62.63.02,1.1.46,1.84-.15,1.05.77,2.48,0,3.5-.12,4.2-.51,8.82-1.26,12.59-3.63.44-.28.99-.5.36-1,1.43.49,1.96-.49,2.99-1.13,1.62-1.01,3.4-1.97,4.35-3.74,2.27-1.17,3.84-3.56,5.45-5.4.69-.78,3.6-3.56,3.72-4.37.16-1.03-1.58-1.94-2.05-2.49s-1.21-1.36-1.6-1.87ZM330.33,126.64c-.64-.63-1.15-1.57-1.88-2.09-.61-.43-2.47-.32-2.66-.68-.14-.28.92-2.17-.66-2.87-.68-.07-.99,4.68-.68,5.09.23.31.24.18.48.13-.71,3.13-.48,6.96-.15,10.18.06.53.47,1.04.46,1.1,0,.06-.46.25-.51.53-.33,1.85.61,1.47,1.67,2.08-1.63.05-1.57,1.11-.87,2.28l8.94,2.52.41-.37c-.22-.23-.4-.5-.62-.72.47-.68.94.21,1.51.5-.88.54.38,1.57.56.24,1.84,1.01,4.61,2.55,6.82,2.08,1.16-.25.68-.89.42-1.81-1.96-6.89-8.28-13.27-13.27-18.18ZM321.91,125.22s.41-.24.51-.53c.2-.61-.68-1.69-.67-1.81.02-.22,1.38-1.16.48-1.9-.17,0-1.94,2.27-2.25,2.65-.33.4-1.03.48-.35,1.03-.96-.02-3.25,3.09-4.07,3.86-1.36,1.27-2.99,2.69-4.45,3.83-.57.44-1.55.67-2.04,1.4l1.1.86c-2.62-.98-4.13.99-6.46,2.05-3.84,1.75-10.48,3.45-14.71,3.5-.1,0-1.63-.52-1.9-.43-2.19.8-.62,1.39,0,2.41,2.97,4.84,1.84,11.31-.4,16.17-1,2.17-2.49,4.05-3.42,6.24-1.36.68-3,4.24-3.9,5.52-4.43,6.22-7.89,11.33-10.87,18.46-.46,1.09-.54,2.26-1.04,3.31-1.65,3.5-.99,2.28-.43,5.79.62,3.93,1.24,9.42.84,13.35-.18,1.78-1.24,3.93-.71,5.67-1.23,1.22-2.25,3.22-1.92,4.9,1.85,9.26,7.89,18.38,15.56,23.87.53.38,1.24.4,1.42.51.11.07.39.91,1.35,1.28.5.19.66-.17.69-.15.16.07.54.72.99.95.66.34,2.4,1.46,2.71.49.08-.24-.87-4.09-.95-5.01-.18-1.99.15-4.46-.11-5.92-.28-1.63,1.47-6,1.94-7.8.79,1.1,1.1-1.61,1.25-1.94.65-1.44,1.26-1.81,1.5-3.67,1.33-.99,2.02-2.61,2.63-4.07,1.06-.26,1.5-1.83,1.92-2.37s1.2-1.22,1.69-1.81c.7-.85,1.55-2.25,2.16-2.94.92-1.03,2.41-2.29,3.45-3.33.37-.37,1.03-.48.36-1.03.25-.07.66-.28.86-.45,1.27-1.07,3.43-3.67,4.64-5.05,4.45-5.06,6.94-8.91,9.79-14.86.17-.36.83-.77,1.1-1.56.17-.49-.17-.66-.16-.7.1-.23,1.34-1.81,1.32-2.23-1.45-1.53-3.37-.61-5.26-.73-2.1-.13-4.31-.89-6.44-.75,0-.34-2.85-1.23-3.44-1.47-.19-.08-.27.09-.9-.22-1.25-.61-5.8-3.4-6.56-4.29l-4.81-5.61c-.09-.11-1.29-1.83-1.31-1.94,0-.03.41-.19.28-.5-.66-1.64-1.34-1.11-2.42-1.99,1.31-1.2.81-1.83.55-3.36-.05-.29-.42-.58-.44-.7-2.48-16.35,13.38-24.41,27.5-21.44.28.02.47-.12.69-.25.42,1.2,1.96.71,2.08.74.1.03.36.44.82.56,1.71.43,1.19-1.05,1.11-2.26-.02-.33-.39-.62-.4-.7-.21-2.64.13-5.58-.06-8.44-.05-.76.08-1.68-.49-2.27.53-.86,0-2.76.02-2.91ZM342.5,150.47c.38-.17.93-.58,1.31-.58.57,0,.72.91,1.24.2-.23-1.54-2.24-1.51-3.49-1.35-.62.08-1.04.15-1.47.19l-14.15-3.91-.66.45c.18,1.85.3,3.71.45,5.57.03.36.36.78.37.89.02.68-1.1,1.8.42,2.17l-.92,18.55c.04.26.41.62.63.82-.85-.01-.83,1.09-.98,1.78-.07.32.22.65.21.69-.03.13-.42.46-.49.83-.11.55-.7,2.62-.68,2.76.03.18.32.54.47.58.69.2,4.42-1.85,5.21-2.27.65-.34,3.06-.56,1.69-1.81.06,0,.28-.23.51-.22.66.01.67.43,1.54-.13,7.23-4.69,11.48-14.95,11.06-23.37-.02-.49-.01-1.47-.42-1.74-.59-.39-1.39.71-1.85-.08ZM339.11,193.07c-.03.1-.71.59-.92,1.19-.24.7.17,1.21.15,1.27-1.48,6.46-1.49,12.03-1.77,18.48,0,.05-.45.37-.56.82-.18.81.19,1.41.17,1.67-.71,9.31-1.54,18.88-5.33,27.62-.31.72-1.38,3.69-1.49,3.86-.38.58-2.77.82-.77,2.46-.24-.08-.7-.37-.74-.37-.27.02-.6.43-.83.63-.97.85-1.43,1.14-.74,2.08-.78-.39-1.23.32-1.81.83-.8.71-1.32,1.5-2.1,2.17-1.94,1.65-8.46,5.38-10.9,5.76-.98.15-.75,0-2.16.42-.53.16-5.26.13-6.1,0-2.44-.36-6.51-1.8-8.49-3.27-1.3-.97-2.52-3.19-4.14-3.02.28-.23.56-.48.83-.71-.6-.56-1.08-1.47-1.7-1.96-.42-.34-.92-.13-1.22-.59l.53-.64c-.42-.61-1.91-.48-2.37-.66-.61-.24-2.31-.95-2.82-1.19-.39-.19-1.55-.85-2.05-1.13-7.44-4.17-13.35-12.07-16.66-19.8-.52-1.21-.65-3.37-1.92-3.93.02-.07-.7-.57.47-1.13-.31-.38-.27-.53-.67-.15-.66.64-1.3,1.64-1.93,2.38-1.12,1.31-1.53,1.15-2.26,3.03-.43-.73-.66-.13-1.07.2-8.61,6.73-25.64,13.47-24.43,26.65.62,6.72,4.79,11.7,9.58,16.14.3.28,1.19,1.37,1.59.72.54,1.7,1.47,2.59,3.03,3.53,3.48,5.24,8.16,8.2,10.3,14.85.41,1.28.43,3.99,1,5.02l-.46-.33c-.22.97.02,1.88.08,2.82-1.07.48-.5,1.21-.69,1.81-.6,1.84-1.85,3.86-3.06,5.38-.32.4-1.04.47-.35,1.03-1.28.19-1.92,1.67-2.49,2.14-7.57,6.15-19.1,9.91-17.39,22.04,1.93,13.66,16.95,21.53,24.37,32.22.54.78.6,2.23,1.93,2.67-.46.67,1.28,3.32,1.62,4.1,5.29,12.22,8.22,24.35,23.26,27.38,7.11,1.43,20.88-.85,25.96-6.24,1.17.23,3.64-2.27,4.12-3.18.42.73.66.13,1.07-.2,8.46-6.79,23.95-23.51,27.8-33.56,5.74-15.02-5.71-21.79-9.18-34.65-.27-1,.05-2.85-.91-3.66.79-1.47.49-3.63.67-5.28.03-.29.16-.96.21-1.25.52-3.36,2.16-5.85,3.19-8.87.78-1.75,3.11-4.21,3.55-5.93,1.83-2.06,3.42-4.34,5.14-6.49.43-.54,1.02-.92,1.47-1.45.2-.24.69-1.36.7-1.59,1.09-.15,2.04-1.2,1.92-2.37.53.78.47.12.81-.23,5.26-5.41,11.09-13.92,12.7-21.33.41-1.87.86-4.26.2-6.09.47-1.61.09-3.69-.78-5.1.1-.13.4-.26.41-.36,0-.11-.3-.29-.35-.41-.48-1.24-.82-2.96-1.42-4.09-.2-.37-.31-.7-.67-.25l-7.72,23.94c-1.57,2.13-3.01,4.31-3.81,6.88-.27.29-.81,1.25-1.09,1.66-.54.8-.97,2.05-1.36,2.61-1.84,2.68-3.98,5.52-6.03,8.07-.79.98-1.96,1.32-2.37,3.12-.57-.19-.73.06-1.11.39-2.3,2.07-4.46,4.11-7.02,5.87-8.78,6.03-19.18,7.65-29.42,9.39-1.03.54.45,3.17,1.22,3.29-.96.82.28,1.67.42,2.17.34,1.22.74,2.85,1.05,4.15.17.71.46,2.07.57,2.76.56,3.6.09,8.33-.63,11.88-.17.82-1.3,2.95-.32,3.37-1.86.2-2.62,3.77-1.36,5.13-.5.3-1.16-.58-1.48-.89-.4-.05-1.03,1.93-1.12,2.05-3.05,3.98-8.76,7.51-13.71,8.31-1.55.25-8.48.09-9.76-.42-.26-.1-.71-.73-1.2-.9-.52-.18-.84.18-.88.16-.28-.09-4.26-3.01-4.69-3.41-7.63-7.19-5.89-21.33,1.61-27.86.25-.22,1.25-.73,1.84-1.22,2.29-1.92,4.46-3.55,7.26-4.98,2.91-1.48,6.04-2.24,8.89-3.48,1.43-.62,1.92-.06,3.59-1.28.43.74.46.47,1.03.39.71-.1,2.98-.49,3.37-.92-.21-.82-.84-1.46-1.29-2.14-.43-.65-.93-1.47-1.4-2.05-.37-.45-.88-.61-.92-.65-.79-.94-2.2-2.31-2.78-3.22-.4-.62-.24-1.26-.79-1.83-.42-.44-1.04-.4-1.52-.85-.66-.61-.84-1.46-1.37-2.08-.64-.76-1.7-1.22-2.19-2.09-.31-.55.26-1.53-.12-2.24.84,1.06,1.33.53,1.96,1.03,1.16.91,2.48,2.55,3.51,3.66.56.61,1.44,1.27,1.81,1.69,1.33,1.52,3.38,4.11,4.61,5.78.26.35.68,1.11,1.04,1.63.64.92,1.13,2.87,2.45,2.96,6.69-1.25,13.82-2.07,20.25-4.41,6.02-2.19,13.15-6.83,17.35-11.67.53-.61,1.52-1.72,1.65-2.49,1.12-.05,1.66-1.55,2.31-2.34.58-.71,1.86-1.81,2.21-2.61.13-.3-.03-.35-.23-.54.95-.82,3.99-5.05,3.75-6.11.76-.74,1.39-1.92,1.86-2.86,4.71-9.45,7.77-19.71,10.61-29.83,0-.43-.68-1.89-.92-2.38-.12-.25-.54-.31-.56-.35-.44-.86-.7-1.76-1.34-2.82-3.84-6.35-8.52-12.38-10.95-19.46-.17-.5-.66-2.12-.78-2.58-.5-2.05-.58-6.73-.2-8.84.25-1.41,1.01-2.67.98-4.1.97-.3.8-1.66.92-1.87.93-1.66,3.69-5.13,5.05-6.5,3.26-3.29,7.51-6.09,10.85-9.35-1.73-2.99-3.45-5.48-6.97-6.39-9.19-2.38-16.08,6.7-17.95,14.66-.16.66.21,1.03.2,1.08ZM350.13,201.29c-.37.77-1.43,1.32-.77,2.46-1.07,1.13-1.18,3.35-1.23,4.85-.05,1.76.06,5.75,1.31,6.99-.93.8.66,2.49.93,3.17,2.44,6.29,4.72,9.28,8.39,14.8.51.78.9,1.7,1.55,2.64.2.3,1.02,2.35,1.52,1.57.29-.44,1.04-4.89.9-5.46.55-1.11.92-2.46.47-3.65.67-2.15,1.05-4.54,1.34-6.78.66-5.19.83-10.41,1-15.63.14-4.08.77-15.92-.76-19.26-.13-.28-.32-.5-.53-.72-2.87,2.75-6.43,5.14-9.22,7.92-2.18,2.18-3.59,4.35-4.9,7.09ZM320.52,143.73c-.37-.07-1.16-.61-1.71-.6-.28,0-.54.42-.6.42-.06,0-.4-.48-1.02-.59-9.94-1.78-21.18,1.23-23.97,12.15-.26,1.03-.78,3.27.16,3.99-1.4,1.41-.43,1.66-.23,3.09.05.34.02.51.12.98.11.51-.37,1.11.5,1.85.16.14,4.21.09,4.16.64l-3.76,1.07c.05.79,1.52,1.69,1.6,1.87.02.04-.28.39.04.87,2.99,4.54,9.8,10.15,15.4,10.4.33.55.74.47,1.21.59,2.17.54,5.68.7,7.83.3.49-.09,1.47-.16,1.8-.57.14-.17.47-1.49.42-1.7-.1-.44-2.6-.86-3.5-2.19-.51-.74-.71-2.96-.25-3.61.2-.28,1.51-1.39,1.87-1.6,1-.62,1.94-.16,2.98-.09.12-.23.22-.47.25-.73.56-3.9.37-11.17-.06-15.14-.04-.36-.36-.84-.35-.89.03-.13.61-.34.54-1.02-.06-.6-.73-1.18-.75-1.32,0-.04.31-.33.34-.64.1-1.04-.08-6.11-.43-6.85-.3-.64-1.89-.53-2.59-.66ZM332.71,176.38l-.21.18c.18.08.25.02.21-.18ZM323.79,182.78c-.36.42-.53,1.83-.77,2.46-.42,1.11-.18.76-.29,1.34-.02.12-.69,1.97-.74,2.08-1.59,3.85-5.67,9.49-8.36,12.84-1.68,2.1-3.88,3.97-5.1,6.3-1.1.35-2.61,2.13-3.52,3.03-2.32,2.27-4.19,4.59-6.15,7.09-.54.69-.85,1.21-1.3,1.84-.49.69-.97,1.21-1.51,2.02-.77,1.16-.59.98-.92,1.87-.05.13-1.32,1.53-1.72,2.2-.87,1.47-1.24,2.57-1.86,4.12-2.16,5.4-3.47,12.2-1.54,17.92.16.47.25,1.59.54,1.83.3.26.86-.02,1.06.04,4.76,1.25,9.97.95,14.68-.53,3.84-1.21,7.87-3.11,10.46-6.26-.34-.42-.73-.82-1.07-1.25l1.25,1.45c.66.12,3.48-3.5,3.99-4.25,3.54-5.21,4.09-11.43,3.95-17.54-.97.42-.51-.08-.65-.34.64.33.52-.51.51-.83-.07-4.43-1.06-9.59-1.54-14.07-.07-.7.28-1.5-.4-2.27.66-.88.28-2.82.29-3.86.02-3.12.88-7.06,2.12-10.12.34-.83,1.81-2.38,1.42-3.38l6.75-7.24c-.4-.68-.43-.22-.86-.08-1.52.52-3.09,1.57-4.63,2.17-1.13.44-3.28.49-4.08,1.44ZM283.12,140.86c-.93-.74-1.23-.7-2.05-1.13-1.57-.82-4.52-2.36-6.36-1.93-.41.1-.86.59-.91.59-.06,0-.45-.62-1.02-.6s-.88.56-1.11.63c-1.5.44-2,.05-4.15,1.04-1.84.84-1.36.99-2.46,1.75-.04.03-.45-.11-.64.04-8.76,6.85-8.62,20.97-5.98,30.78,1.67,6.23,4.31,12.2,6.3,18.32.2.24.34-.17.52-.25.1-.04.29.15.52-.22.65-1.03,1.03-3.51,1.79-4.65,2.01-3.78,3.87-7.63,6.16-11.26.37-.59,1.8-1.43,1.05-2.15,1.37-1.53,3.23-3.09,3.88-5.13.07-.05.14-.12.21-.18.71-.64,2.8-3.42,2.84-4.24.36.27.59-.57.73-.82,2.39-4.05,4.76-8.78,4.29-13.64-.05-.46-.43-3.88-1.43-2.34.63-1.66.14-1.63-.75-2.97-.65-.98-.39-.84-1.43-1.66ZM264.31,215.84c.46-.29.61-.71.75-1.2.8-2.7.87-7.96.6-10.82-.04-.4-.33-3.04-.61-3.05-.5.27-.47.57-.58,1.02-.69,2.98-.85,8.5-.63,11.59.03.36.21,2.45.46,2.46ZM290.84,309.23c-1.34.4-2.46.1-3.41,1.48-.31-.59-1.61-.03-2.05.14-3.89,1.46-7.6,3.64-10.66,6.45-.62.57-1.89,1.15-1.12,2.05-.82-.53-1.59.85-2.04,1.49-5.86,8.48-5.61,19.72,4.54,24.5.17.08.48.54,1.01.79.74.34,1.01-.06,1.07-.04,8.57,2.24,14.72.28,20.48-6.77.42-.52,1.09-1.02,1.48-1.63l-1.1-.86c1.27.12,1.68-.25,2.12-1.45.1-.27-.23-.51-.23-.54.04-.15.71-.73.86-1.1,1.84-4.57,2.07-9.67,1.28-14.45-.47-2.8-.89-4.14-1.82-6.73-.21-.58.35-1.79-1.22-1.84,1.28-.63-.67-3.2-1.4-3.34-.78-.15-6.62,1.51-7.8,1.86Z"/><path class="cls-1" d="M250.27,307.28c-.67.6-1.48,1.45-2.39,1.97-.63.36-.96.01-1.26.08-4.87,1.04-9.44.98-14.11,3.28-20.11,9.87-3.11,33.47,8,43.24,2.44,2.14,9.58,7.07,12.76,6.95.13,0,.26.03.39.03.68.33,1.17.68,1.93.15.84,1.06,1.82,2.14,2.38,3.39.37.82-.18.77-.17.85-.66.19-1.11.71-1.63,1.04-.11-.07-.28-.1-.39-.03-.14.09-.27.24-.41.36-.07.06-.14.12-.21.18-15.76,13.05-5.47,32.79,11.13,38.96,13.4,4.98,30.36.42,40.37-9.6.16-.16.35-.31.24-.56.06-.07.14-.12.21-.18,1.42-1.32,2.73-2.25,4.42-3.19.43-.24.69-.76,1.06-.08-.8.76-1.45,2.2-1.71,2.52-15.26,18.95-46.94,22.47-61.61.86-4.91-7.23-6.45-17.03-1.31-24.54,2.06-3.01,4.51-5.16,7.43-7.29-5.29-.48-10.03-2.89-14.18-6.14-17.54-13.76-34.75-44.86-1.65-51.71l.77.06c.08-.01.13-.17.21-.18.38.64.5.31.98-.12.11-.02.26.04.39.03l.98-.12c.08,0,.13-.17.21-.18l.39.03c.12-.01.26.04.39.03.63-.06.63.09,1.36-.09.21-.05.35-.06.59-.15.25.44.45.44.77.06.57.09,1.18-.06,1.75-.06s1.03.3,1.36-.09c.18.09.38.15.56.24Z"/><path class="cls-1" d="M336.75,72.05l-.03.39c.12.13.25.27.36.42l.36.42c.13.22.41.4.53.62l-.03.39c.17.31.18.6.51,1.01-.12,1.31-2.02.67-2.52,0-.7-.94-.37-.98-1.6-1.87-.62-.45-.55-.58-1.51-.5-.13.01-.33.13-.59.15-.13,0-.26-.04-.39-.03-.14,0-.27-.04-.39-.03-.51-.65-.78-.17-1.16-.09-2.55.54-5.34.34-7.72.85-.37.08-.64.06-.9.43-.03.28,4.73,1.59,5.04,2.52-.75.26-2.38.82-2.99,1.13l-2.52-1.28c-6.48-2.71-12.99,1.3-18.65,4.31-.03.01-.26-.03-.59.15-.41.23-.81.45-1.21.68-.02,0-.2-.14-.39-.03-.71.43-1.65,1.21-2.46,1.75-.37.25-.67.63-1.04.89-.88.49-1.74,1.02-2.46,1.75-.13-.03-.99.42-1.85-.13-.59-.38-.25-.52-.2-1,.29-.19.55-.55.83-.71.02,0,.23.14.39.03.15-.1.27-.25.41-.36.29-.22.55-.49.83-.71.42-.34.81-.75,1.24-1.07.23.15.41,0,.59-.15,2.4-1.8,6.21-4.36,8.95-5.52.73-.31,2.28-.32,2.99-1.13-.96-.36-2.01.12-2.93.36-5.92,1.56-8.83,3.98-13.03,8.31-1.35,1.39-1.11,1.82-3.29,1.2.29-.68.79-1.33,1.21-1.94.13-.19.48-.34.62-.53l.03-.39c.05-.07.15-.11.21-.18l.41-.36c4.79-5.81,11.1-8.82,18.63-9.31,1.85-.12,3.89.22,5.82,0,5.28-.61,13.61-3.25,18.72-1.41.57.21,1.35.54,1.77.98Z"/><path class="cls-1" d="M351.65,286.94c.25.42.17.67.12,1.1-.95,8.68-5.5,18.49-13.72,22.49-.16.08-.34.46-.5.25.06-1.56.1-2.43,1.33-3.49.07-.06.13-.13.21-.18.09.12.29.12.39.03.32-.3.49-.69.79-.97.24-.23.71-.29.86-.45.23-.24.02-.37.03-.39,5.4-5.76,5.84-7.91,7.92-15.1.64-2.21,1.47-2.07,2.57-3.29Z"/><path class="cls-1" d="M364.72,107.56l-.03.39c-.04.46-.06,1.18-.12,1.54l-.03.39c-.04.17-.41.47-.44.74-.03,0-.23.29-.39.27-.35-.05-1.58-1.77-1.6-2.17,0-.04.29-.2.28-.36-.38-5.66-.34-10.11-5.2-14.18-.42-.35-.44-.38-.92-.65-.25-.14-.45-.37-.74-.44,0-.02-.26-.26-.21-.4.27-.85.02-1.61,1.16-1.86.6.71,1.97,1.18,2.85,2.05,3.98,3.88,5.68,9.27,5.39,14.68Z"/><path class="cls-1" d="M233.76,381.27c0,1.68-2.1,4-3.78,4.08-.59.03-2.61-.83-3.03-1.23-.8-.77-1.32-3.53-.72-4.46.16-.24,2.31-2.14,2.5-2.17.14-.02.45.25.65.23.43-.05.92-.34,1.24-.25,1.48.41,3.14,2.25,3.14,3.81Z"/><path class="cls-1" d="M364.35,292.19c2.73,2.44,1.43,7.06-2.46,6.89-4.19-.18-5.07-6.59-.98-7.53,1.2-.28,2.51-.2,3.44.64Z"/><path class="cls-1" d="M328.89,405.63c.3.29,1.15,2.12,1.18,2.53,0,.11-.33,2.01-.38,2.1-1.24,2.7-5.66,2.29-6.96-.34-1.82-3.7,2.9-7.44,6.16-4.29Z"/><path class="cls-1" d="M377.62,187.67c.96.71,2.14,2.14,2.07,3.37-.14,2.49-1.83,4.06-4.35,3.75-5.2-.66-3.93-8.21,1.14-7.5.4.06.8.13,1.13.38Z"/><path class="cls-1" d="M256.81,78.07c.21,0,1.22.28,1.42.39,5.91,3.17-1.01,10.76-4.78,5.55-1.8-2.48.44-5.9,3.35-5.94Z"/><path class="cls-1" d="M318.13,50.45c3.81,3.65-2.15,8.78-5.45,5.28-1-1.07-1.42-3.75-.43-4.86,1.67-1.86,4.04-2.18,5.88-.42Z"/><path class="cls-1" d="M369.18,78.05c2.17,2.28.87,6.12-2.44,6.49-4.24.47-5.66-6.07-1.18-7.55,1.52-.5,2.56-.06,3.62,1.06Z"/><path class="cls-1" d="M363.59,343.72c3.88,3.54-1.79,9.02-5.28,5.47-.78-.8-1.43-3.72-.81-4.49,1.57-1.99,4.1-2.8,6.1-.98Z"/><path class="cls-1" d="M377.78,229.4c1.94,1.36,2.53,3.99.89,5.79-3.03,3.33-8-.68-6.34-4.17.96-2.03,3.55-2.95,5.46-1.62Z"/><path class="cls-1" d="M306.26,412.81c1.55,1.44,1.5,4.08-.08,5.53-2.38,2.18-6.11.45-6.37-2.62-.3-3.57,3.95-5.24,6.45-2.91Z"/><path class="cls-1" d="M355.76,316.13c1.73,1.1,3.17,4.11,1.67,5.87-2.04,2.39-4.97,2.22-6.55-.5-1.1-1.91.01-4.16,1.95-5.1.47-.23,2.52-.53,2.93-.27Z"/><path class="cls-1" d="M256.83,407.27c.34.32,1.22,2.07,1.33,2.54.33,1.39-.52,2.74-1.59,3.56-2.22,1.7-4.95.58-5.83-1.99-1.22-3.56,3.91-6.2,6.09-4.1Z"/><path class="cls-1" d="M258.69,131.8c5.08,3.75-1.48,10.42-5.05,5.35-2.49-3.54,2.49-7.24,5.05-5.35Z"/><path class="cls-1" d="M386.56,107.48c3.72,3.45-1.73,9.38-5.47,5.31-3.25-3.53,2.27-8.29,5.47-5.31Z"/><path class="cls-1" d="M247.7,107.7c4.17,3.65-2.06,9.9-5.6,4.7-2.48-3.65,2.65-7.28,5.6-4.7Z"/><path class="cls-1" d="M287.69,73.7c.26.23,1.1,2.32,1.13,2.72.13,1.38-1.8,3.49-3,3.84-.52.15-2.6-.27-3.05-.63-1.07-.86-2.25-3.67-1.39-4.74,1.53-1.92,4.27-2.97,6.31-1.18Z"/><path class="cls-1" d="M388.5,143.32c4.5,3.67-.93,9.06-4.53,5.87-3.48-3.09,1.27-8.53,4.53-5.87Z"/><path class="cls-1" d="M346.54,61.74c1.13.91,1.93,1.87,1.84,3.35-.29,4.9-7.76,4.45-7.43-.57.16-2.38,3.57-4.42,5.6-2.78Z"/><path class="cls-1" d="M231.76,294.22c-.82,3.77-6.8,3.73-7.34-.27-.68-5.07,6.07-5.73,7.25-1.38.02.08.1,1.57.09,1.65Z"/><path class="cls-1" d="M249.5,220.9c4.02,3.56-2.62,9.48-5.69,4.52-2.23-3.61,2.66-7.2,5.69-4.52Z"/><path class="cls-1" d="M237.73,134.65c2.63,1.94,2.24,5.24-.69,6.66-3.17,1.54-7.33-3.5-3.2-6.46.99-.71,2.88-.95,3.89-.2Z"/><path class="cls-1" d="M249.96,283.01c1.74,2.93,3.42,5.97,5.15,8.93.21.37.59.6.8,1.12.06.15.5,2.34.48,2.47-.08.5-.7.2-.97.12-.37-.57-1.02-1.09-1.43-1.66.07-.79-.97-1.39-1.4-2.05-.13-.19-.26-.63-.51-1.01l-.53-.62c-.26-.4-.44-.82-.68-1.22l-.33-.8c-.2-.4-.79-.83-1.07-1.25l-.3-1.19c-.02-.08-.25-.31-.36-.42-.58-1.68-1.6-3.24-2.35-4.84-.16-.34-.39-.73-.51-1.01l.03-.39c-.05-.18-.25-.35-.15-.59,1.76,1.72,2.61,1.83,4.13,4.39Z"/><path class="cls-1" d="M365.52,233.89c.91,4.02,1.39,5.31,1.41,9.61l-.03.39c.01,1.36-.36,3.27-.32,4.24-.36.15-.59-.68-.68-.92-.47-1.19-1.15-2.65-1.28-3.88-.09-.84.33-1.9.1-2.81l-.64-2.86c.26-1.21.31-2.79.71-3.92.31-.86.39-.12.73.15Z"/><path class="cls-1" d="M269.29,133.98c-.65.46-.64,1.85-.94,2.25-.29.38-1.27,1.05-1.73,1.19-.55.17-.63-.22-.67-.21.11-.95.64-3.5,1.09-4.18.16-.24.6-.47.83-.7.45.15,1.34,1.59,1.43,1.65Z"/><path class="cls-1" d="M248.81,285.44s-.35.04-.56-.3c-.78-1.25-1.64-3.07-1.79-4.53.75,1.59,1.77,3.15,2.35,4.84Z"/><path class="cls-1" d="M253.99,293.99c-.48-.69-.97-1.42-1.4-2.05.42.65,1.46,1.25,1.4,2.05Z"/><path class="cls-1" d="M241.53,307.58c-.48.43-.6.76-.98.12.43-.07.66-.08.98-.12Z"/><path class="cls-1" d="M246.6,307.19c-.32.38-.52.38-.77-.06.99-.37.38,0,.77.06Z"/><path class="cls-1" d="M245.23,307.28c-.73.18-.73.02-1.36.09.52-.25,1.03-.74,1.36-.09Z"/><path class="cls-1" d="M249.71,307.04c-.33.39-.81.09-1.36.09.88-.59.77-.4,1.36-.09Z"/><path class="cls-1" d="M252.08,290.93s-.23-.15-.53-.62l.53.62Z"/><path class="cls-1" d="M249.47,287.05c-.59-.88-.23-.96-.3-1.19l.3,1.19Z"/><path class="cls-1" d="M291.4,82.15c.32-.4.39-.33.41-.36l-.41.36Z"/><path class="cls-1" d="M337.44,73.27l-.36-.42c.05.07.09-.04.36.42Z"/><path class="cls-1" d="M241.91,307.61c.31-.04.68-.08.98-.12l-.98.12Z"/><path class="cls-1" d="M250.86,289.09c-.4-.65-.27-.68-.33-.8l.33.8Z"/><path class="cls-1" d="M245.95,279.6c-.07-.17.04-.35.03-.39l-.03.39Z"/><path class="cls-1" d="M243.1,307.31c.14-.01.28.04.39.03l-.39-.03Z"/><path class="cls-1" d="M239.57,307.82c.4-.08.71.07.77.06l-.77-.06Z"/><path class="cls-1" d="M291.16,82.71s-.04-.3.03-.39l-.03.39Z"/><path class="cls-1" d="M364.55,109.87l.03-.39c-.02.12,0,.25-.03.39Z"/><path class="cls-1" d="M364.69,107.95l.03-.39c0,.13-.02.26-.03.39Z"/><path class="cls-1" d="M337.94,74.28l.03-.39c.11.19-.04.37-.03.39Z"/><path class="cls-1" d="M336.72,72.44l.03-.39c.19.21-.04.37-.03.39Z"/><path class="cls-1" d="M366.9,243.89l.03-.39c0,.13-.03.26-.03.39Z"/><path class="cls-1" d="M345.69,270.77c-.15.53.53,1.03.86,1.42.56.67,1.57,1.63,1.75,2.46.24,1.07-2.81,5.29-3.75,6.11-.13.12-.27.26-.41.36-.11-.08-.28-.1-.39-.03-1.18.75-2.44,1.62-1.18,2.82-.65.79-1.19,2.29-2.31,2.34.1-.59-.09-.72-.3-1.19.66-.5.42-1.87-.38-1.48-.16.08-.1.45-.12.47-.12.11-.32.33-.41.36-.08.02-.32-.27-.98.12-3.97,2.32-10.99,6.16-15.29,7.36-.63.18-2.15-.26-3.01.03-1.18.41-1.68,1.34-2.56,1.87s-3.65,1.16-4.87,1.66c-4.17,1.69-8.12,3.17-11.96,5.59l-1.21.68c-.19.06-.4.09-.59.15-.36-.52-.78-1.28-1.04-1.63.63-.77,1.49-1.08,2.25-1.57.08-.05.13-.13.21-.18.22-.15.4-.38.62-.53.05-.03.56-.16,1.01-.5,5.85-4.48,10.35-10.33,11.89-17.61l.17-3.57c-2,1.2-4.12,2.26-6.25,3.2-.09-.12-.24-.38-.36-.36-.33.06-2.11.88-2.61,1.11-.08.04-.13.14-.21.18-.88.09-1.81.31-2.58.77-.15.09-.27.26-.41.36-.38-.86-1.83.5-1.04.89-.25.25-.61.46-.83.71-.31.36-1.02,1.63-1.3,2.13-.21.38-1.06,1.63-.56,1.99-.05.07-.16.1-.21.18-.19.3-.22.54-.24.56-1.14,1.77-2.8,3.76-3.94,5.58-.13.21.18.66-.23.89-.37-.42-1.25-1.08-1.81-1.69,1.09-.88,6.26-9.54,6.09-10.1-3.13.89-6.22,1.88-9.24,3.07-.1.04-.32.03-.59.15-.69.3-1.52.38-2.1,1.05-.16.22.23.95.38,1.14.38.72-.19,1.69.12,2.24.49.87,1.55,1.33,2.19,2.09.52.63.71,1.47,1.37,2.08.48.45,1.1.41,1.52.85.55.57.39,1.2.79,1.83.58.91,1.99,2.29,2.78,3.22-.11.35-.53,1.03-.85,1.06-.47.05-3.43-2.52-3.83-3.17-2.54,2.75-6.04,5.62-9.62,6.83-2.78.94-6.36,1.11-9.27.75-.4.37-.32.82.11,1.11.49.34,9.47-.82,10.46-1.18.13-.05.26-.27.41-.36.41.73.54.11.77.06,4.34-1.03,8.92-2.09,12.74-4.45.47.57.97,1.4,1.4,2.05-1.07.34-1.4,1.17-2.07,1.78-.07.06-.14.12-.21.18-.27.23-.54.5-.83.71-1.67,1.22-2.15.65-3.59,1.28.47-2.13-.44-1.02-1.79-.68-2.45.62-5.01,1.3-7.5,1.73-1.45.25-8.99.71-9.39.96-.69.43,1.06,4.41,1.48,5.11.3.49.67.92,1.06,1.34-.59.49-1.58,1-1.84,1.22-1.85-2.05-2.24-4.89-3.41-7.28l-10.82.14c-4.74,15.53-4.76,34.41,3.07,49.05.51.96,1.59,3.67,2.84,3.11,5.39-2.43,9.03-8.6,11.4-13.75.04.01.36-.35.88-.16.49.17.94.8,1.2.9-1.86,4.7-4.66,9-8.4,12.45,13.97-2.08,28,2.66,41.83-.09.37-.46-.8-4.87-1.06-5.7-.91-2.92-3.74-10.24-5.79-12.18l-.39-.03c-.89-.8-1.8-1.58-2.73-2.34.09-.11.72-2.09,1.12-2.05.33.31.98,1.19,1.48.89-1.26-1.36-.5-4.93,1.36-5.13,1.39-.15,1.57.02,3.14-.53.12.02.27.06.39.03,6.07-1.53,12.26-5.32,16.74-9.67.44-.43,2.49-2.67,2.54-3,.2-1.32-4.93-5.05-6.16-5.8-2.46-1.49-4.3-1.97-7.16-1.43-.54.1-.6.08-1.19.3-.08.03-.13.15-.21.18-.28-.6-2.42.39-2.96.74-.48.31-.99.86-1.45,1.25-.47-.14-1.1.51-1.42.86-.49.52-.82,1.29-1.3,1.84-.11-.69-.4-2.05-.57-2.76.12-.13.32-.23.41-.36.08-.11.08-.26.03-.39,1.42-1.67,4.48-2.6,6.46-3.38-.25-.47-.64-.3-1.04-.37-2.2-.38-4.74-.15-6.91.34-.14-.5-1.38-1.35-.42-2.17.21.03.75-.34,1.09-.36,7.92-.5,13.38,2.49,20.78,2.13,3.48-.17,6.88-.71,9.97-2.42-.04.28-.17.96-.21,1.25-.18,1.65.12,3.81-.67,5.28-.12.23-.69.47-.83.71-.12.21-.02.37-.03.39-.24.36-.62.68-.86,1.1-.06.1-.04.27-.03.39-.49.61-2,2.17-2.06,2.85-.03.34,1.92,4.09,2.25,5.02,4,11.26-.04,24.92-9.68,32.03-1.78,1.31-3.92,2.08-5.68,3.24,1.67,7.18,1.88,15-.35,22.1-.23.72-1.26,3.76-1.52,4.25-.47.9-2.95,3.41-4.12,3.18.47-.5.45-.9.68-1.31.06-.1-.01-.31.03-.39,3.87-7.38,5.16-16,3.59-24.26-.09-.46-.47-2.69-.68-2.79-.38-.17-1.46.08-1.72.45-.15.22-.46,4.22-.72,5.2-2.95,10.94-14.66,16.29-25.26,14.55-7.79-1.28-14.33-5.63-19.81-11.13-.38-.38-1.05-.81-1.1-.86-1.1-1.18-1.75-2.34-2.65-3.5-.17-.22-.37-.4-.53-.62-.27-.36-.6-.69-.89-1.04-.12-.15.17-.96-.95-.27-.19.12-.72.56-.83.71-1.33-.44-1.39-1.89-1.93-2.67.28-.06.56-.15.8-.33.07-.05.14-.12.21-.18s.16-.11.21-.18c.32.47.38.5.77.06-.13-.22-.44-.42-.53-.62-.12-.25-.16-.52-.33-.8-.13-.22-.41-.41-.53-.62-.08-.15-.27-.27-.36-.42,0-.02.11-.24.03-.39-.32-.55-.73-1.1-1.04-1.63.02-.12.05-.26.03-.39-.06-.32-.2-.53-.33-.8-.04-.08-.14-.13-.18-.21-6.98-15.72-6.22-29.79-2.59-46.08.07-.31.48-.78.47-.83-.09-.89-2.96-.48-3.6-.86.57-.46,1.21-1.94,2.49-2.14.66-.1,1.3.78,2.1-.51.27-2.18,1.87-4.58,2.21-6.63.11-.68-.18-.83-.2-1.08-.06-.94-.3-1.85-.08-2.82l.46.33c.07.13.24.29.36.42.26.28.38.61.67.15.16-.26-.27-.42-.25-.51,0-.04.38-.33.49-.63,3.92-10.63,9.57-24.99,16.77-33.63,1.56-1.88,3.7-2.73,3.27-5.57l-3.68.12c-1.94-.05-4.72-.63-6.49-1.41-1.53-.67-3.5-2.45-4.85-2.59-5.53-.56-13.13,3.23-16.28,7.69-2.42,3.42-3.61,12.63-1.3,16.1-1.56-.94-2.49-1.83-3.03-3.53-1.2-3.75-.06-9.56,1.85-12.95,2.37-4.19,6.38-6.96,10.9-8.42,1.96-.63,4.04-.68,6-1.24-4.39-5.3-6.97-14.52-4.43-21.09.72-1.87,1.14-1.72,2.26-3.03.63-.73,1.27-1.74,1.93-2.38.39-.38.36-.23.67.15-1.17.56-.45,1.06-.47,1.13-.02.08-.57.46-.74.81-3.61,7.56-2.93,18.11,3.63,23.97.96.86,3.38.46,4.7.6,3.31.35,6.59,1.05,9.91,1.28.57-.14.48-.93.57-1.42.22-.15.2-.34.24-.56.02-.12.02-.26.03-.39s.03-.26.03-.39l.21-.18c.5.28,1.66.94,2.05,1.13-1.78,2.76,1.12,3.27,2.82,1.19.46.18,1.95.06,2.37.66l-.53.64c.3.46.79.25,1.22.59.62.5,1.1,1.4,1.7,1.96-.28.24-.55.48-.83.71-.07.06-.13.13-.21.18-.12-.01-.26-.05-.39-.03-.98.16-1.15.53-1.81.83-.02,0-.23-.11-.39-.03-1.57.76-4.35,2.25-5.4,3.56-.38.48-.6,4.63-.63,5.58-.2,6.21.59,13.08,2.75,18.93,1.32-.7,2.89-1.31,4.31-1.8,2-.69,8.53-2.21,9.75-3.06,1-.7,3.65-5.74,4.77-7.18.59-.76,1.37-1.55,2.03-2.27.32-.35.8-1.04.86-1.1,1.38-1.36,2.84-2.25,4.32-3.35.32-.24.81-.51.65-.92-.09-.24-.57-.55-.71-.83-.01-.03-.03-.29-.15-.59-.03-.08-.14-.13-.18-.21.08-.11.1-.28.03-.39-.23-.36-.64-.68-.89-1.04,1.41-.42,1.19-.26,2.16-.42l2.11,2.86c1.08-.81,2.42-1.23,3.71-1.61.97-.29,4.16-.62,4.54-.82.96-.53,1.11-5.08.55-6.18.78-.66,1.3-1.46,2.1-2.17.41,1.41.56,3.5.51,4.98-.03.81-.86,2.98-.08,3.3.61.25,2.95.14,3.87.28,1.71.27,3.35.87,5.06,1.07-1.27-1.73-2.29-3.7-3.57-5.42-.8-1.08-2.08-2.14-2.76-3.22.08-.11.1-.28.03-.39-.32-.5-.88-.96-1.25-1.45-.69-.94-.23-1.22.74-2.08,1.48,1.73,2.98,3.46,4.46,5.19.06.07.12.14.18.21.24.28.48.55.71.83-.19.47.42.87.68,1.22,1.39,1.8,2.83,5.13,4.06,6.43.89.95,3.74,2.06,5.02,3.07.77.6,1.53,1.38,2.27,2.04.37.33.76.51.92.65.13.12.23.29.36.42ZM346.81,276.28c-1.77-2.71-4.38-6.02-7.26-7.61-.27-.15-.51-.42-.86-.19,1.84,3.48,2.33,7.4,3.43,11.12l4.69-3.32ZM339.82,280.79c.13-.38-1.48-6.9-1.76-7.79-.35-1.1-2.11-5.99-2.69-6.53-.18-.17-2.65-1.07-3.12-1.22-1.25-.39-7.37-1.58-8.27-1.05-.96,2.59-2.48,5.38-4.43,7.37-.87.89-2.65,1.95-3.23,2.86-.43.68-.06,2.94-.17,3.87-.64,5.8-3.55,11.7-7.69,15.8l.66.24c6.19-2.52,12.63-4.37,18.75-7.08,1.75-.77,11.56-5.36,11.94-6.46ZM315.74,271.96c2.58-1.93,4.59-4.6,5.71-7.61-.71-.34-6.69,1.34-7.09,1.96l1.38,5.64ZM313.83,273.17c.1-.29-1.25-5.69-1.62-5.75-4.48,2.59-7.42,6.98-10.15,11.25.54.16,1.52-.24,2.06-.42,1.71-.57,9.22-3.7,9.7-5.08ZM282.74,257.01l3.46-2.26c-1.23-.35-4.98.63-3.46,2.26ZM328.85,319.52c.8-.08,3.88-4.98,4.4-5.96.14-.27.43-.51.18-.86-3.17,1.63-6.79,1.3-10.2,1.54,1.95,1.51,4.52,3.02,5.61,5.28ZM279.86,254.08l-4.68-.99-4.61-.4c2.58,1.73,6.29,2.03,9.3,1.39ZM282.3,285.49c-1.6-4.8-2.55-10-2.79-15.05-.1-2.19.23-4.67.11-6.78-.02-.35.18-.61-.23-.89-8.55,10.32-12.88,23.59-17.88,35.81,1.89,1.97,4.37,3.18,6.72,4.45l1.27-4.65c2.43-5.88,7.42-9.79,12.8-12.88ZM332.19,334.9c-.14-3.87-1.23-8.19-3.24-11.5-5.6,5.94-12.25,10.89-20.26,12.91-.58.15-3.97.47-4.03.74.93,1.69,1.39,4.55,2.37,6.1,1.02,1.6,2.89,3.2,4.09,4.78,2.6,3.41,4.29,7.3,5.79,11.27,10.02-3.16,15.64-14.27,15.27-24.3ZM288.3,296.62c-2.2-2.63-3.87-5.75-5.14-8.93-4.39,2.44-8.81,5.66-11.04,10.3-.3.62-1.6,4.97-1.44,5.33.31.69,3.29.72,3.99.67,5.28-.37,10.21-3.48,13.64-7.38ZM314.95,359.96c-1.45-2.95-2.36-6.2-4.36-8.87l2.53,9.22c.39.88,1.26.14,1.84-.36ZM259.78,307.26c2.62.14,5.42-.27,8.06-.09,2.34-1.67-2.41-3.07-3.79-3.87-1.21-.7-2.3-1.56-3.41-2.4-.36.76-2.35,6.09-2.12,6.33.44-.1.84,0,1.25.03ZM264.77,364.83c7.51,10.92,23.22,20.2,36.28,13.83,6.02-2.93,10.19-8.37,10.06-15.21-11.45,2.16-22.98-.86-34.47-.51-1.38.04-11.82.77-11.87,1.89Z"/><path class="cls-1" d="M320.06,185.98s.33.21.16.7c-.27.79-.93,1.2-1.1,1.56l-.18-.21-.39-.03c-3.26-1.36-11.08-3.99-14.43-4.66-1.24-.25-4.24.36-6.07.09-1.08-.16-1.95-.44-2.94-.91-.95-.46-1.81-1.19-2.79-1.57-.11-.14-.24-.27-.36-.42-.7-.85-1.58-1.69-2.19-2.59-1.12-1.67-1.32-3.65-3.46-4.82-.33.2.02.59.13.88.27.72,1.15,3.03,1.48,3.51.1.15.26.27.36.42.14,1.68,1.06,3.16,1.79,4.6.04.09.19.17.18.21-.04.11-.42.27-.41.36,0,.1.41.43.54.62.1.15.27.27.36.42-.75.37.08.96.27,1.57,1.8,5.75,2.42,11.75,2.46,17.74,0,.91-.47,4.1-.09,4.66.57.85,1.1.68,2,.73,1.54.09,4.52.1,6.05.02.37-.02,2.18-.19,2.4-.24.67.55,0,.66-.36,1.03-1.05,1.04-2.54,2.3-3.45,3.33-1.03-.04-2.3,1.04-2.93,1.79-.23.26.62.85.77,1.15-.49.59-1.24,1.24-1.69,1.81-.18-.13-.4-.58-.53-.62l-.28-.11.07.29c-.89.67-.79,1.89-1.18,2.82-.61,1.46-1.3,3.07-2.63,4.07.04-.31.08-2.25.03-2.42-.12-.36-.4-.7-.69-.25-.83,2.72-1.36,5.53-2.08,8.28-.47,1.8-2.22,6.18-1.94,7.8-.81.93-.68,2.26-1.21,3.2-.09.16-.55.32-.58.54-.02.17.3.33.31.41.02.16.12.3.07.49-.06.21-.22.31-.33.46-.53.69-.95.29.09,1.36-.02.07-.16.1-.21.18-.06.11-.05.26-.03.39-.13.25-.34.43-.44.74-.04.12-.02.26-.03.39,0,.52.06.87-.29,1.34-.03-.01-.2.34-.69.15-.97-.37-1.24-1.21-1.35-1.28.99-.6.33-.65.27-.95.21-.16.18-.37.24-.56,2.14-8.06,4.35-16.13,6.13-24.27l-10.27-7.16c-2.67.54-5.35,1.91-7.54,3.57-1.78.93-3.79,2.65-4.97,4.27l-.83.71c-.33-1.68.69-3.68,1.92-4.9,2.69-2.65,6.23-4.04,9.54-5.67-4.17-3.68-7.17-8.44-9.66-13.35-.56-3.51-1.22-2.29.43-5.79,1.81,7.34,6.42,13.3,11.85,18.42,2.59-.62,5.24-1,7.89-1.25,1.39-.13,3.96.64,3.39-1.32-.9-3.12-3.46-7.46-4.72-10.84-2.6-6.99-4.63-14.99-5.75-22.36-.22-1.46-.04-3.22-.77-4.42.91-1.28,2.54-4.84,3.9-5.52,1.75-.58,4.79-.61,6.31-1.45l.28.12-.07-.29c.29-.21.54-.49.83-.71.02.12.39.42.44.7.27,1.54.76,2.17-.55,3.36,1.07.88,1.75.35,2.42,1.99.13.31-.28.47-.28.5-.81.44-2.17-.41-2.67.65-.36.76,0,3.85.61,4.49,1.63,1.67,10.97,6.73,13.26,7.01.6.07.98.06,1.48-.32.63.31.7.14.9.22.59.24,3.43,1.14,3.44,1.47l-.33.46,10.71,3.25ZM308.79,182.5l-.21.18c.18.08.25.02.21-.18ZM288.8,165.93c.1-.62-2.31-.1-2.34.21.66.67,1.78.48,2.34-.21ZM287.62,171.27c.78-2.42-.17-3.26-2.53-2.52l2.53,2.52ZM298.14,181l-3.81-2.23-2.16-.94c1.35,1.87,3.59,3.37,5.96,3.18ZM291.06,202.96c.53-11.82-4.01-23.22-9.11-33.67.16,5.12,1.26,10.61,2.55,15.61,1.27,4.91,3.48,12.51,5.75,16.93.22.42.48.8.81,1.13ZM298.79,211.12c.06-.59-.47-.25-.67-.25-1.96.02-4.65-.35-1.99,2.18.27-.67,2.65-1.77,2.66-1.93ZM294.6,214.67c0-.14-1.16-1.95-1.39-2.34-.15-.26-.3-.8-.6-.24-.15.28-1.11,5.92-1.08,6.32.03.47-.01.76.42,1.1.61-1.06.92-2.19,1.52-3.27.21-.38,1.13-1.47,1.13-1.56ZM289.37,217.76c.26-.01,1.02-4.56,1.06-5.06s.25-1.17-.26-1.52c-.42-.29-8.51.51-8.52.94,2.21,2.33,5.13,3.81,7.72,5.63Z"/><path class="cls-1" d="M319.72,115.55l-11.35,3.98c-.02.57,3.77,1.14,4.46,1.32,1.73.45,3.52.97,5.22,1.56-1.61,1.84-3.18,4.23-5.45,5.4-1.93.99-4.39,1.4-6.3,2.52l1.94,1.22c-1.03.64-1.57,1.62-2.99,1.13-.22-.07-1.05-.7-1.48-.89-.1-.04-.27,0-.39-.03-.07-.02-.17-.35-.36-.34-3.58,2.02-7.82,2.78-10.72,5.89-1.02.12-2.45.89-3.5.12.38-.32.68-.98,1.27-1.45.02-.02.19.11.59-.15.21-.14.42-.36.62-.53l.41-.36c2.91-1.69,5.65-3.62,8.89-4.75-1.06-.35-4.98-3.66-5.66-3.39s-3.81,3.15-4.55,3.86c-.61.59-1.48,1.53-2.06,2.17-.99,1.1-2.24,3.36-3.17,4.12-.78.64-2.02.62-2.7-.21.19-.12.48-.37.62-.53.14-.16.02-.37.03-.39.4-.49.87-.96,1.27-1.45.1-.12.02-.37.03-.39.37-.45,1.07-.8,1.45-1.25.14-.17.02-.37.03-.39.35-.42.71-.88,1.07-1.28.31-.34.61-.88.65-.92,1.46-1.51,3.44-2.79,4.97-4.27.07-.06.14-.11.21-.18.12-.12.37-.26.41-.36.07-.14.18-.21.03-.39-.68-1.1-1.82-1.71-2.63-2.61-.43-.47-.92-1.77-1.29-1.89-.31-.11-4.93.99-5.62,1.21-2.66.82-8.38,3.29-9.84,5.59-.24.38-.57,5.8-.44,6.08-.66.76-1.84-.74-2.06-1.22s.25-1.07-.26-1.47c-.71-.01-.25,2.03-2.06.12-.27-.29-.35-.85-.41-.9.37-.23.46-.61.65-.92.07-.1,0-.35.03-.39.4-.47,1.1-.83,1.53-1.34.73-.87,1.05-5.76,1.35-7.27,1.59-7.8,5.95-19.64,11.49-25.4.47-.49,1.16-.59.47-1.13.45-.42,1.06-.81,1.45-1.25,1.19-1.34,1.53-3.65,2.58-5.13l3.85.88c.18.2-.23.31-.33.46-.27.39-.55.73-.86,1.1-.36.37-1.15.71-1.07,1.28-1.72,1.94-1.92,1.92-2.7,4.54-2.05,6.95-1.16,16.67,3.28,22.57,2.94.31,6.05.11,9.09.35,1.02.08,3.64.76,4.41.66,1.71-.21,6.82-2.75,8.99-3.47,1.7-.57,3.74-.81,5.27-1.72.4.51,1.15,1.34,1.6,1.87ZM315.41,123.95c.04-.3-1.12-.47-1.41-.55-3.19-.87-6.51-1.37-9.73-2.17-2.44,1.02-4.79,2.35-6.98,3.85-.05.64,5.23,3.57,6.09,4.06,1.46-.6,11.92-4.43,12.02-5.19ZM283.77,100.38c.05-.7.44-1.6.33-2.4-1.2.99-2.12,2.81-2.93,4.24-3.74,6.56-6.33,14.35-7.07,21.86,3.87-3.34,8.95-4.63,13.81-5.72-3.42-5.29-4.55-11.78-4.14-17.97ZM300.34,120.65c-2.51-.31-5.09-.65-7.62-.48-.3.02-.73-.25-.61.33.06.28,2.85,3.11,3.06,3.17.61.16,4.3-2.58,5.17-3.02Z"/><path class="cls-1" d="M322.79,203.84c-.29.39-1.21,1.07-1.66,1.42-.02.02-.2-.12-.59.15-.15.1-.27.26-.41.36-.07.05-.13.12-.21.18-.14.11-.28.28-.41.36-.11-.07-.27-.09-.39-.03-.14.08-.27.25-.41.36-.07.05-.13.13-.21.18-2.01,1.2-4.19,1.91-6.4,2.61,2.75,1.19,5.54,2.19,7.72,4.38,2.27,2.29,2.98,4.53,4.4,7.22.14.27-.32.76.65.34.14,6.11-.4,12.33-3.95,17.54-.51.75-3.33,4.37-3.99,4.25l-1.25-1.45c-1.09-1.37-2.53-2.53-3.51-3.66l-6.95-8.1c-.35-.41-8.65-5.54-9.17-5.65-.13-.03-.26-.03-.39-.03-.2-.16-.34-.44-.53-.62.33-.89.14-.71.92-1.87.87.61,1.91.99,2.79,1.57.21.14.34.59.74.44.07.06.11.15.18.21.34.29.72.77,1.2.77.2-.18-.6-.87-.79-1.13-.92-1.26-1.88-2.51-2.62-3.89.45-.63.76-1.15,1.3-1.84.91.8,1.17,1.99,1.82,2.95,1.35,2,3.71,5.25,5.27,7.01,1.61,1.83,4.99,3.79,6.96,5.61,2.14,1.98,3.76,4.22,5.74,6.21.21.21.48.79.75.25.3-.6-.4-2.84-.43-3.67-.15-3.41.76-6.69,2.15-9.77,1.25-2.76,2.07-2.39.67-5.77-2.87-6.94-8.58-9.77-15.75-9.54-.46.02-.59.44-1.03-.38.92-.9,2.42-2.67,3.52-3.03.32-.1.98.13,1.16.09.52-.11,1.31-.27,1.78-.45.08-.03.13-.15.21-.18l.39.03c.2-.08.41-.44.62-.53.59.72,1.55.02,2.16-.42.15-.1.27-.25.41-.36.62.07,1.13-.31,1.6-.65.29-.21.53-.51.83-.71l.41-.36c.22-.12.52-.17.8-.33.08-.04.36.01.69-.21.35-.24,2.36-1.92,2.4-2.08.01-.05-.28-.28-.36-.41.14-.12.28-.24.41-.36l.21-.18c.28-.23.55-.48.83-.71,0,1.04.37,2.98-.29,3.86ZM321.4,235.35c.38.04,1.28-3.55,1.36-4.06.06-.38.4-3.17-.04-3.2-.45.51-.73,1.32-.94,1.96s-1.36,5.2-.38,5.3Z"/><path class="cls-1" d="M301.26,312.55c-4.01,1.55-8.13,3.3-11.24,6.41-.49.49-2.67,3.11-2.78,3.57-.12.5.88,4.01,1.18,4.65,2.3,4.89,7.38,7.32,12.52,7.65,0,.03.32.27.23.54-.44,1.2-.85,1.56-2.12,1.45l1.1.86c-.39.61-1.06,1.12-1.48,1.63l-14.58-9.85c-.51-.02-1.13,2.03-1.32,2.52-.64,1.64-4.14,12.03-4.11,12.97,0,.13-.03.26-.03.39-.12.23-.38.45-.44.74-.06-.01-.33.39-1.07.04-.53-.25-.84-.71-1.01-.79.16-.22.39-.48.44-.74.08-.41-.16-.56-.15-.59.97-3.28,2.19-7.17,3.3-10.41.04-.12,0-.29.03-.39.03-.07.18-.1.21-.18.04-.1.37-.21.46-.41.1-.22-.09-.94.25-1.28.1-.17.14-.39.24-.56.5-.92.02-.59.06-.77s.18-.37.24-.56c.04-.13,0-.33.03-.39.06-.12.33-.22.41-.36s.31-.25.34-.45c.15-.97-3.56-3.2-4.26-4.12-1.23-1.37-2.33-2.8-3.57-4.15-.06-.07-.11-.15-.18-.21-.13-.12-.24-.34-.36-.42-.76-.89.5-1.48,1.12-2.05.31.43.78.81,1.07,1.25.01.02-.15.22-.03.39.59.8,1.79,2.29,2.5,2.91.1.09.27.09.39.03,1.17,1.02,2.26,2.72,3.71,3.53.31.17.16.43.56,0,.24-.25,1.91-3.2,1.99-3.49.16-.56-.01-2.94.13-3.92.28-1.95,1.31-5.69,2.39-7.28.94-1.39,2.06-1.08,3.41-1.48-1.66,2.88-3.41,6.03-3.42,9.43,3.33-3.98,7.85-6.22,12.62-7.95,1.57.04,1.01,1.26,1.22,1.84ZM286.7,328.31c.01-.16-1.18-2.8-1.34-2.82-1.2,1.5-.87,1.91.66,2.87.26.17.63.58.68-.06Z"/><path class="cls-1" d="M320.52,143.73c.14,1.31-2.93,7.51-2.88,7.92.02.16.33.49.51.55.24.08,4.36-.33,5.06-.32.02.14.68.72.75,1.32.07.68-.51.89-.54,1.02-1.19.18-6.17-.24-6.87.23-.84.56-2.68,3.79-3.7,4.88-1.84,1.96-4.28,3.72-6.49,5.22-.04.47,3.94,1.54,4.61,1.8,2.21.87,4.61,1.95,6.76,2.98.97.47,2.16.92,2.87,1.74-.35.22-1.67,1.32-1.87,1.6-2.4-1.53-5.12-2.75-7.76-3.8-1.63-.65-6.04-2.41-7.57-2.49-1.69-.09-5.56,2.22-7.63,2.2-.08-.18-1.55-1.08-1.6-1.87l3.76-1.07c.05-.55-4-.5-4.16-.64-.87-.74-.39-1.34-.5-1.85,1.71-.21,3.43-.07,5.14.09,1.03.1,3.47.76,4.23.64,2.01-.32,6.44-4.01,7.91-5.51,1.07-1.09,1.87-2.46,2.93-3.56-.22-.42-.47-.32-.84-.35-4.38-.29-11.81,2.06-15.54,4.33-.08.05-.13.13-.21.18-.29.18-.54.51-.83.71-.02.01-.22-.15-.39-.03-.28.2-.58.47-.83.71-.22.21-.58.38-.44.74-.4.37-.84.7-1.24,1.07-.2-1.42-1.17-1.67.23-3.09.43-.43.98-.85,1.45-1.25.14-.12.27-.25.41-.36,3.62-2.78,7.86-4.06,12.28-4.79,1.19-.19,6.6-.43,7.05-.69,1.57-.92,2.83-6.71,3.63-8.47.06,0,.32-.41.6-.42.55-.01,1.34.53,1.71.6Z"/><path class="cls-1" d="M283.12,140.86c-.48.3-.67.71-.91,1.19-1.88,3.7-3.02,8.91-2.39,13.01l2.17-7.59,2.55-4.94c.89,1.34,1.38,1.31.75,2.97-2.82,7.4-3.19,8.93-3.59,16.79-.04.83-2.13,3.61-2.84,4.24-3.02-2.12-6.03-4.13-8.28-7.13-3.93-5.23-4.08-9.16-5.37-15.06-.04-.18.03-.41-.15-.59.02-.07.29-.17.31-.36.05-.46-.09-1.7-.31-2.16,1.1-.76.61-.91,2.46-1.75-.58,7.51,1.24,15.24,6.68,20.8.63.65,4.27,3.63,4.98,3.46.49-.11.12-.53.05-.76-.71-2.26-2.09-4.73-2.96-7.02-2.17-5.67-3.93-11.47-4.59-17.52.23-.07.51-.61,1.11-.63s.96.6,1.02.6c.66,4.71,1.75,9.45,3.62,13.85.25-3.24,1.1-6.03,2.23-9.03.12-.31-.08-.55.03-.82.3-.71,1.25-1.7,1.39-2.67.82.43,1.12.39,2.05,1.13ZM279.79,155.45l-.21.18c.18.08.25.02.21-.18Z"/><path class="cls-1" d="M361.54,116.43c-.23.41-.56.74-.86,1.1-.06.07-.15.11-.21.18-.23.31-.78.91-.76,1.25.54,1.49,1.07,3.31,1.31,4.86.09.59-.2,1.69-.03,2.47-.69.79-1.94-.54-2.28-.56.2-.75-.43-5.27-.96-5.31-1.47,1.4-3.25,2.41-5.01,3.4l-7.67,2.8c-.1-.14-.68-.34-1.09-.95-.7-1.05-.08-1.21-.1-1.28,2.25-.06,13.2-4.51,13.01-6.47s-5.21-6.3-7.03-7.32c-3.06-1.71-4.55-1.72-7.81-.51.04-.12-.1-.48.07-.86.45-1.01,1.19-2.39,2.32-2.64.17-.04.58.15,1.06.02.75-.2,1.43-.59,2.11-.94,1.2.37,1.51.71,2.43,1.16l-.21.18-.21.18c-.13.11-.34.24-.41.36l-.28-.11.07.29c3.65,1.33,5.76,3.83,8.23,6.64l.36.42c.36.41.71.84,1.07,1.25l-.12.28c.21.2.57-.2.33-.46.5-.32.95-.89,1.45-1.25.6.69.82,1.29,1.22,1.84Z"/><path class="cls-1" d="M353.34,205.02c.76,1.05.77,2.02,1.43,2.93.7.96,1.68,1.47,2.44,2.41,3.57,4.41,3.78,11.52,4.95,16.67l.18.21c.33.47.65.87.86,1.42.46,1.19.08,2.54-.47,3.65-.03-.11-.27-.26-.36-.42.08-.11.1-.28.03-.39-.15-.22-.41-.41-.53-.62-.03-.06.06-1.03-.46-.33-.16.22.13.32.25.51-1.07,1.52-.45,3.57-1.35,5.13-.64-.94-1.03-1.87-1.55-2.64.13-.11.47-1.07.47-1.13.01-.14.02-.25.03-.39,0-.06-.18-.14-.18-.21,0-.13.02-.26.03-.39.03-.27.04-.51.06-.77.01-.13.02-.26.03-.39s.02-.26.03-.39.02-.26.03-.39c0-.15.05-.34.06-.77,0-.13.03-.26.03-.39s.04-.26.03-.39.05-.27.03-.39c-.04-.25-.11-.4-.15-.59-.02-.09.07-.28.03-.39-.64-1.73-1.86-2.34-3.03-3.53.21-.42-.45-1.18-.89-1.04-.19-.19-.35-.43-.53-.62-.34-.34-.54-.22-.56-.24-.19-.16-.34-.44-.53-.62-.17-.16-.31-.36-.56-.24-.79-.73-1.75-1.21-2.79-1.57-.27-.68-1.86-2.38-.93-3.17.71.7,3.7,2.01,4.92,2.92.91.68,1.9,1.48,2.74,2.23.35.32,1.55,2.11,2,1.7.42-.38-1.79-6.98-2.21-7.92-1.1-2.49-2.3-4.45-3.97-6.61l.12-.28-.47-.13c-.17-.22-.37-.41-.53-.62-.1-.83-1.2-2.09-1.96-2.28-.21-.28-.55-.56-.71-.83-.66-1.14.4-1.69.77-2.46.97,1.28,2.29,2.45,3.21,3.74Z"/><path class="cls-1" d="M353.07,89.79c1.36.81.03,1.67-.17,2.31-3.31-1.29-7.44.5-10.07,2.53l5.03-1.23c1.47.05,3.1-.29,4.3.78-.52.7-1.47,1.45-1.69,1.81-.56-.84-2.11-.53-2.98-.4-3.3.51-5.02,1.84-7.48,3.97-.3.26-.46.76-.53.82-.38.31-2.74-.05-3.38-.16-.58-.1-1.05-.55-1.21-.58.45-.71,1.16-1.23,1.69-1.81.15-.16.02-.37.03-.39.24-.26.6-.45.83-.71.68-.78,2.68-2.3,2.19-3.32-.57-1.2-1.66-2.94-2.41-4.06.08-.11.1-.27.03-.39-.13-.22-.39-.4-.53-.62.5-.51.76-1.04,1.48-1.63,1.71,1.65,2.1,4.16,3.63,5.91,2.14-1.76,4.96-2.75,7.69-2.99.35-.03,3.41.07,3.57.17Z"/><path class="cls-1" d="M359.3,239.23c-.4.46-.41,1.06-.69,1.6-4.74,9.02-14.98,13.51-24.81,11.41-1.89-.4-3.44-1.21-5.2-1.79-2.01-1.64.38-1.88.77-2.46,1.15,1.04,3.46,1.66,4.99,1.97,8.25,1.63,16.56-1.69,21.2-8.78.98-1.5,1.52-3.22,2.41-4.76.64,1.05.9,1.96,1.34,2.82Z"/><path class="cls-1" d="M338.01,78.55c-.91,1.55-1.88,2.25-3.34,3.23-.08-.14-.25-.27-.36-.41l-.41.35c.65.58,1.12,1.78,1.99,1.9.35.42.71.83,1.07,1.25-.39.27-1.72,1.11-1.84,1.22-.42-.48-.82-.98-1.25-1.45-.3-.34-.57-.73-.89-1.04-.24-.24-1.42-1.19-1.6-1.19-2.56.1-9.08,4.29-10.88,6.14-1.12,1.15-3.2,4.49-3.66,6.02-.04.12-.03.26-.03.39l-.21.18c-.41-.17-1.51-.14-1.6-.79-.19-1.28,2.44-4.94,2.06-5.38,3.29-3.75,7.15-6.24,11.67-8.22l.28.12c.09-.14,0-.19-.07-.29-.36-.58-1.5-1-2.02-1.51,1.5-.6,1.61-.49,2.96-.74.54.37,1.51,1.27,2.02,1.51.13.06.26.02.39.03,1.4.11,2.37-.9,3.41-1.48,1.72-.97,1.46-.02,2.31.18Z"/><path class="cls-1" d="M364.36,249.32c.05.13.36.3.35.41,0,.1-.31.23-.41.36.87,1.41,1.25,3.49.78,5.1-1.44,4.93-5.79,11.49-9.1,15.4l-.26-.06c-.39.97-2.52,1.76-1.67,2.43-1,1-2.37,1.84-3.32,2.85.81-2.57,2.25-4.75,3.81-6.88.28-.38.57-.73.86-1.1l.24-.56c.24-.3,1.2-.91,1.24-1.07l.27-.95c.36-.43.4-.55.65-.92.58-.25.62-.7.86-1.1,2.55-4.29,3.57-7.48,5.21-12.07.17-.48-.29-.16.43-1.07-.26-.42-.59-.33.06-.77Z"/><path class="cls-1" d="M338.87,111.01c-.26.2-.53.22-.8.33-.05.02-.25-.07-.39-.03-.72.2-1.36.43-1.99.62-.21.06-.6-.05-.98.12-1.79.81-3.07,2.29-4.35,3.74-.3.34-.22.54-.24.56-.16.2-.47.34-.62.53-.26.34-.22.54-.24.56-.09.13-.33.22-.41.36-.12.18-.02.37-.03.39-.27.43-1.14,1.17-1.27,1.45-.7.65-.46.62-1.06.03s-1.11-1.36-1.7-1.98c3.79-3.92,7.72-8.09,12.88-10.18.33-.13,2.73-.86,2.88-.83.42.09.22.61.13.88-.26.84-1.18,2.96-1.82,3.45Z"/><path class="cls-1" d="M291.62,249.74c-.2-.05-.76.23-1.06-.04-.29-.24-.39-1.36-.54-1.83,2.47-3.08,2.83-7.14,2.63-10.95-.11-2.2-.45-4.89-1.09-6.97.62-1.56.99-2.65,1.86-4.12.33.4.32.82.38,1.29.59,4.92,2,12.46.55,17.11-.58,1.87-1.68,3.86-2.72,5.51Z"/><path class="cls-1" d="M274.78,171.84c-.12.13-.3.22-.41.36-.06.07-.15.11-.21.18-3.13,3.52-5.19,5.76-6.42,10.46l-.17,2.42c-.76,1.14-1.14,3.61-1.79,4.65-.23.37-.42.18-.52.22-.72-4.38.42-9.41,2.66-13.28,1.38-2.38,2.76-3.88,4.78-5.74.46-.43.96-.84,1.45-1.25,1.61-1.34,3.04-2.04,4.5-3.15-.64,2.04-2.5,3.6-3.88,5.13Z"/><path class="cls-1" d="M313.62,248.52c-3.19,2.52-7.12,3.91-10.87,5.37,1.94,1,3.46,2.18,5.16,3.5.12.13.23.29.36.42.46.47,1.06.75,1.46,1.28-1.25.25-1.13.29-2.55.39-3.42-3.17-8.39-5.42-13.06-4.3-.46-.46-1.18-1.25-1.52-1.77-.15-.23-.44-.41.05-.57,1.52-.51,4.8,0,6.6-.11,5.07-.29,9.85-1.97,14.37-4.2Z"/><path class="cls-1" d="M322.44,138.84c-1.39-.65-.71,1.7-1.54,2.4-.12-.03-1.66.46-2.08-.74.11-.07.36-.27.41-.36.08-.13,0-.32.03-.39.01-.04-.02-.46.06-.77.06-.26.63,0,.06-.77-.1-.13-.24-.31-.36-.42.35-.5-.34-.63-.74-.44-.19-.08-.24-.03-.39-.03-.54-.67-1.14-.57-1.69-.71-.05-.01-.16.19-.21.18-.11-.03-.32-.17-.56-.24-.31-.09-.64-.18-.95-.27-.12-.03-.27,0-.39-.03-.07-.02-.1-.19-.18-.21-.12-.04-.34-.16-.56-.24-.34-.11-.67-.18-.95-.27-.54-.39-1.21-1.4-1.69-.71-.14-.05-.35-.16-.56-.24l-1.1-.86c.49-.72,1.48-.96,2.04-1.4l8.67,3.38,2.12-7.59c.57.59.44,1.51.49,2.27.19,2.86-.15,5.81.06,8.44Z"/><path class="cls-1" d="M322.66,241.85c-.08.11-.1.28-.03.39.94,1.47,2.84,2.89,3.74,4.36.77,1.24-.53,1.45-.98,1.95-.09.1.17.44-.15.96-.9,1.46-1.01.61-1.26.63-.73.05,0,.79-.24,1.2-.46.77-1.38.86-1.48.96-.66-1.32-.94-2.79-1.43-4.18-.05-.14-.05-.34-.15-.59-.05-.14-.29-.27-.36-.42,0-.02.12-.19.03-.39-.06-.14-.27-.27-.36-.42.08-.11.1-.28.03-.39-.27-.43-.76-.81-1.07-1.25.77-.74,2.46-2.56,3.17-3.44.15.22.4.41.53.62Z"/><path class="cls-1" d="M340.1,148.92c.43-.04.85-.12,1.47-.19,1.25-.16,3.25-.19,3.49,1.35-.52.72-.67-.2-1.24-.2-.37,0-.93.41-1.31.58-2.65,1.17-4.4,1.82-7.26,2.45-1.55.34-7.48,1.46-8.72,1.17-1.52-.36-.4-1.49-.42-2.17,3.9-.44,7.86-.92,11.68-1.91.59-.15,2.14-1.07,2.31-1.08Z"/><path class="cls-1" d="M343.18,146.64c-2.21.48-4.98-1.07-6.82-2.08-.21-.11-.41-.16-.56-.24-.57-.3-1.04-1.18-1.51-.5-.06-.06-.11-.15-.18-.21l-.39-.03c-.07-.05-.11-.16-.18-.21-.3-.21-.54-.22-.56-.24-.07-.05-.1-.17-.18-.21-.18-.1-.37-.02-.39-.03-.13-.08-.22-.32-.36-.42-.81-.58-.25-.14-.77-.06-.05,0-.1-.16-.18-.21-.07-.04-.1-.17-.18-.21-.46-.25-.65-.31-1.13-.47-.91-.31-.66-.04-.77-.06-.06,0-.5-.34-.74-.44-.09-.04-.2-.36-.36-.37-.17-.01-.32.3-.41.31-.05,0-.1-.18-.18-.21-.14-.05-.27-.39-.56-.24-.13-.12-.24-.35-.36-.42-1.06-.61-2-.23-1.67-2.08.05-.28.5-.47.51-.53,3.27,1.08,6.58,2.3,9.7,3.81,1.98.96,3.78,2.25,5.67,3.19.11.05.26.04.39.03.75.65,1.51,1.36,2.17,2.11Z"/><path class="cls-1" d="M353.47,164.5c-.04.18.17.49,0,.72-.41.54-1.82,1.95-2.27,1.24-.05-.08-.17-.15-.18-.21,0-.03.24-.17.24-.56-.09-4.84-.51-5.98-2.72-10.29l.11-.28-.29.07c-.15-.28-.57-.55-.71-.83-.4-.77-.88-3.67-.63-4.51,3.22,3.02,7.43,10.1,6.46,14.65Z"/><path class="cls-1" d="M352.95,168.92c-.06.09.01.31-.03.39l-.03.39c-.62,1.32-1.29,2.66-2.04,3.92-.11.18-.31.3-.24.56-.13.13-.28.24-.41.36-1.21,1.07-6.16,4.24-7.52,4.66-2.01.62-3.66.08-5.46.36-.61-.48-.16-.59.36-1.05s1.68-1.11,2.33-1.27c.76-.18,1.89-.02,3.03-.38,4.21-1.31,4.43-2.66,6.74-5.85.79-1.09,1.09-1.18,2.19-1.86.44-.27.61-.99,1.07-.21Z"/><path class="cls-1" d="M316.78,97.87c-.6.32-.21.62-.11,1.05.94,4.16,2.64,7.92,7.1,9.19-.04.22.66,1.73-.56,2.28-.68-.59-2.08-.85-2.72-1.26-1.67-1.07-3.04-2.8-4.03-4.49-1.38-2.38-1.85-4.86-2.14-7.54.14-.83,2.21.68,2.46.77Z"/><path class="cls-1" d="M333.31,102.43c.77-.66,2.49-.35,3.4-.03.7.24.29.43.22.89-.71.57-1.41,1.47-2.1,2.17l-.03.39c-.06.06-.14.11-.21.18-1.72,1.66-4.27,2.87-5.95,4.39-.19-.55-1.93-.04-2.34.21-.51-.81-.27-1.81.56-2.28.09-.05,1.05-.34,1.39-.47.11.07.27.09.39.03.15-.08.29-.31.41-.36.04-.02.24.09.39.03.08-.03.13-.14.21-.18.02,0,.21.14.39.03.19-.12.45-.36.62-.53.34-.34.22-.54.24-.56.1-.13.33-.23.41-.36.12-.18.02-.37.03-.39.33-.54.81-1.12,1.09-1.66.06-.11.04-.26.03-.39.15-.23.7-.96.86-1.1Z"/><path class="cls-1" d="M347.4,198.94l.18.21.36.42c-.12.21.05,1.57-.92,1.87-.28-.39-.75-.56-1.1-.86-.07-.06-.11-.15-.18-.21-2.23-1.81-4.96-3.3-7.39-4.83.01-.06-.4-.57-.15-1.27.21-.6.89-1.09.92-1.19.2.4.64.46.92.65l.18.21c.29.2.52.21.56.24l.18.21c.47.28,1.03.6,1.48.89l.56.24c.07.05.1.16.18.21l.39.03c.25.17.46.64.71.83l.39.03c.38.28.69.93,1.07,1.25.3.24.88.22.95.27.23.18.5.58.71.83Z"/><path class="cls-1" d="M347.02,216.95c-3.56-.76-7.24-1.54-10.82-.44.02-.26-.36-.87-.17-1.67.1-.45.55-.77.56-.82,3.26-.63,6.44-.34,9.67.35.11.47.6,2.08.78,2.58Z"/><path class="cls-1" d="M301.8,333.73c-1.43-4.52-1.11-10.28,1.28-14.45.79,4.78.56,9.88-1.28,14.45Z"/><path class="cls-1" d="M336.12,191.68c1.09.66-.29,2.05-.38,2.49-1.69-.97-3.56-1.62-5.35-2.37-.66-.27-1.65-1.14-2.54-.96-1.08-.95.27-1.66.77-2.46.13.12.23.32.36.42.11.08.26.09.39.03,2.3.82,4.52,1.88,6.77,2.85Z"/><path class="cls-1" d="M342.26,288.16c.26.43.19,1.36.16,1.85-.04.96-.13,4.18-.27,4.74-.43,1.73-2.77,4.19-3.55,5.93.98-2.87.73-6.92,1.29-9.41.41-1.8,1.58-2.14,2.37-3.12Z"/><path class="cls-1" d="M354.74,95.93c-.16.24.03.4.15.59,1.53,2.59.9,5.47-.96,7.68-.28-.1-2.28-.73-2.46-.77,1.48-1.64,3.07-4.15,1.23-6.11.4-.49,1.16-1.5,1.51-2.02.16.22.38.4.53.62Z"/><path class="cls-1" d="M340.56,124.71c.63.14,2.12,1.75,1.19,2.22l-7.21.42c-.62-.65-1.73-1.43-2.47-2.03l.33-.47c.44.15,3.26.19,3.96.2.83,0,3.84-.42,4.19-.35Z"/><path class="cls-1" d="M354.79,141.71c-.17.11-.49.38-.62.53-.08.1-.09.27-.03.39-.16.2-.47.34-.62.53l-.65.92c-.92.85-1.6,1.31-2.67,1.93-1.15.66-.56.3-1.33.44-.57.1-2.52.66-2.54.03,0-.12.38-.3.38-.35.15-.09.28-.3.41-.36.85-.37.56-.49.62-.53.67-.49,1.3-.74,2.04-1.39.41-.36.85-.69,1.24-1.07.48-.46.84-.95,1.27-1.45.19-.22.59-.37.44-.74.17-.16.45-.45.62-.53.6-.29,2.51.94,1.43,1.66Z"/><path class="cls-1" d="M333.2,217.64c-.78.53-2.2.94-3.13,1.61-.98.7-1.83,1.66-2.8,2.4-.56-.71-.8-2-.18-2.73.46-.55,1.55-1.39,2.17-1.82,1.24-.86,3.12-1.4,4.14-2.16.76.94.9,1.95-.2,2.7Z"/><path class="cls-1" d="M326.62,186.49c.4,1-1.08,2.55-1.42,3.38l-3.2-1.22c.05-.11.71-1.96.74-2.08.51.22,1.11.64,1.54.12l-1.25-1.45c.24-.63.41-2.04.77-2.46.77,1.02,2.37,2.56,2.82,3.71Z"/><path class="cls-1" d="M330.33,126.64c-.43.49-1.27-.05-1.93-.15l-.39-.03c-1.09-.17-2.14-.43-3.08-.24-.24.05-.25.18-.48-.13-.31-.41,0-5.15.68-5.09,1.58.7.52,2.58.66,2.87.18.36,2.05.25,2.66.68.73.51,1.24,1.45,1.88,2.09Z"/><path class="cls-1" d="M331.67,176.01c1.38,1.25-1.04,1.47-1.69,1.81l-4.51-1.9s-.28-.37-.21-.69c.15-.69.13-1.79.98-1.78.56.53,4.7,2.45,5.43,2.55Z"/><path class="cls-1" d="M356.72,139.34c-.57-.45-1.21-.75-1.84-1.31,1.08-.84,1.8-3.99,2.48-4.66.37-.37,1.78-.32,2.34-.21-.21.27-.7,2.11-1.01,2.73-.59,1.18-1.21,2.36-1.97,3.44Z"/><path class="cls-1" d="M350.51,278.9c-.02.12-.06.27-.03.39.27.95.8,2.66.9,3.56.12,1.17-.84,2.23-1.92,2.37.06-1.4-.7-3.77-1.17-5.13.39-.56.82-1.81,1.36-2.61.16.56.6.97.86,1.42Z"/><path class="cls-1" d="M325.63,199.6c-.68-.47-.3-.65-.27-1.08.11-1.5.77-6.01,1.55-7.09.25-.35.46-.19.51-.22.38,1.79.04,4.14-.52,5.88-.21.65-1.12,2-1.28,2.52Z"/><path class="cls-1" d="M320.26,180.76c-2.16.4-5.66.24-7.83-.3-.48-.12-.88-.03-1.21-.59.93.04,2.18-.42,3.04-.44,1.82-.04,4.52.23,6.01,1.33Z"/><path class="cls-1" d="M319.62,124.66c-.68-.55.02-.63.35-1.03.31-.38,2.08-2.65,2.25-2.65.9.74-.46,1.68-.48,1.9-.01.12.87,1.2.67,1.81-.09.29-.5.49-.51.53-.66.26-2.11-.56-2.28-.56Z"/><path class="cls-1" d="M288.99,140.15l-1.89,1.99c-.63-1.02-2.2-1.62,0-2.41.26-.1,1.8.43,1.9.43Z"/><path class="cls-1" d="M323.04,112.7c-.08.45.69,1.82-.76,2.46-.71-.38-.95-1.48-1.22-1.84l1.99-.62Z"/><path class="cls-1" d="M327.37,111.87l-1.92,2.37c-.39-.83-.21-1.83.56-2.28.49-.29.83-.35,1.36-.09Z"/><path class="cls-1" d="M363.31,113.47c-1.07,1.39-1.3-.04-2.26-.95,1.07-1.39,1.3.04,2.26.95Z"/><path class="cls-1" d="M332.71,176.38c.05.19-.02.25-.21.18l.21-.18Z"/><path class="cls-1" d="M306.67,398.11c-.11-.26.08-.39.24-.56.12.25-.07.4-.24.56Z"/><path class="cls-1" d="M253.28,362.79c.12,0,.28-.02.39.03-.13,0-.26-.03-.39-.03Z"/><path class="cls-1" d="M255.79,368.22c.11-.07.28-.04.39.03-.11.07-.28.05-.39-.03Z"/><path class="cls-1" d="M255.16,368.75c.07-.06.14-.12.21-.18l.07.29-.28-.11Z"/><path class="cls-1" d="M305.59,76.45c.48-.33.49-.37.06-.77.92-.24,1.98-.72,2.93-.36-.71.81-2.26.82-2.99,1.13Z"/><path class="cls-1" d="M331.45,73c-.23.01-.69.62-1.16-.09.38-.08.64-.56,1.16.09Z"/><path class="cls-1" d="M296.86,84.31c.36-.26.67-.64,1.04-.89.17.8-.79.75-1.04.89Z"/><path class="cls-1" d="M334.32,73.42c-.57.18-1.1-.13-1.51-.5.96-.08.89.06,1.51.5Z"/><path class="cls-1" d="M293.98,83.9c-.2-.37.47-.96.83-.71-.28.23-.54.49-.83.71Z"/><path class="cls-1" d="M296.06,82.12c.19-.14.36-.3.59-.15-.19.14-.36.3-.59.15Z"/><path class="cls-1" d="M301.96,81.02c.33-.18.57-.13.59-.15l-.59.15Z"/><path class="cls-1" d="M300.36,81.67c.19-.11.37.04.39.03l-.39-.03Z"/><path class="cls-1" d="M293.18,84.23l.39.03c-.16.11-.37-.04-.39-.03Z"/><path class="cls-1" d="M331.83,73.03c.13,0,.26.02.39.03-.13,0-.26-.01-.39-.03Z"/><path class="cls-1" d="M339.09,307.11c.11-.06.28-.03.39.03-.09.09-.29.09-.39-.03Z"/><path class="cls-1" d="M341.13,305.72l.03-.39s.2.15-.03.39Z"/><path class="cls-1" d="M357.2,94.18l-.92-.65c.48.27.5.3.92.65Z"/><path class="cls-1" d="M317.21,293.8c.89-.53,1.38-1.46,2.56-1.87.85-.3,2.37.15,3.01-.03.42,1.42,1.71,1.85,1.74,3.53.05,3.08-3.66,4.88-6,2.81-1.61-1.42-1.33-2.57-1.31-4.44Z"/><path class="cls-1" d="M281.41,305.79c-.99.36-9.97,1.51-10.46,1.18-.43-.3-.51-.75-.11-1.11,2.9.36,6.48.19,9.27-.75.3.55.53.52,1.06.41l.24.27Z"/><path class="cls-1" d="M282.74,257.01c-1.52-1.62,2.23-2.6,3.46-2.26l-3.46,2.26Z"/><path class="cls-1" d="M299.4,283.12c.51.39-.34,1.57-.57,1.99-.4.75-.84,1.42-1.29,2.13-.5-.37.35-1.61.56-1.99.28-.5.99-1.77,1.3-2.13Z"/><path class="cls-1" d="M312.74,314.6c-.81.29-2.41,1.48-2.96.74.55-.35,2.68-1.35,2.96-.74Z"/><path class="cls-1" d="M307.43,279.47c-.75.33-2.46,1.45-2.96.74.5-.22,2.28-1.05,2.61-1.11.11-.02.26.25.36.36Z"/><path class="cls-1" d="M339.97,285.07c-.15-.34-.34-.67-.51-1.01.03-.02-.03-.39.12-.47.8-.39,1.04.97.38,1.48Z"/><path class="cls-1" d="M301.26,281.52c-.17.12-.88.73-1.04.89-.79-.39.66-1.75,1.04-.89Z"/><path class="cls-1" d="M262.57,365.63c-.37.17-.69.03-.95-.27,1.12-.69.83.12.95.27Z"/><path class="cls-1" d="M304.25,280.39c-.69.31-1.26.39-1.33.43-.61.3-.78,1.17-1.25.35.77-.47,1.69-.68,2.58-.77Z"/><path class="cls-1" d="M346.55,272.19c-.33-.4-1.02-.9-.86-1.42.35.35,1.01.94.86,1.42Z"/><path class="cls-1" d="M306.9,317.44c.32-.35.95-1,1.42-.86-.4.33-.9,1.02-1.42.86Z"/><path class="cls-1" d="M314.13,314.12c-.54.42-.78,1.03-1.19.3.58-.21.65-.19,1.19-.3Z"/><path class="cls-1" d="M333.07,258.16c-.27-.35-.87-.75-.68-1.22.28.34.87.75.68,1.22Z"/><path class="cls-1" d="M267.74,371.66c-.49.11-.8-.54-1.1-.86.05.05.72.48,1.1.86Z"/><path class="cls-1" d="M305.39,270.39c-.11-.49.54-.8.86-1.1-.06.06-.54.75-.86,1.1Z"/><path class="cls-1" d="M260.31,362.16c.1.2.4.4.53.62-.4.44-.45.41-.77-.06.1-.14.14-.4.24-.56Z"/><path class="cls-1" d="M299.16,301.72l1.21-.68c-.53.33-.47.45-1.21.68Z"/><path class="cls-1" d="M339.05,284.42c-.48.43-.6.76-.98.12.66-.39.9-.09.98-.12Z"/><path class="cls-1" d="M259.63,296.36c-.01.09.42.24.25.51-.28.46-.41.13-.67-.15l.41-.36Z"/><path class="cls-1" d="M300.61,297.95l1.01-.5c-.45.34-.96.47-1.01.5Z"/><path class="cls-1" d="M310.57,265.94l.65-.92c.16.41-.33.68-.65.92Z"/><path class="cls-1" d="M282.59,305.49c-.23.05-.36.67-.77-.06.4-.22.32-.62.77.06Z"/><path class="cls-1" d="M345.34,270.35c-.16-.14-.55-.32-.92-.65l.92.65Z"/><path class="cls-1" d="M264,367.3c-.34.24-.82-.33-.53-.62.16.22.37.41.53.62Z"/><path class="cls-1" d="M259.98,361.36c-.34.24-.82-.33-.53-.62.12.22.41.4.53.62Z"/><path class="cls-1" d="M281.31,250.31c.04-.22.03-.41.24-.56-.04.22-.02.41-.24.56Z"/><path class="cls-1" d="M310.51,264.19l-.15-.59c.12.3.14.57.15.59Z"/><path class="cls-1" d="M297.09,287.99s.05-.27.24-.56l-.24.56Z"/><path class="cls-1" d="M287.36,285.88c.27-.12.49-.11.59-.15l-.59.15Z"/><path class="cls-1" d="M299.78,298.67l-.07-.29.28.11c-.08.05-.13.13-.21.18Z"/><path class="cls-1" d="M327.51,254.63c-.07-.11-.05-.28.03-.39.07.11.05.28-.03.39Z"/><path class="cls-1" d="M310.18,263.39c-.06-.12-.04-.27.03-.39.07.11.05.28-.03.39Z"/><path class="cls-1" d="M305.45,316.17c-.06-.12-.06-.29.03-.39.06.12.05.28-.03.39Z"/><path class="cls-1" d="M294.45,305.05c.07-.06.14-.12.21-.18l.07.29-.28-.11Z"/><path class="cls-1" d="M279.86,254.08c-3,.64-6.71.34-9.3-1.39l4.61.4,4.68.99Z"/><path class="cls-1" d="M307.79,334c.11-.04.27,0,.39.03-.12.03-.26-.01-.39-.03Z"/><path class="cls-1" d="M331.67,256.12c-.06-.07-.12-.14-.18-.21l.18.21Z"/><path class="cls-1" d="M332.79,318.66c0-.12-.03-.28.03-.39.06.12.05.29-.03.39Z"/><path class="cls-1" d="M303.42,343.17l.39.03c-.05-.05-.33.02-.39-.03Z"/><path class="cls-1" d="M333.68,317.17s-.09-.18.03-.39l-.03.39Z"/><path class="cls-1" d="M343.75,281.09c.11-.07.28-.05.39.03-.11.07-.28.04-.39-.03Z"/><path class="cls-1" d="M287.81,256.63c.16-.08.37.04.39.03l-.39-.03Z"/><path class="cls-1" d="M281.57,249.36l.03-.39c0,.13-.02.26-.03.39Z"/><path class="cls-1" d="M312.32,390.01l.03-.39c-.04.07.03.29-.03.39Z"/><path class="cls-1" d="M257.6,356.91c.04.08.14.13.18.21l-.29.07.11-.28Z"/><path class="cls-1" d="M258.08,358.31c-.06-.11-.04-.28.03-.39.02.12-.01.26-.03.39Z"/><path class="cls-1" d="M259.09,360.32l.03-.39c.08.14-.04.37-.03.39Z"/><path class="cls-1" d="M290,255.83c.12-.02.26.02.39.03-.1.07-.28.04-.39-.03Z"/><path class="cls-1" d="M259.66,363.08l-.07-.29.28.11c-.07.06-.13.13-.21.18Z"/><path class="cls-1" d="M294.45,386.49c4.4,3.25-1.29,9.22-4.66,5.01-2.42-3.03,1.9-7.05,4.66-5.01Z"/><path class="cls-1" d="M303.77,107.15c-.1,1.6-2.26,3.65-3.94,3.5-4.98-.42-4.68-7.7.47-7.53,1.73.06,3.57,2.39,3.47,4.03Z"/><path class="cls-1" d="M289.79,90.75c-.08-.57.7-.91,1.07-1.28-.36.44-.68.84-1.07,1.28Z"/><path class="cls-1" d="M291.97,180.53c-.55.47-.53.78-1.03.02s-1.94-3.82-3.01-3.05c-.34-.48-1.22-2.79-1.48-3.51-.11-.29-.46-.68-.13-.88,2.14,1.17,2.34,3.15,3.46,4.82.6.9,1.48,1.74,2.19,2.59Z"/><path class="cls-1" d="M298.14,181c-2.37.19-4.61-1.3-5.96-3.18l2.16.94,3.81,2.23Z"/><path class="cls-1" d="M290.08,182.52c-.73-1.44-1.64-2.92-1.79-4.6.02.03.34-.06.66.5.49.84,1.11,3.08,1.13,4.1Z"/><path class="cls-1" d="M266.07,220.82c1.19-1.62,3.19-3.35,4.97-4.27-1.68,1.28-3.35,2.88-4.97,4.27Z"/><path class="cls-1" d="M295.12,182.52c-.36.58-2.23-.48-2.58-.87-.25-.28-.19-.67-.21-.7.98.38,1.84,1.12,2.79,1.57Z"/><path class="cls-1" d="M288.8,165.93c-.56.69-1.67.88-2.34.21.03-.31,2.44-.83,2.34-.21Z"/><path class="cls-1" d="M290.73,184.12c.3.53.91,1.26.27,1.57-.19-.61-1.02-1.21-.27-1.57Z"/><path class="cls-1" d="M285.27,244.02c-1.05-1.07-.62-.67-.09-1.36.37.47.27.86.09,1.36Z"/><path class="cls-1" d="M285.71,240.76c.57.47.23.54-.27.95-.01-.08-.34-.24-.31-.41.03-.22.49-.38.58-.54Z"/><path class="cls-1" d="M290.25,182.72c.43.48.76.6.12.98-.12-.19-.53-.53-.54-.62,0-.09.38-.24.41-.36Z"/><path class="cls-1" d="M282.48,244.97c-.07-.3-.03-.39.24-.56-.05.2-.03.41-.24.56Z"/><path class="cls-1" d="M295.42,217.26l-.07-.29.28.11s-.13.12-.21.18Z"/><path class="cls-1" d="M285.03,244.58c-.02-.12-.03-.28.03-.39.01.12.03.28-.03.39Z"/><path class="cls-1" d="M318.55,188l.39.03c-.12-.03-.29.01-.39-.03Z"/><path class="cls-1" d="M289.59,163.08c.08-.04.13-.13.21-.18l.07.29-.28-.12Z"/><path class="cls-1" d="M308.79,182.5c.05.19-.02.25-.21.18l.21-.18Z"/><path class="cls-1" d="M284.56,245.71c0-.12-.01-.27.03-.39.02.13-.03.26-.03.39Z"/><path class="cls-1" d="M264.64,341.74c-.64,3.2-6.72,3.9-7.3-.46-.54-4.09,5.07-5.96,7.02-1.98.08.17.32,2.28.28,2.44Z"/><path class="cls-1" d="M345.1,225.72c5.04,3.93-3.19,10.28-5.65,4.33-1.37-3.32,2.87-6.49,5.65-4.33Z"/><path class="cls-1" d="M284.16,93.42c.68.53,0,.64-.47,1.13-.66-.51-.03-.65.47-1.13Z"/><path class="cls-1" d="M269.28,128.94l.03-.39s.04.28-.03.39Z"/><path class="cls-1" d="M249.18,245.69c2.39,1.56,2.91,4.82.48,6.56-4.1,2.93-8.56-4.16-3.58-6.59.47-.23,2.67-.25,3.1.03Z"/><path class="cls-1" d="M286.95,131.07l.65-.92s-.34.58-.65.92Z"/><path class="cls-1" d="M285.86,132.73l-.35-.42.38.03s.11.22-.03.39Z"/><path class="cls-1" d="M290.08,135.97l.59-.15c-.4.26-.57.13-.59.15Z"/><path class="cls-1" d="M291.29,135.28l-.02-.29c.12-.17.38-.04.44-.07l-.41.36Z"/><path class="cls-1" d="M292.58,125.88l-.07-.29.28.11c-.07.06-.14.11-.21.18Z"/><path class="cls-1" d="M293.2,125.35l.03-.39c.15.18.04.25-.03.39Z"/><path class="cls-1" d="M303.38,131.75c.12.03.29-.01.39.03l-.39-.03Z"/><path class="cls-1" d="M284.38,134.37l.03-.39s.07.26-.03.39Z"/><path class="cls-1" d="M283.08,136.21l.03-.39s.11.23-.03.39Z"/><path class="cls-1" d="M280.44,200.78c-.22,2.13-2.39,3.72-4.49,3.25-4.64-1.03-3.17-7.98,1.5-7.05,1.45.29,3.13,2.38,2.99,3.8Z"/><path class="cls-1" d="M263.99,159.37c4.23,3.43-1.14,9.12-4.89,5.51-3.06-2.94,1.44-8.31,4.89-5.51Z"/><path class="cls-1" d="M272.71,171.1c-.03-.57.89-1.36,1.45-1.25-.49.4-.99.82-1.45,1.25Z"/><path class="cls-1" d="M265.21,144.34c-.24-.21-.24-.31-.15-.59.18.18.11.42.15.59Z"/><path class="cls-1" d="M306.61,237.52c3.41,3.1-1.28,8.66-4.71,5.72-4.25-3.64,1.14-8.97,4.71-5.72Z"/><path class="cls-1" d="M295.67,224.26c.13,0,.26,0,.39.03-.12.06-.28.05-.39-.03Z"/><path class="cls-1" d="M350.61,174.17c-.07-.27.13-.39.24-.56.11.25-.07.4-.24.56Z"/><path class="cls-1" d="M352.89,169.69l.03-.39c-.03.06.03.27-.03.39Z"/><path class="cls-1" d="M343,195.5l-.56-.24c.07.05.33.08.56.24Z"/><path class="cls-1" d="M346.68,198.11c-.07-.05-.65-.03-.95-.27.37-.17.69-.03.95.27Z"/><polygon class="cls-1" points="347.58 199.15 347.4 198.94 347.69 198.87 347.58 199.15"/><path class="cls-1" d="M344.28,196.57s.2-.11.39.03l-.39-.03Z"/><path class="cls-1" d="M343.18,195.71s.2-.1.39.03l-.39-.03Z"/><path class="cls-1" d="M340.21,193.93l-.18-.21c.25.18.17.2.18.21Z"/><path class="cls-1" d="M340.95,194.37l-.18-.21c.31.2.17.2.18.21Z"/><path class="cls-1" d="M357.2,210.36c-.76-.94-1.74-1.45-2.44-2.41-.66-.9-.67-1.87-1.43-2.93,1.17.55.93-.61,1.36-1.16,3.55-4.4,10.22,1.67,4.62,5.41-.7.47-1.53.42-2.12,1.09Z"/><path class="cls-1" d="M362.34,227.24l-.18-.21c.2,0,.15.16.18.21Z"/><path class="cls-1" d="M312.41,135.55c-.74-.24-1.18-.53-1.69-.71.48-.69,1.16.33,1.69.71Z"/><path class="cls-1" d="M317.9,137.33c-.06,0-.22.3-.4.28-.29-.03-.99-.77-1.29-1,.55.15,1.15.04,1.69.71Z"/><path class="cls-1" d="M319.02,137.8s-.7-.43-.74-.44c.4-.19,1.09-.06.74.44Z"/><path class="cls-1" d="M319.38,138.22c.57.78,0,.51-.06.77-.43-.4-.43-.44.06-.77Z"/><path class="cls-1" d="M316,136.79l-.56-.24c.24.07.45.21.56.24Z"/><path class="cls-1" d="M313.92,136.05l-.56-.24c.23.08.44.2.56.24Z"/><path class="cls-1" d="M314.1,136.26c.11.03.27,0,.39.03l-.39-.03Z"/><path class="cls-1" d="M319.24,140.14l.03-.39c-.02.07.05.25-.03.39Z"/><path class="cls-1" d="M321.4,235.35c-.98-.11.16-4.66.38-5.3s.49-1.46.94-1.96c.44.03.1,2.82.04,3.2-.08.51-.98,4.11-1.36,4.06Z"/><path class="cls-1" d="M321.63,201.23c.08.13.37.36.36.41-.03.15-2.05,1.84-2.4,2.08-.32.22-.61.17-.69.21.45-1.05,1.81-1.91,2.72-2.7Z"/><path class="cls-1" d="M314.85,206.34c-.61.44-1.57,1.14-2.16.42.61-.27,1.9-1.06,2.16-.42Z"/><path class="cls-1" d="M316.87,205.33c-.47.34-.98.72-1.6.65.3-.22,1.12-1.59,1.6-.65Z"/><path class="cls-1" d="M300.17,223.63c.19.26.99.95.79,1.13-.48,0-.87-.49-1.2-.77l.41-.36Z"/><path class="cls-1" d="M311.47,207.43c-.47.18-1.26.34-1.78.45.5-.39,1.35-1.2,1.78-.45Z"/><path class="cls-1" d="M299.58,223.78c-.4.15-.53-.31-.74-.44.38-.04.51.23.74.44Z"/><path class="cls-1" d="M320.54,205.41c.4-.27.57-.13.59-.15l-.59.15Z"/><path class="cls-1" d="M317.69,204.61s-.12-.08.41-.36l-.41.36Z"/><path class="cls-1" d="M311.68,207.26c.21-.08.37.04.39.03l-.39-.03Z"/><path class="cls-1" d="M318.5,206.81c.08-.05.13-.13.21-.18l.07.29-.28-.11Z"/><path class="cls-1" d="M319.12,206.28c.12-.06.27-.04.39.03-.12.06-.27.04-.39-.03Z"/><path class="cls-1" d="M319.92,205.95c.07-.05.13-.13.21-.18l.07.29-.28-.11Z"/><path class="cls-1" d="M322.05,200.88c.07-.06.13-.12.21-.18l-.21.18Z"/><path class="cls-1" d="M281.63,328.69c-.12-1.3-.84-1.14-1.52-1.79-.9-.87-1.68-1.96-2.41-2.77.7.92,4.42,3.15,4.26,4.12-.03.2-.25.31-.34.45Z"/><path class="cls-1" d="M280.66,331.33c-.33.34-.15,1.06-.25,1.28-.09.21-.42.31-.46.41-.31-.82.43-1.2.71-1.69Z"/><path class="cls-1" d="M280.95,330c-.04.18.44-.15-.06.77-.41-.34-.4-.5.06-.77Z"/><path class="cls-1" d="M276.56,344.6l-.15-.59s.23.19.15.59Z"/><path class="cls-1" d="M273.96,319.77c.07.06.12.14.18.21l-.29.07.11-.28Z"/><path class="cls-1" d="M281.19,329.44l.03-.39c-.03.06.01.25-.03.39Z"/><path class="cls-1" d="M279.71,333.59l.03-.39c-.03.09.01.27-.03.39Z"/><path class="cls-1" d="M286.7,328.31c-.05.64-.42.22-.68.06-1.53-.97-1.86-1.38-.66-2.87.16.02,1.35,2.66,1.34,2.82Z"/><path class="cls-1" d="M275.77,318.93c-.12-.16.04-.37.03-.39l-.03.39Z"/><path class="cls-1" d="M278.27,321.84c.12-.06.29-.06.39.03-.12.06-.29.06-.39-.03Z"/><path class="cls-1" d="M278.64,345.34c0-.13.03-.26.03-.39.01.12.03.28-.03.39Z"/><path class="cls-1" d="M294.83,157.86l-.07-.3.49-.06c-.14.11-.27.24-.41.36Z"/><path class="cls-1" d="M294.39,161.13c-.13-.36.23-.54.44-.74.13.36-.23.54-.44.74Z"/><path class="cls-1" d="M296.88,158.99c.08-.05.13-.13.21-.18l.07.29-.28-.11Z"/><path class="cls-1" d="M295.67,159.67c.17-.12.37.04.39.03l-.39-.03Z"/><path class="cls-1" d="M328.02,126.47l.39.03c-.13-.02-.26,0-.39-.03Z"/><path class="cls-1" d="M340.62,144.5c.12-.07.29-.06.39.03-.12.01-.28.03-.39-.03Z"/><path class="cls-1" d="M322.63,242.23c-.07-.11-.05-.28.03-.39.07.11.05.28-.03.39Z"/><path class="cls-1" d="M333.87,84.63c-.44.14-1.1-.62-.89-1.04.32.31.59.7.89,1.04Z"/><path class="cls-1" d="M316.81,94.96c0-.13,0-.26.03-.39l-.03.39Z"/><path class="cls-1" d="M345.74,200.37c.07.06.11.15.18.21l-.29.07.11-.28Z"/><path class="cls-1" d="M308.27,257.81c-.13-.13-.23-.28-.36-.42.09.07.47-.08.36.42Z"/><path class="cls-1" d="M320.83,248.11l-.15-.59c.1.26.1.46.15.59Z"/><path class="cls-1" d="M320,246.3c-.06-.11-.04-.27.03-.39.07.11.05.28-.03.39Z"/><path class="cls-1" d="M320.32,247.1l.03-.39c.09.19-.04.37-.03.39Z"/><path class="cls-1" d="M347.12,145.78c-.21-.39.27-.65.62-.53-.06.04.23.16-.62.53Z"/><path class="cls-1" d="M349.79,143.85c-.09-.5.74-1.23,1.24-1.07-.39.38-.83.71-1.24,1.07Z"/><path class="cls-1" d="M352.3,141.33c-.13-.36.22-.54.44-.74.15.37-.26.52-.44.74Z"/><path class="cls-1" d="M329.28,117.45s-.03-.22.24-.56l-.24.56Z"/><path class="cls-1" d="M334.72,112.05c.38-.17.77-.06.98-.12-.31.26-.63.34-.98.12Z"/><path class="cls-1" d="M330.13,116.35s-.06-.23.24-.56l-.24.56Z"/><path class="cls-1" d="M337.69,111.3c.14-.04.33.05.39.03l-.39-.03Z"/><path class="cls-1" d="M328.83,118.19s-.09-.2.03-.39l-.03.39Z"/><path class="cls-1" d="M359.7,133.17c-.57-.11-1.97-.16-2.34.21-2.51-1.53-3.82-4.96-1.13-6.96.1-.08,2.35-.71,2.48-.7.35.02,1.6,1.35,2.28.56.41,1.88,2.12,3.21.59,5.18-.53.68-1.44,1.12-1.88,1.7Z"/><path class="cls-1" d="M360.47,117.71c.05-.07.15-.11.21-.18l.07.29-.28-.11Z"/><path class="cls-1" d="M357.59,114.77l-.36-.42c.1.11.27.32.36.42Z"/><path class="cls-1" d="M358.87,115.84c.25.26-.12.66-.33.46l.12-.28c.07-.05.13-.13.21-.18Z"/><path class="cls-1" d="M349.01,107.71l-.07-.29.28.11c-.05.07-.15.11-.21.18Z"/><path class="cls-1" d="M349.63,107.18l.21-.18-.21.18Z"/><path class="cls-1" d="M352.04,206.86c-.62-.78-1.36-1.49-1.96-2.28.76.19,1.86,1.45,1.96,2.28Z"/><path class="cls-1" d="M356.25,223.09c-.35-.35-.81-.96-.89-1.04.44-.14,1.1.62.89,1.04Z"/><path class="cls-1" d="M361.87,230.89l-.21.18c-.12-.18-.41-.29-.25-.51.52-.7.43.27.46.33Z"/><path class="cls-1" d="M354.82,221.43c-.41.48-.66.42-.56-.24.02.02.23-.11.56.24Z"/><path class="cls-1" d="M353.72,220.57c-.25.13-.4-.08-.56-.24.25-.12.4.08.56.24Z"/><path class="cls-1" d="M352.93,207.9c-.11-.14-.25-.27-.36-.42l.47.13-.12.28Z"/><path class="cls-1" d="M359.25,227.01l.03-.39c.04.11-.05.29-.03.39Z"/><path class="cls-1" d="M359.37,227.98l.03-.39c.02.12-.04.26-.03.39Z"/><path class="cls-1" d="M362.37,231.9c-.06-.12-.04-.27.03-.39.07.11.05.28-.03.39Z"/><path class="cls-1" d="M359.31,228.76l.03-.39c0,.13-.03.26-.03.39Z"/><path class="cls-1" d="M359.23,229.91l.03-.39c0,.13-.02.26-.03.39Z"/><path class="cls-1" d="M359.17,230.68l.03-.39c0,.13-.02.26-.03.39Z"/><path class="cls-1" d="M359.08,231.84l.03-.39c-.01.13-.02.26-.03.39Z"/><path class="cls-1" d="M359.23,232.44l.03-.39c-.01.13-.01.25-.03.39Z"/><path class="cls-1" d="M354.06,272.96c-.85-.67,1.28-1.45,1.67-2.43l.26.06c-.66.78-1.18,1.63-1.92,2.37Z"/><path class="cls-1" d="M350.48,279.28c-.03-.12,0-.27.03-.39.06.11.04.28-.03.39Z"/><path class="cls-1" d="M337.42,96.74c-.67-.55,0-.66.36-1.03.72-.73,1.5-1.22,1.82-2.29.49,1.02-1.5,2.54-2.19,3.32Z"/><path class="cls-1" d="M336.56,97.83l.03-.39s.12.22-.03.39Z"/><path class="cls-1" d="M337.2,89.35c-.07-.11-.06-.28.03-.39.07.11.05.28-.03.39Z"/><path class="cls-1" d="M328.96,188.8c.12,0,.27-.01.39.03-.12.06-.28.05-.39-.03Z"/><path class="cls-1" d="M351.01,166.25l.24-.56c0,.39-.24.53-.24.56Z"/><path class="cls-1" d="M348.53,155.39c-.04-.08-.14-.13-.18-.21l.29-.07-.11.28Z"/><path class="cls-1" d="M334.67,81.78c.44.77.57,1.08,1.22,1.84-.87-.11-1.34-1.32-1.99-1.9l.41-.35c.1.14.28.27.36.41Z"/><path class="cls-1" d="M328.73,80.75l.21-.18c.06.1.16.15.07.29l-.28-.12Z"/><path class="cls-1" d="M331.9,79.83l.39.03c-.12,0-.25.03-.39-.03Z"/><path class="cls-1" d="M354.89,96.53c-.12-.2-.31-.35-.15-.59.13.19.3.36.15.59Z"/><path class="cls-1" d="M357.81,264.33c.22-.32.26-.88.86-1.1-.23.39-.27.85-.86,1.1Z"/><path class="cls-1" d="M356.89,266.2c.08-.32-.69.17.27-.95l-.27.95Z"/><path class="cls-1" d="M355.41,267.83s-.05-.21.24-.56l-.24.56Z"/><path class="cls-1" d="M274.16,172.37c.06-.07.15-.11.21-.18l.07.29-.28-.11Z"/><path class="cls-1" d="M328.28,141.03c-.4.43-.44.42-.77-.06.09-.02.24-.33.41-.31.16.01.26.33.36.37Z"/><path class="cls-1" d="M329.79,141.54c-.37.42-.47.42-.77-.06.11.02-.14-.25.77.06Z"/><path class="cls-1" d="M332.05,142.49c-.4.43-.44.42-.77-.06.52-.08-.04-.52.77.06Z"/><path class="cls-1" d="M327.33,140.77c-.26.12-.39-.08-.56-.24.29-.15.42.18.56.24Z"/><path class="cls-1" d="M333.53,143.38l-.56-.24s.26.03.56.24Z"/><path class="cls-1" d="M333.71,143.58l.39.03c-.05-.05-.31.02-.39-.03Z"/><path class="cls-1" d="M332.41,142.9s.2-.07.39.03l-.39-.03Z"/><path class="cls-1" d="M330.92,142.01c.07.04.1.17.18.21l-.29.07.11-.28Z"/><path class="cls-1" d="M330.65,106.88l.24-.56s.1.23-.24.56Z"/><path class="cls-1" d="M328.25,107.86c.11-.04.27,0,.39.03-.12.06-.27.04-.39-.03Z"/><path class="cls-1" d="M329.05,107.54l.39.03c-.14.06-.34-.04-.39-.03Z"/><path class="cls-1" d="M329.64,107.39l.39.03c-.18.11-.37-.04-.39-.03Z"/><path class="cls-1" d="M331.3,105.96l.03-.39s.09.2-.03.39Z"/><path class="cls-1" d="M332.42,103.92c-.03-.12-.04-.28.03-.39.01.12.03.28-.03.39Z"/><path class="cls-1" d="M334.8,105.85l.03-.39s.1.26-.03.39Z"/><path class="cls-1" d="M352.87,144.08l.65-.92c-.17.21-.17.47-.65.92Z"/><path class="cls-1" d="M354.14,142.63c-.06-.12-.05-.28.03-.39.06.12.05.28-.03.39Z"/><path class="cls-1" d="M289.79,367.26c.14.03,1.26.64,1.4.76,4.59,3.88-1.48,9.39-4.87,5.17-2.07-2.58.71-6.5,3.47-5.93Z"/><path class="cls-1" d="M325.56,338.85c2.88,2.02,2.56,5.81-.9,6.82s-6.21-3.88-3.17-6.36c.99-.81,2.96-1.25,4.07-.46Z"/></g></svg>