<?xml version="1.0" encoding="UTF-8"?><svg xmlns="http://www.w3.org/2000/svg" viewBox="0 0 634.03 467.33"><defs><style>.cls-1,.cls-2,.cls-3,.cls-4{isolation:isolate;}.cls-2{mix-blend-mode:multiply;opacity:.2;}.cls-2,.cls-3,.cls-5,.cls-4{fill:none;stroke:#e9eaed;stroke-linecap:round;stroke-linejoin:round;}.cls-3{opacity:.6;}.cls-4{opacity:.5;}</style></defs><g class="cls-1"><g id="Ebene_2"><g id="Ebene_17"><polyline class="cls-5" points="432.06 187.09 423.13 187.09 395.59 420.64"/><polyline class="cls-5" points="348.78 187.35 339.86 187.35 312.32 420.9"/><path class="cls-5" d="M364.54,198.44l6.63-1.61s-.99-7.66,1.31-10.86c0,0,15.93.52,17.16-14.28,0,0,9.22-1.81,4.51-10.32,0,0,21.59,5.72,18.74-18.62,0,0,11.38-.14,9.59-11.12,0,0,22.48,12.97,25.33-13.2,0,0,11.89,1.94,8.55-11.74,0,0,7.22,4.39,11.6-1.07,0,0,6.88,8.42,12.73-.03,0,0,26.2,13.82,29.07-15.86,0,0,28.03,1.51,18.18-29.9,0,0,17.75-6.08,11.34-17.25,0,0,14.38-8.77,4.5-18.66,0,0,2.09-23.26-22.21-16.95,0,0-15.16-15.66-30.68,1.73,0,0-12.3-7.54-18.63,7.17,0,0-6.44-1.95-8.14,5.5,0,0-16.64-3.41-21.92,14.56,0,0-16.93-5.54-21.5,14.02,0,0-16.72.12-15.22,21.71,0,0-7.39-.39-4.84,8.2,0,0-23.54,9.67-13.89,31.26,0,0-6.46-1.27-2.16,7.34,0,0-16.03-.91-14.61,21.13,0,0-18.44,4.49-11.7,19.1,0,0-14.6,14.97-3.83,24.21,0,0-.47,7.95,8.26,6.77l1.85,8.77h0Z"/><path class="cls-2" d="M369.51,197.23l-4.97,1.21s-3.53-11.44-3.67-16.23c0,0-8.07-9.45-.29-13.98,0,0-4.89-6.27,3.48-7.87,0,0-5.22-14.1,9.6-16.39,0,0-1.7-8.8,6.79-10,0,0-3.1-18.13,12.12-19.64,0,0-3.16-8.45,3.79-10.58,0,0-7.72-15.68,12.25-19.23,0,0-2.61-9.46,5.39-10.97,0,0-3.01-9.81,9.32-12.81,0,0,2.47-7.19,6.83-4.74,0,0,5.27-13.89,19.3-5.74,0,0,3.64-12.13,16.79-8.98,0,0-1.47-7.77,8.31-8.4,0,0-1.39-14.04,14.05-11.93,0,0,17.12-17.62,21.73-1.62,0,0,3.25-5.18,6.27,2.42,0,0,13.02-1.86,10.57,9.72,0,0,8.81,2.68,3.88,10.91,0,0,7.11,11.44-5.06,17.92,0,0,5.54,19.71-18.63,21.44,0,0-3.32,13.86-18.42,10.25,0,0-8.39,12.32-21.83-4.6,0,0,1.86,10.07-14.7,7.74,0,0,5.03,17.89-11.4,15.3,0,0,1.96,5.23-3.86,7.09,0,0-2.23,16.35-18.85,6.79,0,0-3.39,8.73-11.64,3.71,0,0,6.66,11.11-6.81,13.51,0,0,1.79,10.98-7,10.93,0,0,1.2,6.71-3.86,4.88,0,0,4.61,12.5-9.07,14.08,0,0,2.83,5.02-6.22,6.35,0,0,.65,6.75-5.98,6.73l1.79,12.74h0Z"/><path class="cls-5" d="M369.51,197.23l-4.97,1.21s-2.08-15.74-1.86-18.43c0,0-4.11-4.27.67-8.07,0,0-.97-4.15,2.13-5.79,0,0-5.41-14.93,7.21-15.37,0,0,3.32-4.76,7.72-3.64,0,0-4.35-5.97.85-9.87,0,0-3.93-17.93,10.66-17.53,0,0,.05-8.8,6.77-8.24,0,0-7.23-18.87,10.24-15.67,0,0-1.59-10.15,6.89-9.58,0,0-1.95-20.6,13.66-17.82,0,0,2.46-9.74,11.93-4.18,0,0,2.56-6.38,12.69-.06,0,0,5.1-11.78,17.23-2,0,0-2.75-10.75,3.99-13.27,0,0-4.95-19.87,8.89-17.1,0,0,10.32-11.73,15.42.2,0,0,14.33-9.64,13.72,7.64,0,0,10.35,1.43,4.34,9.92,0,0,8.89,10.13-2.74,16.48,0,0,.89,7.25-8.41,5.12,0,0,.5,14.37-18.34,10.18,0,0-6.77,8.24-12.43-.92,0,0-4.26,10.7-19.02-.2,0,0,1.98,9.18-9.19,9.27,0,0,.52,6.88-3.65,7.68,0,0,4.71,9.27-9.73,8.13,0,0,.84,9.57-5.63,7.23,0,0-.76,12.07-15.12,7.23,0,0-1.37,5.16-8.09,2.85,0,0,1.07,11.6-7.83,12.01,0,0,5.33,8.36-2.65,9.87,0,0-.25,7.09-8.83,6.54,0,0,2.94,4.97-2.8,7.7,0,0,1.99,7.43-5.68,9.3,0,0,1.8,4.83-3.87,4.02,0,0-1.63,6.55-5.17,6.53l1,18.64h0Z"/><path class="cls-5" d="M443.83,202.57h5.96s.74-6.7,3.35-8.94c0,0,13.41,3.73,17.5-8.56,0,0,8.19.37,5.96-7.82,0,0,17.13,9.31,19.74-11.91,0,0,9.68,2.24,10.43-7.45,0,0,16.39,15.64,24.21-5.96,0,0,9.68,4.1,9.68-8.19,0,0,5.21,5.21,10.05,1.49,0,0,4.1,8.56,10.8,2.61,0,0,19.36,17.13,27.93-7.45,0,0,23.46,7.08,21.6-21.6,0,0,16.3-1.49,13.18-12.29,0,0,14-4.47,7.67-14.89,0,0,6.58-19.3-15.33-18.96,0,0-9.62-16.42-26.38-4.87,0,0-8.87-8.94-17.29,2.23,0,0-5.06-2.98-8.04,2.98,0,0-13.41-6.33-21.6,7.82,0,0-13.21-8.19-21.13,7.45,0,0-14.21-3.35-17.4,15.27,0,0-6.18-1.86-5.8,5.96,0,0-21.96,3.34-18.24,23.64,0,0-5.21-2.41-3.35,5.78,0,0-13.41-4.09-16.76,14.89,0,0-16.57,0-13.87,13.78,0,0-15.48,9.68-8.25,19.74,0,0-2.04,6.65,5.61,7.45l-.25,7.82h0Z"/><path class="cls-2" d="M448.3,202.57h-4.47s-.63-10.43.25-14.52c0,0-4.89-9.68,2.64-11.92,0,0-2.85-6.33,4.58-5.96,0,0-1.51-13.04,11.53-11.92,0,0,.37-7.82,7.82-7.08,0,0,1.12-16.01,14.34-14.15,0,0-.93-7.82,5.4-8.19,0,0-3.31-14.9,14.36-13.78,0,0-.25-8.57,6.85-8.19,0,0-.52-8.94,10.55-8.94,0,0,3.58-5.59,6.77-2.61,0,0,7.34-10.69,17.56-.87,0,0,5.59-9.54,16.09-4.15,0,0,.36-6.9,8.78-5.41,0,0,1.72-12.19,14.38-7.21,0,0,18.16-11.41,18.76,3.12,0,0,3.83-3.72,4.82,3.35,0,0,11.42,1.12,6.95,10.43,0,0,6.92,4.09,1.04,10.05,0,0,3.67,11.17-7.99,14.15,0,0,.63,17.86-20.23,14.33,0,0-5.68,11.07-17.74,4.88,0,0-9.66,8.71-17.56-8.41,0,0-.5,8.92-14.07,3.53,0,0,.57,16.2-12.83,10.62,0,0,.58,4.84-4.73,5.21,0,0-5.27,13.41-17.4,1.86,0,0-4.68,6.7-10.64.74,0,0,3.35,10.8-8.56,10.06,0,0-.74,9.68-8.19,7.82,0,0-.37,5.94-4.28,3.34,0,0,1.32,11.55-10.61,10.06,0,0,1.36,4.84-6.59,4.1,0,0-.84,5.86-6.46,4.47l-1.12,11.17h0Z"/><path class="cls-5" d="M448.3,202.57h-4.47s1.49-13.78,2.24-16.01c0,0-2.61-4.47,2.24-6.7,0,0,.04-3.72,3-4.47,0,0-1.51-13.78,9.29-11.55,0,0,3.79-3.35,7.3-1.49,0,0-2.46-5.96,2.76-8.19,0,0,.37-16.01,12.66-12.66,0,0,1.87-7.45,7.45-5.59,0,0-2.24-17.5,11.91-11.17,0,0,.74-8.94,7.82-6.7,0,0,2.61-17.88,15.27-12.29,0,0,4.1-7.75,10.99-1.08,0,0,3.49-4.88,10.78,2.57,0,0,6.76-8.94,15.03,1.86,0,0-.11-9.68,6.13-10.43,0,0-.09-17.87,11.08-12.66,0,0,11.17-7.82,13.04,3.35,0,0,14.15-5.21,10.06,9.31,0,0,8.48,3.35,1.63,9.31,0,0,5.44,10.43-5.73,13.41,0,0-.74,6.33-8.19,2.61,0,0-2.54,12.29-17.66,4.84,0,0-7.45,5.59-10.35-3.35,0,0-5.82,8.19-16.09-4.1,0,0-.21,8.19-9.71,5.96,0,0-.98,5.94-4.68,5.77,0,0,2.08,8.83-9.93,4.88,0,0-1.26,8.29-6.27,4.96,0,0-3.14,10.08-14.31,3.01,0,0-2.23,4.1-7.45.74,0,0-1.49,10.06-9.13,8.56,0,0,2.79,8.19-4.28,7.82,0,0-1.67,5.96-8.84,3.72,0,0,1.46,4.82-3.97,5.95,0,0,.15,6.71-6.74,6.71,0,0,.53,4.47-4.11,2.61,0,0-2.74,5.21-5.74,4.47l-3,16.01h0Z"/><polygon class="cls-5" points="424.13 421.56 487.82 421.56 476.92 188.01 435.03 188.01 424.13 421.56"/><polygon class="cls-5" points="468.41 188.01 472.75 421.56 484.11 421.56 473.15 188.01 468.41 188.01"/><polygon class="cls-5" points="456.06 421.56 468.34 421.56 465.12 188.01 460.15 188.01 456.06 421.56"/><polygon class="cls-5" points="424.46 421.56 443.19 421.56 448.1 188.01 437.79 188.01 424.46 421.56"/><polygon class="cls-5" points="340.86 421.82 404.55 421.82 393.65 188.27 351.76 188.27 340.86 421.82"/><polygon class="cls-5" points="385.14 188.27 389.48 421.82 400.84 421.82 389.87 188.27 385.14 188.27"/><polygon class="cls-5" points="372.78 421.82 385.07 421.82 381.84 188.27 376.88 188.27 372.78 421.82"/><polygon class="cls-5" points="341.19 421.82 359.91 421.82 364.83 188.27 354.52 188.27 341.19 421.82"/><rect class="cls-5" x="415.95" y="340.37" width="2.44" height="17.29"/><rect class="cls-5" x="493.56" y="340.37" width="2.44" height="17.29"/><rect class="cls-5" x="477.42" y="340.37" width="2.44" height="17.29"/><rect class="cls-5" x="461.29" y="340.37" width="2.44" height="17.29"/><rect class="cls-5" x="445.14" y="340.37" width="2.44" height="17.29"/><rect class="cls-5" x="429.01" y="340.37" width="2.44" height="17.29"/><rect class="cls-5" x="421.98" y="362.17" width="69.28" height="6.89"/><rect class="cls-5" x="415.95" y="353.13" width="80.04" height="9.04"/><rect class="cls-5" x="415.95" y="340.37" width="80.04" height="3.16"/><rect class="cls-5" x="421.96" y="282.27" width="2.07" height="14.69"/><rect class="cls-5" x="487.92" y="282.27" width="2.07" height="14.69"/><rect class="cls-5" x="474.2" y="282.27" width="2.07" height="14.69"/><rect class="cls-5" x="460.49" y="282.27" width="2.07" height="14.69"/><rect class="cls-5" x="446.77" y="282.27" width="2.07" height="14.69"/><rect class="cls-5" x="433.05" y="282.27" width="2.08" height="14.69"/><rect class="cls-5" x="427.08" y="300.8" width="58.89" height="5.85"/><rect class="cls-5" x="421.96" y="293.12" width="68.04" height="7.68"/><rect class="cls-5" x="421.96" y="282.27" width="68.04" height="2.68"/><rect class="cls-5" x="423.56" y="217.57" width="1.98" height="14"/><rect class="cls-5" x="486.42" y="217.57" width="1.97" height="14"/><rect class="cls-5" x="473.35" y="217.57" width="1.97" height="14"/><rect class="cls-5" x="460.28" y="217.57" width="1.98" height="14"/><rect class="cls-5" x="447.2" y="217.57" width="1.98" height="14"/><rect class="cls-5" x="434.13" y="217.57" width="1.98" height="14"/><rect class="cls-5" x="428.44" y="235.24" width="56.12" height="5.58"/><rect class="cls-5" x="423.56" y="227.92" width="64.84" height="7.32"/><rect class="cls-5" x="423.56" y="217.57" width="64.84" height="2.56"/><rect class="cls-5" x="429.87" y="180.57" width="52.53" height="14.2"/><rect class="cls-5" x="410.29" y="340.63" width="2.44" height="17.29"/><rect class="cls-5" x="394.15" y="340.63" width="2.44" height="17.29"/><rect class="cls-5" x="378.01" y="340.63" width="2.44" height="17.29"/><rect class="cls-5" x="361.87" y="340.63" width="2.44" height="17.29"/><rect class="cls-5" x="338.71" y="362.43" width="69.29" height="6.89"/><rect class="cls-5" x="332.68" y="353.39" width="80.04" height="9.04"/><rect class="cls-5" x="332.68" y="340.63" width="80.04" height="3.16"/><rect class="cls-5" x="338.68" y="282.53" width="2.07" height="14.69"/><rect class="cls-5" x="404.65" y="282.53" width="2.07" height="14.69"/><rect class="cls-5" x="390.93" y="282.53" width="2.07" height="14.69"/><rect class="cls-5" x="377.22" y="282.53" width="2.07" height="14.69"/><rect class="cls-5" x="363.5" y="282.53" width="2.07" height="14.69"/><rect class="cls-5" x="349.78" y="282.53" width="2.07" height="14.69"/><rect class="cls-5" x="343.8" y="301.06" width="58.89" height="5.85"/><rect class="cls-5" x="338.68" y="293.38" width="68.04" height="7.68"/><rect class="cls-5" x="338.68" y="282.53" width="68.04" height="2.68"/><rect class="cls-5" x="340.29" y="217.83" width="1.98" height="14"/><rect class="cls-5" x="403.15" y="217.83" width="1.98" height="14"/><rect class="cls-5" x="390.07" y="217.83" width="1.98" height="14"/><rect class="cls-5" x="377.01" y="217.83" width="1.98" height="14"/><rect class="cls-5" x="363.93" y="217.83" width="1.98" height="14"/><rect class="cls-5" x="350.86" y="217.83" width="1.98" height="14"/><rect class="cls-5" x="345.17" y="235.5" width="56.12" height="5.58"/><rect class="cls-5" x="340.29" y="228.18" width="64.84" height="7.32"/><rect class="cls-5" x="340.29" y="217.83" width="64.84" height="2.56"/><rect class="cls-5" x="346.6" y="180.82" width="52.53" height="14.2"/><rect class="cls-5" x="298.4" y="173.31" width="1.88" height="28.82"/><rect class="cls-5" x="280.85" y="152.84" width="1.67" height="49.29"/><rect class="cls-5" x="270.82" y="201.09" width="37.46" height="22.35"/><rect class="cls-5" x="270.82" y="201.09" width="10.03" height="22.35"/><rect class="cls-5" x="291.99" y="215.71" width="23.95" height="9.29"/><rect class="cls-5" x="291.99" y="215.71" width="9.15" height="9.29"/><rect class="cls-5" x="260.07" y="215.71" width="23.95" height="9.29"/><rect class="cls-5" x="260.07" y="215.71" width="9.15" height="9.29"/><polygon class="cls-5" points="323.49 224.99 244.54 224.99 233.89 422.06 334.14 422.06 323.49 224.99"/><polygon class="cls-5" points="324.03 235.01 323.49 224.99 244.54 224.99 244 235.01 324.03 235.01"/><polygon class="cls-5" points="263.42 224.99 244.54 224.99 233.89 422.06 257.46 422.06 263.42 224.99"/><rect class="cls-5" x="242.63" y="223.43" width="82.92" height="5.01"/><rect class="cls-5" x="242.63" y="225.94" width="82.92" height="2.51"/><rect class="cls-5" x="275.84" y="163.07" width="11.49" height="1.67"/><rect class="cls-5" x="272.04" y="170.38" width="19.29" height="1.67"/><rect class="cls-5" x="272.04" y="179.16" width="19.29" height="1.67"/><rect class="cls-5" x="289.97" y="185.21" width="18.73" height="1.67"/><rect class="cls-5" x="267.14" y="255.07" width="52.7" height="10.65"/><polygon class="cls-5" points="278.73 265.72 290.92 265.72 299.6 255.07 287.41 255.07 278.73 265.72"/><polygon class="cls-5" points="294.6 265.72 300.28 265.72 308.95 255.07 303.27 255.07 294.6 265.72"/><polygon class="cls-5" points="267.14 255.07 267.14 256.87 318.17 256.87 318.17 265.72 319.84 265.72 319.84 255.07 267.14 255.07"/><rect class="cls-5" x="277.93" y="256.87" width="1.39" height="8.84"/><rect class="cls-5" x="293.11" y="256.87" width="1.39" height="8.84"/><rect class="cls-5" x="308.28" y="256.87" width="1.39" height="8.84"/><rect class="cls-5" x="267.14" y="269.98" width="52.7" height="10.65"/><polygon class="cls-5" points="278.73 280.63 290.92 280.63 299.6 269.98 287.41 269.98 278.73 280.63"/><polygon class="cls-5" points="294.6 280.63 300.28 280.63 308.95 269.98 303.27 269.98 294.6 280.63"/><polygon class="cls-5" points="267.14 269.98 267.14 271.78 318.17 271.78 318.17 280.63 319.84 280.63 319.84 269.98 267.14 269.98"/><rect class="cls-5" x="277.93" y="271.78" width="1.39" height="8.84"/><rect class="cls-5" x="293.11" y="271.78" width="1.39" height="8.84"/><rect class="cls-5" x="308.28" y="271.78" width="1.39" height="8.84"/><rect class="cls-5" x="267.14" y="284.88" width="52.7" height="10.65"/><polygon class="cls-5" points="278.73 295.54 290.92 295.54 299.6 284.88 287.41 284.88 278.73 295.54"/><polygon class="cls-5" points="294.6 295.54 300.28 295.54 308.95 284.88 303.27 284.88 294.6 295.54"/><polygon class="cls-5" points="267.14 284.88 267.14 286.69 318.17 286.69 318.17 295.54 319.84 295.54 319.84 284.88 267.14 284.88"/><rect class="cls-5" x="277.93" y="286.69" width="1.39" height="8.84"/><rect class="cls-5" x="293.11" y="286.69" width="1.39" height="8.84"/><rect class="cls-5" x="308.28" y="286.69" width="1.39" height="8.84"/><rect class="cls-5" x="267.14" y="299.79" width="52.7" height="10.65"/><polygon class="cls-5" points="278.73 310.45 290.92 310.45 299.6 299.79 287.41 299.79 278.73 310.45"/><polygon class="cls-5" points="294.6 310.45 300.28 310.45 308.95 299.79 303.27 299.79 294.6 310.45"/><polygon class="cls-5" points="267.14 299.79 267.14 301.6 318.17 301.6 318.17 310.45 319.84 310.45 319.84 299.79 267.14 299.79"/><rect class="cls-5" x="277.93" y="301.6" width="1.39" height="8.84"/><rect class="cls-5" x="293.11" y="301.6" width="1.39" height="8.84"/><rect class="cls-5" x="308.28" y="301.6" width="1.39" height="8.84"/><path class="cls-5" d="M250.15,273.98c2.65,0,4.8-3.83,4.8-8.55s-2.15-8.55-4.8-8.55h-1.72v17.1h1.72Z"/><path class="cls-5" d="M243.85,265.42c0,4.72,2.15,8.55,4.8,8.55s4.8-3.83,4.8-8.55-2.15-8.55-4.8-8.55-4.8,3.83-4.8,8.55Z"/><path class="cls-5" d="M224.74,271.84h23.92c1.99,0,3.6-2.87,3.6-6.42s-1.61-6.42-3.6-6.42h-32.61s-7.66.98-9.33,7.38l-.16,99.14,17.53-1.39.64-92.29h0Z"/><path class="cls-5" d="M225.59,265.55s-7.66.97-9.33,7.38l-.15,91.83,7.99-.63.64-92.29h23.92c1.97,0,3.56-2.81,3.6-6.29h-26.67,0Z"/><rect class="cls-5" x="149.03" y="198.99" width="2.71" height="87.48"/><polygon class="cls-5" points="158.04 285.41 142.73 285.41 141.47 328.38 159.3 328.38 158.04 285.41"/><polygon class="cls-5" points="158.24 292.15 158.04 285.41 142.73 285.41 142.53 292.15 158.24 292.15"/><polygon class="cls-5" points="147.95 285.41 142.73 285.41 141.47 328.38 149.2 328.38 147.95 285.41"/><polygon class="cls-5" points="159.71 345.38 141.41 331.22 141.06 331.68 141.06 333.4 159.71 347.84 159.71 345.38"/><polygon class="cls-5" points="159.71 332.45 159.43 332.09 141.06 346.31 141.06 348.77 159.71 334.33 159.71 332.45"/><polygon class="cls-5" points="159.71 362.93 141.41 348.77 141.06 349.23 141.06 350.96 159.71 365.4 159.71 362.93"/><polygon class="cls-5" points="159.71 350.01 159.43 349.64 141.06 363.86 141.06 366.32 159.71 351.89 159.71 350.01"/><rect class="cls-5" x="148.57" y="330.71" width="1.81" height="91.35"/><rect class="cls-5" x="140.22" y="327.72" width="2.51" height="94.34"/><rect class="cls-5" x="158.04" y="327.72" width="2.51" height="94.34"/><rect class="cls-5" x="138.55" y="326.04" width="23.67" height="4.67"/><rect class="cls-5" x="141.47" y="284.27" width="18.24" height="3.19"/><circle class="cls-5" cx="150.38" cy="198.43" r="3.72" transform="translate(-48.52 348.19) rotate(-89.82)"/><path class="cls-5" d="M151.74,200.29c-2.06,0-3.72-1.67-3.72-3.72,0-.39.06-.77.17-1.13-.93.68-1.53,1.77-1.53,3.01,0,2.06,1.67,3.72,3.72,3.72,1.66,0,3.07-1.09,3.55-2.6-.62.45-1.37.72-2.19.72Z"/><polygon class="cls-5" points="186.04 362.12 169.69 362.12 171.25 319.58 184.48 319.58 186.04 362.12"/><polygon class="cls-4" points="171.25 362.12 176.89 362.12 176.12 321.91 172.61 321.91 171.25 362.12"/><polygon class="cls-5" points="179.19 362.12 173.06 362.12 175.08 321.32 177.45 321.32 179.19 362.12"/><rect class="cls-5" x="171.25" y="319.58" width="13.23" height="2.85"/><polygon class="cls-5" points="181.21 315.33 174.24 315.33 175.43 287.2 180.02 287.2 181.21 315.33"/><polygon class="cls-5" points="180.1 289.02 179.69 279.51 175.76 279.51 175.36 289.02 180.1 289.02"/><polygon class="cls-5" points="179.26 290.34 180.1 289.02 179.69 279.51 179.26 279.51 179.26 290.34"/><polygon class="cls-5" points="177.1 279.51 175.76 279.51 175.36 289.02 177.1 289.02 177.1 279.51"/><polygon class="cls-5" points="175.99 279.51 175.76 279.51 175.36 289.02 175.99 289.02 175.99 279.51"/><polygon class="cls-5" points="175.67 281.53 179.78 281.08 179.7 279.72 175.75 279.72 175.67 281.53"/><polygon class="cls-5" points="177.31 287.2 175.43 287.2 174.24 315.33 177.31 315.33 177.31 287.2"/><polygon class="cls-5" points="175.95 287.2 175.43 287.2 174.24 315.33 175.39 315.33 175.95 287.2"/><polygon class="cls-5" points="178.36 287.2 179.01 315.33 181.21 315.33 180.02 287.2 178.36 287.2"/><rect class="cls-5" x="173.06" y="314.22" width="9.33" height="4.59"/><rect class="cls-5" x="173.06" y="314.22" width="3.06" height="4.59"/><rect class="cls-5" x="173.06" y="314.22" width="1.11" height="4.59"/><rect class="cls-5" x="174.38" y="286.47" width="6.69" height=".98"/><rect class="cls-5" x="174.38" y="285.52" width=".17" height="1.08"/><rect class="cls-5" x="175.31" y="285.52" width=".17" height="1.08"/><rect class="cls-5" x="176.24" y="285.52" width=".17" height="1.08"/><rect class="cls-5" x="177.18" y="285.52" width=".17" height="1.08"/><rect class="cls-5" x="178.11" y="285.52" width=".17" height="1.08"/><rect class="cls-5" x="179.04" y="285.52" width=".17" height="1.08"/><rect class="cls-5" x="179.97" y="285.52" width=".17" height="1.08"/><rect class="cls-5" x="180.9" y="285.52" width=".17" height="1.08"/><rect class="cls-5" x="174.38" y="285.41" width="6.69" height=".23"/><rect class="cls-5" x="175.31" y="278.71" width="4.78" height="1.53"/><rect class="cls-5" x="175.31" y="278.71" width="4.78" height=".56"/><path class="cls-5" d="M185.18,319.58c0,.42-.34.77-.77.77h-13.09c-.42,0-.76-.34-.76-.77h0c0-.42.34-.77.76-.77h13.09c.42,0,.77.34.77.77h0Z"/><rect class="cls-5" x="179.66" y="318.81" width="3.45" height="1.53"/><path class="cls-3" d="M186.04,362.12l-1.45-39.5c-.76.27-2.01.83-2.2,1.7-.25,1.13-1.38,31.74-1.6,37.8h5.25Z"/><polygon class="cls-5" points="170.99 326.61 184.74 326.61 184.72 326.04 171.01 326.04 170.99 326.61"/><polygon class="cls-5" points="170.68 335.17 185.05 335.17 185.03 334.61 170.7 334.61 170.68 335.17"/><polygon class="cls-5" points="170.36 343.74 185.37 343.74 185.35 343.17 170.38 343.17 170.36 343.74"/><polygon class="cls-5" points="170.05 352.3 185.68 352.3 185.66 351.73 170.07 351.73 170.05 352.3"/><polygon class="cls-5" points="206.93 362.12 190.57 362.12 192.14 319.58 205.36 319.58 206.93 362.12"/><polygon class="cls-4" points="192.14 362.12 197.78 362.12 197.01 321.91 193.49 321.91 192.14 362.12"/><polygon class="cls-5" points="200.07 362.12 193.95 362.12 195.97 321.32 198.34 321.32 200.07 362.12"/><rect class="cls-5" x="192.14" y="319.58" width="13.23" height="2.85"/><polygon class="cls-5" points="202.09 315.33 195.13 315.33 196.32 287.2 200.91 287.2 202.09 315.33"/><polygon class="cls-5" points="200.98 289.02 200.58 279.51 196.64 279.51 196.24 289.02 200.98 289.02"/><polygon class="cls-5" points="200.14 290.34 200.98 289.02 200.58 279.51 200.14 279.51 200.14 290.34"/><polygon class="cls-5" points="197.98 279.51 196.64 279.51 196.24 289.02 197.98 289.02 197.98 279.51"/><polygon class="cls-5" points="196.87 279.51 196.64 279.51 196.24 289.02 196.87 289.02 196.87 279.51"/><polygon class="cls-5" points="196.56 281.53 200.67 281.08 200.59 279.72 196.63 279.72 196.56 281.53"/><polygon class="cls-5" points="198.19 287.2 196.32 287.2 195.13 315.33 198.19 315.33 198.19 287.2"/><polygon class="cls-5" points="196.84 287.2 196.32 287.2 195.13 315.33 196.28 315.33 196.84 287.2"/><polygon class="cls-5" points="199.25 287.2 199.9 315.33 202.09 315.33 200.91 287.2 199.25 287.2"/><rect class="cls-5" x="193.95" y="314.22" width="9.33" height="4.59"/><rect class="cls-5" x="193.95" y="314.22" width="3.06" height="4.59"/><rect class="cls-5" x="193.95" y="314.22" width="1.11" height="4.59"/><rect class="cls-5" x="195.27" y="286.47" width="6.7" height=".98"/><rect class="cls-5" x="195.27" y="285.52" width=".17" height="1.08"/><rect class="cls-5" x="196.2" y="285.52" width=".17" height="1.08"/><rect class="cls-5" x="197.13" y="285.52" width=".17" height="1.08"/><rect class="cls-5" x="198.06" y="285.52" width=".17" height="1.08"/><rect class="cls-5" x="198.99" y="285.52" width=".17" height="1.08"/><rect class="cls-5" x="199.92" y="285.52" width=".17" height="1.08"/><rect class="cls-5" x="200.86" y="285.52" width=".17" height="1.08"/><rect class="cls-5" x="201.79" y="285.52" width=".17" height="1.08"/><rect class="cls-5" x="195.27" y="285.41" width="6.7" height=".23"/><rect class="cls-5" x="196.2" y="278.71" width="4.78" height="1.53"/><rect class="cls-5" x="196.2" y="278.71" width="4.78" height=".56"/><path class="cls-5" d="M206.06,319.58c0,.42-.34.77-.76.77h-13.09c-.42,0-.76-.34-.76-.77h0c0-.42.34-.77.76-.77h13.09c.42,0,.76.34.76.77h0Z"/><rect class="cls-5" x="200.54" y="318.81" width="3.45" height="1.53"/><path class="cls-3" d="M206.93,362.12l-1.45-39.5c-.76.27-2.01.83-2.2,1.7-.25,1.13-1.37,31.74-1.6,37.8h5.25,0Z"/><polygon class="cls-5" points="191.88 326.61 205.62 326.61 205.6 326.04 191.9 326.04 191.88 326.61"/><polygon class="cls-5" points="191.56 335.17 205.94 335.17 205.92 334.61 191.59 334.61 191.56 335.17"/><polygon class="cls-5" points="191.25 343.74 206.26 343.74 206.24 343.17 191.27 343.17 191.25 343.74"/><polygon class="cls-5" points="190.93 352.3 206.57 352.3 206.55 351.73 190.95 351.73 190.93 352.3"/><rect class="cls-5" x="332.68" y="340.63" width="2.44" height="17.29"/><rect class="cls-5" x="345.74" y="340.63" width="2.44" height="17.29"/><polygon class="cls-5" points="353.54 422.06 304.66 422.06 309.67 322.43 348.52 322.43 353.54 422.06"/><polygon class="cls-4" points="335.67 422.06 353.54 422.06 349.35 338.81 341.42 341.72 335.67 422.06"/><polygon class="cls-5" points="349.18 335.59 348.52 322.43 309.67 322.43 309.01 335.59 349.18 335.59"/><polygon class="cls-5" points="315.52 323.52 309.65 322.93 304.66 422.06 317.47 422.06 315.52 323.52"/><path class="cls-5" d="M308.84,320.14h40.31c.92,0,1.67.75,1.67,1.67v2.3c0,.92-.75,1.67-1.67,1.67h-40.31c-.92,0-1.67-.75-1.67-1.67v-2.3c0-.92.75-1.67,1.67-1.67h0Z"/><path class="cls-5" d="M350.82,348.96c0,.54-.44.97-.97.97h-41.7c-.54,0-.97-.44-.97-.97h0c0-.54.43-.97.97-.97h41.7c.54,0,.97.43.97.97h0Z"/><path class="cls-5" d="M353.54,385.23c0,.54-.44.97-.97.97h-46.92c-.54,0-.98-.44-.98-.97h0c0-.54.44-.97.98-.97h46.92c.54,0,.97.44.97.97h0Z"/><polygon class="cls-5" points="159.71 380.48 141.41 366.32 141.06 366.78 141.06 368.51 159.71 382.95 159.71 380.48"/><polygon class="cls-5" points="159.71 367.56 159.43 367.19 141.06 381.41 141.06 383.88 159.71 369.44 159.71 367.56"/><polygon class="cls-5" points="159.71 398.04 141.41 383.88 141.06 384.34 141.06 386.07 159.71 400.51 159.71 398.04"/><polygon class="cls-5" points="159.71 385.11 159.43 384.75 141.06 398.97 141.06 401.43 159.71 386.99 159.71 385.11"/><polygon class="cls-5" points="159.71 415.6 141.41 401.43 141.06 401.89 141.06 403.62 159.71 418.06 159.71 415.6"/><polygon class="cls-5" points="159.71 402.67 159.43 402.3 141.06 416.52 141.06 418.99 159.71 404.55 159.71 402.67"/><path class="cls-5" d="M146.5,371.51c0-.15.01-.31.01-.47,0-6.85-5.56-12.4-12.4-12.4s-12.4,5.55-12.4,12.4c0,.16,0,.31.01.47h24.78,0Z"/><path class="cls-5" d="M121.71,370.88h2.81c.82-5.39,4.04-9.54,6.17-11.76-5.13,1.47-8.9,6.17-8.98,11.76Z"/><rect class="cls-5" x="121.7" y="370.88" width="24.81" height="51.18"/><rect class="cls-5" x="138.4" y="379.93" width="8.11" height="42.13"/><rect class="cls-5" x="121.7" y="371.26" width="5.62" height="50.8"/><rect class="cls-5" x="121.7" y="370.88" width="24.81" height="6.48"/><path class="cls-5" d="M119.13,371.26c0,.74.6,1.33,1.34,1.33h27.05c.74,0,1.33-.6,1.33-1.33h0c0-.74-.6-1.33-1.33-1.33h-27.05c-.74,0-1.34.6-1.34,1.33h0Z"/><rect class="cls-5" x="121.7" y="416.68" width="24.81" height=".82"/><rect class="cls-5" x="121.7" y="404.16" width="24.81" height=".82"/><rect class="cls-5" x="121.7" y="391.63" width="24.81" height=".82"/><rect class="cls-5" x="121.7" y="379.12" width="24.81" height=".82"/><path class="cls-5" d="M134.65,358.65c-2.46,1.42-6.24,4.26-5.92,8.18,0,0,1.09,1.09,3.28,1.4,2.18.31,6.4-.62,9.05,0,1.77.42,3.95.96,5.3.84-.92-5.74-5.77-10.16-11.71-10.42h0Z"/><path class="cls-5" d="M117.26,385.03c0-.11,0-.23,0-.34,0-5.02-4.07-9.08-9.09-9.08s-9.09,4.07-9.09,9.08c0,.12,0,.23.01.34h18.15Z"/><path class="cls-5" d="M99.1,384.57h2.06c.6-3.95,2.96-6.99,4.52-8.61-3.76,1.08-6.52,4.52-6.57,8.61h0Z"/><rect class="cls-5" x="99.1" y="384.57" width="18.17" height="37.48"/><rect class="cls-5" x="111.33" y="391.2" width="5.94" height="30.85"/><rect class="cls-5" x="99.1" y="384.85" width="4.11" height="37.21"/><rect class="cls-5" x="99.1" y="384.57" width="18.17" height="4.74"/><path class="cls-5" d="M97.22,384.85c0,.54.44.98.98.98h19.81c.54,0,.98-.44.98-.98h0c0-.54-.44-.98-.98-.98h-19.81c-.54,0-.98.44-.98.98h0Z"/><rect class="cls-5" x="99.1" y="418.12" width="18.17" height=".6"/><rect class="cls-5" x="99.1" y="408.95" width="18.17" height=".6"/><rect class="cls-5" x="99.1" y="399.77" width="18.17" height=".6"/><rect class="cls-5" x="99.1" y="390.6" width="18.17" height=".6"/><path class="cls-5" d="M108.58,375.62c-1.8,1.04-4.57,3.12-4.34,5.99,0,0,.8.8,2.4,1.03,1.6.23,4.68-.46,6.63,0,1.29.31,2.9.7,3.88.61-.67-4.2-4.23-7.44-8.57-7.63h0Z"/><polygon class="cls-5" points="169.73 360.86 186 360.86 185.98 360.3 169.75 360.3 169.73 360.86"/><polygon class="cls-5" points="190.62 360.86 206.89 360.86 206.87 360.3 190.64 360.3 190.62 360.86"/><rect class="cls-5" x="156.09" y="362.12" width="83.82" height="59.94"/><rect class="cls-5" x="156.09" y="362.91" width="83.82" height="6.24"/><rect class="cls-5" x="156.09" y="362.12" width="20.05" height="59.94"/><rect class="cls-5" x="153.59" y="360.3" width="88.84" height="5.23"/><rect class="cls-5" x="153.59" y="360.3" width="88.84" height="2.17"/><rect class="cls-5" x="182.39" y="376.67" width="52.23" height="9.19"/><polygon class="cls-5" points="187.08 385.86 195.29 385.86 200.21 376.67 192 376.67 187.08 385.86"/><polygon class="cls-5" points="197.5 385.86 200.34 385.86 205.26 376.67 202.42 376.67 197.5 385.86"/><polygon class="cls-5" points="210.73 385.86 218.95 385.86 223.87 376.67 215.65 376.67 210.73 385.86"/><polygon class="cls-5" points="221.16 385.86 224 385.86 228.92 376.67 226.08 376.67 221.16 385.86"/><polygon class="cls-5" points="182.39 376.67 182.39 377.92 233.05 377.92 233.05 385.86 234.62 385.86 234.62 376.67 182.39 376.67"/><rect class="cls-5" x="221.26" y="377.92" width="1.25" height="7.94"/><rect class="cls-5" x="207.88" y="377.92" width="1.25" height="7.94"/><rect class="cls-5" x="194.5" y="377.92" width="1.25" height="7.94"/><rect class="cls-5" x="182.39" y="390.47" width="52.23" height="9.19"/><polygon class="cls-5" points="187.08 399.66 195.29 399.66 200.21 390.47 192 390.47 187.08 399.66"/><polygon class="cls-5" points="197.5 399.66 200.34 399.66 205.26 390.47 202.42 390.47 197.5 399.66"/><polygon class="cls-5" points="210.73 399.66 218.95 399.66 223.87 390.47 215.65 390.47 210.73 399.66"/><polygon class="cls-5" points="221.16 399.66 224 399.66 228.92 390.47 226.08 390.47 221.16 399.66"/><polygon class="cls-5" points="182.39 390.47 182.39 391.72 233.05 391.72 233.05 399.66 234.62 399.66 234.62 390.47 182.39 390.47"/><rect class="cls-5" x="221.26" y="391.72" width="1.25" height="7.94"/><rect class="cls-5" x="207.88" y="391.72" width="1.25" height="7.94"/><rect class="cls-5" x="194.5" y="391.72" width="1.25" height="7.94"/><path class="cls-5" d="M39.74,417.85s13.08-19.88,18.2-22.16c5.12-2.28,14.22-6.26,14.22-6.26,0,0,3.41-4.55,5.12-6.26,1.7-1.7,8.53,0,8.53,0,0,0,.76-3.58,2.47-4.15,1.7-.57,8.72-.38,8.72-.38,0,0,2.45-2.3,3.69-3.01,3.05.23,4.88-.4,6.93-.4,3.94,0,5.76,1.17,7.58-2.09,2.05-1.87,7.66-2.23,9.86-3.06,0,0,14.22-.92,17.63-.92,0,0,2.28-3.41,4.55-4.55,2.28-1.14,14.79,0,14.79,0,0,0,3.98-2.84,7.39-3.41,3.41-.57,22.18,2.85,23.89,2.85s11.94-3.54,15.92-2.91c3.98.63,26.73,5.18,26.73,5.18,0,0,9.1-.57,12.51-.57s13.65,3.98,15.36,3.98,14.22-1.71,17.06,0c2.84,1.7,10.24,8.88,11.94,9.46,0,0,6.26-.71,9.67,3.06,3.41,3.77,9.1,8.88,9.1,8.88l7.39,1.71,3.41,6.82s6.26-.57,7.96.57c1.7,1.14,5.12,6.26,5.12,6.26,0,0,16.3.54,18.01,1.68,1.7,1.14,5.12,6.82,5.12,6.82l15.36,2.84s16.68-5.09,20.66-4.52c3.98.57,11.37,4.52,11.37,4.52,0,0,8.97-.02,11.59,0,2.62.03,6.6,0,6.6,0,0,0,11.38-7.37,14.79-6.8,3.41.57,7.39,6.81,7.39,6.81h9.1l9.1,4.56s15.92-5.12,18.77-3.41c2.85,1.7,10.24,3.41,10.24,3.41,0,0,11.37-2.28,14.22,0,2.84,2.28,7.96,5.12,7.96,5.12l6.83-3.41s6.26,1.71,7.96,3.41c1.71,1.7,6.26,11.37,6.26,11.37H.5s6.26-8.53,9.67-10.24c3.41-1.71,10.81,1.7,10.81,1.7,0,0,4.55-8.53,7.96-9.1,3.41-.57,10.81-3.44,10.81-3.44h0Z"/><path class="cls-5" d="M522.22,431.71c-1.51-.76-3.79,1.14-5.69.76-1.9-.38-4.17,0-5.31-.76-1.14-.76-7.58-4.17-10.24-4.17s-6.07,1.52-10.24.76c-4.17-.76-7.21,0-7.21,0,0,0,5.31,2.28,3.79,2.65-1.52.38-14.03-.76-18.58-3.03-4.55-2.28-4.17-1.14-9.1-.76s-10.99.76-10.99.76c0,0-4.93-1.52-6.83-2.28-1.9-.76-4.55-1.51-7.96-2.28-3.41-.76-11,1.51-11,1.51,0,0-3.79,4.17-4.93,4.55s-5.69,1.51-8.34,1.14c-2.65-.38-5.31-1.9-4.55-3.03.76-1.14,0-5.31,0-5.31l-4.93,5.31s-7.96,3.03-9.1,3.03-10.24-5.69-12.13-6.07c-1.9-.38-7.96.76-11.75.76s-5.31,3.03-10.62,3.79c-5.31.76-8.72-1.14-7.96-2.28.76-1.14,3.41-.76,0-2.65-3.41-1.9-3.04-1.52-5.31-3.04-2.28-1.51-7.58-.38-10.62-2.28-3.03-1.9,2.85-12.31,2.85-12.31l-3.6,2.53s-3.12,1.52-5.45,2.52c-.92.39-1.71.71-2.14.81-1.52.38-7.58,2.65-8.72,2.28-1.14-.38-4.55-.38-4.55-1.9s4.55-2.27,6.45-3.72c1.9-1.44,4.93-9.36,4.93-9.36,0,0-5.69,5.49-7.75,5.87-2.06.38-5.53,2.28-8.94,3.49s-4.93,1.06-7.96,0c-3.03-1.06-7.2,4.1-7.2,4.1,0,0,3.79.76,6.45,0,2.66-.76,9.48-1.14,7.96-.76-1.52.38-5.31,3.79-7.58,4.17s-5.69,2.28-7.58,1.51c-1.9-.76-7.2-4.17-7.2-4.17,0,0-6.45-1.9-9.48-2.65-3.03-.76-18.58-1.14-17.06-4.55,1.52-3.41,20.1-1.9,25.78-3.03,5.69-1.13,10.24-2.27,14.03-3.65,3.79-1.38,18.79-8.14,18.79-8.14l-3.06-.71s-4.36,1.51-7.01-.76c-2.65-2.28-6.07,0-7.2,0s-15.92,4.93-15.92,4.93c0,0,0-3.04.38-4.93.38-1.9,6.07-3.41,8.34-4.17,2.28-.76,4.17-7.06,4.17-7.06l-3.42,2.51s-6.45,4.55-10.62,3.41c-4.17-1.13-3.03-.76-5.88-1.51-2.84-.76-3.98,1.14-5.78,1.9s-2.37,2.28,0,3.03c2.37.76,7.49,2.65,5.21,3.79-2.28,1.14-3.41,1.14-7.2,1.9-3.79.76-10.99,4.93-13.27,5.82-2.28.89-6.07,1.76-5.85,1.76s-7.05,1.14-7.43,0c-.38-1.14,3.41-3.41,4.55-4.55s8.72-4.17,9.86-4.93c1.14-.76,5.31-8.72,5.31-8.72l-5.69,5.46s-7.2,3.26-8.34,4.02c-1.14.76-5.69,3.03-6.82,3.79-1.14.76-7.2,1.9-8.72,3.17-1.52,1.27-7.58-3.93-10.24-4.31-2.65-.38-4.55-.76-4.93-.76s-7.58,2.28-7.58,2.28l7.58.38-6.07,2.41s-6.07.24-10.24,0-6.45,1.38-10.24,0c-3.79-1.38-7.96,3.66-10.62,4.04-2.66.38-7.2,1.14-9.1,1.14s-7.96-.76-10.24-1.14c-2.28-.38-8.72,0-8.72,0,0,0,6.45,2.27,7.58,2.27s9.1,3.79,10.62,4.17c1.52.38,8.34.38,9.86.76s10.24-2.28,12.13-2.66c1.49-.3,6.02.57,7.89.96-1.48.05-3.93,1.31-4.86,1.31-1.14,0-7.2,3.11-7.2,3.11,0,0-6.45,4.47-9.86,4.47s-7.96-2.66-12.51-4.47c-4.55-1.82-9.1.68-10.24,0s-5.31.3-7.2,0c-1.9-.3-7.2,0-7.2,0,0,0,4.17-2.35,6.07-2.73s15.16.38,15.16.38c0,0-5.31-3.04-6.83-4.17-1.51-1.14-7.58-1.51-9.86-1.89-2.28-.38-5.69-.76-8.34-1.9-2.65-1.14-10.24-1.52-10.24-1.52,0,0,3.03-2.28,5.31-2.14,2.28.13,11-1.65,13.27-2.03,2.28-.38,7.96-4.55,7.96-4.55,0,0-5.69,1.14-7.2,1.52s-5.31-1.52-7.96-1.9c-2.65-.38-15.16-.38-17.06-1.52-1.9-1.13-11.37,0-11.37,0,0,0-9.48.38-11.37.38s-14.03-1.52-15.92-2.47c-1.9-.95-8.34,0-8.34,0l-2.62,1.15,3.76,1.31s14.41,3.41,17.44,4.55c3.03,1.14,17.06-.76,17.06-.76,0,0-1.9,3.41-3.03,4.3-1.14.89-4.17,0-4.17,0,0,0-4.17.63-6.45,0-2.28-.63-6.45,0-6.45,0,0,0-3.79,1.38-4.93,0-1.14-1.38-1.14-2.03-2.28-2.79-1.14-.76-5.31-.38-9.1-.76s-5.69,0-9.1-.38c-.92-.1-2.03-.45-3.17-.91-.42.18-.82.36-1.19.53-.53.24-1.15.67-1.83,1.24,1.09,1.52,2.18,2.85,2.78,3.06,1.51.51,9.1,0,9.1,0l1.55,4.27s-4.2.53-5.34.12-3.79.41-6.07.03c-2.28-.38-2.28,2.66-1.51,2.66s3.79.76,5.31,1.72c1.51.96,7.61,2.83,7.61,2.83,0,0-4.58,1.13-6.1,1.13s-5.69-4.93-6.82-3.79c-1.14,1.13-2.28-.38-4.17,0-1.9.38-1.52,2.27-4.17,4.17-1.53,1.1-3.95.92-5.73.58-1.69,2.44-2.81,4.13-2.81,4.13l5.12,2.8-6.07,3.11h-8.72c-1.9,0-3.76,6.03-3.76,6.03,0,0-1.65.18-4.39-1.04-.59.98-.95,1.64-.95,1.64,0,0-7.39-3.41-10.81-1.7-3.41,1.7-9.67,10.24-9.67,10.24h530.45c-1.51,0-7.2-6.45-8.72-7.21h-.03Z"/><path class="cls-5" d="M428.76,420.72l10.24-6.26,4.55,6.26h15.36l7.28,6.09s4.78-5.71,9.49-7.36c-5.24,1.1-11.08,2.98-11.08,2.98l-9.1-4.56h-9.1s-3.98-6.24-7.39-6.81c-3.41-.57-14.79,6.8-14.79,6.8,0,0-3.98.03-6.6,0-2.63-.02-11.59,0-11.59,0l15.36,2.87h7.39,0Z"/><path class="cls-5" d="M353.5,408.19c-1.23-.82-9.99-1.33-14.83-1.55.8,2.56,1.37,5.56,1.37,5.56,0,0,10.81,2.28,12.51,3.41,1.7,1.14,3.41,5.12,3.41,5.12h18.77s15.36-5.69,20.48-3.41c5.12,2.28,10.81.54,10.81.54,0,0-7.39-3.96-11.37-4.52-3.98-.57-20.66,4.52-20.66,4.52l-15.36-2.84s-3.41-5.69-5.12-6.82h0Z"/><path class="cls-5" d="M493.6,422.43s-7.39-1.7-10.24-3.41c-.85-.51-2.88-.41-5.3-.02,5.3.02,4.16,6.84,9.85,5.13,5.69-1.7,7.39,1.71,13.65,0,6.25-1.7,7.11-.97,8.69.05-.87-.58-1.72-1.18-2.43-1.75-2.85-2.28-14.22,0-14.22,0h0Z"/><path class="cls-5" d="M169.41,361.22c-3.41.57-7.39,3.41-7.39,3.41,0,0-5.82-.53-10.24-.51,4.07.1,7.96,5.98,9.67,5.41,1.7-.57,6.26-2.84,6.26-2.84,0,0,6.26-4,10.81-2.57,4.55,1.43,9.1,2.57,11.37,3.14,2.28.57,7.39,6.54,7.39,6.54,0,0-4.55-6.54,0-7.11,4.55-.57,7.96-3.47,9.67-2.88,1.71.6,7.96,4.58,13.08,5.15,5.12.57,9.1,1.14,11.38,1.7,2.28.57,6.26,3.09,6.26,3.09l3.98-4.23,10.24,1.14,9.67,3.09,12.47-4.74,6.87,4.74s2.84.51,5.44.32c-2.11-1.82-4.2-3.59-5.44-4.33-2.85-1.71-15.36,0-17.06,0s-11.94-3.98-15.36-3.98-12.51.57-12.51.57c0,0-22.75-4.55-26.73-5.18-3.98-.63-14.22,2.91-15.92,2.91s-20.48-3.41-23.89-2.85h0Z"/><path class="cls-5" d="M100.69,375.65c-1.24.71-3.69,3.01-3.69,3.01,0,0-7.01-.19-8.72.38-1.17.39-1.9,2.21-2.24,3.3l2.62,1.41s.61.5,2.28-2.3c1.66-2.81,9.1.02,9.1.02,0,0,3.41-1.8,7.39-2.32,3.98-.52,7.39-.05,9.1,0,1.7.05,8.53-3.36,8.53-3.36h-6.83s5.12-2.84,13.08-2.84h20.48l-4.55-3.41s.49-5.5,4.55-5.41c-2.06.01-3.82.14-4.55.51-2.28,1.14-4.55,4.55-4.55,4.55-3.41,0-17.63.92-17.63.92-2.2.83-7.81,1.19-9.86,3.06-1.82,3.26-3.65,2.09-7.58,2.09-2.05,0-3.87.63-6.93.4h0Z"/><path class="cls-5" d="M324.68,403.09l1.42-2.63c-1.1.14-1.42,2.63-1.42,2.63Z"/><path class="cls-5" d="M328.66,403.09c2.02,3.71,3.95,2.79,5.54,1.57-1.15-1.59-2.8-3.73-3.83-4.42-.72-.48-2.25-.65-3.78-.7l-.49.91c.6-.08,1.42.54,2.56,2.63h0Z"/><polygon class="cls-5" points="322.08 399.02 319 392.86 314.44 391.8 314.44 396.27 320.13 400 322.08 399.02"/><path class="cls-5" d="M297.38,383.79c1.7,1.1,9.81,3.24,9.81,3.24-1.58-1.53-3.32-3.26-4.68-4.76-1.45-1.6-3.41-2.39-5.19-2.77-.38,2-.62,3.86.07,4.3h0Z"/><path class="cls-5" d="M422.68,431.31c-.07,0-.13.01-.17.03-.24.08-.14.06.17-.03Z"/><path class="cls-3" d="M517.28,438.92c-2.56-1.43-5.71-2.94-7.03-3.41-2.12-.76-5.85-2.65-8.5-3.79-2.66-1.14-7.59,0-7.59,0l5.7,2.28s-6.83,0-8.34.38c-1.51.38-6.45,1.52-8.72,2.66-2.28,1.14-11.38-2.66-14.41-4.17-3.03-1.52-4.93,0-7.58.38-2.66.38-3.03,1.51-7.2,1.51s-11-1.9-15.55-3.41c-4.55-1.51-10.23-1.51-10.23-1.51,0,0-3.99,1.17-5.14,1.49,1.44-.09,6.57,2.68,4.75,2.68s-7.2.38-9.86,1.14c-2.65.76-6.82-.76-8.72-1.14-1.9-.38-6.45-.38-9.48,1.14-3.04,1.51-9.48,1.9-10.62,1.9s-10.24-3.79-11.75-4.55c-1.51-.76-7.96-.38-10.24-.38s-5.69,1.14-13.27,1.9c-7.59.76-12.13,0-12.13,0,0,0,9.1-1.14,7.58-1.9-1.51-.76-4.93-2.28-7.58-3.41-2.66-1.14-6.82.76-11.21,1.14-4.39.38-15.7,0-15.7,0l11.66-3.01s-5.21-.4-7.84-1.54c-2.63-1.14-6.47-4.17-8.74-6.35-2.28-2.18-3.41,1.42-5.31,1.81s-3.03,2.27-7.26,3.03c-4.23.76-7.9,3.06-7.9,3.06h10.62l-4.55,4.15s-8.34,1.13-10.62,1.13-4.55-1.13-6.45-1.9c-1.9-.76-5.69.38-9.38.38s-6.92.76-10.33,1.14c-3.41.38-11.75-.38-10.62-.76,1.14-.38,6.07-1.9,6.07-1.9,0,0,2.28-1.52,6.45-2.25,4.17-.73,21.61-1.92,21.61-1.92,0,0-6.83-.76-7.96-1.51-1.14-.76-3.41-1.9-8.15-2.65-4.74-.76-7.39-1.52-12.32-1.81-4.93-.29-17.06-3.88-13.65-5.24,3.41-1.36,17.44,0,17.44,0,0,0-7.58-3.57-10.62-4.64-3.03-1.07-11.37-3.1-15.17-3.31-3.79-.2-7.21-2.07-10.24-2.64-3.03-.57-8.34,2.64-8.34,2.64,0,0,5.69-.18,6.23,0,.32.1,3.56,1.83,5.98,2.89-1.94.39-4.43,1.31-5.98.41-2.49-1.45-4.71,2.21-6.99,2.58-2.28.38-4.55.76-7.96,2.06-3.41,1.3-3.03-1.3-6.07,0-3.03,1.3-7.58,4.01-7.58,4.01,0,0,5.69-.76,9.86-1.9,4.17-1.14,11.75,2.27,11.75,2.27,0,0-5.31,1.52-7.58,2.66-2.28,1.14-4.55,2.65-7.2,3.03-2.66.38-4.17.38-7.2,1.14-3.03.76-6.07,2.66-4.93,2.66s12.13.38,12.13.38c0,0-2.28,4.17-5.69,4.17s-12.13-1.13-14.03-1.51c-1.9-.38-4.55-1.14-7.96-1.9-3.41-.76-10.24-1.14-9.1-2.28,1.14-1.14,9.1-1.9,9.1-1.9l-7.2-3.22s-5.69.19-8.34,0c-2.65-.19-5.31,1.7-9.48,0-4.17-1.7-7.58-1.7-10.24-2.47-2.66-.76-6.07-1.14-6.07-1.14,0,0,7.2-2.28,10.62-3.72,3.41-1.44,5.69-5.38,5.69-5.38,0,0-3.79.76-5.31.45-1.51-.31-13.27-.83-15.92,0-2.65.83-4.93,7.13-8.34,8.27-3.41,1.14-4.93,3.41-4.93,3.41l5.31,2.21c1.14,1.07,5.31.07,5.69,1.58.38,1.51-.76,4.93-4.17,5.69-3.41.76-6.07-4.17-7.21-7.27-.57-1.55-1.51-2.29-2.61-2.55s-2.32-.04-3.46.35c-2.28.76-5.69-1.9-5.69-1.9l5.69-2.65s-5.69-3.41-9.1-4.17-5.69,1.9-8.49,1.68c-2.81-.22-1.36.22-4.4,0-3.03-.22-5.31,3.15-5.31,3.15l9.71,2.37s-4.78,4.17-8.57,4.17-3.79,3.03-4.97,3.41c-1.18.38-5.26-1.37-5.26-1.37,0,0,6.83-3.18,4.93-4.69-1.9-1.51-8.34-3.41-10.62-3.79-2.28-.38-4.55.38-8.34,1.9-3.79,1.52-5.31,0-5.31,0l1.14,1.9h7.96s-1.51,2.28-2.66,3.03c-1.14.76-4.17,3.03-5.69,2.65-1.51-.38-4.93-.38-7.96,0s-3.79,2.28-6.45,1.9c-2.66-.38-5.31,0-5.31,0l5.31,2.85s-2.28,1.33-4.93,0c-2.66-1.33-2.66,2.84-4.93,2.84s-4.55-1.14-7.96-2.66c-1.86-.82-4.73-1.65-6.96-2.24-3.5,2.37-8.96,9.82-8.96,9.82h516.78,0Z"/><path class="cls-5" d="M74.15,415.89s-3.84-.28-5.4,0c-1.56.29-4.12-.14-4.69,0-.57.14-4.83-.13-4.83-.13,0,0,2.28-.58,3.7-1.15,1.42-.57,2.99-.85,3.77-.85s.78-1,1.78-1,2.56,1.52,3.27,1.61c.71.09,2.42,1.51,2.42,1.51h0Z"/><path class="cls-5" d="M74.15,410.91s4.83-.43,6.82,0c1.99.43,2.99-.28,4.27,0,1.28.28,2.7-.15,3.27.14.57.29-1.99-1.28-3.13-1.28h-2.7c-1.14,0-.99-.05.57-.73,1.56-.68,4.28.4,5.34,0,1.06-.4,5.75-.03,6.6,0,.85.02,4.97,0,4.97,0,0,0-5.4-.83-6.68-1.82-1.28-.99-.57-1.28-2.28-1.85-1.71-.57-2.28-.85-4.05-1.56-1.78-.71-2.21-1.14-2.77,0s-1.56,1.7-1.85,2.13c-.29.42-1.28,1.16-1.28,1.16h3.27s-3.13,1.35-4.41,1.95c-1.28.59-2.42-.03-2.99,0-.57.02,1.42-1.95,1.42-1.95,0,0-1.56-.4-3.55,0-1.99.4-2.13-.97-3.55,0-1.42.97-2.56,1.95-2.56,1.95,0,0,3.7-.17,4.12,0s-1.85.73-1.7,1.16,2.84.71,2.84.71h0Z"/><path class="cls-5" d="M126.76,407.09s-3.98-.55-5.4,0c-1.42.55-2.99.69-4.41.83-1.42.14-4.69,1.51-5.97,1.11-1.28-.4-3.98-1.29-4.55-1.06-.57.23,3.27.05,4.83,0s3.7-.89,3.7-.89c0,0-4.98-.18-5.69-.24-.71-.06-5.26,0-5.26,0,0,0,3.55-1.06,5.4-1.91,1.85-.85,2.28-1.41,3.55-1.92s2.56-1.5,3.27-1.21c.71.28,2.13,2.13,3.41,2.28,1.28.14,1.99,1.42,2.99,1.35s4.12,1.65,4.12,1.65h0Z"/><path class="cls-5" d="M199.99,421.57s-2.13-.71-4.26,0c-2.13.71-5.26-.99-6.83,0-1.56.99-6.11.99-6.97,1.28-.85.28-2.84,0-2.84,0,0,0,2.7-1.21,3.84-1.6s1.7-.53,2.56-1.1c.85-.57,1.42-1.85,1.99-1.7s1.14.71,2.84,1.14c1.7.43,3.84-.43,4.98-.14,1.14.28,4.69,2.13,4.69,2.13h0Z"/><path class="cls-5" d="M210.51,405.93s-2.28,1.14-4.83.85c-2.56-.28-4.27.09-4.97.05-.71-.05-1.99-.09-2.56,0-.57.09,3.84-2.47,5.4-2.61,1.56-.14,2.42,1.76,3.41,1.3,1-.45,3.56.4,3.56.4h0Z"/><path class="cls-5" d="M265.72,418.44s3.79-.15,5.07,0c1.28.15,2.7,1.43,4.12,1.43s4.55.97,5.12.84c.57-.13,3.98.26,3.98.26,0,0-2.13-.22-3.27-1.3-1.14-1.08-.71-2.5-2.13-3.07-1.42-.57-1.56-.99-2.28,0s-.52,1.68-1.47,1.84c-.95.15-1.52-2.32-2.37-2.43-.85-.11-.99-1.82-1.99-1.39-.99.43-3.41,1.56-3.98,1.99-.57.43-.81,1.84-.81,1.84h0Z"/><path class="cls-5" d="M322.08,424.42s2.6-.42,4.02,0c1.42.43,3.55.57,4.05.71.5.14,3.47.28,4.05.71.58.43,3.56-.81,3.56-.81,0,0-2.99.14-4.41-.8-1.42-.95.14-1.37-1.99-2.23-2.13-.85-1.7-1.14-3.13,0-1.42,1.14-1.71.99-2.85.99s-3.31,1.42-3.31,1.42h0Z"/><path class="cls-5" d="M11.02,434.11c-2.56-1.68-6.68,0-6.68,0-2.13,2.47-3.84,4.81-3.84,4.81h24.46c-1.99,0-5.12-1.42-6.83-1.7-1.7-.29-4.55-1.42-7.11-3.11h0Z"/><path class="cls-5" d="M85.88,438.92c-2.95-.74-7.09-2.56-8.6-3.13-2.28-.85-6.26-.57-8.39-.57s-3.56-.57-2.21-1.67c1.35-1.11,6.9-1.45,4.34-1.74-2.56-.29-7.68-1.99-9.1-3.13-1.42-1.14-5.4,0-7.11,0s-.85,2.28-2.56,2.56c-1.7.28-2.56,0-5.59,0s-7.78,1.81-7.78,1.81c0,0,.29,1.6,1.99.31.47-.36,1.19-.38,1.96-.19,2,.48,4.34,2.31,3.73,2.97-.85.92-8.81.22-10.24,0-1.42-.22-3.98-.63-5.4,0-1.42.63-3.98,2.78-5.97,2.78h60.92Z"/><path class="cls-5" d="M228.85,432.1c-2.28-.57-4.55-1.42-4.55-2.28s1.71-.85,4.27-1.71c2.56-.85,6.83-.85,11.66-1.78,4.83-.93,8.25-.78,5.97-3.35-2.28-2.58-2.28-.84-7.68-1.73-5.4-.89-5.69-1.66-10.52-5.26-4.83-3.6-2.28-2.38-5.97-2.31s-2.28,1.36-4.27,4.08c-1.99,2.72-3.7,1.54-7.25,2.95-3.56,1.41-3.84,2.27-3.84,2.27,0,0,1.42.3,3.84,0,2.42-.3,3.56-1.12,5.26,0,1.71,1.12-.85,2.29-1.92,2.95s-2.91.76-4.62.87c-1.7.12-1.99,2.16-4.93,3.3-2.94,1.14-1.32,0-4.31.57-2.99.57-2.13,1.99-1.9,1.71.23-.29,2.9,0,6.21.57,3.32.57,10.34.29,9.48.57-.85.28-4.83,1.42-7.11,2.84-2.28,1.42-6.83.28-8.58,0-1.75-.28-5.07,0-8.55-1.14-3.48-1.14-3.34.85-6.19.85s-5.12,1.14-7.96,1.42c-2.84.28-9.95-1.99-9.95-1.99,1.14-1.14,9.95,0,9.95,0,0,0-5.69-3.13-8.53-3.7-2.84-.57-3.41,0-6.83-.29-3.41-.28-4.83,1.42-8.24,1.14-3.41-.28-4.55-2.28-4.55-2.28.06-.18.46-.36,1.05-.56,2.25-.73,7.25-1.49,6.35-1.72-1.14-.28-2.28-1.99-5.12-1.31-2.84.68-7.68-1.82-9.67-2.67-1.99-.85-7.39-.85-8.81-1.15-1.42-.3,3.13-1.12,1.42-2.27-1.71-1.15-4.83-1.41-5.69-2.28-.85-.86-.28-3.97-2.56-4.06-2.28-.09-1.42,3.22-2.28,4.06-.85.84-.28,2.57-1.42,2.54s.57,3.54.57,3.54c0,0,4.83-.09,6.82.17,1.99.26,10.24,2.58,10.52,3.72.28,1.14-4.55,1.42-6.83.85-2.28-.57-2.56,1.99-3.7,2.71-1.14.72-3.41,1.56-4.55,2.41-1.14.85-4.55,1.99-5.97,1.71-1.42-.29-4.55-1.14-5.69-1.71-1.14-.57-3.98-.28-6.26-.28s-4.26-1.14-3.13-2.13c1.14-.99,9.38,0,9.38,0,0,0-3.41-3.28-5.12-3.28s-3.7-3.7-6.4-3.98c-2.7-.29-2.42,2.27-3.27,2.27s-2.56,1.42-4.83,1.2c-2.28-.22-1.42,1.93-2.28,2.5-.85.57-1.7,1.14-3.75.85-2.05-.28-1.36.29-3.64.57-2.28.29-4.83,1.61-4.83,1.61,0,0,5.12.66,6.97,0,1.85-.66,5.55,0,5.55,0,1.14.19,1.99,1.23,1.99,1.23,0,0-1.99,2.56-3.13,3.98h162.38c-5.12,0-11.37-2.28-14.5-4.83-3.13-2.56-5.69-1.42-7.96-1.99h0Z"/><path class="cls-5" d="M360.51,437.5c-2.84.85-14.22-.28-15.92-.28s-5.12-2.56-5.92-3.41c-.8-.85-5.17.85-7.16.57-1.99-.28-11.94-.28-13.25-.57-1.3-.28-2.96-1.99-3.82-3.41-.85-1.42-3.13-4.46-3.13-4.46,0,0-1.99,1.62-3.42,1.9-1.43.28-1.99,1.14-5.84,1.14s-1.84,1.99-1.84,1.99c0,0,4.27.85,6.96,1.42,2.7.57-2.98,2.56-5.12,2.27-2.14-.28-5.82.57-7.52,1.7-1.71,1.14-6.83.28-10.52,0-3.7-.28-6.26-.57-9.15-2.56-2.89-1.99-3.93-.28-6.21.28-2.28.57-3.13,1.7-6.26,1.99-3.13.28-5.97,2.84-11.09,2.84h128.25c-1.99,0-5.98-3.13-7.22-3.7-1.25-.57-8.98,1.42-11.83,2.28h0Z"/><path class="cls-5" d="M132.31,426.13c3.8,0,6.88-3.68,6.88-8.23s-3.08-8.23-6.88-8.23h-9.81l-.85,16.46h10.66Z"/><path class="cls-5" d="M115.62,417.89c0,4.55,3.08,8.23,6.88,8.23s6.88-3.68,6.88-8.23-3.08-8.23-6.88-8.23-6.88,3.69-6.88,8.23h0Z"/><path class="cls-3" d="M116.81,417.89c0,3.76,2.55,6.81,5.69,6.81s5.69-3.05,5.69-6.81-2.55-6.81-5.69-6.81-5.69,3.05-5.69,6.81Z"/><path class="cls-5" d="M123.87,411.3c-2.5.72-4.36,3.4-4.36,6.62s1.84,5.86,4.31,6.6c2.5-.71,4.36-3.4,4.36-6.62s-1.84-5.86-4.31-6.6h0Z"/><path class="cls-5" d="M107.67,412.45c4.26,0,7.71-4.13,7.71-9.23s-3.45-9.23-7.71-9.23h-11l-.96,18.46h11.96,0Z"/><path class="cls-5" d="M88.96,403.22c0,5.1,3.45,9.23,7.71,9.23s7.71-4.13,7.71-9.23-3.45-9.23-7.71-9.23-7.71,4.13-7.71,9.23Z"/><path class="cls-3" d="M90.29,403.22c0,4.22,2.86,7.64,6.38,7.64s6.38-3.42,6.38-7.64-2.86-7.64-6.38-7.64-6.38,3.42-6.38,7.64Z"/><path class="cls-5" d="M98.21,395.82c-2.81.8-4.89,3.82-4.89,7.42s2.06,6.57,4.83,7.4c2.81-.8,4.89-3.81,4.89-7.42s-2.06-6.57-4.83-7.4h0Z"/><path class="cls-5" d="M253.6,425.1c-3.8,0-6.88-3.68-6.88-8.23s3.08-8.23,6.88-8.23h9.81l.85,16.46h-10.66,0Z"/><path class="cls-5" d="M270.28,416.88c0,4.54-3.08,8.23-6.88,8.23s-6.88-3.68-6.88-8.23,3.08-8.23,6.88-8.23,6.88,3.69,6.88,8.23Z"/><ellipse class="cls-3" cx="263.41" cy="416.88" rx="5.69" ry="6.81"/><path class="cls-5" d="M262.03,410.28c2.5.71,4.36,3.4,4.36,6.61s-1.84,5.86-4.31,6.6c-2.5-.72-4.36-3.4-4.36-6.62s1.84-5.86,4.31-6.6h0Z"/><path class="cls-5" d="M278.23,411.43c-4.26,0-7.71-4.13-7.71-9.23s3.45-9.23,7.71-9.23h11l.96,18.46h-11.96Z"/><ellipse class="cls-5" cx="289.23" cy="402.2" rx="7.71" ry="9.23"/><path class="cls-3" d="M295.61,402.2c0,4.22-2.86,7.64-6.38,7.64s-6.38-3.42-6.38-7.64,2.86-7.64,6.38-7.64,6.38,3.42,6.38,7.64Z"/><path class="cls-5" d="M287.69,394.8c2.81.8,4.89,3.82,4.89,7.42s-2.06,6.57-4.83,7.4c-2.81-.8-4.89-3.82-4.89-7.42s2.06-6.57,4.83-7.4Z"/><path class="cls-5" d="M99.3,410.16s-4.77,4.87-5.15,14.54c-.38,9.67,0,18.96,0,18.96,0,0,17.44.19,17.25,1.14-.19.95-10.24,2.84-10.24,2.84,0,0,5.54.95,4.38,1.51-1.16.57-9.84,0-9.84,0,0,0,3.98,2.09-1.73,2.66,0,0-11.59.19-10.83-1.52,0,0-.57-.76-3.41-.38-2.84.38-10.71.95-10.85-.19l3.27-1.33s-10.24-.19-9.29-1.51c.95-1.33,7.58-.76,7.58-.76,0,0-9.41-.76-7.64-1.51,1.77-.76,21.72-1.14,21.72-1.14,0,0,1.19-16.72,2.47-20.49,1.28-3.77,7.62-14.47,8.71-14.87s5.67.24,5.67.24c0,0-.93,1.33-2.08,1.81h0Z"/><path class="cls-5" d="M100.17,446.5c.71-.95-8.1-.76-8.1-1.6s-.57-13.57,0-20.39c.45-5.41,5.28-13.35,7.26-16.4-1.37-.13-3.02-.23-3.61,0-1.09.41-7.44,11.1-8.71,14.87-1.28,3.78-2.47,20.49-2.47,20.49,0,0-.15,0-.41,0l.41,1.42s-12.37.08-13.32,0c-.95-.08,2.94,1.6,2.94,1.6,0,0-2.75.38-3.7.76-.95.38,7.11.38,7.11.38,0,0-2.18.57-3.41,2.01-1.23,1.44,8.62-1.82,10.38-1.82s1.28,1.33,1.35,1.52c.07.19,5.81.57,7.44,0,1.63-.57-1.44-1.14-3.03-1.7-1.58-.57,9.17-.19,9.88-1.14h0Z"/><path class="cls-5" d="M88.96,444.9c-1.21-.46.83-19.63,1.33-21.92.42-1.94,5.76-11.92,7.41-14.99-.85-.04-1.61-.02-1.99.12-.98.37-6.23,9.07-8.19,13.56-.7,7.16-2.23,23.24-2.23,23.24,0,0-7.07,1.22-7.73,1.6s4.83.57,4.83.57c0,0-2.65.38-3.79.76s4.22-.38,5.96-.34c3.66.07,1.34.64,1.6,1.21s2.52.43,3.2-.14c.41-.35.53-.68-.89-.89-.8-.12-.77-1.35-.77-1.35h3.98c1.4-1.33-1.52-.95-2.73-1.41h0Z"/><path class="cls-5" d="M96.67,409.04s-6.5,11.49-6.88,12.54c-.38,1.04-.76,8.62-1.33,8.81-.57.19.47-2.47,0-2.94s-.77.47-.86-.47c-.09-.95.1-4.07.58-4.93.47-.85,2.94-5.5,2.94-5.12s-1.23,2.02-.38,1.61c.85-.4,2.84-5.64,3.03-6.09.19-.45,2.9-3.41,2.9-3.41h0Z"/><path class="cls-5" d="M87.6,435.89s-.58,8.46,0,9.01c.58.56,1.56.08,1.35.75-.21.66-6.09.95-6.37.85-.29-.1,2.99-.38,3.2-.95.21-.57.5-7.49.68-8.63,0,0,.16,4.47.52,4.27,0,0,.12-10.06.61-5.32h0Z"/><path class="cls-5" d="M91.12,427.26s.66,12.61,0,12.89c-.66.29-.33-5.02-.83-4.93,0,0-.02,1.71-.4,1.42-.38-.28.48-11.66.76-12.41l-.05,6.82.52-3.79h0Z"/><path class="cls-5" d="M123.86,425.17s-4.77,4.87-5.15,14.54,0,18.96,0,18.96c0,0,17.44.19,17.25,1.14-.19.95-10.24,2.84-10.24,2.84,0,0,5.54.95,4.38,1.51-1.16.57-9.84,0-9.84,0,0,0,3.98,2.09-1.73,2.66,0,0-11.58.19-10.83-1.52,0,0-.57-.76-3.41-.38-2.84.38-10.71.95-10.85-.19l3.27-1.33s-10.24-.19-9.29-1.51c.95-1.33,7.58-.76,7.58-.76,0,0-9.41-.76-7.64-1.51,1.77-.76,21.72-1.14,21.72-1.14,0,0,1.19-16.72,2.47-20.49,1.28-3.77,7.62-14.46,8.71-14.87,1.09-.41,5.67.24,5.67.24,0,0-.93,1.33-2.08,1.81h0Z"/><path class="cls-5" d="M124.72,461.51c.71-.95-8.11-.76-8.11-1.6s-.57-13.57,0-20.4c.45-5.41,5.28-13.34,7.26-16.4-1.37-.13-3.02-.22-3.61,0-1.09.41-7.44,11.1-8.71,14.87-1.28,3.78-2.47,20.49-2.47,20.49,0,0-.15,0-.41,0l.41,1.42s-12.37.08-13.32,0,2.94,1.6,2.94,1.6c0,0-2.75.38-3.7.76-.95.38,7.11.38,7.11.38,0,0-2.18.57-3.41,2.01s8.63-1.82,10.38-1.82,1.28,1.33,1.35,1.52c.07.19,5.81.57,7.44,0,1.63-.57-1.44-1.14-3.03-1.71-1.58-.57,9.17-.19,9.88-1.14h0Z"/><path class="cls-5" d="M113.51,459.91c-1.21-.46.83-19.63,1.33-21.92.42-1.93,5.76-11.92,7.41-14.99-.85-.04-1.62-.02-1.99.12-.98.37-6.23,9.07-8.19,13.56-.7,7.16-2.23,23.24-2.23,23.24,0,0-7.07,1.22-7.73,1.6-.66.38,4.83.57,4.83.57,0,0-2.66.38-3.79.76s4.22-.38,5.96-.34c3.66.07,1.35.64,1.6,1.21.25.57,2.52.43,3.2-.14.41-.34.53-.67-.89-.89-.8-.12-.77-1.35-.77-1.35h3.98c1.39-1.33-1.52-.95-2.73-1.41h0Z"/><path class="cls-5" d="M121.22,424.05s-6.5,11.49-6.88,12.54c-.38,1.04-.76,8.62-1.33,8.81-.57.19.47-2.47,0-2.94s-.77.47-.86-.47c-.09-.95.1-4.07.58-4.93.47-.85,2.94-5.5,2.94-5.12s-1.23,2.02-.38,1.61c.85-.4,2.85-5.64,3.03-6.09.19-.45,2.9-3.41,2.9-3.41h0Z"/><path class="cls-5" d="M112.16,450.9s-.58,8.46,0,9.01,1.56.08,1.35.75c-.21.66-6.09.95-6.37.85-.28-.1,2.99-.38,3.2-.95.21-.57.5-7.49.69-8.63,0,0,.15,4.47.52,4.27,0,0,.12-10.06.61-5.32h0Z"/><path class="cls-5" d="M115.67,442.27s.66,12.61,0,12.89c-.66.29-.33-5.02-.83-4.93,0,0-.02,1.7-.4,1.42-.38-.28.48-11.66.76-12.41l-.05,6.83.52-3.79h0Z"/><path class="cls-5" d="M286.3,408.82s4.77,4.87,5.15,14.54c.38,9.67,0,18.96,0,18.96,0,0-17.44.19-17.25,1.14.19.95,10.24,2.84,10.24,2.84,0,0-5.54.95-4.38,1.51,1.16.57,9.84,0,9.84,0,0,0-3.98,2.09,1.73,2.65,0,0,11.59.19,10.83-1.51,0,0,.57-.76,3.41-.38,2.84.38,10.71.95,10.85-.19l-3.27-1.33s10.24-.19,9.29-1.52c-.95-1.33-7.58-.76-7.58-.76,0,0,9.41-.76,7.65-1.52-1.77-.76-21.72-1.13-21.72-1.13,0,0-1.19-16.72-2.47-20.49-1.28-3.78-7.62-14.47-8.71-14.87-1.09-.41-5.68.24-5.68.24,0,0,.93,1.33,2.08,1.81h0Z"/><path class="cls-5" d="M285.43,445.17c-.71-.95,8.1-.76,8.1-1.6s.57-13.57,0-20.4c-.45-5.41-5.27-13.34-7.26-16.4,1.37-.13,3.02-.23,3.62,0,1.09.41,7.44,11.1,8.71,14.87,1.28,3.78,2.47,20.49,2.47,20.49,0,0,.15,0,.41,0l-.41,1.42s12.37.08,13.32,0c.95-.08-2.94,1.6-2.94,1.6,0,0,2.75.38,3.69.76.95.38-7.11.38-7.11.38,0,0,2.18.57,3.41,2.01,1.23,1.44-8.63-1.82-10.38-1.82s-1.28,1.33-1.35,1.51c-.07.19-5.81.57-7.44,0-1.63-.57,1.44-1.13,3.03-1.7,1.59-.57-9.17-.19-9.88-1.14h0Z"/><path class="cls-5" d="M296.65,443.56c1.21-.46-.83-19.63-1.33-21.92-.42-1.94-5.76-11.92-7.41-14.99.85-.04,1.61-.02,1.99.12.98.37,6.23,9.07,8.19,13.56.7,7.16,2.23,23.24,2.23,23.24,0,0,7.07,1.22,7.73,1.6.66.38-4.83.57-4.83.57,0,0,2.65.38,3.79.76s-4.22-.38-5.96-.34c-3.66.07-1.35.64-1.6,1.21-.25.57-2.52.42-3.2-.14-.41-.35-.53-.68.89-.89.8-.12.77-1.35.77-1.35h-3.98c-1.4-1.33,1.51-.95,2.73-1.41h0Z"/><path class="cls-5" d="M288.93,407.7s6.5,11.49,6.88,12.53c.38,1.04.76,8.62,1.33,8.81.57.19-.47-2.46,0-2.94s.77.47.86-.47c.09-.95-.1-4.07-.58-4.93-.47-.85-2.94-5.5-2.94-5.12s1.23,2.02.38,1.61c-.85-.4-2.84-5.64-3.03-6.09s-2.9-3.41-2.9-3.41h0Z"/><path class="cls-5" d="M298,434.55s.58,8.46,0,9.01-1.56.08-1.35.75,6.09.95,6.37.85c.28-.09-2.99-.38-3.2-.95s-.5-7.49-.69-8.62c0,0-.15,4.47-.52,4.27,0,0-.13-10.06-.61-5.32h0Z"/><path class="cls-5" d="M294.48,425.92s-.66,12.61,0,12.89.33-5.02.83-4.93c0,0,.02,1.7.4,1.42.38-.29-.49-11.66-.76-12.42l.05,6.82-.52-3.79h0Z"/><path class="cls-5" d="M261.75,423.83s4.77,4.87,5.15,14.54c.38,9.67,0,18.96,0,18.96,0,0-17.44.19-17.25,1.14.19.95,10.24,2.85,10.24,2.85,0,0-5.54.95-4.38,1.51,1.16.57,9.84,0,9.84,0,0,0-3.98,2.09,1.73,2.66,0,0,11.58.19,10.83-1.52,0,0,.57-.76,3.41-.38,2.84.38,10.71.95,10.85-.19l-3.27-1.33s10.24-.19,9.29-1.52c-.95-1.33-7.58-.76-7.58-.76,0,0,9.41-.76,7.64-1.52-1.77-.76-21.72-1.14-21.72-1.14,0,0-1.19-16.72-2.47-20.49-1.28-3.78-7.62-14.47-8.71-14.87-1.09-.41-5.68.24-5.68.24,0,0,.93,1.33,2.09,1.81h0Z"/><path class="cls-5" d="M260.88,460.17c-.71-.95,8.11-.76,8.11-1.6s.57-13.57,0-20.4c-.45-5.41-5.28-13.34-7.26-16.4,1.37-.13,3.02-.23,3.62,0,1.09.41,7.44,11.1,8.71,14.87s2.47,20.49,2.47,20.49c0,0,.15,0,.41,0l-.41,1.42s12.37.08,13.32,0c.95-.08-2.94,1.6-2.94,1.6,0,0,2.75.38,3.7.76.95.38-7.11.38-7.11.38,0,0,2.18.57,3.41,2.01,1.23,1.44-8.63-1.82-10.38-1.82s-1.28,1.33-1.35,1.51c-.07.19-5.81.57-7.44,0-1.63-.57,1.44-1.14,3.03-1.7,1.59-.57-9.17-.19-9.88-1.14h0Z"/><path class="cls-5" d="M272.09,458.57c1.21-.46-.83-19.63-1.33-21.92-.42-1.94-5.76-11.92-7.41-14.99.85-.04,1.62-.02,1.99.12.98.37,6.23,9.07,8.19,13.56.7,7.16,2.23,23.24,2.23,23.24,0,0,7.07,1.22,7.73,1.6.66.38-4.83.57-4.83.57,0,0,2.65.38,3.79.76,1.14.38-4.22-.38-5.96-.34-3.66.07-1.35.64-1.6,1.21-.25.56-2.52.42-3.2-.14-.41-.35-.53-.68.89-.89.8-.12.77-1.35.77-1.35h-3.98c-1.4-1.33,1.52-.95,2.73-1.41h0Z"/><path class="cls-5" d="M264.38,422.71s6.5,11.49,6.88,12.53c.38,1.04.76,8.63,1.33,8.82s-.47-2.47,0-2.94.77.47.86-.47c.09-.95-.1-4.08-.58-4.93s-2.94-5.5-2.94-5.12,1.23,2.02.38,1.61c-.85-.4-2.85-5.64-3.03-6.09-.19-.45-2.9-3.41-2.9-3.41h0Z"/><path class="cls-5" d="M273.45,449.56s.58,8.46,0,9.01c-.58.56-1.56.08-1.35.75.21.67,6.09.95,6.37.85.28-.1-2.99-.38-3.2-.95-.21-.57-.5-7.49-.68-8.62,0,0-.16,4.47-.52,4.27,0,0-.13-10.06-.61-5.32h0Z"/><path class="cls-5" d="M269.93,440.93s-.66,12.61,0,12.89c.66.29.33-5.02.83-4.93,0,0,.03,1.71.4,1.42.38-.28-.49-11.66-.76-12.41l.05,6.82-.52-3.79h0Z"/></g></g></g></svg>