<?xml version="1.0" encoding="UTF-8"?><svg id="Ebene_2" xmlns="http://www.w3.org/2000/svg" viewBox="0 0 430.28 428.37"><defs><style>.cls-1{fill:#005485;stroke:#005485;}.cls-1,.cls-2{stroke-miterlimit:10;stroke-width:.2px;}.cls-2{fill:#b00c0c;stroke:#b00c0c;}</style></defs><g id="DNA_Plasmid"><g id="backbone_blue"><path class="cls-1" d="M346.6,367.99c1.84.4,3.72.79,5.6,1.06.95.13,1.89.23,2.83.29.91.06,1.83.06,2.74,0,1.82-.11,3.62-.51,5.32-1.18,1.82-.71,3.46-1.82,4.8-3.24,1.36-1.4,2.43-3.05,3.15-4.86.34-.84.6-1.71.79-2.6.16-.91.25-1.82.28-2.74-.02-3.75-.52-7.49-1.5-11.11-.85-3.01-1.49-6.08-1.91-9.18-.15-1.31-.11-2.63.13-3.92.21-1.22.68-2.39,1.39-3.41,1.47-2.08,3.78-3.1,6.53-3.72,3.05-.59,6.14-.95,9.24-1.09,1.89-.16,3.82-.32,5.69-.62,1.83-.3,3.62-.77,5.36-1.41,3.63-1.21,6.63-3.8,8.37-7.21.9-1.73,1.46-3.61,1.63-5.55.1-1.83-.11-3.67-.6-5.44-.5-1.79-1.17-3.54-2-5.2-.41-.85-.84-1.68-1.29-2.51s-1-1.66-1.45-2.47c-3.49-5.8-6.77-10.83-5.24-15.65,1.71-4.77,7.38-6.77,13.66-9.26.89-.35,1.78-.71,2.66-1.08s1.72-.78,2.55-1.21c1.67-.82,3.25-1.81,4.73-2.93,1.46-1.13,2.74-2.48,3.79-4,1.03-1.65,1.73-3.48,2.06-5.4.37-1.92.34-3.89-.09-5.79-.46-1.77-1.2-3.46-2.19-5-2.09-3.12-4.63-5.92-7.52-8.32-5-4.5-9.66-8.34-9.63-13.41.09-1.91.79-3.74,2-5.22h-6.22c-.75,1.59-1.16,3.32-1.2,5.08-.02,1.82.32,3.63,1,5.32.64,1.65,1.52,3.19,2.62,4.58,2.42,2.85,5.04,5.53,7.85,8,4.62,4.33,9,8.82,8.07,13.83-.22,1.22-.72,2.38-1.46,3.38-.77,1.06-1.73,1.97-2.82,2.7-2.54,1.66-5.24,3.04-8.06,4.14-1.7.72-3.4,1.45-5.15,2.22-1.73.74-3.4,1.6-5,2.58-1.5.92-2.84,2.07-4,3.39-1.22,1.35-2.15,2.93-2.75,4.65-.57,1.73-.78,3.55-.64,5.36.12,1.76.51,3.5,1.15,5.15.67,1.75,1.47,3.44,2.39,5.07.9,1.67,1.82,3.28,2.74,4.89,1.57,2.59,2.87,5.34,3.89,8.19.9,2.41.79,5.09-.3,7.42-1.26,2.26-3.39,3.89-5.9,4.52-2.9.84-5.88,1.37-8.89,1.58-1.81.2-3.72.36-5.61.57-1.85.2-3.69.53-5.49,1-1.71.44-3.35,1.11-4.88,2-2.39,1.39-4.26,3.52-5.35,6.06-.37.8-.66,1.63-.87,2.49-.39,1.73-.52,3.52-.39,5.29.36,3.71,1.01,7.39,1.94,11,.77,2.94,1.21,5.96,1.31,9,.11,2.56-.77,5.07-2.45,7-1.72,1.87-4.25,2.47-7,2.56-3.01-.03-6.02-.39-8.95-1.08-2.75-.58-5.61-1.23-8.38-1.55-1.36-.17-2.73-.23-4.1-.18-1.35.01-2.69.18-4,.49l3.9,4.89c1.77,0,3.54.19,5.27.54,1.9.36,3.85.81,5.85,1.25Z"/><path class="cls-1" d="M176.97,413.46c1.55,3.44,3.55,6.66,5.94,9.58,5.12,6.07,14.14,6.99,20.38,2.07,2.93-2.38,5.53-5.13,7.74-8.19,1-1.31,2-2.6,3-3.8.94-1.18,1.94-2.3,3-3.36,2-2,4.15-3.3,6.69-3.36,2.59-.02,5.1.95,7,2.71,2.33,2.07,4.54,4.27,6.62,6.6,2.5,2.82,5.35,5.31,8.48,7.4,6.69,4.28,15.56,2.51,20.1-4,1.11-1.5,2.06-3.12,2.82-4.83.81-1.72,1.51-3.5,2.18-5.26,2.42-6.15,4.2-12.19,9-13.79,2.46-.78,5.12-.59,7.45.53,1.37.59,2.71,1.25,4,2l4.23,2.37c3.23,1.96,6.69,3.5,10.31,4.57,7.65,2.1,15.59-2.21,18-9.77,1.07-3.62,1.67-7.36,1.78-11.13.11-1.65.22-3.28.33-4.84.09-1.5.27-2.99.55-4.47.32-2.57,1.6-4.93,3.59-6.59,1.53-1.14,3.39-1.75,5.3-1.73l-3.88-4.86c-1.7.42-3.29,1.21-4.66,2.3-2.88,2.22-4.84,5.42-5.49,9-.79,3.65-1.25,7.35-1.39,11.08-.12,1.6-.24,3.2-.46,4.71-.2,1.43-.52,2.84-.94,4.22-.84,4.69-5.33,7.8-10.01,6.96-.62-.11-1.23-.29-1.81-.54-1.39-.4-2.74-.91-4.05-1.52-1.39-.64-2.8-1.41-4.2-2.18-3.19-1.91-6.53-3.55-10-4.88-3.35-1.4-7.1-1.51-10.53-.31-1.72.58-3.3,1.52-4.62,2.77-1.26,1.25-2.37,2.66-3.29,4.18-1.82,3.26-3.36,6.68-4.59,10.21-1.03,2.84-2.37,5.55-4,8.09-1.58,2.24-3.47,4-6,4.46-5,.87-9.55-3.12-14-7.83-2.5-2.76-5.22-5.32-8.14-7.63-2.8-2.34-6.36-3.55-10-3.4-3.85.07-6.9,1.9-9.62,4.31-2.71,2.57-5.18,5.37-7.39,8.38-1.8,2.43-3.88,4.63-6.19,6.58-3.34,3.38-8.78,3.41-12.16.08-.44-.44-.84-.92-1.18-1.45-1.88-2.37-3.47-4.95-4.73-7.69-1.27-2.5-2.55-5.12-4-7.48-.73-1.16-1.54-2.27-2.41-3.33-.84-1.05-1.8-1.99-2.87-2.8l-1.38,6.1c1.11,1.38,2.07,2.88,2.86,4.46.83,1.74,1.74,3.46,2.64,5.3Z"/><path class="cls-1" d="M35.65,309.17c-1.74,3.33-3,6.89-3.74,10.58-.31,1.81-.34,3.66-.08,5.48.36,1.91,1.09,3.74,2.15,5.37,1.03,1.65,2.39,3.08,4,4.17,1.54.99,3.23,1.74,5,2.21,1.79.47,3.63.77,5.48.89,1.86.15,3.82.11,5.71.09,3.11-.15,6.22-.08,9.32.21,2.77.37,5.19,1.16,6.84,3.09.81.95,1.39,2.07,1.7,3.27.36,1.27.53,2.58.51,3.89-.12,3.13-.45,6.24-1,9.32-.65,3.68-.81,7.44-.48,11.16.11.91.29,1.82.54,2.7.25.87.58,1.72,1,2.52.9,1.73,2.12,3.27,3.6,4.54,1.46,1.3,3.2,2.24,5.08,2.77,1.75.51,3.58.74,5.4.68.92-.02,1.83-.1,2.74-.23.92-.13,1.86-.33,2.78-.55,1.85-.45,3.68-1,5.48-1.59,1.59-.51,3.14-1,4.63-1.46.75-.22,1.48-.42,2.2-.59s1.44-.35,2.14-.48c2.79-.5,5.29-.4,7.42,1,2.13,1.45,3.64,3.65,4.23,6.16.76,3.03,1.35,6.1,1.76,9.19.47,3.74,1.42,7.41,2.84,10.9,3.11,7.31,11.44,10.84,18.86,8,3.5-1.41,6.8-3.27,9.82-5.53,1.36-.95,2.69-1.89,4-2.75,1.23-.86,2.51-1.65,3.84-2.35,2.51-1.3,4.92-1.91,7.37-1.23,1.84.46,3.48,1.52,4.66,3l1.38-6.07c-1.39-1.05-3-1.79-4.7-2.18-3.71-1.05-7.13-.26-10.45,1.3-3.34,1.65-6.53,3.6-9.53,5.82-2.44,1.79-5.07,3.29-7.86,4.46-2.57,1-5.1,1.3-7.45.34-2.3-1.17-4.06-3.17-4.93-5.6-.56-1.33-1-2.71-1.34-4.11-.35-1.5-.63-3.07-.9-4.65-.5-3.69-1.32-7.34-2.43-10.9-1-3.49-3.25-6.49-6.32-8.43-1.51-.98-3.22-1.62-5-1.88-1.77-.22-3.55-.22-5.32,0-3.69.6-7.32,1.53-10.85,2.78-2.86.95-5.81,1.6-8.81,1.92-2.75.18-5.31-.2-7.2-1.9-1.86-1.77-2.97-4.19-3.1-6.75-.18-3.03-.02-6.07.46-9.07.58-3.69.88-7.41.9-11.14-.03-1.78-.33-3.54-.89-5.23-.29-.83-.66-1.63-1.09-2.4-.44-.82-.97-1.59-1.58-2.29-1.2-1.38-2.67-2.48-4.33-3.24-1.59-.75-3.27-1.28-5-1.58-3.55-.63-7.57-.45-11.19-.52-6.32-.06-12.63-.33-15.32-4.68-.66-1.05-1.08-2.23-1.22-3.46-.15-1.3-.07-2.62.23-3.9.74-2.93,1.77-5.79,3.09-8.51l1.71-3.85c.59-1.32,1.15-2.64,1.63-4,1.01-2.52,1.5-5.21,1.46-7.92l-5.64,2.72c-.7,3.27-2.43,6.76-4.21,10.49Z"/><path class="cls-1" d="M29.09,133.64c-3.7.7-7.28,1.94-10.62,3.67-1.6.89-3.06,2.02-4.31,3.35-1.28,1.45-2.26,3.16-2.86,5-.65,1.84-.92,3.79-.79,5.73.19,1.83.67,3.61,1.41,5.29,1.6,3.4,3.69,6.56,6.2,9.36,4.29,5.2,8.31,9.69,7.51,14.69-1,5-6.27,7.8-12.12,11.2-3.3,1.77-6.33,4.01-9,6.64-1.28,1.32-2.34,2.83-3.15,4.48-.8,1.78-1.22,3.69-1.25,5.64-.06,1.94.26,3.88.93,5.7.72,1.69,1.71,3.26,2.92,4.64,2.54,2.76,5.45,5.16,8.65,7.12,2.64,1.64,5.17,3.46,7.55,5.46.99.88,1.85,1.89,2.56,3,.7,1.03,1.15,2.21,1.31,3.45.35,2.51-.7,4.84-2.26,7.15-1.82,2.51-3.83,4.88-6,7.1-1.28,1.39-2.6,2.83-3.75,4.32-1.15,1.46-2.15,3.03-3,4.68-1.84,3.36-2.28,7.31-1.24,11,.52,1.88,1.4,3.63,2.59,5.18,1.17,1.42,2.57,2.63,4.14,3.58,3.24,1.89,6.74,3.32,10.38,4.25,3.03.76,5.99,1.74,8.88,2.93,1.21.52,2.35,1.2,3.39,2.02.97.78,1.75,1.77,2.27,2.9.74,1.77.9,3.73.44,5.59l5.6-2.7c-.02-1.76-.41-3.49-1.12-5.09-.39-.85-.86-1.65-1.42-2.39-.54-.71-1.12-1.37-1.75-2-1.3-1.21-2.77-2.23-4.37-3-1.68-.82-3.42-1.51-5.2-2.08-1.76-.62-3.57-1.17-5.32-1.73-2.92-.82-5.75-1.94-8.44-3.34-2.29-1.18-4.02-3.21-4.83-5.65-.33-1.19-.38-2.44-.16-3.66.27-1.29.75-2.53,1.42-3.67,1.56-2.58,3.38-5,5.44-7.21l3.72-4.23c1.22-1.41,2.34-2.9,3.35-4.47.95-1.49,1.68-3.11,2.17-4.81.55-1.74.71-3.57.47-5.38-.54-3.58-2.31-6.86-5-9.27-1.37-1.28-2.82-2.46-4.36-3.53-1.49-1.12-3.06-2.17-4.57-3.22-2.54-1.65-4.91-3.56-7.07-5.69-1.86-1.78-2.92-4.23-2.95-6.8,0-5.11,5.28-8.62,10.67-11.94,1.58-1,3.14-1.94,4.76-3,1.59-.98,3.11-2.08,4.54-3.29,1.36-1.15,2.53-2.5,3.48-4,.99-1.52,1.67-3.22,2-5,.31-1.79.25-3.62-.18-5.39-.38-1.73-1.03-3.39-1.91-4.93-1.96-3.18-4.15-6.21-6.56-9.07-1.95-2.29-3.67-4.78-5.12-7.42-.29-.61-.55-1.24-.77-1.88-.19-.6-.32-1.22-.4-1.85-.16-1.23-.04-2.48.35-3.66,1.56-4.86,7.59-6.67,13.73-8.24l4.09-1.06c1.39-.35,2.78-.74,4.11-1.19,2.6-.78,5.01-2.07,7.11-3.79l-5.64-2.72c-2.8,1.49-6.58,2.3-10.65,3.23Z"/><path class="cls-1" d="M162.23,19.07c-2.89-2.42-6.08-4.45-9.49-6.05-7.26-3.22-15.77-.13-19.28,7-1.73,3.22-2.62,7.07-3.43,10.73-.35,1.63-.68,3.22-1.05,4.73-.33,1.46-.74,2.9-1.22,4.32-1,2.66-2.3,4.76-4.56,5.92s-4.7,1.25-7.45.6c-1.46-.39-2.89-.87-4.29-1.42-1.47-.52-3-1.11-4.54-1.7-3.47-1.48-7.12-2.49-10.86-3-7.9-.94-15.13,4.55-16.35,12.41-.53,3.74-.58,7.54-.13,11.29.14,1.66.28,3.29.41,4.86.13,1.49.17,2.99.11,4.49-.05,1.31-.29,2.61-.7,3.86-.21.58-.48,1.14-.8,1.66-.31.54-.68,1.04-1.11,1.49-1.75,1.84-4.16,2.54-7,2.72-3.1.12-6.21.02-9.3-.29-1.89-.13-3.81-.24-5.72-.23-1.86,0-3.71.2-5.52.59-1.78.35-3.5.97-5.09,1.85-.81.48-1.58,1.03-2.28,1.66-.74.69-1.41,1.45-2,2.27-1.14,1.59-1.96,3.39-2.42,5.3-.4,1.79-.48,3.64-.24,5.46.55,3.72,1.61,7.34,3.14,10.77,1.29,2.85,2.38,5.78,3.25,8.78.33,1.27.48,2.59.45,3.9,0,1.24-.29,2.47-.85,3.58-.92,1.68-2.36,3.02-4.1,3.82l5.6,2.7c1.37-1.11,2.48-2.49,3.28-4.05,1.56-3.26,1.94-6.96,1.07-10.47-.41-1.82-.95-3.62-1.6-5.37-.61-1.76-1.31-3.52-2-5.24-1.18-2.8-2.07-5.71-2.65-8.69-.49-2.52.01-5.14,1.41-7.29.72-1.01,1.66-1.83,2.76-2.41,1.19-.57,2.46-.96,3.76-1.17,2.98-.4,6-.48,9-.26,3.73.35,7.48.39,11.22.1,3.53-.49,7-1.5,9.61-4.31,1.25-1.31,2.25-2.84,2.95-4.51.64-1.67,1.02-3.42,1.15-5.2.14-1.85.17-3.7.09-5.55-.08-1.88-.24-3.77-.37-5.62-.54-6.44-.51-12.49,3.48-15.66,2-1.54,4.59-1.8,7.31-1.48,2.98.46,5.9,1.27,8.7,2.41,3.45,1.42,7.02,2.54,10.66,3.34,3.59.68,7.12.63,10.46-1.29,3.43-1.74,5.38-4.69,6.78-8.06,1.31-3.49,2.31-7.09,3-10.76.57-2.96,1.48-5.85,2.72-8.6,1.23-2.46,2.84-4.47,5.24-5.32,2.48-.71,5.13-.45,7.42.73,1.32.6,2.58,1.31,3.78,2.12,1.27.87,2.55,1.82,3.82,2.8,2.23,1.7,4.51,3.5,6.86,5,2.25,1.53,4.76,2.64,7.41,3.27l-1.38-6.1c-1.6-.76-3.11-1.68-4.51-2.76-.77-.56-1.54-1.17-2.33-1.8l-2.28-1.87Z"/><path class="cls-1" d="M334.81,51.75c.09-3.76-.32-7.51-1.2-11.17-.99-3.68-3.33-6.85-6.55-8.89-3.27-1.96-7.16-2.62-10.9-1.86-3.59.63-7.16,2.35-10.53,4-6,2.85-11.38,6.1-16,4-2.35-1-3.9-2.89-5.1-5.45-.63-1.37-1.17-2.77-1.62-4.21-.51-1.47-1-3-1.5-4.6-1.02-3.63-2.51-7.12-4.44-10.36-4.16-6.75-12.9-9.02-19.81-5.14-3.25,1.94-6.23,4.29-8.88,7-1.2,1.14-2.37,2.26-3.53,3.3-1.08,1.04-2.23,2.01-3.44,2.91-2.29,1.66-4.58,2.63-7.1,2.31s-4.59-1.69-6.5-3.69c-1-1.12-1.94-2.3-2.79-3.54-.92-1.25-1.84-2.58-2.79-3.94-2.05-3.17-4.5-6.06-7.29-8.6-2.91-2.44-6.62-3.74-10.42-3.63-3.79.25-7.35,1.89-10,4.61-1.33,1.31-2.51,2.77-3.51,4.35-1.06,1.58-2,3.24-2.95,4.88-3.31,5.72-6,11.42-11,12.29-1.87.32-3.8.06-5.52-.74l1.38,6.06c1.71.32,3.48.32,5.19,0,1.79-.3,3.5-.98,5-2,1.44-1.08,2.74-2.33,3.87-3.74,2.3-2.95,4.33-6.09,6.07-9.4.81-1.42,1.62-2.76,2.47-4,.82-1.22,1.74-2.36,2.74-3.43,1.89-2,4-3.43,6.56-3.54,2.58.05,5.03,1.09,6.87,2.9,1.08.96,2.09,2,3,3.12,1,1.19,1.9,2.49,2.83,3.8,2.05,3.11,4.37,6.04,6.94,8.74,2.58,2.61,5.52,4.54,9.36,4.82,3.82.49,7.09-.8,10.15-2.85,3.03-2.13,5.87-4.53,8.48-7.16,1.18-1.08,2.36-2.19,3.54-3.14,1.12-.91,2.31-1.73,3.56-2.45,2.16-1.41,4.78-1.94,7.32-1.46,2.45.81,4.5,2.53,5.72,4.8,1.5,2.63,2.68,5.42,3.53,8.32,1.03,3.58,2.37,7.06,4,10.41,1.69,3.26,3.94,6,7.51,7.38,3.5,1.61,7,1.29,10.52.3,3.56-1.14,7.01-2.6,10.31-4.35l2.17-1c.71-.32,1.42-.61,2.12-.89,1.34-.54,2.73-.98,4.14-1.3,2.68-.57,5.27-.58,7.41.79,4.29,2.76,4.87,8.8,4.95,15.26.06,2.79.08,5.7.4,8.45.17,2.72.87,5.39,2.06,7.84l3.9-4.88c-.81-3.15-.65-7.15-.7-11.23Z"/><path class="cls-1" d="M416.83,207.04c1.47-1.19,3-2.41,4.35-3.71,1.34-1.28,2.56-2.68,3.64-4.19,2.31-3.04,3.34-6.87,2.86-10.66-.23-1.93-.84-3.8-1.78-5.5-.94-1.58-2.14-2.99-3.55-4.17-2.93-2.34-6.16-4.28-9.61-5.76-2.88-1.21-5.68-2.63-8.36-4.23-1.12-.7-2.13-1.57-3-2.56-.85-.91-1.47-2.01-1.82-3.2-.71-2.44,0-4.9,1.16-7.42,1.45-2.75,3.09-5.4,4.91-7.92,1.05-1.56,2.16-3.19,3.05-4.83.91-1.62,1.66-3.31,2.24-5.07.58-1.75.88-3.57.89-5.41-.03-1.95-.48-3.87-1.32-5.63-.79-1.78-1.91-3.39-3.32-4.74-1.38-1.21-2.95-2.2-4.64-2.92-3.49-1.39-7.16-2.28-10.9-2.64-6.69-.89-12.7-1.43-15.51-5.65-.66-1.06-1.07-2.25-1.19-3.49-.14-1.3-.11-2.62.09-3.92.58-3.05,1.38-6.06,2.39-9,1.2-3.55,1.91-7.25,2.1-11,.07-1.83-.19-3.66-.74-5.41-.64-1.84-1.63-3.54-2.92-5-2.51-2.89-6.04-4.68-9.85-5-1.84-.21-3.7-.23-5.55-.06-1.9.17-3.8.46-5.67.76-3.05.61-6.13.99-9.23,1.16-2.84.09-5.31-.37-7.23-2-1.41-1.28-2.4-2.95-2.85-4.79l-3.85,4.82c.84,1.51,1.95,2.87,3.26,4,2.89,2.54,6.41,3.23,10,3.38,3.75-.07,7.48-.46,11.16-1.15,2.97-.51,5.99-.71,9-.6,1.32.08,2.61.36,3.85.81,1.15.48,2.18,1.21,3,2.14,1.6,2.01,2.34,4.57,2.09,7.12-.3,3.02-.91,6.01-1.81,8.91-.5,1.77-1,3.58-1.47,5.4-.49,1.8-.85,3.64-1.09,5.49-.22,1.76-.18,3.54.13,5.29.32,1.77.98,3.47,1.93,5,.99,1.53,2.29,2.83,3.81,3.84,1.43,1.02,3.01,1.82,4.68,2.37,1.78.56,3.61.99,5.45,1.29,1.88.32,3.71.61,5.53.89,3.01.38,5.97,1.07,8.83,2.06,2.45.79,4.48,2.53,5.63,4.84,2.18,4.62-1.05,10.07-4.44,15.39l-3,4.74c-1,1.58-1.88,3.22-2.64,4.92-.71,1.62-1.2,3.33-1.43,5.08-.27,1.8-.16,3.64.34,5.39,1.08,3.45,3.32,6.43,6.34,8.41,1.54,1.05,3.15,2,4.82,2.84,1.65.88,3.35,1.69,5,2.5,2.76,1.26,5.39,2.79,7.85,4.58,2.08,1.5,3.49,3.77,3.91,6.3.15,1.23.02,2.48-.38,3.65-.48,1.23-1.16,2.38-2,3.41-1.93,2.32-4.1,4.44-6.47,6.32-2.07,1.78-4.41,3.61-6.42,5.58-2,1.83-3.61,4.04-4.74,6.51h6.25c1.92-2.6,5.03-4.97,8.24-7.56Z"/></g><g id="backbone_red"><path class="cls-2" d="M347.79,381.58c1.91-.56,3.68-1.54,5.18-2.85l-3.47-4.12c-1.57,1.33-3.55,2.07-5.6,2.11l3.89,4.86Z"/><path class="cls-2" d="M420.09,261.72c-1.37,1.04-2.83,1.96-4.37,2.74.33.75.58,1.54.74,2.35.23,1.33.15,2.7-.22,4l5.19,1.44c1.02-3.6.66-7.45-1-10.81l-.34.28Z"/><path class="cls-2" d="M402.34,246.96c2.1,3.01,4.44,5.85,7,8.48,1.21,1.37,2.39,2.75,3.44,4.15,1.24-.61,2.44-1.31,3.58-2.1.43-.31.84-.64,1.23-1-.19-.25-.38-.51-.58-.76-1.21-1.53-2.52-3-3.78-4.33-2.1-2.12-4.04-4.38-5.82-6.77-1.56-2.2-2.54-4.37-2.23-6.68h0l-5.35-.65c-.22,1.7-.07,3.44.43,5.08.48,1.62,1.18,3.16,2.08,4.58Z"/><path class="cls-2" d="M388.62,311.03c.75,1.66,1.48,3.34,2.08,5,1.35-.22,2.69-.54,4-.95.51-.16,1-.35,1.46-.55-.1-.3-.2-.6-.31-.9-.66-1.79-1.52-3.57-2.32-5.25-1.38-2.65-2.58-5.39-3.58-8.2-.77-2.54-1.11-4.93-.13-7l-4.91-2.2c-.71,1.57-1.08,3.28-1.08,5-.05,1.67.16,3.34.62,4.95.89,3.26,2.71,6.72,4.17,10.1Z"/><path class="cls-2" d="M397.04,320.23c-1.62.59-3.3,1.04-5,1.33.28,2.15-.21,4.33-1.37,6.16l4.53,2.92c1.13-1.73,1.89-3.66,2.26-5.69.21-1.63.21-3.28,0-4.91l-.42.19Z"/><path class="cls-2" d="M352.4,358.01c.23,1.83.45,3.66.54,5.42,1.36.18,2.74.27,4.11.25.53,0,1-.06,1.55-.12-.1-2.21-.32-4.41-.67-6.59-.54-2.95-.87-5.94-1-8.94-.03-1.24.11-2.49.43-3.69.26-1.13.79-2.17,1.54-3.05l-4.05-3.56c-2.19,2.63-3.38,5.95-3.36,9.37-.03,1.8.06,3.6.27,5.39.14,1.81.4,3.67.64,5.52Z"/><path class="cls-2" d="M357.77,369.31c-.91.06-1.83.06-2.74,0-.81-.05-1.61-.14-2.42-.24-.4,2.13-1.49,4.07-3.11,5.51l3.47,4.12c2.85-2.42,4.73-5.78,5.3-9.47l-.5.08Z"/><path class="cls-2" d="M416.24,226.9c2.45-1.52,4.75-3.26,6.88-5.21,2.17-1.95,3.91-4.33,5.09-7h-6.26c-2,2.78-5.25,5.13-8.59,7.42-1.55,1.06-3.06,2.11-4.58,3.18-1.48,1.02-2.89,2.15-4.21,3.38-2.55,2.27-4.23,5.37-4.74,8.75l5.35.65c.15-1.15.58-2.24,1.25-3.18.7-1.03,1.53-1.97,2.47-2.78,2.33-1.9,4.78-3.64,7.34-5.21Z"/><path class="cls-2" d="M354.81,337.73c1.12-1.3,2.51-2.34,4.07-3.06,1.52-.71,3.13-1.2,4.79-1.48,3.38-.59,7.25-.41,11-.43,3.14.08,6.28-.17,9.37-.76,1.36-.28,2.66-.79,3.86-1.49,1.13-.71,2.1-1.66,2.82-2.79l4.53,2.92c-1.09,1.76-2.54,3.26-4.26,4.4-1.63,1.04-3.42,1.83-5.29,2.32-1.85.5-3.75.8-5.67.92-1.95.11-3.88.1-5.75.06-2.98-.15-5.96-.1-8.93.16-2.68.3-4.94,1-6.46,2.79l-4.08-3.56Z"/><path class="cls-2" d="M384.93,290.9c.73-1.56,1.74-2.96,3-4.13,1.23-1.14,2.62-2.09,4.13-2.82,1.62-.78,3.29-1.45,5-2,1.77-.57,3.52-1.13,5.31-1.68,3.04-.84,5.98-2.01,8.77-3.48,2.44-1.26,4.27-3.45,5.09-6.07l5.19,1.44c-.55,1.99-1.48,3.85-2.74,5.48-1.25,1.48-2.73,2.76-4.39,3.77-1.63,1.02-3.36,1.87-5.16,2.55-.9.35-1.79.67-2.7,1s-1.84.56-2.74.81c-6.26,1.77-11.87,3.16-13.86,7.35l-4.9-2.22Z"/><path class="cls-2" d="M167.09,422.9c1.64,1.13,3.5,1.92,5.46,2.3l1.05-5.29c-2-.43-3.81-1.51-5.13-3.08l-1.38,6.07Z"/><path class="cls-2" d="M186.86,418.9c.35.41.7.78,1.06,1.13,1.7-1.48,3.27-3.08,4.74-4.64l3.21-3.43c.98-1.06,2.02-2.06,3.12-3,2.08-1.72,4.16-2.72,6.49-2.62l.25-5.38c-3.43-.15-6.79,1-9.42,3.21-1.4,1.1-2.73,2.27-4,3.52-1.31,1.28-2.6,2.65-3.9,4s-2.58,2.67-3.89,3.83c.69,1.19,1.47,2.32,2.34,3.38Z"/><path class="cls-2" d="M182.91,423.04c-1.14-1.31-2.17-2.72-3.05-4.21-1.92,1-4.12,1.35-6.26,1l-1.05,5.29c2.03.37,4.12.35,6.14-.07,1.6-.33,3.14-.91,4.57-1.7l-.35-.31Z"/><path class="cls-2" d="M305.91,404.68c-1.68-.44-3.32-1.04-4.9-1.77-1.01,1.92-2.62,3.47-4.58,4.4l2.11,5c3.4-1.52,6.17-4.17,7.84-7.5-.16-.07-.32-.09-.47-.13Z"/><path class="cls-2" d="M306.86,399.06c.51.14,1,.24,1.5.33.55-2.15.98-4.32,1.31-6.51.24-1.58.48-3.14.71-4.64.22-1.42.52-2.82.91-4.2.51-2.36,1.89-4.45,3.87-5.84h0l-2.83-4.58c-2.92,1.83-5.06,4.68-6,8-1.05,3.5-1.83,7.07-2.31,10.69-.29,1.86-.62,3.66-1.06,5.36,1.26.56,2.57,1.03,3.9,1.39Z"/><path class="cls-2" d="M249.69,418.81c1.15-1.9,2.21-3.85,3.17-5.85.71-1.42,1.41-2.83,2.07-4.17.63-1.3,1.33-2.56,2.11-3.77,1.49-2.25,3.17-3.88,5.44-4.4l-1.32-5.22c-3.55.81-6,3-8.06,5.84-2.07,3-3.86,6.18-5.37,9.5-.75,1.49-1.51,3-2.31,4.34l-.29.46c1.37,1.28,2.91,2.38,4.56,3.27Z"/><path class="cls-2" d="M245.77,423.11c-1.47-.92-2.86-1.96-4.15-3.13-1.53,1.54-3.52,2.55-5.67,2.86l.54,5.36c3.7-.46,7.13-2.17,9.72-4.85l-.44-.24Z"/><path class="cls-2" d="M330.74,379.9c2.74.95,5.55,1.68,8.41,2.19,2.87.46,5.81.29,8.61-.5l-3.9-4.89c-3.42.17-7.2-.79-11.11-2-3.44-1.24-6.99-2.18-10.59-2.8-1.66-.21-3.34-.21-5,0-1.7.25-3.33.85-4.77,1.78l2.77,4.52c3.9-2.52,9.51-.23,15.58,1.7Z"/><path class="cls-2" d="M205.73,401.02c3.65.08,6.51,1.73,9.09,4.1,2.63,2.53,5.04,5.28,7.18,8.23,1,1.3,2.07,2.6,3.14,3.79,1.01,1.11,2.11,2.14,3.29,3.08,2.08,1.8,4.77,2.73,7.52,2.62l.54,5.36c-4.01.3-7.99-.86-11.2-3.28-2.99-2.43-5.64-5.24-7.89-8.36-1-1.27-1.93-2.5-2.87-3.67-.87-1.14-1.82-2.23-2.83-3.26-1.91-1.91-3.89-3.17-6.22-3.23l.25-5.38Z"/><path class="cls-2" d="M261.16,395.4c3.51-1,6.71-.28,9.87,1.23,3.25,1.65,6.36,3.57,9.29,5.75,1.37.94,2.75,1.87,4.12,2.69,1.29.78,2.65,1.45,4.06,2,2.52,1.11,5.36,1.2,7.95.27l2.11,5c-3.74,1.49-7.89,1.56-11.68.2-3.57-1.44-6.93-3.34-10-5.66-2.4-1.8-4.9-3.47-7.49-5-2.38-1.26-4.64-1.87-6.88-1.24l-1.35-5.24Z"/><path class="cls-2" d="M22.1,307.31c.2,1.98.78,3.9,1.69,5.67l4.79-2.47c-.91-1.83-1.21-3.89-.87-5.9l-5.61,2.7Z"/><path class="cls-2" d="M127.91,401.73c.2.47.42.94.67,1.39,2.07-.91,4-2,5.91-3,2.56-1.56,5.21-2.97,7.93-4.23,2.5-1,4.78-1.37,7-.59h0l1.83-5.07c-3.24-1.14-6.78-1.04-9.95.29-3.39,1.34-6.67,2.97-9.79,4.85-1.46.81-2.91,1.59-4.36,2.28l-.5.23c.32,1.31.74,2.6,1.26,3.85Z"/><path class="cls-2" d="M122.92,404.48c-.7-1.59-1.26-3.25-1.67-4.94-2.13.42-4.34.13-6.29-.83l-2.57,4.74c3.32,1.71,7.12,2.22,10.77,1.45-.09-.13-.17-.27-.24-.42Z"/><path class="cls-2" d="M76.55,363.69c-.12,1.38-.12,2.76,0,4.14.05.51.13,1.01.24,1.51l1-.12c1.92-.27,3.8-.67,5.61-1.07,6.21-1.31,12-3.08,15.66-.19l3.24-4.3c-2.85-2.27-6.14-2.78-9.59-2.66-3.65.27-7.26.86-10.81,1.76-1.65.36-3.25.67-4.8.87l-.55.06Z"/><path class="cls-2" d="M71.06,368.9c-.21-1.72-.27-3.45-.17-5.18-.81-.1-1.61-.28-2.39-.55-.63-.21-1.23-.49-1.8-.83-.56-.36-1.07-.78-1.54-1.25l-3.86,3.81c1.42,1.5,3.17,2.67,5.1,3.41,1.53.59,3.13.96,4.76,1.12,0-.17-.08-.33-.1-.53Z"/><path class="cls-2" d="M38.72,316.34c-.5,1.3-.9,2.64-1.2,4-.11.51-.19,1.02-.24,1.54l.94.17c1.93.3,3.86.46,5.71.6,2.98.13,5.94.46,8.87,1,2.66.54,4.83,1.49,6.18,3.39l4.36-3.14c-.99-1.4-2.27-2.58-3.76-3.44-1.45-.84-3-1.48-4.62-1.91-3.31-.91-7.16-1.11-10.89-1.47-1.83-.18-3.63-.43-5.35-.74Z"/><path class="cls-2" d="M31.91,319.75c.3-1.7.74-3.38,1.34-5-.74-.32-1.44-.72-2.09-1.2-1.06-.8-1.92-1.83-2.54-3l-4.79,2.47c1.7,3.33,4.57,5.92,8.06,7.26l.02-.53Z"/><path class="cls-2" d="M157.8,408.47c.96,2.73,2.14,5.38,3.53,7.92,1.41,2.56,3.38,4.75,5.77,6.43l1.38-6.1c-1.19-1.36-2.19-2.87-3-4.49-.44-.84-.85-1.72-1.24-2.62s-.77-1.88-1.14-2.84c-1.18-3.46-2.67-6.8-4.44-10-1.78-3-4-5.44-7.46-6.58l-1.83,5.07c2.21.74,3.72,2.54,5,4.92.63,1.19,1.18,2.56,1.74,3.94s1.12,2.85,1.69,4.35Z"/><path class="cls-2" d="M63.34,323.9c.51.72.94,1.48,1.29,2.29.34.76.61,1.55.82,2.35.37,1.64.49,3.32.36,5-.15,1.79-.41,3.57-.78,5.33-.35,1.79-.78,3.61-1.2,5.44-.8,3.05-1.26,6.19-1.38,9.34-.09,2.74.87,5.41,2.7,7.46l-3.85,3.79c-2.81-2.9-4.4-6.76-4.43-10.8,0-3.83.52-7.65,1.55-11.34.83-2.89,1.46-5.83,1.89-8.8.15-1.23.12-2.48-.08-3.71-.17-1.14-.6-2.23-1.25-3.18l4.36-3.17Z"/><path class="cls-2" d="M102.3,363.66c2.73,2.09,4.58,5.12,5.19,8.5.73,3.58,1.15,7.2,1.28,10.85.12,1.67.25,3.31.46,4.9.2,1.5.54,2.97,1,4.41.7,2.66,2.4,4.95,4.74,6.39l-2.57,4.74c-3.49-1.99-6.13-5.19-7.42-9-1.1-3.69-1.72-7.52-1.82-11.37-.1-3-.36-5.98-.79-8.95-.29-2.4-1.47-4.6-3.31-6.17l3.24-4.3Z"/><path class="cls-2" d="M22.1,121.9c-1.42,1.39-2.57,3.04-3.38,4.85l4.91,2.15c.86-1.85,2.29-3.37,4.08-4.35l-5.61-2.65Z"/><path class="cls-2" d="M19.66,267.6c2.81,1,5.56,2.19,8.21,3.57.56.32,1.1.67,1.61,1.05.5.34.98.73,1.41,1.16.84.79,1.48,1.77,1.86,2.86h0l5.1-1.73c-.56-1.63-1.44-3.12-2.6-4.39-1.11-1.26-2.4-2.33-3.83-3.2-2.91-1.84-6.56-3.16-9.95-4.63-1.69-.71-3.36-1.44-4.93-2.24-.85,1.08-1.61,2.23-2.29,3.43-.26.47-.48.93-.69,1.4,1.98,1.03,4.01,1.94,6.1,2.72Z"/><path class="cls-2" d="M8.83,261.73l.21-.45c.78-1.54,1.69-3.01,2.74-4.38-1.67-1.38-2.8-3.31-3.18-5.45l-5.31.94c.34,2.04,1.09,3.98,2.21,5.72.95,1.35,2.07,2.56,3.33,3.62Z"/><path class="cls-2" d="M8.36,204.03c1.44,1.33,2.94,2.56,4.4,3.72,2.39,1.79,4.66,3.73,6.78,5.83,1.8,1.95,3.14,4,3.18,6.29l5.38-.15c-.03-1.73-.44-3.44-1.2-5-.69-1.53-1.6-2.94-2.71-4.2-2.22-2.62-5.32-5-8.17-7.35-1.4-1.18-2.78-2.37-4-3.59-1.58,1.07-3.02,2.33-4.28,3.76l.62.69Z"/><path class="cls-2" d="M4.45,198.6c1.21-1.23,2.51-2.35,3.91-3.36-.44-.7-.8-1.44-1.08-2.21-.42-1.27-.55-2.62-.38-3.95l-5.35-.65c-.47,3.72.46,7.47,2.61,10.54l.29-.37Z"/><path class="cls-2" d="M20.61,143.66c1,1.69,2,3.31,3.09,4.85,1.76,2.41,3.34,4.94,4.75,7.57,1.19,2.4,1.84,4.7,1.2,6.94l5.19,1.44c.47-1.65.57-3.38.32-5.08-.22-1.66-.68-3.28-1.37-4.81-1.35-3.15-3.62-6.3-5.63-9.43-1-1.54-2-3.09-2.79-4.63-1.82.56-3.57,1.34-5.2,2.33l.44.82Z"/><path class="cls-2" d="M18.47,137.31c1.5-.83,3.07-1.52,4.69-2.06-.22-.79-.34-1.61-.36-2.43-.03-1.34.24-2.66.79-3.88l-4.91-2.21c-.43.97-.76,1.97-1,3-.24.98-.35,1.99-.34,3,.01,1.64.25,3.27.7,4.85l.43-.27Z"/><path class="cls-2" d="M27.6,291.06c-.72,1.2-1.48,2.46-2.16,3.74-.68,1.3-1.27,2.63-1.79,4-1.09,2.7-1.6,5.59-1.49,8.5l5.64-2.72c.6-3.38,2.49-6.9,4.5-10.42,1.81-3.22,3.88-6.48,5.09-9.72.62-1.56.98-3.2,1.09-4.87.15-1.71-.05-3.43-.6-5.06l-5.1,1.73c1.38,4.42-1.83,9.27-5.18,14.82Z"/><path class="cls-2" d="M34.84,164.46c-1.01,3.26-3.13,6.07-6,7.93-1.49,1.02-3.05,1.93-4.68,2.71-1.63.84-3.3,1.65-5,2.46-2.88,1.29-5.61,2.89-8.15,4.76-2.22,1.62-3.7,4.05-4.12,6.76l-5.35-.65c.25-2.05.89-4.02,1.9-5.82,1.01-1.66,2.28-3.14,3.76-4.39,1.47-1.25,3.06-2.36,4.74-3.32.83-.48,1.68-.93,2.52-1.36s1.73-.82,2.58-1.21c2.76-1.15,5.43-2.49,8-4,1.06-.66,2.02-1.46,2.86-2.38.8-.83,1.39-1.84,1.71-2.95l5.23,1.46Z"/><path class="cls-2" d="M28.1,219.72c.03,1.71-.28,3.41-.92,5-.6,1.57-1.44,3.03-2.49,4.34-2.09,2.73-5.08,5.23-7.74,7.78-4.78,4.47-9.43,9.13-8.35,14.6l-5.31.94c-.39-2.03-.35-4.11.12-6.12.49-1.88,1.27-3.67,2.31-5.3,1.03-1.62,2.22-3.13,3.54-4.53,1.29-1.4,2.78-2.71,4.16-4,4.84-4.3,9.33-8,9.3-12.63l5.38-.08Z"/><path class="cls-2" d="M167.09,6.34c-1.98-.28-3.99-.18-5.93.27l1.34,5.22c2.01-.44,4.11-.24,6,.58l-1.41-6.07Z"/><path class="cls-2" d="M49.96,83c1.68-.36,3.4-.56,5.12-.58.09-2.16.89-4.23,2.28-5.89l-4-3.56c-1.35,1.55-2.4,3.35-3.07,5.3-.49,1.57-.75,3.2-.76,4.85.11-.04.27-.09.43-.12Z"/><path class="cls-2" d="M58.43,98.73c-.48-1.8-1-3.56-1.49-5.37s-1-3.54-1.33-5.26c-1.38.02-2.75.13-4.11.35-.53.09-1,.21-1.52.34.41,2.18.97,4.34,1.66,6.45,1.93,6.2,3.84,11.67,1.41,15.63h0l4.53,2.91c.91-1.45,1.53-3.07,1.82-4.76.29-1.65.33-3.34.11-5-.23-1.79-.59-3.56-1.08-5.29Z"/><path class="cls-2" d="M95.95,45.96c-.51-.07-1.03-.1-1.54-.11-.22,2.2-.33,4.4-.33,6.61.1,3,0,6.01-.28,9-.19,2.42-1.25,4.68-3,6.36l3.51,4.08c5.58-4.63,5.21-12.2,5.4-19.69,0-1.66.08-3.31.2-4.9,0-.18,0-.36.06-.54-1.32-.37-2.66-.64-4.02-.81Z"/><path class="cls-2" d="M96.06,40.26c1.72.17,3.43.5,5.09,1,.72-2.04,2.08-3.8,3.88-5l-2.82-4.58c-1.75,1.11-3.26,2.54-4.46,4.22-.95,1.33-1.69,2.8-2.18,4.36h.49Z"/><path class="cls-2" d="M152.74,13.02c1.59.69,3.12,1.52,4.57,2.48,1.28-1.76,3.1-3.05,5.19-3.67l-1.34-5.22c-3.6,1.01-6.74,3.23-8.89,6.29l.47.12Z"/><path class="cls-2" d="M150.95,18.41c-.48-.21-1-.39-1.44-.55-.86,2.05-1.61,4.14-2.26,6.26-.83,2.88-1.81,5.71-2.94,8.48-1.13,2.45-2.56,4.3-4.71,5.18l2.1,4.95c3.17-1.35,5.7-3.85,7.09-7,1.58-3.29,2.89-6.7,3.89-10.21.52-1.59,1-3.16,1.63-4.65.07-.17.15-.32.23-.49-1.14-.75-2.34-1.41-3.59-1.97Z"/><path class="cls-2" d="M38.25,116.07c-1.4.18-2.84.38-4.28.64-1.42.25-2.82.58-4.2,1-2.81.84-5.4,2.27-7.61,4.19l5.64,2.72c3-1.63,7-2.35,11-3,3.64-.6,7.51-1,10.78-2.07,1.6-.5,3.11-1.23,4.49-2.18,1.44-.95,2.66-2.18,3.59-3.63l-4.61-2.84c-.63.96-1.49,1.76-2.49,2.33-1.1.6-2.27,1.07-3.48,1.4-2.91.68-5.86,1.16-8.83,1.44Z"/><path class="cls-2" d="M141.7,42.73c-3.31,1.52-6.6,1.26-9.94.26-3.47-1.14-6.84-2.57-10.06-4.3-2.77-1.48-5.72-2.61-8.77-3.37-2.81-.58-5.55-.55-7.9.93l-2.82-4.58c3.45-2.08,7.56-2.79,11.51-2,3.75.88,7.36,2.25,10.74,4.09,1.43.71,2.82,1.42,4.17,2.05,1.3.65,2.63,1.22,4,1.71,2.54.89,4.88,1.17,7,.21l2.07,5Z"/><path class="cls-2" d="M94.31,71.9c-1.29,1.13-2.81,1.97-4.46,2.45-.8.23-1.62.4-2.45.51-.83.13-1.68.2-2.52.22-3.67-.08-7.32-.47-10.92-1.18-3.08-.55-6.22-.76-9.35-.62-1.39.1-2.76.4-4.06.9-1.23.52-2.32,1.32-3.19,2.33l-4-3.56c.69-.8,1.46-1.54,2.3-2.19.78-.59,1.61-1.09,2.5-1.49,1.76-.8,3.63-1.31,5.55-1.53,3.76-.5,7.79.13,11.44.73,2.93.58,5.89.97,8.87,1.17,2.71.12,5-.29,6.79-1.82l3.5,4.08Z"/><path class="cls-2" d="M347.79,47.61c-1.02-1.71-2.35-3.21-3.92-4.44l-3.25,4.3c1.59,1.28,2.74,3.03,3.28,5l3.89-4.86Z"/><path class="cls-2" d="M214.84,3.78c1.32,1.14,2.53,2.39,3.64,3.73,1.73-1.3,3.84-2.01,6-2l.25-5.38c-3.72-.11-7.36,1.07-10.31,3.34l.42.31Z"/><path class="cls-2" d="M211.54,8.43c-.39-.35-.79-.69-1.21-1-1.42,1.7-2.76,3.47-4,5.3-1.64,2.51-3.42,4.92-5.32,7.24-1.8,2-3.71,3.36-6,3.54h0l.55,5.36c3.64-.27,6.4-2.05,8.84-4.57,2.49-2.67,4.74-5.54,6.73-8.6,1-1.36,1.93-2.7,2.93-4l.36-.42c-.89-1.02-1.85-1.97-2.88-2.85Z"/><path class="cls-2" d="M277.01,13.17c.93,1.47,1.73,3.02,2.39,4.63,2.05-.73,4.27-.76,6.34-.1l1.83-5.07c-1.95-.67-4.02-.96-6.08-.85-1.63.09-3.24.43-4.77,1l.29.39Z"/><path class="cls-2" d="M272.49,16.64c-.28-.44-.58-.86-.88-1.27-1.86,1.2-3.65,2.5-5.38,3.88-2.29,1.93-4.7,3.73-7.21,5.38-1.98,1.38-4.41,1.97-6.81,1.64l-1.05,5.28c3.37.64,6.86,0,9.79-1.77,1.55-.88,3.06-1.84,4.5-2.89,1.49-1.07,3-2.23,4.46-3.38s2.95-2.25,4.42-3.2c-.52-1.27-1.13-2.5-1.84-3.67Z"/><path class="cls-2" d="M327.82,41.06c-2.18.59-4.3,1.37-6.3,2.13l-4.36,1.71c-1.34.52-2.71.96-4.11,1.32-2.62.64-5,.69-7-.47l-2.57,4.73c3.16,1.82,6.44,1.91,9.88,1.21,3.56-.8,7.04-1.91,10.41-3.32,1.55-.57,3.13-1.17,4.64-1.6l.52-.14c-.13-1.9-.5-3.77-1.11-5.57Z"/><path class="cls-2" d="M333.46,40.11c.05.15.11.31.15.47.46,1.68.77,3.39.92,5.12,2.17-.13,4.32.5,6.09,1.77l3.25-4.3c-3.01-2.2-6.69-3.28-10.41-3.06Z"/><path class="cls-2" d="M181.69,15.28c-2.06-2.03-4.27-3.89-6.61-5.58-1.2-.84-2.47-1.56-3.81-2.15-1.34-.56-2.74-.96-4.17-1.18l1.38,6.11c1.65.71,3.2,1.63,4.62,2.73,1.51,1.15,3,2.55,4.51,3.94,2.57,2.59,5.36,4.96,8.33,7.07,2.9,2,6,3.16,9.58,2.7l-.55-5.36c-2.31.29-4.45-.66-6.62-2.25-2.33-1.89-4.55-3.9-6.66-6.03Z"/><path class="cls-2" d="M303.5,50.43c-3.25-1.65-5.11-4.37-6.4-7.62-1.27-3.42-2.24-6.95-2.89-10.54-.37-1.61-.73-3.27-1.19-4.76-.43-1.44-.98-2.85-1.63-4.21-1.29-2.56-3-4.66-5.65-5.6l1.83-5.07c3.76,1.44,6.86,4.22,8.7,7.8,1.64,3.48,2.81,7.16,3.48,10.95.34,1.56.67,3.09,1,4.55.29,1.41.67,2.81,1.13,4.17.89,2.54,2.12,4.54,4.2,5.6l-2.58,4.73Z"/><path class="cls-2" d="M251.16,31.55c-3.59-.61-6.16-2.73-8.37-5.39-2.23-2.91-4.2-6.01-5.88-9.26-1.46-2.78-3.26-5.38-5.36-7.72-2-2.07-4.27-3.57-7-3.69l.25-5.38c4.01.26,7.79,2,10.6,4.88,2.61,2.83,4.82,6,6.57,9.43,3.16,5.5,5.71,11,10.28,11.81l-1.09,5.32Z"/><path class="cls-2" d="M428.24,214.6c.68-1.87.99-3.85.93-5.83l-5.38.14c.02,2.04-.6,4.03-1.77,5.69h6.22Z"/><path class="cls-2" d="M373.32,87.74c.3-1.36.51-2.73.61-4.12v-1.54c-2.23-.04-4.47.04-6.69.22-2.97.29-5.95.4-8.93.34-2.71-.15-5-.77-6.59-2.46h0l-3.84,3.77c1.18,1.25,2.61,2.22,4.2,2.86.78.32,1.58.57,2.4.74.82.2,1.65.35,2.49.45,3.66.27,7.34.21,11-.16,1.8-.1,3.61-.15,5.35-.1Z"/><path class="cls-2" d="M379.54,83.35c-.04,1.73-.24,3.45-.59,5.14.79.22,1.56.51,2.3.88,1.19.62,2.22,1.52,3,2.62l4.36-3.15c-.61-.87-1.31-1.68-2.08-2.41-.75-.66-1.56-1.24-2.43-1.74-1.43-.8-2.97-1.41-4.57-1.79.01.15.02.3.01.45Z"/><path class="cls-2" d="M410.95,137.82c-.54,1.63-1.23,3.21-2.05,4.72,1.87,1.12,3.29,2.86,4,4.92l5.11-1.73c-.64-1.96-1.68-3.77-3.06-5.31-1.13-1.19-2.41-2.23-3.82-3.08-.09.16-.13.32-.18.48Z"/><path class="cls-2" d="M403.72,140.16c.95-1.65,1.7-3.4,2.22-5.23l-.88-.31c-1.83-.6-3.75-1-5.56-1.45-2.93-.56-5.81-1.32-8.64-2.27-2.48-1-4.55-2.2-5.59-4.28l-4.79,2.48c.78,1.53,1.88,2.87,3.23,3.94,1.28,1.08,2.72,1.95,4.27,2.6,1.65.7,3.36,1.27,5.1,1.71l5.43,1.37c1.77.41,3.54.88,5.21,1.44Z"/><path class="cls-2" d="M403.53,190.22c2.6,2.25,6,4.11,9.15,6.06,1.55,1,3.1,1.94,4.53,3,1-.95,1.94-1.97,2.79-3.05.32-.42.61-.85.89-1.28-1.8-1.31-3.68-2.51-5.63-3.6-5.61-3.25-10.74-5.95-11.64-10.51l-5.31.95c.31,1.69.97,3.29,1.92,4.72.91,1.4,2.02,2.65,3.3,3.71Z"/><path class="cls-2" d="M427.83,202.8c-.73-1.48-1.65-2.84-2.75-4.07-.09.14-.17.28-.26.41-1,1.4-2.13,2.71-3.37,3.91,1.45,1.62,2.28,3.69,2.34,5.86l5.38-.14c-.02-2.06-.48-4.1-1.34-5.97Z"/><path class="cls-2" d="M349.91,64.59c.3-2.87.38-5.75.22-8.63-.1-1.46-.33-2.9-.69-4.32-.38-1.4-.94-2.75-1.68-4l-3.9,4.89c.48,1.73.73,3.52.73,5.32,0,1.93-.1,4-.26,6-.51,7.48-1.6,15,3.52,20.11l3.85-3.77c-1.56-1.84-2.4-4.19-2.35-6.61,0-3.01.18-6.01.56-8.99Z"/><path class="cls-2" d="M398.31,181.75c-.3-1.69-.24-3.43.18-5.1.36-1.63.97-3.2,1.81-4.65.89-1.56,1.89-3.05,3-4.46l3.49-4.39c4.06-5.14,7.94-10.44,6.06-15.69l5.11-1.73c.68,1.95.95,4.02.8,6.08-.2,1.93-.71,3.81-1.49,5.58-.78,1.75-1.72,3.43-2.82,5-1.08,1.58-2.35,3.1-3.53,4.53-1.98,2.23-3.81,4.6-5.47,7.08-.66,1.07-1.19,2.2-1.6,3.39-.35,1.1-.44,2.26-.24,3.4l-5.3.96Z"/><path class="cls-2" d="M380.48,129.06c-1.48-3.08-1.83-6.58-1-9.9.4-1.76.93-3.49,1.58-5.17.63-1.73,1.31-3.45,2-5.2,1.23-2.89,2.16-5.91,2.75-9,.51-2.7-.06-5.49-1.58-7.77l4.36-3.15c1.21,1.66,2.08,3.54,2.57,5.53.4,1.9.48,3.85.23,5.77-.23,1.92-.64,3.8-1.23,5.64-.57,1.81-1.24,3.6-2,5.34-1.24,2.73-2.3,5.54-3.15,8.41-.62,2.57-.79,5,.27,7l-4.8,2.5Z"/></g><g id="backbone_blue-2"><path class="cls-1" d="M347.6,367.99c1.84.4,3.72.79,5.6,1.06.95.13,1.89.23,2.83.29.91.06,1.83.06,2.74,0,1.82-.11,3.62-.51,5.32-1.18,1.82-.71,3.46-1.82,4.8-3.24,1.36-1.4,2.43-3.05,3.15-4.86.34-.84.6-1.71.79-2.6.16-.91.25-1.82.28-2.74-.02-3.75-.52-7.49-1.5-11.11-.85-3.01-1.49-6.08-1.91-9.18-.15-1.31-.11-2.63.13-3.92.21-1.22.68-2.39,1.39-3.41,1.47-2.08,3.78-3.1,6.53-3.72,3.05-.59,6.14-.95,9.24-1.09,1.89-.16,3.82-.32,5.69-.62,1.83-.3,3.62-.77,5.36-1.41,3.63-1.21,6.63-3.8,8.37-7.21.9-1.73,1.46-3.61,1.63-5.55.1-1.83-.11-3.67-.6-5.44-.5-1.79-1.17-3.54-2-5.2-.41-.85-.84-1.68-1.29-2.51s-1-1.66-1.45-2.47c-3.49-5.8-6.77-10.83-5.24-15.65,1.71-4.77,7.38-6.77,13.66-9.26.89-.35,1.78-.71,2.66-1.08s1.72-.78,2.55-1.21c1.67-.82,3.25-1.81,4.73-2.93,1.46-1.13,2.74-2.48,3.79-4,1.03-1.65,1.73-3.48,2.06-5.4.37-1.92.34-3.89-.09-5.79-.46-1.77-1.2-3.46-2.19-5-2.09-3.12-4.63-5.92-7.52-8.32-5-4.5-9.66-8.34-9.63-13.41.09-1.91.79-3.74,2-5.22h-6.22c-.75,1.59-1.16,3.32-1.2,5.08-.02,1.82.32,3.63,1,5.32.64,1.65,1.52,3.19,2.62,4.58,2.42,2.85,5.04,5.53,7.85,8,4.62,4.33,9,8.82,8.07,13.83-.22,1.22-.72,2.38-1.46,3.38-.77,1.06-1.73,1.97-2.82,2.7-2.54,1.66-5.24,3.04-8.06,4.14-1.7.72-3.4,1.45-5.15,2.22-1.73.74-3.4,1.6-5,2.58-1.5.92-2.84,2.07-4,3.39-1.22,1.35-2.15,2.93-2.75,4.65-.57,1.73-.78,3.55-.64,5.36.12,1.76.51,3.5,1.15,5.15.67,1.75,1.47,3.44,2.39,5.07.9,1.67,1.82,3.28,2.74,4.89,1.57,2.59,2.87,5.34,3.89,8.19.9,2.41.79,5.09-.3,7.42-1.26,2.26-3.39,3.89-5.9,4.52-2.9.84-5.88,1.37-8.89,1.58-1.81.2-3.72.36-5.61.57-1.85.2-3.69.53-5.49,1-1.71.44-3.35,1.11-4.88,2-2.39,1.39-4.26,3.52-5.35,6.06-.37.8-.66,1.63-.87,2.49-.39,1.73-.52,3.52-.39,5.29.36,3.71,1.01,7.39,1.94,11,.77,2.94,1.21,5.96,1.31,9,.11,2.56-.77,5.07-2.45,7-1.72,1.87-4.25,2.47-7,2.56-3.01-.03-6.02-.39-8.95-1.08-2.75-.58-5.61-1.23-8.38-1.55-1.36-.17-2.73-.23-4.1-.18-1.35.01-2.69.18-4,.49l3.9,4.89c1.77,0,3.54.19,5.27.54,1.9.36,3.85.81,5.85,1.25Z"/><path class="cls-1" d="M177.97,413.46c1.55,3.44,3.55,6.66,5.94,9.58,5.12,6.07,14.14,6.99,20.38,2.07,2.93-2.38,5.53-5.13,7.74-8.19,1-1.31,2-2.6,3-3.8.94-1.18,1.94-2.3,3-3.36,2-2,4.15-3.3,6.69-3.36,2.59-.02,5.1.95,7,2.71,2.33,2.07,4.54,4.27,6.62,6.6,2.5,2.82,5.35,5.31,8.48,7.4,6.69,4.28,15.56,2.51,20.1-4,1.11-1.5,2.06-3.12,2.82-4.83.81-1.72,1.51-3.5,2.18-5.26,2.42-6.15,4.2-12.19,9-13.79,2.46-.78,5.12-.59,7.45.53,1.37.59,2.71,1.25,4,2l4.23,2.37c3.23,1.96,6.69,3.5,10.31,4.57,7.65,2.1,15.59-2.21,18-9.77,1.07-3.62,1.67-7.36,1.78-11.13.11-1.65.22-3.28.33-4.84.09-1.5.27-2.99.55-4.47.32-2.57,1.6-4.93,3.59-6.59,1.53-1.14,3.39-1.75,5.3-1.73l-3.88-4.86c-1.7.42-3.29,1.21-4.66,2.3-2.88,2.22-4.84,5.42-5.49,9-.79,3.65-1.25,7.35-1.39,11.08-.12,1.6-.24,3.2-.46,4.71-.2,1.43-.52,2.84-.94,4.22-.84,4.69-5.33,7.8-10.01,6.96-.62-.11-1.23-.29-1.81-.54-1.39-.4-2.74-.91-4.05-1.52-1.39-.64-2.8-1.41-4.2-2.18-3.19-1.91-6.53-3.55-10-4.88-3.35-1.4-7.1-1.51-10.53-.31-1.72.58-3.3,1.52-4.62,2.77-1.26,1.25-2.37,2.66-3.29,4.18-1.82,3.26-3.36,6.68-4.59,10.21-1.03,2.84-2.37,5.55-4,8.09-1.58,2.24-3.47,4-6,4.46-5,.87-9.55-3.12-14-7.83-2.5-2.76-5.22-5.32-8.14-7.63-2.8-2.34-6.36-3.55-10-3.4-3.85.07-6.9,1.9-9.62,4.31-2.71,2.57-5.18,5.37-7.39,8.38-1.8,2.43-3.88,4.63-6.19,6.58-3.34,3.38-8.78,3.41-12.16.08-.44-.44-.84-.92-1.18-1.45-1.88-2.37-3.47-4.95-4.73-7.69-1.27-2.5-2.55-5.12-4-7.48-.73-1.16-1.54-2.27-2.41-3.33-.84-1.05-1.8-1.99-2.87-2.8l-1.38,6.1c1.11,1.38,2.07,2.88,2.86,4.46.83,1.74,1.74,3.46,2.64,5.3Z"/><path class="cls-1" d="M36.65,309.17c-1.74,3.33-3,6.89-3.74,10.58-.31,1.81-.34,3.66-.08,5.48.36,1.91,1.09,3.74,2.15,5.37,1.03,1.65,2.39,3.08,4,4.17,1.54.99,3.23,1.74,5,2.21,1.79.47,3.63.77,5.48.89,1.86.15,3.82.11,5.71.09,3.11-.15,6.22-.08,9.32.21,2.77.37,5.19,1.16,6.84,3.09.81.95,1.39,2.07,1.7,3.27.36,1.27.53,2.58.51,3.89-.12,3.13-.45,6.24-1,9.32-.65,3.68-.81,7.44-.48,11.16.11.91.29,1.82.54,2.7.25.87.58,1.72,1,2.52.9,1.73,2.12,3.27,3.6,4.54,1.46,1.3,3.2,2.24,5.08,2.77,1.75.51,3.58.74,5.4.68.92-.02,1.83-.1,2.74-.23.92-.13,1.86-.33,2.78-.55,1.85-.45,3.68-1,5.48-1.59,1.59-.51,3.14-1,4.63-1.46.75-.22,1.48-.42,2.2-.59s1.44-.35,2.14-.48c2.79-.5,5.29-.4,7.42,1,2.13,1.45,3.64,3.65,4.23,6.16.76,3.03,1.35,6.1,1.76,9.19.47,3.74,1.42,7.41,2.84,10.9,3.11,7.31,11.44,10.84,18.86,8,3.5-1.41,6.8-3.27,9.82-5.53,1.36-.95,2.69-1.89,4-2.75,1.23-.86,2.51-1.65,3.84-2.35,2.51-1.3,4.92-1.91,7.37-1.23,1.84.46,3.48,1.52,4.66,3l1.38-6.07c-1.39-1.05-3-1.79-4.7-2.18-3.71-1.05-7.13-.26-10.45,1.3-3.34,1.65-6.53,3.6-9.53,5.82-2.44,1.79-5.07,3.29-7.86,4.46-2.57,1-5.1,1.3-7.45.34-2.3-1.17-4.06-3.17-4.93-5.6-.56-1.33-1-2.71-1.34-4.11-.35-1.5-.63-3.07-.9-4.65-.5-3.69-1.32-7.34-2.43-10.9-1-3.49-3.25-6.49-6.32-8.43-1.51-.98-3.22-1.62-5-1.88-1.77-.22-3.55-.22-5.32,0-3.69.6-7.32,1.53-10.85,2.78-2.86.95-5.81,1.6-8.81,1.92-2.75.18-5.31-.2-7.2-1.9-1.86-1.77-2.97-4.19-3.1-6.75-.18-3.03-.02-6.07.46-9.07.58-3.69.88-7.41.9-11.14-.03-1.78-.33-3.54-.89-5.23-.29-.83-.66-1.63-1.09-2.4-.44-.82-.97-1.59-1.58-2.29-1.2-1.38-2.67-2.48-4.33-3.24-1.59-.75-3.27-1.28-5-1.58-3.55-.63-7.57-.45-11.19-.52-6.32-.06-12.63-.33-15.32-4.68-.66-1.05-1.08-2.23-1.22-3.46-.15-1.3-.07-2.62.23-3.9.74-2.93,1.77-5.79,3.09-8.51l1.71-3.85c.59-1.32,1.15-2.64,1.63-4,1.01-2.52,1.5-5.21,1.46-7.92l-5.64,2.72c-.7,3.27-2.43,6.76-4.21,10.49Z"/><path class="cls-1" d="M30.09,133.64c-3.7.7-7.28,1.94-10.62,3.67-1.6.89-3.06,2.02-4.31,3.35-1.28,1.45-2.26,3.16-2.86,5-.65,1.84-.92,3.79-.79,5.73.19,1.83.67,3.61,1.41,5.29,1.6,3.4,3.69,6.56,6.2,9.36,4.29,5.2,8.31,9.69,7.51,14.69-1,5-6.27,7.8-12.12,11.2-3.3,1.77-6.33,4.01-9,6.64-1.28,1.32-2.34,2.83-3.15,4.48-.8,1.78-1.22,3.69-1.25,5.64-.06,1.94.26,3.88.93,5.7.72,1.69,1.71,3.26,2.92,4.64,2.54,2.76,5.45,5.16,8.65,7.12,2.64,1.64,5.17,3.46,7.55,5.46.99.88,1.85,1.89,2.56,3,.7,1.03,1.15,2.21,1.31,3.45.35,2.51-.7,4.84-2.26,7.15-1.82,2.51-3.83,4.88-6,7.1-1.28,1.39-2.6,2.83-3.75,4.32-1.15,1.46-2.15,3.03-3,4.68-1.84,3.36-2.28,7.31-1.24,11,.52,1.88,1.4,3.63,2.59,5.18,1.17,1.42,2.57,2.63,4.14,3.58,3.24,1.89,6.74,3.32,10.38,4.25,3.03.76,5.99,1.74,8.88,2.93,1.21.52,2.35,1.2,3.39,2.02.97.78,1.75,1.77,2.27,2.9.74,1.77.9,3.73.44,5.59l5.6-2.7c-.02-1.76-.41-3.49-1.12-5.09-.39-.85-.86-1.65-1.42-2.39-.54-.71-1.12-1.37-1.75-2-1.3-1.21-2.77-2.23-4.37-3-1.68-.82-3.42-1.51-5.2-2.08-1.76-.62-3.57-1.17-5.32-1.73-2.92-.82-5.75-1.94-8.44-3.34-2.29-1.18-4.02-3.21-4.83-5.65-.33-1.19-.38-2.44-.16-3.66.27-1.29.75-2.53,1.42-3.67,1.56-2.58,3.38-5,5.44-7.21l3.72-4.23c1.22-1.41,2.34-2.9,3.35-4.47.95-1.49,1.68-3.11,2.17-4.81.55-1.74.71-3.57.47-5.38-.54-3.58-2.31-6.86-5-9.27-1.37-1.28-2.82-2.46-4.36-3.53-1.49-1.12-3.06-2.17-4.57-3.22-2.54-1.65-4.91-3.56-7.07-5.69-1.86-1.78-2.92-4.23-2.95-6.8,0-5.11,5.28-8.62,10.67-11.94,1.58-1,3.14-1.94,4.76-3,1.59-.98,3.11-2.08,4.54-3.29,1.36-1.15,2.53-2.5,3.48-4,.99-1.52,1.67-3.22,2-5,.31-1.79.25-3.62-.18-5.39-.38-1.73-1.03-3.39-1.91-4.93-1.96-3.18-4.15-6.21-6.56-9.07-1.95-2.29-3.67-4.78-5.12-7.42-.29-.61-.55-1.24-.77-1.88-.19-.6-.32-1.22-.4-1.85-.16-1.23-.04-2.48.35-3.66,1.56-4.86,7.59-6.67,13.73-8.24l4.09-1.06c1.39-.35,2.78-.74,4.11-1.19,2.6-.78,5.01-2.07,7.11-3.79l-5.64-2.72c-2.8,1.49-6.58,2.3-10.65,3.23Z"/><path class="cls-1" d="M163.23,19.07c-2.89-2.42-6.08-4.45-9.49-6.05-7.26-3.22-15.77-.13-19.28,7-1.73,3.22-2.62,7.07-3.43,10.73-.35,1.63-.68,3.22-1.05,4.73-.33,1.46-.74,2.9-1.22,4.32-1,2.66-2.3,4.76-4.56,5.92s-4.7,1.25-7.45.6c-1.46-.39-2.89-.87-4.29-1.42-1.47-.52-3-1.11-4.54-1.7-3.47-1.48-7.12-2.49-10.86-3-7.9-.94-15.13,4.55-16.35,12.41-.53,3.74-.58,7.54-.13,11.29.14,1.66.28,3.29.41,4.86.13,1.49.17,2.99.11,4.49-.05,1.31-.29,2.61-.7,3.86-.21.58-.48,1.14-.8,1.66-.31.54-.68,1.04-1.11,1.49-1.75,1.84-4.16,2.54-7,2.72-3.1.12-6.21.02-9.3-.29-1.89-.13-3.81-.24-5.72-.23-1.86,0-3.71.2-5.52.59-1.78.35-3.5.97-5.09,1.85-.81.48-1.58,1.03-2.28,1.66-.74.69-1.41,1.45-2,2.27-1.14,1.59-1.96,3.39-2.42,5.3-.4,1.79-.48,3.64-.24,5.46.55,3.72,1.61,7.34,3.14,10.77,1.29,2.85,2.38,5.78,3.25,8.78.33,1.27.48,2.59.45,3.9,0,1.24-.29,2.47-.85,3.58-.92,1.68-2.36,3.02-4.1,3.82l5.6,2.7c1.37-1.11,2.48-2.49,3.28-4.05,1.56-3.26,1.94-6.96,1.07-10.47-.41-1.82-.95-3.62-1.6-5.37-.61-1.76-1.31-3.52-2-5.24-1.18-2.8-2.07-5.71-2.65-8.69-.49-2.52.01-5.14,1.41-7.29.72-1.01,1.66-1.83,2.76-2.41,1.19-.57,2.46-.96,3.76-1.17,2.98-.4,6-.48,9-.26,3.73.35,7.48.39,11.22.1,3.53-.49,7-1.5,9.61-4.31,1.25-1.31,2.25-2.84,2.95-4.51.64-1.67,1.02-3.42,1.15-5.2.14-1.85.17-3.7.09-5.55-.08-1.88-.24-3.77-.37-5.62-.54-6.44-.51-12.49,3.48-15.66,2-1.54,4.59-1.8,7.31-1.48,2.98.46,5.9,1.27,8.7,2.41,3.45,1.42,7.02,2.54,10.66,3.34,3.59.68,7.12.63,10.46-1.29,3.43-1.74,5.38-4.69,6.78-8.06,1.31-3.49,2.31-7.09,3-10.76.57-2.96,1.48-5.85,2.72-8.6,1.23-2.46,2.84-4.47,5.24-5.32,2.48-.71,5.13-.45,7.42.73,1.32.6,2.58,1.31,3.78,2.12,1.27.87,2.55,1.82,3.82,2.8,2.23,1.7,4.51,3.5,6.86,5,2.25,1.53,4.76,2.64,7.41,3.27l-1.38-6.1c-1.6-.76-3.11-1.68-4.51-2.76-.77-.56-1.54-1.17-2.33-1.8l-2.28-1.87Z"/><path class="cls-1" d="M335.81,51.75c.09-3.76-.32-7.51-1.2-11.17-.99-3.68-3.33-6.85-6.55-8.89-3.27-1.96-7.16-2.62-10.9-1.86-3.59.63-7.16,2.35-10.53,4-6,2.85-11.38,6.1-16,4-2.35-1-3.9-2.89-5.1-5.45-.63-1.37-1.17-2.77-1.62-4.21-.51-1.47-1-3-1.5-4.6-1.02-3.63-2.51-7.12-4.44-10.36-4.16-6.75-12.9-9.02-19.81-5.14-3.25,1.94-6.23,4.29-8.88,7-1.2,1.14-2.37,2.26-3.53,3.3-1.08,1.04-2.23,2.01-3.44,2.91-2.29,1.66-4.58,2.63-7.1,2.31s-4.59-1.69-6.5-3.69c-1-1.12-1.94-2.3-2.79-3.54-.92-1.25-1.84-2.58-2.79-3.94-2.05-3.17-4.5-6.06-7.29-8.6-2.91-2.44-6.62-3.74-10.42-3.63-3.79.25-7.35,1.89-10,4.61-1.33,1.31-2.51,2.77-3.51,4.35-1.06,1.58-2,3.24-2.95,4.88-3.31,5.72-6,11.42-11,12.29-1.87.32-3.8.06-5.52-.74l1.38,6.06c1.71.32,3.48.32,5.19,0,1.79-.3,3.5-.98,5-2,1.44-1.08,2.74-2.33,3.87-3.74,2.3-2.95,4.33-6.09,6.07-9.4.81-1.42,1.62-2.76,2.47-4,.82-1.22,1.74-2.36,2.74-3.43,1.89-2,4-3.43,6.56-3.54,2.58.05,5.03,1.09,6.87,2.9,1.08.96,2.09,2,3,3.12,1,1.19,1.9,2.49,2.83,3.8,2.05,3.11,4.37,6.04,6.94,8.74,2.58,2.61,5.52,4.54,9.36,4.82,3.82.49,7.09-.8,10.15-2.85,3.03-2.13,5.87-4.53,8.48-7.16,1.18-1.08,2.36-2.19,3.54-3.14,1.12-.91,2.31-1.73,3.56-2.45,2.16-1.41,4.78-1.94,7.32-1.46,2.45.81,4.5,2.53,5.72,4.8,1.5,2.63,2.68,5.42,3.53,8.32,1.03,3.58,2.37,7.06,4,10.41,1.69,3.26,3.94,6,7.51,7.38,3.5,1.61,7,1.29,10.52.3,3.56-1.14,7.01-2.6,10.31-4.35l2.17-1c.71-.32,1.42-.61,2.12-.89,1.34-.54,2.73-.98,4.14-1.3,2.68-.57,5.27-.58,7.41.79,4.29,2.76,4.87,8.8,4.95,15.26.06,2.79.08,5.7.4,8.45.17,2.72.87,5.39,2.06,7.84l3.9-4.88c-.81-3.15-.65-7.15-.7-11.23Z"/><path class="cls-1" d="M417.83,207.04c1.47-1.19,3-2.41,4.35-3.71,1.34-1.28,2.56-2.68,3.64-4.19,2.31-3.04,3.34-6.87,2.86-10.66-.23-1.93-.84-3.8-1.78-5.5-.94-1.58-2.14-2.99-3.55-4.17-2.93-2.34-6.16-4.28-9.61-5.76-2.88-1.21-5.68-2.63-8.36-4.23-1.12-.7-2.13-1.57-3-2.56-.85-.91-1.47-2.01-1.82-3.2-.71-2.44,0-4.9,1.16-7.42,1.45-2.75,3.09-5.4,4.91-7.92,1.05-1.56,2.16-3.19,3.05-4.83.91-1.62,1.66-3.31,2.24-5.07.58-1.75.88-3.57.89-5.41-.03-1.95-.48-3.87-1.32-5.63-.79-1.78-1.91-3.39-3.32-4.74-1.38-1.21-2.95-2.2-4.64-2.92-3.49-1.39-7.16-2.28-10.9-2.64-6.69-.89-12.7-1.43-15.51-5.65-.66-1.06-1.07-2.25-1.19-3.49-.14-1.3-.11-2.62.09-3.92.58-3.05,1.38-6.06,2.39-9,1.2-3.55,1.91-7.25,2.1-11,.07-1.83-.19-3.66-.74-5.41-.64-1.84-1.63-3.54-2.92-5-2.51-2.89-6.04-4.68-9.85-5-1.84-.21-3.7-.23-5.55-.06-1.9.17-3.8.46-5.67.76-3.05.61-6.13.99-9.23,1.16-2.84.09-5.31-.37-7.23-2-1.41-1.28-2.4-2.95-2.85-4.79l-3.85,4.82c.84,1.51,1.95,2.87,3.26,4,2.89,2.54,6.41,3.23,10,3.38,3.75-.07,7.48-.46,11.16-1.15,2.97-.51,5.99-.71,9-.6,1.32.08,2.61.36,3.85.81,1.15.48,2.18,1.21,3,2.14,1.6,2.01,2.34,4.57,2.09,7.12-.3,3.02-.91,6.01-1.81,8.91-.5,1.77-1,3.58-1.47,5.4-.49,1.8-.85,3.64-1.09,5.49-.22,1.76-.18,3.54.13,5.29.32,1.77.98,3.47,1.93,5,.99,1.53,2.29,2.83,3.81,3.84,1.43,1.02,3.01,1.82,4.68,2.37,1.78.56,3.61.99,5.45,1.29,1.88.32,3.71.61,5.53.89,3.01.38,5.97,1.07,8.83,2.06,2.45.79,4.48,2.53,5.63,4.84,2.18,4.62-1.05,10.07-4.44,15.39l-3,4.74c-1,1.58-1.88,3.22-2.64,4.92-.71,1.62-1.2,3.33-1.43,5.08-.27,1.8-.16,3.64.34,5.39,1.08,3.45,3.32,6.43,6.34,8.41,1.54,1.05,3.15,2,4.82,2.84,1.65.88,3.35,1.69,5,2.5,2.76,1.26,5.39,2.79,7.85,4.58,2.08,1.5,3.49,3.77,3.91,6.3.15,1.23.02,2.48-.38,3.65-.48,1.23-1.16,2.38-2,3.41-1.93,2.32-4.1,4.44-6.47,6.32-2.07,1.78-4.41,3.61-6.42,5.58-2,1.83-3.61,4.04-4.74,6.51h6.25c1.92-2.6,5.03-4.97,8.24-7.56Z"/></g><g id="backbone_red-2"><path class="cls-2" d="M348.79,381.58c1.91-.56,3.68-1.54,5.18-2.85l-3.47-4.12c-1.57,1.33-3.55,2.07-5.6,2.11l3.89,4.86Z"/><path class="cls-2" d="M421.09,261.72c-1.37,1.04-2.83,1.96-4.37,2.74.33.75.58,1.54.74,2.35.23,1.33.15,2.7-.22,4l5.19,1.44c1.02-3.6.66-7.45-1-10.81l-.34.28Z"/><path class="cls-2" d="M403.34,246.96c2.1,3.01,4.44,5.85,7,8.48,1.21,1.37,2.39,2.75,3.44,4.15,1.24-.61,2.44-1.31,3.58-2.1.43-.31.84-.64,1.23-1-.19-.25-.38-.51-.58-.76-1.21-1.53-2.52-3-3.78-4.33-2.1-2.12-4.04-4.38-5.82-6.77-1.56-2.2-2.54-4.37-2.23-6.68h0l-5.35-.65c-.22,1.7-.07,3.44.43,5.08.48,1.62,1.18,3.16,2.08,4.58Z"/><path class="cls-2" d="M389.62,311.03c.75,1.66,1.48,3.34,2.08,5,1.35-.22,2.69-.54,4-.95.51-.16,1-.35,1.46-.55-.1-.3-.2-.6-.31-.9-.66-1.79-1.52-3.57-2.32-5.25-1.38-2.65-2.58-5.39-3.58-8.2-.77-2.54-1.11-4.93-.13-7l-4.91-2.2c-.71,1.57-1.08,3.28-1.08,5-.05,1.67.16,3.34.62,4.95.89,3.26,2.71,6.72,4.17,10.1Z"/><path class="cls-2" d="M398.04,320.23c-1.62.59-3.3,1.04-5,1.33.28,2.15-.21,4.33-1.37,6.16l4.53,2.92c1.13-1.73,1.89-3.66,2.26-5.69.21-1.63.21-3.28,0-4.91l-.42.19Z"/><path class="cls-2" d="M353.4,358.01c.23,1.83.45,3.66.54,5.42,1.36.18,2.74.27,4.11.25.53,0,1-.06,1.55-.12-.1-2.21-.32-4.41-.67-6.59-.54-2.95-.87-5.94-1-8.94-.03-1.24.11-2.49.43-3.69.26-1.13.79-2.17,1.54-3.05l-4.05-3.56c-2.19,2.63-3.38,5.95-3.36,9.37-.03,1.8.06,3.6.27,5.39.14,1.81.4,3.67.64,5.52Z"/><path class="cls-2" d="M358.77,369.31c-.91.06-1.83.06-2.74,0-.81-.05-1.61-.14-2.42-.24-.4,2.13-1.49,4.07-3.11,5.51l3.47,4.12c2.85-2.42,4.73-5.78,5.3-9.47l-.5.08Z"/><path class="cls-2" d="M417.24,226.9c2.45-1.52,4.75-3.26,6.88-5.21,2.17-1.95,3.91-4.33,5.09-7h-6.26c-2,2.78-5.25,5.13-8.59,7.42-1.55,1.06-3.06,2.11-4.58,3.18-1.48,1.02-2.89,2.15-4.21,3.38-2.55,2.27-4.23,5.37-4.74,8.75l5.35.65c.15-1.15.58-2.24,1.25-3.18.7-1.03,1.53-1.97,2.47-2.78,2.33-1.9,4.78-3.64,7.34-5.21Z"/><path class="cls-2" d="M355.81,337.73c1.12-1.3,2.51-2.34,4.07-3.06,1.52-.71,3.13-1.2,4.79-1.48,3.38-.59,7.25-.41,11-.43,3.14.08,6.28-.17,9.37-.76,1.36-.28,2.66-.79,3.86-1.49,1.13-.71,2.1-1.66,2.82-2.79l4.53,2.92c-1.09,1.76-2.54,3.26-4.26,4.4-1.63,1.04-3.42,1.83-5.29,2.32-1.85.5-3.75.8-5.67.92-1.95.11-3.88.1-5.75.06-2.98-.15-5.96-.1-8.93.16-2.68.3-4.94,1-6.46,2.79l-4.08-3.56Z"/><path class="cls-2" d="M385.93,290.9c.73-1.56,1.74-2.96,3-4.13,1.23-1.14,2.62-2.09,4.13-2.82,1.62-.78,3.29-1.45,5-2,1.77-.57,3.52-1.13,5.31-1.68,3.04-.84,5.98-2.01,8.77-3.48,2.44-1.26,4.27-3.45,5.09-6.07l5.19,1.44c-.55,1.99-1.48,3.85-2.74,5.48-1.25,1.48-2.73,2.76-4.39,3.77-1.63,1.02-3.36,1.87-5.16,2.55-.9.35-1.79.67-2.7,1s-1.84.56-2.74.81c-6.26,1.77-11.87,3.16-13.86,7.35l-4.9-2.22Z"/><path class="cls-2" d="M168.09,422.9c1.64,1.13,3.5,1.92,5.46,2.3l1.05-5.29c-2-.43-3.81-1.51-5.13-3.08l-1.38,6.07Z"/><path class="cls-2" d="M187.86,418.9c.35.41.7.78,1.06,1.13,1.7-1.48,3.27-3.08,4.74-4.64l3.21-3.43c.98-1.06,2.02-2.06,3.12-3,2.08-1.72,4.16-2.72,6.49-2.62l.25-5.38c-3.43-.15-6.79,1-9.42,3.21-1.4,1.1-2.73,2.27-4,3.52-1.31,1.28-2.6,2.65-3.9,4s-2.58,2.67-3.89,3.83c.69,1.19,1.47,2.32,2.34,3.38Z"/><path class="cls-2" d="M183.91,423.04c-1.14-1.31-2.17-2.72-3.05-4.21-1.92,1-4.12,1.35-6.26,1l-1.05,5.29c2.03.37,4.12.35,6.14-.07,1.6-.33,3.14-.91,4.57-1.7l-.35-.31Z"/><path class="cls-2" d="M306.91,404.68c-1.68-.44-3.32-1.04-4.9-1.77-1.01,1.92-2.62,3.47-4.58,4.4l2.11,5c3.4-1.52,6.17-4.17,7.84-7.5-.16-.07-.32-.09-.47-.13Z"/><path class="cls-2" d="M307.86,399.06c.51.14,1,.24,1.5.33.55-2.15.98-4.32,1.31-6.51.24-1.58.48-3.14.71-4.64.22-1.42.52-2.82.91-4.2.51-2.36,1.89-4.45,3.87-5.84h0l-2.83-4.58c-2.92,1.83-5.06,4.68-6,8-1.05,3.5-1.83,7.07-2.31,10.69-.29,1.86-.62,3.66-1.06,5.36,1.26.56,2.57,1.03,3.9,1.39Z"/><path class="cls-2" d="M250.69,418.81c1.15-1.9,2.21-3.85,3.17-5.85.71-1.42,1.41-2.83,2.07-4.17.63-1.3,1.33-2.56,2.11-3.77,1.49-2.25,3.17-3.88,5.44-4.4l-1.32-5.22c-3.55.81-6,3-8.06,5.84-2.07,3-3.86,6.18-5.37,9.5-.75,1.49-1.51,3-2.31,4.34l-.29.46c1.37,1.28,2.91,2.38,4.56,3.27Z"/><path class="cls-2" d="M246.77,423.11c-1.47-.92-2.86-1.96-4.15-3.13-1.53,1.54-3.52,2.55-5.67,2.86l.54,5.36c3.7-.46,7.13-2.17,9.72-4.85l-.44-.24Z"/><path class="cls-2" d="M331.74,379.9c2.74.95,5.55,1.68,8.41,2.19,2.87.46,5.81.29,8.61-.5l-3.9-4.89c-3.42.17-7.2-.79-11.11-2-3.44-1.24-6.99-2.18-10.59-2.8-1.66-.21-3.34-.21-5,0-1.7.25-3.33.85-4.77,1.78l2.77,4.52c3.9-2.52,9.51-.23,15.58,1.7Z"/><path class="cls-2" d="M206.73,401.02c3.65.08,6.51,1.73,9.09,4.1,2.63,2.53,5.04,5.28,7.18,8.23,1,1.3,2.07,2.6,3.14,3.79,1.01,1.11,2.11,2.14,3.29,3.08,2.08,1.8,4.77,2.73,7.52,2.62l.54,5.36c-4.01.3-7.99-.86-11.2-3.28-2.99-2.43-5.64-5.24-7.89-8.36-1-1.27-1.93-2.5-2.87-3.67-.87-1.14-1.82-2.23-2.83-3.26-1.91-1.91-3.89-3.17-6.22-3.23l.25-5.38Z"/><path class="cls-2" d="M262.16,395.4c3.51-1,6.71-.28,9.87,1.23,3.25,1.65,6.36,3.57,9.29,5.75,1.37.94,2.75,1.87,4.12,2.69,1.29.78,2.65,1.45,4.06,2,2.52,1.11,5.36,1.2,7.95.27l2.11,5c-3.74,1.49-7.89,1.56-11.68.2-3.57-1.44-6.93-3.34-10-5.66-2.4-1.8-4.9-3.47-7.49-5-2.38-1.26-4.64-1.87-6.88-1.24l-1.35-5.24Z"/><path class="cls-2" d="M23.1,307.31c.2,1.98.78,3.9,1.69,5.67l4.79-2.47c-.91-1.83-1.21-3.89-.87-5.9l-5.61,2.7Z"/><path class="cls-2" d="M128.91,401.73c.2.47.42.94.67,1.39,2.07-.91,4-2,5.91-3,2.56-1.56,5.21-2.97,7.93-4.23,2.5-1,4.78-1.37,7-.59h0l1.83-5.07c-3.24-1.14-6.78-1.04-9.95.29-3.39,1.34-6.67,2.97-9.79,4.85-1.46.81-2.91,1.59-4.36,2.28l-.5.23c.32,1.31.74,2.6,1.26,3.85Z"/><path class="cls-2" d="M123.92,404.48c-.7-1.59-1.26-3.25-1.67-4.94-2.13.42-4.34.13-6.29-.83l-2.57,4.74c3.32,1.71,7.12,2.22,10.77,1.45-.09-.13-.17-.27-.24-.42Z"/><path class="cls-2" d="M77.55,363.69c-.12,1.38-.12,2.76,0,4.14.05.51.13,1.01.24,1.51l1-.12c1.92-.27,3.8-.67,5.61-1.07,6.21-1.31,12-3.08,15.66-.19l3.24-4.3c-2.85-2.27-6.14-2.78-9.59-2.66-3.65.27-7.26.86-10.81,1.76-1.65.36-3.25.67-4.8.87l-.55.06Z"/><path class="cls-2" d="M72.06,368.9c-.21-1.72-.27-3.45-.17-5.18-.81-.1-1.61-.28-2.39-.55-.63-.21-1.23-.49-1.8-.83-.56-.36-1.07-.78-1.54-1.25l-3.86,3.81c1.42,1.5,3.17,2.67,5.1,3.41,1.53.59,3.13.96,4.76,1.12,0-.17-.08-.33-.1-.53Z"/><path class="cls-2" d="M39.72,316.34c-.5,1.3-.9,2.64-1.2,4-.11.51-.19,1.02-.24,1.54l.94.17c1.93.3,3.86.46,5.71.6,2.98.13,5.94.46,8.87,1,2.66.54,4.83,1.49,6.18,3.39l4.36-3.14c-.99-1.4-2.27-2.58-3.76-3.44-1.45-.84-3-1.48-4.62-1.91-3.31-.91-7.16-1.11-10.89-1.47-1.83-.18-3.63-.43-5.35-.74Z"/><path class="cls-2" d="M32.91,319.75c.3-1.7.74-3.38,1.34-5-.74-.32-1.44-.72-2.09-1.2-1.06-.8-1.92-1.83-2.54-3l-4.79,2.47c1.7,3.33,4.57,5.92,8.06,7.26l.02-.53Z"/><path class="cls-2" d="M158.8,408.47c.96,2.73,2.14,5.38,3.53,7.92,1.41,2.56,3.38,4.75,5.77,6.43l1.38-6.1c-1.19-1.36-2.19-2.87-3-4.49-.44-.84-.85-1.72-1.24-2.62s-.77-1.88-1.14-2.84c-1.18-3.46-2.67-6.8-4.44-10-1.78-3-4-5.44-7.46-6.58l-1.83,5.07c2.21.74,3.72,2.54,5,4.92.63,1.19,1.18,2.56,1.74,3.94s1.12,2.85,1.69,4.35Z"/><path class="cls-2" d="M64.34,323.9c.51.72.94,1.48,1.29,2.29.34.76.61,1.55.82,2.35.37,1.64.49,3.32.36,5-.15,1.79-.41,3.57-.78,5.33-.35,1.79-.78,3.61-1.2,5.44-.8,3.05-1.26,6.19-1.38,9.34-.09,2.74.87,5.41,2.7,7.46l-3.85,3.79c-2.81-2.9-4.4-6.76-4.43-10.8,0-3.83.52-7.65,1.55-11.34.83-2.89,1.46-5.83,1.89-8.8.15-1.23.12-2.48-.08-3.71-.17-1.14-.6-2.23-1.25-3.18l4.36-3.17Z"/><path class="cls-2" d="M103.3,363.66c2.73,2.09,4.58,5.12,5.19,8.5.73,3.58,1.15,7.2,1.28,10.85.12,1.67.25,3.31.46,4.9.2,1.5.54,2.97,1,4.41.7,2.66,2.4,4.95,4.74,6.39l-2.57,4.74c-3.49-1.99-6.13-5.19-7.42-9-1.1-3.69-1.72-7.52-1.82-11.37-.1-3-.36-5.98-.79-8.95-.29-2.4-1.47-4.6-3.31-6.17l3.24-4.3Z"/><path class="cls-2" d="M23.1,121.9c-1.42,1.39-2.57,3.04-3.38,4.85l4.91,2.15c.86-1.85,2.29-3.37,4.08-4.35l-5.61-2.65Z"/><path class="cls-2" d="M20.66,267.6c2.81,1,5.56,2.19,8.21,3.57.56.32,1.1.67,1.61,1.05.5.34.98.73,1.41,1.16.84.79,1.48,1.77,1.86,2.86h0l5.1-1.73c-.56-1.63-1.44-3.12-2.6-4.39-1.11-1.26-2.4-2.33-3.83-3.2-2.91-1.84-6.56-3.16-9.95-4.63-1.69-.71-3.36-1.44-4.93-2.24-.85,1.08-1.61,2.23-2.29,3.43-.26.47-.48.93-.69,1.4,1.98,1.03,4.01,1.94,6.1,2.72Z"/><path class="cls-2" d="M9.83,261.73l.21-.45c.78-1.54,1.69-3.01,2.74-4.38-1.67-1.38-2.8-3.31-3.18-5.45l-5.31.94c.34,2.04,1.09,3.98,2.21,5.72.95,1.35,2.07,2.56,3.33,3.62Z"/><path class="cls-2" d="M9.36,204.03c1.44,1.33,2.94,2.56,4.4,3.72,2.39,1.79,4.66,3.73,6.78,5.83,1.8,1.95,3.14,4,3.18,6.29l5.38-.15c-.03-1.73-.44-3.44-1.2-5-.69-1.53-1.6-2.94-2.71-4.2-2.22-2.62-5.32-5-8.17-7.35-1.4-1.18-2.78-2.37-4-3.59-1.58,1.07-3.02,2.33-4.28,3.76l.62.69Z"/><path class="cls-2" d="M5.45,198.6c1.21-1.23,2.51-2.35,3.91-3.36-.44-.7-.8-1.44-1.08-2.21-.42-1.27-.55-2.62-.38-3.95l-5.35-.65c-.47,3.72.46,7.47,2.61,10.54l.29-.37Z"/><path class="cls-2" d="M21.61,143.66c1,1.69,2,3.31,3.09,4.85,1.76,2.41,3.34,4.94,4.75,7.57,1.19,2.4,1.84,4.7,1.2,6.94l5.19,1.44c.47-1.65.57-3.38.32-5.08-.22-1.66-.68-3.28-1.37-4.81-1.35-3.15-3.62-6.3-5.63-9.43-1-1.54-2-3.09-2.79-4.63-1.82.56-3.57,1.34-5.2,2.33l.44.82Z"/><path class="cls-2" d="M19.47,137.31c1.5-.83,3.07-1.52,4.69-2.06-.22-.79-.34-1.61-.36-2.43-.03-1.34.24-2.66.79-3.88l-4.91-2.21c-.43.97-.76,1.97-1,3-.24.98-.35,1.99-.34,3,.01,1.64.25,3.27.7,4.85l.43-.27Z"/><path class="cls-2" d="M28.6,291.06c-.72,1.2-1.48,2.46-2.16,3.74-.68,1.3-1.27,2.63-1.79,4-1.09,2.7-1.6,5.59-1.49,8.5l5.64-2.72c.6-3.38,2.49-6.9,4.5-10.42,1.81-3.22,3.88-6.48,5.09-9.72.62-1.56.98-3.2,1.09-4.87.15-1.71-.05-3.43-.6-5.06l-5.1,1.73c1.38,4.42-1.83,9.27-5.18,14.82Z"/><path class="cls-2" d="M35.84,164.46c-1.01,3.26-3.13,6.07-6,7.93-1.49,1.02-3.05,1.93-4.68,2.71-1.63.84-3.3,1.65-5,2.46-2.88,1.29-5.61,2.89-8.15,4.76-2.22,1.62-3.7,4.05-4.12,6.76l-5.35-.65c.25-2.05.89-4.02,1.9-5.82,1.01-1.66,2.28-3.14,3.76-4.39,1.47-1.25,3.06-2.36,4.74-3.32.83-.48,1.68-.93,2.52-1.36s1.73-.82,2.58-1.21c2.76-1.15,5.43-2.49,8-4,1.06-.66,2.02-1.46,2.86-2.38.8-.83,1.39-1.84,1.71-2.95l5.23,1.46Z"/><path class="cls-2" d="M29.1,219.72c.03,1.71-.28,3.41-.92,5-.6,1.57-1.44,3.03-2.49,4.34-2.09,2.73-5.08,5.23-7.74,7.78-4.78,4.47-9.43,9.13-8.35,14.6l-5.31.94c-.39-2.03-.35-4.11.12-6.12.49-1.88,1.27-3.67,2.31-5.3,1.03-1.62,2.22-3.13,3.54-4.53,1.29-1.4,2.78-2.71,4.16-4,4.84-4.3,9.33-8,9.3-12.63l5.38-.08Z"/><path class="cls-2" d="M168.09,6.34c-1.98-.28-3.99-.18-5.93.27l1.34,5.22c2.01-.44,4.11-.24,6,.58l-1.41-6.07Z"/><path class="cls-2" d="M50.96,83c1.68-.36,3.4-.56,5.12-.58.09-2.16.89-4.23,2.28-5.89l-4-3.56c-1.35,1.55-2.4,3.35-3.07,5.3-.49,1.57-.75,3.2-.76,4.85.11-.04.27-.09.43-.12Z"/><path class="cls-2" d="M59.43,98.73c-.48-1.8-1-3.56-1.49-5.37s-1-3.54-1.33-5.26c-1.38.02-2.75.13-4.11.35-.53.09-1,.21-1.52.34.41,2.18.97,4.34,1.66,6.45,1.93,6.2,3.84,11.67,1.41,15.63h0l4.53,2.91c.91-1.45,1.53-3.07,1.82-4.76.29-1.65.33-3.34.11-5-.23-1.79-.59-3.56-1.08-5.29Z"/><path class="cls-2" d="M96.95,45.96c-.51-.07-1.03-.1-1.54-.11-.22,2.2-.33,4.4-.33,6.61.1,3,0,6.01-.28,9-.19,2.42-1.25,4.68-3,6.36l3.51,4.08c5.58-4.63,5.21-12.2,5.4-19.69,0-1.66.08-3.31.2-4.9,0-.18,0-.36.06-.54-1.32-.37-2.66-.64-4.02-.81Z"/><path class="cls-2" d="M97.06,40.26c1.72.17,3.43.5,5.09,1,.72-2.04,2.08-3.8,3.88-5l-2.82-4.58c-1.75,1.11-3.26,2.54-4.46,4.22-.95,1.33-1.69,2.8-2.18,4.36h.49Z"/><path class="cls-2" d="M153.74,13.02c1.59.69,3.12,1.52,4.57,2.48,1.28-1.76,3.1-3.05,5.19-3.67l-1.34-5.22c-3.6,1.01-6.74,3.23-8.89,6.29l.47.12Z"/><path class="cls-2" d="M151.95,18.41c-.48-.21-1-.39-1.44-.55-.86,2.05-1.61,4.14-2.26,6.26-.83,2.88-1.81,5.71-2.94,8.48-1.13,2.45-2.56,4.3-4.71,5.18l2.1,4.95c3.17-1.35,5.7-3.85,7.09-7,1.58-3.29,2.89-6.7,3.89-10.21.52-1.59,1-3.16,1.63-4.65.07-.17.15-.32.23-.49-1.14-.75-2.34-1.41-3.59-1.97Z"/><path class="cls-2" d="M39.25,116.07c-1.4.18-2.84.38-4.28.64-1.42.25-2.82.58-4.2,1-2.81.84-5.4,2.27-7.61,4.19l5.64,2.72c3-1.63,7-2.35,11-3,3.64-.6,7.51-1,10.78-2.07,1.6-.5,3.11-1.23,4.49-2.18,1.44-.95,2.66-2.18,3.59-3.63l-4.61-2.84c-.63.96-1.49,1.76-2.49,2.33-1.1.6-2.27,1.07-3.48,1.4-2.91.68-5.86,1.16-8.83,1.44Z"/><path class="cls-2" d="M142.7,42.73c-3.31,1.52-6.6,1.26-9.94.26-3.47-1.14-6.84-2.57-10.06-4.3-2.77-1.48-5.72-2.61-8.77-3.37-2.81-.58-5.55-.55-7.9.93l-2.82-4.58c3.45-2.08,7.56-2.79,11.51-2,3.75.88,7.36,2.25,10.74,4.09,1.43.71,2.82,1.42,4.17,2.05,1.3.65,2.63,1.22,4,1.71,2.54.89,4.88,1.17,7,.21l2.07,5Z"/><path class="cls-2" d="M95.31,71.9c-1.29,1.13-2.81,1.97-4.46,2.45-.8.23-1.62.4-2.45.51-.83.13-1.68.2-2.52.22-3.67-.08-7.32-.47-10.92-1.18-3.08-.55-6.22-.76-9.35-.62-1.39.1-2.76.4-4.06.9-1.23.52-2.32,1.32-3.19,2.33l-4-3.56c.69-.8,1.46-1.54,2.3-2.19.78-.59,1.61-1.09,2.5-1.49,1.76-.8,3.63-1.31,5.55-1.53,3.76-.5,7.79.13,11.44.73,2.93.58,5.89.97,8.87,1.17,2.71.12,5-.29,6.79-1.82l3.5,4.08Z"/><path class="cls-2" d="M348.79,47.61c-1.02-1.71-2.35-3.21-3.92-4.44l-3.25,4.3c1.59,1.28,2.74,3.03,3.28,5l3.89-4.86Z"/><path class="cls-2" d="M215.84,3.78c1.32,1.14,2.53,2.39,3.64,3.73,1.73-1.3,3.84-2.01,6-2l.25-5.38c-3.72-.11-7.36,1.07-10.31,3.34l.42.31Z"/><path class="cls-2" d="M212.54,8.43c-.39-.35-.79-.69-1.21-1-1.42,1.7-2.76,3.47-4,5.3-1.64,2.51-3.42,4.92-5.32,7.24-1.8,2-3.71,3.36-6,3.54h0l.55,5.36c3.64-.27,6.4-2.05,8.84-4.57,2.49-2.67,4.74-5.54,6.73-8.6,1-1.36,1.93-2.7,2.93-4l.36-.42c-.89-1.02-1.85-1.97-2.88-2.85Z"/><path class="cls-2" d="M278.01,13.17c.93,1.47,1.73,3.02,2.39,4.63,2.05-.73,4.27-.76,6.34-.1l1.83-5.07c-1.95-.67-4.02-.96-6.08-.85-1.63.09-3.24.43-4.77,1l.29.39Z"/><path class="cls-2" d="M273.49,16.64c-.28-.44-.58-.86-.88-1.27-1.86,1.2-3.65,2.5-5.38,3.88-2.29,1.93-4.7,3.73-7.21,5.38-1.98,1.38-4.41,1.97-6.81,1.64l-1.05,5.28c3.37.64,6.86,0,9.79-1.77,1.55-.88,3.06-1.84,4.5-2.89,1.49-1.07,3-2.23,4.46-3.38s2.95-2.25,4.42-3.2c-.52-1.27-1.13-2.5-1.84-3.67Z"/><path class="cls-2" d="M328.82,41.06c-2.18.59-4.3,1.37-6.3,2.13l-4.36,1.71c-1.34.52-2.71.96-4.11,1.32-2.62.64-5,.69-7-.47l-2.57,4.73c3.16,1.82,6.44,1.91,9.88,1.21,3.56-.8,7.04-1.91,10.41-3.32,1.55-.57,3.13-1.17,4.64-1.6l.52-.14c-.13-1.9-.5-3.77-1.11-5.57Z"/><path class="cls-2" d="M334.46,40.11c.05.15.11.31.15.47.46,1.68.77,3.39.92,5.12,2.17-.13,4.32.5,6.09,1.77l3.25-4.3c-3.01-2.2-6.69-3.28-10.41-3.06Z"/><path class="cls-2" d="M182.69,15.28c-2.06-2.03-4.27-3.89-6.61-5.58-1.2-.84-2.47-1.56-3.81-2.15-1.34-.56-2.74-.96-4.17-1.18l1.38,6.11c1.65.71,3.2,1.63,4.62,2.73,1.51,1.15,3,2.55,4.51,3.94,2.57,2.59,5.36,4.96,8.33,7.07,2.9,2,6,3.16,9.58,2.7l-.55-5.36c-2.31.29-4.45-.66-6.62-2.25-2.33-1.89-4.55-3.9-6.66-6.03Z"/><path class="cls-2" d="M304.5,50.43c-3.25-1.65-5.11-4.37-6.4-7.62-1.27-3.42-2.24-6.95-2.89-10.54-.37-1.61-.73-3.27-1.19-4.76-.43-1.44-.98-2.85-1.63-4.21-1.29-2.56-3-4.66-5.65-5.6l1.83-5.07c3.76,1.44,6.86,4.22,8.7,7.8,1.64,3.48,2.81,7.16,3.48,10.95.34,1.56.67,3.09,1,4.55.29,1.41.67,2.81,1.13,4.17.89,2.54,2.12,4.54,4.2,5.6l-2.58,4.73Z"/><path class="cls-2" d="M252.16,31.55c-3.59-.61-6.16-2.73-8.37-5.39-2.23-2.91-4.2-6.01-5.88-9.26-1.46-2.78-3.26-5.38-5.36-7.72-2-2.07-4.27-3.57-7-3.69l.25-5.38c4.01.26,7.79,2,10.6,4.88,2.61,2.83,4.82,6,6.57,9.43,3.16,5.5,5.71,11,10.28,11.81l-1.09,5.32Z"/><path class="cls-2" d="M429.24,214.6c.68-1.87.99-3.85.93-5.83l-5.38.14c.02,2.04-.6,4.03-1.77,5.69h6.22Z"/><path class="cls-2" d="M374.32,87.74c.3-1.36.51-2.73.61-4.12v-1.54c-2.23-.04-4.47.04-6.69.22-2.97.29-5.95.4-8.93.34-2.71-.15-5-.77-6.59-2.46h0l-3.84,3.77c1.18,1.25,2.61,2.22,4.2,2.86.78.32,1.58.57,2.4.74.82.2,1.65.35,2.49.45,3.66.27,7.34.21,11-.16,1.8-.1,3.61-.15,5.35-.1Z"/><path class="cls-2" d="M380.54,83.35c-.04,1.73-.24,3.45-.59,5.14.79.22,1.56.51,2.3.88,1.19.62,2.22,1.52,3,2.62l4.36-3.15c-.61-.87-1.31-1.68-2.08-2.41-.75-.66-1.56-1.24-2.43-1.74-1.43-.8-2.97-1.41-4.57-1.79.01.15.02.3.01.45Z"/><path class="cls-2" d="M411.95,137.82c-.54,1.63-1.23,3.21-2.05,4.72,1.87,1.12,3.29,2.86,4,4.92l5.11-1.73c-.64-1.96-1.68-3.77-3.06-5.31-1.13-1.19-2.41-2.23-3.82-3.08-.09.16-.13.32-.18.48Z"/><path class="cls-2" d="M404.72,140.16c.95-1.65,1.7-3.4,2.22-5.23l-.88-.31c-1.83-.6-3.75-1-5.56-1.45-2.93-.56-5.81-1.32-8.64-2.27-2.48-1-4.55-2.2-5.59-4.28l-4.79,2.48c.78,1.53,1.88,2.87,3.23,3.94,1.28,1.08,2.72,1.95,4.27,2.6,1.65.7,3.36,1.27,5.1,1.71l5.43,1.37c1.77.41,3.54.88,5.21,1.44Z"/><path class="cls-2" d="M404.53,190.22c2.6,2.25,6,4.11,9.15,6.06,1.55,1,3.1,1.94,4.53,3,1-.95,1.94-1.97,2.79-3.05.32-.42.61-.85.89-1.28-1.8-1.31-3.68-2.51-5.63-3.6-5.61-3.25-10.74-5.95-11.64-10.51l-5.31.95c.31,1.69.97,3.29,1.92,4.72.91,1.4,2.02,2.65,3.3,3.71Z"/><path class="cls-2" d="M428.83,202.8c-.73-1.48-1.65-2.84-2.75-4.07-.09.14-.17.28-.26.41-1,1.4-2.13,2.71-3.37,3.91,1.45,1.62,2.28,3.69,2.34,5.86l5.38-.14c-.02-2.06-.48-4.1-1.34-5.97Z"/><path class="cls-2" d="M350.91,64.59c.3-2.87.38-5.75.22-8.63-.1-1.46-.33-2.9-.69-4.32-.38-1.4-.94-2.75-1.68-4l-3.9,4.89c.48,1.73.73,3.52.73,5.32,0,1.93-.1,4-.26,6-.51,7.48-1.6,15,3.52,20.11l3.85-3.77c-1.56-1.84-2.4-4.19-2.35-6.61,0-3.01.18-6.01.56-8.99Z"/><path class="cls-2" d="M399.31,181.75c-.3-1.69-.24-3.43.18-5.1.36-1.63.97-3.2,1.81-4.65.89-1.56,1.89-3.05,3-4.46l3.49-4.39c4.06-5.14,7.94-10.44,6.06-15.69l5.11-1.73c.68,1.95.95,4.02.8,6.08-.2,1.93-.71,3.81-1.49,5.58-.78,1.75-1.72,3.43-2.82,5-1.08,1.58-2.35,3.1-3.53,4.53-1.98,2.23-3.81,4.6-5.47,7.08-.66,1.07-1.19,2.2-1.6,3.39-.35,1.1-.44,2.26-.24,3.4l-5.3.96Z"/><path class="cls-2" d="M381.48,129.06c-1.48-3.08-1.83-6.58-1-9.9.4-1.76.93-3.49,1.58-5.17.63-1.73,1.31-3.45,2-5.2,1.23-2.89,2.16-5.91,2.75-9,.51-2.7-.06-5.49-1.58-7.77l4.36-3.15c1.21,1.66,2.08,3.54,2.57,5.53.4,1.9.48,3.85.23,5.77-.23,1.92-.64,3.8-1.23,5.64-.57,1.81-1.24,3.6-2,5.34-1.24,2.73-2.3,5.54-3.15,8.41-.62,2.57-.79,5,.27,7l-4.8,2.5Z"/></g></g></svg>