<?xml version="1.0" encoding="UTF-8"?><svg id="Ebene_2" xmlns="http://www.w3.org/2000/svg" xmlns:xlink="http://www.w3.org/1999/xlink" viewBox="0 0 228 127"><defs><style>.cls-1,.cls-2{fill:none;}.cls-3{font-family:MyriadPro-Regular, 'Myriad Pro';font-size:10px;}.cls-4,.cls-5{fill:#3b3b3b;}.cls-6{clip-path:url(#clippath-1);}.cls-7{clip-path:url(#clippath-3);}.cls-8{clip-path:url(#clippath-2);}.cls-9{fill:#fff;}.cls-10{fill:#dd0d73;}.cls-5{opacity:.55;}.cls-11{opacity:.23;}.cls-12{opacity:.21;}.cls-13{opacity:.33;}.cls-14{opacity:.08;}.cls-15{fill:#d5d5d5;}.cls-2{stroke:#8e8d8d;stroke-miterlimit:10;stroke-width:4px;}.cls-16{clip-path:url(#clippath);}</style><clipPath id="clippath"><path class="cls-1" d="M54.1,85c0,5.03-4.07,9.1-9.1,9.1s-9.1-4.07-9.1-9.1,4.07-9.1,9.1-9.1,9.1,4.07,9.1,9.1ZM89,56.9c-5.03,0-9.1,4.07-9.1,9.1s4.07,9.1,9.1,9.1,9.1-4.07,9.1-9.1-4.07-9.1-9.1-9.1ZM133,38.9c-5.03,0-9.1,4.07-9.1,9.1s4.07,9.1,9.1,9.1,9.1-4.07,9.1-9.1-4.07-9.1-9.1-9.1ZM178,22.9c-5.03,0-9.1,4.07-9.1,9.1s4.07,9.1,9.1,9.1,9.1-4.07,9.1-9.1-4.07-9.1-9.1-9.1ZM65,96.9c-5.03,0-9.1,4.07-9.1,9.1s4.07,9.1,9.1,9.1,9.1-4.07,9.1-9.1-4.07-9.1-9.1-9.1ZM109,77.9c-5.03,0-9.1,4.07-9.1,9.1s4.07,9.1,9.1,9.1,9.1-4.07,9.1-9.1-4.07-9.1-9.1-9.1ZM153,59.9c-5.03,0-9.1,4.07-9.1,9.1s4.07,9.1,9.1,9.1,9.1-4.07,9.1-9.1-4.07-9.1-9.1-9.1ZM198,43.9c-5.03,0-9.1,4.07-9.1,9.1s4.07,9.1,9.1,9.1,9.1-4.07,9.1-9.1-4.07-9.1-9.1-9.1Z"/></clipPath><clipPath id="clippath-1"><path class="cls-1" d="M207,7c0,3.87-3.13,7-7,7s-7-3.13-7-7,3.13-7,7-7,7,3.13,7,7ZM220,22c-3.87,0-7,3.13-7,7s3.13,7,7,7,7-3.13,7-7-3.13-7-7-7ZM221,62c-3.87,0-7,3.13-7,7s3.13,7,7,7,7-3.13,7-7-3.13-7-7-7ZM176,79c-3.87,0-7,3.13-7,7s3.13,7,7,7,7-3.13,7-7-3.13-7-7-7ZM180,62c-3.87,0-7,3.13-7,7s3.13,7,7,7,7-3.13,7-7-3.13-7-7-7ZM136,79c-3.87,0-7,3.13-7,7s3.13,7,7,7,7-3.13,7-7-3.13-7-7-7ZM92,96c-3.87,0-7,3.13-7,7s3.13,7,7,7,7-3.13,7-7-3.13-7-7-7ZM48,113c-3.87,0-7,3.13-7,7s3.13,7,7,7,7-3.13,7-7-3.13-7-7-7ZM160,1c-3.87,0-7,3.13-7,7s3.13,7,7,7,7-3.13,7-7-3.13-7-7-7ZM116,18c-3.87,0-7,3.13-7,7s3.13,7,7,7,7-3.13,7-7-3.13-7-7-7ZM156,17c-3.87,0-7,3.13-7,7s3.13,7,7,7,7-3.13,7-7-3.13-7-7-7ZM112,34c-3.87,0-7,3.13-7,7s3.13,7,7,7,7-3.13,7-7-3.13-7-7-7ZM72,35c-3.87,0-7,3.13-7,7s3.13,7,7,7,7-3.13,7-7-3.13-7-7-7ZM7,86c-3.87,0-7,3.13-7,7s3.13,7,7,7,7-3.13,7-7-3.13-7-7-7ZM131,96c-3.87,0-7,3.13-7,7s3.13,7,7,7,7-3.13,7-7-3.13-7-7-7ZM86,113c-3.87,0-7,3.13-7,7s3.13,7,7,7,7-3.13,7-7-3.13-7-7-7Z"/></clipPath><clipPath id="clippath-2"><path class="cls-1" d="M27,81c0,3.87-3.13,7-7,7s-7-3.13-7-7,3.13-7,7-7,7,3.13,7,7ZM47,45c-3.87,0-7,3.13-7,7s3.13,7,7,7,7-3.13,7-7-3.13-7-7-7Z"/></clipPath><clipPath id="clippath-3"><path class="cls-1" d="M54,81c0,3.87-3.13,7-7,7s-7-3.13-7-7,3.13-7,7-7,7,3.13,7,7ZM91,55c-3.87,0-7,3.13-7,7s3.13,7,7,7,7-3.13,7-7-3.13-7-7-7ZM135,37c-3.87,0-7,3.13-7,7s3.13,7,7,7,7-3.13,7-7-3.13-7-7-7ZM180,21c-3.87,0-7,3.13-7,7s3.13,7,7,7,7-3.13,7-7-3.13-7-7-7ZM67,95c-3.87,0-7,3.13-7,7s3.13,7,7,7,7-3.13,7-7-3.13-7-7-7ZM111,76c-3.87,0-7,3.13-7,7s3.13,7,7,7,7-3.13,7-7-3.13-7-7-7ZM155,58c-3.87,0-7,3.13-7,7s3.13,7,7,7,7-3.13,7-7-3.13-7-7-7ZM200,42c-3.87,0-7,3.13-7,7s3.13,7,7,7,7-3.13,7-7-3.13-7-7-7Z"/></clipPath></defs><g id="PFAS_molecule_vector"><line class="cls-2" x1="116" y1="25" x2="176" y2="86"/><line class="cls-2" x1="71" y1="42" x2="131" y2="103"/><line class="cls-2" x1="161" y1="8" x2="221" y2="69"/><line class="cls-2" x1="48" y1="81" x2="86" y2="120"/><line class="cls-2" x1="113" y1="42" x2="92" y2="61"/><line class="cls-2" x1="158" y1="23" x2="137" y2="42"/><line class="cls-2" x1="200" y1="7" x2="180" y2="28"/><line class="cls-2" x1="219" y1="30" x2="198" y2="52"/><line class="cls-2" x1="178" y1="28" x2="158" y2="64"/><line class="cls-2" x1="134" y1="46" x2="112" y2="83"/><line class="cls-2" x1="92" y1="61" x2="65" y2="102"/><line class="cls-2" x1="199.43" y1="50.56" x2="178.43" y2="72.56"/><line class="cls-2" x1="156.66" y1="64.42" x2="135.66" y2="86.42"/><line class="cls-2" x1="109.67" y1="83.49" x2="88.67" y2="105.49"/><line class="cls-2" x1="67.83" y1="100.38" x2="46.83" y2="122.38"/><line class="cls-2" x1="44" y1="50.69" x2="44" y2="81.1"/><line class="cls-2" x1="50" y1="50.69" x2="50" y2="81.1"/><line class="cls-2" x1="46.6" y1="80.73" x2="20" y2="81"/><line class="cls-2" x1="20" y1="81" x2="7" y2="93"/><circle class="cls-10" cx="200" cy="7" r="7"/><circle class="cls-10" cx="220" cy="29" r="7"/><circle class="cls-10" cx="221" cy="69" r="7"/><circle class="cls-10" cx="176" cy="86" r="7"/><circle class="cls-10" cx="180" cy="69" r="7"/><circle class="cls-10" cx="136" cy="86" r="7"/><circle class="cls-10" cx="92" cy="103" r="7"/><circle class="cls-10" cx="48" cy="120" r="7"/><circle class="cls-10" cx="160" cy="8" r="7"/><circle class="cls-10" cx="116" cy="25" r="7"/><circle class="cls-10" cx="156" cy="24" r="7"/><circle class="cls-10" cx="112" cy="41" r="7"/><circle class="cls-10" cx="72" cy="42" r="7"/><circle class="cls-10" cx="7" cy="93" r="7"/><circle class="cls-10" cx="131" cy="103" r="7"/><circle class="cls-10" cx="86" cy="120" r="7"/><path class="cls-10" d="M95.95,94.97l-2.95,3.09c1.4.28,2.58,1.15,3.3,2.34l2.76-2.9c-.83-1.06-1.89-1.93-3.11-2.53Z"/><path class="cls-10" d="M140.62,78.34l-2.83,2.97c1.3.5,2.34,1.5,2.87,2.78l2.84-2.98c-.74-1.13-1.72-2.08-2.88-2.77Z"/><path class="cls-10" d="M117.81,29.69l2.88,2.93c1.15-.71,2.12-1.67,2.85-2.8l-2.88-2.93c-.52,1.29-1.56,2.3-2.86,2.8Z"/><path class="cls-10" d="M129.19,98.31l-2.88-2.93c-1.15.71-2.13,1.67-2.85,2.8l2.88,2.93c.52-1.29,1.56-2.3,2.86-2.8Z"/><path class="cls-10" d="M108.15,49.08l3.41-3.08c-1.51-.13-2.83-.91-3.66-2.08l-2.92,2.64c.85,1.07,1.93,1.93,3.17,2.52Z"/><path class="cls-10" d="M76.32,44.56c-.71,1.19-1.88,2.08-3.28,2.37l3,3.05c1.21-.62,2.26-1.5,3.08-2.57l-2.81-2.85Z"/><path class="cls-10" d="M53.26,112.76l-2.76,2.89c1.21.7,2.11,1.86,2.42,3.26l2.99-3.13c-.64-1.2-1.55-2.23-2.65-3.02Z"/><path class="cls-10" d="M84.21,115.3l-2.87-2.94c-1.15.7-2.13,1.66-2.87,2.79l2.86,2.94c.53-1.28,1.57-2.29,2.87-2.78Z"/><path class="cls-10" d="M219.19,64.31l-2.88-2.93c-1.15.71-2.12,1.67-2.85,2.8l2.88,2.93c.52-1.29,1.56-2.3,2.86-2.8Z"/><path class="cls-10" d="M215.4,36.67l2.83-2.97c-1.3-.49-2.35-1.49-2.88-2.77l-2.84,2.97c.74,1.13,1.73,2.07,2.89,2.77Z"/><path class="cls-10" d="M185.68,62.07l-2.73,2.86c1.15.84,1.92,2.15,2.05,3.65l3.14-3.29c-.57-1.25-1.42-2.35-2.47-3.21Z"/><path class="cls-10" d="M195.43,14.69l2.84-2.98c-1.31-.48-2.37-1.47-2.91-2.75l-2.83,2.97c.75,1.12,1.74,2.06,2.9,2.75Z"/><path class="cls-10" d="M12.06,85.61l-3.02,2.79c1.27.56,2.24,1.63,2.7,2.95l3.03-2.8c-.67-1.17-1.6-2.18-2.71-2.94Z"/><path class="cls-10" d="M171.34,84.11c.52-1.29,1.56-2.3,2.86-2.8l-2.88-2.93c-1.15.71-2.12,1.67-2.85,2.8l2.88,2.93Z"/><path class="cls-10" d="M162.48,12.36l2.81,2.86c1.09-.8,1.99-1.83,2.63-3.03l-3.01-3.06c-.32,1.39-1.22,2.55-2.42,3.24Z"/><path class="cls-10" d="M151.4,31.67l3.17-2.87c-1.36-.41-2.47-1.36-3.08-2.61l-2.98,2.7c.74,1.13,1.73,2.08,2.89,2.78Z"/><circle class="cls-4" cx="20" cy="81" r="7"/><circle class="cls-4" cx="47" cy="52" r="7"/><g class="cls-16"><path class="cls-4" d="M48.28,123.76l-2.89-2.76,18.71-19.6-.76-.5.51-.78-17.22-17.67v.28s-25.83.27-25.83.27l-12.43,11.48-2.71-2.94,13-12,1.36,1.47-.02-2,22.02-.23v-28.08h4v28.04h.58s.04,3.61.04,3.61l1.38-1.34v-30.31h4v30.41h-1.11l15.2,15.6,22.42-34.05-18.94-19.26,2.85-2.8,18.43,18.74,20.8-18.82,2.68,2.97-20.68,18.71,17.69,17.98,20.93-35.2,1.36.81-19.07-19.38,2.85-2.8,60,61-2.85,2.8-18.82-19.13-18.65,19.53-2.89-2.76,18.73-19.62-17.56-17.85-21.14,35.55,18.17,18.48-2.85,2.8-18.83-19.14-20.62,21.61-2.89-2.76,20.71-21.7-16.56-16.83-22.43,34.06,18.48,18.97-2.87,2.79-17.19-17.64-19.1,20.01ZM179.88,73.94l-2.89-2.76,19.6-20.53-.03-.03,1.75-1.84-18.89-19.21-19.67,35.4-3.5-1.94,20-36,1.45.81-18.13-18.43,2.85-2.8,17.88,18.18,18.24-19.16,2.9,2.76-18.33,19.25,17.96,18.26,16.48-17.27,2.89,2.76-16.57,17.36,18.55,18.86-2.85,2.8-18.46-18.77-.26.28.03.03-21,22ZM138.34,43.48l-2.68-2.97,21-19,2.68,2.97-21,19Z"/></g><circle class="cls-15" cx="47" cy="81" r="7"/><text class="cls-3" transform="translate(44.1 83.94)"><tspan x="0" y="0">C</tspan></text><circle class="cls-15" cx="91" cy="62" r="7"/><text class="cls-3" transform="translate(88.1 64.94)"><tspan x="0" y="0">C</tspan></text><circle class="cls-15" cx="135" cy="44" r="7"/><text class="cls-3" transform="translate(132.1 46.94)"><tspan x="0" y="0">C</tspan></text><circle class="cls-15" cx="180" cy="28" r="7"/><text class="cls-3" transform="translate(177.1 30.94)"><tspan x="0" y="0">C</tspan></text><circle class="cls-15" cx="67" cy="102" r="7"/><text class="cls-3" transform="translate(64.1 104.94)"><tspan x="0" y="0">C</tspan></text><circle class="cls-15" cx="111" cy="83" r="7"/><text class="cls-3" transform="translate(108.1 85.94)"><tspan x="0" y="0">C</tspan></text><circle class="cls-15" cx="155" cy="65" r="7"/><text class="cls-3" transform="translate(152.1 67.94)"><tspan x="0" y="0">C</tspan></text><circle class="cls-15" cx="200" cy="49" r="7"/><text class="cls-3" transform="translate(197.1 51.94)"><tspan x="0" y="0">C</tspan></text><g class="cls-6"><path class="cls-5" d="M152.74,7.76c0-2.68,1.41-5.03,3.53-6.36-1.53,1.34-2.51,3.31-2.51,5.51,0,4.05,3.28,7.33,7.33,7.33,2.2,0,4.16-.97,5.51-2.51-1.33,2.12-3.68,3.53-6.36,3.53-4.14,0-7.5-3.36-7.5-7.5ZM200.24,14.26c2.68,0,5.03-1.41,6.36-3.53-1.34,1.53-3.31,2.51-5.51,2.51-4.05,0-7.33-3.28-7.33-7.33,0-2.2.97-4.16,2.51-5.51-2.12,1.33-3.53,3.68-3.53,6.36,0,4.14,3.36,7.5,7.5,7.5ZM220.24,36.26c2.68,0,5.03-1.41,6.36-3.53-1.34,1.53-3.31,2.51-5.51,2.51-4.05,0-7.33-3.28-7.33-7.33,0-2.2.97-4.16,2.51-5.51-2.12,1.33-3.53,3.68-3.53,6.36,0,4.14,3.36,7.5,7.5,7.5ZM221.24,76.26c2.68,0,5.03-1.41,6.36-3.53-1.34,1.53-3.31,2.51-5.51,2.51-4.05,0-7.33-3.28-7.33-7.33,0-2.2.97-4.16,2.51-5.51-2.12,1.33-3.53,3.68-3.53,6.36,0,4.14,3.36,7.5,7.5,7.5ZM180.24,76.26c2.68,0,5.03-1.41,6.36-3.53-1.34,1.53-3.31,2.51-5.51,2.51-4.05,0-7.33-3.28-7.33-7.33,0-2.2.97-4.16,2.51-5.51-2.12,1.33-3.53,3.68-3.53,6.36,0,4.14,3.36,7.5,7.5,7.5ZM156.24,31.26c2.68,0,5.03-1.41,6.36-3.53-1.34,1.53-3.31,2.51-5.51,2.51-4.05,0-7.33-3.28-7.33-7.33,0-2.2.97-4.16,2.51-5.51-2.12,1.33-3.53,3.68-3.53,6.36,0,4.14,3.36,7.5,7.5,7.5ZM116.24,32.26c2.68,0,5.03-1.41,6.36-3.53-1.34,1.53-3.31,2.51-5.51,2.51-4.05,0-7.33-3.28-7.33-7.33,0-2.2.97-4.16,2.51-5.51-2.12,1.33-3.53,3.68-3.53,6.36,0,4.14,3.36,7.5,7.5,7.5ZM112.24,48.26c2.68,0,5.03-1.41,6.36-3.53-1.34,1.53-3.31,2.51-5.51,2.51-4.05,0-7.33-3.28-7.33-7.33,0-2.2.97-4.16,2.51-5.51-2.12,1.33-3.53,3.68-3.53,6.36,0,4.14,3.36,7.5,7.5,7.5ZM72.24,49.26c2.68,0,5.03-1.41,6.36-3.53-1.34,1.53-3.31,2.51-5.51,2.51-4.05,0-7.33-3.28-7.33-7.33,0-2.2.97-4.16,2.51-5.51-2.12,1.33-3.53,3.68-3.53,6.36,0,4.14,3.36,7.5,7.5,7.5ZM136.24,93.26c2.68,0,5.03-1.41,6.36-3.53-1.34,1.53-3.31,2.51-5.51,2.51-4.05,0-7.33-3.28-7.33-7.33,0-2.2.97-4.16,2.51-5.51-2.12,1.33-3.53,3.68-3.53,6.36,0,4.14,3.36,7.5,7.5,7.5ZM176.24,93.26c2.68,0,5.03-1.41,6.36-3.53-1.34,1.53-3.31,2.51-5.51,2.51-4.05,0-7.33-3.28-7.33-7.33,0-2.2.97-4.16,2.51-5.51-2.12,1.33-3.53,3.68-3.53,6.36,0,4.14,3.36,7.5,7.5,7.5ZM131.24,110.26c2.68,0,5.03-1.41,6.36-3.53-1.34,1.53-3.31,2.51-5.51,2.51-4.05,0-7.33-3.28-7.33-7.33,0-2.2.97-4.16,2.51-5.51-2.12,1.33-3.53,3.68-3.53,6.36,0,4.14,3.36,7.5,7.5,7.5ZM92.24,110.26c2.68,0,5.03-1.41,6.36-3.53-1.34,1.53-3.31,2.51-5.51,2.51-4.05,0-7.33-3.28-7.33-7.33,0-2.2.97-4.16,2.51-5.51-2.12,1.33-3.53,3.68-3.53,6.36,0,4.14,3.36,7.5,7.5,7.5ZM48.24,127.26c2.68,0,5.03-1.41,6.36-3.53-1.34,1.53-3.31,2.51-5.51,2.51-4.05,0-7.33-3.28-7.33-7.33,0-2.2.97-4.16,2.51-5.51-2.12,1.33-3.53,3.68-3.53,6.36,0,4.14,3.36,7.5,7.5,7.5ZM86.24,127.26c2.68,0,5.03-1.41,6.36-3.53-1.34,1.53-3.31,2.51-5.51,2.51-4.05,0-7.33-3.28-7.33-7.33,0-2.2.97-4.16,2.51-5.51-2.12,1.33-3.53,3.68-3.53,6.36,0,4.14,3.36,7.5,7.5,7.5ZM7.24,100.26c2.68,0,5.03-1.41,6.36-3.53-1.34,1.53-3.31,2.51-5.51,2.51-4.05,0-7.33-3.28-7.33-7.33,0-2.2.97-4.16,2.51-5.51-2.12,1.33-3.53,3.68-3.53,6.36,0,4.14,3.36,7.5,7.5,7.5Z"/><g class="cls-11"><path class="cls-9" d="M160.23,2c-2.06,0-3.87,1.08-4.89,2.71,1.03-1.18,2.55-1.93,4.24-1.93,3.11,0,5.64,2.52,5.64,5.64,0,1.69-.75,3.2-1.93,4.24,1.63-1.02,2.71-2.83,2.71-4.89,0-3.19-2.58-5.77-5.77-5.77Z"/><path class="cls-9" d="M200.23,1c-2.06,0-3.87,1.08-4.89,2.71,1.03-1.18,2.55-1.93,4.24-1.93,3.11,0,5.64,2.52,5.64,5.64,0,1.69-.75,3.2-1.93,4.24,1.63-1.02,2.71-2.83,2.71-4.89,0-3.19-2.58-5.77-5.77-5.77Z"/><path class="cls-9" d="M220.23,23c-2.06,0-3.87,1.08-4.89,2.71,1.03-1.18,2.55-1.93,4.24-1.93,3.11,0,5.64,2.52,5.64,5.64,0,1.69-.75,3.2-1.93,4.24,1.63-1.02,2.71-2.83,2.71-4.89,0-3.19-2.58-5.77-5.77-5.77Z"/><path class="cls-9" d="M221.23,63c-2.06,0-3.87,1.08-4.89,2.71,1.03-1.18,2.55-1.93,4.24-1.93,3.11,0,5.64,2.52,5.64,5.64,0,1.69-.75,3.2-1.93,4.24,1.63-1.02,2.71-2.83,2.71-4.89,0-3.19-2.58-5.77-5.77-5.77Z"/><path class="cls-9" d="M180.23,63c-2.06,0-3.87,1.08-4.89,2.71,1.03-1.18,2.55-1.93,4.24-1.93,3.11,0,5.64,2.52,5.64,5.64,0,1.69-.75,3.2-1.93,4.24,1.63-1.02,2.71-2.83,2.71-4.89,0-3.19-2.58-5.77-5.77-5.77Z"/><path class="cls-9" d="M156.23,18c-2.06,0-3.87,1.08-4.89,2.71,1.03-1.18,2.55-1.93,4.24-1.93,3.11,0,5.64,2.52,5.64,5.64,0,1.69-.75,3.2-1.93,4.24,1.63-1.02,2.71-2.83,2.71-4.89,0-3.19-2.58-5.77-5.77-5.77Z"/><path class="cls-9" d="M116.23,19c-2.06,0-3.87,1.08-4.89,2.71,1.03-1.18,2.55-1.93,4.24-1.93,3.11,0,5.64,2.52,5.64,5.64,0,1.69-.75,3.2-1.93,4.24,1.63-1.02,2.71-2.83,2.71-4.89,0-3.19-2.58-5.77-5.77-5.77Z"/><path class="cls-9" d="M112.23,35c-2.06,0-3.87,1.08-4.89,2.71,1.03-1.18,2.55-1.93,4.24-1.93,3.11,0,5.64,2.52,5.64,5.64,0,1.69-.75,3.2-1.93,4.24,1.63-1.02,2.71-2.83,2.71-4.89,0-3.19-2.58-5.77-5.77-5.77Z"/><path class="cls-9" d="M72.23,36c-2.06,0-3.87,1.08-4.89,2.71,1.03-1.18,2.55-1.93,4.24-1.93,3.11,0,5.64,2.52,5.64,5.64,0,1.69-.75,3.2-1.93,4.24,1.63-1.02,2.71-2.83,2.71-4.89,0-3.19-2.58-5.77-5.77-5.77Z"/><path class="cls-9" d="M136.23,80c-2.06,0-3.87,1.08-4.89,2.71,1.03-1.18,2.55-1.93,4.24-1.93,3.11,0,5.64,2.52,5.64,5.64,0,1.69-.75,3.2-1.93,4.24,1.63-1.02,2.71-2.83,2.71-4.89,0-3.19-2.58-5.77-5.77-5.77Z"/><path class="cls-9" d="M176.23,80c-2.06,0-3.87,1.08-4.89,2.71,1.03-1.18,2.55-1.93,4.24-1.93,3.11,0,5.64,2.52,5.64,5.64,0,1.69-.75,3.2-1.93,4.24,1.63-1.02,2.71-2.83,2.71-4.89,0-3.19-2.58-5.77-5.77-5.77Z"/><path class="cls-9" d="M131.23,97c-2.06,0-3.87,1.08-4.89,2.71,1.03-1.18,2.55-1.93,4.24-1.93,3.11,0,5.64,2.52,5.64,5.64,0,1.69-.75,3.2-1.93,4.24,1.63-1.02,2.71-2.83,2.71-4.89,0-3.19-2.58-5.77-5.77-5.77Z"/><path class="cls-9" d="M92.23,97c-2.06,0-3.87,1.08-4.89,2.71,1.03-1.18,2.55-1.93,4.24-1.93,3.11,0,5.64,2.52,5.64,5.64,0,1.69-.75,3.2-1.93,4.24,1.63-1.02,2.71-2.83,2.71-4.89,0-3.19-2.58-5.77-5.77-5.77Z"/><path class="cls-9" d="M48.23,114c-2.06,0-3.87,1.08-4.89,2.71,1.03-1.18,2.55-1.93,4.24-1.93,3.11,0,5.64,2.52,5.64,5.64,0,1.69-.75,3.2-1.93,4.24,1.63-1.02,2.71-2.83,2.71-4.89,0-3.19-2.58-5.77-5.77-5.77Z"/><path class="cls-9" d="M86.23,114c-2.06,0-3.87,1.08-4.89,2.71,1.03-1.18,2.55-1.93,4.24-1.93,3.11,0,5.64,2.52,5.64,5.64,0,1.69-.75,3.2-1.93,4.24,1.63-1.02,2.71-2.83,2.71-4.89,0-3.19-2.58-5.77-5.77-5.77Z"/><path class="cls-9" d="M7.23,87c-2.06,0-3.87,1.08-4.89,2.71,1.03-1.18,2.55-1.93,4.24-1.93,3.11,0,5.64,2.52,5.64,5.64,0,1.69-.75,3.2-1.93,4.24,1.63-1.02,2.71-2.83,2.71-4.89,0-3.19-2.58-5.77-5.77-5.77Z"/></g></g><g class="cls-8"><g class="cls-14"><path class="cls-9" d="M46.56,46.12c-2.06,0-3.87,1.08-4.89,2.71,1.03-1.18,2.55-1.93,4.24-1.93,3.11,0,5.64,2.52,5.64,5.64,0,1.69-.75,3.2-1.93,4.24,1.63-1.02,2.71-2.83,2.71-4.89,0-3.19-2.58-5.77-5.77-5.77Z"/><path class="cls-9" d="M19.56,75.12c-2.06,0-3.87,1.08-4.89,2.71,1.03-1.18,2.55-1.93,4.24-1.93,3.11,0,5.64,2.52,5.64,5.64,0,1.69-.75,3.2-1.93,4.24,1.63-1.02,2.71-2.83,2.71-4.89,0-3.19-2.58-5.77-5.77-5.77Z"/></g><g class="cls-13"><path d="M47.36,59.73c2.61.05,4.92-1.29,6.24-3.32-1.33,1.47-3.26,2.38-5.4,2.34-3.94-.07-7.07-3.31-7-7.25.04-2.14,1.02-4.03,2.53-5.31-2.08,1.25-3.49,3.52-3.54,6.13-.07,4.03,3.14,7.35,7.17,7.42Z"/><path d="M20.31,87.82c2.61.05,4.92-1.29,6.24-3.32-1.33,1.47-3.26,2.38-5.4,2.34-3.94-.07-7.07-3.31-7-7.25.04-2.14,1.02-4.03,2.53-5.31-2.08,1.25-3.49,3.52-3.54,6.13-.07,4.03,3.14,7.35,7.17,7.42Z"/></g></g><g class="cls-7"><g class="cls-12"><path class="cls-9" d="M46.56,75.12c-2.06,0-3.87,1.08-4.89,2.71,1.03-1.18,2.55-1.93,4.24-1.93,3.11,0,5.64,2.52,5.64,5.64,0,1.69-.75,3.2-1.93,4.24,1.63-1.02,2.71-2.83,2.71-4.89,0-3.19-2.58-5.77-5.77-5.77Z"/><path d="M47.36,88.73c2.61.05,4.92-1.29,6.24-3.32-1.33,1.47-3.26,2.38-5.4,2.34-3.94-.07-7.07-3.31-7-7.25.04-2.14,1.02-4.03,2.53-5.31-2.08,1.25-3.49,3.52-3.54,6.13-.07,4.03,3.14,7.35,7.17,7.42Z"/><path class="cls-9" d="M90.56,56.12c-2.06,0-3.87,1.08-4.89,2.71,1.03-1.18,2.55-1.93,4.24-1.93,3.11,0,5.64,2.52,5.64,5.64,0,1.69-.75,3.2-1.93,4.24,1.63-1.02,2.71-2.83,2.71-4.89,0-3.19-2.58-5.77-5.77-5.77Z"/><path d="M91.36,69.73c2.61.05,4.92-1.29,6.24-3.32-1.33,1.47-3.26,2.38-5.4,2.34-3.94-.07-7.07-3.31-7-7.25.04-2.14,1.02-4.03,2.53-5.31-2.08,1.25-3.49,3.52-3.54,6.13-.07,4.03,3.14,7.35,7.17,7.42Z"/><path class="cls-9" d="M134.56,38.12c-2.06,0-3.87,1.08-4.89,2.71,1.03-1.18,2.55-1.93,4.24-1.93,3.11,0,5.64,2.52,5.64,5.64,0,1.69-.75,3.2-1.93,4.24,1.63-1.02,2.71-2.83,2.71-4.89,0-3.19-2.58-5.77-5.77-5.77Z"/><path d="M135.36,51.73c2.61.05,4.92-1.29,6.24-3.32-1.33,1.47-3.26,2.38-5.4,2.34-3.94-.07-7.07-3.31-7-7.25.04-2.14,1.02-4.03,2.53-5.31-2.08,1.25-3.49,3.52-3.54,6.13-.07,4.03,3.14,7.35,7.17,7.42Z"/><path class="cls-9" d="M179.56,22.12c-2.06,0-3.87,1.08-4.89,2.71,1.03-1.18,2.55-1.93,4.24-1.93,3.11,0,5.64,2.52,5.64,5.64,0,1.69-.75,3.2-1.93,4.24,1.63-1.02,2.71-2.83,2.71-4.89,0-3.19-2.58-5.77-5.77-5.77Z"/><path d="M180.36,35.73c2.61.05,4.92-1.29,6.24-3.32-1.33,1.47-3.26,2.38-5.4,2.34-3.94-.07-7.07-3.31-7-7.25.04-2.14,1.02-4.03,2.53-5.31-2.08,1.25-3.49,3.52-3.54,6.13-.07,4.03,3.14,7.35,7.17,7.42Z"/><path class="cls-9" d="M199.56,43.12c-2.06,0-3.87,1.08-4.89,2.71,1.03-1.18,2.55-1.93,4.24-1.93,3.11,0,5.64,2.52,5.64,5.64,0,1.69-.75,3.2-1.93,4.24,1.63-1.02,2.71-2.83,2.71-4.89,0-3.19-2.58-5.77-5.77-5.77Z"/><path d="M200.36,56.73c2.61.05,4.92-1.29,6.24-3.32-1.33,1.47-3.26,2.38-5.4,2.34-3.94-.07-7.07-3.31-7-7.25.04-2.14,1.02-4.03,2.53-5.31-2.08,1.25-3.49,3.52-3.54,6.13-.07,4.03,3.14,7.35,7.17,7.42Z"/><path class="cls-9" d="M154.56,59.12c-2.06,0-3.87,1.08-4.89,2.71,1.03-1.18,2.55-1.93,4.24-1.93,3.11,0,5.64,2.52,5.64,5.64,0,1.69-.75,3.2-1.93,4.24,1.63-1.02,2.71-2.83,2.71-4.89,0-3.19-2.58-5.77-5.77-5.77Z"/><path d="M155.36,72.73c2.61.05,4.92-1.29,6.24-3.32-1.33,1.47-3.26,2.38-5.4,2.34-3.94-.07-7.07-3.31-7-7.25.04-2.14,1.02-4.03,2.53-5.31-2.08,1.25-3.49,3.52-3.54,6.13-.07,4.03,3.14,7.35,7.17,7.42Z"/><path class="cls-9" d="M110.56,76.12c-2.06,0-3.87,1.08-4.89,2.71,1.03-1.18,2.55-1.93,4.24-1.93,3.11,0,5.64,2.52,5.64,5.64,0,1.69-.75,3.2-1.93,4.24,1.63-1.02,2.71-2.83,2.71-4.89,0-3.19-2.58-5.77-5.77-5.77Z"/><path d="M111.36,89.73c2.61.05,4.92-1.29,6.24-3.32-1.33,1.47-3.26,2.38-5.4,2.34-3.94-.07-7.07-3.31-7-7.25.04-2.14,1.02-4.03,2.53-5.31-2.08,1.25-3.49,3.52-3.54,6.13-.07,4.03,3.14,7.35,7.17,7.42Z"/><path class="cls-9" d="M66.56,96.12c-2.06,0-3.87,1.08-4.89,2.71,1.03-1.18,2.55-1.93,4.24-1.93,3.11,0,5.64,2.52,5.64,5.64,0,1.69-.75,3.2-1.93,4.24,1.63-1.02,2.71-2.83,2.71-4.89,0-3.19-2.58-5.77-5.77-5.77Z"/><path d="M67.36,109.73c2.61.05,4.92-1.29,6.24-3.32-1.33,1.47-3.26,2.38-5.4,2.34-3.94-.07-7.07-3.31-7-7.25.04-2.14,1.02-4.03,2.53-5.31-2.08,1.25-3.49,3.52-3.54,6.13-.07,4.03,3.14,7.35,7.17,7.42Z"/></g></g></g></svg>