<?xml version="1.0" encoding="UTF-8"?><svg id="Ebene_2" xmlns="http://www.w3.org/2000/svg" xmlns:xlink="http://www.w3.org/1999/xlink" viewBox="0 0 1076 511"><defs><style>.cls-1,.cls-2,.cls-3,.cls-4,.cls-5,.cls-6,.cls-7,.cls-8{fill:none;}.cls-2,.cls-3,.cls-4,.cls-5,.cls-6,.cls-7,.cls-8{stroke:#e9eaed;stroke-linecap:round;stroke-linejoin:round;}.cls-2,.cls-5{stroke-width:1.17px;}.cls-2,.cls-7,.cls-8{opacity:.07;}.cls-9{clip-path:url(#clippath-1);}.cls-3,.cls-6,.cls-7{stroke-width:1.36px;}.cls-4,.cls-8{stroke-width:1.55px;}.cls-6{opacity:.09;}.cls-10{clip-path:url(#clippath);}</style><clipPath id="clippath"><path class="cls-1" d="M0,0v511h1076V0H0ZM665.47,431.01v13.43c0,17.59-57.07,31.85-127.47,31.85s-127.47-14.26-127.47-31.85v-13.43h0c0-2.07.8-4.09,2.31-6.05v-106.72c1.01-.43,1.91-.87,2.7-1.32.12-.07.24-.14.35-.21.26-.15.5-.31.73-.47.11-.07.21-.14.31-.21.27-.2.52-.39.75-.59.03-.03.07-.06.11-.09.25-.22.47-.45.67-.68.06-.07.12-.15.18-.22.13-.16.24-.32.34-.49.05-.08.1-.16.14-.25.09-.18.17-.36.23-.54.02-.06.05-.12.06-.18.07-.25.11-.51.11-.77,0-2.16-2.4-4.2-6.68-6.01v-123.05c.98-.42,1.85-.84,2.63-1.28.12-.07.24-.14.36-.21.32-.19.62-.38.9-.58.04-.03.08-.05.12-.08.31-.22.58-.44.84-.66.08-.07.15-.14.23-.21.18-.16.34-.33.49-.5.06-.07.13-.14.19-.21.18-.23.35-.45.48-.68.02-.03.02-.06.04-.09.11-.2.19-.4.25-.61,0-.02.01-.04.02-.06.02-.06.03-.12.05-.18.05-.22.09-.45.09-.67,0-2.16-2.4-4.2-6.68-6.01v-88.69l-.07-5.46.07-.28v-2.52c-1.23-1.29-1.88-2.62-1.88-3.97,0-.28.03-.56.08-.84h0l-.08-6.78c0-12.76,56.88-23.1,127.04-23.1s127.04,10.34,127.04,23.1v7.62c0,1.35-.65,2.68-1.88,3.97v96.95c-4.28,1.81-6.68,3.85-6.68,6.01,0,.23.04.45.09.67.01.06.03.12.05.18,0,.02.01.04.02.06.06.2.15.41.25.61.02.03.02.06.04.09.13.23.29.46.48.68.06.07.12.14.19.21.15.17.31.33.49.5.08.07.15.14.23.21.26.22.53.44.84.66.04.03.08.05.12.08.28.19.58.39.9.58.12.07.24.14.36.21.78.44,1.65.87,2.63,1.28v123.05c-4.28,1.81-6.68,3.85-6.68,6.01,0,.26.04.51.11.77.02.06.04.12.06.18.06.18.13.36.23.54.04.08.09.16.14.25.1.16.21.33.34.49.06.07.11.15.18.22.2.23.42.45.67.68.03.03.07.06.1.08.23.2.48.4.75.59.1.07.21.14.31.21.23.16.48.31.73.47.12.07.23.14.35.21.79.45,1.69.89,2.7,1.32v106.72c1.51,1.96,2.31,3.98,2.31,6.05h0Z"/></clipPath><clipPath id="clippath-1"><path class="cls-1" d="M0,0v511h1076V0H0ZM847.92,406.41v11.83c0,15.5-50.28,28.06-112.3,28.06-26.54,0-50.92-2.3-70.14-6.15v4.29c0,17.59-57.07,31.85-127.47,31.85s-127.47-14.26-127.47-31.85v-2.56c-17.46,2.79-38.22,4.41-60.49,4.41-62.02,0-112.3-12.56-112.3-28.06v-11.83h0c0-1.82.7-3.61,2.03-5.33v-94.02c.89-.38,1.68-.77,2.38-1.17.11-.06.21-.12.31-.18.23-.14.44-.27.65-.41.09-.06.19-.12.27-.19.24-.17.46-.35.67-.52.03-.02.06-.05.09-.07.22-.2.41-.4.59-.6.06-.06.1-.13.15-.2.11-.14.21-.29.3-.43.04-.07.08-.13.11-.2.08-.15.14-.3.19-.45,0-.01.01-.03.02-.04.02-.05.04-.1.05-.15.06-.23.1-.45.1-.68,0-1.9-2.12-3.7-5.88-5.29v-108.4c.86-.37,1.63-.74,2.31-1.13.11-.06.21-.12.32-.18.28-.17.55-.34.79-.51.03-.02.07-.05.11-.07.27-.19.51-.38.74-.58.07-.06.13-.12.2-.18.16-.14.3-.29.43-.44.06-.06.11-.12.17-.19.16-.2.31-.4.42-.6.01-.03.02-.05.04-.08.09-.18.17-.36.22-.54,0-.02.01-.04.02-.06.02-.05.03-.1.04-.16.05-.2.08-.39.08-.59,0-1.9-2.12-3.7-5.88-5.29v-85.42c-1.08-1.14-1.65-2.31-1.65-3.5v-6.72c0-11.24,50.11-20.35,111.92-20.35,22.48,0,43.41,1.21,60.94,3.28l-.03-2.17c0-12.76,56.88-23.1,127.04-23.1s127.04,10.34,127.04,23.1v3.45c19.26-2.85,43.82-4.56,70.57-4.56,61.81,0,111.92,9.11,111.92,20.35v6.72c0,1.19-.57,2.36-1.65,3.5v85.42c-3.77,1.6-5.88,3.4-5.88,5.29,0,.2.04.39.08.59.01.05.02.1.04.16,0,.02.01.04.02.06.06.18.13.36.22.54.01.03.02.05.04.08.11.2.26.4.42.6.05.06.11.12.16.19.13.15.27.29.43.44.07.06.13.12.2.18.23.19.47.39.74.58.03.02.07.05.11.07.25.17.51.34.79.51.1.06.21.12.32.18.68.39,1.45.76,2.31,1.13v108.4c-3.77,1.6-5.88,3.4-5.88,5.29,0,.23.04.46.1.68.01.05.04.1.05.15,0,.02.01.03.02.05.05.15.11.3.19.45.04.07.07.13.11.2.09.14.19.29.3.43.05.06.1.13.15.19.17.2.37.4.59.6.03.02.06.05.09.07.2.18.43.35.67.52.09.06.18.12.27.19.21.14.42.28.65.41.1.06.2.12.31.18.7.4,1.49.79,2.38,1.17v94.02c1.33,1.73,2.03,3.51,2.03,5.33h0Z"/></clipPath></defs><g id="Ebene_1-2"><g id="Barrels"><g class="cls-10"><g id="Mid_right_barrel"><path class="cls-3" d="M847.92,406.41v11.83c0,15.5-50.28,28.06-112.3,28.06s-112.3-12.56-112.3-28.06v-11.83h10.44c17.86-9.58,56.76-16.23,101.86-16.23s84,6.64,101.86,16.23h10.44ZM735.61,378.35c-62.02,0-112.3,12.56-112.3,28.06s50.28,28.06,112.3,28.06,112.3-12.56,112.3-28.06-50.28-28.06-112.3-28.06ZM845.88,403.9s0-.01,0-.02v-96.81c-3.77-1.6-5.88-3.4-5.88-5.29s2.12-3.7,5.88-5.29v-108.4c-3.77-1.6-5.88-3.4-5.88-5.29s2.12-3.7,5.88-5.29v-95.58h-167.91v346.41c16.77,2.57,36.51,4.06,57.64,4.06,60.93,0,110.33-12.34,110.33-27.56,0-.31-.02-.61-.06-.91ZM777.45,256.18l-34.83-36.63c-3.86-4.06-10.34-4.06-14.21,0l-34.63,36.42c-3.6,3.78-3.6,9.73,0,13.51l34.83,36.63c3.86,4.06,10.34,4.06,14.21,0l34.63-36.42c3.6-3.78,3.6-9.73,0-13.51ZM777.45,255.48l-34.83-36.63c-3.86-4.06-10.34-4.06-14.21,0l-34.63,36.42c-3.6,3.78-3.6,9.73,0,13.51l34.83,36.63c3.86,4.06,10.34,4.06,14.21,0l34.63-36.42c3.6-3.78,3.6-9.73,0-13.51ZM742.15,298.88l29.02-30.52c3.27-3.44,3.27-8.84,0-12.28l-29.19-30.69c-1.7-1.79-3.99-2.77-6.46-2.77s-4.76.98-6.46,2.77l-29.02,30.52c-3.27,3.44-3.27,8.84,0,12.28l29.19,30.69c1.7,1.79,3.99,2.77,6.46,2.77s4.76-.98,6.46-2.77ZM740.98,226.35l29.19,30.69c2.76,2.91,2.76,7.46,0,10.36l-29.02,30.52c-1.43,1.51-3.37,2.34-5.45,2.34s-4.02-.83-5.45-2.34l-29.19-30.69c-2.76-2.91-2.76-7.46,0-10.36l29.02-30.52c1.43-1.51,3.37-2.34,5.45-2.34s4.02.83,5.45,2.34ZM759.68,236.79l-17.06-17.94c-3.86-4.06-10.34-4.06-14.21,0l-34.63,36.42c-3.6,3.78-3.6,9.73,0,13.51l19.27,20.27c27.55-13.92,40.55-35.98,46.63-52.26ZM625.35,81.9v95.58c3.77,1.6,5.88,3.4,5.88,5.29s-2.12,3.7-5.88,5.29v108.4c3.77,1.6,5.88,3.4,5.88,5.29s-2.12,3.7-5.88,5.29v96.81s0,.01,0,.02c-.04.3-.06.61-.06.91,0,9.94,21.08,18.66,52.69,23.51V81.9h-52.63ZM681.98,81.9h-6.42v346.03c2.09.34,4.23.66,6.42.97V81.9ZM633.1,404.81c0-.31.02-.61.06-.91,0,0,0-.01,0-.02v-96.81c3.77-1.6,5.88-3.4,5.88-5.29s-2.12-3.7-5.88-5.29v-108.4c3.77-1.6,5.88-3.4,5.88-5.29s-2.12-3.7-5.88-5.29v-95.58h-7.82v95.58c3.77,1.6,5.88,3.4,5.88,5.29s-2.12,3.7-5.88,5.29v108.4c3.77,1.6,5.88,3.4,5.88,5.29s-2.12,3.7-5.88,5.29v96.81s0,.01,0,.02c-.04.3-.06.61-.06.91,0,15.22,49.4,27.56,110.33,27.56,1.31,0,2.61,0,3.91-.02-59.12-.51-106.42-12.65-106.42-27.55ZM626.36,90.12l-1.07,4.41.06,4.81s17.46,9.93,50.22,13.11v-9.35l-49.21-12.99ZM840,301.87c-16.5,10.37-57.02,17.69-104.39,17.69s-87.89-7.33-104.39-17.69c-.06,1.45-1.35,2.84-3.67,4.12,13.36,11.77,56.68,20.39,108.05,20.39s94.7-8.62,108.05-20.39c-2.32-1.28-3.61-2.67-3.67-4.12ZM843.88,187.12c-2.29-1.23-3.64-2.56-3.85-3.95-16.48,10.37-57.02,17.71-104.41,17.71s-87.93-7.34-104.41-17.71c-.21,1.39-1.56,2.72-3.85,3.95,13.1,11.86,56.61,20.58,108.26,20.58s95.16-8.71,108.26-20.58ZM845.88,296.47v-4.87c-9.98,12.94-55.55,22.72-110.27,22.72s-100.29-9.78-110.27-22.72v4.87c3.77,1.6,5.88,3.4,5.88,5.29,0,.48-.14.96-.4,1.42,16.24,10.5,57.03,17.94,104.78,17.94s88.54-7.45,104.78-17.94c-.26-.47-.4-.94-.4-1.42,0-1.9,2.12-3.7,5.88-5.29ZM840.18,183.74c-.12-.32-.18-.64-.18-.96,0-1.9,2.12-3.7,5.88-5.29v-5.47c-9.98,12.94-55.55,22.72-110.27,22.72s-100.29-9.78-110.27-22.72v5.47c3.77,1.6,5.88,3.4,5.88,5.29,0,.32-.06.65-.18.96,16.39,10.42,57.03,17.81,104.57,17.81s88.18-7.38,104.57-17.81ZM699.87,400.54v-2.57s-.15.97,0,2.57ZM839.19,303.94l.75-7.27v-106.67l-2.22-4.81,2.44-8.25v-91.12l-3.19,5.11v87.83l-2.42,8.01,2.42,4.96v106.43l-2.42,8.2,2.82,3.85v105.27c1.58-.94,2.96-1.9,4.12-2.89v-104.88l-2.29-3.77ZM839.19,303.94l.75-7.27v-106.67l-2.22-4.81,2.44-8.25v-91.12l-3.19,5.11v87.83l-2.42,8.01,2.42,4.96v106.43l-2.42,8.2,2.82,3.85v105.27c1.58-.94,2.96-1.9,4.12-2.89v-104.88l-2.29-3.77ZM841.3,81.85c-15.26-7.94-56.81-13.63-105.68-13.63s-90.42,5.69-105.68,13.63h-6.24l.07,5.97h0c-.05.25-.07.49-.07.74,0,11.24,50.11,20.35,111.92,20.35s111.92-9.11,111.92-20.35v-6.72h-6.24ZM735.61,61.5c-61.81,0-111.92,9.11-111.92,20.35s50.11,20.35,111.92,20.35,111.92-9.11,111.92-20.35-50.11-20.35-111.92-20.35ZM735.61,61.74c-60.9,0-110.27,8.91-110.27,19.91s49.37,19.91,110.27,19.91,110.27-8.91,110.27-19.91-49.37-19.91-110.27-19.91ZM735.61,101.56c55.82,0,101.94-7.49,109.26-17.21-7.31-9.72-53.44-17.21-109.26-17.21s-101.94,7.49-109.26,17.21c7.31,9.72,53.44,17.21,109.26,17.21ZM690.7,76.26c-6.33,0-11.45,1.03-11.45,2.29s5.13,2.29,11.45,2.29,11.45-1.03,11.45-2.29-5.13-2.29-11.45-2.29ZM701.04,70.32v7.7c0,1.23-4.62,2.23-10.33,2.23s-10.33-1-10.33-2.23v-7.7h20.65ZM701.04,70.32v2.2c-1.45.93-5.52,1.6-10.33,1.6s-8.88-.67-10.33-1.6v-2.2h20.65ZM701.61,66.8v4.15c0,1.3-4.88,2.35-10.89,2.35s-10.89-1.05-10.89-2.35v-4.15h21.78ZM701.61,66.8c0,1.3-4.88,2.35-10.89,2.35s-10.89-1.05-10.89-2.35,4.88-2.35,10.89-2.35,10.89,1.05,10.89,2.35ZM700.69,66.8c0,1.1-4.47,2-9.99,2s-9.99-.89-9.99-2,4.47-2,9.99-2,9.99.89,9.99,2ZM764.54,89.97c0,.6-2.44,1.09-5.44,1.09s-5.44-.49-5.44-1.09,2.44-1.09,5.44-1.09,5.44.49,5.44,1.09ZM764.02,86.06v3.66c0,.58-2.2,1.06-4.91,1.06s-4.91-.47-4.91-1.06v-3.66h9.81ZM764.02,86.06v1.05c-.69.44-2.62.76-4.91.76s-4.22-.32-4.91-.76v-1.05h9.81ZM764.29,84.38v1.97c0,.62-2.32,1.12-5.17,1.12s-5.17-.5-5.17-1.12v-1.97h10.35ZM764.29,84.38c0,.62-2.32,1.12-5.17,1.12s-5.17-.5-5.17-1.12,2.32-1.12,5.17-1.12,5.17.5,5.17,1.12ZM763.85,84.38c0,.52-2.13.95-4.75.95s-4.75-.42-4.75-.95,2.13-.95,4.75-.95,4.75.42,4.75.95Z"/><path class="cls-7" d="M828.56,411.18c-9.43,3.87-20.51,5.72-26.86,6.52v-96.69l6.42-6.51-8.14-5.34v-106.72l7.37-7.37-8.26-5.26v-6.65c-70.36,0-91.4-7.39-91.4-7.39,46.3,3.61,91.4-3.77,91.4-3.77v-78.01l27.37-3.06v92.23l-1.43,7.3,3.52,4.97v106.44l-1.71,7.57,1.71,4.59v97.15ZM699.87,397.96v2.57c.53,5.67,4.86,19.21,33.16,25.1v-49.66c-14.39-4.88-26.63-14.97-33.16-21.11v43.1ZM738.2,320.08l-5.17-7.05v-106.79l4.16-5.82-4.16-7.14v-88.46h-33.16v88.46l4.16,7.14-4.16,5.82v106.79l5.17,7.05-5.17,4.85v29.93c6.53,6.14,18.77,16.24,33.16,21.11v-51.04l5.17-4.85Z"/></g><g id="Mid_left_barrel"><path class="cls-3" d="M248.18,406.41c17.86-9.58,56.76-16.23,101.86-16.23s84,6.64,101.86,16.23h10.44v11.83c0,15.5-50.28,28.06-112.3,28.06s-112.3-12.56-112.3-28.06v-11.83h10.44ZM237.74,406.41c0,15.5,50.28,28.06,112.3,28.06s112.3-12.56,112.3-28.06-50.28-28.06-112.3-28.06-112.3,12.56-112.3,28.06ZM239.71,404.81c0,15.22,49.4,27.56,110.33,27.56,21.13,0,40.87-1.48,57.64-4.06V81.9h-167.91v95.58c3.77,1.6,5.88,3.4,5.88,5.29s-2.12,3.7-5.88,5.29v108.4c3.77,1.6,5.88,3.4,5.88,5.29s-2.12,3.7-5.88,5.29v96.81s0,.01,0,.02c-.04.3-.06.61-.06.91ZM308.21,269.69l34.63,36.42c3.86,4.06,10.34,4.06,14.21,0l34.83-36.63c3.6-3.78,3.6-9.73,0-13.51l-34.63-36.42c-3.86-4.06-10.34-4.06-14.21,0l-34.83,36.63c-3.6,3.78-3.6,9.73,0,13.51ZM308.21,268.99l34.63,36.42c3.86,4.06,10.34,4.06,14.21,0l34.83-36.63c3.6-3.78,3.6-9.73,0-13.51l-34.63-36.42c-3.86-4.06-10.34-4.06-14.21,0l-34.83,36.63c-3.6,3.78-3.6,9.73,0,13.51ZM343.5,298.88l-29.02-30.52c-3.27-3.44-3.27-8.84,0-12.28l29.19-30.69c1.7-1.79,3.99-2.77,6.46-2.77s4.76.98,6.46,2.77l29.02,30.52c3.27,3.44,3.27,8.84,0,12.28l-29.19,30.69c-1.7,1.79-3.99,2.77-6.46,2.77s-4.76-.98-6.46-2.77ZM344.68,226.35l-29.19,30.69c-2.76,2.91-2.76,7.46,0,10.36l29.02,30.52c1.43,1.51,3.37,2.34,5.45,2.34s4.02-.83,5.45-2.34l29.19-30.69c2.76-2.91,2.76-7.46,0-10.36l-29.02-30.52c-1.43-1.51-3.37-2.34-5.45-2.34s-4.02.83-5.45,2.34ZM372.6,289.05l19.27-20.27c3.6-3.78,3.6-9.73,0-13.51l-34.63-36.42c-3.86-4.06-10.34-4.06-14.21,0l-17.06,17.94c6.08,16.28,19.07,38.34,46.63,52.26ZM407.68,81.9v346.41c31.61-4.85,52.69-13.56,52.69-23.51,0-.31-.02-.61-.06-.91,0,0,0-.01,0-.02v-96.81c-3.77-1.6-5.88-3.4-5.88-5.29s2.12-3.7,5.88-5.29v-108.4c-3.77-1.6-5.88-3.4-5.88-5.29s2.12-3.7,5.88-5.29v-95.58h-52.63ZM403.67,428.9c2.19-.3,4.32-.63,6.42-.97V81.9h-6.42v347ZM346.13,432.35c1.3.01,2.6.02,3.91.02,60.93,0,110.33-12.34,110.33-27.56,0-.31-.02-.61-.06-.91,0,0,0-.01,0-.02v-96.81c-3.77-1.6-5.88-3.4-5.88-5.29s2.12-3.7,5.88-5.29v-108.4c-3.77-1.6-5.88-3.4-5.88-5.29s2.12-3.7,5.88-5.29v-95.58h-7.82v95.58c-3.77,1.6-5.88,3.4-5.88,5.29s2.12,3.7,5.88,5.29v108.4c-3.77,1.6-5.88,3.4-5.88,5.29s2.12,3.7,5.88,5.29v96.81s0,.01,0,.02c.04.3.06.61.06.91,0,14.9-47.3,27.03-106.42,27.55ZM410.09,103.11v9.35c32.76-3.18,50.22-13.11,50.22-13.11l.06-4.81-1.07-4.41-49.21,12.99ZM241.99,305.99c13.36,11.77,56.68,20.39,108.05,20.39s94.7-8.62,108.05-20.39c-2.32-1.28-3.61-2.67-3.67-4.12-16.5,10.37-57.02,17.69-104.39,17.69s-87.89-7.33-104.39-17.69c-.06,1.45-1.35,2.84-3.67,4.12ZM350.04,207.69c51.65,0,95.16-8.71,108.26-20.58-2.29-1.23-3.64-2.56-3.85-3.95-16.48,10.37-57.02,17.71-104.41,17.71s-87.93-7.34-104.41-17.71c-.21,1.39-1.56,2.72-3.85,3.95,13.1,11.86,56.61,20.58,108.26,20.58ZM245.66,301.77c0,.48-.14.96-.4,1.42,16.24,10.5,57.03,17.94,104.78,17.94s88.54-7.45,104.78-17.94c-.26-.47-.4-.94-.4-1.42,0-1.9,2.12-3.7,5.88-5.29v-4.87c-9.98,12.94-55.55,22.72-110.27,22.72s-100.29-9.78-110.27-22.72v4.87c3.77,1.6,5.88,3.4,5.88,5.29ZM350.04,201.54c47.54,0,88.18-7.38,104.57-17.81-.12-.32-.18-.64-.18-.96,0-1.9,2.12-3.7,5.88-5.29v-5.47c-9.98,12.94-55.55,22.72-110.27,22.72s-100.29-9.78-110.27-22.72v5.47c3.77,1.6,5.88,3.4,5.88,5.29,0,.32-.06.65-.18.96,16.39,10.42,57.03,17.81,104.57,17.81ZM385.79,397.96v2.57c.15-1.6,0-2.57,0-2.57ZM244.18,307.71v104.88c1.16.99,2.54,1.95,4.12,2.89v-105.27l2.82-3.85-2.42-8.2v-106.43l2.42-4.96-2.42-8.01v-87.83l-3.19-5.11v91.12l2.44,8.25-2.22,4.81v106.67l.75,7.27-2.29,3.77ZM244.18,307.71v104.88c1.16.99,2.54,1.95,4.12,2.89v-105.27l2.82-3.85-2.42-8.2v-106.43l2.42-4.96-2.42-8.01v-87.83l-3.19-5.11v91.12l2.44,8.25-2.22,4.81v106.67l.75,7.27-2.29,3.77ZM238.12,81.85v6.72c0,11.24,50.11,20.35,111.92,20.35s111.92-9.11,111.92-20.35c0-.25-.03-.5-.07-.74h0l.07-5.97h-6.24c-15.26-7.94-56.81-13.63-105.68-13.63s-90.42,5.69-105.68,13.63h-6.24ZM238.12,81.85c0,11.24,50.11,20.35,111.92,20.35s111.92-9.11,111.92-20.35-50.11-20.35-111.92-20.35-111.92,9.11-111.92,20.35ZM239.77,81.65c0,11,49.37,19.91,110.27,19.91s110.27-8.91,110.27-19.91-49.37-19.91-110.27-19.91-110.27,8.91-110.27,19.91ZM459.3,84.36c-7.31-9.72-53.44-17.21-109.26-17.21s-101.94,7.49-109.26,17.21c7.31,9.72,53.44,17.21,109.26,17.21s101.94-7.49,109.26-17.21ZM383.51,78.55c0,1.26,5.13,2.29,11.45,2.29s11.45-1.03,11.45-2.29-5.13-2.29-11.45-2.29-11.45,1.03-11.45,2.29ZM405.26,70.32v7.7c0,1.23-4.62,2.23-10.33,2.23s-10.33-1-10.33-2.23v-7.7h20.65ZM405.26,70.32v2.2c-1.45.93-5.52,1.6-10.33,1.6s-8.88-.67-10.33-1.6v-2.2h20.65ZM405.83,66.8v4.15c0,1.3-4.88,2.35-10.89,2.35s-10.89-1.05-10.89-2.35v-4.15h21.78ZM394.94,64.45c6.01,0,10.89,1.05,10.89,2.35s-4.88,2.35-10.89,2.35-10.89-1.05-10.89-2.35,4.88-2.35,10.89-2.35ZM394.96,64.8c5.52,0,9.99.89,9.99,2s-4.47,2-9.99,2-9.99-.89-9.99-2,4.47-2,9.99-2ZM326.55,88.88c3.01,0,5.44.49,5.44,1.09s-2.44,1.09-5.44,1.09-5.44-.49-5.44-1.09,2.44-1.09,5.44-1.09ZM331.45,86.06v3.66c0,.58-2.2,1.06-4.91,1.06s-4.91-.47-4.91-1.06v-3.66h9.81ZM331.45,86.06v1.05c-.69.44-2.62.76-4.91.76s-4.22-.32-4.91-.76v-1.05h9.81ZM331.72,84.38v1.97c0,.62-2.32,1.12-5.17,1.12s-5.17-.5-5.17-1.12v-1.97h10.35ZM326.55,83.27c2.86,0,5.17.5,5.17,1.12s-2.32,1.12-5.17,1.12-5.17-.5-5.17-1.12,2.32-1.12,5.17-1.12ZM326.55,83.43c2.62,0,4.75.42,4.75.95s-2.13.95-4.75.95-4.75-.42-4.75-.95,2.13-.95,4.75-.95Z"/><path class="cls-6" d="M385.79,397.96v2.57c-.53,5.67-4.86,19.21-33.16,25.1v-49.66c14.39-4.88,26.63-14.97,33.16-21.11v43.1ZM257.1,411.18c9.43,3.87,20.51,5.72,26.86,6.52v-96.69l-6.42-6.51,8.14-5.34v-106.72l-7.37-7.37,8.26-5.26v-6.65c70.36,0,91.4-7.39,91.4-7.39-46.3,3.61-91.4-3.77-91.4-3.77v-78.01l-27.37-3.06v92.23l1.43,7.3-3.52,4.97v106.44l1.71,7.57-1.71,4.59v97.15ZM347.46,320.08l5.17-7.05v-106.79l-4.16-5.82,4.16-7.14v-88.46h33.16v88.46l-4.16,7.14,4.16,5.82v106.79l-5.17,7.05,5.17,4.85v29.93c-6.53,6.14-18.77,16.24-33.16,21.11v-51.04l-5.17-4.85Z"/></g><g id="Most_outer_barrels"><g class="cls-9"><path class="cls-5" d="M998.34,380.21v10.11c0,13.24-42.96,23.97-95.96,23.97s-95.96-10.73-95.96-23.97v-10.11h8.92c15.26-8.19,48.5-13.87,87.04-13.87s71.77,5.68,87.04,13.87h8.92ZM902.39,356.24c-53,0-95.96,10.73-95.96,23.97s42.96,23.97,95.96,23.97,95.96-10.73,95.96-23.97-42.96-23.97-95.96-23.97ZM996.6,378.07s0-.01,0-.02v-82.72c-3.22-1.37-5.03-2.9-5.03-4.52s1.81-3.16,5.03-4.52v-92.63c-3.22-1.37-5.03-2.9-5.03-4.52s1.81-3.16,5.03-4.52v-81.67h-143.47v296c14.33,2.2,31.2,3.47,49.25,3.47,52.07,0,94.27-10.54,94.27-23.55,0-.26-.02-.52-.05-.78ZM938.13,251.85l-29.76-31.3c-3.3-3.47-8.84-3.47-12.14,0l-29.59,31.12c-3.08,3.23-3.08,8.31,0,11.54l29.76,31.3c3.3,3.47,8.84,3.47,12.14,0l29.59-31.12c3.08-3.23,3.08-8.31,0-11.54ZM938.13,251.25l-29.76-31.3c-3.3-3.47-8.84-3.47-12.14,0l-29.59,31.12c-3.08,3.23-3.08,8.31,0,11.54l29.76,31.3c3.3,3.47,8.84,3.47,12.14,0l29.59-31.12c3.08-3.23,3.08-8.31,0-11.54ZM907.97,288.33l24.8-26.08c2.8-2.94,2.8-7.55,0-10.49l-24.94-26.22c-1.45-1.53-3.41-2.37-5.52-2.37s-4.07.84-5.52,2.37l-24.8,26.08c-2.8,2.94-2.8,7.55,0,10.49l24.94,26.22c1.45,1.53,3.41,2.37,5.52,2.37s4.07-.84,5.52-2.37ZM906.97,226.36l24.94,26.22c2.36,2.48,2.36,6.37,0,8.85l-24.8,26.08c-1.22,1.29-2.88,2-4.66,2s-3.43-.71-4.66-2l-24.94-26.22c-2.36-2.48-2.36-6.37,0-8.85l24.8-26.08c1.22-1.29,2.88-2,4.66-2s3.43.71,4.66,2ZM922.95,235.28l-14.58-15.33c-3.3-3.47-8.84-3.47-12.14,0l-29.59,31.12c-3.08,3.23-3.08,8.31,0,11.54l16.47,17.32c23.54-11.9,34.65-30.75,39.84-44.65ZM808.16,102.93v81.67c3.22,1.37,5.03,2.9,5.03,4.52s-1.81,3.16-5.03,4.52v92.63c3.22,1.37,5.03,2.9,5.03,4.52s-1.81,3.16-5.03,4.52v82.72s0,.01,0,.02c-.03.26-.05.52-.05.78,0,8.5,18.01,15.94,45.02,20.09V102.93h-44.97ZM856.56,102.93h-5.48v295.68c1.79.29,3.61.57,5.48.83V102.93ZM814.79,378.84c0-.26.02-.52.05-.78,0,0,0-.01,0-.02v-82.72c3.22-1.37,5.03-2.9,5.03-4.52s-1.81-3.16-5.03-4.52v-92.63c3.22-1.37,5.03-2.9,5.03-4.52s-1.81-3.16-5.03-4.52v-81.67h-6.68v81.67c3.22,1.37,5.03,2.9,5.03,4.52s-1.81,3.16-5.03,4.52v92.63c3.22,1.37,5.03,2.9,5.03,4.52s-1.81,3.16-5.03,4.52v82.72s0,.01,0,.02c-.03.26-.05.52-.05.78,0,13.01,42.21,23.55,94.27,23.55,1.12,0,2.23,0,3.34-.01-50.52-.44-90.93-10.81-90.93-23.54ZM809.03,109.95l-.92,3.77.05,4.11s14.92,8.48,42.91,11.2v-7.99l-42.05-11.1ZM991.58,290.89c-14.1,8.86-48.72,15.12-89.2,15.12s-75.1-6.26-89.2-15.12c-.05,1.24-1.15,2.42-3.13,3.52,11.41,10.05,48.43,17.42,92.33,17.42s80.92-7.37,92.33-17.42c-1.98-1.1-3.08-2.28-3.13-3.52ZM994.89,192.84c-1.96-1.05-3.11-2.19-3.29-3.37-14.09,8.86-48.72,15.13-89.22,15.13s-75.13-6.27-89.22-15.13c-.18,1.19-1.33,2.32-3.29,3.37,11.2,10.14,48.37,17.58,92.51,17.58s81.31-7.44,92.51-17.58ZM996.61,286.28v-4.16c-8.53,11.06-47.47,19.41-94.22,19.41s-85.69-8.35-94.22-19.41v4.16c3.22,1.37,5.03,2.9,5.03,4.52,0,.41-.12.82-.34,1.22,13.88,8.97,48.73,15.33,89.54,15.33s75.66-6.36,89.54-15.33c-.23-.4-.34-.8-.34-1.22,0-1.62,1.81-3.16,5.03-4.52ZM991.74,189.95c-.1-.27-.16-.55-.16-.82,0-1.62,1.81-3.16,5.03-4.52v-4.67c-8.53,11.06-47.47,19.41-94.22,19.41s-85.69-8.35-94.22-19.41v4.67c3.22,1.37,5.03,2.9,5.03,4.52,0,.28-.05.55-.16.82,14,8.91,48.73,15.21,89.35,15.21s75.35-6.31,89.35-15.21ZM871.84,375.2v-2.2s-.13.83,0,2.2ZM990.89,292.66l.64-6.22v-91.15l-1.9-4.11,2.08-7.05v-77.86l-2.73,4.37v75.05l-2.07,6.84,2.07,4.24v90.94l-2.07,7.01,2.41,3.29v89.95c1.35-.8,2.53-1.63,3.52-2.47v-89.62l-1.95-3.22ZM990.89,292.66l.64-6.22v-91.15l-1.9-4.11,2.08-7.05v-77.86l-2.73,4.37v75.05l-2.07,6.84,2.07,4.24v90.94l-2.07,7.01,2.41,3.29v89.95c1.35-.8,2.53-1.63,3.52-2.47v-89.62l-1.95-3.22ZM871.84,373v2.2c.46,4.85,4.15,16.41,28.33,21.44v-42.44c-12.29-4.17-22.76-12.79-28.33-18.04v36.83ZM992.69,102.89c-13.04-6.78-48.54-11.65-90.3-11.65s-77.26,4.87-90.3,11.65h-5.33l.06,5.1h0c-.04.21-.06.42-.06.64,0,9.6,42.82,17.39,95.63,17.39s95.63-7.78,95.63-17.39v-5.74h-5.33ZM902.39,85.5c-52.82,0-95.63,7.78-95.63,17.39s42.82,17.39,95.63,17.39,95.63-7.78,95.63-17.39-42.82-17.39-95.63-17.39ZM902.39,85.7c-52.04,0-94.22,7.62-94.22,17.01s42.18,17.01,94.22,17.01,94.22-7.62,94.22-17.01-42.18-17.01-94.22-17.01ZM902.39,119.73c47.69,0,87.11-6.4,93.36-14.7-6.25-8.3-45.66-14.7-93.36-14.7s-87.11,6.4-93.36,14.7c6.25,8.3,45.66,14.7,93.36,14.7ZM873.79,100.07c0,1.08-4.38,1.96-9.79,1.96s-9.79-.88-9.79-1.96,4.38-1.96,9.79-1.96,9.79.88,9.79,1.96ZM855.2,93.04v6.58c0,1.05,3.95,1.9,8.82,1.9s8.82-.85,8.82-1.9v-6.58h-17.65ZM855.2,93.04v1.88c1.24.8,4.72,1.37,8.82,1.37s7.59-.57,8.82-1.37v-1.88h-17.65ZM854.72,90.03v3.55c0,1.11,4.17,2.01,9.3,2.01s9.3-.9,9.3-2.01v-3.55h-18.61ZM864.02,88.02c-5.14,0-9.3.9-9.3,2.01s4.17,2.01,9.3,2.01,9.3-.9,9.3-2.01-4.17-2.01-9.3-2.01ZM864.01,88.32c-4.71,0-8.54.76-8.54,1.71s3.82,1.71,8.54,1.71,8.54-.76,8.54-1.71-3.82-1.71-8.54-1.71ZM927.1,109.83c0,.51-2.08.93-4.65.93s-4.65-.42-4.65-.93,2.08-.93,4.65-.93,4.65.42,4.65.93ZM918.27,106.48v3.13c0,.5,1.88.9,4.19.9s4.19-.41,4.19-.9v-3.13h-8.38ZM918.27,106.48v.89c.59.38,2.24.65,4.19.65s3.6-.27,4.19-.65v-.89h-8.38ZM918.04,105.05v1.69c0,.53,1.98.95,4.42.95s4.42-.43,4.42-.95v-1.69h-8.84ZM922.46,104.1c-2.44,0-4.42.43-4.42.95s1.98.95,4.42.95,4.42-.43,4.42-.95-1.98-.95-4.42-.95ZM922.45,104.24c-2.24,0-4.06.36-4.06.81s1.82.81,4.06.81,4.06-.36,4.06-.81-1.82-.81-4.06-.81Z"/><path class="cls-2" d="M981.8,384.29c-8.06,3.31-17.53,4.88-22.95,5.57v-82.62l5.49-5.56-6.96-4.56v-91.19l6.3-6.3-7.06-4.49v-5.68c-60.12,0-78.1-6.31-78.1-6.31,39.56,3.08,78.1-3.22,78.1-3.22v-66.66l23.39-2.61v78.81l-1.22,6.23,3.01,4.24v90.95l-1.46,6.47,1.46,3.92v83.01ZM904.59,306.45l-4.42-6.02v-91.25l3.56-4.98-3.56-6.1v-75.58h-28.33v75.58l3.56,6.1-3.56,4.98v91.25l4.42,6.02-4.42,4.14v25.57c5.58,5.25,16.04,13.87,28.33,18.04v-43.61l4.42-4.14Z"/><path class="cls-2" d="M103.85,301.28l1.46-3.92-1.46-6.47v-90.95l3.01-4.24-1.22-6.23v-78.81l23.39,2.61v66.66s38.54,6.3,78.1,3.22c0,0-17.98,6.31-78.1,6.31v5.68l-7.06,4.49,6.3,6.3v91.19l-6.96,4.56,5.49,5.56v82.62c-5.42-.68-14.89-2.26-22.95-5.57v-83.01ZM213.81,336.16c-5.58,5.25-16.04,13.87-28.33,18.04v42.44c24.18-5.03,27.88-16.6,28.33-21.44v-39.03ZM185.48,310.59v43.61c12.29-4.17,22.76-12.79,28.33-18.04v-25.57l-4.42-4.14,4.42-6.02v-91.25l-3.56-4.98,3.56-6.1v-75.58h-28.33v75.58l-3.56,6.1,3.56,4.98v91.25l-4.42,6.02,4.42,4.14Z"/><path class="cls-5" d="M96.23,380.21c15.26-8.19,48.5-13.87,87.04-13.87s71.77,5.68,87.04,13.87h8.92v10.11c0,13.24-42.96,23.97-95.96,23.97s-95.96-10.73-95.96-23.97v-10.11h8.92ZM87.31,380.21c0,13.24,42.96,23.97,95.96,23.97s95.96-10.73,95.96-23.97-42.96-23.97-95.96-23.97-95.96,10.73-95.96,23.97ZM89,378.84c0,13.01,42.21,23.55,94.27,23.55,18.05,0,34.92-1.27,49.25-3.47V102.93H89.05v81.67c3.22,1.37,5.03,2.9,5.03,4.52s-1.81,3.16-5.03,4.52v92.63c3.22,1.37,5.03,2.9,5.03,4.52s-1.81,3.16-5.03,4.52v82.72s0,.01,0,.02c-.03.26-.05.52-.05.78ZM147.52,263.39l29.59,31.12c3.3,3.47,8.84,3.47,12.14,0l29.76-31.3c3.08-3.23,3.08-8.31,0-11.54l-29.59-31.12c-3.3-3.47-8.84-3.47-12.14,0l-29.76,31.3c-3.08,3.23-3.08,8.31,0,11.54ZM147.52,262.8l29.59,31.12c3.3,3.47,8.84,3.47,12.14,0l29.76-31.3c3.08-3.23,3.08-8.31,0-11.54l-29.59-31.12c-3.3-3.47-8.84-3.47-12.14,0l-29.76,31.3c-3.08,3.23-3.08,8.31,0,11.54ZM177.68,288.33l-24.8-26.08c-2.8-2.94-2.8-7.55,0-10.49l24.94-26.22c1.45-1.53,3.41-2.37,5.52-2.37s4.07.84,5.52,2.37l24.8,26.08c2.8,2.94,2.8,7.55,0,10.49l-24.94,26.22c-1.45,1.53-3.41,2.37-5.52,2.37s-4.07-.84-5.52-2.37ZM178.69,226.36l-24.94,26.22c-2.36,2.48-2.36,6.37,0,8.85l24.8,26.08c1.22,1.29,2.88,2,4.66,2s3.43-.71,4.66-2l24.94-26.22c2.36-2.48,2.36-6.37,0-8.85l-24.8-26.08c-1.22-1.29-2.88-2-4.66-2s-3.43.71-4.66,2ZM202.55,279.94l16.47-17.32c3.08-3.23,3.08-8.31,0-11.54l-29.59-31.12c-3.3-3.47-8.84-3.47-12.14,0l-14.58,15.33c5.19,13.91,16.3,32.76,39.84,44.65ZM232.52,102.93v296c27.01-4.14,45.02-11.59,45.02-20.09,0-.26-.02-.52-.05-.78,0,0,0-.01,0-.02v-82.72c-3.22-1.37-5.03-2.9-5.03-4.52s1.81-3.16,5.03-4.52v-92.63c-3.22-1.37-5.03-2.9-5.03-4.52s1.81-3.16,5.03-4.52v-81.67h-44.97ZM229.1,399.43c1.87-.26,3.7-.54,5.48-.83V102.93h-5.48v296.5ZM179.93,402.38c1.11,0,2.22.01,3.34.01,52.07,0,94.27-10.54,94.27-23.55,0-.26-.02-.52-.05-.78,0,0,0-.01,0-.02v-82.72c-3.22-1.37-5.03-2.9-5.03-4.52s1.81-3.16,5.03-4.52v-92.63c-3.22-1.37-5.03-2.9-5.03-4.52s1.81-3.16,5.03-4.52v-81.67h-6.68v81.67c-3.22,1.37-5.03,2.9-5.03,4.52s1.81,3.16,5.03,4.52v92.63c-3.22,1.37-5.03,2.9-5.03,4.52s1.81,3.16,5.03,4.52v82.72s0,.01,0,.02c.03.26.05.52.05.78,0,12.73-40.41,23.1-90.93,23.54ZM234.58,121.05v7.99c27.99-2.72,42.91-11.2,42.91-11.2l.05-4.11-.92-3.77-42.05,11.1ZM90.94,294.41c11.41,10.05,48.43,17.42,92.33,17.42s80.92-7.37,92.33-17.42c-1.98-1.1-3.08-2.28-3.13-3.52-14.1,8.86-48.72,15.12-89.2,15.12s-75.1-6.26-89.2-15.12c-.05,1.24-1.15,2.42-3.13,3.52ZM183.27,210.42c44.14,0,81.31-7.44,92.51-17.58-1.96-1.05-3.11-2.19-3.29-3.37-14.09,8.86-48.72,15.13-89.22,15.13s-75.13-6.27-89.22-15.13c-.18,1.19-1.33,2.32-3.29,3.37,11.2,10.14,48.37,17.58,92.51,17.58ZM94.08,290.8c0,.41-.12.82-.34,1.22,13.88,8.97,48.73,15.33,89.54,15.33s75.66-6.36,89.54-15.33c-.23-.4-.34-.8-.34-1.22,0-1.62,1.81-3.16,5.03-4.52v-4.16c-8.53,11.06-47.47,19.41-94.22,19.41s-85.69-8.35-94.22-19.41v4.16c3.22,1.37,5.03,2.9,5.03,4.52ZM183.27,205.16c40.62,0,75.35-6.31,89.35-15.21-.1-.27-.16-.55-.16-.82,0-1.62,1.81-3.16,5.03-4.52v-4.67c-8.53,11.06-47.47,19.41-94.22,19.41s-85.69-8.35-94.22-19.41v4.67c3.22,1.37,5.03,2.9,5.03,4.52,0,.28-.05.55-.16.82,14,8.91,48.73,15.21,89.35,15.21ZM213.81,373v2.2c.13-1.37,0-2.2,0-2.2ZM92.82,295.88v89.62c.99.84,2.17,1.67,3.52,2.47v-89.95l2.41-3.29-2.07-7.01v-90.94l2.07-4.24-2.07-6.84v-75.05l-2.73-4.37v77.86l2.08,7.05-1.9,4.11v91.15l.64,6.22-1.95,3.22ZM92.82,295.88v89.62c.99.84,2.17,1.67,3.52,2.47v-89.95l2.41-3.29-2.07-7.01v-90.94l2.07-4.24-2.07-6.84v-75.05l-2.73-4.37v77.86l2.08,7.05-1.9,4.11v91.15l.64,6.22-1.95,3.22ZM87.64,102.89v5.74c0,9.6,42.82,17.39,95.63,17.39s95.63-7.78,95.63-17.39c0-.21-.02-.42-.06-.64h0l.06-5.1h-5.33c-13.04-6.78-48.54-11.65-90.3-11.65s-77.26,4.87-90.3,11.65h-5.33ZM87.64,102.89c0,9.6,42.82,17.39,95.63,17.39s95.63-7.78,95.63-17.39-42.82-17.39-95.63-17.39-95.63,7.78-95.63,17.39ZM89.05,102.72c0,9.4,42.18,17.01,94.22,17.01s94.22-7.62,94.22-17.01-42.18-17.01-94.22-17.01-94.22,7.62-94.22,17.01ZM276.63,105.03c-6.25-8.3-45.66-14.7-93.36-14.7s-87.11,6.4-93.36,14.7c6.25,8.3,45.66,14.7,93.36,14.7s87.11-6.4,93.36-14.7ZM221.65,98.11c5.4,0,9.79.88,9.79,1.96s-4.38,1.96-9.79,1.96-9.79-.88-9.79-1.96,4.38-1.96,9.79-1.96ZM212.81,93.04v6.58c0,1.05,3.95,1.9,8.82,1.9s8.82-.85,8.82-1.9v-6.58h-17.65ZM212.81,93.04v1.88c1.24.8,4.72,1.37,8.82,1.37s7.59-.57,8.82-1.37v-1.88h-17.65ZM212.33,90.03v3.55c0,1.11,4.17,2.01,9.3,2.01s9.3-.9,9.3-2.01v-3.55h-18.61ZM212.33,90.03c0,1.11,4.17,2.01,9.3,2.01s9.3-.9,9.3-2.01-4.17-2.01-9.3-2.01-9.3.9-9.3,2.01ZM213.12,90.03c0,.94,3.82,1.71,8.54,1.71s8.54-.76,8.54-1.71-3.82-1.71-8.54-1.71-8.54.76-8.54,1.71ZM163.2,108.9c2.57,0,4.65.42,4.65.93s-2.08.93-4.65.93-4.65-.42-4.65-.93,2.08-.93,4.65-.93ZM159,106.48v3.13c0,.5,1.88.9,4.19.9s4.19-.41,4.19-.9v-3.13h-8.38ZM159,106.48v.89c.59.38,2.24.65,4.19.65s3.6-.27,4.19-.65v-.89h-8.38ZM158.77,105.05v1.69c0,.53,1.98.95,4.42.95s4.42-.43,4.42-.95v-1.69h-8.84ZM158.77,105.05c0,.53,1.98.95,4.42.95s4.42-.43,4.42-.95-1.98-.95-4.42-.95-4.42.43-4.42.95ZM159.15,105.05c0,.45,1.82.81,4.06.81s4.06-.36,4.06-.81-1.82-.81-4.06-.81-4.06.36-4.06.81Z"/></g></g></g><g id="Mid_barrel"><path class="cls-4" d="M665.47,431.01v13.43c0,17.59-57.07,31.85-127.47,31.85s-127.47-14.26-127.47-31.85v-13.43h11.85c20.28-10.88,64.42-18.42,115.62-18.42s95.35,7.54,115.62,18.42h11.85ZM538,399.16c-70.4,0-127.47,14.26-127.47,31.85s57.07,31.85,127.47,31.85,127.47-14.26,127.47-31.85-57.07-31.85-127.47-31.85ZM663.16,428.16s0-.02,0-.02v-109.89c-4.28-1.81-6.68-3.85-6.68-6.01s2.4-4.2,6.68-6.01v-123.05c-4.28-1.81-6.68-3.85-6.68-6.01s2.4-4.2,6.68-6.01V62.66h-190.59v393.21c19.04,2.92,41.45,4.6,65.43,4.6,69.16,0,125.23-14.01,125.23-31.29,0-.35-.03-.69-.07-1.03ZM585.49,260.48l-39.54-41.58c-4.39-4.61-11.74-4.61-16.13,0l-39.31,41.34c-4.09,4.3-4.09,11.04,0,15.34l39.54,41.58c4.39,4.61,11.74,4.61,16.13,0l39.31-41.34c4.09-4.3,4.09-11.04,0-15.34ZM585.49,259.7l-39.54-41.58c-4.39-4.61-11.74-4.61-16.13,0l-39.31,41.34c-4.09,4.3-4.09,11.04,0,15.34l39.54,41.58c4.39,4.61,11.74,4.61,16.13,0l39.31-41.34c4.09-4.3,4.09-11.04,0-15.34ZM545.42,308.95l32.94-34.64c3.72-3.91,3.72-10.03,0-13.94l-33.13-34.84c-1.93-2.03-4.53-3.14-7.33-3.14s-5.4,1.12-7.33,3.14l-32.94,34.64c-3.72,3.91-3.72,10.03,0,13.94l33.13,34.84c1.93,2.03,4.53,3.14,7.33,3.14s5.4-1.12,7.33-3.14ZM544.09,226.63l33.13,34.84c3.14,3.3,3.14,8.46,0,11.76l-32.94,34.64c-1.63,1.71-3.82,2.65-6.18,2.65s-4.56-.94-6.18-2.65l-33.13-34.84c-3.14-3.3-3.14-8.46,0-11.76l32.94-34.64c1.63-1.71,3.82-2.65,6.18-2.65s4.56.94,6.18,2.65ZM565.31,238.48l-19.36-20.36c-4.39-4.61-11.74-4.61-16.13,0l-39.31,41.34c-4.09,4.3-4.09,11.04,0,15.34l21.88,23.01c31.27-15.8,46.03-40.85,52.92-59.32ZM412.84,62.66v108.49c4.28,1.81,6.68,3.85,6.68,6.01s-2.4,4.2-6.68,6.01v123.05c4.28,1.81,6.68,3.85,6.68,6.01s-2.4,4.2-6.68,6.01v109.89s0,.02,0,.02c-.04.34-.07.69-.07,1.03,0,11.29,23.93,21.18,59.81,26.68V62.66h-59.74ZM477.13,62.66h-7.28v392.78c2.37.39,4.8.75,7.28,1.1V62.66ZM421.64,429.19c0-.35.02-.69.07-1.03,0,0,0-.02,0-.02v-109.89c4.28-1.81,6.68-3.85,6.68-6.01s-2.4-4.2-6.68-6.01v-123.05c4.28-1.81,6.68-3.85,6.68-6.01s-2.4-4.2-6.68-6.01V62.66h-8.87v108.49c4.28,1.81,6.68,3.85,6.68,6.01s-2.4,4.2-6.68,6.01v123.05c4.28,1.81,6.68,3.85,6.68,6.01s-2.4,4.2-6.68,6.01v109.89s0,.02,0,.02c-.04.34-.07.69-.07,1.03,0,17.28,56.07,31.29,125.23,31.29,1.49,0,2.96,0,4.44-.02-67.11-.58-120.8-14.36-120.8-31.27ZM413.99,71.99l-1.22,5.01.07,5.46s19.82,11.27,57.01,14.88v-10.61l-55.86-14.74ZM656.49,312.35c-18.73,11.77-64.72,20.08-118.49,20.08s-99.76-8.32-118.49-20.08c-.07,1.65-1.53,3.22-4.16,4.68,15.16,13.36,64.33,23.14,122.65,23.14s107.49-9.78,122.65-23.14c-2.63-1.46-4.09-3.03-4.16-4.68ZM660.89,182.1c-2.6-1.4-4.13-2.91-4.37-4.48-18.71,11.78-64.72,20.1-118.52,20.1s-99.81-8.33-118.52-20.1c-.24,1.58-1.77,3.09-4.37,4.48,14.87,13.47,64.26,23.36,122.89,23.36s108.02-9.89,122.89-23.36ZM663.16,306.22v-5.53c-11.33,14.69-63.06,25.78-125.16,25.78s-113.83-11.1-125.16-25.78v5.53c4.28,1.81,6.68,3.85,6.68,6.01,0,.55-.16,1.09-.46,1.62,18.44,11.92,64.74,20.37,118.94,20.37s100.5-8.45,118.94-20.37c-.3-.53-.46-1.07-.46-1.62,0-2.16,2.4-4.2,6.68-6.01ZM656.69,178.26c-.14-.36-.21-.73-.21-1.1,0-2.16,2.4-4.2,6.68-6.01v-6.21c-11.33,14.69-63.06,25.78-125.16,25.78s-113.83-11.1-125.16-25.78v6.21c4.28,1.81,6.68,3.85,6.68,6.01,0,.37-.07.73-.21,1.1,18.6,11.83,64.73,20.21,118.69,20.21s100.09-8.38,118.69-20.21ZM497.43,424.34v-2.92s-.17,1.11,0,2.92ZM655.56,314.7l.85-8.26v-121.08l-2.52-5.46,2.76-9.36v-103.42l-3.62,5.8v99.7l-2.75,9.09,2.75,5.63v120.81l-2.75,9.31,3.2,4.37v119.49c1.79-1.07,3.36-2.16,4.68-3.28v-119.05l-2.6-4.28ZM655.56,314.7l.85-8.26v-121.08l-2.52-5.46,2.76-9.36v-103.42l-3.62,5.8v99.7l-2.75,9.09,2.75,5.63v120.81l-2.75,9.31,3.2,4.37v119.49c1.79-1.07,3.36-2.16,4.68-3.28v-119.05l-2.6-4.28ZM657.96,62.61c-17.32-9.01-64.49-15.48-119.96-15.48s-102.64,6.46-119.96,15.48h-7.08l.08,6.78h0c-.06.28-.08.56-.08.84,0,12.76,56.88,23.1,127.04,23.1s127.04-10.34,127.04-23.1v-7.62h-7.08ZM538,39.51c-70.16,0-127.04,10.34-127.04,23.1s56.88,23.1,127.04,23.1,127.04-10.34,127.04-23.1-56.88-23.1-127.04-23.1ZM538,39.78c-69.13,0-125.16,10.12-125.16,22.6s56.04,22.6,125.16,22.6,125.16-10.12,125.16-22.6-56.04-22.6-125.16-22.6ZM538,84.98c63.35,0,115.71-8.5,124.01-19.53-8.3-11.03-60.66-19.53-124.01-19.53s-115.71,8.5-124.01,19.53c8.3,11.03,60.66,19.53,124.01,19.53ZM487.02,56.26c-7.18,0-13,1.16-13,2.6s5.82,2.6,13,2.6,13-1.16,13-2.6-5.82-2.6-13-2.6ZM498.76,49.52v8.74c0,1.4-5.25,2.53-11.72,2.53s-11.72-1.13-11.72-2.53v-8.74h23.44ZM498.76,49.52v2.5c-1.64,1.06-6.27,1.82-11.72,1.82s-10.08-.76-11.72-1.82v-2.5h23.44ZM499.4,45.52v4.71c0,1.47-5.53,2.67-12.36,2.67s-12.36-1.19-12.36-2.67v-4.71h24.72ZM499.4,45.52c0,1.47-5.53,2.67-12.36,2.67s-12.36-1.19-12.36-2.67,5.53-2.67,12.36-2.67,12.36,1.19,12.36,2.67ZM498.36,45.52c0,1.25-5.08,2.27-11.34,2.27s-11.34-1.02-11.34-2.27,5.08-2.27,11.34-2.27,11.34,1.02,11.34,2.27ZM570.84,71.83c0,.68-2.77,1.24-6.18,1.24s-6.18-.55-6.18-1.24,2.77-1.24,6.18-1.24,6.18.55,6.18,1.24ZM570.24,67.39v4.15c0,.66-2.49,1.2-5.57,1.2s-5.57-.54-5.57-1.2v-4.15h11.14ZM570.24,67.39v1.19c-.78.5-2.98.86-5.57.86s-4.79-.36-5.57-.86v-1.19h11.14ZM570.54,65.49v2.24c0,.7-2.63,1.27-5.87,1.27s-5.87-.57-5.87-1.27v-2.24h11.75ZM570.54,65.49c0,.7-2.63,1.27-5.87,1.27s-5.87-.57-5.87-1.27,2.63-1.27,5.87-1.27,5.87.57,5.87,1.27ZM570.05,65.49c0,.6-2.41,1.08-5.39,1.08s-5.39-.48-5.39-1.08,2.41-1.08,5.39-1.08,5.39.48,5.39,1.08Z"/><path class="cls-8" d="M643.5,436.43c-10.71,4.39-23.28,6.49-30.49,7.4v-109.75l7.29-7.39-9.24-6.06v-121.14l8.37-8.37-9.37-5.97v-7.55c-79.86,0-103.75-8.39-103.75-8.39,52.56,4.1,103.75-4.28,103.75-4.28v-88.55l31.07-3.47v104.69l-1.62,8.28,4,5.64v120.82l-1.94,8.59,1.94,5.21v110.27ZM497.43,421.42v2.92c.61,6.44,5.52,21.8,37.64,28.49v-56.37c-16.33-5.54-30.23-16.99-37.64-23.96v48.93ZM540.93,333.02l-5.87-8v-121.22l4.73-6.61-4.73-8.11v-100.4h-37.64v100.4l4.73,8.11-4.73,6.61v121.22l5.87,8-5.87,5.5v33.97c7.41,6.97,21.31,18.43,37.64,23.96v-57.93l5.87-5.5Z"/></g></g></g></svg>