<?xml version="1.0" encoding="UTF-8"?><svg id="Ebene_1" xmlns="http://www.w3.org/2000/svg" xmlns:xlink="http://www.w3.org/1999/xlink" viewBox="0 0 485.02 481.49"><defs><style>.cls-1,.cls-2{fill:#5cb1b3;}.cls-3{opacity:.46;}.cls-3,.cls-4{isolation:isolate;}.cls-4{opacity:.6;}.cls-5{fill:#61888c;}.cls-6{fill:#c2dee0;}.cls-7{fill:#6da3af;}.cls-8,.cls-9,.cls-10,.cls-11,.cls-12,.cls-13,.cls-14,.cls-15,.cls-16,.cls-17,.cls-18,.cls-19,.cls-20,.cls-21,.cls-22,.cls-23,.cls-24,.cls-25,.cls-26,.cls-27{fill:none;}.cls-8,.cls-9,.cls-10,.cls-11,.cls-12,.cls-14,.cls-15{stroke:#e9eaed;}.cls-8,.cls-9,.cls-10,.cls-11,.cls-12,.cls-14,.cls-15,.cls-16,.cls-17,.cls-18,.cls-19,.cls-20,.cls-21,.cls-22,.cls-23,.cls-24,.cls-25,.cls-26,.cls-27{stroke-linecap:round;stroke-linejoin:round;}.cls-8,.cls-20{stroke-width:.31px;}.cls-9,.cls-18{stroke-width:.3px;}.cls-10,.cls-19{stroke-width:.31px;}.cls-11,.cls-17{stroke-width:.3px;}.cls-12,.cls-16{stroke-width:.26px;}.cls-13,.cls-16,.cls-17,.cls-18,.cls-19,.cls-20,.cls-21,.cls-22,.cls-23,.cls-24,.cls-25,.cls-26,.cls-27,.cls-2{stroke:#4d4d4d;}.cls-13,.cls-2{stroke-miterlimit:10;}.cls-14,.cls-22{stroke-width:.79px;}.cls-15{stroke-width:.43px;}.cls-28{opacity:.4;}.cls-29{opacity:.41;}.cls-30{opacity:.52;}.cls-31{opacity:.17;}.cls-32{opacity:.3;}.cls-21{stroke-width:.79px;}.cls-23{stroke-width:.49px;}.cls-24{stroke-width:.56px;}.cls-25{stroke-width:.57px;}.cls-26{stroke-width:.57px;}.cls-27{stroke-width:1.58px;}.cls-33{fill:#54c1d3;}.cls-34{fill:#e9eaed;}.cls-35{opacity:.5;}.cls-35,.cls-36{fill:#4d4d4d;}.cls-36{opacity:.26;}.cls-37{clip-path:url(#clippath);}</style><clipPath id="clippath"><circle class="cls-13" cx="256.04" cy="231.46" r="131.42"/></clipPath></defs><g id="beaker-and-microbes-product"><g id="beaker"><g id="flask"><path class="cls-22" d="M75.96,480.5c-7.99.02-15.97-.5-23.89-1.53-3.67-.49-7.32-1.09-10.94-1.85-3.25-.68-7.32-.71-9.53-3.42-.54-.69-1.17-1.31-1.87-1.83-.35-.32-.76-.58-1.2-.75-.33-.07-.67-.08-1-.03-7.67.6-14.94-3.61-20.35-8.78-4.1-3.88-6.93-9.11-6.13-14.89.16-1.25.08-3.11.6-4.32l53.91-112.06c.73-1.53,2.48-8.14,2.48-9.83v-26.34c6.12,1.8,6.7,2.74,17.94,2.74s12.54-1.2,18.64-3.01v23.86c0,3.94.88,7.83,2.58,11.38l53.74,112.35c.71,1.35,1.08,2.86,1.09,4.38-.04,6.36-2.67,12.44-7.27,16.83-2.68,2.51-4.97,4.38-8.38,5.66-3.74,1.43-7.73,2.12-11.73,2.04-.34-.04-.68.02-1,.15-.19.11-.36.26-.51.43-1.29,1.38-2.41,3.14-4.21,3.68s-3.64.96-5.48,1.37c-3.82.86-7.68,1.54-11.55,2.07-8.6,1.16-17.28,1.73-25.96,1.7"/><path class="cls-22" d="M97.49,290.29c0,1.61.16,3.09-2.62,4.29-4.21,1.8-11.12,3.01-18.89,3.01s-14.66-1.2-18.89-3.01c-2.78-1.2-2.62-2.69-2.62-4.29,0-4.04,8.64-7.31,21.52-7.31s21.52,3.27,21.52,7.31Z"/><path class="cls-22" d="M94.01,288.32c.6.28.87.99.59,1.6-.12.26-.33.47-.59.59-3.96,2.02-10.56,3.34-18.04,3.34s-13.83-1.27-17.81-3.23c-.66-.34-.93-1.16-.58-1.82.13-.25.33-.45.58-.58,3.98-1.96,10.48-3.24,17.81-3.24,7.48,0,14.06,1.32,18.04,3.34Z"/><polygon class="cls-22" points="94.34 294.58 94.34 294.58 95.39 294.58 94.34 294.58"/><path class="cls-22" d="M92.5,295.45v.08c-1.1.26-2.54.6-4.21.88l4.21-.97Z"/><path class="cls-22" d="M147.79,459.91l-7.51,7.08-9.02,3.61s6.27-7.93,1.52-21.98c-10.58-31.37-45.27-122.86-45.27-122.86-.19-.97-.28-1.96-.28-2.95v-20.54c0-.76-.62-1.38-1.38-1.38-.06,0-.13,0-.19.01-2.85.36-5.72.53-8.59.5-15.3-.02-18.91-3.49-18.91-3.49l-.13-3.07c6.07,1.8,10.75,2.74,19.04,2.74,3.78-.07,7.55-.47,11.26-1.2,1.64-.31,3.08-.6,4.21-.88,1.46-.35,2.34-.6,2.34-.6v2.67c-.48.54-1.07.97-1.73,1.26-.37.2-.6.6-.6,1.02v22.39c-.01,1.37.15,2.73.49,4.06,0,0,40.29,84.22,53.23,112.91,6.78,15,1.53,20.71,1.53,20.71Z"/><path class="cls-22" d="M89.64,286.63c3.48.65,8.27,2.79,2.62,5.31-4.92,1.99-10.32,2.44-15.56,2.57-5.26,0-10.61-.42-15.63-2.06-4.73-1.58-5.69-3.91-.19-5.41-.97.36-1.88.86-2.71,1.47-2.77,2.27,4.76,3.67,6.16,3.95,4.09.71,8.24,1.03,12.39.96,4.15,0,8.29-.42,12.35-1.27,6.24-1.49,7.56-3.22.6-5.51h-.02Z"/><path class="cls-22" d="M95.08,295.07l-.42-.97c2.32-1,2.31-2.07,2.31-3.56v-.25c0-3.29-7.36-6.79-20.99-6.79s-20.99,3.5-20.99,6.79v.25c0,1.48-.01,2.55,2.3,3.56l-.42.97c-2.96-1.28-2.95-3-2.94-4.53v-.25c0-4.62,9.06-7.84,22.04-7.84s22.04,3.22,22.04,7.84v.25c0,1.52.02,3.25-2.94,4.53Z"/><path class="cls-22" d="M61.12,295.94c-1.44-.18-2.86-.47-4.25-.87l.42-.97c1.23.71,2.51,1.32,3.83,1.83Z"/><path class="cls-22" d="M77.04,481.1h-1.09c-17.44-.06-29.84-1.47-41.31-4.68-2.18-.59-5.03-3.86-5.82-4.8-7.79.6-15.16-2.07-20.77-7.54-5.16-5.02-8.01-11.74-7.63-17.96.07-1.6.46-3.16,1.17-4.61l53.43-110.74c1.66-4.18,2.52-8.63,2.53-13.17v-22.32h1.2v22.32c-.01,4.7-.9,9.29-2.63,13.66L2.68,442.03c-.64,1.3-.99,2.7-1.05,4.15-.36,5.89,2.35,12.26,7.26,17.04,5.44,5.3,12.59,7.84,20.15,7.18l.32-.03.2.25c.91,1.13,3.65,4.16,5.41,4.64,11.48,3.22,23.92,4.61,41.53,4.64,17.59-.03,30.03-1.42,41.53-4.64,1.76-.5,4.51-3.52,5.41-4.65l.2-.25.32.03c7.54.67,14.69-1.89,20.13-7.19,4.92-4.79,7.64-11.15,7.27-17.02-.05-1.46-.4-2.86-1.04-4.16l-53.41-110.75c-1.75-4.4-2.63-9-2.65-13.69v-23.01h1.2v23.01c.01,4.54.87,8.99,2.54,13.21l53.39,110.71c.71,1.45,1.1,3.01,1.16,4.62.38,6.2-2.47,12.91-7.64,17.94-5.62,5.47-12.98,8.15-20.76,7.55-.79.94-3.64,4.19-5.82,4.8-11.49,3.22-23.89,4.63-41.31,4.68h0Z"/><path class="cls-22" d="M95.06,295.07c-4.84,1.8-9.98,2.29-15.09,2.44,2.53-.22,5.04-.6,7.52-1.12,2.46-.5,4.86-1.26,7.15-2.29.26-.14.58-.03.71.22.14.26.03.58-.22.71-.02.01-.05.02-.07.03Z"/><path class="cls-14" d="M118,475.25c1.17-.34,2.24-.93,3.15-1.73.92-.83,1.7-1.8,2.3-2.89,1.2-2.25,2-4.69,2.38-7.22.42-2.54.62-5.12.6-7.7,0-2.59-.16-5.17-.49-7.74.44,2.56.71,5.14.81,7.73.12,2.61.01,5.22-.31,7.82-.28,2.61-1.01,5.14-2.13,7.51-.61,1.22-1.42,2.32-2.41,3.26-1,.96-2.21,1.68-3.52,2.12l-.37-1.17Z"/><path class="cls-14" d="M34.61,476.45c-1.31-.44-2.51-1.17-3.51-2.13-.98-.95-1.8-2.06-2.41-3.28-1.15-2.38-1.88-4.94-2.16-7.56-.32-2.59-.43-5.21-.31-7.82.1-2.59.38-5.18.81-7.73-.33,2.57-.49,5.15-.49,7.74-.02,2.58.18,5.15.6,7.7.38,2.52,1.18,4.96,2.38,7.22.6,1.08,1.38,2.06,2.3,2.89.91.83,1.99,1.44,3.17,1.79l-.37,1.2Z"/><g class="cls-30"><path class="cls-14" d="M126.18,449.64c.01,1.62-.29,3.22-.9,4.71-.61,1.5-1.39,2.93-2.33,4.25-.93,1.31-1.95,2.56-3.05,3.74-1.09,1.17-2.23,2.29-3.39,3.39l-1.74,1.62c-.57.54-1.2,1.09-1.62,1.61-.19.22-.33.48-.4.76-.03.25.04.5.19.7.1.13.21.25.32.37.1.1.22.19.35.26.3.14.63.24.96.28,1.53.11,3.07-.05,4.55-.46,1.54-.35,3.03-.87,4.46-1.56-1.32.92-2.76,1.64-4.28,2.15-.76.27-1.54.49-2.33.66-.82.18-1.65.25-2.49.21-.46-.03-.91-.13-1.33-.31-.23-.1-.45-.24-.64-.4-.18-.15-.34-.32-.48-.51-.35-.43-.51-.98-.46-1.53.08-.5.29-.97.6-1.37.52-.64,1.09-1.25,1.71-1.8l1.72-1.65c1.15-1.09,2.29-2.17,3.38-3.3,1.1-1.11,2.15-2.27,3.13-3.49,1.92-2.42,3.57-5.15,4.06-8.32Z"/></g><g class="cls-30"><path class="cls-14" d="M26.83,449.64c.5,3.17,2.15,5.9,4.08,8.33.98,1.22,2.02,2.38,3.13,3.49,1.09,1.13,2.23,2.21,3.39,3.3l1.72,1.65c.61.56,1.18,1.16,1.71,1.8.32.4.52.87.6,1.37.06.55-.11,1.1-.46,1.53-.14.18-.3.35-.48.51-.19.17-.41.3-.64.4-.42.18-.87.28-1.32.31-.84.04-1.67-.03-2.49-.21-.79-.17-1.58-.38-2.34-.66-1.52-.51-2.96-1.23-4.28-2.15,1.42.68,2.92,1.21,4.46,1.56,1.48.41,3.01.57,4.54.46.33-.05.66-.15.96-.3.13-.07.24-.16.34-.26.12-.11.23-.24.32-.37.16-.19.23-.45.19-.7-.07-.28-.2-.55-.4-.76-.43-.52-1.06-1.06-1.62-1.61l-1.73-1.62c-1.15-1.09-2.3-2.21-3.39-3.39-1.1-1.18-2.12-2.43-3.05-3.74-.94-1.32-1.73-2.74-2.33-4.25-.61-1.5-.92-3.1-.91-4.71Z"/></g><path class="cls-14" d="M126.18,448.46c1.47,1.8,2.8,3.7,3.99,5.69,1.23,2,2.11,4.2,2.6,6.49.22,1.18.24,2.39.05,3.57-.19,1.23-.72,2.37-1.53,3.31-.83.92-1.88,1.63-3.05,2.04-1.16.41-2.38.63-3.61.66v-1.2c1.1.02,2.19-.13,3.25-.44,1.03-.32,1.97-.89,2.73-1.66,1.52-1.56,1.86-3.97,1.55-6.19-.38-2.26-1.15-4.44-2.27-6.44-1.1-2.03-2.34-3.98-3.72-5.84Z"/><path class="cls-14" d="M26.93,448.46c-1.38,1.85-2.63,3.81-3.73,5.84-1.12,2-1.88,4.18-2.27,6.44-.31,2.22,0,4.63,1.55,6.19.76.77,1.7,1.34,2.74,1.66,1.05.32,2.14.47,3.24.44v1.2c-1.23-.03-2.45-.25-3.61-.66-1.17-.42-2.23-1.12-3.06-2.04-.8-.94-1.32-2.09-1.51-3.31-.19-1.18-.17-2.39.05-3.57.49-2.3,1.37-4.49,2.6-6.49,1.2-1.99,2.53-3.9,4-5.69Z"/><ellipse class="cls-14" cx="77.05" cy="447.97" rx="36.22" ry="9.91"/><path class="cls-14" d="M76.35,411.01c-.93,2.07-1.2,4.31-1.71,6.49-.23,1.12-.56,2.21-.99,3.27-.35.97-.91,1.86-1.62,2.61-.23.22-1.12.7-1.17,1-.1.69,1.7,1.24,2.21,1.65.57.52,1.27.87,2.02,1.02.78.1,1.68-.29,1.8-.98.02-.4-.04-.79-.18-1.17-.33-1.55.68-2.96.6-4.47-.05-1.37.1-2.68.11-4.06-.04-1.07.07-2.14.32-3.19.07-.16.26-.24.42-.17.09.04.16.12.18.21.32,2.26.74,4.51.93,6.78.15,1.8.51,4.03-.23,5.75-.11.22-.19.46-.23.71-.02.25.12.5.35.6.2.06.4.06.6,0,1.25-.3,2.43-.84,3.49-1.57l1.24-.76c.25-.15.52-.4.38-.6-.05-.07-.11-.12-.18-.16-4.02-2.68-3.43-7.97-4.61-11.91-.34-1.14-1.25-2.5-2.63-2.07-.5.16-.9.53-1.11,1.02Z"/><path class="cls-14" d="M69.85,424.33c4.32-1.29,4.21-7.52,5.35-11.15.31-1.07.6-2.26,1.5-3.05.84-.71,2.09-.61,2.8.23.15.17.26.37.34.58,1.97,3.8.49,12.15,5.82,13.15-5.53-.6-4.44-9.13-6.33-12.87-.23-.59-.8-.97-1.44-.96-1.37.13-1.8,1.93-2.16,3.08-1.11,3.61-1.37,10.06-5.87,11.01h0Z"/><path class="cls-14" d="M12.96,450.44c-.04-6.55,5.32-11.49,10.43-14.79,10.75-6.61,23.36-9.54,35.75-11.12,3.12-.39,6.25-.66,9.39-.84l1.2-.07c1.29-.08,2.57.7,3.57,1.34,3.01,2.03,4.35,3.39,7.82,1.13,1.6-.96,3.49-2.46,5.65-2.33,1.8.11,4.03.31,5.87.5,7.04.7,14,2.02,20.81,3.96,10.08,3.01,27.49,9.84,27.72,22.25-.63-12.12-18-18.54-27.97-21.34-8.29-2.21-16.77-3.59-25.33-4.13-.55-.05-1.11-.07-1.67-.07-1.62.19-2.93,1.27-4.46,2.19-2.44,1.59-4.65,1.98-7.13.16-1.57-.91-2.98-2.41-4.81-2.48-3.5.17-7.01.42-10.48.84-13.45,1.4-45.38,8.2-46.3,24.83l-.05-.02Z"/></g><g id="liquid"><path class="cls-12" d="M149.3,450.44c-.1.39-.55,1.91-.68,2.3-1.43,4.28-4.24,9.07-8.22,11.48-2.58,1.56-5.34,2.38-8.09,3.61-2.75,1.23-6.04,1.03-8.93,1.23-.69.05-2.52,2.77-4,3.61-1.29.73-5.49,1.73-6.94,2.04-4.03.85-7.49,1.8-11.59,2.26-8.07.96-16.19,1.45-24.32,1.47-3.16,0-6.33-.09-9.49-.26-6.27-.34-12.52-1.06-18.7-2.15-2.84-.51-5.45-.25-8.25-.94-2.04-.5-6.22-1.67-7.48-3.55-.36-.54-.6-1.17-.91-1.73-.11-.26-.31-.47-.56-.6-.22-.07-.45-.08-.68-.04-1.92.13-3.85.02-5.75-.34-3.11-.51-6.13-.99-8.85-2.57-3.13-1.8-6.21-3.61-8.42-6.43-2.11-2.7-3.44-6.12-4.29-9.4-1.02-3.96,2.24-9.86,3.68-13.52,2.47-6.27,1.42-3.67,4.26-9.78,0,0-4.32,20.82,58.78,20.82,24.05,0,64,0,72.6-18.57,2.62,6.69,8.64,13.82,6.83,21.05Z"/><path class="cls-12" d="M141.4,428.48c3.54,10.49-29.3,20.35-65.43,20.35s-68.33-9.6-65.44-20.35c2.37-8.77,29.3-20.35,65.44-20.35s62.41,11.43,65.43,20.35Z"/><path class="cls-12" d="M121.5,414.83l9.18,25.51s11.48-5.63,11.48-8.74-2.6-8.09-7.47-10.75c-4.87-2.66-13.18-6.01-13.18-6.01Z"/><path class="cls-12" d="M141.93,429c-.22,0-.42-.14-.49-.35-2.76-8.17-27.47-20-64.93-20-16.37,0-32.43,2.44-45.22,6.86-11.01,3.81-18.57,8.83-19.72,13.11-.07.28-.36.44-.64.37-.28-.07-.44-.36-.37-.64,2.64-9.79,31.4-20.74,65.94-20.74,16.46,0,32.55,2.44,45.31,6.86,11.3,3.92,19,9.09,20.61,13.85.09.27-.05.57-.33.66-.05.02-.11.03-.17.03Z"/><path class="cls-12" d="M130.65,439.52c1.95,5.6,6.58,21.05,2.63,28.39,0,0,8.46-3.61,11.23-7.57,2.77-3.96,7.49-12.68,3.86-18.59l-5.61-12.03s-2.01,5.09-5.59,6.93c-2.11,1.09-4.29,2.04-6.52,2.86Z"/><path class="cls-12" d="M120.29,464.8c-.29.35-.49.76-.6,1.2-.1.46.13.93.55,1.15.42.09.85,0,1.2-.23,1.44-.75,2.76-1.71,3.91-2.86.06-.07.14-.11.22-.13.19,0,.26.25.26.44,0,1.2-.32,2.96-1.15,3.91-2.18,2.5-5.94,3.14-9.07,3.42-.68.1-1.38.04-2.03-.19-1.14-.48-1.44-2.02-.94-3.07.43-.74,1.01-1.38,1.72-1.86,2.57-2.14,4.94-4.52,7.07-7.11,1.05-1.27,1.98-2.63,2.78-4.06.8-1.44,1.24-3.12,2.03-4.51.57,5.53-3,9.68-5.94,13.89Z"/><path class="cls-12" d="M32.9,464.8c.29.35.49.76.6,1.2.09.46-.13.93-.55,1.15-.42.09-.85,0-1.2-.23-1.45-.75-2.77-1.71-3.92-2.86-.05-.07-.13-.12-.22-.13-.19,0-.26.25-.26.44,0,1.2.32,2.96,1.16,3.91,2.18,2.5,5.94,3.14,9.07,3.42.68.1,1.37.04,2.02-.19,1.14-.48,1.44-2.02.94-3.07-.43-.74-1.01-1.38-1.72-1.86-2.57-2.14-4.94-4.52-7.06-7.11-1.05-1.27-1.98-2.63-2.78-4.06-.8-1.44-1.24-3.12-2.02-4.51-.54,5.53,3.02,9.68,5.94,13.89Z"/><path class="cls-12" d="M126.56,456.36c-.11-2.74-.31-5.48-.6-8.2,2.03,2.73,3.81,5.65,5.29,8.72.49.93.85,1.92,1.08,2.95.35,1.86-.08,3.78-.6,5.61-.13.54-.33,1.06-.6,1.55-.37.55-.85,1.03-1.41,1.38-1.27.9-2.78,1.4-4.33,1.43-.17,0-.35-.03-.5-.11-.35-.24-.23-.78-.09-1.17,1.55-4.25,1.69-8.87,1.8-13.39"/><path class="cls-12" d="M23.16,467.7c-1.44-1.27-2.3-3.09-2.37-5.01,0-.74.08-1.47.23-2.19.87-4.42,2.89-8.54,5.86-11.92-.54,3.89-.64,7.83-.31,11.75.15,2.21.53,4.39,1.14,6.51.17.6,1.08,2.15.6,2.68s-1.86,0-2.36-.19c-1.03-.34-1.98-.89-2.8-1.62Z"/><path class="cls-12" d="M76.35,411.01c-.93,2.07-1.2,4.31-1.71,6.49-.23,1.12-.56,2.21-.99,3.27-.35.97-.91,1.86-1.62,2.61-.23.22-1.12.7-1.17,1-.1.69,1.7,1.24,2.21,1.65.57.52,1.27.87,2.02,1.02.78.1,1.68-.29,1.8-.98.02-.4-.04-.79-.18-1.17-.33-1.55.68-2.96.6-4.47-.05-1.37.1-2.68.11-4.06-.04-1.07.07-2.14.32-3.19.07-.16.26-.24.42-.17.09.04.16.12.18.21.32,2.26.74,4.51.93,6.78.15,1.8.51,4.03-.23,5.75-.11.22-.19.46-.23.71-.02.25.12.5.35.6.2.06.4.06.6,0,1.25-.3,2.43-.84,3.49-1.57l1.24-.76c.25-.15.52-.4.38-.6-.05-.07-.11-.12-.18-.16-4.02-2.68-3.43-7.97-4.61-11.91-.34-1.14-1.25-2.5-2.63-2.07-.5.16-.9.53-1.11,1.02Z"/><g class="cls-32"><path class="cls-12" d="M69.85,424.33c4.28-1.35,4.13-7.55,5.23-11.19.31-1.08.64-2.3,1.54-3.1.89-.75,2.22-.63,2.97.26.15.17.26.37.35.58,2,3.81.41,12.12,5.72,13.23-5.54-.52-4.57-9.09-6.43-12.81-.2-.55-.73-.92-1.32-.91-1.3.13-1.7,1.89-2.06,3.01-1.14,3.61-1.43,10.07-6.01,10.98l.03-.04Z"/></g><g class="cls-32"><path class="cls-12" d="M12.96,450.44c-.03-6.54,5.35-11.43,10.47-14.73,10.76-6.58,23.34-9.46,35.73-11.05,3.5-.43,7.03-.72,10.55-.89,2.12-.04,3.74,1.62,5.41,2.62,2.16,1.58,3.87,1.2,6.01-.17,1.61-.96,3.43-2.44,5.56-2.32l1.2.08,2.35.19c13.97,1.34,28.26,4.16,40.42,11.54,5.11,3.29,10.5,8.19,10.46,14.73-.17-6.49-5.56-11.2-10.7-14.35-12.83-7.5-27.94-10.1-42.58-11.26l-1.17-.07c-1.91-.06-3.38,1.2-5.05,2.22-2.44,1.58-4.53,1.94-6.98.16-1.58-.92-3.01-2.48-4.91-2.51-3.5.16-7.01.43-10.49.84-13.5,1.44-45.4,8.24-46.3,24.97h.02Z"/></g><g class="cls-3"><ellipse class="cls-12" cx="77.05" cy="447.97" rx="36.22" ry="9.91"/></g><path class="cls-12" d="M76.47,449.35c-30.09,0-57.86-6.63-64.59-15.41-1.41-1.84-1.86-3.72-1.36-5.6.08-.28.37-.45.64-.37.28.08.45.36.37.64-.42,1.55-.02,3.12,1.18,4.69,6.44,8.41,34.45,15,63.76,15s57.93-6.68,64.06-15.2c1.07-1.5,1.37-2.99.88-4.46-.09-.28.06-.57.33-.67.27-.09.57.06.67.33.61,1.8.26,3.62-1.02,5.41-6.3,8.77-34.81,15.64-64.91,15.64Z"/><path class="cls-12" d="M77.03,478.96h-1.05s-.02,0-.04,0c-13.15-.03-27.04-.64-39.91-4.42-2.09-.6-5.04-3.92-5.8-4.81-7.7.68-15.99-2.71-21.71-8.89-4.51-4.87-6.54-10.73-5.57-16.07.21-1.17.88-2.9,2.04-5.3l6.1-12.56c.13-.26.44-.37.7-.24.26.13.37.44.24.7l-6.1,12.56c-1.1,2.28-1.76,3.97-1.95,5.02-.9,5.02,1.03,10.54,5.31,15.17,5.48,5.93,13.77,9.28,21.11,8.54.18-.02.35.05.46.19.94,1.14,3.76,4.19,5.46,4.68,12.92,3.79,26.9,4.36,40.13,4.37,17.77-.02,29.97-1.39,40.72-4.54,1.71-.5,4.49-3.55,5.42-4.69.11-.14.28-.21.46-.19,7.34.68,14.21-1.69,19.35-6.66,4.6-4.45,7.14-10.55,6.8-16.32-.08-1.34-1.42-4.1-2.06-5.43l-.07-.15-5.64-11.22c-.13-.26-.03-.58.23-.71.26-.13.58-.03.71.23l5.72,11.38c1.01,2.07,2.09,4.4,2.17,5.83.36,6.07-2.3,12.48-7.12,17.14-5.3,5.13-12.35,7.6-19.9,6.97-.75.89-3.67,4.2-5.76,4.82-10.73,3.15-22.86,4.53-40.41,4.58-.01,0-.03,0-.04,0Z"/><path class="cls-12" d="M124,469.36c2.84-6.69,2.72-14.28,1.95-21.4,1,5.42,1.15,10.96.43,16.42-.26,1.85-.74,3.67-1.41,5.41-.09.28-.39.43-.66.34-.28-.09-.43-.39-.34-.66.01-.03.02-.06.04-.09v-.02Z"/><path class="cls-12" d="M28.04,469.84c-2.61-6.95-2.13-14.65-1-21.85-.77,7.14-.9,14.74,1.97,21.44.11.27,0,.57-.27.69-.27.11-.57,0-.69-.27Z"/><path class="cls-12" d="M126.18,448.46c2.84,3.64,5.65,7.55,6.55,12.19.76,3.76-.69,7.56-4.52,8.86-1.15.4-2.35.62-3.57.64-.29,0-.53-.22-.54-.51,0-.29.22-.53.5-.54,0,0,.02,0,.02,0,1.11.01,2.21-.15,3.27-.48,3.51-1.02,4.86-4.51,4.3-7.91-.72-4.55-3.37-8.59-6.01-12.27l-.02.02Z"/><path class="cls-12" d="M26.93,448.46c-2.66,3.69-5.33,7.72-6.01,12.27-.57,3.41.79,6.89,4.3,7.91,1.06.33,2.16.48,3.27.46.29,0,.52.22.53.5,0,0,0,0,0,.01,0,.29-.23.53-.52.54,0,0-.01,0-.02,0-1.21-.03-2.42-.24-3.57-.64-3.83-1.3-5.27-5.11-4.52-8.86.91-4.64,3.72-8.55,6.56-12.19h-.02Z"/></g><g class="cls-31"><path class="cls-34" d="M150.25,445.45c-.08-1.43-1.16-3.76-2.17-5.83l-5.65-11.25s0-.04,0-.06c-1.6-4.76-9.31-9.93-20.61-13.85-12.76-4.42-28.85-6.86-45.31-6.86-32.67,0-60.15,9.79-65.27,19.13-.06.05-.11.1-.14.18l-6.1,12.56c-1.16,2.4-1.83,4.13-2.04,5.3-.74,4.08.28,8.47,2.81,12.48.5.91,1.05,1.79,1.68,2.59,1.05,1.35,2.3,2.46,3.66,3.45,4.1,3.45,9.07,5.66,14.09,6.32,1.06.34,2.17.53,3.29.56,0,0,.01,0,.02,0,.08,0,.15-.02.22-.06,0,0,0,0,0,0,.14-.06.24-.17.28-.31.41-.01.82-.03,1.23-.07.76.89,3.71,4.21,5.8,4.81,12.87,3.78,26.75,4.39,39.91,4.42.01,0,.02,0,.04,0h1.05s.03,0,.04,0c17.55-.05,29.68-1.43,40.41-4.58,2.09-.61,5-3.93,5.76-4.82.24.02.48.03.72.04-.02.24.12.47.36.54.09.03.18.02.26,0,.03,0,.05.02.08.02,1.22-.03,2.42-.24,3.57-.64.02,0,.03-.01.05-.02,5.61-.58,10.77-2.95,14.87-6.92,4.82-4.66,7.48-11.07,7.12-17.14ZM22.35,440.83c4.25,1.77,9.45,3.34,15.33,4.63-6.6-1.25-11.58-2.87-15.33-4.63ZM48.34,476.04c1.8.32,3.61.59,5.42.85-2.67-.29-5.33-.67-7.96-1.14.84.06,1.68.14,2.54.3Z"/></g><g id="highlight-hidden"><path class="cls-16" d="M75.97,296.22c-8.04,0-14.68-1.29-18.71-3.63-.29-.17-.38-.53-.22-.82.17-.29.53-.38.82-.22,3.85,2.24,10.28,3.47,18.11,3.47,7.4,0,14.36-1.3,18.62-3.48.3-.15.66-.03.81.26.15.3.03.66-.26.81-4.42,2.26-11.59,3.61-19.17,3.61Z"/><g class="cls-4"><path class="cls-12" d="M20.48,437.65c-.19,0-.38-.04-.56-.11-.77-.31-1.14-1.19-.83-1.96l2.59-6.43c.31-.77,1.18-1.14,1.96-.83.77.31,1.14,1.19.83,1.96l-2.59,6.43c-.24.59-.8.94-1.4.94Z"/></g><g class="cls-4"><path class="cls-16" d="M26.37,423.01c-.19,0-.38-.04-.56-.11-.77-.31-1.14-1.19-.83-1.96l38.07-94.57c.15-.61.22-1.24.22-1.87v-21.61c0-.83.67-1.5,1.5-1.5s1.5.67,1.5,1.5v21.61c0,.91-.11,1.82-.33,2.7-.02.07-.04.13-.06.19l-38.11,94.67c-.24.59-.8.94-1.4.94Z"/></g></g></g><line class="cls-23" x1="95.58" y1="314.34" x2="126.58" y2="196.15"/><g class="cls-29"><line class="cls-18" x1="63.82" y1="435.44" x2="94.74" y2="317.54"/></g><line class="cls-23" x1="137.58" y1="413.26" x2="321.31" y2="349.75"/><g class="cls-28"><line class="cls-9" x1="67.74" y1="437.41" x2="136.39" y2="413.87"/></g><g id="microbes2"><g class="cls-37"><path class="cls-2" d="M248.63,312.95c.54-4.95-1.4-9.67-4.78-12.35-2.02-1.61-4.57-2.49-7.41-2.26-.03.05-.03.1,0,.15,0,0,0,0,0,.01.03.04.11.11.13.12.06.01.6-.08.79-.06,2.22.23,4.22,1.08,5.86,2.38,3.14,2.5,4.94,6.66,4.42,11.34-1.13,10.04-9.35,17.07-18.11,19.34-15.7,4.06-30.28-4.96-45.65-4.9-19.95.08-40.99,16.47-46.42,38.08-3.15,12.52.49,24.52,8.85,31.16.21.17.43.33.65.49,1.12.83,2.31,1.57,3.58,2.2,2.35,1.17,4.96,1.98,7.8,2.38l-.04-.11-3.47-9.33c-1.84-.73-3.52-1.77-5.01-3.05-.18-.15-.35-.31-.52-.47-4.32-4-6.87-10.14-6.64-16.9.61-17.63,15.91-33.73,31.45-38.61,18.61-5.84,35.05,6.04,53.46,1.8,9.89-2.27,19.81-9.93,21.06-21.42Z"/><path class="cls-1" d="M360.31,219.13c-1.73,4.67-1.01,9.72,1.62,13.15,1.57,2.05,3.82,3.52,6.64,4,.04-.04.05-.09.03-.14,0,0,0,0,0-.01-.02-.04-.08-.14-.1-.14-.06-.03-.6-.07-.78-.13-2.1-.77-3.83-2.08-5.1-3.74-2.43-3.19-3.17-7.66-1.51-12.08,3.54-9.46,13.23-14.27,22.28-14.33,16.22-.11,28.15,12.2,43.08,15.9,19.36,4.79,43.77-5.97,54.31-25.6,6.11-11.38,5.51-23.9-.98-32.38-.17-.21-.34-.43-.51-.64-.88-1.08-1.85-2.09-2.93-3.01-2-1.71-4.33-3.13-6.98-4.21v.11s1.11,9.89,1.11,9.89c1.6,1.16,2.98,2.58,4.11,4.18.14.19.26.39.39.58,3.22,4.94,4.19,11.51,2.31,18.01-4.89,16.94-23.66,28.83-39.92,29.76-19.47,1.12-32.52-14.41-51.41-14.8-10.15-.21-21.63,4.79-25.65,15.64Z"/><path class="cls-1" d="M289.84,83.95c-2.54-4.28-6.92-6.89-11.24-7.01-2.58-.07-5.14.75-7.28,2.65,0,.06.04.1.09.12,0,0,0,0,.01,0,.05.01.16.02.17.02.06-.03.43-.43.6-.52,1.92-1.15,4.03-1.67,6.12-1.61,4.01.11,7.95,2.36,10.34,6.42,5.12,8.7,2.77,19.26-2.87,26.34-10.12,12.68-27.19,14.21-39.45,23.49-15.9,12.04-22.9,37.78-14.26,58.32,5,11.91,15.12,19.32,25.79,19.61.27,0,.31-7.9-1.65-8.03-.23-.01-.47-.04-.7-.06-5.86-.61-11.58-3.98-15.45-9.53-10.09-14.46-7.53-36.52,1.97-49.76,11.37-15.84,31.66-16.22,43.84-30.66,6.55-7.76,9.88-19.83,3.98-29.77Z"/><path class="cls-1" d="M346.15,458.43c-1.49,4.75-5.15,8.3-9.33,9.41-2.5.66-5.18.45-7.7-.9,0-.06.01-.1.06-.13,0,0,0,0,.01,0,.04-.02.15-.06.17-.05.06.01.52.32.7.37,2.13.68,4.3.7,6.33.16,3.87-1.03,7.19-4.12,8.59-8.63,2.99-9.65-1.73-19.38-8.85-24.97-12.76-10.01-29.73-7.58-43.8-13.79-18.25-8.06-30.97-31.51-27.29-53.48,2.13-12.74,10.27-22.27,20.59-25.01.26-.07,2.12,7.62.24,8.19-.22.07-.44.14-.66.22-5.57,1.94-10.36,6.54-12.85,12.83-6.5,16.39,1.07,37.27,13.36,47.97,14.71,12.8,34.54,8.5,49.71,19.76,8.15,6.05,14.17,17.03,10.72,28.06Z"/><path class="cls-26" d="M361.1,297.85c-7.07,7.22-15.6,12.35-23.85,18.02-5.49,3.78-10.85,7.69-15.61,12.49-8.54,8.63-15.44,17.26-28.74,17.74-7.06.26-14.58-2.38-19.85-7.09-6.74-6.01-11.05-16.05-9.51-25.27,2.85-17.04,22.72-27.3,35.59-36.22,3.33-2.31,5.11-3.97,7.72-7.11,8.03-9.66,14.43-22.54,27.65-25.8,21.35-5.28,43.8,13.99,37.13,36.28-2.03,6.77-5.68,11.99-10.53,16.95ZM358.97,295.06c8.55-8.93,13.71-21.07,7.63-32.97-4.96-9.71-16.72-15.85-27.54-14.69-16.44,1.77-22.21,18.17-32.42,28.61-4.29,4.39-10.13,7.44-15.24,10.85-12.68,8.47-28.81,19.96-23.52,37.64,5.1,17.05,25.5,23.7,39.6,12.59,6.66-5.25,12.03-12.27,18.7-17.62,10.47-8.4,23.52-14.73,32.79-24.41Z"/><path class="cls-35" d="M307.48,337.1c6.66-5.25,12.03-12.27,18.7-17.62,10.47-8.4,23.52-14.73,32.79-24.41,8.55-8.93,13.71-21.07,7.63-32.97-4.96-9.71-16.72-15.85-27.54-14.69-16.44,1.77-22.21,18.17-32.42,28.61-1.81,1.86-3.9,3.47-6.09,4.97-.46.28-.91.58-1.34.9-2.6,1.71-5.29,3.3-7.8,4.98-12.68,8.47-28.81,19.96-23.52,37.64,5.1,17.05,25.5,23.7,39.6,12.59Z"/><path class="cls-20" d="M319.67,270.42c.08,1.92-1.87,1.82-2.99,2.52-.87.54-.46.99-.57,1.86-.18,1.55-1.42,3.04-3.06,2.23-1.42-.71-1.17-2.89-.8-4.16.69-2.3,3-4.9,5.62-4.45.95.16,1.76,1.04,1.8,2ZM318.92,270.21c-.09-.54-.73-1.04-1.24-1.13-2.76-.49-5.32,3.67-5.03,6.13.2,1.7,2.16,1.77,2.66.04.22-.75-.12-1.69.31-2.32.9-1.32,3.6-.85,3.3-2.72Z"/><path class="cls-20" d="M301.73,336.86c.03.83-.31,2.17-1.31,2.24-1.18.09-1.7-.6-2.64-.99-1.09-.45-1.8.31-2.84.37-1.97.12-2.11-2.5-.51-3.4,1.08-.61,3.72-.69,4.91-.41.97.23,2.36,1.09,2.39,2.19ZM300.97,336.82c-.12-.76-1.27-1.4-1.98-1.51-1.36-.2-5.08-.34-4.94,1.76.09,1.38,2.07.26,2.76.19,1.4-.14,2.33,1.17,3.39,1.15.68-.01.86-1.06.77-1.6Z"/><path class="cls-36" d="M265.39,335.97c.87-.05,6.87,5.95,2.64,6.8-1.59.32,3.21-.44,4.83-.34h0c.27.4-.5,1.08-.73,1.43-2.07,3.1-2.92,5.25-6.39,7.09-.75.4.48.1.74,0,1.67-.6,3.15-1.91,4.35-3.2,1.21-1.29,2.25-2.74,3.51-4l.26-.08,4.33,2.38c.05.26-.19.4-.29.6-.79,1.52-1.51,3.12-1.9,4.79.22.06.15-.05.22-.16.72-1.1,1.35-2.15,2.22-3.15.42-.48.89-.92,1.32-1.38l5.51,1.57c-.31.56-.61,1.13-.94,1.67-.57.95-1.25,1.87-1.88,2.74-.17.23-1.62,2.05-1.54,2.15l1.1-.74c1.52-1.47,3.37-2.9,4.78-4.42.05-.06.02-.22.08-.31.72-1.05.94-.66,1.96-.59.56.04,1.13.03,1.69.08l4.69-.21c-.15,2.02-.69,4-1.64,5.78-.25.46-.78,1.09-.96,1.52-.15.36.25.12.37.01,1.71-1.5,3.39-3.98,4.16-6.12.14-.38.32-1.41.54-1.63.2-.21,2-.56,2.44-.69.5-.15,1.01-.34,1.5-.53.41,2.85-.38,5.59-1.91,7.97-.19.29-.44.57-.61.83-.05.08-.17.22-.05.3,2.32-1.72,4.02-4.64,4.59-7.47.17-.87.17-1.66.27-2.54,1.56-.77,3.09-1.58,4.51-2.58.18-.02.1.03.13.12.66,2.07.31,5.18-.39,7.23-.53,1.57-1.43,2.91-2.31,4.29,3.3-2.67,5.01-7.01,4.96-11.24,0-.38-.23-1.8-.12-1.99,1.03-.85,2.09-1.7,3.09-2.59.26-.23,1.29-1.35,1.49-1.42.18-.06.11.12.12.21.01.5-.08,1.02-.07,1.52.08,4.05.99,5.95-.82,9.93-.04.08-.15.25-.04.31,3.12-3.67,1.66-8.86,2.97-13.15.62-2.01,2.27-3.15,3.7-4.63.05-.05,0-.16.2-.1.02,1.53.29,3.2.94,4.6.06.14.29.82.51.63-.01-.43-.2-.83-.26-1.26-.25-1.9.09-4.35.98-6.07.58-1.12,2.88-2.88,3.87-3.71.4-.34.72-.81,1.21-1.04-.01,2.04.17,4.28.85,6.21.05.15.11.37.27.44-.28-2.88.07-5.79,1.13-8.47,1.42-1.13,2.86-2.25,4.4-3.2v5.54c-.19,1.04-.35,2.17-.78,3.14-.12.28-.41.58-.5.78-.05.1.01.17.12.13.47-.17,1.39-2.2,1.56-2.72.84-2.51.6-5.43,1.56-7.86.26-.65.38-.71.93-1.11.65-.48,1.4-.93,2.05-1.38,1.1-.74,2.26-1.41,3.3-2.23.25-.09.18.72.18.82-.05.66-.3,1.42-.35,2.1-.19,2.2.5,4.22,1.9,5.88.19,0,.81.82.92.72.15-.15-.27-.49-.35-.61-.66-1.06-1.15-2.22-1.23-3.49-.13-2.17,1.3-3.87,1.37-5.94,0-.26-.15-.84-.09-.97.1-.22.82-.56,1.05-.71.3-.21,1.84-1.39,2.02-1.41.1-.01.33.09.41.16.48.46-.05,2.94-.05,3.68,0,2.06.87,4.67,2.16,6.28.08.1.72.84.81.75-.13-.44-.45-.8-.65-1.22-.67-1.41-1.09-3.34-.92-4.9.17-1.56,1.08-3.11.97-4.69-.02-.34-.48-1.62-.38-1.76l6.97-5.35c.25,2.53-1.7,4.54-1.77,7.07-.03,1.29.6,3.28,1.54,4.17.09.09.13.21.29.18.05-.04-.45-.81-.51-.95-2.11-4.71,2.66-6.58,2.49-10.85-.01-.36-.27-1.08-.18-1.34.08-.23,1.05-.91,1.28-1.13.48-.46.92-1.02,1.36-1.47.31-.31.65-.59.93-.93.75,3.68-1.09,7.32-.11,11.01.13.49.39,1.19.75,1.54-1.43-4.38,1.6-8.44,1.44-12.83-.02-.42-.31-1.47-.24-1.77.03-.14,1.15-1.53,1.35-1.8.13-.17.34-.32.42-.44.17-.23.88-1.49,1.02-1.56.38-.2.88.56,1.03.85.7,1.37.32,3.29.48,4.82.15,1.4.89,3.06,2.36,3.46l-.65-.66c-1.8-2.33.22-5.14-.2-7.74-.18-1.1-.69-2.18-1.59-2.85l1.78-3.59c.1-.07.67.68.76.8.58.83.99,1.85,1.58,2.68.86,1.22,2.01,2.06,3.58,1.95.05-.25-.06-.14-.2-.18-3.12-.95-2.59-4.22-4.18-6.61-.17-.26-.62-.53-.55-.88.49-1.24,1.01-2.51,1.24-3.83.12,0,.24,0,.36.04.61.16,1.78,1.83,2.32,2.33.8.75,2.13,1.48,3.22.87.62-.35-.09-.18-.33-.18-2.25-.02-2.55-3.35-4.01-4.67-.16-.14-.87-.57-.9-.63-.05-.09.05-.83.09-.96.01-.04.26-.06.11-.47,2.21,0,4.4.47,6.41,1.38.09.04.7.54.53.09-.05-.12-1.69-1.4-1.92-1.56-1.45-.99-3.11-1.68-4.79-2.18.07-1.66.03-3.3-.06-4.95,1.16-1.8,3.45-2.27,5.38-1.45.28.12,1.1.7,1.28.69.22,0-.09-.22-.11-.24-1.39-1.69-3.28-2.45-5.49-2.09-.23.04-1.48.45-1.54.4-.12-.87-.35-1.73-.58-2.58-.41-1.49-1.19-2.33-.21-3.83,1.73-2.61,4.33-.88,5.92-2.19.07-.06.35-.28.27-.37-.27-.05-.37.19-.62.25-1.08.28-2.43-.39-3.47-.45-.93-.05-2.29.39-3.07.9-.16.11-.73.71-.85.62l-2.18-3.91c1.83-.86,2.8-4.46,5.18-4.12.29.04.48.24.72.32.5.17-.07-.4-.24-.51-.68-.43-1.56-.43-2.33-.25-1.74.41-2.83,2.47-4.63,2.77l-3.72-3.88v-.26c.72-.65,1.82-.83,2.66-1.34,1.54-.93,2.58-2.67,2.66-4.48-.25-.06-.13.07-.19.19-.27.62-.48,1.12-.93,1.65-1.66,1.95-3.51,1.41-5.6,2.28-.23.1-.43.36-.66.24l-2.83-2.04c-.1-.18.27-1.03.33-1.32.48-2.07.46-3.9,2.17-5.42l1.44-.94c-1.88.2-3.35,1.5-4.24,3.1-.36.65-1.2,3-1.59,3.31-.06.05-.07.08-.16.08-.1,0-1.73-.79-1.86-.89-.07-.05-.13-.09-.15-.19.17-1.84.14-3.7.53-5.51.2-.84.75-1.53,1.57-1.83l.68-.18c-1.81-.49-2.93.99-3.52,2.48-.53,1.35-.88,2.86-1.36,4.23l-3.62-1.18c.13-2.28-.52-4.53-1.94-6.31-.64-.8-1.69-1.71-2.63-2.13-.08-.04-.25-.15-.31-.04.35.43.86.74,1.22,1.15,1.54,1.76,2.25,4.65,1.49,6.89l-3.73-.55c-.1-.08-.16-1.11-.21-1.35-.24-1.1-1.13-2.33-2.09-2.94-1.58-1.01-4-.3-5.19-1.73-.2-.24-.44-.74-.45-1.05,0-.16.16-.33.06-.45-.49.58-.25,1.41.12,1.99,1.3,2.02,4.61,1.16,5.31,3.88.49,1.88-.09,1.45-1.38,1.51-1.23.06-2.46.2-3.68.33-.49-1.26-1.66-2-2.99-2.08-2.23-.14-4.4,1.46-6.31-.46-.51-.52-.53-.76-.82-1.35-.06-.12-.06-.25-.25-.22.12,1.76,1.51,3.33,3.26,3.61,1.09.17,4-.15,4.65.69.06.08.11.1.07.22-2.3.65-4.57,1.4-6.75,2.4-.64-.25-1.2-.7-1.85-.97-1.35-.57-2.74-.71-4.2-.58-.03.22-.02.14.12.17.31.07.66.08.97.17,1.28.37,2.46,1.13,3.36,2.11-.65.36-1.32.74-1.94,1.15-.4.27-.78.59-1.15.86-.18.13-1.08.85-1.16.87-.07.01-1.02-.42-1.32-.46-2.71-.4-4.45,2.53-6.9.81-.77-.54-1.11-1.3-1.33-2.18-.04-.14.08-.23-.17-.2-.15,1.11.39,2.4,1.2,3.14,1.41,1.3,3.16,1.18,4.87.6.03-.08.1-.08.17-.08.06,0,.11.01.17,0,.14-.2.39-.14.6-.14.08,0,.17,0,.25.01.02-.13.25-.12.25.01.06,0,.11,0,.17,0,.88.13-.33.93-.64,1.15-.03.02-.06.05-.09.08-.47.47-.89,1.17-1.5,1.45-.04.06-.06.13-.09.16-.22.31-.24.29-.53.48-.18.31-.56,1.03-.92,1.16-.27.1-.82.03-1.13.02-.18-.01-.19-.1-.2-.1-.08,0-.17,0-.25-.01-.06.04-.15.09-.24.13-1.77-.94-3.86-1.56-5.85-1.04-1.07.28-1.76.77-2.62,1.19-.44.22-.86.36-1.34.28-.82-.13-1.45-.81-1.89-1.5.22,1.34,1.06,2.61,2.52,2.85.7.13,1.4.03,2.06-.05.6-.07,1.13-.11,1.56-.04,1.55.28,2.69,1.68,3.58,3.03-.02.02-.04.04-.06.06-.1.1-.19.18-.33.21-.01.02,0,.06,0,.08l-.09.08s-.06.11-.09.16c-.03.05-.03.22-.11.36-.11.18-.71.96-.86,1.01-.42.15-.78,0-1.15,0-.79,0-1.69.04-2.46,0-.19,0-.61-.09-.79-.19-.37,0-.78.12-1.18.03.02.02-.03.14,0,.16.09.08.57-.03.57.37.06,0,.11,0,.17,0,.01,0,.11-.11.29-.07.15.03.28.16.38.27.04,0,.16,0,.17,0,.2,0,.29-.04.24.18.69.19,1.47.43,2.15.67.11.04.4.1.34.24-.98,1.19-1.82,2.58-2.8,3.76-.11.14-.35.48-.47.55-.33.2-1.37-.35-1.71-.55-2.52-1.42-3.92-4.11-6.15-5.86-.14-.11-.48-.22-.49-.24-.18-.03-.19-.02-.18.16,2.58,2.51,3.63,6.57,7.05,8.19.01.14-.08.22-.15.32-.42.59-1.14,1.37-1.65,1.92-.13.14-.62.67-.99,1.05-.07-.09-.14-.18-.21-.26-1.29-1.58-3.07-3.07-5.2-3.26-1.02-.09-1.76.11-2.64.22-.45.05-.86.04-1.25-.18-.67-.38-.99-1.12-1.17-1.89-.23,1.23.11,2.59,1.3,3.26.56.33,1.21.46,1.8.6.54.13,1.01.26,1.36.46,1.44.84,1.96,2.77,2.3,4.37-.19.14-.65.45-.68.46-.49.17-1.52-.3-2-.51-.13-.06-.3.01-.24-.22-.06,0-.12,0-.17,0,0,0-.06.09-.19.06-.12-.02-.83-.27-.72-.44-.03,0-.06,0-.08,0-.21-.06-.47,0-.58-.28-.03,0-.06,0-.08,0-.58-.18-.73-.29-1.24-.56-1.4-.74-2.75-1.69-4.11-2.39-.21-.11-.3-.26-.58-.2l.08.17c.16.06,1.08,1.1,1.33,1.33,1.43,1.29,2.98,2.52,4.58,3.58.44.29.96.54,1.4.82.07.04.14-.02.1.15-1.39.92-2.75,1.89-4.22,2.69-1.49-.35-2.94-.82-4.35-1.41-1.16-.48-2.26-1.1-3.41-1.62l.79.79c1.63,1.31,3.36,2.46,5.18,3.5l-5.2,3.42c-3.2.34-5.24-3.21-8.37-2.98-.58.04-1.6.35-1.83.92.38-.31.89-.5,1.38-.53,2.8-.13,4.37,3.18,6.87,3.96l-4,3.01c-3.3-.31-6.47-1.3-9.64-2.2.02.12.14.18.22.24.7.51,1.92,1.14,2.72,1.56,1.45.78,2.96,1.49,4.48,2.13l-3.3,2.94c-1.31.83-4.6-.51-6.07-.85-1.63-.37-3.81-.71-5.19.41,3.34-.96,6.02,1.71,9,2.66l.02.04c-.47.68-1.36,1.47-1.97,2.17-.34.4-.63.97-1.03,1.33-1.67,1.51-4.69,1.56-6.67.7l.55.59c1.22.78,2.62,1.39,4.09,1.4,0,.09,0,.18-.03.27-.16.47-.83,1.33-1.09,1.82-.3.55-1,2.26-1.41,2.53-.85.57-2.67.62-3.64.41-.84-.17-1.61-.58-2.37-.95-.04.16.08.2.15.3,1.07,1.43,3.3,2.33,5.04,2.47l-.97,4.17c-2.97.32-6.01.22-8.92-.48-.15.12.56.47.64.51,2.44,1.25,5.24,1.94,7.91,2.52-.05,1.17-.08,2.33.01,3.5-.02.12-.05.22-.15.3-.19.14-1.01.45-1.27.53-1.56.48-3.37.46-4.92-.04-.15-.05-.87-.52-.69-.1.08.19,1.71.98,1.98,1.19,1.71.59,3.4.74,5.2.55.1.55.15,1.12.26,1.66.12.61.43,1.5.49,2.06.06.55-.41.74-.88.94-1.23.53-1.94.44-3.18.09-.12-.04-.22-.08-.2.1,1.04.96,2.32,1.24,3.7,1.23.26,0,1.11-.17,1.23-.08l1.74,4.15c-1.01.39-2.46.28-3.49-.04-2.36-.73-3.82-2.88-6.54-2.74-.66.03-1.58.26-1.87.92.27-.05.44-.24.71-.33,2.56-.86,4.46,1.99,6.31,3.18,1.81,1.16,3.95,1.41,6.06,1.18l.94,1.48-.62.87"/><path class="cls-8" d="M323.43,337.37c-.03.12.03.18.11.26.04-.08-.07-.34-.11-.26Z"/><path class="cls-8" d="M299.67,356.2h-.08c.03.05.05.05.08,0Z"/><circle class="cls-7" cx="295.86" cy="315.45" r="17.91"/><circle class="cls-5" cx="336.75" cy="281.38" r="17.91"/><path class="cls-6" d="M330.74,286.99c-2.78-.72-5.6.06-7.59,1.85-1.75-1.89-4.04-3.33-6.72-4.02-7.46-1.94-15.07,2.53-17.01,9.99-1.94,7.46,2.53,15.07,9.99,17.01,7.12,1.85,14.38-2.15,16.71-9,.16.05.31.1.47.14,4.41,1.15,8.91-1.5,10.06-5.91s-1.5-8.91-5.91-10.06Z"/><path class="cls-7" d="M334.69,260.42c.35,2.85,2.13,5.18,4.52,6.37-1.11,2.32-1.6,4.98-1.26,7.73.95,7.65,7.92,13.07,15.56,12.13,7.65-.95,13.07-7.92,12.13-15.56-.91-7.3-7.3-12.57-14.53-12.21-.01-.16-.02-.33-.04-.49-.56-4.52-4.68-7.73-9.2-7.17s-7.73,4.68-7.17,9.2Z"/><circle class="cls-5" cx="304.25" cy="310.6" r="7.5"/><circle class="cls-6" cx="341.05" cy="283.67" r="7.5"/><circle class="cls-33" cx="329.48" cy="267.99" r="7.5"/><circle class="cls-6" cx="279.02" cy="315.96" r="7.5"/><path class="cls-24" d="M196.78,283.03c-9.79-1.9-18.65-6.15-27.81-9.86-6.1-2.47-12.23-4.77-18.77-6.08-11.75-2.35-22.61-3.35-30.24-14.05-4.05-5.68-5.95-13.31-4.94-20.2,1.29-8.82,7.22-17.83,15.65-21.57,15.59-6.91,34.84,3.89,49.18,9.65,3.71,1.49,6.05,2.06,10.05,2.5,12.32,1.37,26.41-.35,36.28,8.77,15.95,14.73,12.26,43.7-9.73,50.31-6.68,2.01-12.97,1.84-19.69.53ZM197.92,279.76c12,2.2,24.81-.15,31.32-11.62,5.31-9.36,3.98-22.39-2.86-30.68-10.39-12.58-27.04-8.43-41.19-11.17-5.95-1.15-11.63-4.31-17.22-6.66-13.87-5.84-32.1-12.9-43.79,1.06-11.28,13.46-5.68,33.89,11.13,39.47,7.94,2.64,16.64,3.25,24.68,5.84,12.61,4.06,24.92,11.38,37.93,13.76Z"/><path class="cls-35" d="M135.3,260.16c7.94,2.64,16.64,3.25,24.68,5.84,12.61,4.06,24.92,11.38,37.93,13.76,12,2.2,24.81-.15,31.32-11.62,5.31-9.36,3.98-22.39-2.86-30.68-10.39-12.58-27.04-8.43-41.19-11.17-2.51-.49-4.98-1.33-7.41-2.32-.48-.23-.97-.43-1.47-.62-2.82-1.21-5.59-2.57-8.34-3.72-13.87-5.84-32.1-12.9-43.79,1.06-11.28,13.46-5.68,33.89,11.13,39.47Z"/><path class="cls-17" d="M196.87,233.99c-1.54,1.11-2.51-.55-3.7-1.1-.92-.43-1.07.15-1.84.55-1.37.69-3.28.48-3.5-1.31-.19-1.55,1.75-2.54,2.99-2.91,2.27-.68,5.67-.19,6.72,2.21.38.87.1,2.01-.68,2.57ZM196.64,233.26c.4-.36.46-1.16.25-1.64-1.09-2.54-5.92-2.39-7.78-.82-1.29,1.09-.28,2.75,1.41,2.21.74-.23,1.32-1.02,2.08-1,1.58.03,2.65,2.51,4.03,1.24Z"/><path class="cls-11" d="M132.38,255.29c-.67.47-1.95.92-2.56.14-.71-.92-.43-1.73-.62-2.71-.22-1.14-1.24-1.32-1.85-2.14-1.17-1.56.91-3.1,2.53-2.27,1.09.56,2.59,2.69,3.01,3.82.34.92.38,2.54-.5,3.16ZM132,254.65c.56-.52.46-1.81.16-2.45-.58-1.23-2.48-4.37-4.13-3.11-1.08.83.91,1.85,1.34,2.38.87,1.08.3,2.56.89,3.42.38.55,1.34.13,1.74-.23Z"/><path class="cls-36" d="M231.89,284.6c.64-2.07.24-4.04-1.26-5.66-.16-.17-1.18-.97-1.16-1.05.65-.58,1.24-1.23,1.81-1.88,1-1.15,1.27-2.25,3.04-2.25,3.09,0,3.08,3.09,5.02,3.68.08.02.43.14.45.02-.11-.25-.36-.2-.54-.37-.82-.73-.99-2.21-1.51-3.11-.46-.79-1.56-1.68-2.4-2.04-.18-.08-.98-.22-.97-.36l2.03-3.92c1.7,1.04,5.2-.12,6.21,2.03.12.26.06.53.13.76.13.5.29-.27.28-.48-.01-.8-.49-1.52-1.06-2.06-1.29-1.21-3.58-.99-4.8-2.31l1.18-5.17.21-.14c.92.24,1.67,1.05,2.55,1.46,1.61.76,3.6.68,5.14-.24-.09-.24-.13-.07-.26-.05-.66.11-1.18.21-1.86.13-2.5-.31-3.07-2.12-4.92-3.38-.2-.14-.53-.16-.56-.41l.14-3.44c.09-.18.99-.34,1.27-.44,1.96-.73,3.46-1.74,5.65-1.15l1.56.67c-1.18-1.44-3.05-1.94-4.86-1.81-.73.05-3.13.65-3.59.49-.07-.02-.1-.02-.15-.09-.06-.09-.29-1.86-.27-2.02,0-.08,0-.16.07-.22,1.6-.86,3.13-1.89,4.82-2.55.8-.29,1.67-.21,2.36.3l.52.46c-.58-1.76-2.4-1.88-3.95-1.55-1.4.29-2.83.82-4.23,1.18l-1-3.63c1.95-1.13,3.45-2.89,4.15-5.03.31-.96.49-2.33.33-3.32-.01-.09-.01-.29-.14-.28-.16.52-.15,1.11-.29,1.63-.61,2.22-2.61,4.38-4.87,4.97l-1.57-3.38c.01-.13.83-.73,1-.9.78-.8,1.3-2.2,1.29-3.32-.03-1.85-1.93-3.46-1.39-5.22.09-.3.37-.77.62-.94.13-.09.36-.05.4-.2-.74-.09-1.3.56-1.58,1.18-.95,2.17,1.55,4.43-.31,6.49-1.28,1.42-1.24.71-1.99-.32-.71-.98-1.5-1.92-2.27-2.85.78-1.09.74-2.45.09-3.6-1.09-1.92-3.6-2.83-3.05-5.45.15-.7.34-.85.67-1.41.07-.11.17-.18.05-.32-1.38,1.06-1.93,3.06-1.2,4.65.45.99,2.29,3.22,1.96,4.2-.03.09-.02.14-.14.18-1.78-1.55-3.64-3-5.64-4.26-.14-.67-.08-1.37-.2-2.05-.27-1.42-.9-2.65-1.81-3.77-.2.1-.12.06-.08.19.11.3.29.59.38.89.39,1.26.4,2.64.09,3.91-.65-.34-1.32-.69-2-.97-.44-.19-.92-.32-1.33-.48-.21-.08-1.29-.42-1.34-.48-.05-.05-.21-1.06-.34-1.34-1.14-2.45-4.5-2.29-4.41-5.25.03-.93.47-1.62,1.08-2.28.1-.11.24-.06.08-.25-1,.48-1.76,1.62-1.94,2.7-.3,1.87.75,3.24,2.15,4.34.08-.02.12.04.16.1.03.05.05.1.09.14.25,0,.33.24.44.42.05.07.08.14.13.21.11-.05.23.14.13.21.02.05.06.09.09.14.37.79-.95.23-1.3.1-.04-.01-.08-.02-.11-.03-.64-.14-1.45-.1-2.01-.45-.07,0-.14.02-.19.01-.38-.01-.36-.04-.69-.17-.35.02-1.15.1-1.46-.13-.23-.17-.47-.65-.62-.92-.09-.16-.02-.21-.03-.22-.04-.07-.09-.14-.13-.21-.07-.03-.15-.08-.24-.13-.19-1.97-.81-4.03-2.32-5.38-.82-.73-1.59-1.03-2.41-1.51-.42-.25-.76-.52-.96-.95-.33-.75-.12-1.64.21-2.37-.99.91-1.57,2.29-.98,3.63.27.64.74,1.17,1.16,1.67.39.46.7.87.87,1.26.61,1.43.08,3.13-.55,4.6-.03,0-.05,0-.08-.01-.14-.03-.25-.06-.35-.16-.02,0-.05.04-.07.04l-.11-.03c-.05,0-.12.01-.19.01-.05,0-.2.1-.36.1-.21,0-1.17-.06-1.3-.16-.35-.26-.43-.64-.62-.95-.42-.65-.95-1.37-1.34-2.03-.1-.17-.26-.56-.28-.76-.21-.3-.52-.58-.67-.96,0,.02-.13.05-.14.09-.01.12.33.45,0,.67.03.05.06.09.09.14,0,.01.15.03.22.2.06.14.02.32-.02.46.02.03.09.14.09.14.1.17.2.22-.02.3.22.67.45,1.44.62,2.13.03.11.14.38-.02.41-1.51-.16-3.11-.1-4.62-.27-.17-.02-.59-.03-.71-.09-.35-.16-.45-1.32-.48-1.71-.2-2.85,1.26-5.46,1.49-8.25.01-.17-.08-.51-.07-.53-.07-.16-.09-.17-.23-.06-.66,3.49-3.45,6.56-2.92,10.26-.11.09-.23.06-.35.05-.72-.02-1.75-.2-2.47-.32-.19-.03-.89-.15-1.4-.25.04-.11.07-.21.1-.31.6-1.92.86-4.2-.14-6.05-.48-.89-1.05-1.39-1.61-2.06-.29-.35-.5-.69-.53-1.13-.05-.76.39-1.42.92-1.99-1.14.48-2.08,1.5-1.98,2.84.03.64.28,1.24.48,1.81.19.52.34.98.36,1.37.09,1.64-1.22,3.12-2.35,4.27-.22-.08-.72-.29-.75-.31-.41-.31-.58-1.42-.66-1.93-.02-.14-.17-.24.05-.32-.02-.05-.07-.1-.09-.14,0,0-.11,0-.15-.12-.05-.11-.22-.83-.03-.84,0-.03-.03-.05-.04-.07-.07-.2-.26-.39-.08-.63,0-.03-.03-.05-.04-.07-.17-.57-.15-.76-.21-1.33-.15-1.56-.1-3.18-.26-4.69-.03-.23.05-.39-.16-.59l-.1.16c.03.16-.32,1.49-.37,1.82-.29,1.87-.46,3.82-.46,5.72,0,.52.08,1.09.08,1.6,0,.08.09.11-.07.16-1.51-.65-3.06-1.24-4.5-2.02-.52-1.41-.92-2.87-1.2-4.35-.23-1.22-.33-2.46-.52-3.69l-.23,1.08c-.19,2.05-.2,4.11-.07,6.17l-5.65-2.43c-2.01-2.45-.21-6.06-2.09-8.51-.35-.45-1.16-1.13-1.75-1.01.46.14.9.46,1.18.85,1.63,2.24-.24,5.33.47,7.81l-4.65-1.66c-1.54-2.89-2.45-6.03-3.42-9.14-.09.08-.07.21-.08.31-.04.86.11,2.2.19,3.09.15,1.62.38,3.25.67,4.85l-4.21-1.13c-1.39-.63-2.07-4.07-2.6-5.46-.58-1.55-1.48-3.53-3.16-4.05,2.61,2.23,1.86,5.89,2.7,8.86-.12-.04-.24.03-.35.02-.77-.07-1.74-.32-2.54-.43-.51-.07-1.14,0-1.66-.13-2.15-.55-3.83-3.01-4.2-5.11l-.18.77c.02,1.43.28,2.91,1.06,4.13-.08.05-.15.1-.24.12-.48.12-1.54.04-2.09.09-.62.05-2.4.4-2.85.21-.93-.39-1.95-1.86-2.32-2.78-.32-.79-.39-1.64-.51-2.47-.15.05-.12.18-.17.29-.6,1.66-.13,3.99.7,5.5l-3.96,1.47c-1.88-2.28-3.44-4.83-4.45-7.61-.18-.06-.08.72-.08.8.3,2.69,1.25,5.37,2.22,7.89-.99.59-1.96,1.2-2.87,1.91-.11.05-.21.08-.33.04-.22-.08-.92-.59-1.13-.76-1.24-1.02-2.21-2.53-2.64-4.08-.04-.15-.04-1-.29-.62-.11.17.12,1.95.1,2.27.45,1.73,1.23,3.2,2.37,4.58-.4.38-.84.73-1.23,1.12-.44.43-1,1.17-1.44,1.52-.43.35-.83.06-1.26-.21-1.11-.72-1.42-1.36-1.8-2.57-.04-.12-.06-.23-.19-.11-.23,1.38.24,2.58,1,3.72.14.21.74.82.73.97l-2.47,3.69c-.87-.63-1.57-1.87-1.86-2.9-.68-2.34.3-4.71-1.3-6.88-.39-.53-1.07-1.16-1.77-1.04.18.19.43.23.66.41,2.1,1.65.78,4.76.81,6.93.03,2.12.98,4.02,2.31,5.63l-.71,1.58c-3.49-1.41-6.27-3.85-8.19-6.83.93,1.46,2.06,2.8,3.38,3.95l.83,8.36c.45.22,2.01.86,2.07,1.02l-.4,3.12c-.18.44-1.17.17-1.57.17-3.68-.03-5.91.44-9.31-1.41-.74-.4.18.45.39.61,1.4,1.05,3.29,1.56,5,1.85,1.72.29,3.49.37,5.2.72l.2.17.39,4.87c-.19.18-.44.06-.65.09-1.68.18-3.39.45-4.98,1.04.07.21.12.09.25.09,1.3,0,2.51-.06,3.81.11.62.08,1.24.24,1.86.34l1.7,5.39c-.63.05-1.26.11-1.89.14-1.09.04-2.22-.01-3.28-.06-.29-.01-2.57-.23-2.61-.1l1.21.51c2.04.45,4.22,1.2,6.24,1.53.07.01.19-.11.3-.1,1.25.03,1.05.41,1.55,1.3.27.49.59.95.86,1.44l2.72,3.75c-1.74.97-3.67,1.61-5.66,1.79-.51.05-1.33-.05-1.77.04-.38.07.04.27.19.31,2.16.59,5.12.62,7.3.1.39-.09,1.34-.5,1.63-.44.28.06,1.55,1.35,1.89,1.64.39.34.83.65,1.25.95-2.12,1.88-4.82,2.72-7.61,2.76-.34,0-.71-.06-1.02-.05-.09,0-.28-.02-.27.12,2.67.97,6.01.8,8.65-.28.81-.33,1.46-.76,2.24-1.16,1.48.87,2.98,1.69,4.58,2.32.11.13.03.1-.03.17-1.35,1.67-4.11,3.07-6.17,3.61-1.58.42-3.18.4-4.79.43,3.99,1.27,8.5.32,11.95-2.02.31-.21,1.36-1.17,1.57-1.18,1.26.39,2.54.8,3.82,1.14.33.09,1.82.33,1.98.45.15.11-.04.16-.11.21-.41.28-.88.49-1.29.77-3.29,2.27-4.37,4.05-8.63,4.72-.09.01-.29.02-.28.14,4.72.58,8.2-3.44,12.45-4.69,1.99-.59,3.82.16,5.82.53.07.01.14-.09.19.11-1.25.85-2.48,1.98-3.28,3.27-.08.13-.52.68-.24.76.35-.24.58-.62.9-.9,1.43-1.24,3.64-2.29,5.53-2.49,1.24-.13,3.94.81,5.16,1.17.5.15,1.06.16,1.52.43-1.69,1.1-3.44,2.47-4.66,4.08-.1.13-.24.29-.21.46,2.22-1.79,4.82-3.09,7.59-3.67,1.7.56,3.41,1.13,5.03,1.88l-4.57,3.01c-.96.41-1.98.89-3.01,1.06-.3.05-.7-.02-.92.01-.11.02-.13.1-.04.17.4.3,2.57-.05,3.09-.19,2.53-.67,4.8-2.46,7.33-2.98.68-.14.8-.07,1.42.16.75.28,1.53.64,2.25.94,1.21.5,2.39,1.1,3.63,1.51.21.16-.5.54-.58.59-.58.32-1.33.53-1.92.85-1.91,1.04-3.21,2.71-3.82,4.76.1.16-.24,1.12-.09,1.14.2.04.26-.49.32-.62.51-1.12,1.2-2.16,2.21-2.91,1.71-1.28,3.9-1.03,5.64-2.1.22-.13.61-.58.75-.6.24-.04.91.38,1.16.47.34.13,2.14.76,2.26.9.07.08.11.32.09.42-.12.65-2.45,1.56-3.06,1.96-1.7,1.12-3.37,3.25-4,5.19-.04.12-.31,1.05-.18,1.08.29-.35.42-.8.66-1.2.79-1.32,2.16-2.71,3.53-3.42,1.38-.71,3.15-.8,4.39-1.75.26-.2,1.08-1.27,1.24-1.27l8.19,2.83c-1.95,1.58-4.67,1.07-6.79,2.39-1.08.67-2.38,2.28-2.6,3.54-.02.12-.1.22,0,.34.06.02.43-.81.51-.93,2.73-4.3,6.87-1.38,10.29-3.84.29-.21.74-.81,1.01-.88.24-.06,1.32.37,1.63.44.64.14,1.34.2,1.95.32.42.08.84.21,1.27.26-2.62,2.62-6.63,3.08-9.13,5.89-.33.37-.77.97-.86,1.45,2.83-3.56,7.82-3.27,11.36-5.79.34-.24,1.05-1.06,1.33-1.16.13-.05,1.89.12,2.22.14.21.01.45.1.59.11.29.02,1.71-.08,1.84,0,.37.21.02,1.03-.14,1.31-.75,1.32-2.54,2.05-3.71,3.01-1.08.89-2.03,2.4-1.57,3.83l.19-.89c.94-2.75,4.36-2.61,6.27-4.37.81-.74,1.42-1.75,1.48-2.86l3.92-.48c.12.05-.2.92-.25,1.06-.37.93-.99,1.82-1.35,2.76-.53,1.37-.61,2.77.34,4.01.24-.09.08-.12.04-.26-.91-3.09,2.07-4.43,3.18-7.04.12-.29.1-.8.43-.93,1.29-.27,2.62-.53,3.83-1.06.07.1.13.2.16.32.2.59-.54,2.46-.66,3.18-.18,1.07-.06,2.56,1.03,3.12.62.32.1-.18-.03-.37-1.21-1.87,1.38-3.92,1.67-5.84.03-.21,0-1.03.03-1.09.05-.09.71-.41.84-.45.04-.01.19.18.45-.17,1.21,1.82,2,3.88,2.35,6.03.01.09-.06.87.21.48.07-.1.23-2.15.24-2.43.03-1.73-.3-3.47-.81-5.13,1.4-.84,2.74-1.77,4.05-2.74,2.12-.03,3.75,1.61,4.12,3.65.05.3.02,1.28.12,1.43.12.17.13-.2.14-.22Z"/><path class="cls-11" d="M143.75,273.45c-.12.04-.13.12-.15.23.09-.01.24-.24.15-.23Z"/><path class="cls-11" d="M115.32,264.1l-.04-.07c-.03.05-.02.08.04.07Z"/><circle class="cls-7" cx="144.78" cy="242.43" r="17.68"/><circle class="cls-5" cx="195.75" cy="255.12" r="17.68"/><path class="cls-6" d="M187.78,253.6c-1.05-2.64-3.32-4.42-5.9-4.97.49-2.5.29-5.16-.72-7.7-2.8-7.07-10.81-10.52-17.88-7.72-7.07,2.8-10.52,10.81-7.72,17.88,2.68,6.75,10.09,10.2,16.91,8.06.05.15.1.31.16.46,1.66,4.18,6.39,6.22,10.57,4.57s6.22-6.39,4.57-10.57Z"/><path class="cls-33" d="M211.24,241.25c-2.07,1.95-2.89,4.72-2.44,7.32-2.5.47-4.9,1.63-6.89,3.51-5.53,5.21-5.79,13.93-.58,19.46s13.93,5.79,19.46.58c5.28-4.98,5.76-13.15,1.25-18.69.12-.1.25-.21.36-.32,3.27-3.08,3.43-8.24.34-11.51-3.08-3.27-8.24-3.43-11.51-.34Z"/><circle class="cls-5" cx="153.53" cy="246.27" r="7.4"/><circle class="cls-6" cx="196.44" cy="259.87" r="7.4"/><circle class="cls-7" cx="202.17" cy="241.52" r="7.4"/><circle class="cls-6" cx="134.55" cy="229.31" r="7.4"/><path class="cls-25" d="M350.82,187.94c-8.09,6.13-17.33,9.97-26.37,14.39-6.02,2.95-11.92,6.04-17.36,10.11-9.77,7.31-17.9,14.88-31.19,13.39-7.06-.79-14.14-4.52-18.68-9.97-5.81-6.97-8.62-17.59-5.72-26.52,5.35-16.51,26.61-23.78,40.73-30.75,3.65-1.8,5.67-3.19,8.72-5.93,9.4-8.42,17.67-20.27,31.3-21.57,22.01-2.09,41.47,20.38,31.55,41.54-3.01,6.43-7.41,11.08-12.97,15.29ZM349.12,184.85c9.82-7.61,16.74-18.92,12.45-31.65-3.49-10.39-14.28-18.23-25.21-18.67-16.6-.67-24.77,14.78-36.45,23.65-4.92,3.73-11.17,5.9-16.75,8.54-13.85,6.55-31.59,15.59-28.94,33.94,2.55,17.7,21.85,27.33,37.5,18.37,7.4-4.23,13.77-10.42,21.19-14.76,11.64-6.8,25.55-11.17,36.2-19.42Z"/><path class="cls-35" d="M291.72,219.03c7.4-4.23,13.77-10.42,21.19-14.76,11.64-6.8,25.55-11.17,36.2-19.42,9.82-7.61,16.74-18.92,12.45-31.65-3.49-10.39-14.28-18.23-25.21-18.67-16.6-.67-24.77,14.78-36.45,23.65-2.08,1.58-4.39,2.87-6.79,4.04-.5.21-.99.44-1.47.7-2.83,1.31-5.74,2.5-8.49,3.8-13.85,6.55-31.59,15.59-28.94,33.94,2.55,17.7,21.85,27.33,37.5,18.37Z"/><path class="cls-19" d="M313.69,154.56c-.21,1.92-2.13,1.53-3.35,2.06-.95.41-.61.91-.84,1.77-.41,1.51-1.86,2.81-3.37,1.76-1.31-.91-.74-3.05-.18-4.25,1.02-2.19,3.71-4.43,6.24-3.59.92.3,1.59,1.29,1.49,2.26ZM312.98,154.24c0-.55-.57-1.14-1.07-1.3-2.67-.9-5.83,2.87-5.9,5.35-.05,1.72,1.89,2.08,2.64.43.33-.72.13-1.69.65-2.26,1.09-1.18,3.7-.31,3.68-2.22Z"/><path class="cls-19" d="M286.04,217.94c-.1.82-.63,2.11-1.63,2.04-1.18-.08-1.6-.85-2.48-1.37-1.02-.61-1.84.04-2.88-.05-1.98-.17-1.73-2.8,0-3.46,1.16-.45,3.8-.14,4.94.32.93.37,2.18,1.43,2.05,2.53ZM285.29,217.79c0-.78-1.06-1.58-1.75-1.79-1.33-.4-5-1.09-5.17,1.02-.11,1.38,2.02.56,2.71.6,1.41.07,2.14,1.51,3.2,1.65.68.09,1.01-.92,1.01-1.48Z"/><path class="cls-36" d="M375.87,162.37c-1.13-1.89-2.9-2.92-5.15-2.89-.24,0-1.54.23-1.59.17,0-.89-.09-1.78-.2-2.65-.19-1.54-.84-2.5.36-3.83,2.1-2.34,4.44-.23,6.2-1.31.07-.04.39-.23.32-.33-.26-.09-.4.13-.65.16-1.11.12-2.35-.75-3.38-.96-.92-.19-2.34.05-3.18.44-.18.08-.83.6-.93.49l-1.59-4.21c1.94-.59,3.44-4.02,5.76-3.34.28.08.44.31.66.42.47.24-.01-.4-.17-.54-.61-.53-1.49-.66-2.28-.59-1.79.15-3.18,2.04-5.01,2.07l-3.13-4.41.04-.26c.81-.54,1.93-.56,2.84-.94,1.67-.7,2.96-2.27,3.31-4.06-.24-.1-.14.05-.21.16-.36.58-.64,1.04-1.17,1.5-1.93,1.69-3.69.89-5.9,1.44-.24.06-.48.3-.7.14l-2.51-2.44c-.07-.2.42-.98.53-1.26.78-1.98,1.03-3.8,2.96-5.07l1.57-.73c-1.9-.08-3.55,1-4.68,2.45-.46.59-1.63,2.81-2.07,3.06-.06.04-.09.06-.17.05-.1-.02-1.6-1.04-1.72-1.16-.06-.06-.12-.11-.12-.21.44-1.8.69-3.66,1.34-5.39.32-.81.97-1.41,1.83-1.58l.7-.08c-1.73-.76-3.05.55-3.86,1.94-.73,1.26-1.3,2.71-1.97,4.01l-3.43-1.71c.47-2.25.16-4.58-1-6.56-.52-.88-1.43-1.95-2.3-2.5-.07-.05-.23-.18-.3-.09.28.48.74.87,1.04,1.33,1.27,1.97,1.55,4.96.46,7.07l-3.63-1.1c-.09-.1,0-1.12,0-1.37-.07-1.13-.78-2.48-1.64-3.23-1.42-1.24-3.94-.89-4.9-2.49-.16-.27-.33-.8-.29-1.11.02-.16.2-.3.12-.44-.57.51-.46,1.37-.17,2,1,2.2,4.41,1.83,4.71,4.64.21,1.94-.3,1.42-1.6,1.29-1.23-.12-2.48-.17-3.71-.22-.3-1.33-1.35-2.23-2.67-2.51-2.2-.47-4.59.81-6.21-1.39-.43-.59-.41-.83-.62-1.46-.04-.13-.02-.26-.21-.25-.14,1.77,1.01,3.54,2.71,4.07,1.06.33,4,.45,4.52,1.37.05.08.09.11.04.22-2.39.3-4.75.72-7.06,1.39-.6-.35-1.09-.87-1.7-1.24-1.26-.76-2.62-1.11-4.09-1.19-.06.22-.04.14.09.19.3.12.64.18.94.31,1.22.55,2.28,1.49,3.03,2.59-.7.26-1.42.54-2.1.86-.44.21-.87.48-1.27.69-.2.1-1.2.69-1.28.69-.07,0-.95-.56-1.25-.66-2.63-.8-4.79,1.86-6.98-.22-.69-.65-.91-1.45-1-2.37-.01-.14.11-.22-.14-.23-.31,1.08.03,2.44.73,3.3,1.21,1.5,2.97,1.64,4.75,1.32.04-.08.11-.06.18-.05.06,0,.11.03.17.03.17-.18.41-.08.62-.05.08.01.17.03.25.05.04-.12.26-.08.25.05.05.02.11.02.17.03.85.26-.47.88-.81,1.05-.04.02-.07.04-.1.07-.54.39-1.06,1.03-1.71,1.22-.05.05-.08.12-.12.15-.27.28-.28.25-.6.4-.23.28-.71.94-1.09,1.02-.28.06-.82-.09-1.12-.15-.18-.04-.17-.12-.19-.13-.08-.02-.17-.03-.25-.05-.07.03-.16.06-.26.09-1.62-1.2-3.61-2.13-5.66-1.89-1.11.12-1.86.5-2.78.8-.47.15-.91.23-1.38.08-.79-.25-1.32-1.02-1.65-1.77.02,1.37.67,2.75,2.09,3.21.67.23,1.39.23,2.06.26.61.02,1.14.06,1.55.2,1.49.51,2.43,2.06,3.12,3.54-.02.02-.04.04-.06.05-.12.09-.21.15-.36.16-.02.02,0,.06-.02.08l-.1.07s-.07.1-.12.15c-.04.04-.06.22-.16.34-.14.17-.85.85-1,.88-.44.09-.78-.11-1.14-.17-.78-.12-1.68-.21-2.45-.36-.19-.04-.6-.18-.76-.3-.37-.05-.79,0-1.18-.15.01.02-.05.13-.03.16.08.09.57.06.51.45.05.01.11.02.17.03.01,0,.13-.09.3-.03.15.05.25.2.34.33.04,0,.16.03.17.03.2.04.3,0,.22.22.66.29,1.4.64,2.04.98.1.05.38.15.3.29-1.15,1.04-2.19,2.29-3.34,3.32-.13.12-.42.43-.55.48-.36.15-1.31-.55-1.62-.8-2.3-1.78-3.29-4.66-5.25-6.74-.12-.13-.44-.29-.45-.31-.17-.05-.18-.05-.2.13,2.19,2.87,2.63,7.07,5.8,9.19,0,.14-.11.21-.2.3-.5.53-1.34,1.19-1.92,1.66-.15.12-.71.57-1.14.89-.06-.1-.11-.2-.17-.29-1.05-1.76-2.6-3.51-4.69-4-1-.24-1.77-.15-2.66-.18-.46-.02-.86-.09-1.22-.36-.61-.48-.82-1.26-.88-2.05-.41,1.19-.28,2.59.81,3.43.51.41,1.13.64,1.7.86.52.2.97.41,1.28.65,1.3,1.04,1.54,3.04,1.65,4.68-.21.11-.71.35-.75.36-.51.1-1.47-.53-1.91-.81-.12-.07-.3-.03-.21-.25-.05-.01-.12-.01-.17-.03,0,0-.07.08-.2.04-.12-.04-.78-.39-.65-.55-.02-.01-.06,0-.08-.02-.2-.09-.47-.06-.53-.36-.03-.01-.06,0-.08-.02-.55-.26-.68-.4-1.15-.74-1.28-.94-2.48-2.08-3.73-2.98-.19-.14-.26-.3-.55-.28l.05.18c.15.08.91,1.25,1.13,1.52,1.23,1.49,2.59,2.94,4.02,4.24.39.36.88.68,1.27,1.03.06.05.14,0,.08.16-1.52.7-3.02,1.48-4.59,2.05-1.43-.56-2.81-1.25-4.12-2.04-1.08-.65-2.09-1.42-3.15-2.11l.67.91c1.43,1.54,2.98,2.94,4.63,4.24l-5.68,2.63c-3.23-.14-4.74-3.96-7.87-4.2-.58-.04-1.64.12-1.95.64.42-.25.96-.37,1.45-.32,2.8.28,3.88,3.8,6.24,4.95l-4.42,2.4c-3.24-.79-6.24-2.24-9.25-3.61,0,.12.11.2.19.27.62.61,1.74,1.41,2.47,1.95,1.33.99,2.72,1.92,4.14,2.78l-3.72,2.43c-1.42.63-4.49-1.19-5.91-1.74-1.57-.61-3.68-1.27-5.22-.36,3.47-.46,5.73,2.59,8.55,3.97-.11.06-.14.21-.23.28-.58.54-1.42,1.1-2.05,1.63-.4.34-.77.87-1.22,1.17-1.88,1.25-4.89.86-6.73-.28l.46.66c1.1.96,2.4,1.77,3.85,2-.01.09-.03.18-.07.27-.23.45-1.02,1.2-1.35,1.64-.38.51-1.33,2.1-1.78,2.31-.93.44-2.74.22-3.68-.13-.81-.3-1.51-.82-2.22-1.29-.07.15.05.21.11.32.85,1.58,2.93,2.81,4.64,3.2l-1.58,4.01c-3-.12-6-.67-8.79-1.8-.17.1.49.55.56.6,2.24,1.61,4.92,2.7,7.49,3.67-.22,1.15-.42,2.31-.5,3.48-.04.12-.08.21-.2.27-.21.11-1.07.3-1.34.34-1.62.25-3.42-.04-4.89-.77-.14-.07-.78-.64-.67-.2.05.2,1.56,1.23,1.79,1.47,1.62.84,3.27,1.24,5.09,1.31.02.56-.02,1.13,0,1.69.03.62.21,1.55.18,2.12-.03.56-.52.68-1.01.81-1.3.35-2,.15-3.17-.38-.12-.05-.21-.11-.21.07.89,1.11,2.12,1.58,3.5,1.77.25.04,1.13,0,1.23.1l1.12,4.38c-1.06.23-2.48-.08-3.47-.56-2.24-1.07-3.37-3.43-6.1-3.69-.66-.06-1.61.02-1.99.64.27,0,.47-.17.75-.22,2.68-.48,4.14,2.64,5.8,4.09,1.63,1.42,3.72,1.99,5.85,2.07l.71,1.61c-3.44,1.69-7.18,2.14-10.74,1.58,1.74.29,3.52.34,5.29.12l6.9,5.05c.47-.19,2.02-.94,2.18-.87l2.09,2.42c.21.44-.66,1-.94,1.31-2.52,2.77-3.68,4.79-7.39,6.11-.81.29.47.17.73.12,1.75-.35,3.41-1.43,4.8-2.54,1.39-1.11,2.65-2.39,4.08-3.46l.27-.04,3.95,3.01c0,.26-.25.37-.38.55-1.01,1.4-1.96,2.87-2.59,4.48.21.09.15-.03.24-.12.88-.99,1.66-1.94,2.67-2.81.49-.42,1.02-.78,1.52-1.18l5.24,2.37c-.39.51-.77,1.03-1.18,1.53-.71.86-1.52,1.67-2.28,2.45-.2.21-1.92,1.79-1.85,1.91l1.21-.57c1.73-1.24,3.78-2.38,5.4-3.69.06-.05.05-.22.12-.3.87-.93,1.03-.52,2.04-.29.55.12,1.12.2,1.67.33l4.7.48c-.45,1.98-1.28,3.88-2.49,5.5-.31.42-.94.97-1.18,1.37-.2.33.23.16.37.07,1.92-1.24,3.95-3.46,5.04-5.47.19-.36.53-1.36.77-1.54.23-.18,2.07-.26,2.53-.32.52-.07,1.05-.19,1.57-.3-.02,2.89-1.21,5.5-3.07,7.65-.23.26-.52.5-.73.74-.06.07-.2.2-.1.29,2.56-1.37,4.69-4.02,5.66-6.75.3-.84.41-1.63.65-2.49,1.66-.53,3.31-1.12,4.87-1.9.18,0,.09.04.11.14.35,2.16-.46,5.2-1.45,7.13-.76,1.48-1.85,2.68-2.93,3.92,3.68-2.16,6.02-6.23,6.59-10.44.05-.38.04-1.82.17-2,1.15-.7,2.33-1.38,3.46-2.12.29-.19,1.49-1.15,1.69-1.2.18-.04.09.14.08.23-.06.5-.23,1-.29,1.5-.51,4.03.1,6.06-2.28,9.75-.05.07-.18.23-.09.3,3.64-3.19,2.96-8.56,4.9-12.63.91-1.91,2.72-2.79,4.36-4.05.06-.05.03-.16.21-.07-.2,1.52-.18,3.23.25,4.71.04.14.16.86.41.7.05-.43-.08-.86-.07-1.29.03-1.93.74-4.31,1.87-5.89.74-1.03,3.29-2.43,4.39-3.12.45-.28.84-.7,1.36-.86-.32,2.03-.46,4.28-.07,6.3.03.16.06.38.21.48.15-2.9.93-5.75,2.37-8.25,1.58-.91,3.17-1.81,4.84-2.54l-.82,5.51c-.34,1.01-.67,2.1-1.24,3-.17.26-.49.52-.61.7-.06.09-.01.17.1.15.49-.1,1.71-1.98,1.96-2.47,1.21-2.37,1.4-5.31,2.72-7.58.35-.61.48-.65,1.08-.97.72-.38,1.52-.72,2.24-1.07,1.2-.58,2.45-1.07,3.61-1.73.26-.06.08.75.05.84-.15.65-.5,1.37-.66,2.03-.51,2.16-.13,4.27,1.02,6.13.19.03.69.94.8.85.17-.13-.2-.53-.25-.66-.5-1.15-.82-2.38-.71-3.65.19-2.17,1.86-3.66,2.24-5.7.05-.25-.03-.85.05-.98.13-.2.9-.44,1.14-.56.33-.17,2.03-1.11,2.22-1.1.1,0,.32.14.38.22.41.53-.48,2.92-.59,3.65-.31,2.05.17,4.77,1.21,6.56.07.11.59.94.69.87-.06-.46-.33-.86-.47-1.31-.46-1.5-.59-3.48-.19-5,.4-1.53,1.54-2.93,1.66-4.52.03-.34-.23-1.68-.12-1.8l7.71-4.29c-.12,2.55-2.36,4.26-2.8,6.77-.22,1.27.11,3.35.92,4.37.08.1.1.23.26.22.05-.03-.32-.88-.36-1.02-1.4-4.99,3.62-6.15,4.08-10.41.04-.36-.11-1.11.02-1.36.11-.22,1.17-.75,1.44-.94.54-.38,1.06-.88,1.57-1.26.35-.26.73-.5,1.06-.79.21,3.76-2.17,7.12-1.73,10.93.06.51.21,1.24.52,1.64-.78-4.57,2.83-8.16,3.33-12.54.05-.42-.09-1.51.02-1.79.05-.13,1.37-1.35,1.61-1.59.15-.15.38-.27.49-.38.21-.21,1.1-1.35,1.25-1.4.41-.14.79.68.89.99.49,1.46-.17,3.32-.24,4.86-.06,1.42.44,3.17,1.84,3.79l-.55-.75c-1.45-2.58.98-5.08.95-7.72-.01-1.12-.37-2.27-1.16-3.07l2.3-3.3c.11-.06.57.78.63.91.46.91.71,1.99,1.17,2.9.68,1.34,1.69,2.34,3.27,2.46.09-.24-.04-.15-.17-.21-2.96-1.41-1.96-4.58-3.18-7.19-.13-.29-.54-.62-.42-.96.67-1.16,1.38-2.34,1.8-3.63.12.02.24.04.35.09.58.25,1.5,2.08,1.96,2.66.69.86,1.9,1.78,3.07,1.34.67-.25-.07-.2-.3-.23-2.24-.35-2.04-3.71-3.3-5.24-.14-.17-.78-.7-.8-.76-.04-.1.18-.82.23-.94.02-.04.26-.03.17-.46,2.2.32,4.31,1.12,6.17,2.32.08.05.62.64.51.16-.03-.12-1.47-1.64-1.68-1.83-1.29-1.2-2.84-2.13-4.44-2.87.32-1.64.52-3.27.68-4.93,1.42-1.62,3.77-1.75,5.56-.64.26.16.99.86,1.17.88.21.03-.06-.24-.07-.25Z"/><path class="cls-19" d="M307.54,221.65c-.05.12,0,.18.08.27.05-.08-.02-.35-.08-.27Z"/><path class="cls-10" d="M281.14,236.86l-.08-.02c.02.06.04.07.08.02Z"/><path class="cls-10" d="M259.04,216.46l-.09-.07-7.85-6.54c-2.01.28,5.21,7.71,7.93,6.61Z"/><circle class="cls-7" cx="284.46" cy="194.09" r="18"/><circle class="cls-5" cx="332.46" cy="170.51" r="18"/><path class="cls-6" d="M325.26,174.55c-2.55-1.37-5.49-1.26-7.85,0-1.26-2.26-3.16-4.2-5.61-5.52-6.82-3.66-15.32-1.09-18.98,5.73-3.66,6.82-1.09,15.32,5.73,18.98,6.51,3.49,14.55,1.31,18.45-4.83.14.09.28.17.43.25,4.03,2.16,9.06.65,11.22-3.39,2.16-4.03.65-9.06-3.39-11.22Z"/><path class="cls-7" d="M335.41,149.55c-.33,2.87.85,5.57,2.91,7.3-1.64,2.01-2.74,4.49-3.06,7.25-.88,7.69,4.63,14.64,12.33,15.53s14.64-4.63,15.53-12.33c.84-7.34-4.15-14.01-11.3-15.37.03-.16.05-.32.07-.49.52-4.55-2.74-8.66-7.29-9.18s-8.66,2.74-9.18,7.29Z"/><circle class="cls-5" cx="293.79" cy="191.34" r="7.54"/><circle class="cls-6" cx="336.11" cy="173.75" r="7.54"/><circle class="cls-33" cx="328.52" cy="155.71" r="7.54"/><circle class="cls-33" cx="267.89" cy="190.6" r="7.54"/><path class="cls-21" d="M127.16,152.73c-9.67-10.13-16.39-22.21-23.87-33.9-4.99-7.79-10.15-15.4-16.59-22.22-11.56-12.25-23.21-22.21-23.26-40.67-.03-9.81,3.98-20.1,10.75-27.18,8.65-9.06,22.77-14.58,35.47-12.01,23.49,4.74,36.79,32.76,48.56,51.02,3.04,4.72,5.26,7.27,9.5,11.03,13.02,11.58,30.57,21.05,34.49,39.53,6.32,29.85-21.43,60.07-52.02,49.79-9.29-3.12-16.36-8.43-23.01-15.39ZM131.12,149.9c11.98,12.27,28.57,19.98,45.36,12.11,13.7-6.42,22.75-22.44,21.64-37.5-1.69-22.87-24.16-31.64-38.16-46.27-5.89-6.16-9.84-14.39-14.33-21.63-11.15-17.97-26.33-40.87-51.08-34.36-23.87,6.28-34.04,34.25-19.3,54.31,6.97,9.48,16.45,17.25,23.56,26.75,11.16,14.9,19.33,33.29,32.32,46.59Z"/><path class="cls-35" d="M75.24,76.56c6.97,9.48,16.45,17.25,23.56,26.75,11.16,14.9,19.33,33.29,32.32,46.59,11.98,12.27,28.57,19.98,45.36,12.11,13.7-6.42,22.75-22.44,21.64-37.5-1.69-22.87-24.16-31.64-38.16-46.27-2.49-2.6-4.63-5.57-6.61-8.68-.37-.65-.77-1.28-1.18-1.9-2.25-3.68-4.33-7.48-6.54-11.05-11.15-17.97-26.33-40.87-51.08-34.36-23.87,6.28-34.04,34.25-19.3,54.31Z"/><path class="cls-15" d="M167.11,96.57c-2.66.02-2.43-2.68-3.35-4.27-.71-1.24-1.35-.69-2.56-.87-2.14-.32-4.15-2.11-2.95-4.34,1.04-1.93,4.06-1.49,5.8-.91,3.16,1.06,6.65,4.39,5.91,8-.27,1.31-1.52,2.39-2.86,2.4ZM167.43,95.54c.75-.09,1.47-.96,1.62-1.67.81-3.8-4.84-7.55-8.26-7.26-2.37.2-2.56,2.92-.18,3.69,1.04.33,2.34-.09,3.2.54,1.78,1.31,1.01,5.03,3.62,4.7Z"/><path class="cls-15" d="M75.84,68.6c-1.15,0-2.99-.53-3.05-1.91-.07-1.63.91-2.33,1.49-3.62.67-1.49-.35-2.51-.38-3.96-.07-2.74,3.56-2.82,4.74-.55.79,1.52.79,5.19.34,6.83-.36,1.33-1.62,3.22-3.14,3.21ZM75.94,67.55c1.07-.13,2-1.7,2.18-2.68.34-1.88.7-7.03-2.21-6.93-1.91.07-.45,2.86-.39,3.82.12,1.95-1.74,3.18-1.76,4.64-.01.94,1.43,1.24,2.18,1.15Z"/><path class="cls-36" d="M166.15,183.06c2.41-1.85,3.55-4.44,3.16-7.51-.04-.32-.56-2.07-.48-2.15,1.22-.13,2.42-.4,3.61-.68,2.08-.5,3.29-1.55,5.31-.11,3.53,2.51,1.02,6.05,2.77,8.3.07.09.38.5.5.39.08-.37-.25-.53-.32-.87-.34-1.5.66-3.34.79-4.79.11-1.28-.43-3.2-1.1-4.29-.14-.23-.95-1.05-.82-1.2l5.52-2.85c1.11,2.57,6.06,4.08,5.48,7.37-.07.4-.35.66-.47.98-.25.68.55-.08.71-.31.63-.92.67-2.15.45-3.22-.49-2.43-3.29-4.04-3.63-6.55l5.55-4.98.36.02c.86,1.03,1.07,2.56,1.74,3.75,1.22,2.18,3.58,3.7,6.09,3.9.09-.35-.09-.19-.26-.27-.85-.41-1.53-.72-2.24-1.36-2.62-2.39-1.8-4.93-2.89-7.87-.12-.33-.48-.61-.31-.93l2.95-3.82c.26-.13,1.42.42,1.81.52,2.84.76,5.38.82,7.41,3.26l1.24,2.04c-.19-2.61-1.92-4.71-4.1-6.03-.88-.53-4.11-1.8-4.52-2.36-.06-.08-.1-.11-.1-.23,0-.14,1.18-2.36,1.32-2.54.08-.09.14-.18.27-.2,2.54.32,5.12.37,7.61.99,1.16.31,2.08,1.11,2.46,2.26l.22.95c.77-2.49-1.23-4.1-3.27-4.99-1.84-.8-3.92-1.36-5.81-2.08l1.8-4.97c3.15.29,6.3-.51,8.84-2.4,1.13-.85,2.45-2.27,3.07-3.54.05-.11.22-.34.07-.43-.61.46-1.07,1.15-1.66,1.63-2.51,2.05-6.56,2.9-9.62,1.74l.94-5.15c.12-.14,1.54-.17,1.88-.23,1.54-.28,3.28-1.46,4.17-2.76,1.48-2.15.6-5.54,2.64-7.11.35-.27,1.05-.58,1.47-.57.22,0,.45.23.63.1-.78-.7-1.95-.42-2.77.07-2.86,1.71-1.82,6.33-5.63,7.18-2.63.59-2-.19-2.02-1.99-.02-1.71-.16-3.42-.29-5.12,1.77-.62,2.84-2.2,3.02-4.05.3-3.09-1.83-6.17.93-8.73.74-.69,1.08-.69,1.91-1.08.17-.08.35-.07.32-.33-2.45.09-4.69,1.94-5.16,4.35-.29,1.51.02,5.55-1.17,6.41-.11.08-.14.14-.3.09-.79-3.22-1.73-6.4-3.01-9.47.38-.88,1.02-1.63,1.43-2.52.85-1.84,1.12-3.77.99-5.79-.31-.05-.19-.03-.24.16-.12.43-.14.91-.28,1.33-.57,1.76-1.68,3.36-3.08,4.56-.47-.92-.96-1.86-1.51-2.74-.36-.57-.79-1.11-1.14-1.63-.17-.26-1.13-1.53-1.15-1.64-.02-.1.63-1.39.7-1.81.68-3.73-3.31-6.28-.8-9.61.79-1.05,1.85-1.48,3.09-1.74.2-.04.32.12.29-.23-1.53-.26-3.34.43-4.41,1.52-1.87,1.9-1.78,4.32-1.06,6.73.11.04.1.14.1.24,0,.08-.02.16-.02.23.27.21.18.55.17.84,0,.12-.02.23-.03.35.17.03.15.35-.03.35-.01.08,0,.16-.02.23-.22,1.21-1.28-.51-1.57-.95-.03-.05-.07-.09-.11-.13-.62-.68-1.58-1.29-1.95-2.15-.08-.06-.17-.1-.22-.14-.42-.32-.39-.34-.65-.76-.42-.27-1.4-.82-1.57-1.33-.13-.38,0-1.14.03-1.56.02-.25.14-.26.14-.27.01-.12.02-.23.03-.35-.05-.09-.11-.21-.17-.34,1.39-2.41,2.35-5.28,1.71-8.06-.34-1.5-.98-2.47-1.53-3.69-.28-.63-.46-1.21-.32-1.87.22-1.13,1.2-1.97,2.17-2.54-1.87.25-3.67,1.35-4.07,3.36-.21.96-.1,1.94-.03,2.86.07.84.1,1.57-.02,2.16-.46,2.13-2.45,3.66-4.36,4.83-.03-.03-.06-.05-.08-.08-.14-.15-.23-.27-.27-.47-.03-.02-.09,0-.12,0l-.11-.13c-.06-.04-.15-.08-.22-.14-.06-.04-.31-.05-.5-.17-.25-.16-1.29-1.03-1.36-1.24-.19-.58.03-1.09.05-1.59.05-1.1.02-2.34.11-3.42.02-.27.16-.85.3-1.09,0-.51-.12-1.09.01-1.64-.03.02-.19-.05-.23-.01-.11.13.01.79-.54.77-.01.08,0,.16-.02.23,0,.02.15.16.09.4-.05.21-.23.38-.4.51,0,.06,0,.23-.02.23-.02.28.05.41-.26.33-.29.95-.66,2.02-1.02,2.95-.06.15-.15.55-.35.46-1.6-1.42-3.49-2.64-5.08-4.06-.18-.16-.65-.51-.74-.68-.27-.47.55-1.88.84-2.35,2.08-3.43,5.87-5.24,8.42-8.25.16-.19.32-.65.36-.67.05-.25.04-.26-.22-.25-3.59,3.46-9.28,4.72-11.69,9.4-.19.01-.31-.12-.44-.22-.8-.61-1.85-1.65-2.58-2.37-.19-.19-.9-.89-1.4-1.42.13-.09.25-.19.37-.27,2.25-1.71,4.4-4.12,4.76-7.06.17-1.41-.08-2.45-.18-3.67-.05-.63-.02-1.19.3-1.72.56-.91,1.6-1.32,2.67-1.53-1.7-.37-3.6.03-4.58,1.65-.48.77-.69,1.65-.92,2.47-.2.75-.4,1.39-.7,1.86-1.23,1.95-3.93,2.59-6.16,2.99-.19-.28-.6-.92-.61-.97-.22-.69.49-2.09.81-2.75.08-.18,0-.42.32-.32.01-.08,0-.17.02-.23,0-.01-.12-.08-.08-.26.04-.17.42-1.14.65-.98.01-.04,0-.08,0-.12.09-.29.01-.65.42-.79.01-.04,0-.08,0-.12.27-.8.44-.99.84-1.69,1.09-1.91,2.47-3.73,3.5-5.59.16-.29.38-.4.3-.8l-.24.1c-.09.21-1.57,1.45-1.9,1.79-1.85,1.92-3.63,4.01-5.18,6.18-.43.6-.79,1.31-1.21,1.9-.06.09.02.2-.21.13-1.2-1.97-2.5-3.9-3.53-5.97.55-2.04,1.28-4.04,2.15-5.97.72-1.59,1.63-3.09,2.4-4.65l-1.14,1.06c-1.89,2.2-3.57,4.55-5.09,7.01l-4.5-7.37c-.32-4.45,4.69-7.12,4.52-11.46-.03-.8-.42-2.24-1.19-2.57.41.54.66,1.26.67,1.93.05,3.89-4.61,5.91-5.8,9.34l-3.99-5.68c.58-4.56,2.1-8.91,3.5-13.26-.17.02-.25.18-.34.3-.74.95-1.66,2.61-2.29,3.69-1.15,1.98-2.2,4.04-3.17,6.11l-3.92-4.71c-1.09-1.85.93-6.35,1.46-8.37.59-2.25,1.16-5.25-.33-7.21,1.18,4.68-2.65,8.26-4.1,12.35-.1-.14-.3-.17-.42-.27-.83-.71-1.73-1.78-2.56-2.55-.53-.5-1.31-.92-1.79-1.49-2.01-2.38-1.95-6.57-.67-9.27l-.84.74c-1.14,1.65-2.05,3.57-2.14,5.6-.13,0-.25-.01-.38-.06-.65-.24-1.8-1.21-2.47-1.6-.75-.44-3.08-1.49-3.44-2.07-.75-1.21-.73-3.72-.41-5.07.28-1.16.88-2.2,1.42-3.24-.22-.07-.29.1-.43.2-2.03,1.42-3.39,4.46-3.66,6.87l-5.74-1.53c-.3-4.14-.02-8.34,1.09-12.34-.16-.22-.68.76-.74.86-1.85,3.33-2.93,7.17-3.86,10.85-1.61-.12-3.23-.22-4.85-.15-.17-.03-.31-.08-.41-.22-.18-.27-.58-1.42-.68-1.79-.6-2.19-.48-4.69.28-6.82.07-.2.76-1.18.17-.95-.26.1-1.44,2.33-1.74,2.69-.9,2.35-1.19,4.68-1,7.18-.77.11-1.55.15-2.32.28-.85.14-2.1.53-2.88.58-.77.05-1.01-.61-1.27-1.26-.68-1.73-.52-2.72.02-4.41.06-.17.12-.31-.13-.28-1.38,1.4-1.83,3.16-1.88,5.08,0,.35.19,1.54.05,1.71l-5.83,2.23c-.49-1.42-.27-3.42.22-4.84,1.12-3.24,4.17-5.16,4.1-8.94-.02-.92-.28-2.2-1.19-2.63.05.37.31.61.42,1,1.07,3.59-2.97,6.09-4.7,8.6-1.69,2.46-2.14,5.41-1.92,8.34l-2.1,1.23c-2.86-4.46-4.06-9.51-3.85-14.49-.13,2.43.08,4.89.66,7.28l-5.84,10.26c.34.62,1.6,2.62,1.54,2.85l-3,3.25c-.57.35-1.48-.75-1.94-1.08-4.2-3.02-7.14-4.29-9.53-9.18-.52-1.06-.16.67-.05,1.02.75,2.34,2.5,4.46,4.23,6.19,1.74,1.73,3.7,3.25,5.38,5.05l.09.36-3.51,5.89c-.36.05-.55-.28-.82-.43-2.07-1.16-4.25-2.24-6.56-2.85-.09.31.06.21.21.31,1.5,1.05,2.92,1.97,4.27,3.22.65.6,1.23,1.28,1.86,1.9l-2.43,7.56c-.76-.45-1.54-.9-2.28-1.38-1.29-.83-2.53-1.82-3.72-2.74-.32-.25-2.76-2.35-2.91-2.23l.97,1.56c1.97,2.17,3.86,4.8,5.91,6.83.07.07.31.04.43.12,1.42,1.05.87,1.33.72,2.75-.08.78-.1,1.56-.19,2.34l.07,6.52c-2.79-.3-5.52-1.14-7.94-2.55-.63-.36-1.48-1.13-2.06-1.4-.49-.22-.18.34-.03.52,2,2.44,5.37,4.88,8.29,6.05.52.21,1.94.52,2.23.82.28.29.68,2.8.84,3.42.18.71.42,1.41.66,2.1-3.96.43-7.73-.79-10.97-3.01-.39-.27-.76-.64-1.13-.89-.1-.07-.3-.25-.41-.09,2.27,3.29,6.25,5.8,10.14,6.7,1.2.28,2.3.31,3.51.5.99,2.19,2.05,4.36,3.37,6.38.02.25-.04.14-.17.17-2.91.82-7.2.18-10-.87-2.15-.81-3.97-2.12-5.84-3.41,3.54,4.7,9.49,7.28,15.35,7.4.52.01,2.51-.24,2.77-.08,1.13,1.47,2.25,2.98,3.45,4.41.31.37,1.81,1.86,1.9,2.13.08.25-.18.15-.3.15-.7,0-1.41-.16-2.1-.17-5.61-.07-8.3,1.09-13.73-1.59-.11-.05-.34-.22-.43-.07,4.95,4.5,12.21,2.72,18.09,4.73,2.76.95,4.25,3.29,6.24,5.34.07.08.22.01.13.28-2.12-.04-4.46.25-6.42,1.09-.19.08-1.15.36-.89.67.59,0,1.16-.24,1.76-.3,2.65-.26,6.03.33,8.37,1.64,1.53.85,3.85,4.13,4.97,5.53.46.58,1.09,1.04,1.39,1.73-2.83-.12-5.94.04-8.65.9-.21.07-.52.14-.62.36,4-.25,8.03.37,11.69,1.96,1.5,2.02,2.99,4.07,4.24,6.24l-7.68-.26c-1.44-.31-2.99-.59-4.31-1.23-.38-.19-.79-.59-1.06-.73-.14-.07-.23.01-.19.16.22.66,2.99,2.03,3.7,2.29,3.44,1.28,7.5,1.08,10.83,2.53.89.39.97.56,1.5,1.33.63.93,1.23,1.98,1.81,2.91.98,1.56,1.85,3.19,2.94,4.68.12.35-1.01.22-1.14.21-.92-.1-1.95-.48-2.89-.59-3.04-.36-5.87.5-8.25,2.36-.01.27-1.18,1.09-1.04,1.24.2.21.7-.35.87-.45,1.5-.87,3.13-1.49,4.89-1.54,3.01-.08,5.31,1.98,8.17,2.18.35.02,1.17-.17,1.35-.08.3.15.74,1.17.94,1.48.28.43,1.84,2.61,1.86,2.87.01.14-.14.46-.24.55-.66.64-4.07-.2-5.1-.24-2.86-.1-6.51.99-8.8,2.7-.15.11-1.2.95-1.08,1.09.62-.16,1.13-.58,1.73-.84,1.98-.87,4.67-1.36,6.83-1.05,2.16.31,4.26,1.65,6.45,1.56.47-.02,2.27-.58,2.45-.45l7.09,9.91c-3.52.23-6.22-2.57-9.72-2.78-1.78-.11-4.57.68-5.85,1.94-.12.12-.3.17-.26.39.06.07,1.15-.58,1.34-.66,6.63-2.71,9,3.99,14.92,3.96.5,0,1.51-.32,1.87-.19.32.12,1.21,1.49,1.51,1.82.61.68,1.37,1.32,1.98,1.96.42.44.79.92,1.24,1.33-5.13.87-10.1-1.86-15.26-.66-.69.16-1.66.48-2.17.97,6.14-1.78,11.63,2.61,17.73,2.59.58,0,2.06-.36,2.46-.25.19.05,2.07,1.67,2.44,1.96.23.18.43.48.59.61.32.25,2.03,1.29,2.12,1.49.26.54-.81,1.19-1.22,1.38-1.93.9-4.58.29-6.7.44-1.95.14-4.28,1.1-4.91,3.11l.95-.87c3.31-2.39,7.12.54,10.74.08,1.53-.19,3.05-.86,4.02-2.08l4.89,2.63c.1.15-.97.9-1.15,1.01-1.17.77-2.62,1.29-3.79,2.06-1.73,1.14-2.95,2.68-2.87,4.87.35.09.19-.08.26-.26,1.47-4.28,5.98-3.4,9.36-5.49.37-.23.76-.84,1.25-.72,1.7.73,3.43,1.52,5.25,1.9,0,.17-.02.33-.07.5-.25.83-2.61,2.38-3.34,3.1-1.07,1.08-2.15,2.88-1.36,4.42.45.87.26-.12.27-.45.13-3.12,4.77-3.37,6.66-5.35.21-.21.84-1.17.92-1.22.12-.07,1.15.11,1.32.17.06.02.08.36.65.17-.1,3.07-.86,6.08-2.21,8.83-.06.12-.78.95-.14.72.16-.06,2.01-2.27,2.25-2.59,1.44-1.96,2.47-4.23,3.24-6.54,2.3.18,4.57.2,6.87.15,2.45,1.69,2.99,4.89,1.76,7.53-.18.39-1.02,1.49-1.02,1.74,0,.3.31-.12.34-.14Z"/><path class="cls-15" d="M74.13,98.66c-.17-.05-.25.03-.36.15.11.06.47-.08.36-.15Z"/><path class="cls-15" d="M49.13,64.85v-.12c-.07.03-.07.07,0,.12Z"/><circle class="cls-7" cx="112.04" cy="61.83" r="24.84"/><circle class="cls-5" cx="155.24" cy="121.68" r="24.84"/><path class="cls-6" d="M148.07,112.82c1.27-3.78.45-7.76-1.83-10.68,2.79-2.24,4.99-5.27,6.21-8.91,3.4-10.13-2.06-21.1-12.19-24.5-10.13-3.4-21.1,2.06-24.5,12.19-3.25,9.67,1.58,20.11,10.85,23.99-.08.21-.17.42-.24.64-2.01,5.99,1.22,12.48,7.21,14.49,5.99,2.01,12.48-1.22,14.49-7.21Z"/><path class="cls-7" d="M184.45,120.85c-3.98.22-7.38,2.44-9.25,5.64-3.11-1.76-6.74-2.69-10.58-2.49-10.67.58-18.85,9.7-18.28,20.37.58,10.67,9.7,18.85,20.37,18.28,10.19-.55,18.1-8.89,18.3-18.93.23,0,.45,0,.68-.01,6.31-.34,11.15-5.73,10.81-12.04s-5.73-11.15-12.04-10.81Z"/><circle class="cls-5" cx="117.95" cy="73.9" r="10.4"/><circle class="cls-6" cx="151.67" cy="127.41" r="10.4"/><circle class="cls-33" cx="174.47" cy="112.91" r="10.4"/><circle class="cls-33" cx="112.96" cy="38.47" r="10.4"/><circle class="cls-6" cx="166.11" cy="149.75" r="7.54"/></g><circle class="cls-13" cx="256.04" cy="231.46" r="131.42"/><circle class="cls-18" cx="256.04" cy="231.46" r="131.42"/><circle class="cls-27" cx="256.04" cy="231.46" r="134.36"/></g></g></svg>