<?xml version="1.0" encoding="UTF-8"?><svg id="Ebene_2" xmlns="http://www.w3.org/2000/svg" xmlns:xlink="http://www.w3.org/1999/xlink" viewBox="0 0 863.43 271.32"><defs><style>.cls-1,.cls-2,.cls-3,.cls-4,.cls-5,.cls-6,.cls-7,.cls-8,.cls-9,.cls-10,.cls-11{fill:none;}.cls-2{stroke-width:1.47px;}.cls-2,.cls-3,.cls-4,.cls-5,.cls-6,.cls-7,.cls-8,.cls-9,.cls-10{stroke-linecap:round;}.cls-2,.cls-3,.cls-4,.cls-5,.cls-6,.cls-7,.cls-8,.cls-9,.cls-10,.cls-11{stroke:#e9eaed;}.cls-2,.cls-11{stroke-miterlimit:10;}.cls-12,.cls-13{fill:#c2dee0;}.cls-14{fill:#ca3072;}.cls-3{stroke-width:.28px;}.cls-3,.cls-4,.cls-5,.cls-6,.cls-7,.cls-8,.cls-9,.cls-10{stroke-linejoin:round;}.cls-15{clip-path:url(#clippath-1);}.cls-16{clip-path:url(#clippath-3);}.cls-17{clip-path:url(#clippath-2);}.cls-4{stroke-width:.47px;}.cls-5{stroke-width:.45px;}.cls-6,.cls-9{stroke-width:.34px;}.cls-7,.cls-10{stroke-width:.33px;}.cls-8{stroke-width:.55px;}.cls-18,.cls-19{opacity:.05;}.cls-18,.cls-19,.cls-20,.cls-21{fill:#e9eaed;}.cls-18,.cls-10{isolation:isolate;}.cls-20{opacity:.09;}.cls-22{opacity:.72;}.cls-23{opacity:.7;}.cls-24{opacity:.35;}.cls-25,.cls-10{opacity:.5;}.cls-9{opacity:.52;}.cls-26{fill:#305464;}.cls-11{stroke-width:1.1px;}.cls-13{opacity:.08;}.cls-27{clip-path:url(#clippath);}</style><clipPath id="clippath"><path class="cls-6" d="M291.79,47.54c.68,0,1.35.14,1.97.43,6.58,3.1,7.55,10.78,7.55,14.82l3.64,67.94c.03.52.05,1.05.03,1.58-.36,11.56-9.81,20.76-21.38,20.81h-148.07c-11.57-.05-21.02-9.25-21.38-20.81-.02-.53,0-1.05.03-1.58l3.64-67.94c0-2.74.22-12.24,9.02-15.12.27-.09.55-.13.84-.13h164.11Z"/></clipPath><clipPath id="clippath-1"><path class="cls-6" d="M144.04,138.05h132.04c4.71,0,8.57-3.75,8.72-8.46,0-.2,0-.4-.01-.6l-2.68-45.39c-.05-4.53-3.77-8.17-8.31-8.11h-127.53c-4.53-.05-8.25,3.58-8.31,8.11l-2.63,45.39c-.01.2-.02.4-.01.59.15,4.71,4.01,8.45,8.72,8.46Z"/></clipPath><clipPath id="clippath-2"><rect class="cls-1" x="320.22" y="136.84" width="153.4" height="79.91"/></clipPath><clipPath id="clippath-3"><rect class="cls-1" x="420.83" y="33.41" width="90.69" height="46.33" rx="3.38" ry="3.38"/></clipPath></defs><g id="Ebene_1-2"><g id="screening-process"><path class="cls-20" d="M557.22,205.92c.17.59.35,1.17.55,1.74h10.34c1.09,0,2.15.31,3.06.9l19.64,12.94h0c.67.44,1.12,1.2,1.12,2.07h0c0,1.37-1.11,2.48-2.47,2.48h-85.98c-1.37,0-2.47-1.11-2.47-2.47h0c0-.88.45-1.64,1.14-2.08l12.24-12.23c1.03-1.03,2.42-1.61,3.88-1.61h11.62c.27-.76.5-1.52.71-2.3-16.17-.29-32.7-.52-49.51-.66v21.11l13.96,25.58c.03.06.05.13.08.19l.05.09c.95,1.68-.99,5.21-3.56,5.21h-187.87c-2.57,0-4.5-3.42-3.6-5.1l.04-.07c.04-.1.06-.21.12-.31l13.75-25.59h-.09v-20.07c-3.69.08-7.36.17-11.01.25l-.27,5.85v.18c-.07.79-.25,1.55-.51,2.28-.09.24-.19.47-.29.69h0s-.92,5.78-.92,5.78c-.27,1.67-1.36,3.02-3.45,4.25-3.78,2.23-7.12,3.2-13.75,4.02-2.43.3-45.5,1.05-77.21,1.05-15.44,0-28.18-.18-32.24-.68-8.44-1.03-10.95-2.42-13.57-4.27-1.83-1.29-2.78-2.63-2.99-4.19-.47-3.62-.62-4.67-.67-4.96-.73-1.13-1.25-2.41-1.52-3.79C60.5,218.34,0,227.57,0,237.9c0,18.46,193.29,33.42,431.72,33.42s431.72-14.96,431.72-33.42c0-15.08-128.99-27.82-306.21-31.98Z"/><g id="editable"><g id="laptop"><path class="cls-7" d="M474.31,113.77h-153.56c-3.75,0-6.79,3.04-6.79,6.79h0v105.26h167.13v-105.26c0-3.75-3.04-6.79-6.79-6.79h0Z"/><path class="cls-3" d="M303.74,256.88h187.87c2.57,0,4.51-3.53,3.56-5.21l-14.09-25.86h-167.04l-13.91,25.97c-.9,1.68,1.03,5.1,3.6,5.1Z"/><path class="cls-3" d="M303.74,254.86h187.87c2.03,0,3.68-1.15,3.68-2.56,0-.31-.08-.62-.24-.91l-13.96-25.58h-167.04l-13.75,25.59c-.71,1.33.25,2.8,2.16,3.3.41.11.85.16,1.29.16Z"/><path class="cls-3" d="M365.54,253.7h64.3c.37,0,.67-.21.67-.46,0-.03,0-.05,0-.08l-1.48-5.97c-.08-.4-.57-.69-1.15-.7h-60.36c-.57,0-1.05.28-1.15.67l-1.48,5.97c-.08.25.13.49.49.55.05,0,.11.01.16.01Z"/><g class="cls-25"><path class="cls-3" d="M406.09,246.89c-12.35-.34-24.72-.35-37.09-.21-.54-.03-1.08.01-1.6.13-.48.23-.77.61-.76,1.01l-.25,1.02c-.31,1.36-.64,2.72-.9,4.08.57-1.66,1.12-3.37,1.63-5.02.1-.31.13-.63.54-.74.44-.06.9-.08,1.34-.04l1.45.02c11.87.11,23.74.11,35.61-.23h.02Z"/></g><path class="cls-3" d="M494.2,254.12c-.74.47-1.7.74-2.71.76-2.96.22-5.92-.12-8.89-.09l-11.86-.06c-52.34-.16-113.8-.13-166.03.27,52.25.32,113.7.26,166.03,0l11.86-.08c2.96-.06,5.94.23,8.9,0,1.01-.03,1.97-.32,2.71-.8h0Z"/><path class="cls-3" d="M315.56,245.64l164.32-.09c.93,0,1.86-.07,2.77-.23,1.64-.3,2.58-.87,2.31-1.52l-6.53-15.37c-.26-.44-.75-.79-1.37-.99-1.45-.51-3.05-.77-4.67-.74l-149.79.09c-1.58-.02-3.14.23-4.56.71-.66.2-1.19.57-1.45,1.04l-6.18,15.37c-.12.43.19.86.76,1.05,1.35.51,2.87.75,4.4.69Z"/><path class="cls-3" d="M480.28,245.07c.48-.01.97-.07,1.43-.15,1.25-.23,1.89-.63,1.71-1.12l-6.42-15.37c-.19-.32-.55-.58-1-.73-1.06-.37-2.24-.56-3.43-.55l-150.12.09h-.56c-.97.03-1.92.2-2.79.51-.49.14-.87.42-1.06.76l-6.06,15.37c-.09.32.14.63.56.77.98.37,2.09.54,3.2.5l163.92-.08c.24,0,.43,0,.63-.01Z"/><polygon class="cls-3" points="463.55 228.69 472.55 228.69 472.92 229.66 463.88 229.67 463.55 228.69"/><polygon class="cls-3" points="451.86 228.7 460.86 228.69 461.19 229.67 452.14 229.67 451.86 228.7"/><polygon class="cls-3" points="440.18 228.71 449.18 228.7 449.45 229.67 440.4 229.68 440.18 228.71"/><polygon class="cls-3" points="428.49 228.71 437.5 228.71 437.71 229.68 428.66 229.69 428.49 228.71"/><polygon class="cls-3" points="416.81 228.72 425.81 228.72 425.97 229.69 416.92 229.69 416.81 228.72"/><polygon class="cls-3" points="405.13 228.73 414.13 228.73 414.23 229.7 405.18 229.7 405.13 228.73"/><polygon class="cls-3" points="393.45 228.74 402.44 228.73 402.48 229.71 393.43 229.71 393.45 228.74"/><polygon class="cls-3" points="381.75 228.74 390.76 228.74 390.74 229.71 381.69 229.72 381.75 228.74"/><polygon class="cls-3" points="370.07 228.75 379.07 228.74 378.99 229.72 369.94 229.72 370.07 228.75"/><polygon class="cls-3" points="358.38 228.76 367.39 228.75 367.24 229.72 358.19 229.73 358.38 228.76"/><polygon class="cls-3" points="346.69 228.76 355.69 228.76 355.49 229.73 346.44 229.74 346.69 228.76"/><polygon class="cls-3" points="335 228.77 344.01 228.76 343.75 229.74 334.69 229.74 335 228.77"/><polygon class="cls-3" points="332.31 228.77 332 229.74 322.95 229.75 323.31 228.78 332.31 228.77"/><polygon class="cls-3" points="464.12 230.34 473.19 230.33 474 232.39 464.83 232.39 464.12 230.34"/><polygon class="cls-3" points="452.33 230.35 461.41 230.34 462.1 232.4 452.92 232.4 452.33 230.35"/><polygon class="cls-3" points="440.56 230.35 449.63 230.35 450.19 232.41 441.02 232.41 440.56 230.35"/><polygon class="cls-3" points="428.77 230.36 437.85 230.35 438.29 232.41 429.12 232.42 428.77 230.36"/><polygon class="cls-3" points="416.99 230.37 426.07 230.37 426.38 232.42 417.21 232.42 416.99 230.37"/><polygon class="cls-3" points="405.2 230.37 414.28 230.37 414.48 232.42 405.3 232.43 405.2 230.37"/><polygon class="cls-3" points="393.42 230.38 402.51 230.38 402.57 232.43 393.4 232.44 393.42 230.38"/><polygon class="cls-3" points="381.63 230.39 390.72 230.38 390.67 232.44 381.49 232.44 381.63 230.39"/><polygon class="cls-3" points="369.85 230.4 378.94 230.39 378.76 232.44 369.59 232.45 369.85 230.4"/><polygon class="cls-3" points="358.06 230.4 367.14 230.4 366.85 232.45 357.68 232.46 358.06 230.4"/><polygon class="cls-3" points="346.28 230.41 355.36 230.4 354.94 232.46 345.77 232.47 346.28 230.41"/><polygon class="cls-3" points="334.49 230.42 343.57 230.41 343.03 232.47 333.85 232.48 334.49 230.42"/><polygon class="cls-3" points="331.12 232.48 321.94 232.48 322.7 230.42 331.78 230.42 331.12 232.48"/><polygon class="cls-3" points="478.28 243.3 468.61 243.31 467.9 241.25 477.47 241.24 478.28 243.3"/><polygon class="cls-3" points="465.73 243.31 456.06 243.31 455.46 241.25 465.04 241.25 465.73 243.31"/><polygon class="cls-3" points="453.17 243.31 443.5 243.32 443.04 241.27 452.61 241.26 453.17 243.31"/><polygon class="cls-3" points="365.58 241.3 368.43 241.3 378.02 241.3 380.87 241.3 390.45 241.29 393.3 241.29 402.88 241.29 405.74 241.29 415.32 241.28 418.17 241.28 427.75 241.27 440.18 241.27 440.62 243.32 428.07 243.33 418.4 243.33 415.51 243.33 405.84 243.34 402.96 243.35 393.28 243.35 390.4 243.35 380.72 243.36 377.84 243.36 368.17 243.36 365.28 243.36 359 243.36 355.6 243.37 356 241.31 359.36 241.31 365.58 241.3"/><polygon class="cls-3" points="352.72 243.37 343.05 243.38 343.3 242.35 352.93 242.34 352.72 243.37"/><polygon class="cls-3" points="340.16 243.38 330.48 243.38 331.12 241.33 340.7 241.32 340.16 243.38"/><polygon class="cls-3" points="327.6 243.38 317.92 243.39 318.3 242.36 327.94 242.36 327.6 243.38"/><polygon class="cls-3" points="447.14 233.08 456.35 233.07 456.97 235.13 447.68 235.13 447.14 233.08"/><polygon class="cls-3" points="435.2 233.08 444.4 233.08 444.91 235.14 435.6 235.14 435.2 233.08"/><polygon class="cls-3" points="423.26 233.09 432.46 233.08 432.84 235.14 423.54 235.15 423.26 233.09"/><polygon class="cls-3" points="411.31 233.1 420.52 233.09 420.77 235.15 411.47 235.16 411.31 233.1"/><polygon class="cls-3" points="399.37 233.1 408.57 233.1 408.7 235.16 399.4 235.16 399.37 233.1"/><polygon class="cls-3" points="387.42 233.12 396.62 233.11 396.63 235.16 387.34 235.17 387.42 233.12"/><polygon class="cls-3" points="375.47 233.12 384.68 233.12 384.57 235.17 375.26 235.18 375.47 233.12"/><polygon class="cls-3" points="363.52 233.13 372.73 233.12 372.49 235.18 363.19 235.18 363.52 233.13"/><polygon class="cls-3" points="351.57 233.13 360.78 233.13 360.42 235.18 351.12 235.19 351.57 233.13"/><polygon class="cls-3" points="348.35 235.19 339.05 235.19 339.62 233.14 348.82 233.13 348.35 235.19"/><polygon class="cls-3" points="336.7 235.2 320.93 235.21 321.69 233.15 337.3 233.14 336.7 235.2"/><polygon class="cls-3" points="459.32 235.13 458.67 233.07 465.06 233.07 474.26 233.06 475.06 235.12 465.77 235.13 459.32 235.13"/><polygon class="cls-3" points="441.79 235.81 451.12 235.8 451.68 237.86 442.26 237.86 441.79 235.81"/><polygon class="cls-3" points="429.68 235.82 439.01 235.81 439.46 237.86 430.04 237.87 429.68 235.82"/><polygon class="cls-3" points="417.58 235.82 426.91 235.82 427.23 237.88 417.8 237.88 417.58 235.82"/><polygon class="cls-3" points="405.47 235.83 414.8 235.82 414.99 237.88 405.57 237.89 405.47 235.83"/><polygon class="cls-3" points="393.36 235.83 402.7 235.83 402.77 237.89 393.34 237.89 393.36 235.83"/><polygon class="cls-3" points="381.26 235.84 390.59 235.84 390.53 237.89 381.1 237.9 381.26 235.84"/><polygon class="cls-3" points="369.14 235.85 378.48 235.85 378.3 237.9 368.88 237.91 369.14 235.85"/><polygon class="cls-3" points="357.03 235.86 366.36 235.85 366.07 237.91 356.64 237.91 357.03 235.86"/><polygon class="cls-3" points="344.92 235.87 354.25 235.86 353.83 237.91 344.4 237.92 344.92 235.87"/><polygon class="cls-3" points="332.8 235.87 342.14 235.87 341.6 237.92 332.17 237.93 332.8 235.87"/><polygon class="cls-3" points="458.62 240.58 449.08 240.59 448.55 238.54 458 238.53 458.62 240.58"/><polygon class="cls-3" points="436.28 238.54 445.73 238.54 446.23 240.59 436.69 240.59 436.28 238.54"/><polygon class="cls-3" points="424.01 238.55 433.47 238.54 433.84 240.59 424.3 240.6 424.01 238.55"/><polygon class="cls-3" points="411.74 238.55 421.19 238.55 421.45 240.61 411.9 240.61 411.74 238.55"/><polygon class="cls-3" points="399.46 238.56 408.92 238.55 409.06 240.61 399.51 240.61 399.46 238.56"/><polygon class="cls-3" points="387.19 238.57 396.65 238.56 396.67 240.62 387.11 240.63 387.19 238.57"/><polygon class="cls-3" points="374.92 238.57 384.38 238.57 384.27 240.63 374.72 240.63 374.92 238.57"/><polygon class="cls-3" points="362.65 238.58 372.11 238.57 371.87 240.63 362.32 240.64 362.65 238.58"/><polygon class="cls-3" points="350.38 238.59 359.83 238.59 359.47 240.64 349.93 240.65 350.38 238.59"/><polygon class="cls-3" points="338.1 238.6 347.56 238.59 347.07 240.65 337.53 240.65 338.1 238.6"/><polygon class="cls-3" points="460.38 238.53 466.95 238.52 476.4 238.52 477.21 240.57 467.66 240.58 461.03 240.58 460.38 238.53"/><polygon class="cls-3" points="329.79 238.6 334.06 238.6 335.71 238.6 335.12 240.65 333.45 240.65 318.93 240.66 319.31 239.63 319.68 238.6 320.69 235.88 330.66 235.87 329.79 238.6"/><polygon class="cls-3" points="454.49 237.86 453.9 235.8 462.68 235.8 475.33 235.79 476.14 237.84 463.36 237.85 454.49 237.86"/><path class="cls-3" d="M303.74,256.88h187.87c2.57,0,4.51-3.53,3.56-5.21l-14.09-25.86h-167.04l-13.91,25.97c-.9,1.68,1.03,5.1,3.6,5.1Z"/><path class="cls-7" d="M313.96,225.81v-105.26c0-3.75,3.04-6.79,6.79-6.79h153.56c3.75,0,6.79,3.04,6.79,6.79h0v105.26"/><rect class="cls-7" x="319.99" y="123.47" width="155.08" height="92.19" rx="2.06" ry="2.06" transform="translate(795.05 339.13) rotate(180)"/></g><g id="screen"><rect class="cls-7" x="319.99" y="123.47" width="155.08" height="92.19" rx="2.06" ry="2.06" transform="translate(795.05 339.13) rotate(180)"/><rect class="cls-7" x="319.99" y="123.47" width="155.08" height="92.19" rx="2.06" ry="2.06" transform="translate(795.05 339.13) rotate(180)"/><polygon class="cls-10" points="381.49 123.47 351.12 123.47 410.23 215.66 457.21 215.66 381.49 123.47"/><rect class="cls-7" x="319.99" y="123.47" width="155.08" height="92.19" rx="2.06" ry="2.06" transform="translate(795.05 339.13) rotate(180)"/></g><g id="screen-2"><rect class="cls-13" x="319.99" y="123.47" width="155.08" height="92.19" rx="2.06" ry="2.06" transform="translate(795.05 339.13) rotate(180)"/><rect class="cls-13" x="319.99" y="123.47" width="155.08" height="92.19" rx="2.06" ry="2.06" transform="translate(795.05 339.13) rotate(180)"/><polygon class="cls-13" points="381.49 123.47 351.12 123.47 410.23 215.66 457.21 215.66 381.49 123.47"/><rect class="cls-13" x="319.99" y="123.47" width="155.08" height="92.19" rx="2.06" ry="2.06" transform="translate(795.05 339.13) rotate(180)"/></g></g><path class="cls-6" d="M300.81,215.82c-.04.06-.42,2.95-.7,5.11-.23,1.73-1.45,3-2.87,4.01-2.47,1.74-4.91,3.18-13.45,4.22-12.93,1.58-145.2.01-148.38-.38-6.25-.77-9.7-1.66-13.65-3.99-1.62-.95-3.03-2.21-3.32-4.06l-.92-5.78"/><path class="cls-6" d="M251.59,230.1c15.44,0,28.18-.18,32.24-.68,8.44-1.03,10.95-2.42,13.57-4.27,1.83-1.29,2.78-2.63,2.99-4.19.56-4.34.67-4.99.69-5.06l-.22-.05-.27-.17c-.05.07-.08.12-.74,5.22-.18,1.41-1.06,2.62-2.76,3.82-2.55,1.8-5,3.16-13.32,4.17-12.37,1.52-144.71.07-148.32-.38-6.55-.81-9.84-1.77-13.54-3.95-1.94-1.14-2.95-2.37-3.19-3.87l-.92-5.78-.54.09.92,5.78c.27,1.67,1.36,3.02,3.45,4.25,3.78,2.23,7.12,3.2,13.75,4.02,2.43.3,84.5,1.05,116.21,1.05Z"/><path class="cls-6" d="M307.57,135.72l-2.88,26.13-2.24,49.1c-.31,4.26-3.21,7.89-7.29,9.14h0c-6.78,2.85-14.01,3.18-21.19,3.18h-125.37c-8.81,0-17.56-1.31-25.98-3.89h0c-3.29-1.01-5.62-3.93-5.87-7.36l-2.19-50.6-2.97-24.93,195.99-.76Z"/><path class="cls-6" d="M148.6,223.55h125.37c6.62,0,14.28-.25,21.3-3.2,4.2-1.29,7.14-4.97,7.46-9.38l2.24-49.11,2.91-26.43h-.32s-196.31.76-196.31.76l3.01,25.25,2.19,50.58c.26,3.53,2.7,6.59,6.08,7.62,8.45,2.59,17.22,3.9,26.07,3.9ZM307.25,136l-2.84,25.81-2.24,49.12c-.3,4.17-3.09,7.65-7.09,8.88-6.95,2.92-14.54,3.16-21.11,3.16h-125.37c-8.78,0-17.5-1.3-25.9-3.88-3.15-.96-5.43-3.82-5.67-7.11l-2.19-50.59-2.94-24.63,195.35-.76Z"/><polygon class="cls-6" points="140.55 222.8 281.54 222.8 285.61 154.3 137.82 154.3 140.55 222.8"/><path class="cls-6" d="M148.6,223.55h125.37c6.62,0,14.28-.25,21.3-3.2,4.2-1.29,7.14-4.97,7.46-9.38l2.11-47.11c.06-1.21.15-2.44.29-3.64l2.75-24.78h-.32s-196.31.76-196.31.76l2.65,23.24c.14,1.24.24,2.49.3,3.74l2.25,48.85c.26,3.53,2.7,6.59,6.08,7.62,8.45,2.59,17.22,3.9,26.07,3.9ZM307.25,136l-2.68,24.14c-.14,1.22-.23,2.45-.29,3.68l-2.11,47.1c-.3,4.17-3.09,7.65-7.09,8.88-6.95,2.92-14.54,3.16-21.11,3.16h-125.37c-8.78,0-17.5-1.3-25.9-3.88-3.15-.96-5.43-3.82-5.67-7.11l-2.25-48.85c-.06-1.26-.16-2.53-.3-3.77l-2.58-22.61,195.35-.76Z"/><path class="cls-6" d="M133.53,155.92h152.08c12.01,0,21.8-9.81,22.17-22.05.01-.48,0-.97-.03-1.45l-3.77-71.75c0-1.71-.23-3.42-.68-5.07h0c-1.3-4.75-5.62-8.05-10.55-8.05H126.39c-4.93,0-9.25,3.3-10.55,8.05h0c-.45,1.65-.68,3.36-.68,5.07l-3.78,71.75c-.03.48-.04.97-.03,1.45.37,12.24,10.16,22.05,22.17,22.05Z"/><path class="cls-6" d="M133.53,156.21h152.08c12.21,0,22.07-9.81,22.45-22.33.01-.43,0-.9-.03-1.48l-3.77-71.75c0-1.72-.23-3.46-.69-5.13-1.33-4.86-5.78-8.26-10.83-8.26H126.39c-5.04,0-9.49,3.4-10.83,8.26-.46,1.68-.69,3.41-.69,5.15l-3.78,71.74c-.02.43-.04.95-.03,1.48.38,12.52,10.25,22.33,22.46,22.33ZM292.74,47.83c4.79,0,9.01,3.22,10.27,7.84.44,1.63.67,3.31.67,5l3.77,71.77c.03.56.04,1.01.03,1.43-.37,12.21-9.98,21.78-21.88,21.78h-152.08c-11.9,0-21.51-9.56-21.88-21.77-.02-.5,0-1,.03-1.43l3.78-71.75c0-1.7.23-3.38.67-5.01,1.26-4.62,5.49-7.84,10.27-7.84h166.35Z"/><path class="cls-6" d="M291.79,47.54c.68,0,1.35.14,1.97.43,6.58,3.1,7.55,10.78,7.55,14.82l3.64,67.94c.03.52.05,1.05.03,1.58-.36,11.56-9.81,20.76-21.38,20.81h-148.07c-11.57-.05-21.02-9.25-21.38-20.81-.02-.53,0-1.05.03-1.58l3.64-67.94c0-2.74.22-12.24,9.02-15.12.27-.09.55-.13.84-.13h164.11Z"/><path class="cls-6" d="M283.6,153.39c11.77-.05,21.28-9.31,21.65-21.08.02-.56,0-1.12-.03-1.6l-3.64-67.94c0-10.31-5.39-13.96-7.71-15.05-.64-.3-1.35-.45-2.06-.45,0,0-.02,0-.03,0H127.68s-.01,0-.02,0c-.31,0-.61.05-.9.14-6.03,1.98-9.21,7.29-9.21,15.38l-3.64,67.93c-.03.48-.05,1.04-.03,1.6.37,11.76,9.88,21.02,21.65,21.07h148.07ZM291.82,47.82c.63,0,1.26.14,1.83.4,2.22,1.05,7.39,4.56,7.39,14.57l3.64,67.96c.02.46.05,1.01.03,1.55-.36,11.47-9.63,20.49-21.11,20.55h-148.07c-11.47-.05-20.74-9.08-21.11-20.55-.02-.54,0-1.09.03-1.55l3.64-67.94c0-7.84,3.06-12.98,8.84-14.88.24-.08.5-.12.75-.11h164.12s.02,0,.02,0Z"/><g class="cls-27"><rect class="cls-6" x="117.18" y="47.22" width="185.71" height="10.5" transform="translate(420.07 104.95) rotate(180)"/></g><path class="cls-6" d="M291.79,47.54c.68,0,1.35.14,1.97.43,6.58,3.1,7.55,10.78,7.55,14.82l3.64,67.94c.03.52.05,1.05.03,1.58-.36,11.56-9.81,20.76-21.38,20.81h-148.07c-11.57-.05-21.02-9.25-21.38-20.81-.02-.53,0-1.05.03-1.58l3.64-67.94c0-2.74.22-12.24,9.02-15.12.27-.09.55-.13.84-.13h164.11Z"/><path class="cls-6" d="M283.6,153.41c11.78-.05,21.29-9.32,21.67-21.09.02-.56,0-1.12-.03-1.6l-3.64-67.94c0-10.32-5.4-13.97-7.71-15.06-.65-.3-1.38-.45-2.09-.45H127.68c-.32-.01-.63.04-.92.14-6.03,1.98-9.22,7.3-9.22,15.39l-3.64,67.93c-.03.48-.05,1.04-.03,1.6.37,11.77,9.89,21.03,21.66,21.09h148.07ZM291.82,47.83c.63,0,1.26.14,1.82.4,2.22,1.04,7.38,4.56,7.38,14.56l3.64,67.96c.02.46.05,1.01.03,1.55-.36,11.46-9.63,20.48-21.1,20.53h-148.07c-11.47-.05-20.73-9.07-21.09-20.53-.02-.54,0-1.09.03-1.55l3.64-67.94c0-7.84,3.05-12.97,8.83-14.86.24-.08.5-.1.75-.11h164.12s.02,0,.02,0Z"/><path class="cls-6" d="M141.93,140.07h136.28c5.09-.06,9.18-4.23,9.12-9.32l-2.82-48.64c-.01-4.78-3.9-8.65-8.68-8.64h-131.56c-4.78-.01-8.67,3.86-8.68,8.64h0s-2.78,48.64-2.78,48.64c-.05,5.09,4.03,9.27,9.13,9.32,0,0,0,0,0,0Z"/><path class="cls-6" d="M141.92,140.35h136.28c5.24-.06,9.45-4.36,9.4-9.6l-2.82-48.66c0-2.37-.94-4.61-2.63-6.3-1.69-1.68-3.92-2.6-6.3-2.6,0,0-.02,0-.02,0h-131.56s-.02,0-.02,0c-4.92,0-8.92,3.99-8.93,8.91l-2.78,48.63c-.03,2.55.94,4.95,2.71,6.76,1.78,1.81,4.15,2.83,6.69,2.85h0ZM275.84,73.74c2.23,0,4.33.87,5.92,2.44,1.59,1.58,2.47,3.68,2.47,5.92l2.82,48.66c.05,4.92-3.92,8.98-8.85,9.03h-136.27c-2.39-.03-4.63-.98-6.3-2.69-1.67-1.71-2.58-3.97-2.55-6.36l2.78-48.63c.01-4.63,3.77-8.38,8.39-8.38h131.61Z"/><path class="cls-6" d="M144.04,138.05h132.04c4.71,0,8.57-3.75,8.72-8.46,0-.2,0-.4-.01-.6l-2.68-45.39c-.05-4.53-3.77-8.17-8.31-8.11h-127.53c-4.53-.05-8.25,3.58-8.31,8.11l-2.63,45.39c-.01.2-.02.4-.01.59.15,4.71,4.01,8.45,8.72,8.46Z"/><path class="cls-6" d="M144.04,138.34h132.04c4.89,0,8.85-3.84,9.01-8.73,0-.21,0-.42-.01-.63l-2.68-45.39c-.05-4.67-3.92-8.42-8.59-8.38h-127.53c-4.68-.06-8.54,3.71-8.59,8.4l-2.63,45.38c-.01.21-.02.41-.01.62.16,4.89,4.11,8.73,9.01,8.73ZM273.9,75.78c4.33,0,7.87,3.49,7.93,7.83l2.68,45.4c.01.19.02.38.01.57-.15,4.58-3.86,8.17-8.44,8.18h-132.04c-4.58,0-8.29-3.6-8.43-8.18,0-.19,0-.38.01-.57l2.64-45.39c.05-4.35,3.6-7.84,7.92-7.84.03,0,.06,0,.09,0h127.53s.06,0,.09,0Z"/><path class="cls-6" d="M303.31,191.04s-3.22,3.69-17.58,3.69h-152.93c-4.46,0-11.7-.56-17.03-3.64l-.56-11.58c5.66,1.92,11.6,2.9,17.58,2.91h152.01c4.61,0,14.05-.41,19.14-4.09l-.64,12.71Z"/><path class="cls-6" d="M132.8,195h152.93c14.32,0,17.65-3.63,17.79-3.78l.06-.07.67-13.38-.46.34c-4.85,3.51-13.97,4.04-18.98,4.04h-152.01c-5.96,0-11.85-.98-17.5-2.89l-.38-.13.58,12.13.13.07c5.53,3.2,13.13,3.68,17.17,3.68ZM303.04,190.92c-.51.48-4.33,3.54-17.31,3.54h-152.93c-3.95,0-11.36-.46-16.76-3.53l-.53-11.03c5.59,1.85,11.4,2.79,17.29,2.8h152.01c6,0,14.04-.67,18.83-3.82l-.6,12.05Z"/><circle class="cls-6" cx="278.1" cy="188.7" r="3.45"/><path class="cls-6" d="M278.1,192.43c2.06,0,3.73-1.67,3.73-3.73s-1.67-3.73-3.73-3.73-3.73,1.67-3.73,3.73,1.67,3.73,3.73,3.73ZM278.1,185.54c1.74,0,3.16,1.42,3.16,3.16s-1.42,3.16-3.16,3.16-3.16-1.42-3.16-3.16,1.42-3.16,3.16-3.16Z"/><circle class="cls-6" cx="252.19" cy="189.21" r="2.17"/><path class="cls-6" d="M252.19,191.67c1.35,0,2.46-1.1,2.46-2.46s-1.1-2.46-2.46-2.46-2.46,1.1-2.46,2.46,1.1,2.46,2.46,2.46ZM252.19,187.33c1.04,0,1.88.84,1.88,1.88s-.84,1.88-1.88,1.88-1.88-.84-1.88-1.88.84-1.88,1.88-1.88Z"/><circle class="cls-6" cx="270.34" cy="188.99" r="1.02"/><path class="cls-6" d="M270.34,190.3c.72,0,1.31-.59,1.31-1.31s-.59-1.31-1.31-1.31-1.31.59-1.31,1.31.59,1.31,1.31,1.31ZM270.34,188.27c.4,0,.72.32.72.72s-.32.72-.72.72-.72-.32-.72-.72.32-.72.72-.72Z"/><circle class="cls-6" cx="266.9" cy="188.99" r="1.02"/><path class="cls-6" d="M266.9,190.3c.72,0,1.31-.59,1.31-1.31s-.59-1.31-1.31-1.31-1.31.59-1.31,1.31.59,1.31,1.31,1.31ZM266.9,188.27c.4,0,.72.32.72.72s-.32.72-.72.72-.72-.32-.72-.72.32-.72.72-.72Z"/><circle class="cls-6" cx="263.46" cy="188.99" r="1.02"/><path class="cls-6" d="M263.46,190.3c.72,0,1.31-.59,1.31-1.31s-.59-1.31-1.31-1.31-1.31.59-1.31,1.31.59,1.31,1.31,1.31ZM263.46,188.27c.4,0,.72.32.72.72s-.32.72-.72.72-.72-.32-.72-.72.32-.72.72-.72Z"/><rect class="cls-6" x="139.06" y="186.41" width="8.11" height="3.8" rx="1.59" ry="1.59" transform="translate(286.23 376.63) rotate(180)"/><path class="cls-6" d="M139.98,190.5h6.28c.66,0,1.2-.54,1.2-1.2v-1.97c0-.66-.54-1.2-1.2-1.2h-6.28c-.66,0-1.2.54-1.2,1.2v1.97c0,.66.54,1.2,1.2,1.2ZM146.26,186.7c.35,0,.63.28.63.63v1.97c0,.35-.28.63-.63.63h-6.28c-.35,0-.63-.28-.63-.63v-1.97c0-.35.28-.63.63-.63h6.28Z"/><rect class="cls-6" x="177.11" y="142.03" width="63.07" height="9.29" rx="1.23" ry="1.23" transform="translate(417.29 293.36) rotate(180)"/><g class="cls-15"><rect class="cls-6" x="239.83" y="109.97" width="49.38" height="34.16" transform="translate(529.04 254.1) rotate(180)"/><path class="cls-6" d="M239.53,144.42h49.97v-34.74h-49.97v34.74ZM288.92,143.83h-48.8v-33.57h48.8v33.57Z"/><rect class="cls-6" x="237.06" y="106.77" width="57.2" height="10.39" transform="translate(531.31 223.93) rotate(180)"/><polyline class="cls-6" points="246.16 133.57 246.16 139.34 126.47 139.34 126.47 132.86"/><polygon class="cls-6" points="126.17 139.64 246.45 139.64 246.45 133.57 245.86 133.57 245.86 139.05 126.76 139.05 126.76 132.86 126.17 132.86 126.17 139.64"/><rect class="cls-6" x="131.01" y="76.65" width="8.05" height="63.42" transform="translate(270.08 216.73) rotate(180)"/><path class="cls-6" d="M130.76,140.33h8.56v-63.93h-8.56v63.93ZM138.81,139.82h-7.55v-62.92h7.55v62.92Z"/><path class="cls-6" d="M246.16,123.73h2.69l2.56-4.6v-4.17h-5.25v8.77Z"/><path class="cls-6" d="M245.86,124.02h3.16l2.68-4.82v-4.54h-5.83v9.36ZM248.68,123.43h-2.23v-8.18h4.66v3.8l-2.43,4.38Z"/><polyline class="cls-6" points="246.16 114.96 290.33 114.96 290.33 66.59 242.27 66.59"/><polygon class="cls-6" points="246.16 115.25 290.62 115.25 290.62 66.3 242.27 66.3 242.27 66.88 290.04 66.88 290.04 114.66 246.16 114.66 246.16 115.25"/><polyline class="cls-6" points="246.55 114.56 251.27 114.6 255.29 110.78 255.22 71.37 250.7 71.37"/><polyline class="cls-6" points="124.82 62.8 252.19 62.8 252.19 108.92 246.16 114.96 246.16 133.57 139.06 133.57 139.06 73.47"/><polygon class="cls-6" points="138.77 133.86 246.45 133.86 246.45 115.08 252.48 109.04 252.48 62.5 124.82 62.5 124.82 63.09 251.9 63.09 251.9 108.8 245.86 114.84 245.86 133.27 139.36 133.27 139.36 73.47 138.77 73.47 138.77 133.86"/><rect class="cls-6" x="232.17" y="75.49" width="13.98" height="20.3" transform="translate(478.33 171.29) rotate(180)"/><path class="cls-6" d="M231.88,96.09h14.57v-20.89h-14.57v20.89ZM245.86,95.5h-13.4v-19.72h13.4v19.72Z"/><rect class="cls-6" x="235.39" y="75.49" width="10.77" height="20.3" transform="translate(481.54 171.29) rotate(180)"/><path class="cls-6" d="M235.11,96.07h11.32v-20.85h-11.32v20.85ZM245.88,95.52h-10.22v-19.76h10.22v19.76Z"/><polygon class="cls-6" points="254.66 127.06 254.66 137.06 278.1 137.06 278.1 119.96 259.05 119.96 254.66 127.06"/><path class="cls-6" d="M254.37,137.34h24.01v-17.67h-19.49l-4.52,7.31v10.36ZM277.81,136.77h-22.87v-9.63l4.26-6.9h18.6v16.53Z"/><circle class="cls-6" cx="267.41" cy="128.76" r="6.69"/><path class="cls-6" d="M267.41,135.71c3.83,0,6.95-3.12,6.95-6.95s-3.12-6.95-6.95-6.95-6.95,3.12-6.95,6.95,3.12,6.95,6.95,6.95ZM267.41,122.33c3.55,0,6.43,2.89,6.43,6.43s-2.89,6.43-6.43,6.43-6.43-2.89-6.43-6.43,2.89-6.43,6.43-6.43Z"/><circle class="cls-6" cx="267.41" cy="128.76" r="4.44"/><path class="cls-6" d="M267.41,133.46c2.59,0,4.7-2.11,4.7-4.7s-2.11-4.7-4.7-4.7-4.7,2.11-4.7,4.7,2.11,4.7,4.7,4.7ZM267.41,124.58c2.3,0,4.18,1.87,4.18,4.18s-1.87,4.18-4.18,4.18-4.18-1.87-4.18-4.18,1.87-4.18,4.18-4.18Z"/><circle class="cls-6" cx="267.41" cy="128.76" r="3.13"/><path class="cls-6" d="M267.41,132.12c1.85,0,3.36-1.51,3.36-3.36s-1.51-3.36-3.36-3.36-3.36,1.51-3.36,3.36,1.51,3.36,3.36,3.36ZM267.41,125.86c1.6,0,2.9,1.3,2.9,2.9s-1.3,2.9-2.9,2.9-2.9-1.3-2.9-2.9,1.3-2.9,2.9-2.9Z"/><rect class="cls-6" x="283.67" y="114.96" width=".59" height="24.35"/></g><path class="cls-6" d="M144.04,138.05h132.04c4.71,0,8.57-3.75,8.72-8.46,0-.2,0-.4-.01-.6l-2.68-45.39c-.05-4.53-3.77-8.17-8.31-8.11h-127.53c-4.53-.05-8.25,3.58-8.31,8.11l-2.63,45.39c-.01.2-.02.4-.01.59.15,4.71,4.01,8.45,8.72,8.46Z"/><polygon class="cls-9" points="161.7 75.93 273.44 137.66 255 137.66 145.82 76.05 161.7 75.93"/><polygon class="cls-9" points="167.74 76.02 277.33 137.34 275.26 137.59 164.98 75.93 167.74 76.02"/><g class="cls-17"><path class="cls-5" d="M278.76,161.27c.44-.4.96-.7,1.44-1.04,1.62-1.14,3.37-2.09,5.25-2.81,1.42-.54,2.88-.97,4.36-1.31,1.21-.28,2.44-.5,3.67-.65,2.83-.32,5.62-.23,8.36.36,2.55.55,4.89,1.51,7.06,2.79.77.46,1.52.93,2.22,1.48.66.46,1.29.95,1.9,1.47.52.45,1.02.91,1.53,1.37,1.54,1.48,2.97,3.05,4.31,4.68,1.82,2.22,3.54,4.5,5.26,6.78.05.06.1.12.19.23-.1-.79-.19-1.51-.29-2.24-.18-1.43-.36-2.86-.54-4.28,1.21-.16,2.42-.31,3.62-.45.01.09.03.18.04.27.48,3.96.96,7.92,1.44,11.89.02.15.07.27.17.39,1.08,1.26,2.27,2.42,3.48,3.55.62.58,1.31,1.09,2,1.58.04.03.07.08.16.05,0-.08-.02-.17-.03-.26-.3-2.71-.61-5.42-.91-8.13-.25-2.26-.5-4.51-.75-6.77,1.21-.13,2.42-.26,3.62-.39.01.1.03.2.04.29.6,5.7,1.2,11.39,1.8,17.09.02.2.08.3.28.38,1,.38,2.02.69,3.07.9.17.03.22.1.24.26.13,1.4.27,2.79.41,4.21-.55-.1-1.08-.22-1.6-.36-3.07-.81-5.98-1.97-8.68-3.63-1.05-.64-2.07-1.33-2.96-2.16-1.81-1.68-3.5-3.46-5.07-5.35-1.82-2.2-3.54-4.48-5.28-6.74-1.8-2.35-3.61-4.7-5.66-6.88-.43-.46-.88-.91-1.32-1.36,0-.06-.03-.1-.07-.14-.96-.88-1.9-1.77-2.98-2.53-.13-.09-.22-.24-.41-.26-.04-.04-.08-.08-.12-.11-.92-.66-1.89-1.26-2.91-1.77-.29-.15-.59-.3-.88-.44-.03-.1-.11-.1-.2-.07-.01,0-.03-.01-.04-.02,0-.11-.09-.13-.17-.17-1.42-.64-2.9-1.14-4.45-1.5-1.56-.36-3.16-.58-4.78-.67-1.85-.1-3.7-.05-5.56.15-.96.1-1.91.23-2.86.37-.62.09-1.23.24-1.84.34-.68.11-1.34.3-1.99.5-1.12.34-2.22.74-3.33,1.11-.08.03-.16.07-.24,0Z"/><path class="cls-5" d="M284.1,201.48c-.77.19-1.55.31-2.33.43-1.9.3-3.8.48-5.73.32-1.75-.15-3.46-.46-5.15-.91-1.05-.28-2.09-.57-3.13-.9-.05-.01-.15.01-.1-.1-2.37-.61-4.59-1.54-6.73-2.67-.14-.08-.3-.14-.41-.26-.35-.11-.62-.35-.93-.53-.91-.56-1.76-1.2-2.58-1.87-.05-.04-.11-.08-.14-.15-.11-.01-.16-.09-.23-.15-1.66-1.38-3.24-2.84-4.76-4.36-2.12-2.12-4.22-4.26-6.38-6.36-2.22-2.16-4.56-4.22-7.17-5.99-1.97-1.34-4.08-2.49-6.39-3.32-2.67-.96-5.49-1.45-8.45-1.4-.32,0-.65.02-.98.04.43,1.4.86,2.78,1.27,4.16.05.16.11.2.3.2.85-.03,1.71-.02,2.55.08,1.48.13,2.89.45,4.23.98,1.09.37,2.09.89,3.05,1.46,1.41.83,2.68,1.81,3.9,2.84.04.03.07.08.11.12.38.25.7.58,1.03.88,1.43,1.29,2.79,2.65,4.14,4.02.03.03.04.06.07.09.48.47.95.94,1.43,1.42,2.5,2.49,4.96,5,7.62,7.32.67.58,1.35,1.14,2.04,1.69.05.04.09.08.13.13.43.26.8.59,1.2.88.79.57,1.61,1.12,2.44,1.64,1.27.75,2.57,1.44,3.95,2.01,2.71,1.12,5.53,1.73,8.49,1.78,1.62.03,3.23-.12,4.83-.38,1.33-.22,2.63-.55,3.91-.94,1.16-.35,2.29-.78,3.39-1.29.62-.29,1.26-.55,1.84-.93-.11.02-.22.03-.33.06Z"/><path class="cls-5" d="M284.42,201.42c-.11.02-.22.03-.33.06-.77.19-1.55.31-2.33.43-1.9.3-3.8.48-5.73.32-1.75-.15-3.46-.46-5.15-.91-1.05-.28-2.09-.57-3.13-.9-.05-.01-.15.01-.1-.1.11.01.22.02.33.04.88.14,1.77.22,2.66.23.3,0,.6,0,.9,0,.9-.02,1.8-.11,2.69-.25.14-.02.28-.04.42-.07,2.03-.35,3.98-.95,5.86-1.78.06-.03.13-.06.19-.09,1.06-.5,2.09-1.04,3.07-1.68.88-.55,1.7-1.18,2.5-1.84,1.16-.96,2.23-2,3.22-3.12,1.08-1.16,2.04-2.42,2.99-3.68.2-.27.4-.54.59-.82,1.25-1.8,2.43-3.64,3.56-5.52.37-.62.77-1.23,1.1-1.88.05-.08.11-.15.16-.23.4-.68.8-1.36,1.19-2.04.5-.86,1-1.73,1.5-2.59.04-.05.08-.1.11-.15.93-1.59,1.88-3.17,2.86-4.74,1.4-2.25,2.9-4.44,4.56-6.56.19.02.28.17.41.26,1.08.76,2.02,1.65,2.98,2.53.04.04.08.08.07.14-.47.55-.87,1.15-1.3,1.73-2.11,2.92-3.93,5.98-5.74,9.04-1.76,2.98-3.48,5.97-5.34,8.88-1.79,2.82-3.71,5.55-5.94,8.05-1.8,2.03-3.76,3.88-5.99,5.45-.92.65-1.86,1.26-2.86,1.77Z"/><path class="cls-5" d="M260.52,197.39c-.35-.11-.62-.35-.93-.53-.91-.56-1.76-1.2-2.58-1.87-.05-.04-.11-.08-.14-.15,2.54-4.3,4.67-8.8,6.93-13.26,1.97-3.89,4.02-7.75,6.57-11.39,1.93-2.76,4.11-5.35,6.76-7.61.53-.45,1.06-.89,1.63-1.3.08.06.16.02.24,0,1.11-.38,2.21-.77,3.33-1.11.65-.2,1.31-.38,1.99-.5.62-.1,1.22-.26,1.84-.34.95-.13,1.91-.26,2.86-.37,1.86-.2,3.71-.25,5.56-.15,1.62.09,3.21.31,4.78.67,1.55.36,3.03.85,4.45,1.5.08.04.18.06.17.17-1.23-.51-2.5-.92-3.83-1.16-.71-.13-1.42-.25-2.15-.27-.07-.03-.14-.03-.22-.03-1.2-.06-2.39-.04-3.59.08-.35.04-.71.08-1.06.13-1.49.22-2.96.57-4.39,1.03-.45.15-.92.27-1.33.51-.08.02-.17.04-.24.07-.94.37-1.83.83-2.71,1.31-.18.1-.39.16-.51.33-.15,0-.25.1-.35.17-1.9,1.19-3.62,2.57-5.15,4.14-.21.22-.46.41-.6.69-.13.04-.19.15-.27.24-.66.72-1.28,1.47-1.89,2.22-.31.38-.58.78-.87,1.17-.02.02-.05.04-.07.07-1.9,2.66-3.55,5.44-5.06,8.28-.03.06-.06.11-.05.17-.07.02-.09.08-.12.14-.51.96-1.01,1.93-1.51,2.89-.33.65-.65,1.3-.97,1.95-.04.07-.09.13-.12.2-1.17,2.3-2.31,4.62-3.53,6.89-.91,1.7-1.83,3.38-2.86,5.02Z"/><path class="cls-5" d="M252.17,207.49c-1.01.57-2.05,1.08-3.12,1.53-1.13.47-2.3.82-3.49,1.1-1.41.33-2.85.48-4.3.51-1.12.02-2.23-.05-3.33-.21-.41-.06-1.18-.25-1.29-.28,0,0-.02,0-.03,0-.08-.01-.17-.03-.25-.04-.01,0-.02,0-.03,0-.1,0-.6-.04-.85.01-.46.09-.92.15-1.38.12-.21-.01-.21.06-.16.22.4,1.28.79,2.56,1.18,3.85.05.16.12.19.27.19,1.37,0,2.71-.16,4.05-.5,2.02-.52,3.98-1.15,5.88-2.01,1.87-.84,3.63-1.85,5.27-3.07.61-.45,1.21-.91,1.74-1.45-.07-.06-.12.01-.16.04Z"/><path class="cls-5" d="M236.5,210.1c1.13-.21,2.25-.42,3.35-.74-.03-.09-.06-.19-.09-.28-1.35-4.56-2.7-9.13-4.04-13.69-.03-.09-.06-.17-.08-.26-1.16.34-2.32.69-3.48,1.04.02.09.04.18.07.26,1.35,4.46,2.7,8.92,4.05,13.39.02.07.27.3.23.29Z"/><path class="cls-5" d="M314.55,162.93c-.51-.46-1.01-.92-1.53-1.37-.6-.52-1.24-1.01-1.9-1.47.27-.39.62-.71.96-1.04,1.83-1.79,3.83-3.43,6.08-4.8,1.46-.89,2.99-1.68,4.62-2.28.09.06.18.02.27,0,.71-.09,1.43-.15,2.14-.18.92-.04,1.83-.06,2.74.01,1.24.09,2.46.27,3.64.64,1.12.35,2.18.8,3.23,1.27.5.22.99.45,1.48.68-.53-.03-1.06-.06-1.6-.08-.13-.05-.27,0-.4,0-1.13-.03-2.26-.04-3.39.1-.95.1-1.9.26-2.83.47-.82.19-1.65.4-2.44.7-1.25.41-2.44.95-3.59,1.55-.11.06-.23.11-.33.16-2.05,1.13-3.87,2.51-5.54,4.06-.56.52-1.09,1.05-1.64,1.58Z"/><path class="cls-5" d="M252.34,207.45c-.07-.06-.12.01-.16.04-1.01.57-2.05,1.08-3.12,1.53-1.13.47-2.3.82-3.49,1.1-1.41.33-2.85.48-4.3.51-1.12.02-2.23-.05-3.33-.21-.48-.07-.95-.19-1.43-.32,1.13-.21,2.25-.42,3.35-.74,1.19-.34,2.36-.77,3.49-1.27.49-.21.98-.42,1.42-.72.28-.1.53-.26.78-.41.81-.48,1.61-.99,2.36-1.57.02-.01.05-.02.06-.03,1.44-1.1,2.76-2.33,3.97-3.67.87-.97,1.67-1.99,2.44-3.04.43.26.8.59,1.2.88.79.57,1.61,1.12,2.44,1.64-1.16,1.58-2.41,3.09-3.79,4.5-.6.62-1.24,1.2-1.88,1.78Z"/><path class="cls-5" d="M235.63,195.12c-1.16.34-2.32.69-3.48,1.04.02-.1-.02-.19-.05-.29-1.83-6.05-3.66-12.1-5.48-18.14,1.48.13,2.89.44,4.23.98.02.09.05.18.07.26,1.56,5.28,3.12,10.56,4.68,15.84.03.1.1.2.04.31Z"/><path class="cls-5" d="M330.92,154.4c1.13-.14,2.26-.14,3.39-.1.13,0,.27-.04.4,0,0,.06,0,.12,0,.18.54,5.09,1.08,10.19,1.62,15.28,0,.01,0,.03,0,.04-1.21.13-2.42.26-3.62.39,0-.01-.01-.03-.02-.04-.58-5.2-1.16-10.39-1.74-15.59,0-.06-.02-.12-.03-.18Z"/><path class="cls-5" d="M336.3,154.39c-.49-.23-.99-.46-1.48-.68-1.05-.47-2.11-.93-3.23-1.27-1.18-.36-2.4-.54-3.64-.64-.91-.07-1.83-.05-2.74-.01-.72.03-1.43.1-2.14.18-.09.01-.18.05-.27,0,.62-.29,1.28-.49,1.94-.7,1.16-.38,2.36-.66,3.57-.87,1.28-.23,2.57-.39,3.87-.48,1.02-.07,2.03-.1,3.05-.07.81.02,1.61.1,2.41.2.15.02.2.07.21.2.14,1.4.29,2.8.43,4.2,0,.09.05.18-.14.16-.61-.08-1.22-.15-1.84-.22Z"/><path class="cls-5" d="M323.48,168.1c-.01-.09-.03-.18-.04-.27-.44-3.47-.89-6.94-1.33-10.4-.01-.1-.03-.2-.05-.29,1.15-.61,2.34-1.15,3.59-1.55.48,3.95.96,7.89,1.44,11.84,0,.08.01.15.02.23-1.21.15-2.42.3-3.62.45Z"/><path class="cls-5" d="M304.21,161.22c-.08,0-.14-.04-.2-.07.09-.02.17-.02.2.07Z"/><path class="cls-5" d="M243.14,188.1c.08.29.16.59.24.88.74,2.65,1.48,5.31,2.21,7.96.02.08.09.16.02.26-.59.16-1.17.33-1.76.49-.56.16-1.13.31-1.69.46-.02-.1-.04-.19-.07-.29-1.37-4.82-2.75-9.64-4.12-14.46-.03-.1-.05-.19-.07-.29.38.25.7.58,1.03.88,1.43,1.29,2.79,2.65,4.14,4.02.03.03.04.06.07.09Z"/><path class="cls-5" d="M280.53,198.49c-.02-.1-.04-.19-.06-.29-.97-4.51-1.93-9.03-2.9-13.54-.02-.08-.03-.16-.04-.25,1.18-.25,2.36-.5,3.54-.74.02.07.04.13.05.2.87,4.21,1.75,8.42,2.62,12.63.02.07.03.15.05.22-.97.64-2.01,1.19-3.07,1.68-.06.03-.13.06-.19.09Z"/><path class="cls-5" d="M290.66,178.6c.21,1.1.42,2.2.63,3.3.38,1.98.75,3.97,1.12,5.95.02.08-.01.19.1.24-.95,1.26-1.91,2.52-2.99,3.68-.4-2.03-.8-4.06-1.19-6.1-.42-2.12-.83-4.24-1.25-6.36,0,0,0-.01,0-.02,1.19-.23,2.38-.46,3.57-.69Z"/><path class="cls-5" d="M271.95,190.51c.1.06.09.17.11.26.7,3.09,1.4,6.19,2.1,9.28.02.1.05.19.07.29-.89.14-1.79.23-2.69.25-.3,0-.6,0-.9,0-.02-.09-.03-.18-.05-.27-.68-2.91-1.36-5.83-2.04-8.74-.02-.1-.03-.19-.1-.27,1.16-.27,2.33-.54,3.5-.8Z"/><path class="cls-5" d="M297.75,179.86c-.01-.05-.03-.1-.04-.15-.59-3.34-1.18-6.68-1.77-10.02,0-.04-.01-.09-.02-.14,1.21-.21,2.41-.42,3.62-.63.2,1.15.4,2.31.6,3.47.15.87.3,1.74.45,2.61-.5.86-1,1.73-1.5,2.59-.39.68-.8,1.36-1.19,2.04-.05.08-.1.15-.16.23Z"/><path class="cls-5" d="M290.66,178.6c-1.19.23-2.38.45-3.57.69-.37-1.89-.74-3.78-1.11-5.67-.66-3.4-1.33-6.8-1.99-10.2-.02-.09-.03-.18-.04-.27.12-.17.33-.24.51-.33.88-.48,1.77-.94,2.71-1.31.08-.03.16-.05.24-.07.02.06.04.11.05.17,1.06,5.63,2.12,11.26,3.19,16.89,0,.03,0,.06.01.09Z"/><path class="cls-5" d="M281.07,183.67c-1.18.24-2.36.49-3.54.74-.02-.09-.05-.18-.06-.27-.86-4.03-1.73-8.05-2.59-12.08-.02-.1-.05-.19-.07-.29.29-.39.56-.79.87-1.17.61-.76,1.23-1.5,1.89-2.22.08-.09.14-.19.27-.24.02.06.04.11.05.17,1.05,5.07,2.11,10.15,3.16,15.22,0,.04.01.09.02.14Z"/><path class="cls-5" d="M299.55,168.92c-1.21.21-2.42.41-3.62.63-.02-.09-.04-.18-.06-.27-.54-3.08-1.09-6.16-1.63-9.24-.02-.1-.04-.19-.06-.29,1.2-.12,2.4-.13,3.59-.08.08,0,.15,0,.22.03.12.68.24,1.35.35,2.03.39,2.31.79,4.63,1.18,6.94.01.08.02.17.03.25Z"/><path class="cls-5" d="M271.95,190.51c-1.17.26-2.33.53-3.5.8-.15-.62-.3-1.24-.44-1.86-.33-1.39-.65-2.78-.98-4.17.32-.65.64-1.3.97-1.95.5-.97,1-1.93,1.51-2.89.03-.06.04-.12.12-.14.02.05.03.1.05.15.75,3.31,1.5,6.63,2.25,9.94,0,.04.01.07.02.11Z"/><path class="cls-5" d="M242.16,198.16c.56-.16,1.13-.31,1.69-.46.59-.16,1.17-.33,1.76-.49.73,2.63,1.46,5.26,2.2,7.88.03.1.06.2.09.31-.75.58-1.54,1.08-2.36,1.57-.25.15-.5.31-.78.41-.18-.61-.36-1.23-.53-1.84-.68-2.37-1.35-4.74-2.02-7.11-.02-.08-.08-.17-.04-.26Z"/><path class="cls-5" d="M332.79,170.22c1.2-.13,2.41-.27,3.61-.39-.04.1-.02.19,0,.29.66,6.28,1.15,10.93,1.82,17.21-1.34-.41-2.6-.99-3.76-1.75,0-.09-.01-.18-.02-.27-.61-5.47-1.04-9.31-1.65-14.78-.01-.1-.06-.21.02-.31Z"/><path class="cls-5" d="M324.25,174.43c-.04-.3-.07-.6-.11-.91-.35-2.73-.32-2.47-.66-5.2-.01-.08-.07-.18.02-.26.61-.08,1.23-.16,1.84-.23.59-.07,1.18-.14,1.77-.2,0,.1.01.2.02.3.6,4.98.84,6.96,1.45,11.93.01.1.02.2.02.3-.33-.31-.58-.68-.86-1.03-1.19-1.5-2.31-3.05-3.44-4.59-.02-.03-.04-.07-.05-.1Z"/><path class="cls-5" d="M395.02,149.41c.5-.3,1.07-.5,1.61-.74,1.81-.79,3.69-1.39,5.68-1.72,1.49-.25,3-.39,4.52-.43,1.24-.04,2.48-.02,3.71.09,2.82.24,5.54.88,8.1,2,2.38,1.04,4.49,2.44,6.35,4.13.66.6,1.31,1.22,1.88,1.88.56.58,1.08,1.19,1.57,1.82.42.54.82,1.1,1.22,1.64,1.22,1.76,2.31,3.57,3.3,5.44,1.35,2.53,2.58,5.11,3.81,7.68.03.07.07.14.14.26.06-.79.11-1.52.16-2.25.1-1.44.21-2.87.31-4.31,1.21.09,2.43.17,3.64.27,0,.09,0,.18-.01.27-.31,3.98-.62,7.96-.93,11.94-.01.15.01.28.09.41.81,1.44,1.74,2.82,2.71,4.17.49.69,1.07,1.32,1.65,1.94.03.04.06.1.15.08,0-.08.02-.17.02-.26.24-2.72.47-5.43.71-8.15.2-2.26.39-4.52.59-6.78,1.21.11,2.42.22,3.63.33,0,.1-.01.2-.02.3-.53,5.7-1.06,11.41-1.6,17.11-.02.2.02.31.2.43.9.57,1.84,1.08,2.83,1.49.16.07.2.14.18.31-.15,1.39-.28,2.79-.42,4.21-.52-.2-1.01-.43-1.5-.67-2.85-1.4-5.47-3.11-7.79-5.26-.9-.83-1.76-1.71-2.48-2.7-1.44-2-2.75-4.08-3.92-6.24-1.35-2.51-2.58-5.09-3.84-7.65-1.3-2.66-2.61-5.32-4.19-7.86-.33-.54-.68-1.06-1.03-1.59.01-.06-.01-.1-.05-.15-.76-1.05-1.51-2.11-2.42-3.07-.11-.12-.17-.28-.35-.34-.03-.04-.06-.09-.1-.13-.77-.83-1.6-1.6-2.5-2.31-.26-.2-.51-.41-.77-.61-.01-.1-.09-.12-.18-.11-.01,0-.03-.02-.04-.02.03-.11-.06-.15-.13-.2-1.26-.91-2.61-1.68-4.05-2.34-1.46-.67-2.97-1.19-4.54-1.6-1.78-.46-3.61-.78-5.46-.95-.95-.09-1.91-.15-2.87-.2-.62-.04-1.24,0-1.87-.03-.68-.02-1.37.03-2.04.1-1.16.11-2.31.29-3.46.44-.08,0-.17.03-.23-.04Z"/><path class="cls-5" d="M392.35,189.88c-.79.04-1.57,0-2.35-.03-1.91-.08-3.8-.28-5.65-.82-1.67-.49-3.28-1.13-4.84-1.91-.97-.48-1.93-.97-2.87-1.5-.04-.02-.14-.02-.08-.11-2.18-1.06-4.17-2.42-6.03-3.95-.12-.1-.27-.19-.35-.34-.32-.18-.54-.47-.8-.71-.78-.73-1.48-1.52-2.15-2.34-.04-.05-.09-.1-.1-.18-.1-.03-.14-.12-.2-.19-1.35-1.68-2.6-3.42-3.78-5.21-1.64-2.5-3.27-5.01-4.96-7.49-1.74-2.56-3.61-5.03-5.81-7.29-1.66-1.7-3.48-3.25-5.57-4.52-2.41-1.47-5.05-2.51-7.94-3.05-.31-.06-.63-.1-.96-.16.15,1.46.29,2.89.43,4.32.02.16.07.22.25.25.84.14,1.66.32,2.46.58,1.41.42,2.72,1.01,3.92,1.79.99.58,1.85,1.29,2.68,2.03,1.2,1.09,2.25,2.3,3.23,3.55.03.04.05.09.08.14.32.32.56.7.83,1.06,1.14,1.55,2.2,3.15,3.24,4.76.02.03.03.07.05.1.37.56.74,1.11,1.11,1.67,1.95,2.93,3.84,5.89,5.99,8.68.54.7,1.09,1.39,1.66,2.06.04.05.07.1.1.15.37.34.66.73,1,1.1.66.72,1.35,1.41,2.05,2.09,1.09.99,2.22,1.92,3.45,2.75,2.42,1.63,5.05,2.79,7.92,3.42,1.58.35,3.17.52,4.79.58,1.34.05,2.67-.02,3.99-.15,1.2-.11,2.39-.32,3.56-.59.67-.16,1.34-.29,1.98-.55-.11,0-.22,0-.33,0Z"/><path class="cls-5" d="M392.68,189.89c-.11,0-.22,0-.33,0-.79.03-1.57,0-2.35-.03-1.91-.08-3.8-.28-5.65-.82-1.67-.49-3.28-1.13-4.84-1.91-.97-.48-1.93-.97-2.87-1.5-.04-.02-.14-.02-.08-.11.1.03.21.06.31.1.83.31,1.68.56,2.55.76.29.06.59.12.88.17.88.16,1.77.24,2.67.28.14,0,.28.01.43.02,2.05.06,4.07-.14,6.06-.59.07-.02.14-.03.21-.05,1.13-.28,2.24-.61,3.32-1.05.97-.37,1.89-.82,2.8-1.31,1.32-.71,2.57-1.52,3.76-2.42,1.28-.93,2.47-1.97,3.64-3.02.24-.23.49-.46.73-.69,1.58-1.52,3.09-3.09,4.56-4.71.49-.54.99-1.06,1.44-1.63.07-.06.14-.13.2-.2.52-.59,1.05-1.17,1.57-1.76.66-.75,1.31-1.5,1.97-2.25.05-.04.1-.08.14-.13,1.22-1.38,2.46-2.74,3.73-4.09,1.81-1.93,3.71-3.78,5.74-5.53.18.06.24.22.35.34.9.96,1.65,2.02,2.42,3.07.03.05.06.09.05.15-.57.45-1.08.95-1.61,1.44-2.64,2.44-5.02,5.09-7.39,7.73-2.31,2.57-4.58,5.17-6.96,7.66-2.31,2.41-4.71,4.71-7.38,6.73-2.16,1.63-4.43,3.06-6.92,4.16-1.02.45-2.06.86-3.14,1.18Z"/><path class="cls-5" d="M370.18,181.22c-.32-.18-.54-.47-.8-.71-.78-.73-1.48-1.52-2.15-2.34-.04-.05-.09-.1-.1-.18,3.31-3.72,6.27-7.71,9.34-11.63,2.68-3.42,5.44-6.81,8.63-9.87,2.42-2.32,5.05-4.44,8.08-6.13.6-.34,1.21-.67,1.84-.95.07.07.16.05.23.04,1.15-.15,2.3-.32,3.46-.44.68-.07,1.36-.12,2.04-.1.62.02,1.25,0,1.87.03.96.06,1.91.12,2.87.2,1.85.17,3.67.49,5.46.95,1.56.41,3.08.93,4.54,1.6,1.44.66,2.8,1.43,4.05,2.34.07.05.16.09.13.2-1.1-.74-2.26-1.39-3.52-1.89-.67-.27-1.33-.53-2.05-.68-.06-.04-.13-.06-.21-.08-1.16-.29-2.33-.51-3.52-.63-.35-.03-.7-.06-1.06-.08-1.5-.07-3-.02-4.49.15-.47.05-.95.09-1.4.24-.08,0-.17,0-.25.02-.99.18-1.95.45-2.9.75-.19.06-.41.08-.56.23-.14-.03-.26.05-.38.09-2.09.79-4.04,1.81-5.84,3.04-.25.17-.53.31-.72.55-.13.02-.22.11-.31.18-.78.58-1.54,1.19-2.28,1.81-.37.31-.72.65-1.08.98-.03.02-.05.03-.08.05-2.38,2.23-4.53,4.64-6.56,7.12-.04.05-.08.1-.08.16-.08,0-.1.06-.14.11-.68.85-1.36,1.69-2.04,2.54-.45.57-.89,1.14-1.32,1.72-.05.06-.11.11-.16.17-1.59,2.03-3.16,4.07-4.79,6.06-1.22,1.48-2.45,2.95-3.76,4.35Z"/><path class="cls-5" d="M360.08,189.48c-1.09.36-2.2.66-3.33.88-1.19.24-2.4.35-3.61.39-1.43.05-2.86-.09-4.27-.36-1.09-.21-2.16-.49-3.2-.87-.38-.14-1.1-.48-1.2-.53,0,0-.02,0-.02-.01-.08-.03-.16-.06-.23-.09-.01,0-.02,0-.03-.01-.09-.03-.58-.16-.83-.16-.46,0-.92-.04-1.36-.15-.21-.05-.22.02-.2.18.14,1.33.27,2.67.4,4,.02.16.08.21.23.24,1.33.27,2.67.38,4.03.31,2.06-.11,4.09-.34,6.11-.8,1.98-.45,3.89-1.09,5.72-1.96.68-.32,1.35-.65,1.97-1.08-.06-.08-.12,0-.17,0Z"/><path class="cls-5" d="M344.34,188.93c1.14.02,2.27.04,3.4-.06-.01-.1-.02-.2-.03-.29-.42-4.74-.84-9.48-1.26-14.22,0-.09-.02-.18-.03-.27-1.19.11-2.39.22-3.58.33,0,.09,0,.18.02.27.44,4.64.88,9.28,1.32,13.92,0,.07.21.35.17.33Z"/><path class="cls-5" d="M429.66,158.08c-.41-.55-.81-1.1-1.22-1.64-.49-.63-1.01-1.23-1.57-1.82.34-.33.75-.57,1.15-.83,2.15-1.4,4.42-2.61,6.9-3.51,1.61-.58,3.25-1.06,4.97-1.33.07.08.17.05.26.06.71.06,1.43.13,2.14.24.91.14,1.8.31,2.68.55,1.2.33,2.36.75,3.44,1.34,1.03.56,1.98,1.22,2.91,1.88.44.32.88.64,1.32.96-.52-.13-1.03-.26-1.55-.4-.12-.07-.26-.06-.39-.09-1.1-.26-2.21-.48-3.34-.57-.96-.09-1.91-.12-2.87-.09-.84.03-1.69.07-2.52.21-1.31.15-2.57.45-3.82.82-.12.03-.24.06-.36.1-2.22.71-4.28,1.7-6.22,2.89-.65.4-1.27.82-1.91,1.22Z"/><path class="cls-5" d="M360.25,189.47c-.06-.08-.12,0-.17,0-1.09.36-2.2.65-3.33.88-1.19.24-2.4.35-3.61.39-1.43.05-2.86-.09-4.27-.36-1.09-.2-2.16-.49-3.2-.87-.45-.17-.89-.38-1.33-.6,1.14.02,2.27.04,3.4-.06,1.23-.1,2.44-.28,3.64-.55.51-.11,1.04-.21,1.52-.43.29-.04.56-.15.84-.25.89-.31,1.76-.65,2.6-1.07.02,0,.05,0,.07-.02,1.62-.79,3.14-1.73,4.57-2.81,1.04-.78,2.02-1.62,2.97-2.49.37.34.66.73,1,1.1.66.72,1.35,1.41,2.05,2.09-1.44,1.32-2.95,2.55-4.57,3.66-.71.49-1.45.93-2.18,1.38Z"/><path class="cls-5" d="M346.42,174.07c-1.19.11-2.39.22-3.58.33.04-.1.02-.19.01-.29-.6-6.29-1.19-12.58-1.79-18.87,1.41.42,2.72,1.01,3.92,1.79,0,.09.01.18.02.27.48,5.48.97,10.97,1.45,16.45,0,.1.06.21-.02.31Z"/><path class="cls-5" d="M447.36,152.94c1.13.08,2.24.31,3.34.57.13.03.27.01.39.09,0,.06-.02.12-.03.18-.47,5.1-.95,10.2-1.42,15.3,0,.01-.01.03-.02.04-1.21-.11-2.42-.22-3.63-.33,0-.02,0-.03,0-.05.45-5.21.91-10.42,1.36-15.62,0-.06,0-.12,0-.18Z"/><path class="cls-5" d="M452.64,153.99c-.44-.32-.88-.65-1.32-.96-.94-.67-1.89-1.33-2.91-1.88-1.08-.59-2.24-1.01-3.44-1.34-.88-.24-1.78-.41-2.68-.55-.71-.11-1.42-.18-2.14-.24-.09,0-.19.02-.26-.06.67-.16,1.35-.22,2.03-.3,1.22-.14,2.44-.18,3.67-.15,1.3.03,2.59.12,3.88.29,1.01.13,2.01.3,3,.53.79.18,1.56.42,2.32.67.14.05.18.11.17.23-.13,1.4-.27,2.8-.4,4.21,0,.09,0,.19-.16.13-.58-.2-1.17-.38-1.76-.57Z"/><path class="cls-5" d="M437.39,164.91c0-.09,0-.18.01-.27.25-3.49.5-6.97.74-10.46,0-.1,0-.2.01-.3,1.25-.37,2.51-.67,3.82-.82-.31,3.96-.61,7.93-.92,11.89,0,.08-.02.15-.03.23-1.21-.09-2.43-.18-3.64-.27Z"/><path class="cls-5" d="M419.89,154.38c-.08,0-.13-.07-.18-.11.09,0,.17,0,.18.11Z"/><path class="cls-5" d="M355.08,168.68c.02.3.04.61.06.91.2,2.75.4,5.49.59,8.24,0,.08.06.18-.03.26-.6.04-1.2.09-1.8.14-.58.04-1.15.08-1.73.12,0-.1,0-.2-.01-.3-.39-5-.79-9.99-1.18-14.99,0-.1,0-.2-.01-.3.32.32.56.7.83,1.06,1.14,1.55,2.2,3.15,3.24,4.76.02.03.03.07.05.1Z"/><path class="cls-5" d="M389.45,186.25c0-.1,0-.2,0-.3-.06-4.62-.12-9.23-.18-13.85,0-.08,0-.17,0-.25,1.2-.01,2.4-.02,3.59-.03,0,.07,0,.14,0,.2.03,4.3.05,8.6.08,12.9,0,.08,0,.15,0,.23-1.08.44-2.19.77-3.32,1.05-.07.02-.14.03-.21.05Z"/><path class="cls-5" d="M403.23,168.74c-.01,1.12-.02,2.24-.03,3.36-.02,2.02-.05,4.04-.07,6.05,0,.08-.05.18.05.26-1.18,1.05-2.36,2.09-3.64,3.02.01-2.07.02-4.14.03-6.21.01-2.16.02-4.32.03-6.48,0,0,0-.01.01-.02,1.21,0,2.42.02,3.62.03Z"/><path class="cls-5" d="M382.66,176.74c.09.08.06.19.06.28.08,3.17.16,6.34.23,9.51,0,.1,0,.2.01.3-.9-.04-1.79-.12-2.67-.28-.29-.05-.59-.12-.88-.17,0-.09,0-.18,0-.27-.09-2.99-.18-5.98-.28-8.97,0-.1,0-.2-.05-.29,1.19-.04,2.38-.07,3.56-.1Z"/><path class="cls-5" d="M409.92,171.38c0-.05,0-.11,0-.16.08-3.39.16-6.78.24-10.18,0-.05,0-.09.01-.14,1.22.03,2.44.06,3.66.1-.03,1.17-.06,2.34-.1,3.52-.02.88-.05,1.77-.08,2.65-.66.75-1.31,1.5-1.97,2.25-.52.59-1.04,1.18-1.57,1.76-.06.07-.13.13-.2.2Z"/><path class="cls-5" d="M403.23,168.74c-1.21-.01-2.42-.02-3.62-.03,0-1.93.02-3.85.03-5.78.02-3.46.04-6.93.06-10.39,0-.09.01-.18.02-.27.15-.14.37-.17.56-.23.95-.3,1.91-.57,2.9-.75.08-.01.17-.01.25-.02,0,.06.02.12.02.18-.07,5.73-.13,11.46-.2,17.19,0,.03,0,.06,0,.09Z"/><path class="cls-5" d="M392.88,171.83c-1.2,0-2.4.02-3.59.03,0-.09-.01-.18-.01-.27-.05-4.12-.1-8.24-.16-12.36,0-.1,0-.2-.01-.3.36-.33.7-.67,1.08-.98.74-.62,1.5-1.23,2.28-1.81.1-.07.18-.16.31-.18,0,.06.02.12.02.18.03,5.18.07,10.36.1,15.55,0,.05,0,.09,0,.14Z"/><path class="cls-5" d="M413.82,161.01c-1.22-.04-2.44-.07-3.66-.1,0-.09,0-.18,0-.27.07-3.13.15-6.25.22-9.38,0-.1,0-.2,0-.3,1.19.12,2.37.34,3.52.63.07.02.15.03.21.08-.02.69-.03,1.37-.05,2.06-.07,2.34-.14,4.69-.21,7.04,0,.08-.01.17-.02.25Z"/><path class="cls-5" d="M382.66,176.74c-1.19.03-2.38.06-3.56.1-.02-.64-.05-1.27-.07-1.91-.05-1.43-.09-2.86-.14-4.28.44-.57.88-1.15,1.32-1.72.67-.85,1.35-1.69,2.04-2.54.04-.05.07-.11.14-.11,0,.05.01.11.02.16.08,3.4.17,6.8.25,10.19,0,.04,0,.08,0,.11Z"/><path class="cls-5" d="M352.17,178.35c.58-.04,1.15-.08,1.73-.12.6-.04,1.2-.09,1.8-.14.2,2.72.4,5.44.6,8.16,0,.11.02.21.03.32-.84.42-1.71.76-2.6,1.07-.27.1-.54.21-.84.25-.05-.64-.11-1.27-.16-1.91-.19-2.45-.39-4.91-.58-7.37,0-.09-.05-.18.01-.27Z"/><path class="cls-5" d="M446.08,168.82c1.21.1,2.41.21,3.62.32-.06.09-.06.19-.06.28-.59,6.29-1.02,10.94-1.61,17.23-1.23-.67-2.35-1.48-3.34-2.45,0-.09.02-.18.03-.27.48-5.48.81-9.33,1.29-14.82,0-.1-.02-.22.08-.3Z"/><path class="cls-5" d="M436.9,171.27c.02-.3.05-.61.07-.91.2-2.75.18-2.48.37-5.23,0-.08-.03-.19.07-.25.62.04,1.23.08,1.85.13.59.05,1.18.1,1.77.15-.01.1-.03.2-.04.29-.39,5-.54,6.99-.93,11.99,0,.1-.02.2-.03.29-.26-.37-.44-.78-.64-1.18-.87-1.71-1.66-3.44-2.46-5.18-.02-.03-.02-.07-.03-.11Z"/><path class="cls-5" d="M511.32,160.69c.56-.2,1.15-.28,1.73-.4,1.94-.42,3.91-.63,5.93-.56,1.52.05,3.03.22,4.54.47,1.23.21,2.45.48,3.64.82,2.74.8,5.29,1.96,7.59,3.57,2.15,1.5,3.95,3.29,5.46,5.31.54.72,1.05,1.45,1.49,2.22.43.68.83,1.38,1.19,2.09.31.61.59,1.24.89,1.86.86,1.96,1.58,3.96,2.19,5.99.83,2.75,1.54,5.52,2.26,8.29.02.08.04.15.08.28.21-.77.41-1.47.6-2.17.39-1.39.77-2.77,1.16-4.16,1.18.33,2.36.66,3.54.99-.02.09-.04.18-.07.27-1.09,3.84-2.18,7.68-3.27,11.52-.04.14-.04.28,0,.42.52,1.58,1.17,3.11,1.86,4.63.35.78.79,1.51,1.25,2.23.03.04.04.11.13.11.02-.08.05-.17.07-.25.77-2.62,1.53-5.23,2.3-7.85.64-2.18,1.28-4.35,1.92-6.53,1.18.35,2.35.7,3.52,1.05-.03.1-.05.19-.08.29-1.65,5.48-3.29,10.97-4.95,16.45-.06.19-.04.31.12.46.78.74,1.61,1.43,2.51,2.03.14.1.17.18.12.34-.42,1.34-.83,2.68-1.25,4.04-.47-.3-.91-.63-1.35-.96-2.54-1.94-4.8-4.15-6.67-6.72-.72-1-1.41-2.03-1.92-3.14-1.03-2.25-1.92-4.55-2.64-6.9-.84-2.73-1.55-5.5-2.29-8.27-.77-2.87-1.53-5.73-2.59-8.54-.22-.59-.46-1.18-.7-1.77.03-.05,0-.1-.02-.15-.55-1.18-1.08-2.37-1.78-3.49-.09-.14-.11-.31-.28-.4-.02-.05-.04-.1-.07-.15-.59-.97-1.26-1.89-2.01-2.77-.21-.25-.43-.5-.64-.75,0-.1-.07-.13-.16-.14-.01-.01-.02-.02-.03-.03.05-.1-.03-.15-.09-.22-1.06-1.14-2.25-2.17-3.54-3.1-1.31-.94-2.7-1.76-4.16-2.47-1.67-.81-3.4-1.48-5.2-2.02-.92-.28-1.85-.52-2.79-.77-.6-.16-1.22-.26-1.83-.4-.67-.16-1.35-.24-2.03-.31-1.16-.12-2.33-.18-3.5-.26-.08,0-.17,0-.22-.09Z"/><path class="cls-5" d="M500.72,199.84c-.78-.12-1.55-.31-2.31-.5-1.86-.46-3.69-1.02-5.4-1.92-1.55-.81-3.01-1.76-4.39-2.83-.86-.66-1.71-1.33-2.53-2.03-.04-.03-.14-.04-.06-.13-1.94-1.47-3.62-3.19-5.15-5.06-.1-.13-.22-.24-.28-.4-.28-.24-.44-.56-.65-.85-.62-.87-1.15-1.78-1.65-2.72-.03-.06-.07-.12-.07-.19-.09-.05-.11-.15-.16-.23-.99-1.91-1.88-3.87-2.69-5.86-1.12-2.77-2.23-5.56-3.4-8.32-1.21-2.85-2.55-5.65-4.26-8.29-1.29-1.99-2.78-3.87-4.57-5.53-2.08-1.92-4.46-3.46-7.19-4.55-.3-.12-.6-.23-.91-.34-.15,1.46-.28,2.89-.43,4.32-.02.16.03.23.2.3.79.3,1.57.64,2.3,1.05,1.3.69,2.47,1.52,3.49,2.53.85.76,1.57,1.62,2.23,2.52.97,1.3,1.75,2.7,2.48,4.12.02.05.03.1.05.15.25.38.42.8.61,1.21.81,1.75,1.54,3.52,2.24,5.3.01.03.02.07.03.11.26.62.51,1.24.76,1.86,1.33,3.26,2.61,6.53,4.17,9.69.39.79.8,1.57,1.22,2.35.03.05.05.11.07.17.29.4.51.85.77,1.27.51.84,1.05,1.65,1.61,2.45.87,1.19,1.8,2.32,2.85,3.37,2.06,2.08,4.42,3.73,7.11,4.91,1.48.65,3.02,1.14,4.59,1.51,1.31.31,2.63.51,3.96.65,1.2.13,2.41.16,3.62.12.69-.02,1.38-.02,2.05-.15-.11-.02-.22-.05-.32-.07Z"/><path class="cls-5" d="M501.04,199.91c-.11-.02-.22-.05-.32-.07-.78-.12-1.55-.31-2.31-.5-1.86-.46-3.69-1.02-5.4-1.92-1.55-.81-3.01-1.76-4.39-2.83-.86-.66-1.71-1.33-2.53-2.03-.04-.03-.14-.04-.06-.13.1.05.19.1.29.16.75.47,1.54.88,2.36,1.24.28.11.55.23.83.34.84.33,1.7.59,2.57.8.14.03.28.07.42.1,2,.46,4.03.66,6.09.62.07,0,.14,0,.21,0,1.17-.05,2.33-.15,3.48-.37,1.02-.17,2.02-.43,3.01-.73,1.44-.43,2.83-.98,4.18-1.63,1.45-.66,2.82-1.44,4.19-2.24.29-.18.58-.35.86-.53,1.85-1.17,3.66-2.42,5.42-3.71.59-.43,1.19-.84,1.74-1.31.08-.05.16-.1.24-.15.63-.47,1.26-.94,1.89-1.42.8-.6,1.59-1.21,2.39-1.81.05-.03.11-.06.16-.1,1.47-1.11,2.97-2.2,4.48-3.27,2.17-1.53,4.41-2.97,6.76-4.28.17.09.2.26.28.4.7,1.12,1.23,2.31,1.78,3.49.02.05.04.1.02.15-.65.32-1.26.72-1.87,1.09-3.09,1.87-5.96,3.99-8.82,6.11-2.78,2.06-5.53,4.16-8.37,6.13-2.75,1.91-5.57,3.68-8.6,5.13-2.45,1.17-4.97,2.12-7.64,2.71-1.1.24-2.2.44-3.33.53Z"/><path class="cls-5" d="M480.62,186.97c-.28-.24-.44-.56-.65-.85-.62-.87-1.15-1.78-1.65-2.72-.03-.06-.07-.12-.07-.19,3.99-2.99,7.68-6.32,11.47-9.56,3.31-2.83,6.69-5.6,10.44-7.97,2.84-1.8,5.85-3.35,9.16-4.41.66-.21,1.32-.42,2-.57.05.09.14.08.22.09,1.17.08,2.33.14,3.5.26.68.07,1.36.15,2.03.31.61.14,1.23.24,1.83.4.93.25,1.86.49,2.79.77,1.79.54,3.53,1.21,5.2,2.02,1.46.71,2.85,1.53,4.16,2.47,1.29.93,2.48,1.96,3.54,3.1.06.07.14.12.09.22-.94-.95-1.96-1.81-3.1-2.56-.6-.39-1.21-.78-1.88-1.08-.05-.05-.12-.08-.19-.12-1.08-.51-2.2-.96-3.35-1.32-.34-.1-.68-.2-1.03-.28-1.47-.37-2.95-.62-4.45-.74-.47-.04-.96-.1-1.43-.04-.08-.01-.17-.03-.25-.03-1.01-.02-2.01.05-3,.16-.2.02-.42,0-.6.11-.14-.06-.27,0-.39.02-2.22.36-4.33.98-6.35,1.83-.28.12-.59.2-.82.4-.13,0-.23.06-.34.11-.88.41-1.75.86-2.6,1.32-.43.23-.84.5-1.25.75-.03.01-.06.02-.09.04-2.78,1.72-5.37,3.65-7.86,5.69-.05.04-.1.08-.11.14-.08-.01-.11.04-.16.08-.84.69-1.67,1.39-2.5,2.09-.55.47-1.1.95-1.64,1.42-.06.05-.13.09-.19.14-1.97,1.67-3.91,3.37-5.9,5-1.49,1.21-2.99,2.41-4.56,3.52Z"/><path class="cls-5" d="M469.07,193.07c-1.14.13-2.29.21-3.45.21-1.22,0-2.42-.13-3.62-.33-1.42-.24-2.79-.65-4.12-1.19-1.03-.42-2.02-.91-2.96-1.48-.35-.21-.98-.69-1.07-.76,0,0-.01-.01-.02-.02-.07-.04-.14-.09-.21-.13,0,0-.02-.01-.03-.02-.09-.04-.54-.27-.78-.32-.45-.09-.89-.22-1.31-.42-.19-.09-.21-.03-.23.14-.13,1.33-.26,2.67-.4,4-.02.16.04.22.18.28,1.25.52,2.54.9,3.89,1.1,2.04.3,4.08.47,6.15.42,2.03-.05,4.03-.3,6-.8.73-.18,1.46-.37,2.15-.67-.04-.09-.11-.03-.17-.02Z"/><path class="cls-5" d="M453.73,189.43c1.11.24,2.22.48,3.35.61,0-.1.01-.2.03-.3.52-4.73,1.04-9.46,1.56-14.19,0-.09.02-.18.02-.27-1.19-.13-2.39-.26-3.58-.38-.01.09-.03.18-.04.27-.48,4.64-.96,9.27-1.44,13.91,0,.07.14.38.1.35Z"/><path class="cls-5" d="M543.79,176.07c-.29-.62-.58-1.24-.89-1.86-.36-.71-.75-1.41-1.19-2.09.4-.25.85-.41,1.3-.59,2.4-.94,4.88-1.68,7.5-2.07,1.7-.25,3.42-.39,5.18-.31.06.09.16.09.25.11.7.2,1.38.41,2.06.66.87.32,1.72.66,2.55,1.08,1.12.57,2.19,1.21,3.14,2,.91.75,1.72,1.59,2.51,2.43.38.4.75.8,1.12,1.21-.48-.23-.97-.47-1.45-.7-.1-.1-.25-.11-.37-.16-1.04-.47-2.09-.92-3.19-1.22-.93-.28-1.87-.5-2.82-.66-.84-.14-1.68-.27-2.53-.3-1.32-.11-2.63-.08-3.94.04-.13,0-.25,0-.37.02-2.34.25-4.57.81-6.72,1.59-.72.26-1.42.54-2.13.82Z"/><path class="cls-5" d="M469.23,193.1c-.04-.09-.11-.03-.17-.02-1.14.13-2.29.21-3.45.21-1.22,0-2.42-.13-3.62-.33-1.42-.24-2.79-.65-4.12-1.19-1.03-.42-2.02-.91-2.96-1.48-.41-.25-.8-.55-1.19-.85,1.11.24,2.22.48,3.35.61,1.22.14,2.45.2,3.68.18.53-.01,1.06,0,1.58-.12.29.02.58-.04.87-.08.93-.13,1.85-.29,2.76-.54.02,0,.05,0,.07,0,1.74-.46,3.42-1.08,5.04-1.86,1.17-.56,2.3-1.19,3.41-1.86.29.4.51.85.77,1.27.51.84,1.05,1.65,1.61,2.45-1.68,1.01-3.4,1.92-5.21,2.69-.79.34-1.6.63-2.41.92Z"/><path class="cls-5" d="M458.69,175.28c-1.19-.13-2.39-.26-3.58-.38.06-.09.06-.19.07-.28.65-6.28,1.31-12.57,1.96-18.85,1.3.69,2.47,1.53,3.49,2.53-.01.09-.03.18-.04.27-.6,5.47-1.21,10.95-1.81,16.42-.01.1.01.22-.09.3Z"/><path class="cls-5" d="M562.3,174.56c1.1.31,2.16.75,3.19,1.22.12.06.27.07.37.16-.02.06-.04.11-.06.17-1.47,4.91-2.94,9.81-4.42,14.72,0,.01-.02.03-.03.04-1.17-.35-2.35-.7-3.52-1.05,0-.02,0-.03,0-.05,1.47-5.02,2.95-10.03,4.42-15.05.02-.06.03-.12.04-.18Z"/><path class="cls-5" d="M567.32,176.65c-.37-.4-.74-.81-1.12-1.21-.8-.84-1.61-1.68-2.51-2.43-.95-.79-2.02-1.43-3.14-2-.82-.42-1.68-.76-2.55-1.08-.68-.25-1.37-.47-2.06-.66-.09-.03-.19-.02-.25-.11.69-.03,1.38.05,2.07.11,1.23.1,2.45.31,3.66.59,1.28.29,2.54.64,3.78,1.06.97.33,1.93.7,2.86,1.12.75.34,1.46.72,2.17,1.13.13.08.16.14.12.26-.41,1.35-.82,2.7-1.22,4.04-.03.08-.03.18-.19.09-.54-.31-1.08-.61-1.63-.91Z"/><path class="cls-5" d="M550.08,184.3c.02-.09.04-.18.06-.27.93-3.37,1.86-6.74,2.79-10.11.03-.1.05-.19.07-.29,1.3-.11,2.61-.15,3.94-.04-1.08,3.82-2.17,7.65-3.25,11.47-.02.07-.05.14-.07.22-1.18-.33-2.36-.66-3.54-.99Z"/><path class="cls-5" d="M534.87,170.49c-.08-.02-.11-.09-.16-.14.09.01.16.04.16.14Z"/><path class="cls-5" d="M468.26,171.7c-.04.3-.08.6-.12.9-.35,2.73-.69,5.46-1.04,8.19-.01.08.02.19-.08.25-.6-.07-1.2-.15-1.8-.22-.57-.07-1.15-.15-1.72-.22.02-.1.04-.19.05-.29.6-4.98,1.19-9.95,1.79-14.93.01-.1.03-.19.05-.29.25.38.42.8.61,1.21.81,1.75,1.54,3.52,2.24,5.3.01.03.02.07.03.11Z"/><path class="cls-5" d="M498.59,195.7c.02-.1.04-.19.06-.29.85-4.54,1.7-9.07,2.56-13.61.02-.08.04-.16.05-.24,1.18.22,2.36.45,3.55.68-.01.07-.02.14-.03.2-.82,4.22-1.64,8.44-2.46,12.66-.01.07-.02.15-.04.23-1.15.22-2.31.32-3.48.37-.07,0-.14,0-.21,0Z"/><path class="cls-5" d="M515.61,181.26c-.23,1.09-.46,2.19-.69,3.28-.42,1.97-.84,3.95-1.26,5.92-.02.08-.08.17,0,.26-1.37.8-2.74,1.58-4.19,2.24.42-2.03.84-4.06,1.25-6.08.44-2.12.87-4.23,1.31-6.35,0,0,.01-.01.02-.02,1.19.25,2.38.49,3.57.75Z"/><path class="cls-5" d="M493.77,185.03c.07.1.02.19,0,.29-.55,3.12-1.1,6.25-1.64,9.37-.02.1-.03.2-.04.29-.87-.22-1.73-.48-2.57-.8-.28-.11-.55-.23-.83-.34.02-.09.04-.18.06-.27.5-2.95,1-5.9,1.5-8.85.02-.1.04-.19.01-.29,1.18.2,2.35.4,3.53.61Z"/><path class="cls-5" d="M521.68,185.18c0-.05.01-.11.03-.16.75-3.31,1.49-6.62,2.24-9.93.01-.04.03-.09.04-.13,1.2.27,2.4.54,3.59.82-.26,1.14-.52,2.28-.79,3.43-.2.86-.4,1.72-.6,2.58-.8.6-1.59,1.21-2.39,1.81-.63.48-1.26.95-1.89,1.42-.07.06-.16.1-.24.15Z"/><path class="cls-5" d="M515.61,181.26c-1.19-.25-2.38-.5-3.57-.75.39-1.89.78-3.77,1.17-5.66.7-3.39,1.4-6.78,2.1-10.18.02-.09.05-.18.07-.26.18-.11.4-.09.6-.11.99-.1,1.99-.18,3-.16.08,0,.17.02.25.03,0,.06,0,.12-.02.18-1.2,5.61-2.39,11.21-3.59,16.81,0,.03-.02.06-.02.09Z"/><path class="cls-5" d="M504.8,182.24c-1.18-.23-2.36-.46-3.55-.68.01-.09.03-.18.04-.27.76-4.05,1.52-8.1,2.28-12.14.02-.1.03-.2.05-.29.42-.25.82-.51,1.25-.75.85-.46,1.72-.91,2.6-1.32.11-.05.21-.12.34-.11,0,.06,0,.12-.02.18-.99,5.09-1.98,10.17-2.96,15.26,0,.04-.02.09-.03.13Z"/><path class="cls-5" d="M527.58,175.78c-1.2-.28-2.4-.55-3.59-.82.02-.09.03-.18.05-.27.69-3.05,1.38-6.1,2.07-9.15.02-.1.04-.19.05-.29,1.15.36,2.27.8,3.35,1.32.07.03.14.06.19.12-.15.67-.3,1.34-.46,2-.53,2.29-1.06,4.57-1.59,6.86-.02.08-.04.16-.06.24Z"/><path class="cls-5" d="M493.77,185.03c-1.17-.21-2.35-.41-3.53-.61.1-.63.2-1.26.31-1.89.24-1.41.47-2.82.71-4.23.55-.48,1.09-.95,1.64-1.42.83-.7,1.67-1.39,2.5-2.09.05-.04.09-.09.16-.08,0,.05,0,.11-.02.16-.59,3.35-1.17,6.7-1.76,10.04,0,.04-.02.07-.02.11Z"/><path class="cls-5" d="M463.5,180.6c.57.07,1.15.15,1.72.22.6.08,1.2.15,1.8.22-.34,2.71-.68,5.41-1.02,8.12-.01.11-.02.21-.04.32-.91.25-1.83.4-2.76.54-.29.04-.57.09-.87.08.07-.63.14-1.27.22-1.9.29-2.45.58-4.89.88-7.34.01-.09-.01-.19.06-.26Z"/><path class="cls-5" d="M557.91,189.87c1.17.34,2.34.69,3.51,1.04-.07.07-.09.17-.12.27-1.82,6.05-3.16,10.53-4.98,16.58-1.09-.9-2.04-1.92-2.82-3.08.03-.09.06-.17.08-.26,1.55-5.28,2.64-8.99,4.19-14.27.03-.1.02-.22.14-.28Z"/><path class="cls-5" d="M548.34,190.44c.08-.29.17-.58.25-.88.73-2.65.66-2.4,1.4-5.05.02-.08,0-.19.12-.23.6.16,1.2.33,1.8.5.57.16,1.15.33,1.72.5-.03.09-.07.19-.09.28-1.37,4.82-1.91,6.74-3.28,11.57-.03.09-.06.19-.09.28-.18-.41-.28-.85-.4-1.28-.52-1.85-.97-3.71-1.41-5.57,0-.04,0-.08-.01-.11Z"/><g class="cls-24"><path class="cls-21" d="M278.79,161.32c.44-.4.96-.7,1.44-1.04,1.62-1.14,3.36-2.09,5.25-2.81,1.42-.54,2.88-.97,4.36-1.32,1.21-.28,2.43-.51,3.67-.65,2.83-.32,5.62-.24,8.36.36,2.55.55,4.89,1.51,7.06,2.79.77.46,1.52.93,2.22,1.48.66.46,1.29.95,1.9,1.47.52.45,1.02.91,1.53,1.37,1.54,1.48,2.97,3.05,4.31,4.68,1.82,2.22,3.54,4.5,5.26,6.78.05.06.1.12.19.23-.1-.79-.19-1.51-.29-2.24-.18-1.43-.36-2.86-.54-4.28,1.21-.16,2.42-.31,3.62-.45.01.09.03.18.04.27.48,3.96.96,7.92,1.44,11.89.02.15.07.27.17.39,1.08,1.26,2.27,2.42,3.48,3.55.62.58,1.31,1.09,2,1.58.04.03.07.08.16.05,0-.08-.02-.17-.03-.26-.3-2.71-.61-5.42-.91-8.13-.25-2.26-.5-4.51-.76-6.77,1.21-.13,2.41-.26,3.62-.39.01.1.03.2.04.29.6,5.69,1.21,11.39,1.8,17.09.02.2.08.3.28.38,1,.38,2.02.69,3.07.9.17.03.22.1.24.26.13,1.39.27,2.79.41,4.21-.55-.1-1.07-.22-1.6-.36-3.07-.81-5.98-1.97-8.68-3.63-1.05-.64-2.07-1.33-2.96-2.16-1.81-1.68-3.5-3.45-5.07-5.35-1.82-2.2-3.54-4.48-5.28-6.74-1.8-2.35-3.61-4.7-5.66-6.88-.43-.46-.88-.91-1.32-1.36,0-.06-.03-.1-.07-.14-.96-.88-1.9-1.77-2.98-2.53-.13-.09-.22-.24-.41-.26-.04-.04-.08-.08-.12-.11-.92-.66-1.89-1.26-2.91-1.77-.29-.15-.59-.3-.88-.44-.03-.1-.11-.1-.2-.07-.01,0-.03-.01-.04-.02,0-.11-.09-.13-.17-.17-1.42-.64-2.9-1.13-4.45-1.5-1.56-.36-3.16-.58-4.78-.67-1.85-.1-3.7-.05-5.56.15-.96.1-1.91.24-2.86.37-.62.09-1.23.24-1.84.34-.68.11-1.34.3-1.99.5-1.12.34-2.22.74-3.32,1.11-.08.03-.16.07-.24,0Z"/><path class="cls-21" d="M284.14,201.52c-.77.19-1.55.31-2.33.43-1.9.3-3.8.48-5.73.32-1.75-.15-3.46-.46-5.15-.91-1.05-.28-2.09-.56-3.13-.9-.04-.01-.15.01-.1-.1-2.36-.61-4.59-1.54-6.72-2.67-.14-.08-.3-.14-.41-.26-.35-.11-.62-.35-.93-.53-.91-.56-1.76-1.2-2.58-1.87-.05-.04-.11-.08-.14-.15-.1-.01-.16-.09-.23-.15-1.66-1.38-3.24-2.83-4.76-4.36-2.12-2.12-4.22-4.26-6.38-6.35-2.22-2.16-4.56-4.21-7.18-5.99-1.97-1.34-4.08-2.49-6.39-3.32-2.67-.96-5.49-1.45-8.45-1.39-.32,0-.65.02-.98.04.43,1.4.86,2.78,1.27,4.15.05.16.11.2.3.2.85-.03,1.71-.02,2.55.08,1.48.13,2.89.44,4.23.97,1.09.37,2.09.89,3.05,1.46,1.4.83,2.68,1.8,3.9,2.84.04.03.07.08.11.12.38.25.7.58,1.03.88,1.43,1.29,2.79,2.65,4.14,4.01.03.03.04.06.07.09.48.47.95.94,1.43,1.42,2.5,2.49,4.96,5,7.63,7.32.67.58,1.35,1.14,2.04,1.69.05.04.09.08.13.13.43.26.8.59,1.2.88.79.57,1.61,1.11,2.44,1.64,1.27.75,2.57,1.44,3.94,2.01,2.71,1.12,5.53,1.72,8.49,1.77,1.62.03,3.23-.12,4.83-.38,1.33-.22,2.62-.55,3.91-.94,1.16-.35,2.29-.78,3.39-1.29.62-.29,1.26-.55,1.84-.93-.11.02-.22.03-.33.06Z"/><path class="cls-21" d="M284.47,201.46c-.11.02-.22.03-.33.06-.77.19-1.55.31-2.33.43-1.9.3-3.8.48-5.73.32-1.75-.15-3.46-.46-5.15-.91-1.05-.28-2.09-.56-3.13-.9-.05-.01-.15.01-.1-.1.11.01.22.02.33.04.88.14,1.77.22,2.66.23.3,0,.6,0,.9,0,.9-.02,1.8-.12,2.69-.25.14-.02.28-.04.42-.07,2.03-.35,3.98-.95,5.86-1.78.06-.03.13-.06.19-.09,1.06-.5,2.09-1.04,3.06-1.69.88-.55,1.7-1.18,2.5-1.84,1.16-.96,2.23-2,3.22-3.12,1.08-1.17,2.04-2.42,2.99-3.68.2-.27.4-.55.59-.82,1.25-1.8,2.43-3.64,3.56-5.52.37-.62.77-1.23,1.1-1.88.05-.08.11-.15.16-.23.4-.68.8-1.36,1.19-2.04.5-.86.99-1.73,1.49-2.59.04-.05.08-.1.11-.15.93-1.59,1.88-3.17,2.86-4.74,1.4-2.25,2.9-4.44,4.55-6.56.19.02.28.17.41.26,1.08.76,2.02,1.65,2.98,2.53.04.04.08.08.07.14-.47.55-.87,1.15-1.3,1.73-2.11,2.92-3.93,5.98-5.74,9.04-1.76,2.98-3.48,5.97-5.33,8.88-1.79,2.82-3.7,5.55-5.93,8.06-1.8,2.03-3.76,3.88-5.99,5.45-.92.65-1.86,1.26-2.86,1.78Z"/><path class="cls-21" d="M260.58,197.44c-.35-.11-.62-.35-.93-.53-.91-.56-1.76-1.2-2.58-1.87-.05-.04-.11-.08-.14-.15,2.54-4.3,4.66-8.8,6.92-13.27,1.97-3.89,4.02-7.75,6.57-11.4,1.93-2.76,4.11-5.35,6.75-7.61.53-.45,1.06-.89,1.62-1.3.08.06.16.02.24,0,1.11-.38,2.21-.77,3.32-1.11.65-.2,1.31-.39,1.99-.5.62-.1,1.22-.26,1.84-.34.95-.13,1.91-.26,2.86-.37,1.86-.2,3.71-.25,5.56-.15,1.62.09,3.21.31,4.78.67,1.55.36,3.03.85,4.45,1.5.08.04.18.06.17.17-1.23-.51-2.5-.91-3.83-1.16-.71-.13-1.42-.25-2.15-.26-.07-.03-.14-.03-.22-.03-1.2-.05-2.39-.04-3.59.08-.35.04-.7.08-1.06.14-1.49.22-2.95.57-4.39,1.04-.45.15-.92.27-1.33.51-.08.02-.16.04-.24.07-.94.37-1.83.83-2.71,1.31-.18.1-.39.16-.51.33-.15,0-.25.1-.35.17-1.9,1.19-3.62,2.57-5.15,4.14-.21.22-.46.41-.6.69-.13.04-.19.15-.27.24-.66.72-1.28,1.47-1.89,2.23-.31.38-.58.78-.87,1.17-.02.02-.05.04-.07.07-1.9,2.66-3.55,5.45-5.06,8.29-.03.06-.06.11-.05.17-.08.02-.09.08-.12.14-.5.96-1.01,1.93-1.51,2.89-.33.65-.65,1.3-.97,1.95-.04.07-.09.13-.12.2-1.17,2.3-2.31,4.62-3.53,6.9-.91,1.7-1.83,3.38-2.86,5.02Z"/><path class="cls-21" d="M252.24,207.55c-1.01.57-2.05,1.08-3.12,1.53-1.13.47-2.3.82-3.49,1.1-1.41.33-2.85.48-4.3.51-1.12.02-2.23-.05-3.33-.21-.41-.06-1.18-.25-1.29-.28,0,0-.02,0-.03,0-.08-.01-.17-.03-.25-.04-.01,0-.02,0-.03,0-.1,0-.6-.04-.85.01-.46.09-.92.15-1.38.12-.21-.01-.21.06-.16.22.4,1.28.8,2.56,1.18,3.84.05.16.12.19.27.19,1.37,0,2.71-.16,4.05-.5,2.02-.52,3.98-1.16,5.88-2.01,1.87-.84,3.63-1.85,5.27-3.07.61-.45,1.21-.91,1.74-1.45-.07-.06-.12.01-.16.04Z"/><path class="cls-21" d="M236.57,210.16c1.13-.21,2.25-.42,3.35-.74-.03-.09-.06-.19-.09-.28-1.35-4.56-2.7-9.13-4.05-13.69-.03-.09-.06-.17-.08-.26-1.16.34-2.32.69-3.48,1.04.02.09.04.18.07.26,1.35,4.46,2.7,8.92,4.05,13.39.02.07.27.3.23.29Z"/><path class="cls-21" d="M314.57,162.97c-.51-.46-1.01-.92-1.53-1.37-.6-.52-1.24-1.01-1.9-1.47.27-.39.62-.71.96-1.04,1.83-1.79,3.83-3.43,6.08-4.8,1.46-.89,2.99-1.68,4.62-2.28.09.06.18.02.27,0,.71-.09,1.42-.15,2.14-.18.92-.04,1.83-.06,2.74.01,1.24.09,2.46.27,3.64.64,1.12.35,2.18.8,3.23,1.27.5.22.99.45,1.48.68-.53-.03-1.06-.06-1.6-.08-.13-.05-.27,0-.4,0-1.13-.03-2.26-.04-3.39.1-.95.1-1.9.26-2.83.47-.82.19-1.65.4-2.43.7-1.25.41-2.44.95-3.59,1.55-.11.05-.23.11-.33.16-2.05,1.13-3.87,2.51-5.54,4.06-.56.52-1.09,1.05-1.63,1.58Z"/><path class="cls-21" d="M252.4,207.51c-.07-.06-.12.01-.16.04-1.01.57-2.05,1.08-3.12,1.53-1.13.47-2.3.82-3.49,1.1-1.41.33-2.85.48-4.3.51-1.12.02-2.23-.05-3.33-.21-.48-.07-.95-.19-1.43-.32,1.13-.21,2.25-.42,3.35-.74,1.19-.34,2.35-.77,3.49-1.27.49-.21.98-.42,1.42-.72.28-.1.53-.26.78-.41.81-.48,1.61-.99,2.36-1.57.02-.01.05-.02.06-.03,1.44-1.1,2.76-2.33,3.96-3.67.87-.97,1.67-1.99,2.44-3.04.43.26.8.59,1.2.88.79.57,1.61,1.11,2.44,1.64-1.16,1.58-2.41,3.09-3.79,4.5-.6.62-1.24,1.2-1.88,1.78Z"/><path class="cls-21" d="M235.69,195.18c-1.16.34-2.32.69-3.48,1.04.02-.1-.02-.19-.05-.29-1.83-6.05-3.66-12.09-5.49-18.14,1.48.13,2.89.44,4.23.97.02.09.05.18.07.26,1.56,5.28,3.12,10.56,4.68,15.84.03.1.1.2.04.31Z"/><path class="cls-21" d="M330.94,154.44c1.13-.14,2.26-.14,3.39-.1.13,0,.27-.04.4,0,0,.06,0,.12,0,.18.54,5.09,1.08,10.19,1.62,15.28,0,.01,0,.03,0,.04-1.21.13-2.42.26-3.62.39,0-.01-.01-.03-.02-.04-.58-5.19-1.16-10.39-1.74-15.59,0-.06-.02-.12-.03-.18Z"/><path class="cls-21" d="M336.32,154.43c-.49-.23-.99-.46-1.48-.68-1.05-.47-2.11-.93-3.23-1.27-1.18-.36-2.4-.54-3.64-.64-.91-.07-1.82-.05-2.74-.01-.72.03-1.43.1-2.14.18-.09.01-.18.05-.27,0,.62-.29,1.28-.49,1.94-.7,1.16-.38,2.36-.66,3.57-.87,1.28-.23,2.57-.39,3.87-.48,1.02-.07,2.03-.1,3.05-.07.81.02,1.61.1,2.41.2.15.02.2.07.21.2.14,1.4.29,2.8.44,4.2,0,.09.05.18-.14.16-.61-.08-1.22-.15-1.84-.22Z"/><path class="cls-21" d="M323.5,168.14c-.01-.09-.03-.18-.04-.27-.44-3.47-.89-6.94-1.33-10.4-.01-.1-.03-.2-.05-.29,1.15-.61,2.33-1.15,3.59-1.55.48,3.95.96,7.89,1.44,11.84,0,.08.01.15.02.23-1.21.15-2.42.3-3.62.45Z"/><path class="cls-21" d="M304.24,161.27c-.08,0-.14-.04-.2-.07.09-.02.17-.02.2.07Z"/><path class="cls-21" d="M243.2,188.16c.08.29.16.59.24.88.74,2.65,1.48,5.3,2.21,7.96.02.08.09.16.02.26-.59.16-1.17.33-1.76.5-.56.16-1.13.31-1.69.46-.02-.1-.04-.19-.07-.29-1.37-4.82-2.75-9.64-4.13-14.46-.03-.09-.05-.19-.07-.29.38.25.7.58,1.03.88,1.43,1.29,2.79,2.65,4.14,4.01.03.03.04.06.07.09Z"/><path class="cls-21" d="M280.58,198.54c-.02-.1-.04-.2-.06-.29-.97-4.51-1.94-9.03-2.9-13.54-.02-.08-.03-.16-.04-.25,1.18-.25,2.36-.5,3.54-.74.02.07.03.13.05.2.88,4.21,1.75,8.42,2.63,12.63.02.07.03.15.05.22-.97.65-2.01,1.19-3.06,1.69-.06.03-.13.06-.19.09Z"/><path class="cls-21" d="M290.69,178.64c.21,1.1.42,2.2.63,3.3.38,1.98.75,3.97,1.13,5.95.02.08,0,.19.1.24-.95,1.26-1.91,2.52-2.99,3.68-.4-2.03-.8-4.06-1.2-6.1-.42-2.12-.83-4.24-1.25-6.36,0,0,0-.01,0-.02,1.19-.23,2.38-.46,3.57-.69Z"/><path class="cls-21" d="M272,190.56c.1.06.09.17.11.26.7,3.09,1.41,6.18,2.11,9.28.02.1.05.19.07.29-.89.14-1.79.23-2.69.25-.3,0-.6,0-.9,0-.02-.09-.03-.18-.05-.27-.68-2.91-1.36-5.83-2.04-8.74-.02-.1-.03-.19-.1-.27,1.16-.27,2.33-.54,3.49-.8Z"/><path class="cls-21" d="M297.79,179.91c-.01-.05-.03-.1-.04-.15-.59-3.34-1.18-6.68-1.77-10.02,0-.04-.01-.09-.02-.14,1.21-.21,2.41-.42,3.62-.63.2,1.16.4,2.31.6,3.47.15.87.3,1.74.45,2.61-.5.86-1,1.73-1.49,2.59-.39.68-.79,1.36-1.19,2.04-.05.08-.1.15-.16.23Z"/><path class="cls-21" d="M290.69,178.64c-1.19.23-2.38.45-3.57.69-.37-1.89-.74-3.78-1.11-5.67-.66-3.4-1.33-6.8-1.99-10.2-.02-.09-.03-.18-.04-.27.12-.17.33-.24.51-.33.88-.48,1.77-.94,2.71-1.31.08-.03.16-.05.24-.07.02.06.04.11.05.17,1.06,5.63,2.13,11.26,3.19,16.89,0,.03,0,.06.01.09Z"/><path class="cls-21" d="M281.11,183.71c-1.18.24-2.36.49-3.54.74-.02-.09-.05-.18-.07-.27-.86-4.03-1.73-8.05-2.59-12.08-.02-.1-.05-.19-.07-.29.29-.39.56-.79.87-1.17.61-.76,1.23-1.5,1.89-2.23.08-.09.14-.19.27-.24.02.06.04.11.05.17,1.06,5.07,2.11,10.15,3.16,15.22,0,.04.01.09.02.14Z"/><path class="cls-21" d="M299.59,168.97c-1.21.21-2.41.42-3.62.63-.02-.09-.04-.18-.06-.27-.54-3.08-1.09-6.16-1.63-9.24-.02-.1-.04-.19-.06-.29,1.2-.12,2.39-.13,3.59-.08.08,0,.15,0,.22.03.12.68.24,1.35.35,2.03.39,2.31.79,4.63,1.18,6.94.01.08.02.17.03.25Z"/><path class="cls-21" d="M272,190.56c-1.17.26-2.33.53-3.49.8-.15-.62-.3-1.24-.45-1.86-.33-1.39-.65-2.78-.98-4.17.32-.65.64-1.3.97-1.95.49-.97,1-1.93,1.51-2.89.03-.06.04-.12.12-.14.02.05.03.1.05.15.75,3.31,1.51,6.63,2.26,9.94,0,.04.01.07.02.11Z"/><path class="cls-21" d="M242.22,198.22c.56-.16,1.13-.31,1.69-.46.59-.16,1.17-.33,1.76-.5.73,2.63,1.47,5.26,2.2,7.88.03.1.06.2.09.31-.75.58-1.54,1.08-2.36,1.57-.25.15-.5.31-.78.41-.18-.61-.36-1.23-.53-1.84-.68-2.37-1.35-4.74-2.03-7.1-.02-.08-.08-.17-.04-.26Z"/><path class="cls-21" d="M332.81,170.26c1.2-.14,2.41-.27,3.61-.39-.04.1-.02.19,0,.29.66,6.28,1.15,10.93,1.82,17.21-1.34-.41-2.6-.99-3.76-1.75,0-.09-.01-.18-.02-.27-.61-5.47-1.04-9.31-1.66-14.78-.01-.1-.06-.21.02-.31Z"/><path class="cls-21" d="M324.28,174.47c-.04-.3-.07-.6-.11-.91-.35-2.73-.32-2.47-.66-5.2-.01-.08-.07-.18.02-.26.61-.08,1.23-.16,1.84-.23.59-.07,1.18-.14,1.77-.2,0,.1.01.2.02.3.6,4.98.84,6.96,1.45,11.93.01.1.02.2.02.3-.33-.31-.58-.68-.86-1.03-1.19-1.5-2.31-3.05-3.44-4.59-.02-.03-.04-.07-.05-.1Z"/><path class="cls-21" d="M395.02,149.45c.5-.3,1.07-.5,1.61-.74,1.81-.79,3.69-1.39,5.68-1.72,1.49-.25,3-.38,4.52-.43,1.24-.04,2.48-.02,3.71.09,2.82.24,5.54.88,8.09,2,2.38,1.04,4.49,2.44,6.35,4.13.66.6,1.31,1.22,1.88,1.88.55.58,1.08,1.19,1.56,1.82.42.54.82,1.1,1.22,1.64,1.22,1.75,2.31,3.57,3.3,5.44,1.35,2.53,2.57,5.11,3.81,7.68.03.07.07.14.14.26.06-.79.11-1.52.16-2.25.1-1.43.21-2.87.32-4.31,1.21.09,2.43.18,3.64.27,0,.09,0,.18-.01.27-.31,3.98-.62,7.96-.93,11.94-.01.15.01.28.09.41.81,1.44,1.74,2.82,2.71,4.17.49.69,1.07,1.32,1.65,1.94.03.04.06.1.15.08,0-.08.01-.17.02-.26.24-2.72.47-5.43.71-8.15.2-2.26.4-4.52.59-6.78,1.21.11,2.42.22,3.63.33,0,.1-.01.2-.02.3-.53,5.7-1.06,11.4-1.6,17.11-.02.2.02.31.2.43.9.57,1.84,1.08,2.83,1.49.16.07.2.14.18.31-.15,1.39-.28,2.79-.42,4.21-.52-.2-1.01-.43-1.49-.67-2.85-1.4-5.47-3.11-7.79-5.27-.9-.83-1.76-1.71-2.48-2.7-1.44-2-2.75-4.08-3.91-6.24-1.35-2.51-2.58-5.09-3.84-7.65-1.3-2.66-2.61-5.32-4.19-7.86-.33-.54-.68-1.06-1.02-1.59.01-.06-.01-.1-.05-.15-.76-1.05-1.51-2.11-2.41-3.07-.11-.12-.17-.28-.35-.34-.03-.04-.06-.09-.1-.13-.77-.83-1.6-1.61-2.5-2.31-.26-.2-.51-.4-.77-.61-.01-.1-.09-.12-.18-.11-.01,0-.03-.02-.04-.02.03-.11-.06-.15-.13-.2-1.26-.91-2.61-1.68-4.05-2.34-1.45-.67-2.97-1.19-4.53-1.6-1.78-.46-3.61-.78-5.46-.95-.95-.09-1.91-.15-2.87-.21-.62-.04-1.24,0-1.86-.03-.68-.02-1.37.03-2.04.1-1.16.11-2.31.29-3.46.44-.08.01-.17.03-.23-.04Z"/><path class="cls-21" d="M392.35,189.92c-.78.03-1.57,0-2.35-.03-1.91-.08-3.8-.28-5.64-.82-1.67-.49-3.28-1.13-4.84-1.91-.97-.48-1.93-.97-2.87-1.5-.04-.02-.14-.02-.08-.11-2.18-1.06-4.16-2.42-6.02-3.95-.12-.1-.27-.19-.35-.34-.32-.18-.54-.47-.8-.71-.78-.73-1.48-1.52-2.15-2.34-.04-.05-.09-.1-.1-.18-.1-.03-.14-.12-.2-.19-1.35-1.68-2.6-3.42-3.78-5.21-1.64-2.5-3.27-5.01-4.96-7.49-1.74-2.55-3.61-5.03-5.81-7.29-1.66-1.7-3.48-3.25-5.56-4.52-2.41-1.47-5.05-2.51-7.94-3.05-.31-.06-.63-.1-.96-.16.15,1.46.29,2.89.43,4.32.02.16.07.22.25.25.84.14,1.66.32,2.46.58,1.41.42,2.72,1.01,3.91,1.79.99.58,1.85,1.28,2.68,2.03,1.2,1.09,2.25,2.3,3.23,3.55.03.04.05.09.08.14.32.32.56.7.83,1.06,1.14,1.55,2.2,3.15,3.24,4.76.02.03.03.07.05.1.37.56.74,1.11,1.11,1.67,1.95,2.93,3.84,5.89,5.98,8.68.54.7,1.09,1.39,1.66,2.06.04.05.07.1.1.15.37.34.66.73,1,1.1.66.72,1.35,1.41,2.05,2.09,1.09.99,2.22,1.92,3.45,2.75,2.42,1.63,5.05,2.78,7.92,3.42,1.57.35,3.17.52,4.78.58,1.34.05,2.67-.02,3.99-.15,1.2-.11,2.39-.32,3.56-.59.67-.16,1.34-.29,1.98-.55-.11,0-.22,0-.33,0Z"/><path class="cls-21" d="M392.68,189.92c-.11,0-.22,0-.33,0-.78.03-1.57,0-2.35-.03-1.91-.08-3.8-.28-5.64-.82-1.67-.49-3.28-1.13-4.84-1.91-.97-.48-1.93-.97-2.87-1.5-.04-.02-.14-.02-.08-.11.1.03.21.06.31.1.83.31,1.68.56,2.55.76.29.06.59.12.88.17.88.16,1.77.24,2.67.28.14,0,.28.01.43.02,2.05.06,4.07-.14,6.06-.59.07-.02.14-.03.21-.05,1.13-.28,2.24-.61,3.32-1.05.97-.37,1.89-.82,2.8-1.31,1.32-.71,2.57-1.52,3.75-2.42,1.28-.93,2.46-1.97,3.64-3.02.25-.23.49-.46.73-.69,1.58-1.52,3.09-3.09,4.56-4.71.49-.54.99-1.06,1.44-1.63.07-.07.14-.13.2-.2.52-.59,1.05-1.17,1.57-1.76.66-.75,1.31-1.5,1.97-2.25.05-.04.1-.08.14-.13,1.22-1.38,2.46-2.74,3.73-4.09,1.81-1.93,3.71-3.78,5.74-5.53.18.06.24.22.35.34.9.96,1.65,2.02,2.41,3.07.03.05.06.09.05.15-.57.45-1.08.95-1.61,1.44-2.64,2.44-5.02,5.09-7.39,7.73-2.31,2.57-4.57,5.17-6.96,7.66-2.3,2.41-4.71,4.71-7.38,6.73-2.16,1.63-4.43,3.06-6.92,4.16-1.02.45-2.06.86-3.14,1.18Z"/><path class="cls-21" d="M370.19,181.26c-.32-.18-.54-.47-.8-.71-.78-.73-1.48-1.52-2.15-2.34-.04-.05-.09-.1-.1-.18,3.31-3.72,6.26-7.71,9.33-11.63,2.68-3.42,5.43-6.81,8.63-9.87,2.42-2.32,5.05-4.44,8.07-6.13.6-.34,1.21-.67,1.84-.95.07.07.16.05.23.04,1.15-.15,2.3-.32,3.46-.44.68-.07,1.36-.12,2.04-.1.62.02,1.25,0,1.86.03.96.06,1.91.12,2.87.21,1.85.17,3.67.49,5.46.95,1.56.41,3.08.93,4.53,1.6,1.44.66,2.79,1.43,4.05,2.34.07.05.16.09.13.2-1.1-.74-2.26-1.39-3.52-1.89-.67-.27-1.33-.53-2.04-.68-.06-.04-.13-.06-.21-.08-1.16-.29-2.33-.51-3.52-.63-.35-.03-.7-.06-1.06-.08-1.5-.07-3-.02-4.49.15-.47.05-.95.09-1.4.24-.08,0-.17,0-.25.02-.99.18-1.95.45-2.9.75-.19.06-.41.08-.56.23-.14-.03-.26.05-.38.09-2.09.79-4.03,1.81-5.84,3.04-.25.17-.53.31-.72.55-.13.02-.22.11-.31.18-.78.58-1.54,1.19-2.28,1.81-.37.31-.72.65-1.08.98-.03.02-.05.03-.08.05-2.38,2.23-4.52,4.64-6.56,7.12-.04.05-.08.1-.08.16-.08,0-.1.06-.14.11-.68.85-1.36,1.69-2.04,2.54-.45.57-.88,1.14-1.32,1.72-.05.06-.11.11-.16.17-1.59,2.03-3.15,4.07-4.79,6.06-1.22,1.48-2.45,2.95-3.76,4.35Z"/><path class="cls-21" d="M360.1,189.51c-1.09.36-2.2.66-3.33.88-1.19.24-2.4.35-3.6.39-1.43.05-2.86-.09-4.27-.36-1.09-.2-2.16-.49-3.19-.87-.38-.14-1.1-.48-1.2-.53,0,0-.02,0-.02-.01-.08-.03-.16-.06-.23-.09-.01,0-.02,0-.03-.01-.09-.03-.58-.16-.83-.16-.46,0-.92-.04-1.36-.15-.21-.05-.22.02-.2.18.14,1.33.27,2.67.4,4,.01.16.08.21.23.24,1.33.27,2.67.38,4.03.31,2.06-.11,4.09-.34,6.1-.8,1.98-.45,3.89-1.09,5.72-1.96.68-.32,1.35-.65,1.97-1.08-.06-.08-.12,0-.17,0Z"/><path class="cls-21" d="M344.36,188.96c1.14.02,2.27.04,3.4-.06-.01-.1-.02-.2-.03-.29-.42-4.74-.84-9.48-1.26-14.22,0-.09-.02-.18-.03-.27-1.19.11-2.39.22-3.58.33,0,.09,0,.18.02.27.44,4.64.88,9.28,1.32,13.92,0,.07.21.35.17.33Z"/><path class="cls-21" d="M429.65,158.12c-.41-.55-.8-1.1-1.22-1.64-.49-.63-1.01-1.23-1.56-1.82.34-.33.75-.57,1.15-.83,2.15-1.4,4.42-2.61,6.89-3.51,1.6-.58,3.25-1.06,4.97-1.33.07.08.17.05.26.06.71.06,1.42.13,2.14.24.91.14,1.8.31,2.68.55,1.2.33,2.36.75,3.44,1.34,1.03.56,1.97,1.22,2.91,1.88.44.32.88.64,1.32.96-.52-.13-1.03-.26-1.55-.4-.12-.07-.26-.06-.39-.09-1.1-.26-2.21-.48-3.34-.57-.95-.09-1.91-.12-2.87-.09-.84.03-1.69.07-2.52.2-1.31.15-2.57.45-3.82.82-.12.03-.24.06-.36.1-2.22.71-4.28,1.7-6.22,2.89-.65.4-1.27.81-1.91,1.22Z"/><path class="cls-21" d="M360.26,189.5c-.06-.08-.12,0-.17,0-1.09.36-2.2.66-3.33.88-1.19.24-2.4.35-3.6.39-1.43.05-2.86-.09-4.27-.36-1.09-.2-2.16-.49-3.19-.87-.45-.16-.89-.38-1.33-.6,1.14.02,2.27.04,3.4-.06,1.22-.1,2.44-.28,3.63-.55.51-.11,1.04-.21,1.52-.43.29-.04.56-.15.84-.25.88-.31,1.76-.65,2.6-1.07.02,0,.05,0,.07-.02,1.62-.79,3.14-1.73,4.57-2.81,1.04-.78,2.01-1.62,2.97-2.49.37.34.66.73,1,1.1.66.72,1.35,1.41,2.05,2.09-1.44,1.32-2.95,2.55-4.57,3.66-.71.49-1.44.93-2.18,1.38Z"/><path class="cls-21" d="M346.43,174.11c-1.19.11-2.39.22-3.58.33.04-.1.02-.19,0-.29-.6-6.29-1.2-12.58-1.79-18.87,1.41.42,2.72,1.01,3.91,1.79,0,.09.01.18.02.27.49,5.48.97,10.97,1.46,16.45,0,.1.06.21-.02.31Z"/><path class="cls-21" d="M447.35,152.98c1.13.08,2.24.31,3.34.57.13.03.27.01.39.09,0,.06-.02.12-.03.18-.47,5.1-.95,10.2-1.42,15.3,0,.01-.01.03-.02.04-1.21-.11-2.42-.22-3.63-.33,0-.01,0-.03,0-.05.45-5.21.91-10.42,1.36-15.62,0-.06,0-.12,0-.18Z"/><path class="cls-21" d="M452.63,154.03c-.44-.32-.88-.65-1.32-.96-.94-.67-1.89-1.33-2.91-1.88-1.08-.59-2.24-1-3.44-1.34-.88-.25-1.78-.41-2.68-.55-.71-.11-1.42-.19-2.14-.24-.09,0-.19.02-.26-.06.67-.16,1.35-.22,2.03-.3,1.22-.14,2.44-.18,3.67-.15,1.3.03,2.59.13,3.88.29,1.01.13,2.01.31,3,.53.79.18,1.56.42,2.32.68.14.05.18.11.17.23-.14,1.4-.27,2.8-.4,4.21,0,.09,0,.19-.16.13-.58-.2-1.17-.38-1.76-.57Z"/><path class="cls-21" d="M437.37,164.94c0-.09,0-.18.01-.27.25-3.49.5-6.97.74-10.46,0-.1,0-.2.01-.3,1.25-.37,2.51-.67,3.82-.82-.31,3.96-.62,7.93-.92,11.89,0,.08-.02.15-.03.23-1.21-.09-2.43-.18-3.64-.27Z"/><path class="cls-21" d="M419.88,154.41c-.08,0-.13-.07-.18-.11.09,0,.17,0,.18.11Z"/><path class="cls-21" d="M355.1,168.72c.02.3.04.61.06.91.2,2.75.4,5.49.6,8.24,0,.08.06.18-.03.26-.6.04-1.2.09-1.8.14-.58.04-1.15.08-1.73.12,0-.1,0-.2-.01-.3-.39-5-.79-9.99-1.18-14.99,0-.1,0-.2-.01-.3.32.32.56.7.83,1.06,1.14,1.55,2.2,3.15,3.24,4.76.02.03.03.07.05.1Z"/><path class="cls-21" d="M389.46,186.29c0-.1,0-.2,0-.3-.06-4.62-.12-9.23-.18-13.85,0-.08,0-.17,0-.25,1.2-.01,2.4-.02,3.59-.03,0,.07,0,.14,0,.2.03,4.3.05,8.6.08,12.9,0,.08,0,.15,0,.23-1.08.44-2.19.77-3.32,1.05-.07.02-.14.03-.21.05Z"/><path class="cls-21" d="M403.23,168.78c-.01,1.12-.02,2.24-.03,3.36-.02,2.02-.05,4.04-.07,6.05,0,.09-.05.18.05.26-1.18,1.05-2.36,2.09-3.64,3.02,0-2.07.02-4.14.03-6.21.01-2.16.02-4.32.03-6.48,0,0,0-.01.01-.02,1.21,0,2.41.02,3.62.03Z"/><path class="cls-21" d="M382.66,176.77c.09.08.06.19.06.28.08,3.17.16,6.34.23,9.51,0,.1,0,.2.01.3-.9-.04-1.79-.12-2.67-.28-.29-.05-.59-.11-.88-.17,0-.09,0-.18,0-.27-.09-2.99-.18-5.98-.28-8.97,0-.1,0-.2-.05-.29,1.19-.04,2.37-.07,3.56-.1Z"/><path class="cls-21" d="M409.91,171.42c0-.05,0-.11,0-.16.08-3.39.16-6.78.24-10.18,0-.05,0-.09.01-.14,1.22.03,2.44.06,3.66.1-.03,1.17-.06,2.34-.1,3.52-.02.88-.05,1.77-.08,2.65-.66.75-1.31,1.5-1.97,2.25-.52.59-1.04,1.18-1.57,1.76-.06.07-.13.13-.2.2Z"/><path class="cls-21" d="M403.23,168.78c-1.21-.01-2.41-.02-3.62-.03,0-1.93.02-3.85.03-5.78.02-3.46.04-6.93.06-10.39,0-.09.01-.18.02-.27.15-.14.37-.17.56-.23.95-.3,1.91-.57,2.9-.75.08-.01.17-.01.25-.02,0,.06.02.12.02.18-.07,5.73-.13,11.46-.2,17.19,0,.03,0,.06,0,.09Z"/><path class="cls-21" d="M392.88,171.86c-1.2,0-2.4.02-3.59.03,0-.09-.01-.18-.01-.27-.05-4.12-.1-8.24-.16-12.36,0-.1,0-.2-.01-.3.36-.33.7-.67,1.08-.98.74-.62,1.5-1.23,2.28-1.81.09-.07.18-.16.31-.18,0,.06.02.12.02.18.03,5.18.07,10.36.1,15.55,0,.05,0,.09,0,.14Z"/><path class="cls-21" d="M413.82,161.04c-1.22-.04-2.44-.07-3.66-.1,0-.09,0-.18,0-.27.07-3.13.15-6.25.22-9.38,0-.1,0-.2,0-.3,1.19.12,2.37.34,3.52.63.07.02.15.03.21.08-.02.69-.03,1.37-.05,2.06-.07,2.35-.14,4.69-.21,7.04,0,.08-.01.17-.02.25Z"/><path class="cls-21" d="M382.66,176.77c-1.19.03-2.38.06-3.56.1-.02-.64-.05-1.28-.07-1.91-.05-1.43-.09-2.85-.14-4.28.44-.57.88-1.15,1.32-1.72.67-.85,1.35-1.69,2.04-2.54.04-.05.07-.11.14-.11,0,.05.01.11.02.16.08,3.4.17,6.8.25,10.19,0,.04,0,.08,0,.11Z"/><path class="cls-21" d="M352.19,178.38c.58-.04,1.15-.08,1.73-.12.6-.04,1.2-.09,1.8-.14.2,2.72.4,5.44.6,8.16,0,.11.02.21.03.32-.84.42-1.71.76-2.6,1.07-.27.1-.54.21-.84.25-.05-.64-.11-1.27-.16-1.91-.2-2.46-.39-4.91-.58-7.37,0-.09-.05-.18.01-.26Z"/><path class="cls-21" d="M446.07,168.85c1.21.1,2.41.21,3.61.33-.06.09-.06.19-.06.28-.59,6.29-1.02,10.94-1.61,17.23-1.23-.67-2.35-1.48-3.34-2.45.01-.09.02-.18.03-.27.48-5.49.81-9.33,1.29-14.82,0-.1-.02-.22.08-.3Z"/><path class="cls-21" d="M436.89,171.3c.02-.3.05-.61.07-.91.2-2.75.18-2.48.38-5.23,0-.08-.03-.19.07-.25.62.04,1.23.08,1.85.13.59.05,1.18.1,1.77.15-.01.1-.03.2-.04.29-.39,5-.54,6.99-.93,11.99,0,.1-.02.2-.03.29-.26-.37-.44-.78-.64-1.18-.87-1.71-1.66-3.44-2.46-5.18-.02-.03-.02-.07-.03-.11Z"/><path class="cls-21" d="M511.29,160.74c.56-.2,1.15-.28,1.73-.4,1.94-.42,3.91-.63,5.93-.56,1.52.05,3.03.22,4.54.48,1.23.21,2.45.48,3.64.82,2.74.8,5.29,1.96,7.59,3.57,2.15,1.5,3.95,3.29,5.46,5.31.54.72,1.05,1.45,1.49,2.22.43.68.83,1.38,1.19,2.09.31.61.59,1.24.88,1.86.86,1.96,1.57,3.96,2.19,5.99.83,2.75,1.54,5.52,2.25,8.29.02.08.04.15.08.28.21-.77.41-1.47.6-2.17.39-1.39.77-2.77,1.16-4.16,1.18.33,2.36.66,3.54.99-.02.09-.04.18-.07.27-1.09,3.84-2.18,7.68-3.27,11.52-.04.14-.04.28,0,.42.52,1.58,1.17,3.11,1.85,4.63.35.78.79,1.51,1.25,2.23.03.04.04.11.13.11.02-.08.05-.17.07-.25.77-2.62,1.54-5.23,2.31-7.85.64-2.18,1.28-4.35,1.92-6.53,1.18.35,2.35.7,3.52,1.05-.03.1-.05.19-.08.29-1.65,5.48-3.3,10.97-4.95,16.45-.06.19-.04.31.12.46.78.74,1.61,1.42,2.51,2.03.14.1.17.18.12.34-.42,1.34-.83,2.68-1.25,4.04-.47-.3-.91-.63-1.35-.96-2.54-1.94-4.8-4.15-6.66-6.72-.72-1-1.41-2.03-1.92-3.14-1.03-2.25-1.92-4.55-2.64-6.9-.84-2.74-1.55-5.5-2.29-8.27-.76-2.87-1.53-5.73-2.59-8.54-.22-.59-.46-1.18-.7-1.77.03-.05,0-.1-.02-.15-.55-1.18-1.08-2.37-1.78-3.49-.09-.14-.11-.31-.28-.4-.02-.05-.04-.1-.07-.15-.59-.97-1.26-1.89-2.01-2.77-.21-.25-.43-.5-.64-.75,0-.1-.06-.13-.16-.14-.01-.01-.02-.02-.03-.03.05-.1-.03-.15-.09-.22-1.06-1.14-2.25-2.17-3.54-3.1-1.3-.94-2.7-1.76-4.16-2.47-1.67-.81-3.4-1.48-5.19-2.02-.92-.28-1.85-.52-2.78-.77-.6-.16-1.22-.26-1.83-.4-.67-.16-1.35-.24-2.03-.31-1.16-.12-2.33-.18-3.5-.26-.08,0-.17,0-.22-.09Z"/><path class="cls-21" d="M500.68,199.88c-.78-.12-1.55-.31-2.31-.5-1.86-.46-3.69-1.02-5.39-1.92-1.55-.81-3.01-1.76-4.39-2.83-.86-.66-1.71-1.33-2.53-2.04-.04-.03-.14-.05-.06-.13-1.94-1.47-3.62-3.19-5.14-5.06-.1-.12-.22-.24-.28-.4-.28-.24-.44-.56-.65-.85-.62-.87-1.15-1.79-1.65-2.72-.03-.06-.07-.12-.07-.19-.09-.05-.11-.15-.16-.23-.99-1.91-1.88-3.87-2.69-5.86-1.12-2.77-2.23-5.56-3.4-8.32-1.2-2.85-2.55-5.65-4.26-8.29-1.29-1.99-2.77-3.87-4.57-5.53-2.07-1.92-4.46-3.46-7.18-4.55-.3-.12-.6-.23-.91-.34-.14,1.46-.28,2.89-.43,4.32-.02.16.03.23.2.3.79.3,1.57.64,2.3,1.05,1.3.69,2.47,1.53,3.49,2.53.85.76,1.56,1.62,2.23,2.52.97,1.3,1.75,2.7,2.47,4.12.02.05.03.1.05.15.25.38.42.8.6,1.21.81,1.75,1.53,3.52,2.24,5.3.01.03.02.07.03.11.26.62.51,1.24.76,1.86,1.33,3.26,2.61,6.53,4.17,9.69.39.79.79,1.57,1.22,2.35.03.05.05.11.07.17.29.4.51.85.77,1.27.51.84,1.05,1.65,1.61,2.45.87,1.18,1.8,2.32,2.85,3.37,2.06,2.08,4.41,3.73,7.11,4.91,1.48.65,3.02,1.14,4.59,1.51,1.31.31,2.63.51,3.96.65,1.2.13,2.41.16,3.62.12.69-.02,1.38-.02,2.05-.15-.11-.02-.21-.05-.32-.07Z"/><path class="cls-21" d="M501,199.95c-.11-.02-.21-.05-.32-.07-.78-.12-1.55-.31-2.31-.5-1.86-.46-3.68-1.02-5.39-1.92-1.55-.81-3.01-1.76-4.39-2.83-.86-.66-1.71-1.33-2.53-2.04-.04-.03-.14-.05-.06-.13.1.05.19.1.29.16.75.47,1.54.88,2.36,1.24.28.11.55.23.83.34.84.33,1.7.59,2.57.81.14.03.28.07.42.1,2,.46,4.03.66,6.08.62.07,0,.14,0,.21,0,1.17-.05,2.33-.15,3.47-.37,1.02-.17,2.02-.43,3.01-.73,1.44-.43,2.83-.98,4.18-1.63,1.45-.66,2.82-1.44,4.18-2.24.29-.18.58-.35.86-.53,1.85-1.17,3.65-2.42,5.42-3.71.59-.43,1.19-.84,1.74-1.31.08-.05.16-.1.24-.15.63-.47,1.26-.94,1.89-1.42.8-.6,1.59-1.21,2.39-1.81.05-.03.11-.06.16-.1,1.47-1.11,2.97-2.2,4.48-3.26,2.17-1.53,4.41-2.97,6.76-4.28.17.09.2.26.28.4.7,1.12,1.23,2.31,1.78,3.49.02.05.04.1.02.15-.65.32-1.25.72-1.87,1.09-3.09,1.87-5.96,3.99-8.82,6.11-2.78,2.06-5.53,4.16-8.37,6.13-2.75,1.9-5.57,3.68-8.6,5.13-2.45,1.17-4.97,2.13-7.64,2.71-1.1.24-2.2.44-3.33.53Z"/><path class="cls-21" d="M480.58,187.01c-.28-.24-.44-.56-.65-.85-.62-.87-1.15-1.79-1.65-2.72-.03-.06-.07-.12-.07-.19,3.99-2.99,7.68-6.32,11.47-9.56,3.31-2.83,6.69-5.6,10.44-7.97,2.84-1.8,5.85-3.35,9.16-4.41.66-.21,1.32-.42,2-.57.05.08.14.08.22.09,1.17.08,2.33.14,3.5.26.68.07,1.36.15,2.03.31.61.14,1.23.24,1.83.4.93.25,1.86.49,2.78.77,1.79.54,3.52,1.21,5.19,2.02,1.46.71,2.85,1.53,4.16,2.47,1.29.93,2.47,1.96,3.54,3.1.06.07.14.12.09.22-.94-.95-1.96-1.81-3.1-2.56-.6-.39-1.21-.78-1.88-1.08-.05-.05-.12-.08-.19-.12-1.08-.51-2.2-.96-3.35-1.32-.34-.1-.68-.2-1.03-.28-1.46-.37-2.95-.62-4.45-.74-.48-.04-.95-.1-1.43-.04-.08-.01-.17-.03-.25-.03-1.01-.02-2.01.05-3,.16-.2.02-.42,0-.6.11-.14-.06-.27,0-.39.02-2.22.36-4.33.98-6.35,1.83-.28.12-.59.2-.82.4-.13,0-.23.06-.34.11-.88.41-1.75.86-2.6,1.32-.43.23-.84.5-1.25.75-.03.01-.06.02-.09.04-2.78,1.72-5.37,3.65-7.86,5.69-.05.04-.1.08-.11.14-.08,0-.11.04-.16.08-.84.69-1.67,1.39-2.5,2.09-.55.47-1.1.95-1.64,1.42-.06.05-.13.09-.19.14-1.97,1.67-3.91,3.37-5.9,5-1.49,1.21-2.99,2.41-4.56,3.52Z"/><path class="cls-21" d="M469.04,193.11c-1.15.14-2.29.21-3.45.21-1.22,0-2.42-.13-3.61-.33-1.42-.24-2.79-.65-4.12-1.19-1.03-.42-2.02-.91-2.96-1.48-.35-.21-.98-.69-1.07-.76,0,0-.01-.01-.02-.02-.07-.04-.14-.09-.21-.13,0,0-.02-.01-.03-.02-.09-.04-.54-.27-.78-.32-.45-.09-.89-.22-1.3-.42-.19-.09-.21-.03-.23.14-.13,1.33-.26,2.67-.4,4-.02.16.03.22.18.28,1.25.52,2.54.9,3.89,1.1,2.04.3,4.08.47,6.15.42,2.03-.05,4.03-.3,6-.79.73-.18,1.46-.37,2.15-.67-.04-.09-.11-.03-.17-.03Z"/><path class="cls-21" d="M453.71,189.47c1.11.24,2.22.48,3.34.61,0-.1.01-.2.03-.3.52-4.73,1.04-9.46,1.57-14.19,0-.09.02-.18.02-.27-1.19-.13-2.38-.26-3.58-.38-.01.09-.03.18-.04.27-.48,4.64-.96,9.27-1.45,13.91,0,.07.14.38.1.35Z"/><path class="cls-21" d="M543.74,176.12c-.29-.62-.58-1.24-.88-1.86-.36-.71-.75-1.41-1.19-2.09.4-.25.85-.41,1.3-.59,2.4-.94,4.88-1.68,7.5-2.06,1.7-.25,3.42-.39,5.18-.31.06.09.16.09.25.11.7.2,1.38.41,2.06.66.87.32,1.72.66,2.55,1.08,1.12.57,2.19,1.21,3.14,2,.91.75,1.71,1.59,2.51,2.43.38.4.74.8,1.12,1.21-.48-.23-.97-.47-1.45-.7-.1-.1-.25-.11-.37-.16-1.04-.47-2.09-.92-3.19-1.23-.93-.28-1.87-.5-2.82-.66-.84-.14-1.68-.27-2.53-.3-1.32-.11-2.63-.08-3.94.04-.12,0-.25,0-.37.02-2.34.25-4.57.81-6.72,1.59-.72.26-1.42.54-2.13.82Z"/><path class="cls-21" d="M469.21,193.13c-.04-.09-.11-.03-.17-.03-1.15.14-2.29.21-3.45.21-1.22,0-2.42-.13-3.61-.33-1.42-.24-2.79-.65-4.12-1.19-1.03-.42-2.02-.91-2.96-1.48-.41-.25-.8-.55-1.19-.85,1.11.24,2.22.48,3.34.61,1.22.14,2.45.2,3.67.18.53-.01,1.06,0,1.58-.12.29.02.58-.04.87-.08.93-.13,1.85-.29,2.76-.53.02,0,.05,0,.07,0,1.74-.46,3.42-1.08,5.04-1.86,1.17-.56,2.3-1.19,3.41-1.86.29.4.51.85.77,1.27.51.84,1.05,1.65,1.61,2.45-1.68,1.01-3.4,1.92-5.21,2.69-.79.34-1.6.63-2.41.92Z"/><path class="cls-21" d="M458.67,175.31c-1.19-.13-2.38-.26-3.58-.38.06-.09.06-.19.07-.28.65-6.28,1.31-12.57,1.96-18.85,1.3.69,2.47,1.53,3.49,2.53-.01.09-.03.18-.04.27-.6,5.47-1.21,10.94-1.81,16.42-.01.1.01.22-.09.3Z"/><path class="cls-21" d="M562.25,174.62c1.1.31,2.15.75,3.19,1.23.12.06.27.07.37.16-.02.06-.04.11-.06.17-1.47,4.91-2.95,9.81-4.42,14.72,0,.01-.02.03-.03.04-1.17-.35-2.35-.71-3.52-1.05,0-.02,0-.03,0-.05,1.48-5.02,2.95-10.03,4.43-15.05.02-.06.03-.12.04-.18Z"/><path class="cls-21" d="M567.26,176.71c-.37-.4-.74-.81-1.12-1.21-.8-.84-1.61-1.68-2.51-2.43-.95-.79-2.02-1.44-3.14-2-.82-.42-1.68-.76-2.55-1.08-.68-.25-1.37-.47-2.06-.66-.09-.02-.19-.02-.25-.11.69-.03,1.38.05,2.07.11,1.23.1,2.45.31,3.66.59,1.28.29,2.54.64,3.78,1.07.97.33,1.93.7,2.86,1.12.74.34,1.46.72,2.17,1.13.13.08.16.14.12.26-.41,1.35-.82,2.7-1.23,4.04-.03.08-.03.18-.19.09-.54-.31-1.08-.61-1.63-.91Z"/><path class="cls-21" d="M550.02,184.35c.02-.09.04-.18.06-.27.93-3.37,1.87-6.74,2.8-10.11.03-.1.05-.19.07-.29,1.3-.11,2.61-.15,3.94-.04-1.09,3.82-2.17,7.65-3.26,11.47-.02.07-.05.14-.07.22-1.18-.33-2.36-.66-3.54-.99Z"/><path class="cls-21" d="M534.82,170.54c-.08-.03-.11-.09-.16-.14.09.01.16.04.16.14Z"/><path class="cls-21" d="M468.23,171.74c-.04.3-.08.6-.12.9-.35,2.73-.69,5.46-1.04,8.19-.01.08.02.19-.08.25-.6-.07-1.2-.15-1.8-.22-.57-.07-1.15-.15-1.72-.22.02-.1.04-.19.05-.29.6-4.98,1.19-9.95,1.79-14.93.01-.1.03-.19.05-.29.25.38.42.8.6,1.21.81,1.75,1.53,3.52,2.24,5.3.01.03.02.07.03.11Z"/><path class="cls-21" d="M498.55,195.75c.02-.1.04-.19.06-.29.85-4.54,1.71-9.07,2.56-13.61.02-.08.04-.16.05-.24,1.18.22,2.36.45,3.54.68-.01.07-.02.13-.03.2-.82,4.22-1.64,8.44-2.46,12.66-.01.07-.02.15-.04.23-1.15.22-2.31.32-3.47.37-.07,0-.14,0-.21,0Z"/><path class="cls-21" d="M515.57,181.31c-.23,1.09-.46,2.19-.7,3.28-.42,1.97-.84,3.95-1.26,5.92-.02.08-.08.17,0,.26-1.37.8-2.74,1.58-4.19,2.24.42-2.03.84-4.06,1.25-6.08.44-2.12.87-4.23,1.31-6.35,0,0,0-.01.02-.02,1.19.25,2.38.49,3.56.75Z"/><path class="cls-21" d="M493.73,185.07c.07.1.02.19,0,.29-.55,3.12-1.1,6.25-1.64,9.37-.02.1-.03.2-.04.29-.87-.22-1.73-.48-2.57-.81-.28-.11-.55-.23-.83-.34.02-.09.04-.18.06-.27.5-2.95,1-5.9,1.5-8.85.02-.1.04-.19.01-.29,1.17.2,2.35.4,3.52.61Z"/><path class="cls-21" d="M521.63,185.23c0-.05.01-.11.03-.16.75-3.31,1.5-6.62,2.24-9.93.01-.04.03-.09.04-.13,1.2.27,2.4.55,3.59.82-.26,1.14-.53,2.28-.79,3.43-.2.86-.4,1.72-.6,2.58-.8.6-1.59,1.21-2.39,1.81-.63.48-1.26.95-1.89,1.42-.07.06-.16.1-.24.15Z"/><path class="cls-21" d="M515.57,181.31c-1.19-.25-2.38-.5-3.56-.75.39-1.89.78-3.77,1.17-5.66.7-3.39,1.4-6.78,2.11-10.18.02-.09.05-.18.07-.26.18-.11.4-.09.6-.11.99-.1,1.99-.18,3-.16.08,0,.17.02.25.03,0,.06,0,.12-.02.18-1.2,5.6-2.39,11.21-3.59,16.81,0,.03-.02.06-.02.09Z"/><path class="cls-21" d="M504.76,182.28c-1.18-.23-2.36-.46-3.54-.68.01-.09.03-.18.04-.27.76-4.05,1.52-8.1,2.28-12.14.02-.1.03-.2.05-.29.42-.25.82-.51,1.25-.75.85-.46,1.72-.91,2.6-1.32.11-.05.21-.12.34-.11,0,.06,0,.12-.02.18-.99,5.09-1.98,10.17-2.97,15.26,0,.04-.02.09-.03.13Z"/><path class="cls-21" d="M527.53,175.84c-1.2-.28-2.39-.55-3.59-.82.02-.09.03-.18.05-.27.69-3.05,1.38-6.1,2.07-9.15.02-.1.04-.19.05-.29,1.15.36,2.27.81,3.35,1.32.07.03.14.06.19.12-.15.67-.3,1.34-.46,2-.53,2.28-1.06,4.57-1.6,6.86-.02.08-.04.16-.06.24Z"/><path class="cls-21" d="M493.73,185.07c-1.17-.21-2.35-.41-3.52-.61.1-.63.2-1.26.31-1.89.24-1.41.47-2.82.71-4.22.55-.48,1.09-.95,1.64-1.42.83-.7,1.67-1.39,2.5-2.09.05-.04.09-.09.16-.08,0,.05,0,.11-.02.16-.59,3.35-1.18,6.7-1.76,10.04,0,.04-.02.07-.02.11Z"/><path class="cls-21" d="M463.47,180.64c.57.07,1.15.15,1.72.22.6.08,1.2.15,1.8.22-.34,2.71-.68,5.41-1.02,8.12-.01.11-.02.21-.04.32-.91.25-1.83.4-2.76.53-.29.04-.57.1-.87.08.07-.63.15-1.27.22-1.9.29-2.45.59-4.89.88-7.34.01-.09-.01-.18.06-.26Z"/><path class="cls-21" d="M557.85,189.93c1.17.34,2.34.69,3.51,1.04-.07.07-.09.17-.12.27-1.82,6.05-3.17,10.52-4.99,16.57-1.09-.9-2.03-1.92-2.82-3.08.03-.09.06-.17.08-.26,1.55-5.28,2.64-8.99,4.2-14.27.03-.1.02-.22.14-.28Z"/><path class="cls-21" d="M548.29,190.49c.08-.29.17-.58.25-.88.74-2.65.66-2.4,1.4-5.05.02-.08,0-.19.12-.23.6.16,1.2.33,1.8.5.57.16,1.15.33,1.72.5-.03.09-.07.19-.09.28-1.37,4.82-1.91,6.74-3.28,11.56-.03.1-.06.19-.09.28-.18-.41-.28-.85-.4-1.28-.52-1.85-.96-3.71-1.41-5.57,0-.04,0-.07-.01-.11Z"/></g></g><g id="screen-3"><rect class="cls-8" x="409.29" y="11.58" width="260.68" height="148.75" rx="2.06" ry="2.06" transform="translate(1079.26 171.9) rotate(180)"/><rect class="cls-19" x="409.29" y="11.58" width="260.68" height="148.75" rx="2.06" ry="2.06" transform="translate(1079.26 171.9) rotate(180)"/><polygon class="cls-18" points="512.68 11.58 461.62 11.58 560.99 160.33 639.97 160.33 512.68 11.58"/><rect class="cls-19" x="409.29" y="11.58" width="260.68" height="148.75" rx="2.06" ry="2.06" transform="translate(1079.26 171.9) rotate(180)"/></g><g id="monitor"><path class="cls-7" d="M529.87,207.66h27.91c-1.23-3.48-1.86-7.14-1.86-10.83v-30.15h-24.16v30.15c0,3.69-.63,7.35-1.86,10.83h-.03Z"/><path class="cls-7" d="M590.82,221.5l-19.64-12.94c-.91-.6-1.97-.91-3.06-.9h-49.85c-1.46,0-2.85.58-3.88,1.61l-12.26,12.25"/><rect class="cls-7" x="501.02" y="221.1" width="90.92" height="4.95" rx="2.48" ry="2.48" transform="translate(1092.96 447.15) rotate(180)"/><path class="cls-7" d="M405.28,171.91h269.54c2.84,0,5.13-2.3,5.13-5.13h0V7.12c0-2.84-3.74-6.96-6.55-6.96h-266.73c-2.82,0-6.55,4.11-6.55,6.96v159.65c0,2.83,2.29,5.13,5.12,5.13.01,0,.02,0,.04,0Z"/><rect class="cls-7" x="400.13" y="1.99" width="279.83" height="169.93" rx="5.69" ry="5.69" transform="translate(1080.08 173.91) rotate(180)"/><rect class="cls-7" x="532.19" y="172.36" width="23.24" height="2.92" transform="translate(1087.63 347.65) rotate(180)"/><rect class="cls-7" x="409.95" y="12" width="260.01" height="148.08" rx="5.69" ry="5.69" transform="translate(1079.92 172.08) rotate(180)"/></g><g id="screen-4"><rect class="cls-7" x="409.95" y="12" width="260.01" height="148.08" rx="5.69" ry="5.69" transform="translate(1079.92 172.08) rotate(180)"/><rect class="cls-7" x="409.95" y="12" width="260.01" height="146.5" rx="5.69" ry="5.69" transform="translate(1079.92 170.49) rotate(180)"/></g><g class="cls-16"><g class="cls-23"><path class="cls-11" d="M425.43,89.29c.27.69.55,1.08.84,1.08,3.03,0,3.49-42.31,5.91-42.22,2.39.09,3.73,41.83,7.22,42.22.33.04.65-.29.96-.92"/><path class="cls-11" d="M438.88,89.34c.27.66.55,1.03.84,1.03,3.03,0,3.49-40.36,5.91-40.27,2.39.09,3.73,39.9,7.22,40.27.33.04.65-.28.96-.88"/><path class="cls-11" d="M452.22,89.34c.27.66.55,1.03.84,1.03,3.03,0,3.49-40.36,5.91-40.27,2.39.09,3.73,39.9,7.22,40.27.33.04.65-.28.96-.88"/><path class="cls-11" d="M465.57,89.11c.27.81.55,1.26.84,1.26,3.03,0,3.49-49.31,5.91-49.2,2.39.11,3.73,48.74,7.22,49.2.33.04.65-.34.96-1.08"/><path class="cls-11" d="M478.91,89.18c.27.77.55,1.2.84,1.2,3.03,0,3.49-46.87,5.91-46.77,2.39.1,3.73,46.34,7.22,46.77.33.04.65-.33.96-1.02"/><path class="cls-11" d="M492.25,89.11c.27.81.55,1.26.84,1.26,3.03,0,3.49-49.31,5.91-49.2,2.39.11,3.73,48.74,7.22,49.2.33.04.65-.34.96-1.08"/><path class="cls-11" d="M432.64,88.95c.27.81.55,1.26.84,1.26,3.03,0,3.49-49.31,5.91-49.2,2.39.11,3.73,48.74,7.22,49.2.33.04.65-.34.96-1.08"/><path class="cls-11" d="M445.66,89.27c.27.63.55.98.84.98,3.03,0,3.49-38.36,5.91-38.28,2.39.08,3.73,37.93,7.22,38.28.33.03.65-.27.96-.84"/><path class="cls-11" d="M458.68,89.07c.27.74.55,1.15.84,1.15,3.03,0,3.49-45.25,5.91-45.15,2.39.1,3.73,44.74,7.22,45.15.33.04.65-.31.96-.99"/><path class="cls-11" d="M471.25,88.88c.29.86.59,1.33.89,1.33,3.21,0,3.7-52.23,6.26-52.12,2.53.11,3.95,51.64,7.65,52.12.35.05.69-.36,1.01-1.14"/><path class="cls-11" d="M484.71,89.36c.27.56.55.86.84.86,3.03,0,3.49-33.86,5.91-33.78,2.39.07,3.73,33.47,7.22,33.78.33.03.65-.24.96-.74"/></g><rect class="cls-20" x="420.83" y="33.46" width="90.69" height="46.28"/></g><rect class="cls-4" x="420.83" y="33.46" width="90.69" height="46.28" rx="3.18" ry="3.18"/><circle class="cls-14" cx="535.24" cy="96.35" r="1.48"/><circle class="cls-14" cx="540.09" cy="96.76" r="1.48"/><circle class="cls-14" cx="536.01" cy="101.1" r="1.48"/><circle class="cls-14" cx="548.59" cy="95.07" r="1.48"/><circle class="cls-14" cx="547.2" cy="101.43" r="1.48"/><circle class="cls-14" cx="543.35" cy="93.12" r="1.48"/><circle class="cls-14" cx="543.21" cy="98.24" r="1.48"/><circle class="cls-14" cx="553.94" cy="97.49" r="1.48"/><circle class="cls-14" cx="552.3" cy="93.21" r="1.48"/><circle class="cls-14" cx="551.17" cy="97.74" r="1.48"/><circle class="cls-14" cx="554.3" cy="107.53" r="1.48"/><circle class="cls-14" cx="549.49" cy="108.23" r="1.48"/><circle class="cls-14" cx="552.47" cy="103.07" r="1.48"/><circle class="cls-14" cx="541.6" cy="111.82" r="1.48"/><circle class="cls-14" cx="541.49" cy="105.31" r="1.48"/><circle class="cls-14" cx="547.14" cy="112.52" r="1.48"/><circle class="cls-14" cx="546.11" cy="107.51" r="1.48"/><circle class="cls-14" cx="535.84" cy="110.69" r="1.48"/><circle class="cls-14" cx="538.41" cy="114.48" r="1.48"/><circle class="cls-14" cx="538.47" cy="109.81" r="1.48"/><polyline class="cls-2" points="658.25 143.8 522 143.8 522 47.53"/><circle class="cls-26" cx="587.63" cy="116.9" r="1.48"/><circle class="cls-26" cx="592.48" cy="117.31" r="1.48"/><circle class="cls-26" cx="588.4" cy="121.65" r="1.48"/><circle class="cls-26" cx="600.98" cy="115.62" r="1.48"/><circle class="cls-26" cx="599.6" cy="121.98" r="1.48"/><circle class="cls-26" cx="595.75" cy="113.67" r="1.48"/><circle class="cls-26" cx="595.6" cy="118.79" r="1.48"/><circle class="cls-26" cx="606.33" cy="118.03" r="1.48"/><circle class="cls-26" cx="604.69" cy="113.76" r="1.48"/><circle class="cls-26" cx="603.56" cy="118.29" r="1.48"/><circle class="cls-26" cx="606.69" cy="128.07" r="1.48"/><circle class="cls-26" cx="601.88" cy="128.78" r="1.48"/><circle class="cls-26" cx="604.86" cy="123.62" r="1.48"/><circle class="cls-26" cx="593.99" cy="132.37" r="1.48"/><circle class="cls-26" cx="593.88" cy="125.86" r="1.48"/><circle class="cls-26" cx="599.53" cy="133.07" r="1.48"/><circle class="cls-26" cx="598.5" cy="128.06" r="1.48"/><circle class="cls-26" cx="588.23" cy="131.24" r="1.48"/><circle class="cls-26" cx="590.8" cy="135.03" r="1.48"/><circle class="cls-26" cx="590.86" cy="130.36" r="1.48"/><circle class="cls-26" cx="581.89" cy="110.25" r="1.48"/><circle class="cls-26" cx="582.16" cy="115.11" r="1.48"/><circle class="cls-26" cx="577.29" cy="111.67" r="1.48"/><circle class="cls-26" cx="585.03" cy="123.28" r="1.48"/><circle class="cls-26" cx="578.54" cy="122.81" r="1.48"/><circle class="cls-26" cx="586.22" cy="117.82" r="1.48"/><circle class="cls-26" cx="581.14" cy="118.41" r="1.48"/><circle class="cls-26" cx="583.39" cy="128.92" r="1.48"/><circle class="cls-26" cx="587.39" cy="126.69" r="1.48"/><circle class="cls-26" cx="582.75" cy="126.22" r="1.48"/><circle class="cls-26" cx="573.5" cy="130.69" r="1.48"/><circle class="cls-26" cx="572.12" cy="126.02" r="1.48"/><circle class="cls-26" cx="577.66" cy="128.25" r="1.48"/><circle class="cls-26" cx="567.46" cy="118.72" r="1.48"/><circle class="cls-26" cx="573.89" cy="117.7" r="1.48"/><circle class="cls-26" cx="567.55" cy="124.31" r="1.48"/><circle class="cls-26" cx="572.37" cy="122.58" r="1.48"/><circle class="cls-26" cx="567.77" cy="112.86" r="1.48"/><circle class="cls-26" cx="564.38" cy="115.94" r="1.48"/><circle class="cls-26" cx="569.01" cy="115.34" r="1.48"/><circle class="cls-12" cx="590.13" cy="62.74" r="1.48"/><circle class="cls-12" cx="594.98" cy="63.15" r="1.48"/><circle class="cls-12" cx="590.89" cy="67.5" r="1.48"/><circle class="cls-12" cx="603.48" cy="61.46" r="1.48"/><circle class="cls-12" cx="602.09" cy="67.83" r="1.48"/><circle class="cls-12" cx="598.24" cy="59.52" r="1.48"/><circle class="cls-12" cx="598.1" cy="64.63" r="1.48"/><circle class="cls-12" cx="608.83" cy="63.88" r="1.48"/><circle class="cls-12" cx="607.19" cy="59.61" r="1.48"/><circle class="cls-12" cx="606.06" cy="64.14" r="1.48"/><circle class="cls-12" cx="609.19" cy="73.92" r="1.48"/><circle class="cls-12" cx="604.37" cy="74.63" r="1.48"/><circle class="cls-12" cx="607.36" cy="69.47" r="1.48"/><circle class="cls-12" cx="596.49" cy="78.22" r="1.48"/><circle class="cls-12" cx="596.38" cy="71.71" r="1.48"/><circle class="cls-12" cx="602.03" cy="78.92" r="1.48"/><circle class="cls-12" cx="601" cy="73.9" r="1.48"/><circle class="cls-12" cx="590.72" cy="77.09" r="1.48"/><circle class="cls-12" cx="593.3" cy="80.87" r="1.48"/><circle class="cls-12" cx="593.36" cy="76.2" r="1.48"/><circle class="cls-12" cx="584.38" cy="56.1" r="1.48"/><circle class="cls-12" cx="584.66" cy="60.95" r="1.48"/><circle class="cls-12" cx="579.78" cy="57.52" r="1.48"/><circle class="cls-12" cx="587.53" cy="69.13" r="1.48"/><circle class="cls-12" cx="581.04" cy="68.65" r="1.48"/><circle class="cls-12" cx="588.72" cy="63.67" r="1.48"/><circle class="cls-12" cx="583.64" cy="64.25" r="1.48"/><circle class="cls-12" cx="585.89" cy="74.77" r="1.48"/><circle class="cls-12" cx="589.89" cy="72.54" r="1.48"/><circle class="cls-12" cx="585.24" cy="72.06" r="1.48"/><circle class="cls-12" cx="576" cy="76.54" r="1.48"/><circle class="cls-12" cx="574.62" cy="71.87" r="1.48"/><circle class="cls-12" cx="580.15" cy="74.1" r="1.48"/><circle class="cls-12" cx="569.96" cy="64.57" r="1.48"/><circle class="cls-12" cx="576.39" cy="63.55" r="1.48"/><circle class="cls-12" cx="570.05" cy="70.15" r="1.48"/><circle class="cls-12" cx="574.86" cy="68.42" r="1.48"/><circle class="cls-12" cx="570.26" cy="58.7" r="1.48"/><circle class="cls-12" cx="566.88" cy="61.79" r="1.48"/><circle class="cls-12" cx="571.51" cy="61.19" r="1.48"/><circle class="cls-12" cx="591.25" cy="85.15" r="1.48"/><circle class="cls-12" cx="596.1" cy="85.56" r="1.48"/><circle class="cls-12" cx="592.01" cy="89.9" r="1.48"/><circle class="cls-12" cx="604.6" cy="83.87" r="1.48"/><circle class="cls-12" cx="603.21" cy="90.23" r="1.48"/><circle class="cls-12" cx="599.36" cy="81.92" r="1.48"/><circle class="cls-12" cx="599.22" cy="87.04" r="1.48"/><circle class="cls-12" cx="609.95" cy="86.28" r="1.48"/><circle class="cls-12" cx="608.31" cy="82.01" r="1.48"/><circle class="cls-12" cx="607.18" cy="86.54" r="1.48"/><circle class="cls-12" cx="610.31" cy="96.32" r="1.48"/><circle class="cls-12" cx="605.49" cy="97.03" r="1.48"/><circle class="cls-12" cx="608.48" cy="91.87" r="1.48"/><circle class="cls-12" cx="597.61" cy="100.62" r="1.48"/><circle class="cls-12" cx="597.5" cy="94.11" r="1.48"/><circle class="cls-12" cx="603.15" cy="101.32" r="1.48"/><circle class="cls-12" cx="602.12" cy="96.31" r="1.48"/><circle class="cls-12" cx="591.84" cy="99.49" r="1.48"/><circle class="cls-12" cx="594.42" cy="103.28" r="1.48"/><circle class="cls-12" cx="594.48" cy="98.61" r="1.48"/><circle class="cls-12" cx="585.5" cy="78.5" r="1.48"/><circle class="cls-12" cx="585.78" cy="83.36" r="1.48"/><circle class="cls-12" cx="580.9" cy="79.93" r="1.48"/><circle class="cls-12" cx="588.65" cy="91.53" r="1.48"/><circle class="cls-12" cx="582.16" cy="91.06" r="1.48"/><circle class="cls-12" cx="589.84" cy="86.07" r="1.48"/><circle class="cls-12" cx="584.76" cy="86.66" r="1.48"/><circle class="cls-12" cx="587.01" cy="97.17" r="1.48"/><circle class="cls-12" cx="591.01" cy="94.94" r="1.48"/><circle class="cls-12" cx="586.37" cy="94.47" r="1.48"/><circle class="cls-12" cx="577.12" cy="98.94" r="1.48"/><circle class="cls-12" cx="575.74" cy="94.27" r="1.48"/><circle class="cls-12" cx="581.27" cy="96.5" r="1.48"/><circle class="cls-12" cx="571.08" cy="86.97" r="1.48"/><circle class="cls-12" cx="577.51" cy="85.95" r="1.48"/><circle class="cls-12" cx="571.17" cy="92.56" r="1.48"/><circle class="cls-12" cx="575.98" cy="90.83" r="1.48"/><circle class="cls-12" cx="571.38" cy="81.11" r="1.48"/><circle class="cls-12" cx="568" cy="84.19" r="1.48"/><circle class="cls-12" cx="572.63" cy="83.59" r="1.48"/><g class="cls-22"><circle class="cls-26" cx="636.59" cy="60.98" r="8.21"/><circle class="cls-14" cx="636.59" cy="83.75" r="8.21"/><circle class="cls-12" cx="636.59" cy="106.53" r="8.21"/></g><circle class="cls-2" cx="636.59" cy="60.98" r="8.21"/><circle class="cls-2" cx="636.59" cy="83.75" r="8.21"/><circle class="cls-2" cx="636.59" cy="106.53" r="8.21"/></g></g></svg>