<?xml version="1.0" encoding="UTF-8"?><svg id="Ebene_2" xmlns="http://www.w3.org/2000/svg" xmlns:xlink="http://www.w3.org/1999/xlink" viewBox="0 0 313.1 155.38"><defs><style>.cls-1{fill:#b5d8d2;font-family:MyriadPro-Bold, 'Myriad Pro';font-size:7.44px;font-weight:700;}.cls-2{stroke-width:.25px;}.cls-2,.cls-3{fill:none;stroke:#e9eaed;stroke-linecap:round;stroke-linejoin:round;}.cls-3{stroke-width:.61px;}.cls-4{opacity:.75;}.cls-5{opacity:.42;}.cls-6{fill:#e9eaed;}.cls-7{letter-spacing:-.08em;}.cls-8{letter-spacing:-.08em;}.cls-9{letter-spacing:-.07em;}.cls-10{letter-spacing:-.07em;}.cls-11{letter-spacing:-.02em;}.cls-12{letter-spacing:-.02em;}.cls-13{letter-spacing:-.03em;}.cls-14{letter-spacing:-.03em;}.cls-15{letter-spacing:-.03em;}.cls-16{letter-spacing:-.03em;}.cls-17{letter-spacing:.02em;}.cls-18{letter-spacing:.02em;}.cls-19{clip-path:url(#clippath);}.cls-20{letter-spacing:.01em;}.cls-21{letter-spacing:.01em;}</style><clipPath id="clippath"><circle class="cls-2" cx="151.14" cy="76.2" r="74.13"/></clipPath></defs><g id="Ebene_1-2"><g id="DNA-Logo-ATGC"><g class="cls-5"><g class="cls-19"><text class="cls-1" transform="translate(57.39 6.23)"><tspan class="cls-8" x="0" y="0">A</tspan><tspan class="cls-15" x="4.26" y="0">T</tspan><tspan x="8.13" y="0">G</tspan><tspan class="cls-16" x="13.2" y="0">T</tspan><tspan x="17.06" y="0">G</tspan><tspan class="cls-10" x="22.14" y="0">T</tspan><tspan class="cls-12" x="25.68" y="0">A</tspan><tspan x="30.38" y="0">GG</tspan><tspan class="cls-14" x="40.53" y="0">C</tspan><tspan x="44.73" y="0">GA</tspan><tspan class="cls-7" x="54.69" y="0">A</tspan><tspan class="cls-10" x="58.95" y="0">T</tspan><tspan class="cls-12" x="62.49" y="0">A</tspan><tspan x="67.19" y="0">G</tspan><tspan class="cls-8" x="72.26" y="0">A</tspan><tspan class="cls-15" x="76.53" y="0">T</tspan><tspan class="cls-13" x="80.39" y="0">C</tspan><tspan x="84.59" y="0">G</tspan><tspan class="cls-20" x="89.67" y="0">C</tspan><tspan class="cls-15" x="94.2" y="0">T</tspan><tspan class="cls-13" x="98.06" y="0">C</tspan><tspan x="102.27" y="0">G</tspan><tspan class="cls-20" x="107.34" y="0">C</tspan><tspan class="cls-17" x="111.87" y="0">T</tspan><tspan class="cls-9" x="116.11" y="0">T</tspan><tspan class="cls-11" x="119.66" y="0">A</tspan><tspan x="124.35" y="0">G</tspan><tspan class="cls-15" x="129.43" y="0">T</tspan><tspan x="133.29" y="0">G</tspan><tspan class="cls-16" x="138.36" y="0">T</tspan><tspan x="142.23" y="0">G</tspan><tspan class="cls-15" x="147.3" y="0">T</tspan><tspan x="151.16" y="0">G</tspan><tspan class="cls-17" x="156.24" y="0">TT</tspan><tspan class="cls-9" x="164.72" y="0">T</tspan><tspan class="cls-11" x="168.26" y="0">A</tspan><tspan x="172.96" y="0">GG</tspan><tspan class="cls-8" x="183.11" y="0">A</tspan><tspan class="cls-15" x="187.37" y="0">T</tspan><tspan x="191.23" y="0">C</tspan><tspan x="-.02" y="8.93">G</tspan><tspan class="cls-20" x="5.06" y="8.93">C</tspan><tspan class="cls-15" x="9.59" y="8.93">T</tspan><tspan class="cls-13" x="13.45" y="8.93">C</tspan><tspan x="17.65" y="8.93">GG</tspan><tspan class="cls-8" x="27.8" y="8.93">A</tspan><tspan class="cls-16" x="32.07" y="8.93">T</tspan><tspan class="cls-20" x="35.93" y="8.93">C</tspan><tspan class="cls-15" x="40.46" y="8.93">T</tspan><tspan class="cls-13" x="44.32" y="8.93">C</tspan><tspan x="48.53" y="8.93">G</tspan><tspan class="cls-8" x="53.6" y="8.93">A</tspan><tspan class="cls-15" x="57.87" y="8.93">T</tspan><tspan class="cls-13" x="61.73" y="8.93">C</tspan><tspan x="65.93" y="8.93">G</tspan><tspan class="cls-8" x="71.01" y="8.93">A</tspan><tspan class="cls-15" x="75.27" y="8.93">T</tspan><tspan x="79.13" y="8.93">G</tspan><tspan class="cls-16" x="84.21" y="8.93">T</tspan><tspan x="88.07" y="8.93">G</tspan><tspan class="cls-9" x="93.15" y="8.93">T</tspan><tspan class="cls-11" x="96.69" y="8.93">A</tspan><tspan x="101.38" y="8.93">GG</tspan><tspan class="cls-14" x="111.53" y="8.93">C</tspan><tspan x="115.74" y="8.93">GA</tspan><tspan class="cls-7" x="125.7" y="8.93">A</tspan><tspan class="cls-9" x="129.96" y="8.93">T</tspan><tspan class="cls-11" x="133.5" y="8.93">A</tspan><tspan x="138.2" y="8.93">G</tspan><tspan class="cls-8" x="143.27" y="8.93">A</tspan><tspan class="cls-15" x="147.54" y="8.93">T</tspan><tspan class="cls-13" x="151.4" y="8.93">C</tspan><tspan x="155.6" y="8.93">G</tspan><tspan class="cls-20" x="160.68" y="8.93">C</tspan><tspan class="cls-15" x="165.21" y="8.93">T</tspan><tspan class="cls-13" x="169.07" y="8.93">C</tspan><tspan x="173.28" y="8.93">G</tspan><tspan class="cls-20" x="178.35" y="8.93">C</tspan><tspan class="cls-17" x="182.88" y="8.93">T</tspan><tspan class="cls-9" x="187.12" y="8.93">T</tspan><tspan x="190.67" y="8.93">A</tspan><tspan x="-.04" y="17.86">G</tspan><tspan class="cls-15" x="5.04" y="17.86">T</tspan><tspan x="8.9" y="17.86">G</tspan><tspan class="cls-15" x="13.97" y="17.86">T</tspan><tspan x="17.84" y="17.86">G</tspan><tspan class="cls-16" x="22.91" y="17.86">T</tspan><tspan x="26.77" y="17.86">G</tspan><tspan class="cls-17" x="31.85" y="17.86">TT</tspan><tspan class="cls-9" x="40.33" y="17.86">T</tspan><tspan class="cls-11" x="43.87" y="17.86">A</tspan><tspan x="48.57" y="17.86">GG</tspan><tspan class="cls-8" x="58.72" y="17.86">A</tspan><tspan class="cls-15" x="62.98" y="17.86">T</tspan><tspan class="cls-13" x="66.84" y="17.86">C</tspan><tspan x="71.05" y="17.86">G</tspan><tspan class="cls-20" x="76.12" y="17.86">C</tspan><tspan class="cls-15" x="80.66" y="17.86">T</tspan><tspan class="cls-13" x="84.52" y="17.86">C</tspan><tspan x="88.72" y="17.86">GG</tspan><tspan class="cls-8" x="98.87" y="17.86">A</tspan><tspan class="cls-16" x="103.14" y="17.86">T</tspan><tspan class="cls-20" x="107" y="17.86">C</tspan><tspan class="cls-15" x="111.53" y="17.86">T</tspan><tspan class="cls-13" x="115.39" y="17.86">C</tspan><tspan x="119.6" y="17.86">G</tspan><tspan class="cls-8" x="124.67" y="17.86">A</tspan><tspan class="cls-15" x="128.94" y="17.86">T</tspan><tspan class="cls-13" x="132.8" y="17.86">C</tspan><tspan x="137" y="17.86">G</tspan><tspan class="cls-8" x="142.08" y="17.86">A</tspan><tspan class="cls-15" x="146.34" y="17.86">T</tspan><tspan x="150.2" y="17.86">G</tspan><tspan class="cls-16" x="155.28" y="17.86">T</tspan><tspan x="159.14" y="17.86">G</tspan><tspan class="cls-10" x="164.21" y="17.86">T</tspan><tspan class="cls-12" x="167.76" y="17.86">A</tspan><tspan x="172.45" y="17.86">GG</tspan><tspan class="cls-14" x="182.6" y="17.86">C</tspan><tspan x="186.81" y="17.86">GA</tspan><tspan class="cls-8" x="-.06" y="26.79">A</tspan><tspan class="cls-9" x="4.21" y="26.79">T</tspan><tspan class="cls-11" x="7.75" y="26.79">A</tspan><tspan x="12.44" y="26.79">G</tspan><tspan class="cls-8" x="17.52" y="26.79">A</tspan><tspan class="cls-16" x="21.78" y="26.79">T</tspan><tspan class="cls-14" x="25.64" y="26.79">C</tspan><tspan x="29.85" y="26.79">G</tspan><tspan class="cls-21" x="34.92" y="26.79">C</tspan><tspan class="cls-15" x="39.46" y="26.79">T</tspan><tspan class="cls-13" x="43.32" y="26.79">C</tspan><tspan x="47.52" y="26.79">G</tspan><tspan class="cls-20" x="52.6" y="26.79">C</tspan><tspan class="cls-17" x="57.13" y="26.79">T</tspan><tspan class="cls-9" x="61.37" y="26.79">T</tspan><tspan class="cls-11" x="64.91" y="26.79">A</tspan><tspan x="69.61" y="26.79">G</tspan><tspan class="cls-15" x="74.68" y="26.79">T</tspan><tspan x="78.54" y="26.79">G</tspan><tspan class="cls-15" x="83.62" y="26.79">T</tspan><tspan x="87.48" y="26.79">G</tspan><tspan class="cls-15" x="92.56" y="26.79">T</tspan><tspan x="96.42" y="26.79">G</tspan><tspan class="cls-18" x="101.49" y="26.79">TT</tspan><tspan class="cls-9" x="109.98" y="26.79">T</tspan><tspan class="cls-11" x="113.52" y="26.79">A</tspan><tspan x="118.21" y="26.79">GG</tspan><tspan class="cls-8" x="128.36" y="26.79">A</tspan><tspan class="cls-15" x="132.63" y="26.79">T</tspan><tspan class="cls-13" x="136.49" y="26.79">C</tspan><tspan x="140.69" y="26.79">G</tspan><tspan class="cls-20" x="145.77" y="26.79">C</tspan><tspan class="cls-15" x="150.3" y="26.79">T</tspan><tspan class="cls-13" x="154.16" y="26.79">C</tspan><tspan x="158.37" y="26.79">GG</tspan><tspan class="cls-8" x="168.52" y="26.79">A</tspan><tspan class="cls-15" x="172.78" y="26.79">T</tspan><tspan class="cls-21" x="176.64" y="26.79">C</tspan><tspan class="cls-15" x="181.18" y="26.79">T</tspan><tspan class="cls-13" x="185.04" y="26.79">C</tspan><tspan x="189.24" y="26.79">G</tspan><tspan class="cls-8" x="-.08" y="35.72">A</tspan><tspan class="cls-15" x="4.19" y="35.72">T</tspan><tspan class="cls-13" x="8.05" y="35.72">C</tspan><tspan x="12.25" y="35.72">G</tspan><tspan class="cls-8" x="17.33" y="35.72">A</tspan><tspan class="cls-16" x="21.59" y="35.72">T</tspan><tspan x="25.45" y="35.72">G</tspan><tspan class="cls-15" x="30.53" y="35.72">T</tspan><tspan x="34.39" y="35.72">G</tspan><tspan class="cls-9" x="39.47" y="35.72">T</tspan><tspan class="cls-11" x="43.01" y="35.72">A</tspan><tspan x="47.7" y="35.72">GG</tspan><tspan class="cls-13" x="57.85" y="35.72">C</tspan><tspan x="62.06" y="35.72">GA</tspan><tspan class="cls-8" x="72.02" y="35.72">A</tspan><tspan class="cls-9" x="76.28" y="35.72">T</tspan><tspan class="cls-11" x="79.82" y="35.72">A</tspan><tspan x="84.52" y="35.72">G</tspan><tspan class="cls-8" x="89.59" y="35.72">A</tspan><tspan class="cls-15" x="93.85" y="35.72">T</tspan><tspan class="cls-13" x="97.72" y="35.72">C</tspan><tspan x="101.92" y="35.72">G</tspan><tspan class="cls-20" x="107" y="35.72">C</tspan><tspan class="cls-15" x="111.53" y="35.72">T</tspan><tspan class="cls-13" x="115.39" y="35.72">C</tspan><tspan x="119.59" y="35.72">G</tspan><tspan class="cls-20" x="124.67" y="35.72">C</tspan><tspan class="cls-18" x="129.2" y="35.72">T</tspan><tspan class="cls-10" x="133.44" y="35.72">T</tspan><tspan class="cls-12" x="136.98" y="35.72">A</tspan><tspan x="141.68" y="35.72">G</tspan><tspan class="cls-15" x="146.76" y="35.72">T</tspan><tspan x="150.62" y="35.72">G</tspan><tspan class="cls-15" x="155.69" y="35.72">T</tspan><tspan x="159.55" y="35.72">G</tspan><tspan class="cls-15" x="164.63" y="35.72">T</tspan><tspan x="168.49" y="35.72">G</tspan><tspan class="cls-17" x="173.57" y="35.72">TT</tspan><tspan class="cls-9" x="182.05" y="35.72">T</tspan><tspan class="cls-11" x="185.59" y="35.72">A</tspan><tspan x="190.29" y="35.72">G</tspan><tspan x="-.1" y="44.65">G</tspan><tspan class="cls-8" x="4.98" y="44.65">A</tspan><tspan class="cls-15" x="9.24" y="44.65">T</tspan><tspan class="cls-13" x="13.1" y="44.65">C</tspan><tspan x="17.31" y="44.65">G</tspan><tspan class="cls-20" x="22.38" y="44.65">C</tspan><tspan class="cls-16" x="26.92" y="44.65">T</tspan><tspan class="cls-14" x="30.78" y="44.65">C</tspan><tspan x="34.98" y="44.65">GG</tspan><tspan class="cls-7" x="45.13" y="44.65">A</tspan><tspan class="cls-15" x="49.4" y="44.65">T</tspan><tspan class="cls-20" x="53.26" y="44.65">C</tspan><tspan class="cls-15" x="57.79" y="44.65">T</tspan><tspan class="cls-13" x="61.65" y="44.65">C</tspan><tspan x="65.86" y="44.65">G</tspan><tspan class="cls-8" x="70.93" y="44.65">A</tspan><tspan class="cls-15" x="75.2" y="44.65">T</tspan><tspan class="cls-13" x="79.06" y="44.65">C</tspan><tspan x="83.26" y="44.65">G</tspan><tspan class="cls-8" x="88.34" y="44.65">A</tspan><tspan class="cls-16" x="92.6" y="44.65">T</tspan><tspan x="96.46" y="44.65">G</tspan><tspan class="cls-15" x="101.54" y="44.65">T</tspan><tspan x="105.4" y="44.65">G</tspan><tspan class="cls-9" x="110.48" y="44.65">T</tspan><tspan class="cls-11" x="114.02" y="44.65">A</tspan><tspan x="118.71" y="44.65">GG</tspan><tspan class="cls-13" x="128.86" y="44.65">C</tspan><tspan x="133.07" y="44.65">GA</tspan><tspan class="cls-8" x="143.02" y="44.65">A</tspan><tspan class="cls-9" x="147.29" y="44.65">T</tspan><tspan class="cls-11" x="150.83" y="44.65">A</tspan><tspan x="155.52" y="44.65">G</tspan><tspan class="cls-8" x="160.6" y="44.65">A</tspan><tspan class="cls-15" x="164.86" y="44.65">T</tspan><tspan class="cls-13" x="168.73" y="44.65">C</tspan><tspan x="172.93" y="44.65">G</tspan><tspan class="cls-20" x="178.01" y="44.65">C</tspan><tspan class="cls-15" x="182.54" y="44.65">T</tspan><tspan class="cls-13" x="186.4" y="44.65">C</tspan><tspan x="190.6" y="44.65">G</tspan><tspan class="cls-20" x="-.12" y="53.58">C</tspan><tspan class="cls-17" x="4.42" y="53.58">T</tspan><tspan class="cls-9" x="8.66" y="53.58">T</tspan><tspan class="cls-11" x="12.2" y="53.58">A</tspan><tspan x="16.89" y="53.58">G</tspan><tspan class="cls-15" x="21.97" y="53.58">T</tspan><tspan x="25.83" y="53.58">G</tspan><tspan class="cls-16" x="30.91" y="53.58">T</tspan><tspan x="34.77" y="53.58">G</tspan><tspan class="cls-15" x="39.84" y="53.58">T</tspan><tspan x="43.71" y="53.58">G</tspan><tspan class="cls-17" x="48.78" y="53.58">TT</tspan><tspan class="cls-9" x="57.26" y="53.58">T</tspan><tspan class="cls-11" x="60.81" y="53.58">A</tspan><tspan x="65.5" y="53.58">GG</tspan><tspan class="cls-8" x="75.65" y="53.58">A</tspan><tspan class="cls-15" x="79.91" y="53.58">T</tspan><tspan class="cls-13" x="83.78" y="53.58">C</tspan><tspan x="87.98" y="53.58">G</tspan><tspan class="cls-20" x="93.06" y="53.58">C</tspan><tspan class="cls-16" x="97.59" y="53.58">T</tspan><tspan class="cls-14" x="101.45" y="53.58">C</tspan><tspan x="105.65" y="53.58">GG</tspan><tspan class="cls-7" x="115.8" y="53.58">A</tspan><tspan class="cls-15" x="120.07" y="53.58">T</tspan><tspan class="cls-20" x="123.93" y="53.58">C</tspan><tspan class="cls-15" x="128.46" y="53.58">T</tspan><tspan class="cls-13" x="132.32" y="53.58">C</tspan><tspan x="136.53" y="53.58">G</tspan><tspan class="cls-8" x="141.6" y="53.58">A</tspan><tspan class="cls-15" x="145.87" y="53.58">T</tspan><tspan class="cls-13" x="149.73" y="53.58">C</tspan><tspan x="153.93" y="53.58">G</tspan><tspan class="cls-7" x="159.01" y="53.58">A</tspan><tspan class="cls-15" x="163.27" y="53.58">T</tspan><tspan x="167.14" y="53.58">G</tspan><tspan class="cls-15" x="172.21" y="53.58">T</tspan><tspan x="176.07" y="53.58">G</tspan><tspan class="cls-9" x="181.15" y="53.58">T</tspan><tspan class="cls-11" x="184.69" y="53.58">A</tspan><tspan x="189.38" y="53.58">G</tspan><tspan x="-.14" y="62.51">G</tspan><tspan class="cls-13" x="4.94" y="62.51">C</tspan><tspan x="9.14" y="62.51">GA</tspan><tspan class="cls-8" x="19.1" y="62.51">A</tspan><tspan class="cls-9" x="23.36" y="62.51">T</tspan><tspan class="cls-11" x="26.91" y="62.51">A</tspan><tspan x="31.6" y="62.51">G</tspan><tspan class="cls-8" x="36.68" y="62.51">A</tspan><tspan class="cls-15" x="40.94" y="62.51">T</tspan><tspan class="cls-13" x="44.8" y="62.51">C</tspan><tspan x="49.01" y="62.51">G</tspan><tspan class="cls-20" x="54.08" y="62.51">C</tspan><tspan class="cls-16" x="58.61" y="62.51">T</tspan><tspan class="cls-14" x="62.48" y="62.51">C</tspan><tspan x="66.68" y="62.51">G</tspan><tspan class="cls-21" x="71.76" y="62.51">C</tspan><tspan class="cls-17" x="76.29" y="62.51">T</tspan><tspan class="cls-9" x="80.53" y="62.51">T</tspan><tspan class="cls-11" x="84.07" y="62.51">A</tspan><tspan x="88.77" y="62.51">G</tspan><tspan class="cls-15" x="93.84" y="62.51">T</tspan><tspan x="97.7" y="62.51">G</tspan><tspan class="cls-15" x="102.78" y="62.51">T</tspan><tspan x="106.64" y="62.51">G</tspan><tspan class="cls-15" x="111.72" y="62.51">T</tspan><tspan x="115.58" y="62.51">G</tspan><tspan class="cls-17" x="120.65" y="62.51">TT</tspan><tspan class="cls-9" x="129.13" y="62.51">T</tspan><tspan class="cls-11" x="132.68" y="62.51">A</tspan><tspan x="137.37" y="62.51">GG</tspan><tspan class="cls-7" x="147.52" y="62.51">A</tspan><tspan class="cls-15" x="151.79" y="62.51">T</tspan><tspan class="cls-13" x="155.65" y="62.51">C</tspan><tspan x="159.85" y="62.51">G</tspan><tspan class="cls-20" x="164.93" y="62.51">C</tspan><tspan class="cls-15" x="169.46" y="62.51">T</tspan><tspan class="cls-13" x="173.32" y="62.51">C</tspan><tspan x="177.53" y="62.51">GG</tspan><tspan class="cls-8" x="187.68" y="62.51">A</tspan><tspan x="191.94" y="62.51">T</tspan><tspan class="cls-20" x="-.16" y="71.44">C</tspan><tspan class="cls-15" x="4.38" y="71.44">T</tspan><tspan class="cls-13" x="8.24" y="71.44">C</tspan><tspan x="12.44" y="71.44">G</tspan><tspan class="cls-8" x="17.52" y="71.44">A</tspan><tspan class="cls-16" x="21.78" y="71.44">T</tspan><tspan class="cls-14" x="25.64" y="71.44">C</tspan><tspan x="29.85" y="71.44">G</tspan><tspan class="cls-7" x="34.92" y="71.44">A</tspan><tspan class="cls-15" x="39.19" y="71.44">T</tspan><tspan x="43.05" y="71.44">G</tspan><tspan class="cls-15" x="48.12" y="71.44">T</tspan><tspan x="51.99" y="71.44">G</tspan><tspan class="cls-9" x="57.06" y="71.44">T</tspan><tspan class="cls-11" x="60.6" y="71.44">A</tspan><tspan x="65.3" y="71.44">GG</tspan><tspan class="cls-13" x="75.45" y="71.44">C</tspan><tspan x="79.65" y="71.44">GA</tspan><tspan class="cls-8" x="89.61" y="71.44">A</tspan><tspan class="cls-9" x="93.87" y="71.44">T</tspan><tspan class="cls-11" x="97.42" y="71.44">A</tspan><tspan x="102.11" y="71.44">G</tspan><tspan class="cls-8" x="107.19" y="71.44">A</tspan><tspan class="cls-15" x="111.45" y="71.44">T</tspan><tspan class="cls-13" x="115.31" y="71.44">C</tspan><tspan x="119.52" y="71.44">G</tspan><tspan class="cls-20" x="124.59" y="71.44">C</tspan><tspan class="cls-16" x="129.12" y="71.44">T</tspan><tspan class="cls-14" x="132.99" y="71.44">C</tspan><tspan x="137.19" y="71.44">G</tspan><tspan class="cls-21" x="142.27" y="71.44">C</tspan><tspan class="cls-17" x="146.8" y="71.44">T</tspan><tspan class="cls-9" x="151.04" y="71.44">T</tspan><tspan class="cls-11" x="154.58" y="71.44">A</tspan><tspan x="159.28" y="71.44">G</tspan><tspan class="cls-15" x="164.35" y="71.44">T</tspan><tspan x="168.21" y="71.44">G</tspan><tspan class="cls-15" x="173.29" y="71.44">T</tspan><tspan x="177.15" y="71.44">G</tspan><tspan class="cls-15" x="182.23" y="71.44">T</tspan><tspan x="186.09" y="71.44">GT</tspan><tspan class="cls-17" x="-.17" y="80.37">T</tspan><tspan class="cls-9" x="4.07" y="80.37">T</tspan><tspan class="cls-11" x="7.61" y="80.37">A</tspan><tspan x="12.3" y="80.37">GG</tspan><tspan class="cls-8" x="22.45" y="80.37">A</tspan><tspan class="cls-15" x="26.72" y="80.37">T</tspan><tspan class="cls-13" x="30.58" y="80.37">C</tspan><tspan x="34.78" y="80.37">G</tspan><tspan class="cls-21" x="39.86" y="80.37">C</tspan><tspan class="cls-15" x="44.39" y="80.37">T</tspan><tspan class="cls-13" x="48.25" y="80.37">C</tspan><tspan x="52.46" y="80.37">GG</tspan><tspan class="cls-8" x="62.61" y="80.37">A</tspan><tspan class="cls-15" x="66.87" y="80.37">T</tspan><tspan class="cls-20" x="70.73" y="80.37">C</tspan><tspan class="cls-15" x="75.27" y="80.37">T</tspan><tspan class="cls-13" x="79.13" y="80.37">C</tspan><tspan x="83.33" y="80.37">G</tspan><tspan class="cls-8" x="88.41" y="80.37">A</tspan><tspan class="cls-16" x="92.67" y="80.37">T</tspan><tspan class="cls-14" x="96.53" y="80.37">C</tspan><tspan x="100.74" y="80.37">G</tspan><tspan class="cls-7" x="105.81" y="80.37">A</tspan><tspan class="cls-15" x="110.08" y="80.37">T</tspan><tspan x="113.94" y="80.37">G</tspan><tspan class="cls-15" x="119.01" y="80.37">T</tspan><tspan x="122.88" y="80.37">G</tspan><tspan class="cls-9" x="127.95" y="80.37">T</tspan><tspan class="cls-11" x="131.49" y="80.37">A</tspan><tspan x="136.19" y="80.37">GG</tspan><tspan class="cls-13" x="146.34" y="80.37">C</tspan><tspan x="150.54" y="80.37">GA</tspan><tspan class="cls-8" x="160.5" y="80.37">A</tspan><tspan class="cls-9" x="164.76" y="80.37">T</tspan><tspan class="cls-11" x="168.31" y="80.37">A</tspan><tspan x="173" y="80.37">G</tspan><tspan class="cls-8" x="178.08" y="80.37">A</tspan><tspan class="cls-15" x="182.34" y="80.37">T</tspan><tspan class="cls-13" x="186.2" y="80.37">C</tspan><tspan x="190.41" y="80.37">G</tspan><tspan class="cls-20" x="-.19" y="89.3">C</tspan><tspan class="cls-15" x="4.34" y="89.3">T</tspan><tspan class="cls-13" x="8.2" y="89.3">C</tspan><tspan x="12.4" y="89.3">G</tspan><tspan class="cls-20" x="17.48" y="89.3">C</tspan><tspan class="cls-18" x="22.01" y="89.3">T</tspan><tspan class="cls-10" x="26.25" y="89.3">T</tspan><tspan class="cls-12" x="29.79" y="89.3">A</tspan><tspan x="34.49" y="89.3">G</tspan><tspan class="cls-15" x="39.57" y="89.3">T</tspan><tspan x="43.43" y="89.3">G</tspan><tspan class="cls-15" x="48.5" y="89.3">T</tspan><tspan x="52.36" y="89.3">G</tspan><tspan class="cls-15" x="57.44" y="89.3">T</tspan><tspan x="61.3" y="89.3">G</tspan><tspan class="cls-17" x="66.38" y="89.3">TT</tspan><tspan class="cls-9" x="74.86" y="89.3">T</tspan><tspan class="cls-11" x="78.4" y="89.3">A</tspan><tspan x="83.1" y="89.3">GG</tspan><tspan class="cls-8" x="93.25" y="89.3">A</tspan><tspan class="cls-16" x="97.51" y="89.3">T</tspan><tspan class="cls-14" x="101.37" y="89.3">C</tspan><tspan x="105.58" y="89.3">G</tspan><tspan class="cls-21" x="110.65" y="89.3">C</tspan><tspan class="cls-15" x="115.18" y="89.3">T</tspan><tspan class="cls-13" x="119.05" y="89.3">C</tspan><tspan x="123.25" y="89.3">GG</tspan><tspan class="cls-8" x="133.4" y="89.3">A</tspan><tspan class="cls-15" x="137.66" y="89.3">T</tspan><tspan class="cls-20" x="141.53" y="89.3">C</tspan><tspan class="cls-15" x="146.06" y="89.3">T</tspan><tspan class="cls-13" x="149.92" y="89.3">C</tspan><tspan x="154.12" y="89.3">G</tspan><tspan class="cls-7" x="159.2" y="89.3">A</tspan><tspan class="cls-15" x="163.46" y="89.3">T</tspan><tspan class="cls-13" x="167.33" y="89.3">C</tspan><tspan x="171.53" y="89.3">G</tspan><tspan class="cls-8" x="176.61" y="89.3">A</tspan><tspan class="cls-15" x="180.87" y="89.3">T</tspan><tspan x="184.73" y="89.3">GT</tspan><tspan x="-.21" y="98.23">G</tspan><tspan class="cls-9" x="4.86" y="98.23">T</tspan><tspan class="cls-11" x="8.4" y="98.23">A</tspan><tspan x="13.1" y="98.23">GG</tspan><tspan class="cls-13" x="23.25" y="98.23">C</tspan><tspan x="27.45" y="98.23">GA</tspan><tspan class="cls-8" x="37.41" y="98.23">A</tspan><tspan class="cls-9" x="41.67" y="98.23">T</tspan><tspan class="cls-11" x="45.22" y="98.23">A</tspan><tspan x="49.91" y="98.23">G</tspan><tspan class="cls-8" x="54.99" y="98.23">A</tspan><tspan class="cls-15" x="59.25" y="98.23">T</tspan><tspan class="cls-13" x="63.11" y="98.23">C</tspan><tspan x="67.32" y="98.23">G</tspan><tspan class="cls-20" x="72.39" y="98.23">C</tspan><tspan class="cls-16" x="76.92" y="98.23">T</tspan><tspan class="cls-14" x="80.79" y="98.23">C</tspan><tspan x="84.99" y="98.23">G</tspan><tspan class="cls-21" x="90.07" y="98.23">C</tspan><tspan class="cls-17" x="94.6" y="98.23">T</tspan><tspan class="cls-9" x="98.84" y="98.23">T</tspan><tspan class="cls-11" x="102.38" y="98.23">A</tspan><tspan x="107.08" y="98.23">G</tspan><tspan class="cls-15" x="112.15" y="98.23">T</tspan><tspan x="116.01" y="98.23">G</tspan><tspan class="cls-15" x="121.09" y="98.23">T</tspan><tspan x="124.95" y="98.23">G</tspan><tspan class="cls-15" x="130.03" y="98.23">T</tspan><tspan x="133.89" y="98.23">G</tspan><tspan class="cls-17" x="138.96" y="98.23">TT</tspan><tspan class="cls-9" x="147.44" y="98.23">T</tspan><tspan class="cls-11" x="150.99" y="98.23">A</tspan><tspan x="155.68" y="98.23">GG</tspan><tspan class="cls-7" x="165.83" y="98.23">A</tspan><tspan class="cls-15" x="170.1" y="98.23">T</tspan><tspan class="cls-13" x="173.96" y="98.23">C</tspan><tspan x="178.16" y="98.23">G</tspan><tspan class="cls-20" x="183.24" y="98.23">C</tspan><tspan class="cls-15" x="187.77" y="98.23">T</tspan><tspan x="191.63" y="98.23">C</tspan><tspan x="-.23" y="107.16">GG</tspan><tspan class="cls-8" x="9.92" y="107.16">A</tspan><tspan class="cls-15" x="14.18" y="107.16">T</tspan><tspan class="cls-21" x="18.04" y="107.16">C</tspan><tspan class="cls-15" x="22.58" y="107.16">T</tspan><tspan class="cls-13" x="26.44" y="107.16">C</tspan><tspan x="30.64" y="107.16">G</tspan><tspan class="cls-8" x="35.72" y="107.16">A</tspan><tspan class="cls-15" x="39.98" y="107.16">T</tspan><tspan class="cls-13" x="43.84" y="107.16">C</tspan><tspan x="48.05" y="107.16">G</tspan><tspan class="cls-8" x="53.12" y="107.16">A</tspan><tspan class="cls-15" x="57.39" y="107.16">T</tspan><tspan x="61.25" y="107.16">G</tspan><tspan class="cls-15" x="66.32" y="107.16">T</tspan><tspan x="70.18" y="107.16">G</tspan><tspan class="cls-9" x="75.26" y="107.16">T</tspan><tspan class="cls-11" x="78.8" y="107.16">A</tspan><tspan x="83.5" y="107.16">GG</tspan><tspan class="cls-13" x="93.65" y="107.16">C</tspan><tspan x="97.85" y="107.16">GA</tspan><tspan class="cls-8" x="107.81" y="107.16">A</tspan><tspan class="cls-9" x="112.07" y="107.16">T</tspan><tspan class="cls-11" x="115.61" y="107.16">A</tspan><tspan x="120.31" y="107.16">G</tspan><tspan class="cls-7" x="125.38" y="107.16">A</tspan><tspan class="cls-15" x="129.65" y="107.16">T</tspan><tspan class="cls-13" x="133.51" y="107.16">C</tspan><tspan x="137.72" y="107.16">G</tspan><tspan class="cls-20" x="142.79" y="107.16">C</tspan><tspan class="cls-15" x="147.32" y="107.16">T</tspan><tspan class="cls-13" x="151.18" y="107.16">C</tspan><tspan x="155.39" y="107.16">G</tspan><tspan class="cls-20" x="160.46" y="107.16">C</tspan><tspan class="cls-17" x="165" y="107.16">T</tspan><tspan class="cls-9" x="169.24" y="107.16">T</tspan><tspan class="cls-11" x="172.78" y="107.16">A</tspan><tspan x="177.47" y="107.16">G</tspan><tspan class="cls-15" x="182.55" y="107.16">T</tspan><tspan x="186.41" y="107.16">GT</tspan><tspan x="-.25" y="116.09">G</tspan><tspan class="cls-15" x="4.82" y="116.09">T</tspan><tspan x="8.68" y="116.09">G</tspan><tspan class="cls-17" x="13.76" y="116.09">TT</tspan><tspan class="cls-9" x="22.24" y="116.09">T</tspan><tspan class="cls-11" x="25.78" y="116.09">A</tspan><tspan x="30.48" y="116.09">GG</tspan><tspan class="cls-7" x="40.63" y="116.09">A</tspan><tspan class="cls-15" x="44.89" y="116.09">T</tspan><tspan class="cls-13" x="48.76" y="116.09">C</tspan><tspan x="52.96" y="116.09">G</tspan><tspan class="cls-20" x="58.04" y="116.09">C</tspan><tspan class="cls-15" x="62.57" y="116.09">T</tspan><tspan class="cls-13" x="66.43" y="116.09">C</tspan><tspan x="70.63" y="116.09">GG</tspan><tspan class="cls-8" x="80.78" y="116.09">A</tspan><tspan class="cls-15" x="85.05" y="116.09">T</tspan><tspan class="cls-20" x="88.91" y="116.09">C</tspan><tspan class="cls-16" x="93.44" y="116.09">T</tspan><tspan class="cls-14" x="97.3" y="116.09">C</tspan><tspan x="101.51" y="116.09">G</tspan><tspan class="cls-7" x="106.58" y="116.09">A</tspan><tspan class="cls-15" x="110.85" y="116.09">T</tspan><tspan class="cls-13" x="114.71" y="116.09">C</tspan><tspan x="118.91" y="116.09">G</tspan><tspan class="cls-8" x="123.99" y="116.09">A</tspan><tspan class="cls-15" x="128.25" y="116.09">T</tspan><tspan x="132.11" y="116.09">G</tspan><tspan class="cls-15" x="137.19" y="116.09">T</tspan><tspan x="141.05" y="116.09">G</tspan><tspan class="cls-9" x="146.13" y="116.09">T</tspan><tspan class="cls-11" x="149.67" y="116.09">A</tspan><tspan x="154.36" y="116.09">GG</tspan><tspan class="cls-13" x="164.51" y="116.09">C</tspan><tspan x="168.72" y="116.09">GA</tspan><tspan class="cls-8" x="178.68" y="116.09">A</tspan><tspan class="cls-9" x="182.94" y="116.09">T</tspan><tspan class="cls-11" x="186.48" y="116.09">A</tspan><tspan x="191.18" y="116.09">G</tspan><tspan class="cls-8" x="-.27" y="125.02">A</tspan><tspan class="cls-15" x="3.99" y="125.02">T</tspan><tspan class="cls-13" x="7.85" y="125.02">C</tspan><tspan x="12.06" y="125.02">G</tspan><tspan class="cls-20" x="17.13" y="125.02">C</tspan><tspan class="cls-16" x="21.67" y="125.02">T</tspan><tspan class="cls-14" x="25.53" y="125.02">C</tspan><tspan x="29.73" y="125.02">G</tspan><tspan class="cls-21" x="34.81" y="125.02">C</tspan><tspan class="cls-17" x="39.34" y="125.02">T</tspan><tspan class="cls-9" x="43.58" y="125.02">T</tspan><tspan class="cls-11" x="47.12" y="125.02">A</tspan><tspan x="51.82" y="125.02">G</tspan><tspan class="cls-15" x="56.89" y="125.02">T</tspan><tspan x="60.75" y="125.02">G</tspan><tspan class="cls-15" x="65.83" y="125.02">T</tspan><tspan x="69.69" y="125.02">G</tspan><tspan class="cls-15" x="74.77" y="125.02">T</tspan><tspan x="78.63" y="125.02">G</tspan><tspan class="cls-17" x="83.7" y="125.02">TT</tspan><tspan class="cls-10" x="92.19" y="125.02">T</tspan><tspan class="cls-11" x="95.73" y="125.02">A</tspan><tspan x="100.42" y="125.02">GG</tspan><tspan class="cls-7" x="110.57" y="125.02">A</tspan><tspan class="cls-15" x="114.84" y="125.02">T</tspan><tspan class="cls-13" x="118.7" y="125.02">C</tspan><tspan x="122.9" y="125.02">G</tspan><tspan class="cls-20" x="127.98" y="125.02">C</tspan><tspan class="cls-15" x="132.51" y="125.02">T</tspan><tspan class="cls-13" x="136.37" y="125.02">C</tspan><tspan x="140.58" y="125.02">GG</tspan><tspan class="cls-8" x="150.73" y="125.02">A</tspan><tspan class="cls-15" x="154.99" y="125.02">T</tspan><tspan class="cls-21" x="158.85" y="125.02">C</tspan><tspan class="cls-15" x="163.39" y="125.02">T</tspan><tspan class="cls-13" x="167.25" y="125.02">C</tspan><tspan x="171.45" y="125.02">G</tspan><tspan class="cls-8" x="176.53" y="125.02">A</tspan><tspan class="cls-15" x="180.79" y="125.02">T</tspan><tspan class="cls-13" x="184.65" y="125.02">C</tspan><tspan x="188.86" y="125.02">G</tspan><tspan class="cls-8" x="-.29" y="133.95">A</tspan><tspan class="cls-15" x="3.97" y="133.95">T</tspan><tspan x="7.83" y="133.95">G</tspan><tspan class="cls-16" x="12.91" y="133.95">T</tspan><tspan x="16.77" y="133.95">G</tspan><tspan class="cls-10" x="21.85" y="133.95">T</tspan><tspan class="cls-12" x="25.39" y="133.95">A</tspan><tspan x="30.08" y="133.95">GG</tspan><tspan class="cls-14" x="40.23" y="133.95">C</tspan><tspan x="44.44" y="133.95">GA</tspan><tspan class="cls-7" x="54.4" y="133.95">A</tspan><tspan class="cls-10" x="58.66" y="133.95">T</tspan><tspan class="cls-12" x="62.2" y="133.95">A</tspan><tspan x="66.9" y="133.95">G</tspan><tspan class="cls-8" x="71.97" y="133.95">A</tspan><tspan class="cls-15" x="76.24" y="133.95">T</tspan><tspan class="cls-13" x="80.1" y="133.95">C</tspan><tspan x="84.3" y="133.95">G</tspan><tspan class="cls-20" x="89.38" y="133.95">C</tspan><tspan class="cls-15" x="93.91" y="133.95">T</tspan><tspan class="cls-13" x="97.77" y="133.95">C</tspan><tspan x="101.98" y="133.95">G</tspan><tspan class="cls-20" x="107.05" y="133.95">C</tspan><tspan class="cls-17" x="111.58" y="133.95">T</tspan><tspan class="cls-9" x="115.82" y="133.95">T</tspan><tspan class="cls-11" x="119.37" y="133.95">A</tspan><tspan x="124.06" y="133.95">G</tspan><tspan class="cls-15" x="129.14" y="133.95">T</tspan><tspan x="133" y="133.95">G</tspan><tspan class="cls-16" x="138.07" y="133.95">T</tspan><tspan x="141.94" y="133.95">G</tspan><tspan class="cls-15" x="147.01" y="133.95">T</tspan><tspan x="150.87" y="133.95">G</tspan><tspan class="cls-17" x="155.95" y="133.95">TT</tspan><tspan class="cls-9" x="164.43" y="133.95">T</tspan><tspan class="cls-11" x="167.97" y="133.95">A</tspan><tspan x="172.67" y="133.95">GG</tspan><tspan class="cls-8" x="182.82" y="133.95">A</tspan><tspan class="cls-15" x="187.08" y="133.95">T</tspan><tspan x="190.94" y="133.95">C</tspan><tspan x="-.31" y="142.88">G</tspan><tspan class="cls-20" x="4.76" y="142.88">C</tspan><tspan class="cls-15" x="9.3" y="142.88">T</tspan><tspan class="cls-13" x="13.16" y="142.88">C</tspan><tspan x="17.36" y="142.88">GG</tspan><tspan class="cls-8" x="27.51" y="142.88">A</tspan><tspan class="cls-16" x="31.78" y="142.88">T</tspan><tspan class="cls-20" x="35.64" y="142.88">C</tspan><tspan class="cls-15" x="40.17" y="142.88">T</tspan><tspan class="cls-13" x="44.03" y="142.88">C</tspan><tspan x="48.24" y="142.88">G</tspan><tspan class="cls-8" x="53.31" y="142.88">A</tspan><tspan class="cls-15" x="57.58" y="142.88">T</tspan><tspan class="cls-13" x="61.44" y="142.88">C</tspan><tspan x="65.64" y="142.88">G</tspan><tspan class="cls-8" x="70.72" y="142.88">A</tspan><tspan class="cls-15" x="74.98" y="142.88">T</tspan><tspan x="78.84" y="142.88">G</tspan><tspan class="cls-16" x="83.92" y="142.88">T</tspan><tspan x="87.78" y="142.88">G</tspan><tspan class="cls-9" x="92.86" y="142.88">T</tspan><tspan class="cls-11" x="96.4" y="142.88">A</tspan><tspan x="101.09" y="142.88">GG</tspan><tspan class="cls-14" x="111.24" y="142.88">C</tspan><tspan x="115.45" y="142.88">GA</tspan><tspan class="cls-7" x="125.4" y="142.88">A</tspan><tspan class="cls-9" x="129.67" y="142.88">T</tspan><tspan class="cls-11" x="133.21" y="142.88">A</tspan><tspan x="137.91" y="142.88">G</tspan><tspan class="cls-8" x="142.98" y="142.88">A</tspan><tspan class="cls-15" x="147.24" y="142.88">T</tspan><tspan class="cls-13" x="151.11" y="142.88">C</tspan><tspan x="155.31" y="142.88">G</tspan><tspan class="cls-20" x="160.39" y="142.88">C</tspan><tspan class="cls-15" x="164.92" y="142.88">T</tspan><tspan class="cls-13" x="168.78" y="142.88">C</tspan><tspan x="172.98" y="142.88">G</tspan><tspan class="cls-20" x="178.06" y="142.88">C</tspan><tspan class="cls-17" x="182.59" y="142.88">T</tspan><tspan class="cls-9" x="186.83" y="142.88">T</tspan><tspan x="190.37" y="142.88">A</tspan></text></g><circle class="cls-2" cx="151.14" cy="76.2" r="74.13"/></g><circle class="cls-3" cx="151.14" cy="76.2" r="74.13"/><g class="cls-4"><path class="cls-6" d="M104.21,93.64c-.97-.31-1.91-.71-2.81-1.18-.14-.07-.2-.16-.22-.28,0,0,.01,0,.02,0v-16.81c0-.09-.01-.19.03-.28h-.06s0,0,0-.01c0-.01.01-.03.01-.04,0-4.98,0-9.95,0-14.93,0-.06,0-.12,0-.18.47.08.94.16,1.41.24.54.13,1.08.25,1.62.39.16.04.14-.05.14-.14,0-1.37-.01-2.74-.01-4.1,0-.12-.04-.18-.17-.21-.7-.18-1.4-.33-2.11-.43-.89-.13-1.79-.21-2.69-.25-1.15-.05-2.3-.04-3.45.04-1.09.07-2.17.2-3.24.43-.6.13-1.2.24-1.78.44-1.51.38-2.94.96-4.33,1.62-2.15,1.03-4.11,2.33-5.97,3.8-.34.27-.7.53-.99.87-.55-.62-1.15-1.19-1.77-1.74-1.74-1.55-3.67-2.81-5.83-3.74-2.31-.99-4.74-1.53-7.25-1.7-1.1-.07-2.2-.07-3.3-.01-1.35.07-2.68.22-4.01.48-1.76.34-3.44.93-5.04,1.7-.48.23-.99.42-1.44.71-.57.27-1.11.59-1.65.92-2.71,1.62-5.1,3.64-7.33,5.85-2.94,2.92-5.54,6.13-8.1,9.36-2.95,3.71-5.84,7.46-9.12,10.9h0c-.09-.04-.12-.13-.17-.2-1.18-1.7-2.25-3.45-3.25-5.26-1.39-2.52-2.74-5.05-4.13-7.57-1.43-2.59-2.97-5.12-4.79-7.47-1.37-1.77-2.9-3.4-4.66-4.81-2.04-1.62-4.29-2.86-6.8-3.65-.27-.09-.55-.16-.83-.24,0,1.43,0,2.82,0,4.22,0,.16.04.22.2.27.73.21,1.45.46,2.14.79,0,6.14,0,12.27,0,18.41,0,.09.01.19-.03.28,0,.09,0,.18,0,.27,0,4.53,0,9.06,0,13.59,0,.07.17.35.13.33.04.02.08.05.12.07,0,0-.01,0-.02-.01l-.21-.11s-.02,0-.03-.01c-.09-.03-.53-.2-.77-.23-.44-.04-.86-.12-1.27-.28-.19-.07-.21,0-.2.16,0,1.3,0,2.6,0,3.91,0,.16.05.21.19.25,1.24.38,2.51.62,3.82.67,1.98.08,3.94.02,5.9-.27,1.93-.28,3.8-.76,5.61-1.48.67-.27,1.33-.54,1.95-.91-.03-.04-.05-.04-.08-.04.03,0,.05,0,.08.04.73-.39,1.46-.77,2.16-1.2,1.6-.98,3.1-2.09,4.53-3.29.98,1.02,2.01,1.97,3.14,2.83,2.23,1.7,4.7,2.92,7.43,3.62,1.5.39,3.03.6,4.57.7,1.28.08,2.56.04,3.84-.06,1.15-.09,2.29-.27,3.42-.53.64-.15,1.29-.27,1.9-.52,1.04-.3,2.03-.69,3.01-1.13,2.38-1.07,4.54-2.47,6.57-4.08,2.51-1.99,4.74-4.27,6.84-6.66,2.18-2.48,4.21-5.06,6.26-7.64,2.1-2.65,4.18-5.31,6.48-7.81.46-.5.9-1.02,1.4-1.48.34.5.68.99,1.01,1.49,1.56,2.39,2.89,4.89,4.25,7.39,1.3,2.41,2.6,4.83,4.02,7.17,1.23,2.02,2.6,3.94,4.1,5.77.74.91,1.63,1.69,2.54,2.42,2.36,1.9,5,3.34,7.84,4.42.48.19.97.36,1.49.51,0-1.39,0-2.75,0-4.11,0-.16-.05-.23-.2-.28ZM5.77,94.28c0-4.62,0-9.25,0-13.87,0-.09,0-.18,0-.27.08-.09.05-.2.05-.3,0-5.35,0-10.7,0-16.04,0-.09,0-.18,0-.27-.25-.22-.51-.42-.78-.61.27.19.53.4.78.61.84.64,1.56,1.4,2.25,2.19,1,1.15,1.86,2.41,2.66,3.7.03.04.04.09.06.14.27.34.46.72.68,1.09-.22-.37-.41-.75-.68-1.09,0,.1-.01.19-.01.29,0,4.87,0,9.74,0,14.61,0,.1,0,.19-.01.29-.06.08-.03.17-.03.26,0,2.39,0,4.78,0,7.18,0,.62,0,1.24,0,1.86-.48.17-.98.22-1.48.29-1.16.16-2.32.24-3.49.23,0-.1,0-.19,0-.29ZM3.59,94.94c.06.03.11.06.17.09-.05-.02-.11-.06-.17-.09ZM18.66,90.59c-1.42.96-2.92,1.77-4.5,2.42-.02,0-.04,0-.07.01,0-.1,0-.21,0-.31,0-2.65,0-5.3,0-7.95.09-.07.05-.16.05-.25,0-2.67,0-5.35,0-8.02,0-.3,0-.59,0-.89-.01-.03-.02-.07-.04-.1.02.03.02.07.04.1.3.57.61,1.13.91,1.7,1.6,2.97,3.18,5.96,5.02,8.8.46.71.94,1.41,1.44,2.09.03.05.06.1.09.15-.95.79-1.92,1.55-2.94,2.24ZM39.39,74.39c1.92-2.37,3.92-4.66,6.1-6.8.02-.02.05-.03.07-.05,0,.1,0,.19,0,.29,0,4,0,8,0,12,0,.09,0,.18,0,.27,0,.08,0,.16,0,.24,0,4.48,0,8.97,0,13.45,0,.1,0,.19,0,.29-1.91.41-3.83.57-5.78.47-.14,0-.27-.02-.41-.03h0c0-.1,0-.19,0-.29,0-3.08,0-6.16,0-9.24,0-.09.03-.19-.05-.27,0-.04,0-.07,0-.11,0-3.3,0-6.6,0-9.9,0-.05,0-.1-.01-.15,0-.06.04-.11.08-.16ZM27.78,88.98c-.11-.11-.24-.2-.31-.34-.15-.1-.27-.21-.38-.34.11.13.24.25.38.34,1.3-1.3,2.51-2.67,3.71-4.06,1.6-1.87,3.12-3.8,4.65-5.72.05-.06.1-.11.15-.16,0,1.39,0,2.77,0,4.16,0,.62,0,1.24,0,1.86.05.09.03.19.03.28,0,2.91,0,5.81,0,8.72,0,.09,0,.18-.01.27-.82-.21-1.62-.48-2.4-.82-.1-.04-.2-.07-.29-.11-.03.04-.02.06,0,.07-.01-.01-.02-.03,0-.07-2.04-1.11-3.86-2.5-5.54-4.07ZM36.08,94.72c-.45-.25-.9-.5-1.35-.75.45.26.9.51,1.35.75.73.4,1.48.77,2.24,1.1-.76-.33-1.51-.7-2.24-1.1ZM46.04,97.58c.56.03,1.13.06,1.69.06-.56,0-1.13-.03-1.69-.06ZM51.59,91.79c-.86.47-1.74.91-2.66,1.26,0-.07,0-.15,0-.22,0-4.18,0-8.35,0-12.53,0-.07,0-.13,0-.2,0-.04,0-.09,0-.13,0-5.03,0-10.07,0-15.1,0-.06,0-.12-.01-.18.17-.23.43-.37.65-.53,1.63-1.19,3.38-2.18,5.25-2.96.11-.04.21-.12.34-.09,0,.09-.01.18-.01.26,0,3.36,0,6.73,0,10.09,0,1.87,0,3.74,0,5.61,0,0-.01.01-.01.02,0,2.1,0,4.2,0,6.3,0,2.01,0,4.02,0,6.03-1.12.88-2.3,1.67-3.55,2.36ZM63.4,81.14c-1.33,1.6-2.72,3.16-4.18,4.65-.22.23-.45.45-.68.68-.69.66-1.4,1.3-2.12,1.92.73-.62,1.43-1.27,2.12-1.92-.09-.07-.05-.16-.05-.25,0-1.96,0-3.92,0-5.88,0-1.09,0-2.17,0-3.26,0-.03,0-.06,0-.09,0-5.57,0-11.13,0-16.7,0-.06-.01-.12-.02-.17.4-.16.83-.19,1.25-.25,1.33-.19,2.67-.26,4.01-.23.32,0,.63.03.95.05,0,.1.01.19.01.29,0,3.04,0,6.08,0,9.11,0,.09,0,.18,0,.27,0,.04,0,.09,0,.13,0,3.3,0,6.59,0,9.89,0,.05,0,.1,0,.15-.4.56-.86,1.08-1.3,1.61ZM68.17,75.22s-.08.08-.12.13c0-.86,0-1.72,0-2.57,0-1.14,0-2.28,0-3.42,0-.08,0-.16,0-.24,0-2.28,0-4.56,0-6.84,0-.67,0-1.33,0-2,.64.13,1.25.36,1.85.6,1.14.45,2.2,1.04,3.22,1.71.01,0,.02.01.04.02.05.04.09.09.17.1,0-.05-.03-.08-.06-.09.03.01.05.04.06.09.24.19.48.37.72.56.84.65,1.62,1.37,2.34,2.14.04.04.06.08.09.12-1.76,1.79-3.42,3.66-5,5.6-1.11,1.35-2.21,2.71-3.29,4.09ZM89.52,78.12c-1.31-2.41-2.59-4.82-3.96-7.2-1.01-1.75-2.1-3.44-3.29-5.08.55-.43,1.1-.87,1.66-1.3,1.68-1.26,3.47-2.36,5.42-3.2.1-.04.21-.08.31-.12,0,.1,0,.19,0,.29,0,3.4,0,6.79,0,10.19,0,.09,0,.18,0,.27h0c-.05.07-.02.15-.02.22,0,2.67,0,2.42,0,5.09,0,.3,0,.59,0,.89,0,.02.02.04.02.06v.12c-.07-.11-.11-.18-.14-.24ZM97.82,81.7c0,2.65,0,5.3,0,7.95v.25c-.09.02-.11-.03-.15-.07-.6-.55-1.19-1.11-1.7-1.74-1.01-1.23-1.98-2.49-2.84-3.82-.08-.12-.11-.25-.11-.39,0-3.88,0-7.75,0-11.63,0-.07,0-.14,0-.21,0-.02,0-.05,0-.07,0,0,0,0,0,0,0-.07,0-.14,0-.21,0-3.86,0-7.72,0-11.59.73-.2,1.48-.3,2.23-.39.85-.11,1.7-.15,2.56-.15,0,.06,0,.12,0,.18,0,5.08,0,10.16,0,15.23,0,.01,0,.03,0,.04,0,2.2,0,4.41,0,6.61Z"/><path class="cls-6" d="M208.49,93.64c-.97-.31-1.91-.71-2.81-1.18-.14-.07-.2-.16-.22-.28,0,0,.01,0,.02,0,0-6.14,0-10.68,0-16.81,0-.09-.01-.19.03-.28h-.06s0,0,0-.01c0-.01.01-.03.01-.04,0-4.98,0-9.95,0-14.93,0-.06,0-.12,0-.18.47.08.94.16,1.41.24.54.13,1.08.25,1.62.39.16.04.14-.05.14-.14,0-1.37-.01-2.74-.01-4.1,0-.12-.04-.18-.17-.21-.7-.18-1.4-.33-2.11-.43-.89-.13-1.79-.21-2.69-.25-1.15-.05-2.3-.04-3.45.04-1.09.07-2.17.2-3.24.43-.6.13-1.2.24-1.78.44-1.51.38-2.94.96-4.33,1.62-2.15,1.03-4.11,2.33-5.97,3.8-.34.27-.7.53-.99.87-.55-.62-1.15-1.19-1.77-1.74-1.74-1.55-3.67-2.81-5.83-3.74-2.31-.99-4.74-1.53-7.25-1.7-1.1-.07-2.2-.07-3.3-.01-1.35.07-2.68.22-4.01.48-1.76.34-3.44.93-5.04,1.7-.48.23-.99.42-1.44.71-.57.27-1.11.59-1.65.92-2.71,1.62-5.1,3.64-7.33,5.85-2.94,2.92-5.54,6.13-8.1,9.36-2.95,3.71-5.84,7.46-9.12,10.9h0c-.09-.04-.12-.13-.17-.2-1.18-1.7-2.25-3.45-3.25-5.26-1.39-2.52-2.74-5.05-4.13-7.57-1.43-2.59-2.97-5.12-4.79-7.47-1.37-1.77-2.89-3.4-4.66-4.81-2.04-1.62-4.29-2.86-6.8-3.65-.27-.09-.55-.16-.83-.24,0,1.43,0,2.82,0,4.22,0,.16.04.22.2.27.73.21,1.45.46,2.14.79v18.41c0,.09.01.19-.03.28,0,.09,0,.18,0,.27,0,4.53,0,9.06,0,13.59,0,.07.17.35.13.33,1.07.12,2.15.24,3.23.24,0-.1,0-.19,0-.29,0-4.62,0-9.25,0-13.87,0-.09,0-.18,0-.27.08-.09.05-.2.05-.3,0-5.35,0-10.7,0-16.04,0-.09,0-.18,0-.27-.76-.65-1.58-1.2-2.46-1.65.88.46,1.7,1.01,2.46,1.65.84.64,1.56,1.4,2.25,2.19,1,1.15,1.86,2.41,2.66,3.7.03.04.04.09.06.14.27.34.46.72.68,1.09-.22-.37-.41-.75-.68-1.09,0,.1-.01.19-.01.29,0,4.87,0,9.74,0,14.61,0,.1,0,.19-.01.29-.06.08-.03.17-.03.26,0,2.39,0,4.78,0,7.18,0,.62,0,1.24,0,1.86-.48.17-.98.22-1.48.29-1.16.16-2.32.24-3.49.23-1.08,0-2.15-.12-3.23-.24.04.02.08.05.12.07,0,0-.01,0-.02-.01l-.21-.11s-.02,0-.03-.01c-.09-.03-.53-.2-.77-.23-.44-.04-.86-.12-1.27-.28-.19-.07-.21,0-.2.16,0,1.3,0,2.6,0,3.91,0,.16.05.21.19.25,1.24.38,2.51.62,3.82.67,1.98.08,3.94.02,5.9-.27,1.93-.28,3.8-.76,5.61-1.48.67-.27,1.33-.54,1.95-.91.73-.39,1.46-.77,2.16-1.2,1.6-.98,3.1-2.09,4.53-3.29.98,1.02,2.01,1.97,3.14,2.83,2.23,1.7,4.7,2.92,7.43,3.62,1.5.39,3.03.6,4.57.7,1.28.08,2.56.04,3.84-.06,1.15-.09,2.29-.27,3.42-.53.64-.15,1.29-.27,1.9-.52,1.04-.3,2.03-.69,3.01-1.13,2.38-1.07,4.54-2.47,6.57-4.08,2.51-1.99,4.74-4.27,6.84-6.66,2.18-2.48,4.21-5.06,6.26-7.64,2.1-2.65,4.18-5.31,6.47-7.81.46-.5.9-1.02,1.4-1.48.34.5.68.99,1.01,1.49,1.56,2.39,2.89,4.89,4.25,7.39,1.3,2.41,2.6,4.83,4.02,7.17,1.23,2.02,2.6,3.94,4.1,5.77.74.91,1.63,1.69,2.54,2.42,2.36,1.9,5,3.34,7.84,4.42.48.19.97.36,1.49.51,0-1.39,0-2.75,0-4.11,0-.16-.05-.23-.2-.28ZM107.88,94.94c.06.03.11.06.17.09-.05-.02-.11-.06-.17-.09ZM118.51,96.72c1.09-.14,2.17-.35,3.24-.63-1.07.28-2.14.49-3.24.63ZM122.95,90.59c-1.42.96-2.92,1.77-4.5,2.42-.02,0-.04,0-.07.01,0-.1,0-.21,0-.31,0-2.65,0-5.3,0-7.95.09-.07.05-.16.05-.25,0-2.67,0-5.35,0-8.02,0-.3,0-.59,0-.89-.01-.03-.02-.07-.04-.1.02.03.02.07.04.1.3.57.61,1.13.91,1.7,1.6,2.97,3.18,5.96,5.02,8.8.46.71.94,1.41,1.44,2.09.03.05.06.1.09.15-.95.79-1.92,1.55-2.94,2.24ZM141.76,94.3c.44.08.88.13,1.33.17-.44-.04-.89-.1-1.33-.17ZM137.61,93.06c-2.04-1.11-3.86-2.5-5.54-4.07-.11-.11-.24-.2-.31-.34-.15-.1-.27-.21-.38-.34.11.13.24.25.38.34,1.3-1.3,2.51-2.67,3.71-4.06,1.6-1.87,3.12-3.8,4.65-5.72.05-.06.1-.11.15-.16,0,1.39,0,2.77,0,4.16,0,.62,0,1.24,0,1.86.05.09.03.19.03.28,0,2.91,0,5.81,0,8.72,0,.09,0,.18-.01.27-.82-.21-1.62-.48-2.4-.82-.1-.04-.2-.07-.29-.11-.03.05-.02.07,0,.08-.02-.01-.03-.04,0-.08ZM137.62,93.14s.05.02.06.03c-.02-.01-.04-.02-.06-.03ZM160.31,88.73c.66-.55,1.3-1.12,1.93-1.71-.63.59-1.26,1.16-1.93,1.71ZM167.68,81.14c-1.33,1.6-2.72,3.16-4.18,4.65-.22.23-.45.45-.68.68-.09-.07-.05-.16-.05-.25,0-1.96,0-3.92,0-5.88,0-1.09,0-2.17,0-3.26-1.11,0-2.23,0-3.34,0,0,0-.01.01-.01.02,0,2.1,0,4.2,0,6.3,0,2.01,0,4.02,0,6.03-1.12.88-2.3,1.67-3.55,2.36-.86.47-1.74.91-2.66,1.26,0-.07,0-.15,0-.22,0-4.18,0-8.35,0-12.53,0-.07,0-.13,0-.2-1.11,0-2.22,0-3.33,0,0,.08,0,.16,0,.24,0,4.48,0,8.97,0,13.45,0,.1,0,.19,0,.29-1.91.41-3.83.57-5.78.47-.14,0-.27-.02-.41-.03,0-.1,0-.19,0-.29,0-3.08,0-6.16,0-9.24,0-.09.03-.19-.05-.27,0-.04,0-.07,0-.11,0-3.3,0-6.6,0-9.9,0-.05,0-.1-.01-.15,0-.06.04-.11.08-.16,1.92-2.37,3.92-4.66,6.1-6.8.02-.02.05-.03.07-.05,0,.1,0,.19,0,.29,0,4,0,8,0,12,0,.09,0,.18,0,.27,1.11,0,2.22,0,3.33,0,0-.04,0-.09,0-.13,0-5.03,0-10.07,0-15.1,0-.06,0-.12-.01-.18.17-.23.43-.37.65-.53,1.63-1.19,3.38-2.18,5.25-2.96.11-.04.21-.12.34-.09,0,.09-.01.18-.01.26,0,3.36,0,6.73,0,10.09,0,1.87,0,3.74,0,5.61,1.11,0,2.23,0,3.34,0,0-.03,0-.06,0-.09,0-5.57,0-11.13,0-16.7,0-.06-.01-.12-.02-.17.4-.16.83-.19,1.25-.25,1.33-.19,2.67-.26,4.01-.23.32,0,.63.03.95.05,0,.1.01.19.01.29,0,3.04,0,6.08,0,9.11,0,.09,0,.18,0,.27,0,.04,0,.09,0,.13,0,3.3,0,6.59,0,9.89,0,.05,0,.1,0,.15-.4.56-.86,1.08-1.3,1.61ZM172.45,75.22s-.08.08-.12.13c0-.86,0-1.72,0-2.57,0-1.14,0-2.28,0-3.42,0-.08,0-.16,0-.24,0-2.28,0-4.56,0-6.84,0-.67,0-1.33,0-2,.64.13,1.25.36,1.85.6,1.14.45,2.2,1.04,3.22,1.71.01,0,.02.01.04.02.05.04.09.09.17.1,0-.05-.03-.08-.06-.09.03.01.05.04.06.09.24.19.48.37.72.56.84.65,1.62,1.37,2.34,2.14.04.04.06.08.09.12-1.76,1.79-3.42,3.66-5,5.6-1.11,1.35-2.21,2.71-3.29,4.09ZM193.8,78.12c-1.31-2.41-2.59-4.82-3.96-7.2-1.01-1.75-2.1-3.44-3.29-5.08.55-.43,1.1-.87,1.66-1.3,1.68-1.26,3.47-2.36,5.41-3.2.1-.04.21-.08.31-.12,0,.1,0,.19,0,.29,0,3.4,0,6.79,0,10.19,0,.09,0,.18,0,.27h0c-.05.07-.02.15-.02.22,0,2.67,0,2.42,0,5.09,0,.3,0,.59,0,.89,0,.02.02.04.02.06,0,.04,0,.08,0,.12-.07-.11-.11-.18-.14-.24ZM202.1,81.7c0,2.65,0,5.3,0,7.95v.25c-.09.02-.11-.03-.15-.07-.6-.55-1.19-1.11-1.7-1.74-1.01-1.23-1.98-2.49-2.84-3.82-.08-.12-.11-.25-.11-.39,0-3.88,0-7.75,0-11.63,0-.07,0-.14,0-.21,0-.02,0-.05,0-.07,0,0,0,0,0,0,0-.07,0-.14,0-.21,0-3.86,0-7.72,0-11.59.73-.2,1.48-.3,2.23-.39.85-.11,1.7-.15,2.56-.15,0,.06,0,.12,0,.18,0,5.08,0,10.16,0,15.23,0,.01,0,.03,0,.04,0,2.2,0,4.41,0,6.61Z"/><path class="cls-6" d="M312.98,93.92c0-.16-.05-.23-.2-.28-.97-.31-1.91-.71-2.81-1.18-.14-.07-.2-.16-.22-.28,0,0,.01,0,.02,0,0-6.14,0-10.68,0-16.81,0-.09-.01-.19.03-.28h-.06s0,0,0-.01c0-.01.01-.03.01-.04,0-4.98,0-9.95,0-14.93,0-.06,0-.12,0-.18.47.08.94.16,1.41.24.54.13,1.08.25,1.62.39.16.04.14-.05.14-.14,0-1.37-.01-2.74-.01-4.1,0-.12-.04-.18-.17-.21-.7-.18-1.4-.33-2.11-.43-.89-.13-1.79-.21-2.69-.25-1.15-.05-2.3-.04-3.45.04-1.09.07-2.17.2-3.24.43-.6.13-1.2.24-1.78.44-1.51.38-2.94.96-4.33,1.62-2.15,1.03-4.11,2.33-5.97,3.8-.34.27-.7.53-.99.87-.55-.62-1.15-1.19-1.77-1.74-1.74-1.55-3.67-2.81-5.83-3.74-2.31-.99-4.74-1.53-7.25-1.7-1.1-.07-2.2-.07-3.3-.01-1.35.07-2.68.22-4.01.48-1.76.34-3.44.93-5.04,1.7-.48.23-.99.42-1.44.71-.57.27-1.11.59-1.65.92-2.71,1.62-5.1,3.64-7.33,5.85-2.94,2.92-5.54,6.13-8.1,9.36-2.95,3.71-5.84,7.46-9.12,10.9h0c-.09-.04-.12-.13-.17-.2-1.18-1.7-2.25-3.45-3.25-5.26-1.39-2.52-2.74-5.05-4.13-7.57-1.43-2.59-2.97-5.12-4.79-7.47-1.37-1.77-2.9-3.4-4.66-4.81-2.04-1.62-4.29-2.86-6.8-3.65-.27-.09-.55-.16-.83-.24,0,1.43,0,2.82,0,4.22,0,.16.04.22.2.27.73.21,1.45.46,2.14.79,0,6.14,0,12.27,0,18.41,0,.09.01.19-.03.28,0,.09,0,.18,0,.27,0,4.53,0,9.06,0,13.59,0,.07.17.35.13.33,1.07.12,2.15.24,3.23.24,0-.1,0-.19,0-.29,0-4.62,0-9.25,0-13.87,0-.09,0-.18,0-.27.08-.09.05-.2.05-.3,0-5.35,0-10.7,0-16.04,0-.09,0-.18,0-.27-.51-.43-1.04-.82-1.6-1.16.56.35,1.09.73,1.6,1.16.84.64,1.56,1.4,2.25,2.19,1,1.15,1.86,2.41,2.66,3.7.03.04.04.09.06.14.27.34.46.72.68,1.09-.22-.37-.41-.75-.68-1.09,0,.1-.01.19-.01.29,0,4.87,0,9.74,0,14.61,0,.1,0,.19-.01.29-.06.08-.03.17-.03.26,0,2.39,0,4.78,0,7.18,0,.62,0,1.24,0,1.86-.48.17-.98.22-1.48.29-1.16.16-2.32.24-3.49.23-1.08,0-2.15-.12-3.23-.24.04.02.08.05.12.07,0,0-.01,0-.02-.01l-.21-.11s-.02,0-.03-.01c-.09-.03-.53-.2-.77-.23-.44-.04-.86-.12-1.27-.28-.19-.07-.21,0-.2.16,0,1.3,0,2.6,0,3.91,0,.16.05.21.19.25,1.24.38,2.51.62,3.82.67,1.98.08,3.94.02,5.9-.27,1.93-.28,3.8-.76,5.61-1.48.67-.27,1.33-.54,1.95-.91.73-.39,1.45-.77,2.16-1.2,1.6-.98,3.1-2.09,4.53-3.29-.63-.69-1.25-1.4-1.83-2.14.58.73,1.2,1.44,1.83,2.14.98,1.02,2.01,1.97,3.14,2.83,2.23,1.7,4.7,2.92,7.43,3.62,1.5.39,3.03.6,4.57.7,1.28.08,2.56.04,3.84-.06,1.15-.09,2.29-.27,3.42-.53.64-.15,1.29-.27,1.9-.52,1.04-.3,2.03-.69,3.01-1.13,2.38-1.07,4.54-2.47,6.57-4.08,2.51-1.99,4.74-4.27,6.84-6.66,2.18-2.48,4.21-5.06,6.26-7.64,2.1-2.65,4.18-5.31,6.48-7.81.46-.5.9-1.02,1.4-1.48.34.5.68.99,1.01,1.49,1.56,2.39,2.89,4.89,4.25,7.39,1.3,2.41,2.6,4.83,4.02,7.17,1.23,2.02,2.6,3.94,4.1,5.77.74.91,1.63,1.69,2.54,2.42,2.36,1.9,5,3.34,7.84,4.42.48.19.97.36,1.49.51,0-1.39,0-2.75,0-4.11ZM212.16,94.94c.06.03.11.06.17.09-.05-.02-.11-.06-.17-.09ZM220.2,96.86c.87.01,1.73-.03,2.6-.14-.87.11-1.73.15-2.6.14ZM230.17,88.34c-.95.79-1.92,1.55-2.94,2.24-1.42.96-2.92,1.77-4.5,2.42-.02,0-.04,0-.07.01,0-.1,0-.21,0-.31,0-2.65,0-5.3,0-7.95.09-.07.05-.16.05-.25,0-2.67,0-5.35,0-8.02,0-.3,0-.59,0-.89-.01-.03-.02-.07-.04-.1.02.03.02.07.04.1.3.57.61,1.13.91,1.7,1.6,2.97,3.18,5.96,5.02,8.8.46.71.94,1.41,1.44,2.09.03.05.06.1.09.15.24.26.45.55.66.84-.21-.29-.42-.58-.66-.84ZM247.96,74.39c1.92-2.37,3.92-4.66,6.1-6.8.02-.02.05-.03.07-.05,0,.1,0,.19,0,.29,0,4,0,8,0,12,0,.09,0,.18,0,.27,0,.08,0,.16,0,.24,0,4.48,0,8.97,0,13.45,0,.1,0,.19,0,.29-1.91.41-3.83.57-5.78.47-.14,0-.27-.02-.41-.03,0-.1,0-.19,0-.29,0-3.08,0-6.16,0-9.24,0-.09.03-.19-.05-.27,0-.04,0-.07,0-.11,0-3.3,0-6.6,0-9.9,0-.05,0-.1-.01-.15,0-.06.04-.11.08-.16ZM246.67,94.39c.23.03.46.06.69.08-.23-.02-.46-.05-.69-.08ZM236.04,88.64c-.15-.1-.27-.21-.38-.34.11.13.24.25.38.34,1.3-1.3,2.51-2.67,3.71-4.06,1.6-1.87,3.12-3.8,4.65-5.72.05-.06.1-.11.15-.16,0,1.39,0,2.77,0,4.16,0,.62,0,1.24,0,1.86.05.09.03.19.03.28,0,2.91,0,5.81,0,8.72,0,.09,0,.18-.01.27-.82-.21-1.62-.48-2.4-.82-.1-.04-.2-.07-.29-.11-.02.02-.02.04-.02.05,0-.01,0-.03.02-.05-2.04-1.11-3.86-2.5-5.54-4.07-.11-.11-.24-.2-.31-.34ZM249.22,96.69c1.53.5,3.11.73,4.71.85-1.59-.12-3.17-.35-4.71-.85ZM260.16,91.79c-.86.47-1.74.91-2.66,1.26,0-.07,0-.15,0-.22,0-4.18,0-8.35,0-12.53,0-.07,0-.13,0-.2,0-.04,0-.09,0-.13,0-5.03,0-10.07,0-15.1,0-.06,0-.12-.01-.18.17-.23.43-.37.65-.53,1.63-1.19,3.38-2.18,5.25-2.96.11-.04.21-.12.34-.09,0,.09-.01.18-.01.26,0,3.36,0,6.73,0,10.09,0,1.87,0,3.74,0,5.61,0,0-.01.01-.01.02,0,2.1,0,4.2,0,6.3,0,2.01,0,4.02,0,6.03-1.12.88-2.3,1.67-3.55,2.36ZM265.33,88.1c.08-.07.16-.14.23-.21-.08.07-.16.14-.23.21ZM271.97,81.14c-1.33,1.6-2.72,3.16-4.18,4.65-.22.23-.45.45-.68.68-.09-.07-.05-.16-.05-.25,0-1.96,0-3.92,0-5.88,0-1.09,0-2.17,0-3.26,0-.03,0-.06,0-.09,0-5.57,0-11.13,0-16.7,0-.06-.01-.12-.02-.17.4-.16.83-.19,1.25-.25,1.33-.19,2.67-.26,4.01-.23.32,0,.63.03.95.05,0,.1.01.19.01.29,0,3.04,0,6.08,0,9.11,0,.09,0,.18,0,.27,0,.04,0,.09,0,.13,0,3.3,0,6.59,0,9.89,0,.05,0,.1,0,.15-.4.56-.86,1.08-1.3,1.61ZM276.74,75.22s-.08.08-.12.13c0-.86,0-1.72,0-2.57,0-1.14,0-2.28,0-3.42,0-.08,0-.16,0-.24,0-2.28,0-4.56,0-6.84,0-.67,0-1.33,0-2,.64.13,1.25.36,1.85.6,1.14.45,2.2,1.04,3.22,1.71.01,0,.02.01.04.02.05.04.09.09.17.1,0-.05-.03-.08-.06-.09.03.01.05.04.06.09.24.19.48.37.72.56.84.65,1.62,1.37,2.34,2.14.04.04.06.08.09.12-1.76,1.79-3.42,3.66-5,5.6-1.11,1.35-2.21,2.71-3.29,4.09ZM298.09,78.12c-1.31-2.41-2.59-4.82-3.96-7.2-1.01-1.75-2.1-3.44-3.29-5.08.55-.43,1.1-.87,1.66-1.3,1.68-1.26,3.47-2.36,5.41-3.2.1-.04.21-.08.31-.12,0,.1,0,.19,0,.29,0,3.4,0,6.79,0,10.19,0,.09,0,.18,0,.27h0c-.05.07-.02.15-.02.22,0,2.67,0,2.42,0,5.09,0,.3,0,.59,0,.89,0,.02.02.04.02.06v.12c-.07-.11-.11-.18-.14-.24ZM306.39,81.7c0,2.65,0,5.3,0,7.95v.25c-.09.02-.11-.03-.15-.07-.6-.55-1.19-1.11-1.7-1.74-1.01-1.23-1.98-2.49-2.84-3.82-.08-.12-.11-.25-.11-.39,0-3.88,0-7.75,0-11.63,0-.07,0-.14,0-.21,0-.02,0-.05,0-.07,0,0,0,0,0,0,0-.07,0-.14,0-.21,0-3.86,0-7.72,0-11.59.73-.2,1.48-.3,2.23-.39.85-.11,1.7-.15,2.56-.15,0,.06,0,.12,0,.18,0,5.08,0,10.16,0,15.23,0,.01,0,.03,0,.04,0,2.2,0,4.41,0,6.61Z"/></g><path class="cls-2" d="M50.95,58.34c.45-.3.96-.48,1.44-.71,1.61-.77,3.29-1.36,5.04-1.7,1.32-.26,2.66-.41,4.01-.48,1.1-.06,2.2-.06,3.3.01,2.51.17,4.94.7,7.25,1.7,2.16.93,4.09,2.19,5.83,3.74.62.55,1.22,1.12,1.77,1.74.53.54,1.02,1.1,1.49,1.68.4.5.79,1.02,1.19,1.53,1.19,1.63,2.28,3.33,3.29,5.08,1.37,2.37,2.66,4.79,3.96,7.2.04.07.08.13.14.24,0-.77,0-1.48,0-2.19,0-1.4,0-2.8,0-4.19h3.33c0,.09,0,.18,0,.26,0,3.88,0,7.75,0,11.63,0,.15.03.27.11.39.86,1.34,1.83,2.59,2.84,3.82.51.63,1.1,1.19,1.7,1.74.03.03.06.09.15.07v-.25c0-2.65,0-5.3,0-7.95,0-2.2,0-4.41,0-6.61,1.12,0,2.23,0,3.35,0,0,.1,0,.19,0,.29,0,5.56,0,11.13,0,16.69,0,.19.05.3.23.4.9.47,1.83.87,2.81,1.18.15.05.2.12.2.28,0,1.36,0,2.72,0,4.11-.51-.15-1-.32-1.49-.51-2.84-1.09-5.48-2.52-7.84-4.42-.91-.74-1.8-1.52-2.54-2.42-1.5-1.83-2.87-3.75-4.1-5.77-1.42-2.35-2.72-4.76-4.02-7.17-1.35-2.5-2.69-5-4.25-7.39-.33-.5-.67-1-1.01-1.49.01-.06-.02-.1-.05-.14-.74-.98-1.47-1.97-2.32-2.86-.11-.11-.16-.27-.33-.31-.03-.04-.06-.09-.09-.12-.73-.77-1.5-1.49-2.34-2.14-.24-.19-.48-.37-.72-.56-.02-.1-.08-.11-.17-.1-.01,0-.02-.01-.04-.02.02-.1-.06-.14-.12-.19-1.16-.83-2.4-1.54-3.71-2.13-1.32-.6-2.69-1.07-4.09-1.43-1.6-.41-3.23-.68-4.89-.82-.85-.07-1.71-.12-2.56-.16-.55-.03-1.11,0-1.66-.01-.61-.02-1.22.04-1.82.11-1.03.12-2.06.28-3.09.43-.07,0-.15.03-.21-.04Z"/><path class="cls-2" d="M48.3,97.64c-.75.03-1.51-.01-2.25-.06-1.83-.1-3.64-.32-5.39-.89-1.59-.51-3.11-1.18-4.57-1.98-.91-.5-1.81-1-2.68-1.55-.04-.02-.14-.02-.07-.11-2.04-1.11-3.86-2.5-5.54-4.07-.11-.11-.24-.2-.31-.34-.29-.19-.49-.48-.72-.72-.7-.74-1.32-1.55-1.91-2.38-.04-.05-.08-.11-.09-.18-.09-.04-.12-.13-.17-.2-1.18-1.7-2.25-3.45-3.25-5.26-1.39-2.52-2.74-5.05-4.13-7.57-1.43-2.59-2.97-5.12-4.79-7.47-1.37-1.77-2.9-3.4-4.66-4.81-2.04-1.62-4.29-2.86-6.8-3.65-.27-.09-.55-.16-.83-.24,0,1.43,0,2.82,0,4.22,0,.16.04.22.2.27.73.21,1.45.46,2.14.79,1.22.53,2.34,1.22,3.35,2.08.84.64,1.56,1.4,2.25,2.19,1,1.15,1.86,2.41,2.66,3.7.03.04.04.09.06.14.27.34.46.72.68,1.09.93,1.59,1.78,3.21,2.63,4.84.02.03.02.07.04.1.3.57.61,1.13.91,1.7,1.6,2.97,3.18,5.96,5.02,8.8.46.71.94,1.41,1.44,2.09.03.05.06.1.09.15.33.35.59.75.88,1.12.58.73,1.2,1.44,1.83,2.14.98,1.02,2.01,1.97,3.14,2.83,2.23,1.7,4.7,2.92,7.43,3.62,1.5.39,3.03.6,4.57.7,1.28.08,2.56.04,3.84-.06,1.15-.09,2.29-.27,3.42-.53.64-.15,1.29-.27,1.9-.52-.11,0-.21-.01-.32,0Z"/><path class="cls-2" d="M48.61,97.64c-.11,0-.21-.01-.32,0-.75.03-1.51-.01-2.25-.06-1.83-.1-3.64-.32-5.39-.89-1.59-.51-3.11-1.18-4.57-1.98-.91-.5-1.81-1-2.68-1.55-.04-.02-.14-.02-.07-.11.1.04.2.07.29.11.78.33,1.58.6,2.4.82.28.06.55.13.83.19.84.18,1.68.28,2.54.34.14,0,.27.02.41.03,1.95.1,3.88-.06,5.78-.47.07-.01.13-.03.2-.04,1.08-.26,2.14-.57,3.17-.99.92-.35,1.8-.79,2.66-1.26,1.25-.69,2.43-1.48,3.55-2.36,1.21-.91,2.31-1.93,3.4-2.96.23-.23.46-.45.68-.68,1.46-1.49,2.85-3.05,4.18-4.65.44-.53.9-1.05,1.3-1.61.06-.06.12-.13.18-.2.47-.58.94-1.17,1.41-1.75.59-.74,1.17-1.49,1.76-2.24.04-.04.09-.08.12-.13,1.08-1.37,2.18-2.74,3.29-4.09,1.59-1.94,3.24-3.81,5-5.6.17.05.23.2.33.31.86.89,1.58,1.88,2.32,2.86.03.04.06.08.05.14-.5.46-.94.98-1.4,1.48-2.29,2.5-4.37,5.16-6.48,7.81-2.05,2.58-4.08,5.17-6.26,7.64-2.1,2.39-4.33,4.67-6.84,6.66-2.03,1.61-4.19,3.01-6.57,4.08-.98.44-1.98.83-3.01,1.13Z"/><path class="cls-2" d="M27.47,88.64c-.29-.19-.49-.48-.72-.72-.7-.74-1.32-1.55-1.91-2.38-.04-.05-.08-.11-.09-.18,3.28-3.44,6.17-7.19,9.12-10.9,2.57-3.23,5.16-6.44,8.1-9.36,2.23-2.21,4.61-4.23,7.33-5.85.54-.32,1.08-.64,1.65-.92.06.07.14.05.21.04,1.03-.14,2.06-.31,3.09-.43.6-.07,1.21-.12,1.82-.11.55.01,1.11-.02,1.66.01.85.05,1.71.09,2.56.16,1.65.14,3.28.41,4.89.82,1.4.36,2.77.83,4.09,1.43,1.31.59,2.55,1.3,3.71,2.13.07.05.15.08.12.19-1.01-.68-2.08-1.26-3.22-1.71-.6-.24-1.21-.47-1.85-.6-.06-.04-.12-.05-.19-.07-1.04-.25-2.1-.43-3.17-.52-.32-.02-.63-.04-.95-.05-1.34-.04-2.68.04-4.01.23-.42.06-.85.1-1.25.25-.07,0-.15,0-.22.02-.88.18-1.74.45-2.59.75-.17.06-.37.08-.5.22-.13-.03-.23.05-.34.09-1.87.78-3.62,1.77-5.25,2.96-.23.17-.48.3-.65.53-.12.02-.2.1-.28.17-.71.56-1.4,1.14-2.08,1.74-.34.3-.66.62-.99.94-.02.02-.05.03-.07.05-2.18,2.14-4.18,4.43-6.1,6.8-.04.05-.07.09-.08.16-.07,0-.1.06-.13.11-.64.8-1.29,1.61-1.94,2.41-.43.54-.85,1.09-1.27,1.63-.05.05-.1.1-.15.16-1.53,1.92-3.05,3.85-4.65,5.72-1.19,1.39-2.41,2.77-3.71,4.06Z"/><path class="cls-2" d="M17.46,96.09c-1.07.28-2.14.49-3.24.63-1.15.15-2.31.17-3.46.11-1.37-.07-2.72-.31-4.04-.69-1.02-.29-2.01-.66-2.96-1.12-.35-.17-1-.57-1.09-.62,0,0-.01,0-.02-.01l-.21-.11s-.02,0-.03-.01c-.09-.03-.53-.2-.77-.23-.44-.04-.86-.12-1.27-.28-.19-.07-.21,0-.2.16,0,1.3,0,2.6,0,3.91,0,.16.05.21.19.25,1.24.38,2.51.62,3.82.67,1.98.08,3.94.02,5.9-.27,1.93-.28,3.8-.76,5.61-1.48.67-.27,1.33-.54,1.95-.91-.05-.08-.11-.02-.16,0Z"/><path class="cls-2" d="M2.56,94.33c1.07.12,2.15.24,3.23.24,0-.1,0-.19,0-.29,0-4.62,0-9.25,0-13.87,0-.09,0-.18,0-.27-1.11,0-2.22,0-3.33,0,0,.09,0,.18,0,.27,0,4.53,0,9.06,0,13.59,0,.07.17.35.13.33Z"/><path class="cls-2" d="M82.27,65.85c-.39-.51-.78-1.03-1.19-1.53-.47-.58-.97-1.14-1.49-1.68.29-.33.65-.59.99-.87,1.86-1.47,3.82-2.77,5.97-3.8,1.39-.67,2.83-1.24,4.33-1.62.07.07.16.04.24.04.64,0,1.27.02,1.91.08.81.07,1.62.16,2.42.33,1.09.23,2.15.54,3.15,1.01.95.45,1.85,1.01,2.74,1.57.42.27.84.54,1.25.81-.47-.08-.94-.16-1.41-.24-.11-.06-.24-.03-.35-.05-1-.15-2-.27-3.02-.26-.86,0-1.71.04-2.56.15-.75.09-1.5.2-2.23.39-1.16.25-2.27.62-3.36,1.07-.1.04-.21.07-.31.12-1.95.84-3.73,1.93-5.42,3.2-.56.42-1.11.86-1.66,1.3Z"/><path class="cls-2" d="M17.62,96.09c-.05-.08-.11-.02-.16,0-1.07.28-2.14.49-3.24.63-1.15.15-2.31.17-3.46.11-1.37-.07-2.72-.31-4.04-.69-1.02-.29-2.01-.66-2.96-1.12-.42-.2-.81-.45-1.21-.7,1.07.12,2.15.24,3.23.24,1.17,0,2.33-.07,3.49-.23.5-.07,1-.13,1.48-.29.28-.02.54-.1.81-.18.86-.23,1.71-.5,2.54-.85.02,0,.05,0,.07-.01,1.59-.65,3.08-1.47,4.5-2.42,1.02-.69,2-1.45,2.94-2.24.33.35.59.75.88,1.12.58.73,1.2,1.44,1.83,2.14-1.43,1.21-2.93,2.32-4.53,3.29-.7.43-1.43.81-2.16,1.2Z"/><path class="cls-2" d="M5.77,80.15c-1.11,0-2.22,0-3.33,0,.05-.09.03-.19.03-.28,0-6.14,0-12.27,0-18.41,1.22.53,2.34,1.22,3.35,2.08,0,.09,0,.18,0,.27,0,5.35,0,10.7,0,16.04,0,.1.03.21-.05.3Z"/><path class="cls-2" d="M97.81,59.63c1.02-.01,2.02.11,3.02.26.12.02.24-.01.35.05,0,.06,0,.12,0,.18,0,4.98,0,9.95,0,14.93,0,.01,0,.03-.01.04-1.12,0-2.23,0-3.35,0,0-.01,0-.03,0-.04,0-5.08,0-10.16,0-15.23,0-.06,0-.12,0-.18Z"/><path class="cls-2" d="M102.59,60.18c-.42-.27-.83-.54-1.25-.81-.89-.56-1.79-1.11-2.74-1.57-1-.48-2.07-.78-3.15-1.01-.8-.17-1.6-.26-2.42-.33-.64-.05-1.27-.07-1.91-.08-.08,0-.17.03-.24-.04.58-.2,1.18-.31,1.78-.44,1.07-.23,2.15-.36,3.24-.43,1.15-.08,2.3-.09,3.45-.04.9.04,1.8.12,2.69.25.71.1,1.41.26,2.11.43.13.03.17.09.17.21,0,1.37,0,2.74.01,4.1,0,.09.02.18-.14.14-.54-.14-1.08-.26-1.62-.39Z"/><path class="cls-2" d="M89.67,71.98c0-.09,0-.18,0-.27,0-3.4,0-6.79,0-10.19,0-.1,0-.19,0-.29,1.09-.44,2.2-.82,3.36-1.07,0,3.86,0,7.72,0,11.59,0,.07,0,.15,0,.22h-3.33Z"/><path class="cls-2" d="M73.31,62.71c-.07,0-.12-.06-.17-.1.08,0,.15,0,.17.1Z"/><path class="cls-2" d="M14.14,75.61c0,.3,0,.59,0,.89,0,2.67,0,5.35,0,8.02,0,.08.04.18-.05.25-.56,0-1.13,0-1.69,0-.54,0-1.08,0-1.62-.02,0-.1.01-.19.01-.29,0-4.87,0-9.74,0-14.61,0-.1,0-.19.01-.29.27.34.46.72.68,1.09.93,1.59,1.78,3.21,2.63,4.84.02.03.02.07.04.1Z"/><path class="cls-2" d="M45.57,94.08c0-.1,0-.19,0-.29,0-4.48,0-8.97,0-13.45,0-.08,0-.16,0-.24,1.11,0,2.22,0,3.33,0,0,.07,0,.13,0,.2,0,4.18,0,8.35,0,12.53,0,.07,0,.15,0,.22-1.03.42-2.09.73-3.17.99-.07.02-.13.03-.2.04Z"/><path class="cls-2" d="M58.49,77.08c0,1.09,0,2.17,0,3.26,0,1.96,0,3.92,0,5.88,0,.08-.04.18.05.25-1.09,1.03-2.2,2.05-3.4,2.96,0-2.01,0-4.02,0-6.03,0-2.1,0-4.2,0-6.3,0,0,0-.01.01-.02,1.11,0,2.23,0,3.34,0Z"/><path class="cls-2" d="M39.32,84.72c.08.08.05.18.05.27,0,3.08,0,6.16,0,9.24,0,.1,0,.19,0,.29-.85-.06-1.7-.17-2.54-.34-.28-.06-.55-.13-.83-.19,0-.09.01-.18.01-.27,0-2.91,0-5.81,0-8.72,0-.09.01-.19-.03-.28,1.11,0,2.22,0,3.33,0Z"/><path class="cls-2" d="M64.71,79.53c0-.05,0-.1,0-.15,0-3.3,0-6.59,0-9.89,0-.04,0-.09,0-.13,1.11,0,2.22,0,3.33,0,0,1.14,0,2.28,0,3.42,0,.86,0,1.72,0,2.57-.59.75-1.17,1.49-1.76,2.24-.46.59-.94,1.17-1.41,1.75-.06.07-.12.13-.18.2Z"/><path class="cls-2" d="M58.49,77.08c-1.11,0-2.23,0-3.34,0,0-1.87,0-3.74,0-5.61,0-3.36,0-6.73,0-10.09,0-.09,0-.18.01-.26.14-.14.33-.16.5-.22.85-.3,1.71-.57,2.59-.75.07-.02.15-.02.22-.02,0,.06.02.12.02.17,0,5.57,0,11.13,0,16.7,0,.03,0,.06,0,.09Z"/><path class="cls-2" d="M48.92,80.1c-1.11,0-2.22,0-3.33,0,0-.09,0-.18,0-.27,0-4,0-8,0-12,0-.1,0-.19,0-.29.33-.31.65-.64.99-.94.68-.6,1.37-1.18,2.08-1.74.09-.07.16-.16.28-.17,0,.06.01.12.01.18,0,5.03,0,10.07,0,15.1,0,.04,0,.09,0,.13Z"/><path class="cls-2" d="M68.04,69.36c-1.11,0-2.22,0-3.33,0,0-.09,0-.18,0-.27,0-3.04,0-6.08,0-9.11,0-.1,0-.19-.01-.29,1.07.09,2.12.27,3.17.52.07.02.13.03.19.07,0,.67,0,1.33,0,2,0,2.28,0,4.56,0,6.84,0,.08,0,.16,0,.24Z"/><path class="cls-2" d="M39.32,84.72c-1.11,0-2.22,0-3.33,0,0-.62,0-1.24,0-1.86,0-1.39,0-2.77,0-4.16.42-.54.84-1.09,1.27-1.63.64-.81,1.29-1.61,1.94-2.41.04-.05.06-.1.13-.11,0,.05.01.1.01.15,0,3.3,0,6.6,0,9.9,0,.04,0,.07,0,.11Z"/><path class="cls-2" d="M10.77,84.75c.54,0,1.08.01,1.62.02.56,0,1.13,0,1.69,0,0,2.65,0,5.3,0,7.95,0,.1,0,.21,0,.31-.82.35-1.67.61-2.54.85-.27.07-.53.16-.81.18,0-.62,0-1.24,0-1.86,0-2.39,0-4.78,0-7.18,0-.08-.03-.18.03-.26Z"/><path class="cls-2" d="M97.9,75.1h3.33c-.05.09-.03.19-.03.28v16.81c-1.22-.53-2.34-1.22-3.35-2.08,0-.09,0-.18,0-.27,0-5.35,0-9.1,0-14.45,0-.1-.03-.21.05-.3Z"/><path class="cls-2" d="M89.64,78.18c0-.3,0-.59,0-.89,0-2.67,0-2.42,0-5.09,0-.08-.04-.18.05-.25.56,0,1.13,0,1.69,0,.54,0,1.08,0,1.62.02,0,.1-.01.19-.01.29,0,4.87,0,6.81,0,11.68,0,.1,0,.19-.01.29-.27-.34-.46-.72-.68-1.09-.93-1.59-1.78-3.21-2.63-4.84-.02-.03-.02-.07-.04-.1Z"/><path class="cls-2" d="M155.23,58.34c.45-.3.96-.48,1.44-.71,1.61-.77,3.29-1.36,5.04-1.7,1.32-.26,2.66-.41,4.01-.48,1.1-.06,2.2-.06,3.3.01,2.51.17,4.94.7,7.25,1.7,2.16.93,4.09,2.19,5.83,3.74.62.55,1.22,1.12,1.77,1.74.53.54,1.02,1.1,1.49,1.68.4.5.79,1.02,1.19,1.53,1.19,1.63,2.28,3.33,3.29,5.08,1.37,2.37,2.66,4.79,3.96,7.2.04.07.08.13.14.24,0-.77,0-1.48,0-2.19,0-1.4,0-2.8,0-4.19h3.33c0,.09,0,.18,0,.26,0,3.88,0,7.75,0,11.63,0,.15.03.27.11.39.86,1.34,1.83,2.59,2.84,3.82.51.63,1.1,1.19,1.7,1.74.03.03.06.09.15.07v-.25c0-2.65,0-5.3,0-7.95,0-2.2,0-4.41,0-6.61,1.12,0,2.23,0,3.35,0,0,.1,0,.19,0,.29,0,5.56,0,11.13,0,16.69,0,.19.05.3.23.4.9.47,1.83.87,2.81,1.18.15.05.2.12.2.28,0,1.36,0,2.72,0,4.11-.51-.15-1-.32-1.49-.51-2.84-1.09-5.48-2.52-7.84-4.42-.91-.74-1.8-1.52-2.54-2.42-1.5-1.83-2.87-3.75-4.1-5.77-1.42-2.35-2.72-4.76-4.02-7.17-1.35-2.5-2.69-5-4.25-7.39-.33-.5-.67-1-1.01-1.49.01-.06-.02-.1-.05-.14-.74-.98-1.47-1.97-2.32-2.86-.11-.11-.16-.27-.33-.31-.03-.04-.06-.09-.09-.12-.73-.77-1.5-1.49-2.34-2.14-.24-.19-.48-.37-.72-.56-.02-.1-.08-.11-.17-.1-.01,0-.02-.01-.04-.02.02-.1-.06-.14-.12-.19-1.16-.83-2.4-1.54-3.71-2.13-1.32-.6-2.69-1.07-4.09-1.43-1.6-.41-3.23-.68-4.89-.82-.85-.07-1.71-.12-2.56-.16-.55-.03-1.11,0-1.66-.01-.61-.02-1.22.04-1.82.11-1.03.12-2.06.28-3.09.43-.07,0-.15.03-.21-.04Z"/><path class="cls-2" d="M152.58,97.64c-.75.03-1.51-.01-2.25-.06-1.83-.1-3.64-.32-5.39-.89-1.59-.51-3.11-1.18-4.57-1.98-.91-.5-1.81-1-2.68-1.55-.04-.02-.14-.02-.07-.11-2.04-1.11-3.86-2.5-5.54-4.07-.11-.11-.24-.2-.31-.34-.29-.19-.49-.48-.72-.72-.7-.74-1.32-1.55-1.91-2.38-.04-.05-.08-.11-.09-.18-.09-.04-.12-.13-.17-.2-1.18-1.7-2.25-3.45-3.25-5.26-1.39-2.52-2.74-5.05-4.13-7.57-1.43-2.59-2.97-5.12-4.79-7.47-1.37-1.77-2.89-3.4-4.66-4.81-2.04-1.62-4.29-2.86-6.8-3.65-.27-.09-.55-.16-.83-.24,0,1.43,0,2.82,0,4.22,0,.16.04.22.2.27.73.21,1.45.46,2.14.79,1.22.53,2.34,1.22,3.35,2.08.84.64,1.56,1.4,2.25,2.19,1,1.15,1.86,2.41,2.66,3.7.03.04.04.09.06.14.27.34.46.72.68,1.09.93,1.59,1.78,3.21,2.63,4.84.02.03.02.07.04.1.3.57.61,1.13.91,1.7,1.6,2.97,3.18,5.96,5.02,8.8.46.71.94,1.41,1.44,2.09.03.05.06.1.09.15.33.35.59.75.88,1.12.58.73,1.2,1.44,1.83,2.14.98,1.02,2.01,1.97,3.14,2.83,2.23,1.7,4.7,2.92,7.43,3.62,1.5.39,3.03.6,4.57.7,1.28.08,2.56.04,3.84-.06,1.15-.09,2.29-.27,3.42-.53.64-.15,1.29-.27,1.9-.52-.11,0-.21-.01-.32,0Z"/><path class="cls-2" d="M152.9,97.64c-.11,0-.21-.01-.32,0-.75.03-1.51-.01-2.25-.06-1.83-.1-3.64-.32-5.39-.89-1.59-.51-3.11-1.18-4.57-1.98-.91-.5-1.81-1-2.68-1.55-.04-.02-.14-.02-.07-.11.1.04.2.07.29.11.78.33,1.58.6,2.4.82.28.06.55.13.83.19.84.18,1.68.28,2.54.34.14,0,.27.02.41.03,1.95.1,3.88-.06,5.78-.47.07-.01.13-.03.2-.04,1.08-.26,2.14-.57,3.17-.99.92-.35,1.8-.79,2.66-1.26,1.25-.69,2.43-1.48,3.55-2.36,1.21-.91,2.31-1.93,3.4-2.96.23-.23.46-.45.68-.68,1.46-1.49,2.85-3.05,4.18-4.65.44-.53.9-1.05,1.3-1.61.06-.06.12-.13.18-.2.47-.58.94-1.17,1.41-1.75.59-.74,1.17-1.49,1.76-2.24.04-.04.09-.08.12-.13,1.08-1.37,2.18-2.74,3.29-4.09,1.59-1.94,3.24-3.81,5-5.6.17.05.23.2.33.31.86.89,1.58,1.88,2.32,2.86.03.04.06.08.05.14-.5.46-.94.98-1.4,1.48-2.29,2.5-4.37,5.16-6.47,7.81-2.05,2.58-4.08,5.17-6.26,7.64-2.1,2.39-4.33,4.67-6.84,6.66-2.03,1.61-4.19,3.01-6.57,4.08-.98.44-1.98.83-3.01,1.13Z"/><path class="cls-2" d="M131.75,88.64c-.29-.19-.49-.48-.72-.72-.7-.74-1.32-1.55-1.91-2.38-.04-.05-.08-.11-.09-.18,3.28-3.44,6.17-7.19,9.12-10.9,2.57-3.23,5.16-6.44,8.1-9.36,2.23-2.21,4.61-4.23,7.33-5.85.54-.32,1.08-.64,1.65-.92.06.07.14.05.21.04,1.03-.14,2.06-.31,3.09-.43.6-.07,1.21-.12,1.82-.11.55.01,1.11-.02,1.66.01.85.05,1.71.09,2.56.16,1.65.14,3.28.41,4.89.82,1.4.36,2.77.83,4.09,1.43,1.31.59,2.55,1.3,3.71,2.13.07.05.15.08.12.19-1.01-.68-2.08-1.26-3.22-1.71-.6-.24-1.21-.47-1.85-.6-.06-.04-.12-.05-.19-.07-1.04-.25-2.1-.43-3.17-.52-.32-.02-.63-.04-.95-.05-1.34-.04-2.68.04-4.01.23-.42.06-.85.1-1.25.25-.07,0-.15,0-.22.02-.88.18-1.74.45-2.59.75-.17.06-.37.08-.5.22-.13-.03-.23.05-.34.09-1.87.78-3.62,1.77-5.25,2.96-.23.17-.48.3-.65.53-.12.02-.2.1-.28.17-.71.56-1.4,1.14-2.08,1.74-.34.3-.66.62-.99.94-.02.02-.05.03-.07.05-2.18,2.14-4.18,4.43-6.1,6.8-.04.05-.07.09-.08.16-.07,0-.1.06-.13.11-.64.8-1.29,1.61-1.94,2.41-.43.54-.85,1.09-1.27,1.63-.05.05-.1.1-.15.16-1.53,1.92-3.05,3.85-4.65,5.72-1.19,1.39-2.41,2.77-3.71,4.06Z"/><path class="cls-2" d="M121.75,96.09c-1.07.28-2.14.49-3.24.63-1.15.15-2.31.17-3.46.11-1.37-.07-2.72-.31-4.04-.69-1.02-.29-2.01-.66-2.96-1.12-.35-.17-1-.57-1.09-.62,0,0-.01,0-.02-.01l-.21-.11s-.02,0-.03-.01c-.09-.03-.53-.2-.77-.23-.44-.04-.86-.12-1.27-.28-.19-.07-.21,0-.2.16,0,1.3,0,2.6,0,3.91,0,.16.05.21.19.25,1.24.38,2.51.62,3.82.67,1.98.08,3.94.02,5.9-.27,1.93-.28,3.8-.76,5.61-1.48.67-.27,1.33-.54,1.95-.91-.05-.08-.11-.02-.16,0Z"/><path class="cls-2" d="M106.84,94.33c1.07.12,2.15.24,3.23.24,0-.1,0-.19,0-.29,0-4.62,0-9.25,0-13.87,0-.09,0-.18,0-.27-1.11,0-2.22,0-3.33,0,0,.09,0,.18,0,.27,0,4.53,0,9.06,0,13.59,0,.07.17.35.13.33Z"/><path class="cls-2" d="M186.55,65.85c-.39-.51-.78-1.03-1.19-1.53-.47-.58-.97-1.14-1.49-1.68.29-.33.65-.59.99-.87,1.86-1.47,3.82-2.77,5.97-3.8,1.39-.67,2.83-1.24,4.33-1.62.07.07.16.04.24.04.64,0,1.27.02,1.91.08.81.07,1.62.16,2.42.33,1.09.23,2.15.54,3.15,1.01.95.45,1.85,1.01,2.74,1.57.42.27.84.54,1.25.81-.47-.08-.94-.16-1.41-.24-.11-.06-.24-.03-.35-.05-1-.15-2-.27-3.02-.26-.86,0-1.71.04-2.56.15-.75.09-1.5.2-2.23.39-1.16.25-2.27.62-3.36,1.07-.1.04-.21.07-.31.12-1.95.84-3.73,1.93-5.41,3.2-.56.42-1.11.86-1.66,1.3Z"/><path class="cls-2" d="M121.91,96.09c-.05-.08-.11-.02-.16,0-1.07.28-2.14.49-3.24.63-1.15.15-2.31.17-3.46.11-1.37-.07-2.72-.31-4.04-.69-1.02-.29-2.01-.66-2.96-1.12-.42-.2-.81-.45-1.21-.7,1.07.12,2.15.24,3.23.24,1.17,0,2.33-.07,3.49-.23.5-.07,1-.13,1.48-.29.28-.02.54-.1.81-.18.86-.23,1.71-.5,2.54-.85.02,0,.05,0,.07-.01,1.59-.65,3.08-1.47,4.5-2.42,1.02-.69,2-1.45,2.94-2.24.33.35.59.75.88,1.12.58.73,1.2,1.44,1.83,2.14-1.43,1.21-2.93,2.32-4.53,3.29-.7.43-1.43.81-2.16,1.2Z"/><path class="cls-2" d="M110.05,80.15c-1.11,0-2.22,0-3.33,0,.05-.09.03-.19.03-.28v-18.41c1.22.53,2.34,1.22,3.35,2.08,0,.09,0,.18,0,.27,0,5.35,0,10.7,0,16.04,0,.1.03.21-.05.3Z"/><path class="cls-2" d="M202.09,59.63c1.02-.01,2.02.11,3.02.26.12.02.24-.01.35.05,0,.06,0,.12,0,.18,0,4.98,0,9.95,0,14.93,0,.01,0,.03-.01.04-1.12,0-2.23,0-3.35,0,0-.01,0-.03,0-.04,0-5.08,0-10.16,0-15.23,0-.06,0-.12,0-.18Z"/><path class="cls-2" d="M206.88,60.18c-.42-.27-.83-.54-1.25-.81-.89-.56-1.79-1.11-2.74-1.57-1-.48-2.07-.78-3.15-1.01-.8-.17-1.6-.26-2.42-.33-.64-.05-1.27-.07-1.91-.08-.08,0-.17.03-.24-.04.58-.2,1.18-.31,1.78-.44,1.07-.23,2.15-.36,3.24-.43,1.15-.08,2.3-.09,3.45-.04.9.04,1.8.12,2.69.25.71.1,1.41.26,2.11.43.13.03.17.09.17.21,0,1.37,0,2.74.01,4.1,0,.09.02.18-.14.14-.54-.14-1.08-.26-1.62-.39Z"/><path class="cls-2" d="M193.96,71.98c0-.09,0-.18,0-.27,0-3.4,0-6.79,0-10.19,0-.1,0-.19,0-.29,1.09-.44,2.2-.82,3.36-1.07,0,3.86,0,7.72,0,11.59,0,.07,0,.15,0,.22h-3.33Z"/><path class="cls-2" d="M177.59,62.71c-.07,0-.12-.06-.17-.1.08,0,.15,0,.17.1Z"/><path class="cls-2" d="M118.43,75.61c0,.3,0,.59,0,.89,0,2.67,0,5.35,0,8.02,0,.08.04.18-.05.25-.56,0-1.13,0-1.69,0-.54,0-1.08,0-1.62-.02,0-.1.01-.19.01-.29,0-4.87,0-9.74,0-14.61,0-.1,0-.19.01-.29.27.34.46.72.68,1.09.93,1.59,1.78,3.21,2.63,4.84.02.03.02.07.04.1Z"/><path class="cls-2" d="M149.85,94.08c0-.1,0-.19,0-.29,0-4.48,0-8.97,0-13.45,0-.08,0-.16,0-.24,1.11,0,2.22,0,3.33,0,0,.07,0,.13,0,.2,0,4.18,0,8.35,0,12.53,0,.07,0,.15,0,.22-1.03.42-2.09.73-3.17.99-.07.02-.13.03-.2.04Z"/><path class="cls-2" d="M162.77,77.08c0,1.09,0,2.17,0,3.26,0,1.96,0,3.92,0,5.88,0,.08-.04.18.05.25-1.09,1.03-2.2,2.05-3.4,2.96,0-2.01,0-4.02,0-6.03,0-2.1,0-4.2,0-6.3,0,0,0-.01.01-.02,1.11,0,2.23,0,3.34,0Z"/><path class="cls-2" d="M143.61,84.72c.08.08.05.18.05.27,0,3.08,0,6.16,0,9.24,0,.1,0,.19,0,.29-.85-.06-1.7-.17-2.54-.34-.28-.06-.55-.13-.83-.19,0-.09.01-.18.01-.27,0-2.91,0-5.81,0-8.72,0-.09.01-.19-.03-.28,1.11,0,2.22,0,3.33,0Z"/><path class="cls-2" d="M168.99,79.53c0-.05,0-.1,0-.15,0-3.3,0-6.59,0-9.89,0-.04,0-.09,0-.13,1.11,0,2.22,0,3.33,0,0,1.14,0,2.28,0,3.42,0,.86,0,1.72,0,2.57-.59.75-1.17,1.49-1.76,2.24-.46.59-.94,1.17-1.41,1.75-.06.07-.12.13-.18.2Z"/><path class="cls-2" d="M162.77,77.08c-1.11,0-2.23,0-3.34,0,0-1.87,0-3.74,0-5.61,0-3.36,0-6.73,0-10.09,0-.09,0-.18.01-.26.14-.14.33-.16.5-.22.85-.3,1.71-.57,2.59-.75.07-.02.15-.02.22-.02,0,.06.02.12.02.17,0,5.57,0,11.13,0,16.7,0,.03,0,.06,0,.09Z"/><path class="cls-2" d="M153.2,80.1c-1.11,0-2.22,0-3.33,0,0-.09,0-.18,0-.27,0-4,0-8,0-12,0-.1,0-.19,0-.29.33-.31.65-.64.99-.94.68-.6,1.37-1.18,2.08-1.74.09-.07.16-.16.28-.17,0,.06.01.12.01.18,0,5.03,0,10.07,0,15.1,0,.04,0,.09,0,.13Z"/><path class="cls-2" d="M172.32,69.36c-1.11,0-2.22,0-3.33,0,0-.09,0-.18,0-.27,0-3.04,0-6.08,0-9.11,0-.1,0-.19-.01-.29,1.07.09,2.12.27,3.17.52.07.02.13.03.19.07,0,.67,0,1.33,0,2,0,2.28,0,4.56,0,6.84,0,.08,0,.16,0,.24Z"/><path class="cls-2" d="M143.61,84.72c-1.11,0-2.22,0-3.33,0,0-.62,0-1.24,0-1.86,0-1.39,0-2.77,0-4.16.42-.54.84-1.09,1.27-1.63.64-.81,1.29-1.61,1.94-2.41.04-.05.06-.1.13-.11,0,.05.01.1.01.15,0,3.3,0,6.6,0,9.9,0,.04,0,.07,0,.11Z"/><path class="cls-2" d="M115.06,84.75c.54,0,1.08.01,1.62.02.56,0,1.13,0,1.69,0,0,2.65,0,5.3,0,7.95,0,.1,0,.21,0,.31-.82.35-1.67.61-2.54.85-.27.07-.53.16-.81.18,0-.62,0-1.24,0-1.86,0-2.39,0-4.78,0-7.18,0-.08-.03-.18.03-.26Z"/><path class="cls-2" d="M202.18,75.1h3.33c-.05.09-.03.19-.03.28,0,6.14,0,10.68,0,16.81-1.22-.53-2.34-1.22-3.35-2.08,0-.09,0-.18,0-.27,0-5.35,0-9.1,0-14.45,0-.1-.03-.21.05-.3Z"/><path class="cls-2" d="M193.92,78.18c0-.3,0-.59,0-.89,0-2.67,0-2.42,0-5.09,0-.08-.04-.18.05-.25.56,0,1.13,0,1.69,0,.54,0,1.08,0,1.62.02,0,.1-.01.19-.01.29,0,4.87,0,6.81,0,11.68,0,.1,0,.19-.01.29-.27-.34-.46-.72-.68-1.09-.93-1.59-1.78-3.21-2.63-4.84-.02-.03-.02-.07-.04-.1Z"/><path class="cls-2" d="M259.52,58.34c.45-.3.96-.48,1.44-.71,1.61-.77,3.29-1.36,5.04-1.7,1.32-.26,2.66-.41,4.01-.48,1.1-.06,2.2-.06,3.3.01,2.51.17,4.94.7,7.25,1.7,2.16.93,4.09,2.19,5.83,3.74.62.55,1.22,1.12,1.77,1.74.53.54,1.02,1.1,1.49,1.68.4.5.79,1.02,1.19,1.53,1.19,1.63,2.28,3.33,3.29,5.08,1.37,2.37,2.66,4.79,3.96,7.2.04.07.08.13.14.24,0-.77,0-1.48,0-2.19,0-1.4,0-2.8,0-4.19h3.33c0,.09,0,.18,0,.26,0,3.88,0,7.75,0,11.63,0,.15.03.27.11.39.86,1.34,1.83,2.59,2.84,3.82.51.63,1.1,1.19,1.7,1.74.03.03.06.09.15.07v-.25c0-2.65,0-5.3,0-7.95,0-2.2,0-4.41,0-6.61,1.12,0,2.23,0,3.35,0,0,.1,0,.19,0,.29,0,5.56,0,11.13,0,16.69,0,.19.05.3.23.4.9.47,1.83.87,2.81,1.18.15.05.2.12.2.28,0,1.36,0,2.72,0,4.11-.51-.15-1-.32-1.49-.51-2.84-1.09-5.48-2.52-7.84-4.42-.91-.74-1.8-1.52-2.54-2.42-1.5-1.83-2.87-3.75-4.1-5.77-1.42-2.35-2.72-4.76-4.02-7.17-1.35-2.5-2.69-5-4.25-7.39-.33-.5-.67-1-1.01-1.49.01-.06-.02-.1-.05-.14-.74-.98-1.47-1.97-2.32-2.86-.11-.11-.17-.27-.33-.31-.03-.04-.06-.09-.09-.12-.73-.77-1.5-1.49-2.34-2.14-.24-.19-.48-.37-.72-.56-.02-.1-.08-.11-.17-.1-.01,0-.02-.01-.04-.02.02-.1-.06-.14-.12-.19-1.16-.83-2.4-1.54-3.71-2.13-1.32-.6-2.69-1.07-4.09-1.43-1.6-.41-3.23-.68-4.89-.82-.85-.07-1.71-.12-2.56-.16-.55-.03-1.11,0-1.66-.01-.61-.02-1.22.04-1.82.11-1.03.12-2.06.28-3.09.43-.07,0-.15.03-.21-.04Z"/><path class="cls-2" d="M256.86,97.64c-.75.03-1.51-.01-2.25-.06-1.83-.1-3.64-.32-5.39-.89-1.59-.51-3.11-1.18-4.57-1.98-.91-.5-1.81-1-2.68-1.55-.04-.02-.14-.02-.07-.11-2.04-1.11-3.86-2.5-5.54-4.07-.11-.11-.24-.2-.31-.34-.29-.19-.49-.48-.72-.72-.7-.74-1.32-1.55-1.91-2.38-.04-.05-.08-.11-.09-.18-.09-.04-.12-.13-.17-.2-1.18-1.7-2.25-3.45-3.25-5.26-1.39-2.52-2.74-5.05-4.13-7.57-1.43-2.59-2.97-5.12-4.79-7.47-1.37-1.77-2.9-3.4-4.66-4.81-2.04-1.62-4.29-2.86-6.8-3.65-.27-.09-.55-.16-.83-.24,0,1.43,0,2.82,0,4.22,0,.16.04.22.2.27.73.21,1.45.46,2.14.79,1.22.53,2.34,1.22,3.35,2.08.84.64,1.56,1.4,2.25,2.19,1,1.15,1.86,2.41,2.66,3.7.03.04.04.09.06.14.27.34.46.72.68,1.09.93,1.59,1.78,3.21,2.63,4.84.02.03.02.07.04.1.3.57.61,1.13.91,1.7,1.6,2.97,3.18,5.96,5.02,8.8.46.71.94,1.41,1.44,2.09.03.05.06.1.09.15.33.35.59.75.88,1.12.58.73,1.2,1.44,1.83,2.14.98,1.02,2.01,1.97,3.14,2.83,2.23,1.7,4.7,2.92,7.43,3.62,1.5.39,3.03.6,4.57.7,1.28.08,2.56.04,3.84-.06,1.15-.09,2.29-.27,3.42-.53.64-.15,1.29-.27,1.9-.52-.11,0-.21-.01-.32,0Z"/><path class="cls-2" d="M257.18,97.64c-.11,0-.21-.01-.32,0-.75.03-1.51-.01-2.25-.06-1.83-.1-3.64-.32-5.39-.89-1.59-.51-3.11-1.18-4.57-1.98-.91-.5-1.81-1-2.68-1.55-.04-.02-.14-.02-.07-.11.1.04.2.07.29.11.78.33,1.58.6,2.4.82.28.06.55.13.83.19.84.18,1.68.28,2.54.34.14,0,.27.02.41.03,1.95.1,3.88-.06,5.78-.47.07-.01.13-.03.2-.04,1.08-.26,2.14-.57,3.17-.99.92-.35,1.8-.79,2.66-1.26,1.25-.69,2.43-1.48,3.55-2.36,1.21-.91,2.31-1.93,3.4-2.96.23-.23.46-.45.68-.68,1.46-1.49,2.85-3.05,4.18-4.65.44-.53.9-1.05,1.3-1.61.06-.06.12-.13.18-.2.47-.58.94-1.17,1.41-1.75.59-.74,1.17-1.49,1.76-2.24.04-.04.09-.08.12-.13,1.08-1.37,2.18-2.74,3.29-4.09,1.59-1.94,3.24-3.81,5-5.6.17.05.23.2.33.31.86.89,1.58,1.88,2.32,2.86.03.04.06.08.05.14-.5.46-.94.98-1.4,1.48-2.29,2.5-4.37,5.16-6.48,7.81-2.05,2.58-4.08,5.17-6.26,7.64-2.1,2.39-4.33,4.67-6.84,6.66-2.03,1.61-4.19,3.01-6.57,4.08-.98.44-1.98.83-3.01,1.13Z"/><path class="cls-2" d="M236.04,88.64c-.29-.19-.49-.48-.72-.72-.7-.74-1.32-1.55-1.91-2.38-.04-.05-.08-.11-.09-.18,3.28-3.44,6.17-7.19,9.12-10.9,2.57-3.23,5.16-6.44,8.1-9.36,2.23-2.21,4.61-4.23,7.33-5.85.54-.32,1.08-.64,1.65-.92.06.07.14.05.21.04,1.03-.14,2.06-.31,3.09-.43.6-.07,1.21-.12,1.82-.11.55.01,1.11-.02,1.66.01.85.05,1.71.09,2.56.16,1.65.14,3.28.41,4.89.82,1.4.36,2.77.83,4.09,1.43,1.31.59,2.55,1.3,3.71,2.13.07.05.15.08.12.19-1.01-.68-2.08-1.26-3.22-1.71-.6-.24-1.21-.47-1.85-.6-.06-.04-.12-.05-.19-.07-1.04-.25-2.1-.43-3.17-.52-.32-.02-.63-.04-.95-.05-1.34-.04-2.68.04-4.01.23-.42.06-.85.1-1.25.25-.07,0-.15,0-.22.02-.88.18-1.74.45-2.59.75-.17.06-.37.08-.5.22-.13-.03-.23.05-.34.09-1.87.78-3.62,1.77-5.25,2.96-.23.17-.48.3-.65.53-.12.02-.2.1-.28.17-.71.56-1.4,1.14-2.08,1.74-.34.3-.66.62-.99.94-.02.02-.05.03-.07.05-2.18,2.14-4.18,4.43-6.1,6.8-.04.05-.07.09-.08.16-.07,0-.1.06-.13.11-.64.8-1.29,1.61-1.94,2.41-.43.54-.85,1.09-1.27,1.63-.05.05-.1.1-.15.16-1.53,1.92-3.05,3.85-4.65,5.72-1.19,1.39-2.41,2.77-3.71,4.06Z"/><path class="cls-2" d="M226.03,96.09c-1.07.28-2.14.49-3.24.63-1.15.15-2.31.17-3.46.11-1.37-.07-2.72-.31-4.04-.69-1.02-.29-2.01-.66-2.96-1.12-.35-.17-1-.57-1.09-.62,0,0-.01,0-.02-.01l-.21-.11s-.02,0-.03-.01c-.09-.03-.53-.2-.77-.23-.44-.04-.86-.12-1.27-.28-.19-.07-.21,0-.2.16,0,1.3,0,2.6,0,3.91,0,.16.05.21.19.25,1.24.38,2.51.62,3.82.67,1.98.08,3.94.02,5.9-.27,1.93-.28,3.8-.76,5.61-1.48.67-.27,1.33-.54,1.95-.91-.05-.08-.11-.02-.16,0Z"/><path class="cls-2" d="M211.12,94.33c1.07.12,2.15.24,3.23.24,0-.1,0-.19,0-.29,0-4.62,0-9.25,0-13.87,0-.09,0-.18,0-.27-1.11,0-2.22,0-3.33,0,0,.09,0,.18,0,.27,0,4.53,0,9.06,0,13.59,0,.07.17.35.13.33Z"/><path class="cls-2" d="M290.84,65.85c-.39-.51-.78-1.03-1.19-1.53-.47-.58-.97-1.14-1.49-1.68.29-.33.65-.59.99-.87,1.86-1.47,3.82-2.77,5.97-3.8,1.39-.67,2.83-1.24,4.33-1.62.07.07.16.04.24.04.64,0,1.27.02,1.91.08.81.07,1.62.16,2.42.33,1.09.23,2.15.54,3.15,1.01.95.45,1.85,1.01,2.74,1.57.42.27.84.54,1.25.81-.47-.08-.94-.16-1.41-.24-.11-.06-.24-.03-.35-.05-1-.15-2-.27-3.02-.26-.86,0-1.71.04-2.56.15-.75.09-1.5.2-2.23.39-1.16.25-2.27.62-3.36,1.07-.11.04-.21.07-.31.12-1.95.84-3.73,1.93-5.41,3.2-.56.42-1.11.86-1.66,1.3Z"/><path class="cls-2" d="M226.19,96.09c-.05-.08-.11-.02-.16,0-1.07.28-2.14.49-3.24.63-1.15.15-2.31.17-3.46.11-1.37-.07-2.72-.31-4.04-.69-1.02-.29-2.01-.66-2.96-1.12-.42-.2-.81-.45-1.21-.7,1.07.12,2.15.24,3.23.24,1.17,0,2.33-.07,3.49-.23.5-.07,1-.13,1.48-.29.28-.02.54-.1.81-.18.86-.23,1.71-.5,2.54-.85.02,0,.05,0,.07-.01,1.59-.65,3.08-1.47,4.5-2.42,1.02-.69,2-1.45,2.94-2.24.33.35.59.75.88,1.12.58.73,1.2,1.44,1.83,2.14-1.43,1.21-2.93,2.32-4.53,3.29-.7.43-1.43.81-2.16,1.2Z"/><path class="cls-2" d="M214.34,80.15c-1.11,0-2.22,0-3.33,0,.05-.09.03-.19.03-.28,0-6.14,0-12.27,0-18.41,1.22.53,2.34,1.22,3.35,2.08,0,.09,0,.18,0,.27,0,5.35,0,10.7,0,16.04,0,.1.03.21-.05.3Z"/><path class="cls-2" d="M306.38,59.63c1.02-.01,2.02.11,3.02.26.12.02.24-.01.35.05,0,.06,0,.12,0,.18,0,4.98,0,9.95,0,14.93,0,.01,0,.03-.01.04-1.12,0-2.23,0-3.35,0,0-.01,0-.03,0-.04,0-5.08,0-10.16,0-15.23,0-.06,0-.12,0-.18Z"/><path class="cls-2" d="M311.16,60.18c-.42-.27-.83-.54-1.25-.81-.89-.56-1.79-1.11-2.74-1.57-1-.48-2.07-.78-3.15-1.01-.8-.17-1.6-.26-2.42-.33-.64-.05-1.27-.07-1.91-.08-.08,0-.17.03-.24-.04.58-.2,1.18-.31,1.78-.44,1.07-.23,2.15-.36,3.24-.43,1.15-.08,2.3-.09,3.45-.04.9.04,1.8.12,2.69.25.71.1,1.41.26,2.11.43.13.03.17.09.17.21,0,1.37,0,2.74.01,4.1,0,.09.02.18-.14.14-.54-.14-1.08-.26-1.62-.39Z"/><path class="cls-2" d="M298.24,71.98c0-.09,0-.18,0-.27,0-3.4,0-6.79,0-10.19,0-.1,0-.19,0-.29,1.09-.44,2.2-.82,3.36-1.07,0,3.86,0,7.72,0,11.59,0,.07,0,.15,0,.22h-3.33Z"/><path class="cls-2" d="M281.88,62.71c-.07,0-.12-.06-.17-.1.08,0,.15,0,.17.1Z"/><path class="cls-2" d="M222.71,75.61c0,.3,0,.59,0,.89,0,2.67,0,5.35,0,8.02,0,.08.04.18-.05.25-.56,0-1.13,0-1.69,0-.54,0-1.08,0-1.62-.02,0-.1.01-.19.01-.29,0-4.87,0-9.74,0-14.61,0-.1,0-.19.01-.29.27.34.46.72.68,1.09.93,1.59,1.78,3.21,2.63,4.84.02.03.02.07.04.1Z"/><path class="cls-2" d="M254.14,94.08c0-.1,0-.19,0-.29,0-4.48,0-8.97,0-13.45,0-.08,0-.16,0-.24,1.11,0,2.22,0,3.33,0,0,.07,0,.13,0,.2,0,4.18,0,8.35,0,12.53,0,.07,0,.15,0,.22-1.03.42-2.09.73-3.17.99-.07.02-.13.03-.2.04Z"/><path class="cls-2" d="M267.05,77.08c0,1.09,0,2.17,0,3.26,0,1.96,0,3.92,0,5.88,0,.08-.04.18.05.25-1.09,1.03-2.2,2.05-3.4,2.96,0-2.01,0-4.02,0-6.03,0-2.1,0-4.2,0-6.3,0,0,0-.01.01-.02,1.11,0,2.23,0,3.34,0Z"/><path class="cls-2" d="M247.89,84.72c.08.08.05.18.05.27,0,3.08,0,6.16,0,9.24,0,.1,0,.19,0,.29-.85-.06-1.7-.17-2.54-.34-.28-.06-.55-.13-.83-.19,0-.09.01-.18.01-.27,0-2.91,0-5.81,0-8.72,0-.09.01-.19-.03-.28,1.11,0,2.22,0,3.33,0Z"/><path class="cls-2" d="M273.27,79.53c0-.05,0-.1,0-.15,0-3.3,0-6.59,0-9.89,0-.04,0-.09,0-.13,1.11,0,2.22,0,3.33,0,0,1.14,0,2.28,0,3.42,0,.86,0,1.72,0,2.57-.59.75-1.17,1.49-1.76,2.24-.46.59-.94,1.17-1.41,1.75-.06.07-.12.13-.18.2Z"/><path class="cls-2" d="M267.05,77.08c-1.11,0-2.23,0-3.34,0,0-1.87,0-3.74,0-5.61,0-3.36,0-6.73,0-10.09,0-.09,0-.18.01-.26.14-.14.33-.16.5-.22.85-.3,1.71-.57,2.59-.75.07-.02.15-.02.22-.02,0,.06.02.12.02.17,0,5.57,0,11.13,0,16.7,0,.03,0,.06,0,.09Z"/><path class="cls-2" d="M257.49,80.1c-1.11,0-2.22,0-3.33,0,0-.09,0-.18,0-.27,0-4,0-8,0-12,0-.1,0-.19,0-.29.33-.31.64-.64.99-.94.68-.6,1.37-1.18,2.08-1.74.09-.07.16-.16.28-.17,0,.06.01.12.01.18,0,5.03,0,10.07,0,15.1,0,.04,0,.09,0,.13Z"/><path class="cls-2" d="M276.6,69.36c-1.11,0-2.22,0-3.33,0,0-.09,0-.18,0-.27,0-3.04,0-6.08,0-9.11,0-.1,0-.19-.01-.29,1.07.09,2.12.27,3.17.52.07.02.13.03.19.07,0,.67,0,1.33,0,2,0,2.28,0,4.56,0,6.84,0,.08,0,.16,0,.24Z"/><path class="cls-2" d="M247.89,84.72c-1.11,0-2.22,0-3.33,0,0-.62,0-1.24,0-1.86,0-1.39,0-2.77,0-4.16.42-.54.84-1.09,1.27-1.63.64-.81,1.29-1.61,1.94-2.41.04-.05.06-.1.13-.11,0,.05.01.1.01.15,0,3.3,0,6.6,0,9.9,0,.04,0,.07,0,.11Z"/><path class="cls-2" d="M219.34,84.75c.54,0,1.08.01,1.62.02.56,0,1.13,0,1.69,0,0,2.65,0,5.3,0,7.95,0,.1,0,.21,0,.31-.82.35-1.67.61-2.54.85-.27.07-.53.16-.81.18,0-.62,0-1.24,0-1.86,0-2.39,0-4.78,0-7.18,0-.08-.03-.18.03-.26Z"/><path class="cls-2" d="M306.46,75.1h3.33c-.05.09-.03.19-.03.28,0,6.14,0,10.68,0,16.81-1.22-.53-2.34-1.22-3.35-2.08,0-.09,0-.18,0-.27,0-5.35,0-9.1,0-14.45,0-.1-.03-.21.05-.3Z"/><path class="cls-2" d="M298.21,78.18c0-.3,0-.59,0-.89,0-2.67,0-2.42,0-5.09,0-.08-.04-.18.05-.25.56,0,1.13,0,1.69,0,.54,0,1.08,0,1.62.02,0,.1-.01.19-.01.29,0,4.87,0,6.81,0,11.68,0,.1,0,.19-.01.29-.27-.34-.46-.72-.68-1.09-.93-1.59-1.78-3.21-2.63-4.84-.02-.03-.02-.07-.04-.1Z"/></g></g></svg>