<?xml version="1.0" encoding="UTF-8"?><svg id="Ebene_2" xmlns="http://www.w3.org/2000/svg" viewBox="0 0 353.29 328.36"><defs><style>.cls-1{fill:#c2dee0;}.cls-2{fill:none;stroke:#e9eaed;stroke-linecap:round;stroke-linejoin:round;stroke-width:.69px;}</style></defs><g id="Ebene_1-2"><path class="cls-2" d="M222.82,28.07c-1.11-11.23-7.59-20.79-16.34-25.17-5.23-2.62-11.28-3.39-17.48-1.56-.04.13-.02.24.07.32,0,0,.02.01.03.02.09.07.3.2.34.2.14,0,1.29-.46,1.73-.5,5.04-.52,9.87.44,14.11,2.56,8.12,4.08,14.05,12.46,15.06,23.1,2.16,22.78-12.8,42.19-31.17,51.29-32.93,16.31-69.44,3.06-103.5,10.34C41.46,98.11,2.41,144.23.41,194.66c-1.16,29.23,12.49,54.15,34.11,64.98.55.27,1.11.53,1.67.79,2.86,1.32,5.84,2.41,8.95,3.22,5.76,1.5,11.92,2.09,18.39,1.64l-.14-.22-12.04-19.06c-4.42-.77-8.62-2.29-12.52-4.43-.47-.25-.92-.53-1.37-.79-11.45-6.87-19.94-19.29-22.57-34.39-6.84-39.36,19.6-82.17,51.8-100.21,38.55-21.6,80.53-2.9,119.38-20.84,20.88-9.64,39.31-31.22,36.74-57.28Z"/><path class="cls-2" d="M345.64,231.63c-.37-.17-1.41-2.11-1.86-2.64-3.02-3.55-8.04-4.87-12.12-2.43-1.45,3.38-3,6.68-4.77,9.9,2.85,2.64,5.47,5.64,7.37,9.04.31.56,2.31,4.72,2.29,4.99-.09,1.07-.83-.52-.96-.69-3.1-3.79-6.99-6.89-11.39-9.06-.11.96-.61.76-.68.84-.19.22-1.13,1.59-1.12,1.81,0,.15.99,1.71,1.16,2.15,1.62,4.06-1.09,10.98,3.37,13.24.47.24,2.04.61.47.69-2.76.13-4.68-2.62-5.54-4.9-.58-1.54-1.26-6-2.31-6.92-.2-.18-.43-.31-.68-.43-1.76,2.4-4.05,4.4-6.24,6.39-.49.63.14,1.6.23,2.3.8,6.32-3.47,12.29,1.79,17.27.23.22.57.1.21.55-3.23-1.33-4.67-4.13-5.19-7.4-.35-2.22-.15-4.67-.49-6.89-.05-.33-.43-2.38-.71-2.34l-7.07,5.37c1.12,2.22,1.09,4.88.36,7.23-1.73,5.57-8.53,9.17-7.23,15.58l.64,1.95c-2.52-2.25-2.37-6.27-1.28-9.21,1.18-3.19,3.83-6.65,3.8-10.05,0-.73-.25-2.71-1.2-2.7-.35,0-2.99,1.81-3.57,2.1-.29.15-.86.24-1.28.46-.67.34-4.26,2-4.47,2.25-.42.52-.88,2.91-1.26,3.75-4.02,8.89-14.04,13.97-15.51,24.09-.37-1.05-.19-2.69.03-3.8,1.67-8.3,8.94-13.73,11.06-21.78-.9.38-1.85.61-2.77.93-1.34.46-2.76,1.15-4.16,1.58-.68.21-3.26.61-3.65.99-.43.43-.63,2.11-.96,2.84-3.88,8.64-15.21,7.66-15.65,19.1-.01.33.21,2.35.07,2.39-.34-.1-.3-.38-.39-.64-.99-2.7-.29-7.29,1.05-9.81,2.63-4.96,8.49-7.03,10.48-12.31l-19.12,3.77c-.32.18-.69,3.18-.98,3.87-1.33,3.25-4.67,5.42-6.55,8.36-1.87,2.94-2.94,7.18-2.99,10.64-.02,1.04.27,2.07.09,3.07-.28.08-.81-2.01-.87-2.3-.97-4.47-.14-10.5,1.9-14.6.73-1.47,4.22-5.88,3.72-7.27-.08-.22-.43-.64-.65-.72-.39-.14-4.6.68-5.41.8-.59.09-2.36.06-2.78.39-.26.21-.51,1.52-.78,2.02-2.18,4.03-6.7,6.01-8.57,10.45-1.1,2.59-1.27,5.39-.99,8.14.03.31.52,1.4.08,1.56-.31.11-.73-2.13-1.11-2.33-1.15-4.69-.52-9.39,2.02-13.57.78-1.29,2.01-2.55,2.77-3.82.11-.18,1.04-1.73.45-1.79-2.89.6-5.84.78-8.76,1.18-1.75.24-3.67.41-5.44.71-1.48.25-1.78.26-2.94,1.3-4.32,3.89-6.71,9.92-10.86,14.09-.85.86-4.68,3.99-5.79,3.86-.24-.03-.3-.22-.11-.38.38-.31,1.24-.63,1.76-1.07,1.81-1.5,3.24-3.58,4.64-5.47l5.47-11.01c-4,.38-7.97,1.19-11.9,2.04-4.73,4.28-8.31,9.73-10.59,15.72-.25-.3-.15-.79-.11-1.14.54-4.52,2.38-9.15,4.42-13.19-1.2-.01-2.29.6-3.43.88-2.79.69-9.09,1.91-11.34,3.57-3.45,2.54-6.55,7.06-7.92,11.1-.31.91-.33,1.9-.73,2.76-.63.17-.4-1.42-.39-1.75.09-3.41,1.21-7.01,2.67-10.07-.32-.32-.33-.06-.49,0-4.3,1.54-8.7,2.16-11.91,5.55-6.83,7.23-9.04,18.97-18.87,23.2-.16-.22.23-.46.39-.58,7.5-6.13,7.59-10.8,11.41-18.93.47-1.01,1.17-1.94,1.64-2.95.09-.19.39-.5-.02-.54-.46-.05-3.62,1.15-4.37,1.36-2.87.8-5.8,1.43-8.7,2.11-.4.28-1.35,3.33-1.72,4.08-4.06,8.45-11.74,15.4-20.93,17.45,3.11-1.87,6.23-3.65,8.82-6.25,3.39-3.38,7.15-9.21,7.89-13.99.03-.21.24-.23-.14-.37-3.81.59-7.66.7-11.51.69-1.07,1.64-1.84,3.22-3.04,4.78-3.9,5.07-10.18,9.2-16.48,10.33-.16-.26.22-.43.4-.53.61-.36,1.39-.65,2.04-1.05,5.37-3.24,9.65-7.91,11.65-13.97-1.16-.11-2.35-.23-3.5-.43-1.01-.18-4.92-1.26-5.53-1.05-.63.22-2.03,2.09-2.67,2.71-3.64,3.49-9.42,6.78-14.3,8.07-.35.09-1.38.18-.73-.39.77-.67,2.46-1.41,3.4-2.08,3.65-2.59,6.68-6.01,8.96-9.87l-9.54-4.21c-1.07-.64-2.21-1.19-3.29-1.82-1.97-1.15-2.02-2.13-4.48-.77-.21.11-.31.48-.46.54-4.3,1.64-9.38,2.65-13.85,4.08l-2.92.38c-.07-.29,4.6-2.45,5.17-2.75,2.12-1.11,4.38-2.28,6.44-3.6,1.19-.76,2.35-1.6,3.51-2.4l-9.4-8.55c-1.32.51-2.69.9-3.99,1.44-2.72,1.14-5,2.6-7.52,4.08-.24.14-.2.43-.59.1,2.42-2.95,5.43-5.41,8.49-7.66.39-.29,1.01-.35,1.17-.9l-6.26-9.01-.59-.1c-3.73,1.26-7.24,3.11-10.91,4.49-3.66,1.38-7.9,2.53-11.81,2.07-.59-.07-3.34-.69-1.45-.74,8.7-.24,12.5-3.69,19.68-7.8.79-.45,3-1.05,2.86-2.11l-2.75-6.51c-.3-.25-4.04.26-5.17.35l-11.07-15.29c-3.87-.74-7.58-2.06-11.04-3.86,7.1,3.61,15.25,5.2,23.64,3.99l-.4-3.87c-4.41-1.62-8.41-4.24-10.87-8.32-2.52-4.18-3.47-11.71-9.41-12.53-.63-.09-1.16.12-1.73-.04,1.23-1.02,3.27-.57,4.62.02,5.55,2.4,6.33,8.11,10.3,11.89,1.74,1.66,4.51,3.3,6.91,3.53l.62-9.96c-.15-.3-2.01-.8-2.52-1.05-2.76-1.35-5.02-3.17-6.15-6.1.13-.38.28-.2.49,0,2.11,1.92,3.44,2.81,6.41,2.95,1.13.06,2.24.14,2.68-1.01.44-1.17.71-3.25,1.06-4.58.32-1.2.78-2.37,1.13-3.56-3.77-1.39-6.96-3.36-9.79-6.21-.33-.66-2.79-3.86-2.76-4.31.06-1.01,1.03.64,1.27.87,2.6,2.52,6.17,4.35,9.75,4.93.6.1,2.53.28,3.05.19.28-.05.44-.22.6-.44.96-2.4,2.18-4.69,3.42-6.96-4.74-3.78-9.62-7.91-13.24-12.8-.11-.15-1.18-1.55-.76-1.64,5.09,4.26,11.02,7.45,17.25,9.75l6.03-7.34c-3.32-1.99-6.86-5.99-7.58-9.88-.05-.27-.25-.49,0-.75,1.16,1.47,2.28,3.05,3.78,4.22,1.75,1.36,5.4,3.06,7.65,2.77,1.08-.14,4.16-2.84,5.3-3.64,1.01-.71,3.18-1.75,3.96-2.53.15-.15.25-.32.34-.51-2.9-1.48-5.09-4.07-6.74-6.82l-.52-1.71c3.09,3.65,9.15,6.52,13.94,5.17,1.15-.32,2.29-1.18,3.36-1.62,1.68-.7,3.82-1.3,5.41-2.04.22-.1.39-.39.67-.44-4.99-4.82-7.67-12.77-15.27-14.15,3.84-.87,7.84,1.95,10.72,4.29,2.59,2.11,7.81,8.02,11.22,7.66l9.46-2.58c-2.38-2.78-4.68-5.67-6.8-8.66-1.16-1.63-2.97-4.07-3.86-5.78-.11-.21-.3-.44-.21-.7,5.4,4.92,10.72,10.01,16.98,13.87l10.92-2.05c-4.2-4.01-4.06-12.13-9.75-14.63-.99-.44-2.2-.56-3.26-.31,1-.9,3.35-.52,4.54-.03,6.43,2.63,7,11.69,13.69,14.17l13.71-1.68c-2.58-3.86-4.88-7.85-6.84-12.06l-.78-2.35c1.76,2.16,3.34,4.47,5.18,6.57,2.22,2.55,4.65,4.94,7.26,7.09,3.69-.13,7.36-.73,11.03-1.18.25-.29.04-.24-.05-.39-.59-1-1.38-2-1.97-3.02-2.13-3.69-4-7.67-5.57-11.63-.28-.71-1.09-3.68-1.34-3.96l.02-.42c.63.15.65.54.96.96,2.02,2.74,3.76,5.96,5.82,8.8.76,1.05.93,1.42,1.91,2.35.04.04.12.05.16.09-.07.67.51.81.87,1.13.05.04.12.05.16.09-.38.23.78,1.43,1,1.59.23.18.42.05.44.06.09.07.22.11.33.18-.35.4.06.44.26.68.75.89,2.32,2.86,3.47,2.99.08,0,1.29-.16,1.81-.25.89-3.51,1.75-7.87-.28-10.95-.49-.73-1.29-1.46-2.25-2.25-1.04-.86-2.19-1.76-2.98-2.97-1.71-2.49-1.03-5.53.63-7.75-.41,1.7-.49,3.49.46,4.9.56.82,1.36,1.24,2.31,1.58,1.85.66,3.53.99,5.46,2.17,4.05,2.46,6.12,7.19,7.13,11.6.05.22.1.47.16.71,1.12-.38,2.6-.95,3-1.1,1.54-.59,3.75-1.42,5.16-2.19.24-.13.51-.21.61-.5-5.21-6.6-3.29-15.72-5.94-23.24.15-.37.18-.38.51-.15,0,.06.57.61.74.96,2.71,5.7,2.83,12.41,6.45,17.72.5.73,2.01,2.86,2.87,2.78.3-.03,1.12-.47,1.48-.63,3.11-1.38,6.14-3.31,9.27-4.7.27-.23-.25-.63-.43-.81-1.11-1.14-2.41-2.39-3.61-3.44.32-.4.08-.39-.31-.6,0-.02-.24-.14-.33-.18-.08-.32-.21-.7-.48-.92-.31-.24-.62-.12-.64-.14-.11-.06-.22-.12-.33-.18.39-.8-.66-1.05-.77-1.3-.03-.08.18-.26.17-.32.71.57,1.64.76,2.38,1.11.26.37,1.01.95,1.39,1.16,1.51.84,3.34,1.62,4.9,2.41.72.37,1.31,1.02,2.28,1.13.35.04,2.3-.91,2.7-1.16.31-.19.48-.55.58-.61.13-.08.24-.18.35-.24l.25-.07s.04-.14.09-.16c.33.08.56.01.87-.09.06-.02.11-.04.17-.06-.44-3.56-1.35-7.46-4.14-9.55-.77-.57-1.86-1.02-3.13-1.46-1.38-.5-2.89-.99-4.14-1.93-2.67-1.92-3.09-5.26-2.2-8.15.19,1.79.78,3.77,2.27,4.84.87.63,1.85.76,2.94.77,2.13,0,3.97-.29,6.39.21,4.47.91,8.01,4.21,10.6,7.82.22,0,.44,0,.6-.02.16.09.33.18.49.27.02.01-.05.19.3.39.59.34,1.61,1.02,2.25,1.08.85.08,2.31-.97,2.97-1.41.77-.1.78-.04,1.53-.44.09-.05.2-.16.35-.24,1.49.04,3.02-.95,4.42-1.41.08-.03.17-.06.25-.07.84-.13,4.04-.54,2.42-1.66-.1-.07-.22-.11-.33-.18.11-.26-.33-.51-.49-.27-.16-.09-.32-.19-.49-.27-.41-.2-.84-.57-1.33-.31-.11-.05-.22-.13-.33-.18-.14-.07-.28-.15-.42-.02-3.97-.55-7.56-2.02-9.09-6-.88-2.29-.69-5.38.71-7.44.52.18.2.26.14.57-.43,1.98-.51,3.81.49,5.65,3.18,5.86,9.53,1.73,14.51,5.2.57.39,2.02,2.19,2.17,2.22.18.05,2.66-.5,3.16-.59.99-.17,2.07-.44,3.14-.58,1.64-.22,3.34-.31,4.99-.38-.83-2.82-2.42-5.5-4.6-7.5-.52-.48-1.2-.84-1.75-1.29-.24-.2-.35-.05-.07-.46,3.02,1.16,5.65,2.83,7.77,5.28,1.02,1.18,1.7,2.62,2.72,3.75,5.31.17,10.56.9,15.77,1.89.18-.2.11-.29.07-.5-.47-2.29-6.56-4.53-8.56-5.95-3.21-2.27-4.42-6.77-2.93-10.39.4.13.27.38.27.68,0,1.47-.21,1.97.3,3.5,1.91,5.71,7.8,4.65,12.1,7.13,2.57,1.49,4.17,4.1,3.9,7.09,2.56.94,5.14,1.88,7.64,2.97,2.63,1.16,3.35,2.58,4.23-1.63,1.28-6.11-6.13-7.66-6.73-12.95-.17-1.52.18-3.4,1.72-4.08.08.34-.41.53-.56.84-.29.62-.3,1.85-.14,2.53.95,4.01,6.47,4.98,8.61,8.55,1.3,2.16,1.87,5.48,1.26,7.91-.13.53-1.04,2.61-.91,2.88l6.87,4.78c3.71-3.69,5.15-10.15,3.83-15.15-.31-1.17-1-2.3-1.28-3.49.22-.16.45.23.58.39,1.44,1.75,2.64,4.61,3.12,6.82,1.08,4.95.15,10.06-2.36,14.46l6.04,5.91c2.3-2.27,4.48-4.93,6.87-7.08,2.64-2.38,6.32-4.23,9.43-1.46l-1.53-.31c-1.92-.22-3.69.61-4.92,2.08-2.55,3.21-4.34,6.93-6.48,10.42-.06.2.03.35.11.52.16.32,2.61,3.5,2.82,3.61.18.09.24.05.4.01,1.09-.23,5.06-4.09,6.42-5.02,3.36-2.3,7.56-3.44,11.49-1.98l-3.79.46c-4.91,1.34-6.68,4.99-9.66,8.63-.42.51-1.99,1.83-1.97,2.29l3.61,6.83c.35.47,1,.13,1.56.17,5.01.35,8.16,3.23,13.37.99,1.41-.61,2.32-1.39,3.47-2.36.22-.19.11-.56.56-.2-1.96,3.52-5.72,5.95-9.71,6.28-2.17.18-4.54-.53-6.61.04l-.26.51,3.57,11.38c3.87,1.17,8.07-1.84,11.94-.95,1.7.39,3.47,1.26,4.39,2.79.23.39.81,2.07-.01,1.24-.39-.39-.57-.97-1.11-1.34-4.4-3.02-9.87,3.18-14.36,3.1l.49,9.92c.14.29,1.86-.35,2.29-.4,2.04-.25,5.18.23,6.98,1.24,2.02,1.14,4.04,3.82,6.46,4.32.55.11.99-.26,1.47.1.08.25-.71.42-.9.47-4.44,1.05-7.92-4.95-13.92-1.47-3.44,1.99-2.71,4.44-3.36,7.81-.37,1.92-.78,3.85-1.39,5.71.06.17,2.95.57,3.44.72,4.74,1.47,7.75,4.84,8.85,9.57.01.05.41.78-.03.58ZM161.87,309.16c-.19.21-.12.38-.03.62.16-.12.19-.74.03-.62ZM96.09,323.16l-.16-.09c0,.14.05.17.16.09Z"/><path class="cls-1" d="M275.69,267.74c-21.16,7.38-43.18,9.17-65.16,12.32-14.65,2.1-29.15,4.58-43.33,9.44-25.48,8.73-47.7,19.09-74.61,6.94-14.29-6.45-26.62-19.11-32.46-33.64-7.47-18.6-6.15-42.8,5.99-59.6,22.45-31.06,72.05-31.87,106.43-36.92,8.89-1.31,14.07-2.85,22.35-6.52,25.47-11.29,50.89-30.57,80.39-24.04,47.64,10.55,73.27,70.97,38.05,108.7-10.7,11.46-23.1,18.25-37.64,23.31ZM274.2,260.1c25.8-9.32,48.01-28.37,47.66-58.02-.28-24.19-17.61-47.98-40.27-56.33-34.42-12.68-62.06,14.23-92.63,24.92-12.86,4.5-27.46,4.8-40.98,6.55-33.54,4.34-76.94,11.28-83.84,51.62-6.66,38.91,27.33,72.24,66.3,64.05,18.41-3.87,36-12.53,54.54-16.6,29.08-6.38,61.26-6.11,89.22-16.21Z"/><path class="cls-2" d="M130.44,292.91c18.41-3.87,36-12.53,54.54-16.6,29.08-6.38,61.26-6.11,89.22-16.21,25.8-9.32,48.01-28.37,47.66-58.02-.28-24.19-17.61-47.98-40.27-56.33-34.42-12.68-62.06,14.23-92.63,24.92-5.43,1.9-11.17,3.05-17.01,3.88-1.19.11-2.38.26-3.55.47-6.84.83-13.76,1.35-20.41,2.21-33.54,4.34-76.94,11.28-83.84,51.62-6.66,38.91,27.33,72.24,66.3,64.05Z"/><path class="cls-2" d="M220.37,172.4c-1.73,3.89-5.51,1.77-8.43,2.05-2.27.22-1.9,1.5-2.96,3.14-1.88,2.9-5.83,4.64-8.28,1.42-2.13-2.8.52-6.91,2.52-9.05,3.64-3.9,10.8-6.78,15.56-3.31,1.73,1.26,2.47,3.79,1.59,5.75ZM219.09,171.24c.36-1.15-.43-2.77-1.36-3.47-5-3.69-14.2,2.06-16.03,7.22-1.27,3.58,2.56,5.65,5.25,2.69,1.17-1.29,1.42-3.47,2.91-4.3,3.09-1.73,7.99,1.86,9.24-2.15Z"/><path class="cls-2" d="M119.24,286.76c-.76,1.67-2.75,4-4.8,3.17-2.43-.98-2.79-2.87-4.28-4.56-1.73-1.97-3.89-1.16-6.02-2.06-4.03-1.71-1.74-7.05,2.34-7.27,2.74-.15,8.08,2.29,10.17,4.02,1.7,1.41,3.61,4.49,2.6,6.7ZM117.77,285.93c.51-1.64-1.15-4.04-2.45-4.95-2.51-1.74-9.77-5.68-11.55-1.37-1.17,2.83,3.86,2.55,5.3,3.1,2.92,1.11,3.48,4.63,5.59,5.63,1.37.64,2.75-1.26,3.12-2.42Z"/><path class="cls-1" d="M300.03,220.27c-.43-.67-.86-.33-1.47-.3-.1,0-.19.23-.2.23-.09,0-1.52-.27-1.75-.33-.41-.1-1.25-.35-1.66-.49-1.54-.53-3.16-1.37-4.6-2.12-.6.15.35,2.52.38,2.78.01.13.09,1.56.09,1.77,0,1.57-.49,4.07-.96,5.59-.1.33-.57.55.01.75-.25.11-1.06,1.3-1.01,1.54.02.11.26.17.27.19.05.32-3.17,4-3.74,4.5-1.66,1.45-3.01,1.7-4.77,2.58-1.26.63-2.38,1.59-3.63,2.25-2.48,1.33-6.21,2.54-8.97,2.85-.56.06-3.05-.02-3.26.17-1.6,2.46-3.3,4.9-5.67,6.7-.4.3-.91.25-1.09.78,3.67,2.98-1.86,6.87-3.63,3.32-.25-.5-.1-1.4-.78-1.7-.11-.05-.24.21-.4.21-1.58.05-3.29.17-4.84-.16-2.06-.44-4-1.29-5.87-2.24-8.87,5.15-18.85,7.87-28.81,10.07-1.27.28-2.08.05-3.39.91.09-.29.55-.51-.08-.51-.82,0-1.85.36-2.69.47-1.3.18-3.29-.3-3.51,1.7-.76.38-1.53,1.16-2.19,1.75-.13.12-.61.46-.43.66-.81.33-1.76,1.2-2.51,1.59-8.31,4.3-17.77,1.34-25.97-1.95-1.05-.42-1.16-.99-2.73-.87-.3-.62-1.39-.85-2.02-1.06-3.65-1.21-7.53-2-11.36-1.43-.97-.54-1.54-.35-2.56-.02-.09.16.19.18.28.26-.82-.09-1.9.15-2.7.43-9.5,3.33-10.29,15.61-23.29,15.9-9.15.2-23.53-6.83-31.49-11.32-.75-.42-1.38-1.04-2.27-1.48.35-.4-.05-.44-.3-.66-1-.86-1.91-1.48-3.1-2.08.32-.37-.01-.45-.2-.69-3.47-4.55-6.25-8.02-6.82-14.03-.96-10.05,5.56-14.4,11.75-20.59.61-.61,2.71-3.43,2.92-3.53.05-.03.15.34.59-.09.67-.66,1.13-1.54,1.61-2.33,4.84-7.97,7.63-21.77,18.22-23.76,5.51-1.04,8.83,2.38,13.01,5.07.25.16.94.76,1.09.17.11.17-.03.47.35.79.55.46,1.29.78,1.83,1.06,1.59.83,3.14,1.47,4.95,1.65,1.33.13,2.89.02,3.75-1.11.01.2-.03.67.31.6.08-.02,1.39-.82,1.47-.89.28-.26.35-.56.53-.78.64.3,1.44-.66,1.83-1.08,1.06-1.14,2.3-2.83,2.69-4.35,1.29-1.59,1.15-2.16,1.84-3.7,3.2-7.19,7.15-16.55,16.46-15.93,9.07.61,14.56,9.54,22.64,12.22.32.11,2.15.57,2.33.55.16-.02,2.27-1.33,2.76-1.56,3.88-1.81,7.43-2.64,11.58-3.37.59-.1,1.8-.05,2.27-.27,1.23-.56,4.86-3.81,6.18-4.88,6.87-5.52,12.83-11.29,22.36-10.96,2.32.08,7.77,1.6,9.05,3.48.01.02-.22.17.02.48.2.26.86.74,1.18.83-.23.81,1.02,2.5,1.65,1.26.28-.56,0-1.1.02-1.19.02-.07.73-.99.72-1.31-.21-.09-.46-.32-.65-.36,1.14-.25,1.42-2.21,1.92-3.11,8.07-14.36,28.27-12.87,33.58,3.18.15.47.49,2.36.56,2.47.32.49,1.3.16,1.52.72-.49-.12-1.03-.29-1.54-.32.12,1.55.34,1.29,1.55,1.83-.21.06-.47,0-.67.06-.32.08-.49-.11-.59.36-.15.69.34,1.13.36,1.22.18,1.57.04,4.45,0,6.14-.06,2.35-.38,4.74-.48,7.1h4.34c2.64.33,6.46,1.84,8.41,3.64.35.32,1.09,1.23,1.44,1.65s.86,1.07,1.15,1.53c.83,1.32,1.01,2.89,1.96,4.05-.31.48-.27,1.85.6,1.62-.67,1.1-.22,2.12-.31,3.33-.1,1.38-.71,2.75-.82,3.96-.08.83.31,2.04.15,2.99-.37,2.14-1.51,3.29-3.35,4.25-.56.29-.98.06-1.37.76ZM299.89,217.83c.34.41,1.38.02,1.27-.36-.01-.06-.93-.49-.84-.82.33-1.15,2.57-3.08,2.31-4.36-.07-.35-1.08-2.04-1.36-2.36-.68-.78-2.04-1.87-2.95-2.39-.55-.32-.96-.36-1.4-.56-.84-.38-1.52-.74-2.43-1.03-.8-.25-5.5-1.41-5.91-.89-.21.26.56,2.93.65,3.44.02.11-.16.52-.08.92.08.44.41,2.04.7,2.21-.43,1.14.19,2.55.2,3.76l4.65,2.36c.36.12.56-.11.59-.1.28.06.99.48,1.56.65,1.22.36.82.01,1.51-.02.46-.02,1.33.63,1.53-.44ZM303.53,205.49c-.07-.59.6-.65-.44-1.53.48-1.3-.73-2.73-1.35-3.75-.48-.81-.44-.9-1.18-1.73-2.32-2.58-5.02-4.01-8.49-4.39-.41.01-.2.38-.22.41-.19.35-3.17-.47-3.95-.05-.39.21-.11.91-.13,1.22-.1,2.48.04,5.09.46,7.53,2.29.29,4.59.57,6.81,1.27.47.15,2.8.86,2.96.94.09.05.95.7,1.22.89,1.63,1.14,2.84,2.53,4.27,3.87.32-1.3.4-2.69.3-4.02-.02-.28-.25-.54-.27-.68ZM287.12,230.04c.36-.83,1.22-1.32.08-1.68-.36.83-1.22,1.32-.08,1.68ZM288.23,219.94c.07-.7.21-.98.16-1.84-.04-.75.1-1.31-.58-1.84-.26-.2-.62-.49-.76.02-.44-.67-1.5-.81-2.25-.86-.28-.02-.48.16-.57.16-2.82.06-5.9,1.32-7.93,3.36-.31.31-.76,1.18-.82,1.22-.04.03-.29-.33-.8.37-.29.41-.28.83-.35.93-.03.04-.51.26-.73.58-1.76,2.52-3.17,5.57-4.27,8.44-.21.54-.25,1.02-.4,1.49-.27.83-.65,1.65-.93,2.47,2.94,1.54,6.48,2.26,9.75,1.65,1.53-.28,1.58-.36,2.77-1.38,1.81-1.54,2.98-3.12,4.26-5.09.25-.39.59-.67.89-1.22,1.5-2.75,2.25-5.39,2.55-8.45ZM269.98,239.98c1.01-.21,2.74-.81,3.72-1.2.21-.08,1.3-.52,1.25-.7-1.75-.48-3.62-.53-5.35-1.14-.52-.18-1.72-.97-2.03-.83-.75,1.21-.92,2.72-1.84,3.93.26.18.53.28.84.31.46.04,2.87-.26,3.41-.37ZM287.38,210.68c.31-.07.53.15.52-.35-.01-.66-.22-1.84-.83-2.18.49-.62-.02-3.06-.59-3.34-.27-.13-3.48.04-3.98.11-.4.06-.58,0-.76.48-.5-.42-1.21-.34-1.6.18-.47-.37-.73-.5-.93.13-.48-.39-1.16-.27-1.6.18l1.98.67c.28.38,1.07.39,1.24.47,1.38.72,2.76,2.07,4.24,2.78.93,1.32,2.28,2.25,3.11,3.65.29-1,.14-2.24-.8-2.8ZM282.88,213.76c.46.29,2.05.38,2.65.35.19,0,.57,0,.53-.29-.01-.1-1.05-1.47-1.22-1.65-2.57-2.82-6.19-4.36-9.6-5.86-.26.53-.62,1.03-.87,1.57s-.31.38.27.67c-.03,0-.55.24-.57.27-.26.29-1.24,2.5-1.44,3-.12.3-.2.77-.19,1.09l-.38-.1c-.21.61-.44,1.51-.72,2.07-1.66,3.4-3.92,7.11-6.63,9.83-.36.36-2.38,2.37-2.54,2.45-.03.02-.24-.19-.32-.16-.4.16.42,1.29.63,1.63.27.46-.1.17.6.75-.26.29-.02.47.13.71.4.66,2.91,3.62,3.55,3.47.01-.37.75-1.64.73-1.73-.01-.04-.49-.49-.55-.53.72.52,1.05-1,.73-1.31,1.12-1.35,1.54-3.4,2.35-5.01.48-.96,1.09-2.04,1.65-2.95.42-.68,1.7-1.85,1.66-2.62.52.48,1.21-.86,1.15-1.29.33.04.55-.17.8-.34,1.93-1.31,3.37-2.57,5.66-3.35.59-.2,1.5-.04,1.95-.66ZM281.16,203.37c.53-.08,2.94-.12,3.75-.15.89-.03,1.67.66,1.68-.76.02-1.74-.51-4.16-.52-6.01,0-.18.48-1.87-.09-1.76-1.65.83-3.13,1.71-4.33,3.17-.18-.46-.34-.28-.63-.05-1.59,1.28-2.77,3.39-3.86,5.06-.17.26-.81.67-.89,1.22.76.78,1.46-.04,1.76-.09.55-.1,1.24.34,1.53-.44.65.65,1.45-.16,1.6-.18ZM251.99,235.86c-.03.48.27.74.62.99,1.39,1,5.33,2.53,7.06,2.99.77.2,3.72.83,4.23.33.41-.41,2.29-4.8,2.16-5.04-1.69-1.24-3.12-2.77-4.3-4.48-.47-.68-1-2.48-1.9-2.42-.6.04-2.35,1.04-2.75,1.48-.54-.42-1.49.26-2.02.37-4.5.94-9.25.49-13.44-1.44-.1.25.56.67.75.82,1.51,1.13,3.02,2.28,4.55,3.38,1.03.74,2.04,1.61,3.23,2.04-.35.46.89,1.03,1.34,1.17.19.06.34-.15.46-.17ZM249.03,236.58c.39-.48-.11-.42-.39-.64-.7-.54-.83-.71-1.72-.96-.08-.43-.48-.82-.81-1.08-1.44-1.12-3.15-2.25-4.65-3.36-.27-.2-.45-.5-.87-.36-.26-.38-.95-.97-1.37-1.2s-.59-.49-.76.02c-.5-.9-1.42-1.28-2.35-1.73-1.69-.82-3.56-1.33-5.38-1.7-.63-.13-1.41-.83-1.76.09-.04-.06-.23-.11-.33-.18-.03-.03.02-.2-.26-.28-.88-.24-3.94.4-4.92.69-.29.08-.49-.12-.63.43-2.42.13-7.15,3-9.49,4.15-.85.41-2,.65-2.57,1.38-.62-.22-1.39.24-1.71.77l-5.26,1.58c-2.38.47-6.25.54-8.54-.23-.74-.25-2.31-.9-2.96-1.22-1.03-.5-2.96-1.76-3.75-2.51-2.51-2.38-4.72-5.05-6.12-8.23-.5-1.13-.95-3.36-1.64-4.21-.22-.27-.26-.05-.38.11-.25.34-.59.99-.78,1.4-1.26,2.71-1.23,6.11-.15,8.86.12.29.44.43.49.55.4.89.4.8.85,1.55,1.51,2.48,3.03,4.54,5.76,6,.54.29,1.2.25,1.58.43.09.04.37.61.97.72.32.06.62-.59.83-.13.07.15-.45.43.7.66.41.08.57-.16.66-.13.43.17.87.96,1.48.17.34.19.67.41,1.04.53,3.73,1.14,14.73-.96,18.45-2.47.33-.13.59-.16.73-.57.74.53,1.36.2,1.78-.51.73.47,1.47-.21,2.15-.42,3.7-1.13,8.03-2.47,11.74-3.02.3-.04,1.53.51,1.69-.35,1.7.42,3.64.07,5.39.32,1.24.17,2.13.55,3.29.9.31.09.61.33.9.03.6.77,3.81,3.2,4.78,3.72-.65.28.3,1.07.47,1.45,1.61,3.65,1.2,5.8-.8,9.2-.2.34-.85.77-.65,1.14,2.84,1.59,6.11,2.35,9.36,1.82,3.45-.56,7.49-3.88,9.33-6.92.26-.43.44-.75-.13-.94-.85-.28-2.34-.25-3.33-.53-2.56-.71-5.31-2.16-7.62-3.48-.89-.51-1.13-1.09-2.36-1.32ZM276.23,201.06c1.62-2.65,4.66-5.65,7.41-7.11.61-.32,2.27-.75,2.53-1.2.18-.31.36-3.21.4-3.83.15-2.09.5-8.16-.03-9.92-.13-.43-.69-.52-.35-.93.12.03.29.26.37.1l-.35-2.68c-1.2-.32-2.76.01-3.91-.44.13-.46.4-.2.7-.18.52.03,2.74.4,2.87-.09l-1.47-4.54c-7.89-13.14-24.6-10.95-30.35,2.86-.02.05-.36.23-.48.47-.8,1.61.41.83.57,1.29-.14.42-.63.26-.89.52s-.94,1.37-.3,1.61c-.63.67-.56,4.4-.44,5.43.05.45.07.95.4,1.19-.37.63-.08,1.43.51,1.78-.74.35-.12.86.03,1.31.14.41-.04.82.53,1.15-.25.86.59,1.6.91,2.22,1.33,2.58,2.91,5.37,5.33,7.22.28.22.56.52.73,0,.03,1.03.78,1.15,1.44,1.65,1.03.8,2.07,1.72,3.44,1.91,1.29,1.18,3.2,1.62,4.76,2.21.67.25,3.14,1.46,3.69,1.35.7-.14.87-1.48,1.11-1.91s.59-1.1.82-1.48ZM270.81,211.99c.25-.56.74-1.11.89-1.7.13-.49-.38-1.67-.2-1.87.15-.16,1.61.07,1.68-1.11-.12-.46-3.24.48-3.43.77-.14.22-.06.2.03.34-2.18.29-4.59,1.35-6.57,2.33-.33.16-.56.55-.6.56-.04,0-.27-.23-.46-.2-1.27.23-.8.74-.94,1.57-.42-1.03-1.08-.74-1.67-.02l.51,6.34.33.18c.09-.2.23-.38.32-.57.55.14.09.65.04,1.09-.55-.44-.92.62-.02.42-.21,1.42-.54,3.57.29,4.88.44.69.73.23,1.26-.16,3.96-2.9,6.56-8.48,8.53-12.85ZM269.72,206.24s.25.21.46.2c.44-.02.93-.84,1-.86.15-.04,1.07.61,1.33-.15-.04-.11-1.92-.71-2.24-.82-.34-.12-.55-.55-.74.02-.22-.62-2.76-1.35-3.45-1.7-1.14-.57-2.44-1.28-3.52-1.95-.42-.26-.8-.83-1.38-.98l-.29.91c0-1.92-1.62-2.42-2.85-3.66-2.04-2.05-4.71-5.91-5.75-8.61-.02-.06-.05-1.17-.18-1.32-1.03-1.22-1.04-.07-1.55.58-2.4,3.06-6.83,3.87-10.48,3.59-1.63-.13-3.19-.63-4.82-.71-.76-.72-3.44-.92-4.47-1.2-5.05-1.37-9.16-2.37-14.45-2.59-.81-.03-1.58.19-2.38.12-2.64-.23-1.7-.09-3.82,1.1-2.37,1.33-5.76,3.04-8.38,3.71-1.19.31-2.82.14-3.81.89-1.07-.5-2.6-.68-3.6-.07-5.51,3.39-9.93,9.44-11.64,15.68-.12.43.04.89,0,1.03-.02.09-.5.47-.5,1.17,0,.36.27.39.26.41,0,.12-.33.52-.37.86-.06.51-.36,1.89.33,1.86.17,0,2.42-1.53,2.99-1.8,1.24-.59,2.9-.96,3.78-1.48.98-.57,4.2-.48,5.47-.61-.52.77,1.29.32,1.54.34,1.08.07,1.46.38,2.71.09.96.62,2.16.68,3.24.72.42.62,1.53.53,1.98.67s1.07.48,1.56.65c.71.25,1.82.46,2.4.69.88.34,2.04,1,2.96,1.43.33.15.56.55.75-.01.1.14.34.36.49.45.99.56,3.18,1.33,4.35,1.78,4.31,1.66,7.37,2.34,11.88,2.76.27.03.69.35,1.26.34.36,0,.39-.27.41-.27.17,0,1.48.43,1.75.32.64-1.29-.41-2.31-.78-3.56-.42-1.38-.45-2.98-1.05-4.31.21-.08.11-2.12.13-2.56,0-.14-.12-.15-.07-.63.09-.95.8-4.53,1.19-5.23l2.46-4.43c.05-.09.87-1.26.94-1.3.02,0,.22.22.39.06.89-.82.4-1.13.7-2.03,1.08.56,1.37.09,2.29-.45.17-.1.28-.41.35-.45,9.92-5.48,18.86,2.79,20.32,12.57.05.18.19.27.32.38-.67.55.01,1.43.02,1.51,0,.07-.2.34-.16.66.13,1.2.96.51,1.72.18.2-.09.3-.4.36-.42,1.64-.77,3.62-1.25,5.41-2.05.47-.21,1.1-.35,1.34-.86.68.14,1.77-.65,1.87-.68ZM258.4,225.48c.2.2.59.46.68.7.14.36-.41.68.17.84.94-.52.44-1.8.04-2.56-.2-.38-.34-.63-.47-.9l-.85-10.02-.44-.32c-1.15.56-2.31,1.08-3.47,1.62-.23.11-.41.42-.49.45-.43.18-1.42-.28-1.29.78l-12.14,3.82c-.16.09-.3.41-.38.6-.19-.55-.89-.27-1.37-.21-.22.03-.36.3-.39.3-.09.01-.4-.16-.65-.12-.38.06-1.85.17-1.94.22-.11.06-.27.33-.26.44.03.49,2.24,2.4,2.7,2.81.38.34,1.09,1.83,1.56.65,0,.04.21.13.26.28.15.43-.12.54.45.96,4.73,3.53,12.34,3.82,17.64,1.54.31-.13.94-.36,1.02-.69.11-.47-.79-.72-.39-1.21ZM230.22,233.43c-.07,0-.55-.32-.98-.31-.51.01-.74.39-.78.4-4.5.59-8.08,1.9-12.3,3.26-.03.01-.35-.2-.66-.16-.56.08-.86.46-1.03.51-6.15,1.76-12.49,3.5-19.01,3.15-.53-.03-2.7,0-2.84-.04-.46-.11-1.18-1.59-1.76.09,0-.17.07-.54.06-.57-.08-.17-.42-.28-.6-.38-.78-.42-1.07-.65-1.51.02.07-.59-.5-.72-.96-.96-.65-.35-1.28-.49-1.89-.83-1.52-.85-5.47-4.16-6.29-5.63-.33-.59-.18-.48-.78-1.29-.23-.3-1.34-3.35-1.46-3.92-.35-1.65-.39-4.61.08-6.23.31-1.07,1.45-2.38.96-3.38.22.12.44.24.65.36.22-.52.69-1.04.86-1.56.12-.35-.14-.62.09-.92l.54.19c.29-.42-.15-1.34-.14-1.68,0-.45.06-1.71.09-2.09.03-.3.18-1.19.24-1.58.91-5.77,4.58-11.45,8.76-15.41.65-.62,2.01-1.22,2.07-2.17.05,0,.2-.58.84.04.17-.29.28-.3-.06-.46-.57-.27-1.37-.44-1.99-.67-1.11-.41-1.11-.71-2.48-.73.37-.45-.08-.45-.38-.64-6.37-3.93-14.75-13.27-22.93-9.36-4.17,1.99-6.38,5.86-8.09,9.99-.11.26-.6,1.09-.08,1.2-.96.75-1.31,1.56-1.55,2.79-2.54,3.48-3.33,7.19-7.09,10.15-.73.57-2.46,1.22-2.99,1.84l.1-.37c-.67.09-1.2.46-1.79.72-.56-.57-.9-.03-1.33-.02-1.32.05-2.92-.27-4.18-.69-.33-.11-.55-.55-.75.02-.43-.78-1.53-.83-1.96-1.09-5.75-3.4-10.91-9.91-18.29-5.93-8.32,4.49-9.8,16.01-14.9,23.32-.37.53-1.29.92-1.26,1.88-.54-.13-1.83,1.61-2.25,2.01-6.59,6.31-13.69,11.07-12.06,21.46.77,4.91,5.52,13.21,10.19,15.19.13.81,2.33,1.8,3.02,1.89-.37.44.07.46.38.64,6.38,3.82,20.8,9.8,28.17,9.87,11.02.11,12.64-8.85,20.07-14.14.58-.41,1.84-.65,2.13-1.45,1.13.16,2.45-.54,3.55-.82.19-.05.66-.13.85-.16,2.28-.47,4.27,0,6.46-.06,1.31.09,3.44,1,4.66.87,1.76.69,3.6,1.16,5.39,1.76.45.15.83.44,1.28.6.2.07,1.04.12,1.19.07.35.66,1.26,1.03,1.98.67-.38.52.04.33.34.47,4.73,2.1,11.58,3.81,16.72,3.08,1.3-.18,2.94-.46,3.96-1.32,1.15-.08,2.39-.82,3.09-1.72.11.03.26.19.33.18.07-.02.11-.26.18-.32.68-.6,1.71-1.23,2.29-1.88.19-.21.38-.37,0-.49l-17.22.74c-1.74-.5-3.49-.91-5.33-.81-.25-.1-.99-.23-1.33-.31-.64-.16-1.55-.14-2-.25-2.16-.54-4.49-1.24-6.62-1.96-.82-.27-1.31-.95-2.56-.78-.02-.41-.21-.46-.51-.62-1.88-.99-3.7-1.89-5.44-3.12-5.96-4.21-9.48-10.5-13.03-16.66-.59-.53-1.93,1.04-1.82,1.57-.76-.42-1,.58-1.29.78-.7.51-1.66,1.15-2.42,1.66-.42.28-1.22.79-1.64,1.02-2.18,1.21-5.33,2.04-7.78,2.42-.57.09-2.2-.13-2.24.6-.57-1.14-3.05-.79-3.62.35-.32-.25.1-.88.22-1.16-.07-.27-1.49-.2-1.58-.23-3.28-1.01-6.91-3.84-8.6-6.83-.53-.93-2.08-5.43-2.05-6.37,0-.19.3-.63.3-.99,0-.38-.31-.49-.31-.53,0-.2.92-3.45,1.08-3.82,2.81-6.61,12.3-8.86,18.28-5.6.2.11.76.63,1.22.89,1.78,1.02,3.34,2.02,4.92,3.48,1.65,1.52,2.88,3.34,4.35,4.88.74.77.49,1.22,1.67,2-.37.45-.19.41,0,.75.23.43,1.02,1.8,1.39,1.95.48-.33.74-.89,1.07-1.34.31-.43.73-.95.98-1.38.2-.34.18-.71.2-.75.41-.73.96-1.96,1.41-2.55.31-.4.75-.45.99-.94.18-.38.01-.76.19-1.18.24-.57.73-.89,1.01-1.37.34-.59.38-1.38.82-1.9.28-.33,1.04-.2,1.41-.61-.48.79-.03.98-.19,1.5-.31.96-1.05,2.2-1.52,3.12-.26.51-.47,1.23-.66,1.57-.66,1.22-1.84,3.15-2.62,4.34-.16.25-.55.7-.8,1.06-.44.63-1.57,1.41-1.32,2.28,2.4,4,4.62,8.38,7.65,11.96,2.84,3.34,7.52,6.82,11.62,8.37.52.2,1.46.57,1.99.47.3.71,1.39.7,2.06.93.59.2,1.6.76,2.2.8.22.01.22-.11.29-.27.75.41,4.19,1.37,4.82.96.66.31,1.56.44,2.28.52,7.19.78,14.51.3,21.69-.28.27-.1,1.05-.88,1.31-1.16.13-.14.07-.42.09-.45.45-.49.97-.87,1.49-1.53,3.16-3.98,5.93-8.42,9.9-11.66.28-.23,1.2-.93,1.47-1.11,1.2-.81,4.19-1.97,5.63-2.23.96-.17,1.96.02,2.86-.35.42.55,1.25.12,1.42.14,1.29.2,4.17,1.15,5.38,1.7,2.89,1.31,5.7,3.38,8.59,4.75,1.51-1.83,2.7-3.52,2.45-5.99-.66-6.47-8.13-8.73-13.69-8.05-.46.06-.61.38-.65.38ZM227.56,242.47c-.59-.05-1.19-.6-1.76.09-.98-.42-2.43.04-3.41.37-1.15.38-3.68,1.41-4.18,2.5-.73-.41-1.44,1.02-1.82,1.35-3.46,3.07-4.84,5.24-7.51,8.91-.38.51-.87.98-1.33,1.62-.14.2-1.27,1.21-.65,1.35.35.08,3.39-.49,3.72-.72.84.09,1.8,0,2.46-.57,1.54-.08,3.17-.4,4.68-.76,3.49-.81,6.89-1.94,10.28-3.07,2.65-.88,10.41-3.29,12.19-5.07.15-.15.25-.32.34-.51-2.45-1.19-4.83-2.91-7.28-4.04-1.92-.88-3.65-1.27-5.72-1.46ZM257.49,209.75c-.04-.26.12-.89-.02-1.24-.07-.18-.4-.25-.41-.29-.01-.04.21-.37.13-.79-1.22-6.81-5.83-13.31-13.5-12.51-.73.08-2.29.28-2.52,1.05-1.24-.57-1.17.12-2.04.59-.2.11-.32.14-.6.31-.3.19-.8.03-1.07.76-.05.14.95,2.72.58,2.82l-1.58-2.16c-.49.22-.72,1.38-.82,1.47-.02.02-.31-.09-.55.23-2.2,3-4.19,8.71-3.02,12.37-.28.35-.12.58-.09.92.17,1.53.9,3.81,1.67,5.1.18.3.45.9.79,1.02.15.05,1.07-.05,1.19-.13.26-.17-.06-1.87.57-2.77.36-.5,1.73-1.16,2.26-1.02.23.06,1.25.64,1.47.82.63.5.56,1.21.77,1.89.17.02.35.03.53,0,2.64-.57,7.27-2.42,9.71-3.64.22-.11.46-.43.49-.44.09-.01.36.31.78.1.37-.18.58-.75.67-.79.02-.01.29.12.49.07.69-.18,3.91-1.51,4.3-1.91.34-.35-.11-1.34-.19-1.82ZM239.42,225.35l-.16-.09c0,.14.05.17.16.09ZM233.19,221.14c-.36-.13-1.3.1-1.76.09-.82,0-.53.07-.93.13-.08.01-1.43.02-1.51.02-2.85-.11-7.45-1.39-10.24-2.31-1.75-.58-3.47-1.55-5.26-1.78-.49-.62-1.99-1.17-2.78-1.54-2.01-.95-3.94-1.6-6.02-2.27-.57-.18-.98-.26-1.49-.4-.56-.15-1.01-.34-1.66-.49-.93-.22-.77-.15-1.42-.14-.1,0-1.29-.48-1.82-.58-1.15-.21-1.94-.18-3.09-.21-3.99-.1-8.66.67-11.88,3.27-.26.21-.96.54-1.05.79-.1.26.21.55.23.69.33,3.35,1.76,6.63,3.84,9.3,1.69,2.18,3.87,4.32,6.51,5.23.19-.32.35-.66.55-.98l-.64,1.15c.08.45,3.08,1.4,3.68,1.55,4.19,1.04,8.32-.09,12.21-1.64-.5-.52-.07-.35.06-.5-.06.49.45.21.66.13,2.83-1.1,5.9-2.96,8.67-4.34.43-.22,1.03-.18,1.36-.8.72.22,1.88-.49,2.55-.73,2.01-.73,4.75-1.11,7-1.05.62.02,1.96.6,2.51.11l6.26,2.61c.34-.42.04-.33-.15-.57-.69-.85-1.74-1.61-2.5-2.46-.56-.62-1.09-1.99-1.89-2.28ZM250.44,185.04c.25-.77.16-.96.24-1.58.15-1.21.44-3.46-.28-4.54-.16-.24-.58-.41-.6-.44-.02-.04.29-.43.14-.8s-.57-.43-.67-.56c-.64-.86-.51-1.27-1.65-2.42-.98-.98-.96-.64-1.71-1.16-.03-.02-.03-.31-.18-.4-6.48-4-15.52-.55-21.2,3.48-3.6,2.56-6.81,5.67-10.27,8.41-.11.18.19.18.28.28.05.05-.03.22.26.28.82.17,2.5-.17,3.41.04,2.91.4,5.82.67,8.7,1.28.46.1,1.34.82,1.63.16,1.31.52,2.75,1.34,4.22,1.27.05.03.11.06.16.09.58.31,2.86.98,3.4.81-.09.3.51.24.7.28,3.17.57,6.77.97,9.78-.49.28-.14,2.39-1.2,1.16-1.48,1.21.01,1.08-.29,1.73-1.19.47-.65.45-.45.73-1.31ZM197.8,190.8c.3.23.6.22.95.2,1.93-.13,5.32-1.33,7.09-2.19.25-.12,1.87-.94,1.82-1.12-.29-.25-.48-.17-.79-.13-2.08.27-5.66,1.47-7.59,2.35-.22.1-1.52.72-1.47.88ZM144.12,230.06c-.58-.77-.65-1.56-1.76-1.84.3-.34-.36-1.04-.58-1.28-1.86-2.15-4.14-4.02-6.68-5.32-.51-.26-1.19-.94-1.58-.23.14-.66-.92-.82-1.44-.95-6.84-1.75-14,1.09-14.66,8.75-.01.13-.23.44-.26.84-.04.56.28.63.28.67.6,6.04,3.32,9.52,9.22,11.55.43.15.91.46,1.4.56l.29-.91c.23.84.56,1.02,1.43,1.02.19,0,.27-.27.29-.27.1,0,.64.28.91.29,3.37.09,6.71-.97,9.59-2.62,1.69-.97,2.45-1.56,3.89-2.77.32-.27,1.24-.2.89-1.22.71.67,1.9-1.19,1.82-1.69-.09-.54-2.54-3.89-3.05-4.57Z"/><path class="cls-1" d="M135.72,203.53c-.55-.28-1.28-.6-1.83-1.06-.38-.32-.24-.62-.35-.79-1.83-2.88-2.88-5.83-5.46-8.28-11.13-10.57-22.25,5.96-25.87,15.43-.8,2.08-2.26,7.84-1.43,9.85.03.08.04.17.07.25-.05.52-.16.91.36,1.27-.48.79-.94,1.68-1.61,2.33-.44.43-.54.07-.59.09-.28-.38-.72-.54-1.05-.8.02-.09,0-.2-.07-.25-.09-.07-.22-.12-.33-.18-.05-.03-.11-.06-.16-.09-12.13-7.02-22.37,4.29-22.38,16.42-.01,9.8,6.95,19.6,15.77,23.65.14.07.29.15.42.02.06.02.11.06.16.09,1.19.6,2.1,1.22,3.1,2.08.26.22.65.27.3.66-.68-.33-1.76-.41-2.03-.5-15.8-5.3-25.6-24.81-15.21-39.37,3.48-4.87,9.41-8.19,15.45-6.68,2.42.61,4.39,1.67,6.45,3.04-.95-3.51-.53-7.13.57-10.57,4.67-14.54,20.55-33,32.83-13.36l.15.51s.14.04.16.09c-.32.4-.08.39.31.6.04.07.03.18.07.25l.31.6s.14.04.16.09l.07.25c.04.07.04.18.07.25.19.39.09.43.38.85.08.12.12.21.24.35-.23.27-.18.39.15.51.08.39.32.74.45,1.11s.05.73.38.85c-.02.14,0,.28-.02.42Z"/><path class="cls-1" d="M307.4,203.13l-.25.07c-.06.11-.12.22-.18.33l-.18.33c-.11.14-.16.36-.27.49l-.25.07c-.15.19-.34.26-.53.56-.87.23-.91-1.14-.6-1.62.44-.67.54-.47.82-1.48.14-.51.24-.49-.04-1.09-.04-.08-.16-.18-.24-.35-.03-.08-.04-.17-.07-.25-.04-.09-.04-.18-.07-.25.29-.48-.08-.54-.22-.76-.95-1.51-1.49-3.35-2.38-4.76-.14-.22-.19-.39-.49-.48-.19.05.1,3.42-.42,3.84-.34-.42-1.09-1.34-1.44-1.65l.22-1.92c.2-4.8-3.92-8.03-7.2-10.96-.02-.01-.04-.17-.24-.35-.24-.21-.48-.41-.73-.62-.01,0,.04-.16-.07-.25-.44-.35-1.17-.77-1.71-1.16-.25-.18-.56-.28-.82-.45-.53-.45-1.07-.87-1.71-1.16-.01-.09-.5-.53-.36-1.22.1-.47.28-.28.59-.36.19.14.49.22.65.36.01,0-.03.18.07.25.1.07.22.11.33.18.21.13.44.24.65.36.32.19.67.34.98.54-.04.18.1.26.24.35,1.73,1.11,4.28,2.95,5.67,4.43.37.4.75,1.39,1.44,1.65,0-.7-.55-1.27-.93-1.8-2.41-3.43-4.66-4.73-8.44-6.4-1.21-.54-1.43-.28-1.55-1.83.5.02,1.04.19,1.54.32.15.04.33.22.49.27l.25-.07c.06.02.11.07.16.09l.33.18c4.88,1.7,8.31,5.03,10.41,9.76.52,1.16.78,2.55,1.38,3.74,1.65,3.24,5.33,7.97,5.36,11.69,0,.42-.03,1-.21,1.37Z"/><path class="cls-1" d="M172.9,263.82c-.21.26-.39.27-.68.34-5.8,1.45-13.18.87-17.71-3.46-.09-.08-.38-.11-.28-.26,1.02-.33,1.59-.51,2.56.02.05.03.12.05.16.09-.05.09,0,.22.07.25.27.14.56.15.81.28.2.1.36.39.5.45.21.09.24-.08.25-.07,4.99,2.1,6.47,1.87,11.59,1.49,1.57-.12,1.68.45,2.73.87Z"/><path class="cls-1" d="M291.25,229.55l-.25.07c-.31.08-.77.24-1.02.29l-.25.07c-.12.01-.4-.15-.58-.11,0-.02-.24-.08-.27-.19-.05-.24.76-1.43,1.01-1.54.02,0,.2.14.3.09,3.55-1.59,6.42-2.63,7.87-6.71.13-.35.14-.37.2-.75.03-.19.13-.38.11-.58.02,0,.1-.23.2-.23.61-.03,1.04-.37,1.47.3-.31.56-.29,1.54-.64,2.32-1.54,3.48-4.61,5.86-8.15,6.96Z"/><path class="cls-1" d="M84.26,210.52c-1.08.4-3.07-.39-3.52-1.46-.16-.37-.09-1.87.07-2.24.3-.7,1.96-1.69,2.7-1.53.19.04,1.93.98,1.99,1.09.05.09-.06.35,0,.47.13.26.44.51.45.73.09,1.05-.7,2.55-1.7,2.93Z"/><path class="cls-1" d="M172.55,273.23c-.92,2.34-4.2,2.6-5.01.06-.88-2.73,3.03-4.82,4.61-2.42.47.71.72,1.56.41,2.36Z"/><path class="cls-1" d="M91.24,277.43c-.12.27-1.09,1.24-1.34,1.36-.07.03-1.37.26-1.44.26-2.03-.15-2.82-3.09-1.44-4.55,1.94-2.05,5.47.09,4.22,2.94Z"/><path class="cls-1" d="M242.85,256.89c-.23.79-.87,1.88-1.67,2.14-1.63.51-3.05-.21-3.44-1.91-.82-3.5,4.34-4.48,5.09-1.05.06.27.11.54.03.82Z"/><path class="cls-1" d="M284.52,153.21c.05.13.11.85.09,1.01-.63,4.55-7.15,1.91-4.7-1.75,1.17-1.75,3.89-1.12,4.61.74Z"/><path class="cls-1" d="M316.85,186.03c-1.44,3.32-6.15.71-4.69-2.25.45-.9,2.07-1.81,3.02-1.43,1.6.63,2.36,2.08,1.67,3.68Z"/><path class="cls-1" d="M311.26,225.39c-.95,1.94-3.73,2.02-4.75-.02-1.31-2.61,2.56-5.08,4.57-2.55.68.86.64,1.63.18,2.58Z"/><path class="cls-1" d="M139.27,285c-1.35,3.34-6.22,1-4.77-2.09.32-.69,2.05-1.8,2.69-1.59,1.65.54,2.78,1.97,2.08,3.68Z"/><path class="cls-1" d="M216.08,266.92c-.41,1.57-1.96,2.58-3.51,1.95-2.86-1.15-1.47-5.3,1.17-5.07,1.53.13,2.74,1.58,2.34,3.12Z"/><path class="cls-1" d="M81.24,264.6c-.56,1.34-2.26,1.94-3.57,1.26-1.97-1.01-1.74-3.82.17-4.72,2.22-1.04,4.31,1.29,3.4,3.45Z"/><path class="cls-1" d="M155.13,273.41c-.29,1.37-1.89,3.01-3.38,2.47-2.02-.74-2.61-2.67-1.24-4.33.96-1.16,2.68-.98,3.74.04.26.25.94,1.49.87,1.82Z"/><path class="cls-1" d="M73.04,231.53c-.13.29-1.04,1.27-1.31,1.46-.81.54-1.89.32-2.66-.17-1.62-1.02-1.55-3.04-.11-4.22,2-1.63,4.91,1.04,4.08,2.94Z"/><path class="cls-1" d="M250.45,167.19c-1.2,4.16-7.04,1.53-4.64-1.98,1.68-2.44,5.24-.12,4.64,1.98Z"/><path class="cls-1" d="M296.49,243.55c-1.34,3.21-6.44,1.12-4.72-2.25,1.5-2.93,5.87-.51,4.72,2.25Z"/><path class="cls-1" d="M263.32,154.4c-1.35,3.55-6.85,1.03-4.35-2.48,1.76-2.46,5.31-.03,4.35,2.48Z"/><path class="cls-1" d="M294.67,172c-.09.22-1.23,1.26-1.48,1.37-.86.41-2.67-.33-3.18-1.01-.22-.3-.45-1.73-.32-2.11.3-.89,1.82-2.32,2.72-2.02,1.6.52,2.92,2.04,2.26,3.77Z"/><path class="cls-1" d="M273.93,253.33c-1.29,3.76-6.04,1.56-4.85-1.51,1.16-2.97,5.78-1.21,4.85,1.51Z"/><path class="cls-1" d="M316.35,206.97c-.32.94-.74,1.68-1.71,1.98-3.22.98-4.7-3.93-1.4-4.91,1.56-.47,3.69,1.25,3.11,2.94Z"/><path class="cls-1" d="M139.71,188.53c-2.62.37-4.02-3.48-1.57-4.78,3.09-1.64,5.13,2.54,2.61,4.33-.05.03-.99.44-1.04.45Z"/><path class="cls-1" d="M191.02,182.49c-1.33,3.43-6.72.57-4.26-2.58,1.79-2.29,5.26,0,4.26,2.58Z"/><path class="cls-1" d="M243.63,154.41c-.62,2.15-2.83,2.69-4.45,1.14-1.74-1.67.5-5.54,3.39-3.59.69.47,1.3,1.62,1.06,2.45Z"/><path class="cls-1" d="M151.24,197.56c-1.47,1.81-3.02,3.62-4.51,5.43-.18.22-.25.52-.53.78-.08.07-1.39.88-1.47.89-.34.07-.29-.4-.31-.6.28-.37.46-.92.73-1.31.53-.15.66-.96.98-1.38.09-.13.34-.32.53-.56l.27-.49c.2-.26.42-.48.62-.73l.44-.4c.21-.22.34-.7.55-.98l.69-.47s.14-.24.18-.33c.94-.77,1.7-1.8,2.55-2.66.18-.18.38-.42.53-.56l.25-.07c.1-.07.17-.24.35-.24-.69,1.54-.55,2.11-1.84,3.7Z"/><path class="cls-1" d="M210.28,260.11c-2.37,1.54-3.08,2.15-5.84,3.19l-.25.07c-.87.33-2.18.55-2.8.8-.18-.2.3-.54.43-.66.66-.58,1.43-1.37,2.19-1.75.52-.26,1.3-.24,1.83-.6l1.69-1.09c.84-.12,1.87-.47,2.69-.47.63,0,.17.22.08.51Z"/><path class="cls-1" d="M251.57,174.52c-.45-.31-1.34.03-1.67-.07-.31-.09-.97-.57-1.18-.83-.24-.31,0-.46-.02-.48.64-.15,2.4-.42,2.95-.3.19.04.44.28.65.36.01.32-.71,1.24-.72,1.31Z"/><path class="cls-1" d="M149.4,197.4s-.11-.21.06-.43c.62-.79,1.58-1.78,2.48-2.23-.84.86-1.61,1.89-2.55,2.66Z"/><path class="cls-1" d="M145.14,202.75c.33-.47.68-.96.98-1.38-.32.43-.46,1.24-.98,1.38Z"/><path class="cls-1" d="M133.45,197.98c-.39-.21-.63-.2-.31-.6.15.26.21.41.31.6Z"/><path class="cls-1" d="M134.9,201.15c-.32-.11-.37-.24-.15-.51.47.55.09.24.15.51Z"/><path class="cls-1" d="M134.52,200.29c-.29-.43-.19-.46-.38-.85.29.27.72.48.38.85Z"/><path class="cls-1" d="M135.74,203.11c-.33-.12-.25-.5-.38-.85.59.43.44.4.38.85Z"/><path class="cls-1" d="M146.65,200.81s.04-.18.27-.49l-.27.49Z"/><path class="cls-1" d="M148.53,198.2c.43-.59.56-.38.69-.47l-.69.47Z"/><path class="cls-1" d="M290.13,176.4c.34.11.31.17.33.18l-.33-.18Z"/><path class="cls-1" d="M306.78,203.86l.18-.33s.05.05-.18.33Z"/><path class="cls-1" d="M133.52,198.24c.1.19.22.42.31.6l-.31-.6Z"/><path class="cls-1" d="M147.54,199.58c.32-.41.37-.33.44-.4l-.44.4Z"/><path class="cls-1" d="M152.47,194.17c.09-.09.23-.06.25-.07l-.25.07Z"/><path class="cls-1" d="M133.99,198.93c.04.09.04.19.07.25l-.07-.25Z"/><path class="cls-1" d="M132.83,196.78c.15.23.12.47.15.51l-.15-.51Z"/><path class="cls-1" d="M289.71,176.38s.18-.09.25-.07l-.25.07Z"/><path class="cls-1" d="M289.72,229.99l.25-.07c-.08.02-.16.06-.25.07Z"/><path class="cls-1" d="M290.99,229.62l.25-.07c-.08.03-.17.05-.25.07Z"/><path class="cls-1" d="M306.26,204.43l.25-.07c-.09.11-.25.06-.25.07Z"/><path class="cls-1" d="M307.15,203.2l.25-.07c-.09.17-.25.06-.25.07Z"/><path class="cls-1" d="M204.19,263.38l.25-.07c-.08.03-.17.04-.25.07Z"/><path class="cls-1" d="M181.87,256.14c-.37.03-.53.59-.71.89-.3.52-.67,1.39-1.16,1.71-.63.41-4.07-.54-4.82-.96-.11-.06-.23-.11-.33-.18.03-.09,0-.2-.07-.25-.76-.58-1.62-1.18-2.09-.09-.66-.23-1.76-.22-2.06-.93.4-.08.44-.23.69-.47.48.3,1.3-.18.86-.6-.09-.08-.31.04-.33.03-.1-.05-.29-.13-.33-.18-.03-.05.1-.27-.31-.6-2.44-2-6.57-5.59-8.37-8.07-.26-.37-.34-1.45-.74-1.92-.54-.66-1.26-.76-1.81-1.2s-1.61-2.07-2.22-2.74c-2.08-2.28-3.97-4.46-6.43-6.35l-.73-.62c-.09-.11-.15-.24-.24-.35.25-.36.64-.81.8-1.06.64.22,1.05.7,1.55,1.07.05.04.11.05.16.09.15.11.34.17.49.27.03.02.24.32.56.53,4.27,2.69,9.1,4.2,14.14,3.45l2.34-.74c-1.25-1-2.43-2.11-3.55-3.25.05-.09.19-.25.15-.32-.12-.2-1.07-1.15-1.33-1.41-.04-.04-.12-.05-.16-.09-.27-.55-.63-1.09-1.11-1.47-.09-.07-.23-.11-.33-.18.46-.45-.76-1.05-.82-.45-.22-.1-.44-.28-.65-.36-.3-.11-1.29-.27-1.68-.33-.3-.05-1.3-.3-1.41.11-.06-.01-.11-.08-.16-.09-.24-.05-.4-.01-.42-.02-1.41-.31-3.08-.91-4.52-1.2-.17-.04-.38.27-.63.06.18-.34.4-1.06.66-1.57.82.49,7.62,1.76,7.94,1.51-1.31-1.8-2.69-3.55-4.17-5.21-.05-.06-.1-.2-.24-.35-.36-.37-.61-.89-1.18-1.1-.18-.05-.55.37-.64.52-.37.41-1.13.28-1.41.61-.44.52-.48,1.31-.82,1.9-.28.49-.78.81-1.01,1.37-.17.42,0,.8-.19,1.18-.23.49-.68.54-.99.94-.45.59-.99,1.82-1.41,2.55-.25.01-.79-.1-.89-.3-.14-.29.8-2.8,1.12-3.22-2.37-.98-5.05-2.55-6.68-4.56-1.27-1.56-2.22-3.82-2.68-5.78-.33-.17-.6-.01-.69.34-.1.4,2.78,5.89,3.25,6.44.06.07.24.1.33.18-.37.44.06.38.15.51,1.69,2.55,3.46,5.23,5.89,7.13-.26.44-.67.96-.98,1.38-.47-.6-1.08-.62-1.64-.91-.06-.03-.11-.06-.16-.09-.22-.12-.45-.23-.65-.36-1.18-.78-.93-1.23-1.67-2,1.48-.2.55-.52,0-1.31-.98-1.42-2.03-2.91-2.9-4.4-.5-.87-2.59-5.61-2.85-5.8-.44-.34-2.58,1.73-2.93,2.16-.25.31-.43.65-.61,1-.45-.26-1.02-.78-1.22-.89.87-1.68,2.61-2.6,3.87-3.92l-2.67-6.92c-11.11.65-23.24,5.13-30.78,13.64-.5.56-1.98,1.9-1.32,2.56,2.84,2.88,7.67,3.76,11.55,4.06,0,.03.31.15.31.53,0,.36-.29.79-.3.99-3.46-.07-6.89-.85-9.99-2.43,4.66,8.48,4.95,18.62,10.01,26.85.38.13,2.94-1.67,3.41-2.04,1.66-1.28,5.69-4.84,6.45-6.61l-.07-.25c.3-.77.59-1.54.86-2.31.09.03,1.52-.03,1.58.23-.12.28-.53.91-.22,1.16.57-1.14,3.05-1.49,3.62-.35.43.85.36,1.01,1.09,1.89.02.08.03.19.07.25,2.42,3.53,6.33,6.61,10.2,8.45.38.18,2.31.96,2.53.92.89-.19,2.07-4.37,2.26-5.34.37-1.94.25-3.23-.79-4.94-.19-.32-.2-.37-.47-.69-.04-.04-.13-.05-.16-.09.32-.32-.83-1.46-1.18-1.73-.31-.23-.79-.43-1.15-.64-.02-.34-.59-.58-.89-.71-.45-.19-1.02-.22-1.49-.4.42-.23,1.22-.74,1.64-1.02.11.04.22.15.33.18.09.03.19,0,.25-.07,1.41.51,2.73,2.26,3.71,3.34.24-.27.04-.49,0-.75-.28-1.5-1.03-3.08-1.86-4.36.29-.21.54-1.21,1.29-.78.03.14.4.4.49.61,2.21,4.97,1.58,9.19,3.58,13.86.94,2.2,2.09,4.25,3.93,5.83-.19.04-.66.12-.85.16-1.1.28-2.42.98-3.55.82-.18-.02-.47-.33-.65-.36-.16-.03-.24.08-.25.07-.29-.07-.58-.24-.91-.29-.08-.01-.18.04-.25.07-.51-.17-1.87-.77-2.32-.65-.23.06-2.17,2.21-2.69,2.64-6.28,5.25-16.02,5.9-22.88,1.4-1.27-.83-2.27-2.02-3.44-2.88-4.22,2.78-9.19,4.77-14.28,5.03-.52.03-2.72.08-3.09.04-.69-.09-2.89-1.08-3.02-1.89.43.18.69.08,1,.13.08.01.2-.08.25-.07,5.66.73,11.51-.49,16.44-3.47.27-.16,1.62-.94,1.63-1.1.02-.28-.4-.92-.7-1-.17-.04-2.82.71-3.51.77-7.73.71-13.95-5.54-15.36-12.76-1.03-5.31.21-10.54,2.43-15.38.15-.33.27-.87.29-.91.49-.99,1.08-1.68,1.62-2.53.1-.16.17-.34.27-.49.17-.26.3-.55.45-.82.07-.11.65-.12-.05-.67-.12-.09-.53-.33-.65-.36-.04-.96.89-1.35,1.26-1.88.1.17.23.33.4.44.05.03.11.06.16.09s.11.08.16.09c-.22.32-.23.36.14.51.11-.14.17-.38.27-.49.13-.13.29-.23.44-.4.11-.13.16-.36.27-.49.08-.09.11-.24.18-.33,0-.01.18.01.25-.07.28-.33.53-.73.8-1.06.08-.02.18-.03.25-.07.19-.11.29-.25.44-.4.04-.04.05-.12.09-.16,8.44-8.23,17.66-11.08,28.98-12.63.22-.03.62.12.65.11.55-.27-.39-2.02-.31-2.52.43.26,1.53.31,1.96,1.09.22.4-.19,1.02.83,1.23,1.46-.34,3.38.11,4.78-.16.46-.09.49-.31.65-.38.59-.26,1.12-.63,1.79-.72l-.1.37c-.07.08-.13.22-.18.33-.12.23-.3.39.06.47.21.04.2-.27.27-.28.03,0,.3.17.52.16,7.76,0,18.33.2,25.6,2.77,1.58.56,2.63,1.73,4.36.78l-.95-2.34c-.43-1.26-.72-3.18-.64-4.5.07-1.14.74-2.83.51-3.73-.95-3.69-5.2-7.67-8.81-8.63-2.77-.74-8.97.69-10.65,2.99.24-1.23.58-2.03,1.55-2.79,2.13-1.66,6.13-2.32,8.76-1.89,3.26.53,5.99,2.44,8,5,.87,1.11,1.4,2.43,2.23,3.56,2.36-4.08,7.67-7.93,12.5-7.86,1.38.02,1.38.32,2.48.73.62.23,1.42.4,1.99.67.34.16.23.18.06.46-.64-.62-.79-.04-.84-.04-.06,0-.43-.26-.69-.28-5.71-.52-12.33,2.43-14.54,8.03-.32.82.51,2.28.73,3.16.56,2.21.89,4.48,1.53,6.67.23.33.71.09,1.05.03.15.1.27.05.42.02.08-.02.17-.05.25-.07s.17-.04.25-.07l.16.09c-.06.39-.21,1.29-.24,1.58-2.19-.49-1.83,1.5-.09,2.09,0,.34.43,1.27.14,1.68l-.54-.19c-.22.3.03.57-.09.92-.17.52-.64,1.04-.86,1.56-.22-.12-.44-.24-.65-.36-.05-.03-.12-.05-.16-.09-.02-.08-.03-.18-.07-.25-.33-.59-.62-.61-.96-.96-.01-.01.01-.17-.07-.25-.86-.83-2.48-2.26-3.57-2.62-.4-.13-3.12.72-3.73.92-4.04,1.35-8.26,3.49-11.5,6.27.77.68,1.53,1.55,2.18,2.34.92,1.12,3.45,4.96,4.28,5.53.68.47,4.55.98,5.75,1.36.63.2,1.32.51,1.94.77.3.12.86.27.91.29,1.2.57,2.12,1.29,3.18,1.98.23.15.52.4.75.2.13-.12.22-.5.36-.66.01-.02.18-.09.35-.24.04-.04.05-.12.09-.16.09.03.2,0,.25-.07.18-.23.28-.57.45-.82.6.81.45.7.78,1.29l-1.33,2.04c.78.5,1.36,1.27,1.92,2,.42.55,1.39,2.52,1.61,2.72.57.49,3.53-.5,4.1-1.12.61.34,1.24.49,1.89.83-.81.6-2.11,1.19-3.08,1.51-.52.17-2.12.16-2.14.74-.01.45.61,1.93.74,2.55.23,1.16.24,2.36.51,3.5.81-1.23,1.83-2.35,2.63-3.58.5-.77.88-1.84,1.41-2.54.09.03.2,0,.25-.07.24-.32.4-.79.64-1.15.44-.67.73-.44,1.51-.02-.76,1.36-1.51,2.74-2.27,4.1-.03.05-.06.11-.09.16-.12.22-.24.44-.36.66-.35,0-.46.47-.62.73-.82,1.32-2.62,3.04-3.17,4.14-.4.8-.44,2.89-.78,3.95-.21.64-.52,1.31-.77,1.94-.13.32-.15.61-.2.75-.04.11-.13.22-.18.33ZM178.59,258.17c1.32-1.78,2.83-4.25,3.16-6.48.03-.21.15-.43-.08-.59-1.8,2.01-4.2,3.26-6.33,4.85l3.25,2.22ZM174.04,254.75c.27,0,4.08-2.59,4.59-2.99.62-.49,3.35-2.78,3.55-3.28.06-.16.06-1.95.04-2.29-.05-.89-.74-5.11-1.29-5.56-1.89,0-4.05-.32-5.79-1.09-.78-.35-1.88-1.24-2.6-1.4-.54-.12-1.9.66-2.52.81-3.88.97-8.36.51-11.98-1.18v.48c3.1,3.38,5.82,7.07,9.02,10.36.91.94,6.19,6.15,6.99,6.13ZM173.98,237.19c1.86,1.2,4.05,1.85,6.25,1.86.05-.54-2.45-3.98-2.95-4.09l-3.3,2.23ZM172.75,236.25c.21,0,3.36-2.16,3.31-2.41-2.73-2.26-6.25-3.11-9.64-3.84.02.38.51.92.76,1.23.77.96,4.57,5.05,5.57,5.03ZM175.73,212.43l2.27,1.69c-.07-.88-1.59-3.05-2.27-1.69ZM146.55,256.92c.24.49,4.12,1.31,4.88,1.41.21.03.43.15.59-.09-1.8-1.65-2.45-4.05-3.42-6.18-.5,1.61-.87,3.62-2.06,4.86ZM176.93,209.88l-.48-3.24-.84-3.06c-.5,2.07.19,4.52,1.32,6.3ZM157.33,218.92c2.7-2.17,5.82-4.02,9.01-5.37,1.38-.59,3.05-.96,4.38-1.54.22-.09.43-.03.52-.36-8.66-3.04-18.21-2.66-27.26-2.97-.82,1.68-1.01,3.56-1.26,5.38l3.29-.29c4.35.16,8.05,2.44,11.32,5.16ZM137.46,262.72c2.45-1.01,4.97-2.74,6.61-4.82-5.15-2.18-9.91-5.28-13.11-9.94-.23-.34-1.25-2.44-1.43-2.41-.87,1-2.59,1.98-3.35,2.98s-1.37,2.62-2.09,3.77c-1.57,2.48-3.67,4.5-5.86,6.4,4.41,5.68,12.89,6.65,19.24,4.03ZM151.61,225.42c1.17-2.04,2.77-3.86,4.51-5.43-2.61-2.24-5.73-4.31-9.25-4.64-.47-.04-3.58.16-3.77.34-.37.36.32,2.28.52,2.72,1.49,3.3,4.66,5.73,7.99,7.01ZM117.26,257.61c1.55-1.63,3.42-2.99,4.66-4.91l-5.32,3.82c-.47.46.21.85.67,1.1ZM137.99,209.63c.53,1.71,1.46,3.42,1.97,5.16,1.63,1.1,1.4-2.28,1.59-3.36.16-.94.46-1.85.73-2.76-.58-.05-4.47-.06-4.57.15.17.26.19.54.28.81ZM102.19,226.53c-5.23,7.42-7.45,19.72-.25,26.6,3.32,3.17,7.8,4.55,12.17,2.84-4.11-6.84-4.92-14.97-7.88-22.26-.35-.87-3.31-7.41-4.04-7.18Z"/><path class="cls-1" d="M230.24,219.51s-.05.26-.41.27c-.57.01-.99-.31-1.26-.34l.09-.16-.07-.25c.1-2.42-.07-8.07-.44-10.38-.14-.85-1.24-2.64-1.5-3.88-.15-.73-.18-1.36-.11-2.1s.34-1.44.35-2.17c.06-.11.12-.22.18-.33.38-.65.71-1.42,1.15-2.02.81-1.12,2.03-1.72,2.27-3.37-.21-.17-.38.15-.53.29-.4.34-1.67,1.46-1.9,1.79-.07.1-.11.23-.18.33-1.05.49-1.78,1.43-2.53,2.24-.04.05-.06.16-.09.16-.08,0-.27-.2-.33-.18-.06.02-.18.37-.27.49-.07.1-.11.24-.18.33-.41-.39-.6.28-.95.55-3.27,2.52-6.97,4.35-10.81,5.8-.58.22-2.74.68-3.01,1.05-.41.57-.17.87,0,1.46.31,1.01,1.01,2.93,1.43,3.89.1.23.64,1.36.73,1.48-.19.56-.42.16-.75.01-.92-.42-2.08-1.08-2.96-1.43-.22-.67-1.22-1.23-1.85-1.46-.22-.08-.4.6-.55.77-.5-.17-1.09-.5-1.56-.65.04-.15.27-.4.27-.49v-.21s-.16.12-.16.12c-.64-.42-1.4-.06-2.09-.09-1.08-.04-2.28-.1-3.24-.72.21-.05,1.47-.48,1.56-.56.2-.16.35-.42,0-.5-1.95.12-3.88.44-5.81.63-1.27.13-4.5.04-5.47.61-.79-.3-1.62.1-2.35-.01-.12-.02-.34-.28-.48-.24-.11.03-.14.27-.19.3-.09.05-.16.15-.3.16-.15,0-.25-.06-.37-.1-.57-.17-.42-.54-.85.38-.05,0-.1-.08-.16-.09-.08-.01-.18.03-.25.07-.19-.02-.36-.11-.58-.11-.08,0-.17.05-.25.07-.33.13-.55.25-.93.13,0-.02-.27-.05-.26-.41,0-.71.48-1.09.5-1.17.62.49.5.06.67-.06.15.1.28.03.42.02,5.68-.54,11.39-1.04,17.05-1.83l2.16-8.3c-.99-1.59-2.5-2.98-4.09-3.99-1.02-.92-2.6-1.8-3.93-2.18l-.65-.36c1-.61,2.53-.43,3.6.07,2.34,1.09,4.08,3.04,5.91,4.78,1.37-3.55,3.71-6.62,6.28-9.38,2.12-1.19,1.18-1.33,3.82-1.1-4.29,2.91-7.02,7.29-9.01,12,1.02,1.52,1.89,3.13,2.68,4.77.42.86.53,2.7,1.66,1.87,1.79-1.32,3.97-4,5.84-5.61,3.87-3.33,8.53-6.54,13-9.01.89-.49,2.06-.79,2.66-1.55,1.04.28,3.72.48,4.47,1.2.79.99,1.53,2.93,2.44,3.71v.21s.16-.12.16-.12c.21.14.45.23.65.36-.07.04-.18.35-.35.45-.92.54-1.21,1-2.29.45-.31.9.19,1.21-.7,2.03-.17.16-.37-.07-.39-.06-.48-.42-.25-1.49-1.06-1.56-.57-.05-2.48.91-2.74,1.46-.69,1.45-1.72,8.65-1.35,10.19.1.4.19.64.55.87-.05.48.08.48.07.63-.02.44.08,2.47-.13,2.56l-.37-.1.46,7.65ZM229.8,211.44l-.16-.09c0,.14.05.17.16.09ZM235.69,194.66c.42-.09-.48-1.51-.69-1.45-.27.59.11,1.26.69,1.45ZM231.98,195.17c1.74-.08,2.05-.88,1.02-2.22l-1.02,2.22ZM228.23,204.24l.53-2.98.09-1.61c-.88,1.31-1.31,3.11-.62,4.59ZM212.44,204.92c7.72-2.47,13.96-8.1,19.46-13.86-3.25,1.32-6.52,3.33-9.42,5.35-2.85,1.98-7.21,5.21-9.51,7.72-.22.24-.4.49-.53.79ZM209.04,211.82c.39-.1.05-.36,0-.49-.48-1.25-.88-3.07-1.88-.76.49.01,1.76,1.28,1.87,1.25ZM205.76,209.98c.09-.03.98-1.21,1.17-1.45.13-.16.44-.38.01-.44-.22-.03-4.07.7-4.32.81-.3.13-.49.17-.6.53.82.14,1.63.07,2.47.2.29.05,1.21.38,1.27.35ZM202.53,207.35c.07.16,3.17-.43,3.5-.52s.81-.12.91-.53c.09-.34-2.35-5.34-2.63-5.25-.97,1.97-1.23,4.2-1.78,6.3Z"/><path class="cls-1" d="M275.41,202.54l-5.25-6.34c-.37.12.16,2.69.21,3.18.12,1.22.21,2.49.24,3.72-1.56-.6-3.48-1.03-4.76-2.21-1.1-1.01-1.94-2.48-3.12-3.45l-.32,1.54c-.65-.51-1.41-.62-1.44-1.65,0-.16.2-.84.22-1.17,0-.07-.07-.17-.07-.25,0-.05.18-.19.14-.31-2.15-1.82-3.65-4.36-6.34-5.49-.32-.62-1.15-1.36-.91-2.22.29.17.79.2,1.24.47.02.01-.02.15.24.35.14.1.33.18.49.27l.33.18c1.78,1.47,3.67,2.77,5.17,4.58-.03-.76,1.17-4.07.83-4.44s-2.93-1.7-3.57-2c-.53-.25-1.33-.59-1.88-.81-.94-.37-2.69-.64-3.4-1.06-.59-.35-.88-1.15-.51-1.78.12.09.35.22.49.27.13.05.24-.08.25-.07.41.14.82.33,1.24.47.1.04.24-.08.25-.07.37.13.77.5,1.15.64.14.05.24-.08.25-.07.35.13.74.24,1.07.38.29.12.71.18.75.2,1.31.58,2.61,1.55,3.93,2.18.06.03.11.06.16.09.11.05.25.17.33.18.1.01.18.06.25-.07.54-.69.66-1.58,1.05-2.31.2-.39.92-1.01.91-1.28,0-.23-1.81-2.93-2.11-3.32-1.16-1.51-4.1-4.6-5.93-4.99-.31-.07-3.86,1.01-4.01,1.17-.64-.24.03-1.36.3-1.61s.75-.1.89-.52c-.16-.46-1.36.32-.57-1.29.12-.24.46-.43.48-.47.23.18.5.15.75.2.08.02.22-.08.25-.07.4.14.79.51,1.22.67.73.26,3.95-.7,4.99-.86,5.39-.83,14.03-.85,19.05,1.34.43.19.66.6.84.04.38.19.77.49,1.15.64,1.15.45,2.71.12,3.91.44l.35,2.68c-.08.16-.25-.07-.37-.1-.32-.08-.6-.18-.91-.29-.32-.15-.73-.57-1.07-.38-1.66-.64-1.69-.78-3.56-.65-4.95.34-10.99,3.22-13.72,7.48.5,1.96,1.37,3.91,1.94,5.92.19.68.38,2.52.62,2.99.54,1.05,3.39,3.73,4.37,4.95.77.96,1.41,2.21,2.36,2.97-.23.38-.58,1.06-.82,1.48ZM268.99,201.76c.2-.05.03-.83.01-1.04-.2-2.26-.67-4.51-.92-6.76-1.24-1.32-2.65-2.52-4.13-3.57-.42.12-1.05,4.21-1.16,4.88.74.8,5.68,6.61,6.19,6.49ZM276.6,175.83c.46-.14,1.13-.1,1.62-.36-.92-.54-2.31-.69-3.42-.88-5.1-.84-10.72-.66-15.72.66,3.07,1.69,5.1,4.65,6.96,7.51,2.59-3.46,6.49-5.72,10.56-6.93ZM267.52,191.3c-.4-1.68-.79-3.43-1.51-5.01-.09-.19-.01-.53-.36-.31-.17.1-1.32,2.57-1.31,2.72.05.43,2.68,2.15,3.17,2.6Z"/><path class="cls-1" d="M219.42,225.51c-.32-.1-.98-.52-1.31-.73-.02-.01.03-.15-.24-.35-.1-.07-.23-.11-.33-.18-.05-.04-.11-.06-.16-.09-.1-.07-.25-.11-.33-.18.02-.09,0-.2-.07-.25-.08-.07-.23-.11-.33-.18-.05-.04-.12-.05-.16-.09-1.25-1.01-2.22-2.24-3.2-3.49-.11,2.05-.09,4.08-.98,6s-2.2,2.99-3.59,4.55c-.14.15-.56-.02-.06.5-3.89,1.55-8.02,2.67-12.21,1.64-.6-.15-3.6-1.1-3.68-1.55l.64-1.15c.62-1.03,1.02-2.23,1.52-3.12l3.55-6.39c.18-.32,1.5-6.87,1.45-7.24-.01-.09-.04-.17-.07-.25.06-.16.2-.32.27-.49.65,0,.49-.08,1.42.14-.19.7-.18,1.46-.35,2.17-.04.17-.3.36-.11.58-.02.06-.07.11-.09.16-.1.28-.32.65-.21.96.16.08.42-.59.54-.78.59-.89,1.16-1.81,1.87-2.61.51.14.92.22,1.49.4-.3.78-1,1.23-1.46,1.87-.96,1.34-2.49,3.63-3.25,5.05s-1.25,4.11-1.95,5.81c-.76,1.84-1.82,3.42-2.63,5.17-.09.18-.39.5.02.54.46.05,1.73-.93,2.26-1.15,2.16-.91,4.48-1.1,6.79-.94,2.07.15,2.03.76,3.87-.94,3.77-3.5,4.24-7.84,2.38-12.39-.12-.29-.43-.28,0-.75.79.37,2.29.92,2.78,1.54.14.18.15.66.22.76.19.31.48.78.71,1.04.04.04.12.05.16.09l.07.25c.1.11.38.16.49.27-.32.55.35,1,.78,1.29.1.07.22.11.33.18.1.41.47.65.8.87.21.14.46.22.65.36l.33.18c.13.11.23.29.4.44.05.04.08.24.3.39.24.17,1.8,1.06,1.9,1.04.04,0,.12-.24.18-.33.11.06.22.12.33.18l.16.09c.22.12.44.24.65.36-.67.24-1.82.95-2.55.73ZM198.85,232.11c.06.26,2.58-.03,2.93-.09.26-.05,2.13-.5,2.05-.79-.43-.17-1.02-.15-1.48-.14-.47.02-3.66.36-3.5,1.02Z"/><path class="cls-1" d="M144.46,237.54c-1.95-2.21-4.06-4.44-6.79-5.69-.43-.2-2.63-.97-2.95-.94-.35.04-2.36,1.52-2.71,1.86-2.59,2.64-2.95,6.48-1.94,9.86-.02,0-.1.27-.29.27-.88,0-1.21-.17-1.43-1.02l-.29.91c-.49-.11-.97-.41-1.4-.56l2.86-11.71c-.11-.33-1.57-.24-1.93-.25-1.2-.02-8.72.2-9.31.45-.08.03-.17.04-.25.07-.18-.02-.38-.14-.58-.11,0-.04-.33-.12-.28-.67.03-.4.25-.71.26-.84.18.05.4.14.58.11.28-.04.32-.24.35-.24,2.34-.16,5.13-.3,7.48-.36.09,0,.19-.07.25-.07.05,0,.11.09.16.09.08,0,.22.19.37.2.16.01.58-.28.88-.15.13.02.28,0,.42.02.71.1.38-.13.51-.15s.28.03.42.02c.09,0,.21-.08.25-.07.09.01.22.16.33.18s.23.14.37.11c.66-.13,1.21-3.05,1.63-3.72.59-1.11,1.25-2.16,1.82-3.28.03-.06.07-.11.09-.16.05-.11.16-.23.18-.33.39-.7,1.07-.03,1.58.23-.2.3-.34.7-.55.98,0,.01-.18-.04-.25.07-.37.57-1.05,1.7-1.27,2.3-.03.08,0,.19.07.25-.38.99-1.21,2.1-1.38,3.22-.04.24-.24.21.13.36.22.09,2.51.47,2.72.45.4-.03,1.89-.71,2.55-.85,1.32-.28,3.97-.51,5.25-.2,1.12.28,1.19,1.07,1.76,1.84-2.25-.38-4.69-.75-6.87.04,3.35,1.19,5.86,3.56,8.11,6.22.34,1.02-.57.95-.89,1.22ZM130.87,231.93c.1-.03,1.52-1.43,1.49-1.53-1.25-.42-1.43-.1-1.69,1.11-.04.21-.23.54.2.42Z"/><path class="cls-1" d="M257.49,209.75c-.81.4-5.52-.1-5.78.03-.1.05-.24.33-.23.46,0,.17,1.25,2.72,1.41,3.17-.09.05-.3.61-.67.79-.42.21-.69-.11-.78-.1-.4-.72-1.31-4.02-1.78-4.36-.56-.4-3.07-.82-4.01-1.22-1.69-.71-3.41-1.86-4.9-2.93-.31.09-.05,2.9-.06,3.39-.03,1.63-.16,3.43-.31,5.05-.07.73-.08,1.61-.44,2.26-.22-.17-1.24-.76-1.47-.82.41-1.91.55-3.95.6-5.89.03-1.2.11-4.45-.2-5.45-.35-1.11-2.75-3.04-3.23-4.38.1-.09.33-1.25.82-1.47l1.58,2.16c.37-.1-.63-2.69-.58-2.82.27-.73.77-.57,1.07-.76.54,1.05.86,2.19,1.16,3.32.18.69.34,2.41.6,2.87.69,1.22,4.11,3.18,5.42,3.77.96.43,2.02.61,2.98,1.04.22-.24.09-.38.02-.63-.85-2.89-4.13-7.1-6.48-8.96-.05-.04-.11-.05-.16-.09-.19-.14-.45-.23-.65-.36-.01,0,.04-.18-.07-.25-.19-.13-.44-.26-.65-.36-.18-.09-.38-.28-.58-.11-.33-.17-.65-.37-.98-.54.87-.46.8-1.15,2.04-.59.38.17.78.42,1.15.64.11.06.22.12.33.18,2.65,1.66,4.48,4.08,6,6.75.41.72,1.84,4.14,2.12,4.36.96.79,4.98.22,6.3.31.01.04.34.1.41.29.14.35-.02.99.02,1.24Z"/><path class="cls-1" d="M250.44,185.04c-.3-.24-.62-.26-.98-.3-2.83-.33-6.44.18-8.92,1.56l5.39-.41,3.78.46c-.65.89-.51,1.2-1.73,1.19-5.43-.05-6.49.07-11.64,1.69-.54.17-2.82-.51-3.4-.81.64-2.44,1.22-4.85,2.61-7.02,2.43-3.77,4.91-4.8,8.39-7.03.1-.07.27-.08.35-.24.05,0,.18.15.3.11.31-.08,1.07-.46,1.32-.72.75.52.73.18,1.71,1.16-4.97,1.42-9.49,4.42-11.77,9.24-.27.56-1.31,3.61-1.04,4.02.19.29.37-.05.5-.15,1.28-.99,2.54-2.47,3.81-3.58,3.13-2.74,6.44-5.25,10.16-7.12.1.13.52.18.67.56s-.16.76-.14.8c-2.87,1.54-5.66,3.37-8.04,5.62,2.14-.61,4.13-.73,6.33-.72.22,0,.33-.18.54-.17.53.02,1.39.4,2.04.26-.08.63.02.81-.24,1.58ZM240.28,186.38l-.16-.09c0,.14.05.17.16.09Z"/><path class="cls-1" d="M284.79,229.61c-.32-.05-.61-.18-.91-.29-.06-.02-.11-.07-.16-.09-.25-.08-.77-.29-.98-.19-.83.7-1.87,1.47-2.81,2-.36.2-1.13.27-1.59.57-.67-.25-.11-1.37-.18-1.6.53-.05,3.29-1.53,3.18-1.88-1.25-.61-2.32-1.51-3.37-2.41l-3.63-4.26c.07-.1.05-.52.35-.93.51-.7.76-.34.8-.37.58,1.43,6.04,7.41,7.25,6.82,1.19-.58,2.81-4.85,3.03-6.26.37-2.37.02-3.33-1.53-5.14.08,0,.28-.18.57-.16.75.05,1.81.19,2.25.86.07.1.04.41.24.69.31.44.72.78,1.11,1.13.05.86-.1,1.13-.16,1.84l-.16-.09-.16-.09c-.1-.06-.24-.16-.33-.18v-.21s-.16.12-.16.12c.01,2.66-1.09,4.61-2.31,6.87l-.18.33c-.18.33-.37.65-.55.98h-.21c-.08.17.26.31.37.09.32.25.8.4,1.15.64-.3.55-.64.83-.89,1.22Z"/><path class="cls-1" d="M225.93,245.42c-.5.74-1.12.98-1.54,1.61-.45.68-.55,1.43-.97,2.14-1.98,3.34-6.5,5.17-9.53,7.15l-.09.16c-.23.33-.4.62-.71.89-.66.58-1.61.65-2.46.57.06-.04.1-.24.18-.33.09.02.2,0,.25-.07.11-.15.16-.36.27-.49.03-.04.68-.21.1-.37-.18-.05-.18.16-.27.28-1.23-.32-2.4.56-3.62.35.45-.64.95-1.11,1.33-1.62.1.06.8.05.84.04.09-.02.17-.05.25-.07.04-.01.05-.15.09-.16.08-.02.17-.05.25-.07.18-.05.34-.1.51-.15.09-.02.17-.05.25-.07s.17-.05.25-.07.17-.04.25-.07c.1-.03.23-.05.51-.15.08-.03.17-.04.25-.07s.17-.04.25-.07.18-.03.25-.07c.15-.08.23-.17.35-.24.06-.04.19-.02.25-.07.96-.82,1.06-1.75,1.55-2.79.32.04.65-.57.45-.82.07-.17.19-.32.27-.49.14-.3.01-.4.02-.42.06-.16.2-.32.27-.49.06-.15.15-.28.02-.42.28-.68.36-1.41.35-2.17.38-.33,1.08-1.76,1.82-1.35-.28.62-.41,2.86-.7,3.85-.22.74-.5,1.57-.78,2.29-.12.3-.99,1.49-.61,1.69.34.18,4.06-2.81,4.57-3.3,1.34-1.3,2.31-2.53,3.3-4.12h.21s-.03-.33-.03-.33c.1-.16.18-.33.27-.49.51-.26,1.06-1.27,1-1.8.13-.2.23-.49.36-.66.58-.69,1.18-.15,1.76-.09-.59.93-1.03,2.05-1.64,2.95Z"/><path class="cls-1" d="M299.89,217.83c-.2,1.07-1.07.42-1.53.44.04-2.43-2.09-4.66-4.02-5.87l1.99,2.94c.32.96.92,1.92.52,2.95-.57-.17-1.28-.6-1.56-.65.41-.56-.16-1.48-.45-2.01-1.11-2-2.38-2.79-4.33-3.86-.24-.13-.6-.11-.66-.15-.29-.17-.62-1.77-.7-2.21-.07-.4.1-.8.08-.92.57.12,1.06.45,1.56.65.14.06.24-.08.25-.07.22.09.43.28.65.36.66.25,2.11,1.17,2.66.62.64-.66,1.5-1.77,2.04-2.51.09.02.2,0,.25-.07.11-.14.17-.34.27-.49.44.2.85.24,1.4.56-.65,1.49-2.18,2.34-2.93,3.74,1.64.96,2.94,2.53,3.75,4.23.1.22.77,2.2.74,2.34Z"/><path class="cls-1" d="M205.37,257.39c-.39-.14-.78,0-1.19-.06-6.92-.9-12.24-6.41-13.23-13.23-.19-1.31-.04-2.5-.09-3.76.58-1.68,1.3-.2,1.76-.09-.4.99-.24,2.62-.08,3.67.91,5.69,5.02,10.23,10.68,11.53,1.2.27,2.43.21,3.63.41-.53.66-1.04,1.04-1.49,1.53Z"/><path class="cls-1" d="M303.53,205.49c-1.21-.22-1.89-.67-2.87-1.38.07-.09.11-.23.18-.33l-.33-.18c-.22.55-.88,1.15-.75,1.73-.18.33-.36.66-.55.98-.27-.19-1.13-.84-1.22-.89.21-.38.43-.76.64-1.15.14-.27.33-.54.45-.82.09-.21.43-1.19.38-1.31-.67-1.62-4.91-4.81-6.53-5.53-1.01-.45-3.65-.99-4.74-.92-.09,0-.17.04-.25.07l-.16-.09c.01-.31-.27-1,.13-1.22.78-.42,3.75.4,3.95.05,3.19,1.22,5.71,3.11,8.06,5.54v.21c.1.03.11-.05.16-.11.28-.37.29-1.2.49-1.66.74.82.7.92,1.18,1.73-.11.43-.46,1.28-.49,1.66,0,.1.05.17.07.25.27.93,1.14,1.31,1.76,1.84,1.03.88.36.94.44,1.53Z"/><path class="cls-1" d="M200.1,263.04c-.07.06-.11.3-.18.32-.07.02-.22-.14-.33-.18-.7.89-1.95,1.63-3.09,1.72-3.51.25-8.76-.99-12.06-2.19l-.03-.18c-.72-.02-1.73-1.2-1.96-.49-.88-.4-1.75-1.09-2.62-1.45,1.84-.09,3.59.31,5.33.81.31.09.6.19.91.29l.42.02c.25.09.87.56.98.54l.67-.06c.36.13.45.13.75.2.3.32.6.23.91.29,3.36.61,5.66.51,8.99.48.35,0,.03-.22.79.02.21-.27.07-.46.51-.15Z"/><path class="cls-1" d="M282.88,213.76c-.19-.12-.27-.29-.4-.44-.03-.03-.02-.18-.07-.25-.3-.42-.6-.77-.87-1.13-.09-.12-.11-.4-.31-.6-.95-.96-2.2-1.43-3.44-1.91-.29-.11-.4-.01-.42-.02-.16-.05-.33-.22-.49-.27-.28-.09-.4-.01-.42-.02-.11-.03-.22-.16-.33-.18-.15-.03-.24.08-.25.07-.34-.07-1.03-.45-1.24-.47-.58-.3-.51-.15-.27-.67s.61-1.03.87-1.57c3.42,1.5,7.03,3.03,9.6,5.86.16.18,1.2,1.55,1.22,1.65.04.29-.34.28-.53.29-.6.03-2.18-.06-2.65-.35Z"/><path class="cls-1" d="M182.52,216.41c-.01-.14-.32-.43-.23-.69.08-.24.78-.57,1.05-.79,2.57.86,5.26.12,7.66-.92,1.38-.6,3.03-1.46,4.22-2.36,1.15.03,1.94,0,3.09.21-.18.31-.45.4-.74.55-3.02,1.55-7.53,4.25-10.86,4.42-1.34.07-2.88-.16-4.19-.43Z"/><path class="cls-1" d="M228.56,187.06c-.11-.04-.21-.14-.33-.18-.06-.02-.11-.07-.16-.09-3.01-1.17-4.93-1.96-8.24-1.64l-1.6.47c-.91-.22-2.59.13-3.41-.04-.29-.06-.21-.23-.26-.28,2.64-1.51,6.15-1.97,9.16-1.45,1.86.32,3.15.85,4.83,1.7.39.2.77.42,1.15.64,1.24.72,2.03,1.47,3.09,2.14-1.47.07-2.91-.75-4.22-1.27Z"/><path class="cls-1" d="M188.53,230.25c-2.38-1.45-4.21-3.64-6.04-5.71-.18,1.48-.58,2.74-1.02,4.15-.06.11-.13.22-.18.33-.19.4-.23.86-.47,1.24-.46-.75-.46-.66-.85-1.55,1.22-2.95,1.49-6.68-.34-9.41.19-.41.52-1.05.78-1.4.11-.15.16-.38.38-.11.69.85,1.15,3.08,1.64,4.21,1.39,3.19,3.61,5.86,6.12,8.23Z"/><path class="cls-1" d="M261.09,209.82c.08-1.05-1.26-.05-1.91-.42,0-.08-.69-.96-.02-1.51.07.05.26.17.33.18.1.02.2-.07.25-.07.03,0,.29-.12.51-.15.18-.02.15.4.51-.15.06-.09.15-.23.18-.33.41.11.33-.37.11-.58,0-.14-.04-.16-.07-.25.31-.51.09-.87.05-1.26,0-.04-.16-.05-.16-.09,0-.08.03-.25.02-.42-.02-.22-.04-.45-.05-.67,0-.08-.07-.18-.07-.25,0-.05.09-.11.09-.16,0-.09.02-.25.02-.42,0-.24-.05-.47-.05-.67.12-.44.61-1.11.05-1.26,0-.1.02-.26.02-.42l.29-.91c.58.14.97.72,1.38.98l-.11,6.37,5.38-.45c-.24.51-.87.64-1.34.86-1.79.8-3.77,1.28-5.41,2.05Z"/><path class="cls-1" d="M194.97,234.47c-.09-.03-.2,0-.25.07-.72.95-1.18,2.51-1.91,3.44-.61.79-1.06,0-1.48-.17-.09-.03-.25.21-.66.13-1.16-.23-.63-.5-.7-.66-.21-.46-.51.19-.83.13-.6-.11-.88-.68-.97-.72.69-.74,1.57-1.27,2.35-1.91.08-.06.2-.11.35-.24.08-.07.1-.25.18-.33,0,0,.15.03.25-.07.07-.07.11-.24.18-.33.09.03.2,0,.25-.07.21-.28.34-.68.55-.98.66.32,2.23.97,2.96,1.22-.1.15-.16.36-.27.49Z"/><path class="cls-1" d="M258.82,223.57c.13.26.28.52.47.9.4.76.9,2.04-.04,2.56-.58-.16-.03-.48-.17-.84-.09-.24-.49-.5-.68-.7-1.38-1.43-2.21-2.39-3.3-4.08-.59-.91-2.72-4.46-2.82-5.32-.13-1.06.86-.61,1.29-.78,1.21,2.4,2.46,4.83,4.01,7.05.24.34,1.19,1.12,1.25,1.23Z"/><path class="cls-1" d="M261.02,225c-.83-1.31-.5-3.46-.29-4.88.02-.16,0-.3.02-.42.05-.44.51-.95-.04-1.09.03-.06.07-.11.09-.16l-.07-.25c.02-.06.08-.11.09-.16.06-.24.01-.4.02-.42.01-.06.08-.11.09-.16.02-.14-.08-.24-.07-.25.02-.1.15-.22.18-.33.18-.66.03-.19-.15-.51-.02-.03.08-.1.09-.16,0-.06.08-.11.09-.16.05-.35.05-.49.04-.84-.02-.66-.13-.43-.15-.51,0-.04.1-.41.11-.58,0-.07.19-.21.16-.32-.03-.11-.27-.13-.3-.19-.02-.03.09-.11.09-.16,0-.1.18-.27.02-.42.04-.11.17-.24.18-.33.14-.83-.33-1.34.94-1.57.19-.03.42.21.46.2.08,2.36.09,4.78-.14,7.14-.14,1.5-.54,2.97-.7,4.4,0,.08.04.18.07.25-.24.63-.52,1.29-.84,1.89Z"/><path class="cls-1" d="M251.99,235.86c-.12.02-.28.23-.46.17-.45-.14-1.69-.71-1.34-1.17.04-.05.06-.15.09-.16.02,0,.17.12.42.02,3.09-1.21,3.72-1.75,5.97-4.19h.21s-.11-.16-.11-.16c.15-.16.22-.5.36-.66.4-.44,2.15-1.44,2.75-1.48-1.18,2.79-4.72,7.18-7.88,7.64Z"/><path class="cls-1" d="M249.03,236.58c-.07-.01-.2.08-.25.07l-.25.07c-1-.09-2.01-.19-3-.38-.14-.03-.26-.13-.42-.02-.11-.05-.22-.12-.33-.18-.98-.53-4.19-2.95-4.78-3.72-.88-1.14-.92-2.33-1.53-3.42.17-.51.34-.24.76-.02s1.11.82,1.37,1.2c.3.45.47,1.21.97,1.86,1.85,2.39,2.76,2.21,5.36,2.94.88.25,1.01.42,1.72.96.28.22.78.16.39.64Z"/><path class="cls-1" d="M286.07,196.44c-.35-.31-.45.01-.7.18-2.45,1.6-4.46,3.58-4.21,6.75-.15.02-.95.83-1.6.18.22-.58.05-1.54.16-2.05.29-1.32,1.08-2.62,1.93-3.65,1.2-1.46,2.68-2.34,4.33-3.17.57-.11.09,1.58.09,1.76Z"/><path class="cls-1" d="M287.07,208.15c.61.34.82,1.51.83,2.18,0,.51-.21.29-.52.35-.53-.32-1.28-.56-1.89-.83l-.25.07c-.06-.03-.11-.06-.16-.09-1.48-.71-2.86-2.06-4.24-2.78.31-.26-.43-1.25-.69-1.46.4-.52,1.1-.6,1.6-.18.05.04.47.6.64.78-.02.09,0,.19.07.25.09.08.27.11.33.18.02.02,0,.18.07.25.04.04.12.05.16.09,0,0-.04.17.07.25.12.1.34.2.49.27.3.14.4.01.42.02.11.03.22.16.33.18.15.03.24-.08.25-.07.43.08.91.25,1.33.31.08.01.18-.04.25-.07.18.04.79.22.91.29Z"/><path class="cls-1" d="M228.42,240.15l-.09.16-.18.33c-.16-.03-1,.41-1.42-.14.19-.27.18-.62.29-.91.02-.06.07-.11.09-.16.63-1.87.94-3.97,1.35-5.9.04,0,.27-.39.78-.4.44,0,.91.31.98.31-.21.22-.14.52-.2.75l-.09.16c-.06.23,0,.38-.02.42l-.09.16c-.07.37-.14.81-.22,1.17l-.02.42c-.01.06-.08.11-.09.16l.07.25c-.05.2-.3.45-.36.66l.07.25c-.09.31-.44.66-.55.98-.08.25.07.62.05.67-.06.19-.25.46-.36.66Z"/><path class="cls-1" d="M216.76,244.19c-.36-2.47-.73-5.01-2.29-7.06.17-.05.47-.43,1.03-.51.31-.04.63.17.66.16,1.18,1.94,1.75,4.06,2.07,6.29-.27.18-1.19.88-1.47,1.11Z"/><path class="cls-1" d="M130.98,242.93c2.57-1.99,6.34-3.16,9.59-2.62-2.88,1.65-6.21,2.71-9.59,2.62Z"/><path class="cls-1" d="M230.4,231.18c-.16.86-1.39.3-1.69.35.22-1.32.2-2.67.25-4,.02-.49.34-1.33,0-1.86.35-.92,1.13-.22,1.76-.09-.04.11-.15.22-.18.33-.03.09,0,.19.07.25.02,1.67-.13,3.35-.22,5.02Z"/><path class="cls-1" d="M169.89,258.07c-.21.27-.83.44-1.15.55-.63.2-2.72.91-3.11.95-1.21.13-3.35-.78-4.66-.87,2.07-.05,4.62-1.18,6.35-1.41,1.25-.17,1.75.51,2.56.78Z"/><path class="cls-1" d="M296.34,220.37c-.19-.04-.25.12-.35.24-1.3,1.6-3.3,1.88-5.17,1.21,0-.2-.08-1.64-.09-1.77,1.41.56,3.4.98,4.22-.66.41.14,1.24.39,1.66.49-.1.16-.17.34-.27.49Z"/><path class="cls-1" d="M274.48,218.1c.06.44-.62,1.78-1.15,1.29l-1.98-4.53c.27-.56.51-1.45.72-2.07l.38.1c0,.32.65,2.14.82,2.59.19.53,1.19,2.37,1.22,2.61Z"/><path class="cls-1" d="M266.95,231.29c-.11-.09-.36-.23-.49-.27-.08-.03-.19,0-.25.07-.17-.06-.33-.22-.49-.27l-.75-.2c-.77-.38-1.22-.71-1.87-1.25-.7-.58-.32-.29-.6-.75-.2-.34-1.03-1.46-.63-1.63.07-.03.29.17.32.16.09.07.26.11.33.18.44.46.45.24.49.27.48.31.79.66,1.38.98.33.18.65.38.98.54.41.2.81.32,1.24.47.18.07.38.29.58.11.14.07.4.18.49.27.33.32,0,1.84-.73,1.31Z"/><path class="cls-1" d="M213.03,235.48c-.53-.38-1.13-1.19-1.78-1.63-.69-.46-1.5-.78-2.21-1.23.32-.53,1.09-.99,1.71-.77.46.17,1.26.67,1.69.96.85.59,1.64,1.67,2.37,2.14-.43.71-1.04,1.04-1.78.51Z"/><path class="cls-1" d="M231.48,223.84c-.55.49-1.89-.09-2.51-.11l.02-2.35c.08,0,1.43,0,1.51-.02-.02.38-.15.86.29,1.02l.64-1.15c.46,0,1.41-.22,1.76-.09-.47.74-1.08,2.13-1.71,2.7Z"/><path class="cls-1" d="M270.81,211.99c-.42-.16-.27-.83-.36-1.27l-.07-.25c-.15-.74-.24-1.48-.58-2.04-.09-.14-.17-.12-.03-.34.19-.3,3.31-1.23,3.43-.77-.07,1.18-1.54.95-1.68,1.11-.19.21.33,1.38.2,1.87-.16.59-.64,1.14-.89,1.7Z"/><path class="cls-1" d="M239.41,224.59c-.47,1.18-1.19-.32-1.56-.65l.15-3.35s.17-.27.39-.3c.48-.07,1.18-.34,1.37.21-.2.49-.46,3.6-.35,4.1Z"/><path class="cls-1" d="M268.93,231.96c.15-.47.19-.96.4-1.49.79.49,2.99.21,3.58.49.32.15.63,1.07.69,1.46-.22-.07-1.52.05-2,0-.9-.1-1.8-.22-2.68-.45Z"/><path class="cls-1" d="M177.8,261.17c-.08.01-.19.02-.25.07-.54.4-1.52,1.15-2.07,1.42-.73.36-1.63,0-1.98-.67.91-.29,2.26-1.35,3.02-1.97.45.11,1.36.09,2,.25-.32.23-.48.62-.71.89Z"/><path class="cls-1" d="M222.82,226.33c.14-.55.34-.35.63-.43.99-.29,4.04-.93,4.92-.69.29.08.23.25.26.28-1.06.67-2.65,1.01-3.9,1.07-.47.02-1.55-.24-1.92-.22Z"/><path class="cls-1" d="M233.64,218.4c-.77-1.29-1.5-3.58-1.67-5.1-.04-.34-.19-.57.09-.92.2.61.79,1.3,1.01,1.85.46,1.16.92,2.96.57,4.18Z"/><path class="cls-1" d="M269.53,204.64c.19-.57.41-.14.74-.02.32.11,2.2.7,2.24.82-.26.75-1.19.11-1.33.15-.08.02-.56.84-1,.86-.21,0-.43-.21-.46-.2-.32-.36-.14-1.49-.18-1.6Z"/><path class="cls-1" d="M252.29,188.65l-1.73-.74c.51-.65.52-1.8,1.55-.58.12.15.15,1.26.18,1.32Z"/><path class="cls-1" d="M278.03,203.99c-.31.05-1,.88-1.76.09.08-.55.72-.97.89-1.22l.87,1.13Z"/><path class="cls-1" d="M279.59,206.57l-1.98-.67c.44-.45,1.12-.57,1.6-.18.31.25.42.45.38.85Z"/><path class="cls-1" d="M287.12,230.04c-1.15-.36-.28-.85.08-1.68,1.15.36.28.85-.08,1.68Z"/><path class="cls-1" d="M239.42,225.35c-.11.08-.17.05-.16-.09l.16.09Z"/><path class="cls-1" d="M90.78,261.37c.14-.13.27-.04.42.02-.13.14-.27.05-.42-.02Z"/><path class="cls-1" d="M100.78,218.67c.03.08.08.17.07.25-.03-.08-.04-.17-.07-.25Z"/><path class="cls-1" d="M97.88,221.57c.07.05.09.17.07.25-.07-.05-.1-.17-.07-.25Z"/><path class="cls-1" d="M97.39,221.3c.05.03.11.06.16.09l-.17.12v-.21Z"/><path class="cls-1" d="M297.17,184.16c.33.23.36.22.51-.15.38.53.93,1.1.93,1.8-.69-.26-1.07-1.26-1.44-1.65Z"/><path class="cls-1" d="M305.53,199.95c-.07-.15-.56-.3-.22-.76.14.22.51.28.22.76Z"/><path class="cls-1" d="M290.04,180.42c.26.17.57.27.82.45-.47.3-.67-.33-.82-.45Z"/><path class="cls-1" d="M305.95,201.9c-.25-.32-.18-.74-.04-1.09.28.6.18.59.04,1.09Z"/><path class="cls-1" d="M289.62,178.47c.19-.22.73.07.65.36-.21-.13-.45-.23-.65-.36Z"/><path class="cls-1" d="M291.26,179.38c.13.09.28.16.24.35-.13-.09-.28-.16-.24-.35Z"/><path class="cls-1" d="M293.37,182.91c.2.17.22.33.24.35l-.24-.35Z"/><path class="cls-1" d="M292.57,182.04c.12.09.06.25.07.25l-.07-.25Z"/><path class="cls-1" d="M289.22,178.04l.07.25c-.11-.08-.06-.25-.07-.25Z"/><path class="cls-1" d="M305.6,200.2c.03.08.05.17.07.25-.04-.08-.05-.17-.07-.25Z"/><path class="cls-1" d="M156.95,260.55c.07.05.09.17.07.25-.08-.04-.13-.17-.07-.25Z"/><path class="cls-1" d="M158.33,261.53l.25-.07s-.05.16-.25.07Z"/><path class="cls-1" d="M298.05,221.53l.2-.75c-.06.38-.07.39-.2.75Z"/><path class="cls-1" d="M160.3,243.32c.55.44,1.27.54,1.81,1.2.39.48.47,1.56.74,1.92-.81.61-.78,1.54-1.85,1.96-1.97.76-4-1.19-3.23-3.19.53-1.37,1.33-1.47,2.54-1.9Z"/><path class="cls-1" d="M144.08,223.18c-.47-.55-3.34-6.05-3.25-6.44.09-.35.36-.5.69-.34.46,1.95,1.42,4.21,2.68,5.78-.28.33-.21.46-.01.78l-.12.22Z"/><path class="cls-1" d="M175.73,212.43c.68-1.36,2.2.81,2.27,1.69l-2.27-1.69Z"/><path class="cls-1" d="M162.92,229.34c-.13.42-1.09.15-1.42.11-.57-.08-1.11-.2-1.68-.33.12-.41,1.12-.16,1.41-.11.39.06,1.38.21,1.68.33Z"/><path class="cls-1" d="M145.88,245.4c-.38-.45-1.52-1.19-1.18-1.73.36.27,1.5,1.4,1.18,1.73Z"/><path class="cls-1" d="M167.18,233.63c-.39-.4-1.51-1.23-1.18-1.73.26.27,1.22,1.22,1.33,1.41.04.07-.1.23-.15.32Z"/><path class="cls-1" d="M171.32,255.87c.18-.18.35-.38.53-.56.02.01.24-.11.33-.03.44.42-.38.9-.86.6Z"/><path class="cls-1" d="M164.4,230.16c-.11-.08-.68-.39-.82-.45.06-.6,1.28,0,.82.45Z"/><path class="cls-1" d="M101.16,225.31c-.2-.2-.18-.43-.05-.67.71.55.12.56.05.67Z"/><path class="cls-1" d="M165.83,231.81c-.36-.37-.55-.72-.59-.75-.34-.32-.94-.22-.52-.72.48.38.84.93,1.11,1.47Z"/><path class="cls-1" d="M181.16,257.04c.18-.31.33-.87.71-.89-.14.31-.36.87-.71.89Z"/><path class="cls-1" d="M142.66,242.33c.3.13.87.37.89.71-.31-.18-.87-.33-.89-.71Z"/><path class="cls-1" d="M146.52,246.18c-.4-.25-.85-.26-.47-.69.28.32.28.37.47.69Z"/><path class="cls-1" d="M186.97,245.03c.16-.26.27-.74.62-.73-.15.26-.28.74-.62.73Z"/><path class="cls-1" d="M98.52,230.07c-.19-.29.16-.64.29-.91-.02.04-.14.58-.29.91Z"/><path class="cls-1" d="M172.53,230.17c.29-.19.64.15.91.29-.05-.02-.61-.17-.91-.29Z"/><path class="cls-1" d="M102.85,223.04c-.11.11-.16.35-.27.49-.37-.15-.37-.19-.14-.51.12.03.29,0,.42.02Z"/><path class="cls-1" d="M150.92,233.62l.73.62c-.34-.26-.4-.2-.73-.62Z"/><path class="cls-1" d="M171.52,255.12c-.39-.21-.63-.2-.31-.6.41.33.27.55.31.6Z"/><path class="cls-1" d="M144.96,206.94c-.06.01-.06.33-.27.28-.36-.07-.18-.23-.06-.47l.33.18Z"/><path class="cls-1" d="M153.68,233.65l.56.53c-.33-.21-.53-.51-.56-.53Z"/><path class="cls-1" d="M176.62,232.44l.75.2c-.23.2-.51-.05-.75-.2Z"/><path class="cls-1" d="M144.56,223.87c-.09-.13-.52-.07-.15-.51.24.21.47.06.15.51Z"/><path class="cls-1" d="M182.05,255.82c.05-.14.07-.43.2-.75l-.2.75Z"/><path class="cls-1" d="M100.43,226.62c-.23-.16.01-.61.27-.49-.1.16-.17.33-.27.49Z"/><path class="cls-1" d="M103.29,222.63c-.23-.16.01-.61.27-.49-.11.13-.16.36-.27.49Z"/><path class="cls-1" d="M179.7,209.92c.15-.03.27-.08.42.02-.15.03-.27.09-.42-.02Z"/><path class="cls-1" d="M177.73,231.98l.35-.24c-.16.15-.33.22-.35.24Z"/><path class="cls-1" d="M159.25,229.02s.18-.03.42.02l-.42-.02Z"/><path class="cls-1" d="M158.29,222.27c.14.15.19.29.24.35l-.24-.35Z"/><path class="cls-1" d="M153.03,233.29l.17-.12v.21c-.06-.04-.12-.05-.17-.09Z"/><path class="cls-1" d="M187.91,240.63c.05-.07.17-.1.25-.07-.05.07-.17.1-.25.07Z"/><path class="cls-1" d="M178.17,231.58c.06-.06.17-.09.25-.07-.05.07-.17.1-.25.07Z"/><path class="cls-1" d="M143.13,241.09c.06-.07.17-.1.25-.07-.07.07-.17.1-.25.07Z"/><path class="cls-1" d="M147.66,231.38c.05.03.11.06.16.09l-.17.12v-.21Z"/><path class="cls-1" d="M176.93,209.88c-1.13-1.78-1.82-4.23-1.32-6.3l.84,3.06.48,3.24Z"/><path class="cls-1" d="M132.24,246.84c.05.06.06.17.07.25-.05-.07-.05-.17-.07-.25Z"/><path class="cls-1" d="M187.95,243.65c.03-.05.06-.11.09-.16l-.09.16Z"/><path class="cls-1" d="M148.04,259.25c.07-.03.18-.09.25-.07-.06.06-.17.1-.25.07Z"/><path class="cls-1" d="M125.31,246.21l.07.25s-.09-.2-.07-.25Z"/><path class="cls-1" d="M149.2,259.47s.09-.1.25-.07l-.25.07Z"/><path class="cls-1" d="M174.78,257.36c.07.05.1.17.07.25-.07-.05-.09-.17-.07-.25Z"/><path class="cls-1" d="M177.19,215.6c.09.08.06.24.07.25l-.07-.25Z"/><path class="cls-1" d="M180.37,209.86l.25-.07c-.08.03-.17.05-.25.07Z"/><path class="cls-1" d="M97.33,263.07l.25-.07c-.06,0-.18.09-.25.07Z"/><path class="cls-1" d="M105.58,220.05s-.05.12-.09.16l-.11-.17h.21Z"/><path class="cls-1" d="M104.8,220.68c.06-.07.17-.09.25-.07-.07.04-.17.06-.25.07Z"/><path class="cls-1" d="M103.74,221.81l.25-.07c-.07.09-.25.06-.25.07Z"/><path class="cls-1" d="M178.22,216.82c.04.07.05.17.07.25-.07-.05-.09-.17-.07-.25Z"/><path class="cls-1" d="M102.1,222.84l.17-.12v.21c-.06-.03-.12-.06-.17-.09Z"/><path class="cls-1" d="M95.34,250.75c-1.04,3.6-6.23,1.36-4.32-1.8,1.37-2.28,4.98-.46,4.32,1.8Z"/><path class="cls-1" d="M277.01,190.29c-1.05.32-2.88-.58-3.19-1.7-.91-3.3,3.84-4.84,4.95-1.49.37,1.12-.68,2.86-1.76,3.19Z"/><path class="cls-1" d="M284.22,177.41c.34-.19.75.23,1.07.38-.37-.13-.7-.24-1.07-.38Z"/><path class="cls-1" d="M227.06,200.17c-.44-.24-.63-.16-.26-.65s1.99-2.16,1.24-2.66c.23-.33,1.51-1.45,1.9-1.79.16-.14.33-.46.53-.29-.24,1.65-1.47,2.25-2.27,3.37-.43.6-.77,1.37-1.15,2.02Z"/><path class="cls-1" d="M228.23,204.24c-.69-1.47-.26-3.27.62-4.59l-.09,1.61-.53,2.98Z"/><path class="cls-1" d="M225.34,199.42c.75-.81,1.48-1.75,2.53-2.24-.02.02.12.2-.17.54-.43.52-1.71,1.44-2.36,1.7Z"/><path class="cls-1" d="M195.02,193.11c1.32.38,2.91,1.25,3.93,2.18-1.22-.78-2.65-1.47-3.93-2.18Z"/><path class="cls-1" d="M226.54,202.66c-.46-.09-.22-1.55-.05-1.86.12-.23.39-.28.4-.3,0,.72-.28,1.45-.35,2.17Z"/><path class="cls-1" d="M235.69,194.66c-.58-.19-.96-.87-.69-1.45.21-.05,1.11,1.37.69,1.45Z"/><path class="cls-1" d="M224.46,200.22c-.27.32-.6.89-.95.55.35-.27.53-.94.95-.55Z"/><path class="cls-1" d="M184.68,210.96c.44-.93.29-.56.85-.38-.21.35-.49.38-.85.38Z"/><path class="cls-1" d="M186.88,210.47c-.17.48-.29.28-.67.06.05-.03.08-.27.19-.3.15-.03.36.22.48.24Z"/><path class="cls-1" d="M225.25,199.59c-.21.39-.21.63-.6.31.09-.12.21-.47.27-.49.06-.02.24.18.33.18Z"/><path class="cls-1" d="M183.41,209.4c.18-.11.25-.11.42.02-.14.01-.27.08-.42-.02Z"/><path class="cls-1" d="M204.29,211.12l.17-.12v.21s-.12-.06-.17-.09Z"/><path class="cls-1" d="M184.26,210.95c.07-.04.17-.09.25-.07-.08.04-.17.08-.25.07Z"/><path class="cls-1" d="M228.59,219.02l.07.25c-.01-.08-.08-.18-.07-.25Z"/><path class="cls-1" d="M237.71,194.49s.11.06.16.09l-.17.12v-.21Z"/><path class="cls-1" d="M229.8,211.44c-.11.08-.17.05-.16-.09l.16.09Z"/><path class="cls-1" d="M183.43,210.91c.08-.02.17-.07.25-.07-.08.04-.17.04-.25.07Z"/><path class="cls-1" d="M117,220.96c-2.21.35-4.1-3.39-1.44-4.8,2.5-1.32,5.04,1.84,2.94,4.04-.09.09-1.39.75-1.5.76Z"/><path class="cls-1" d="M210.67,245.05c-1.32,4.17-7.36.4-4.12-2.6,1.81-1.67,4.85.3,4.12,2.6Z"/><path class="cls-1" d="M281.16,174.43c-.18.57-.41.15-.84-.04.17-.55.41-.17.84.04Z"/><path class="cls-1" d="M254.81,173.32l.25-.07s-.17.09-.25.07Z"/><path class="cls-1" d="M175.02,188.18c-.43,1.91-2.41,3.02-4.1,1.87-2.86-1.93.63-6.49,3.38-3.87.26.25.8,1.66.72,2Z"/><path class="cls-1" d="M257.64,185.18l.75.2s-.45-.08-.75-.2Z"/><path class="cls-1" d="M256.31,184.87l.18-.33.07.25s-.11.12-.25.07Z"/><path class="cls-1" d="M255.24,188.35l.24.35c-.26-.2-.22-.33-.24-.35Z"/><path class="cls-1" d="M255.97,188.97l.18-.08c.14.03.12.24.15.26l-.33-.18Z"/><path class="cls-1" d="M262.32,187.56l.17-.12v.21c-.06-.03-.11-.06-.17-.09Z"/><path class="cls-1" d="M262.81,187.83l.25-.07c-.08.14-.15.08-.25.07Z"/><path class="cls-1" d="M261.11,195.9c0,.08.08.18.07.25l-.07-.25Z"/><path class="cls-1" d="M254.91,184.31l.25-.07s-.15.11-.25.07Z"/><path class="cls-1" d="M253.42,183.91l.25-.07s-.12.12-.25.07Z"/><path class="cls-1" d="M211.31,197.58c-1.42.36-2.96-.65-3.16-2.11-.44-3.23,4.37-3.93,4.88-.71.16,1-.78,2.58-1.73,2.82Z"/><path class="cls-1" d="M234,177.16c-1.2,3.53-6.13,1.44-4.7-1.83,1.16-2.66,5.68-1.05,4.7,1.83Z"/><path class="cls-1" d="M228.54,185.55c.36-.16,1.09.25,1.15.64-.38-.22-.76-.44-1.15-.64Z"/><path class="cls-1" d="M243.95,174.37c.08-.2.14-.23.35-.24-.07.16-.24.17-.35.24Z"/><path class="cls-1" d="M193.94,223.12c-1.18,2.93-5.87,1.24-4.8-1.66,1.33-3.6,6.03-1.4,4.8,1.66Z"/><path class="cls-1" d="M199.85,212.95c.03.08.06.17.07.25-.07-.06-.1-.17-.07-.25Z"/><path class="cls-1" d="M245.1,236.33c.15-.11.28,0,.42.02-.13.13-.27.05-.42-.02Z"/><path class="cls-1" d="M248.52,236.72l.25-.07s-.17.08-.25.07Z"/><path class="cls-1" d="M229.58,236.51l.02-.42c-.01.06.02.23-.02.42Z"/><path class="cls-1" d="M228.78,239.5c.02-.06-.14-.43-.05-.67.2.2.18.43.05.67Z"/><polygon class="cls-1" points="228.33 240.32 228.42 240.15 228.54 240.32 228.33 240.32"/><path class="cls-1" d="M229.2,237.59s.12.11.07.25l-.07-.25Z"/><path class="cls-1" d="M229.49,236.68s.11.1.07.25l-.07-.25Z"/><path class="cls-1" d="M229.93,234.35l.09-.16c-.05.2-.09.15-.09.16Z"/><path class="cls-1" d="M229.82,234.93l.09-.16c-.06.25-.09.15-.09.16Z"/><path class="cls-1" d="M223.42,249.17c.42-.71.52-1.46.97-2.14.42-.64,1.04-.88,1.54-1.61-.08.88.61.45,1.07.6,3.67,1.23,1.36,6.96-2.38,4.25-.47-.34-.63-.89-1.2-1.1Z"/><path class="cls-1" d="M213.79,256.48l.09-.16c.05.13-.07.13-.09.16Z"/><path class="cls-1" d="M260.82,202.6c-.02-.53.06-.89.05-1.26.56.14.07.82-.05,1.26Z"/><path class="cls-1" d="M260.98,206.54s-.25-.07-.28-.19c-.05-.19.26-.82.33-1.07.04.39.25.75-.05,1.26Z"/><path class="cls-1" d="M260.95,207.38s.11-.55.11-.58c.22.21.3.69-.11.58Z"/><path class="cls-1" d="M260.77,207.71c-.36.55-.33.12-.51.15.15-.37.18-.38.51-.15Z"/><path class="cls-1" d="M260.88,205.2l.02-.42c.01.17-.03.34-.02.42Z"/><path class="cls-1" d="M260.86,203.69l.02-.42c0,.16-.02.33-.02.42Z"/><path class="cls-1" d="M260.77,203.85c0,.08.07.17.07.25l-.07-.25Z"/><path class="cls-1" d="M259.49,208.08l.25-.07c-.05,0-.15.1-.25.07Z"/><path class="cls-1" d="M198.85,232.11c-.16-.65,3.03-1,3.5-1.02.46-.02,1.05-.03,1.48.14.09.29-1.78.74-2.05.79-.35.07-2.87.35-2.93.09Z"/><path class="cls-1" d="M220.82,224.15c-.07.08-.14.32-.18.33-.11.01-1.67-.88-1.9-1.04-.22-.16-.25-.35-.3-.39.78.04,1.66.71,2.38,1.11Z"/><path class="cls-1" d="M215.93,221c-.43-.29-1.11-.74-.78-1.29.32.33,1.13.97.78,1.29Z"/><path class="cls-1" d="M217.06,222.06c-.33-.22-.7-.46-.8-.87.21.14,1.29.34.8.87Z"/><path class="cls-1" d="M201.32,215.69c-.12.18-.38.86-.54.78-.11-.31.11-.67.21-.96l.33.18Z"/><path class="cls-1" d="M214.42,219.1c-.23-.26-.52-.73-.71-1.04.37.23,1.09.58.71,1.04Z"/><path class="cls-1" d="M201.09,215.35c-.19-.22.07-.41.11-.58.12.24-.03.38-.11.58Z"/><path class="cls-1" d="M217.87,224.44c.27.19.22.33.24.35l-.24-.35Z"/><path class="cls-1" d="M217.71,222.42s.02-.1.33.18l-.33-.18Z"/><path class="cls-1" d="M214.58,219.19c.1.11.06.24.07.25l-.07-.25Z"/><path class="cls-1" d="M216.49,223.46s.11.06.16.09l-.17.12v-.21Z"/><path class="cls-1" d="M216.98,223.73c.07.06.09.16.07.25-.07-.06-.09-.16-.07-.25Z"/><path class="cls-1" d="M217.38,224.17c.05.03.11.05.16.09l-.17.12v-.21Z"/><path class="cls-1" d="M221.15,224.33c.06.03.11.06.16.09l-.16-.09Z"/><path class="cls-1" d="M129.42,228.77c.81-.39.54-.81.79-1.4.34-.79.86-1.54,1.21-2.21-.42.67-.97,3.59-1.63,3.72-.14.03-.26-.09-.37-.11Z"/><path class="cls-1" d="M127.49,228.77c-.3-.13-.72.16-.88.15-.15-.01-.3-.2-.37-.2.45-.39.87-.01,1.26.05Z"/><path class="cls-1" d="M128.42,228.64c-.13.02.2.25-.51.15.12-.34.23-.37.51-.15Z"/><path class="cls-1" d="M118,229.29l.35-.24s-.06.2-.35.24Z"/><path class="cls-1" d="M133.33,221.72c-.02.06-.06.11-.09.16l-.11-.17h.21Z"/><path class="cls-1" d="M128.84,228.66l.25-.07s-.16.07-.25.07Z"/><path class="cls-1" d="M125.82,228.7l.25-.07c-.07,0-.17.07-.25.07Z"/><path class="cls-1" d="M130.87,231.93c-.42.12-.24-.21-.2-.42.26-1.21.44-1.53,1.69-1.11.03.1-1.39,1.5-1.49,1.53Z"/><path class="cls-1" d="M134.3,222.68c.08-.12.25-.06.25-.07l-.25.07Z"/><path class="cls-1" d="M133.02,224.98c.07.06.1.17.07.25-.07-.06-.1-.17-.07-.25Z"/><path class="cls-1" d="M118.02,230.8c.08-.03.17-.04.25-.07-.08.04-.17.08-.25.07Z"/><path class="cls-1" d="M242.31,196.61l.17-.12.15.3c-.11-.07-.22-.12-.33-.18Z"/><path class="cls-1" d="M240.11,197.11c.2-.17.4.02.58.11-.2.17-.4-.02-.58-.11Z"/><path class="cls-1" d="M242.07,198.2s.12.05.16.09l-.17.12v-.21Z"/><path class="cls-1" d="M241.34,197.58c.12.08.06.25.07.25l-.07-.25Z"/><path class="cls-1" d="M270.37,210.46l.07.25c-.02-.09-.06-.17-.07-.25Z"/><path class="cls-1" d="M261.78,222.85c.07.06.1.17.07.25-.04-.08-.08-.17-.07-.25Z"/><path class="cls-1" d="M194.72,234.54c.05-.07.17-.1.25-.07-.06.07-.17.1-.25.07Z"/><path class="cls-1" d="M298.64,204.27c-.2-.25.14-.85.45-.82-.12.28-.31.55-.45.82Z"/><path class="cls-1" d="M287.94,195.77c.08-.03.17-.07.25-.07l-.25.07Z"/><path class="cls-1" d="M227.11,239.43c-.02.06-.07.11-.09.16l-.11-.17h.21Z"/><path class="cls-1" d="M181.3,229.02c.05-.11.13-.22.18-.33-.02.07.16.28-.18.33Z"/><path class="cls-1" d="M190.52,234.78l.35-.24c-.14.13-.27.17-.35.24Z"/><path class="cls-1" d="M191.48,233.82c.06-.07.17-.09.25-.07-.05.07-.17.1-.25.07Z"/><path class="cls-1" d="M191.04,234.22l.25-.07c-.1.1-.25.06-.25.07Z"/><path class="cls-1" d="M262.51,227.33c.2-.23.48.02.49.27-.04-.03-.05.18-.49-.27Z"/><path class="cls-1" d="M264.38,228.58c.3-.18.97.18.98.54-.33-.16-.65-.37-.98-.54Z"/><path class="cls-1" d="M266.6,229.6c.2-.17.4.02.58.11-.21.18-.4-.04-.58-.11Z"/><path class="cls-1" d="M276.46,209.13s.14-.07.42.02l-.42-.02Z"/><path class="cls-1" d="M281.23,211.34c.2.2.22.48.31.6-.24-.13-.37-.33-.31-.6Z"/><path class="cls-1" d="M277.37,209.42s.13-.09.42.02l-.42-.02Z"/><path class="cls-1" d="M282.41,213.07c.06.08.05.23.07.25l-.07-.25Z"/><path class="cls-1" d="M275.88,209.02s.11-.11.25-.07l-.25.07Z"/><path class="cls-1" d="M273.6,232.41c-.07-.39-.37-1.3-.69-1.46.39-1.98,2.27-3.63,4.2-2.38.07.05,1.01,1.34,1.04,1.42.07.23-.49,1.35.18,1.6-1.11.71-1.56,2.12-3.19,1.61-.57-.18-1.07-.66-1.54-.8Z"/><path class="cls-1" d="M283.72,229.23c.06.02.11.07.16.09l-.17.12v-.21Z"/><path class="cls-1" d="M284.92,226.68l.18-.33c-.05.09-.14.25-.18.33Z"/><path class="cls-1" d="M284.53,227.75c-.11.22-.45.08-.37-.1h.21c.05.05.11.06.16.1Z"/><path class="cls-1" d="M287.41,219.49l.17-.12v.21c-.07-.01-.11-.07-.17-.09Z"/><path class="cls-1" d="M287.9,219.76l.16.09-.16-.09Z"/><path class="cls-1" d="M224.44,245.02c.36-.58.63-1.23,1-1.8.06.53-.49,1.54-1,1.8Z"/><path class="cls-1" d="M215.01,251.59c.14-.31.42-.75.45-.82.2.25-.14.85-.45.82Z"/><path class="cls-1" d="M211.34,257.05l-.16-.09c.09-.12.09-.33.27-.28.57.17-.07.34-.1.37Z"/><path class="cls-1" d="M215.74,250.27c-.41-.15-.42-.32.02-.42,0,.02.12.12-.02.42Z"/><path class="cls-1" d="M216.03,249.36c-.14-.13-.04-.27.02-.42.14.13.05.27-.02.42Z"/><path class="cls-1" d="M223.98,245.84c.07-.11.12-.22.18-.33l.03.33h-.21Z"/><path class="cls-1" d="M213.21,254.45l.25-.07c-.06.05-.2.04-.25.07Z"/><path class="cls-1" d="M212.61,254.76l.25-.07c-.07.04-.18.04-.25.07Z"/><path class="cls-1" d="M210.81,257.62c.06-.07.17-.09.25-.07-.05.07-.17.1-.25.07Z"/><path class="cls-1" d="M212.1,254.9l.25-.07c-.08.03-.17.04-.25.07Z"/><path class="cls-1" d="M211.34,255.12l.25-.07c-.08.03-.17.05-.25.07Z"/><path class="cls-1" d="M210.83,255.27l.25-.07c-.08.03-.17.05-.25.07Z"/><path class="cls-1" d="M210.06,255.49l.25-.07c-.09.02-.17.05-.25.07Z"/><path class="cls-1" d="M209.72,255.72l.25-.07c-.09.02-.16.05-.25.07Z"/><path class="cls-1" d="M182.45,262.04c.23-.7,1.24.47,1.96.49l.03.18c-.66-.24-1.33-.37-1.98-.67Z"/><path class="cls-1" d="M177.54,261.25c.07-.05.17-.06.25-.07-.06.07-.17.09-.25.07Z"/><path class="cls-1" d="M291.7,209.43c.19-.56.42-.16.75-.01.64.29,1.14.67,1.91.63-.54.56-1.99-.36-2.66-.62Z"/><path class="cls-1" d="M290.8,209.14l.25-.07s-.12.13-.25.07Z"/><path class="cls-1" d="M296.4,207.53c.05-.07.17-.1.25-.07-.06.07-.17.1-.25.07Z"/><path class="cls-1" d="M230.55,225.9c.03.08.07.17.07.25-.07-.07-.1-.17-.07-.25Z"/><path class="cls-1" d="M250.28,234.7l.42.02c-.25.1-.4-.03-.42-.02Z"/><path class="cls-1" d="M256.67,230.52s.05-.12.09-.16l.11.17h-.21Z"/><path class="cls-1" d="M300.65,204.11c-.39.46-.56.62-.89,1.22-.13-.58.53-1.18.75-1.73l.33.18c-.07.1-.11.24-.18.33Z"/><path class="cls-1" d="M299.91,200.05l.16.09c-.05.07-.06.14-.17.11v-.21Z"/><path class="cls-1" d="M301.26,201.87l.07.25c-.02-.08-.08-.16-.07-.25Z"/><path class="cls-1" d="M296,220.6c.1-.12.15-.28.35-.24-.09.13-.16.28-.35.24Z"/><path class="cls-1" d="M188.89,262.4c.26.06.63-.04.91.29-.31-.06-.61.03-.91-.29Z"/><path class="cls-1" d="M187.47,262.25c.22-.03-.27-.4.67-.06l-.67.06Z"/><path class="cls-1" d="M186.07,261.69s.12-.09.42.02l-.42-.02Z"/><path class="cls-1" d="M228.07,186.79c.06.02.11.07.16.09l-.17.12v-.21Z"/><path class="cls-1" d="M261.07,214.1c-.37-.15-.38-.18-.15-.51.03.06.27.08.3.19.03.11-.15.25-.16.32Z"/><path class="cls-1" d="M261.11,215.19c-.36-.14-.38-.2-.15-.51.02.08.13-.15.15.51Z"/><path class="cls-1" d="M261.04,216.87c-.37-.15-.38-.18-.15-.51.18.32.33-.15.15.51Z"/><path class="cls-1" d="M261.02,213.43c-.14-.14-.04-.27.02-.42.17.15-.02.32-.02.42Z"/><path class="cls-1" d="M260.82,218.03l.02-.42s.04.18-.02.42Z"/><path class="cls-1" d="M260.73,218.19l.07.25s-.09-.19-.07-.25Z"/><path class="cls-1" d="M260.86,217.19s.1.11.07.25l-.07-.25Z"/><path class="cls-1" d="M261.07,216.03c0,.06-.08.11-.09.16l-.11-.17h.21Z"/><path class="cls-1" d="M283.57,207.5l.42.02s-.12.12-.42-.02Z"/><path class="cls-1" d="M282.37,206.19c.05.06.06.17.07.25-.07-.06-.09-.17-.07-.25Z"/><path class="cls-1" d="M282.77,206.62l.07.25c-.07-.08-.05-.23-.07-.25Z"/><path class="cls-1" d="M283.01,206.97l.07.25c-.11-.09-.06-.25-.07-.25Z"/><path class="cls-1" d="M284.32,207.7l.25-.07s-.11.11-.25.07Z"/><path class="cls-1" d="M285.9,207.93c.07-.05.17-.09.25-.07-.08.04-.17.08-.25.07Z"/><path class="cls-1" d="M285.23,209.92l.25-.07s-.14.12-.25.07Z"/><path class="cls-1" d="M264.96,230.62l.75.2c-.18-.06-.35,0-.75-.2Z"/><path class="cls-1" d="M266.2,231.09c.06-.07.17-.1.25-.07-.06.07-.17.1-.25.07Z"/><path class="cls-1" d="M106.59,243.18c.02.1-.11.96-.16,1.08-1.4,3.88-6.38,1.28-4.48-1.9,1.16-1.94,4.34-1.09,4.64.82Z"/><path class="cls-1" d="M133.35,259.41c-.61,2.33-3.12,3.03-4.6,1.04-1.49-2.01,1.01-4.91,3.33-3.55.76.45,1.5,1.61,1.27,2.51Z"/></g></svg>