<?xml version="1.0" encoding="UTF-8"?><svg id="Ebene_2" xmlns="http://www.w3.org/2000/svg" xmlns:xlink="http://www.w3.org/1999/xlink" viewBox="0 0 1027 1092"><defs><style>.cls-1,.cls-2,.cls-3,.cls-4,.cls-5{fill:none;}.cls-2{stroke-width:1.62px;}.cls-2,.cls-3,.cls-4,.cls-5{stroke:#e9eaed;stroke-linecap:round;stroke-linejoin:round;}.cls-3,.cls-5{stroke-width:1.55px;}.cls-4{stroke-width:.72px;}.cls-6{opacity:.71;}.cls-6,.cls-7,.cls-8,.cls-9,.cls-10,.cls-11{fill:#e9eaed;}.cls-7{opacity:.18;}.cls-8,.cls-11{opacity:.4;}.cls-9{opacity:.1;}.cls-11,.cls-5{fill-rule:evenodd;}.cls-12{clip-path:url(#clippath);}</style><clipPath id="clippath"><path class="cls-1" d="M0,0v1092h1027V0H0ZM685.31,177.55l-.13.16-.48.57-.2.14c-.23.17-.47.34-.77.5l-.25.11c-.32.15-.66.3-1.04.43l-.06.03h0c-12.96,4.33-61.41-1.94-61.41-1.94l-106.28,41.37s1.7,20.96,0,28.12c-.19.79-1.22,1.73-2.9,2.76l124.17,24.52,43.35,19.49-.13.3-.02.05c-.09.2-.25.49-.43.82l-.07.12c-.2.35-.46.76-.76,1.2l-.12.17c-.32.45-.69.95-1.12,1.46l-.08.11h0c-2.27,2.66-6.13,5.85-12.29,7.27l-38.92-15.92-130.38-10.15c.26.47.52.94.77,1.41l.39.72-.03.03c1.83,3.72,3.09,7.74,3.7,11.99l.03-.06c.05.32.07.65.11.97.05.41.1.81.13,1.22.11,1.18.18,2.38.18,3.59,0,11.19-4.57,21.31-11.94,28.6v31.55h14.68v36.66l.31.02c1.02.11,2.03.25,3.04.39.45.06.92.1,1.37.17,1.12.17,2.22.38,3.33.59.34.06.68.11,1.01.18,1.19.24,2.36.52,3.53.81l.73.17c1.24.32,2.46.67,3.67,1.04l.51.14c1.2.37,2.38.78,3.56,1.2l.54.18c1.17.43,2.32.89,3.46,1.36l.53.21h0c31.81,13.4,54.15,44.87,54.15,81.56v537c0,15.18-9.82,28.04-23.44,32.65v.02l-.28.08c-.49.17-1,.3-1.51.44-.51.14-1.03.28-1.55.4-.47.11-.94.21-1.42.3-.63.12-1.28.21-1.92.29-.39.05-.77.11-1.17.15-1.06.1-2.13.17-3.21.17h-176.46c-19.06,0-34.5-15.45-34.5-34.5V483.95c0-45.92,34.98-83.65,79.75-88.03v-36.66h14.68v-31.55l-.33-.33c-.78-.79-1.52-1.6-2.23-2.45-.36-.43-.69-.89-1.04-1.34-.29-.39-.6-.76-.89-1.15l.02-.02c-.39-.55-.77-1.1-1.13-1.67-86.46,25.07-109.22,108.46-112.54,122.88,7.09,2.35,11.72,4.63,11.82,6.03l.06.02-42.88,317.52c-1.75.44-3.58.77-5.43,1.06-.39.06-.79.12-1.18.18-1.84.25-3.71.44-5.61.56l-.61.03c-1.82.1-3.67.14-5.52.14h-.87c-1.99-.02-3.99-.09-5.97-.2h-.24s0-.02,0-.02c-7.83-.47-15.43-1.61-21.88-2.85h0c-.36-.06-.7-.13-1.05-.2-.38-.08-.75-.15-1.11-.22-.86-.18-1.68-.34-2.49-.52-.42-.09-.84-.18-1.24-.27-.72-.16-1.4-.32-2.07-.47-.38-.09-.78-.18-1.13-.26-.96-.23-1.86-.45-2.68-.65-.4-.09-.88-.2-1.32-.3h0s-.15-.03-.15-.03c-.4-.09-.79-.18-1.21-.28l-.69-.16c-.47-.11-.93-.22-1.42-.34l-.14-.03-.83-.21c-.3-.08-.62-.16-.93-.24-.65-.17-1.31-.33-1.99-.51l-.7-.19-.86-.23c-.11-.03-.24-.07-.35-.1-.63-.17-1.26-.35-1.9-.53l-.36-.1-.76-.21c-1.34-.39-2.73-.81-4.15-1.26l-.19-.06-.13-.04-.26-.08h0c-2.61-.84-5.31-1.75-8.04-2.77l-.7-.26c-1.16-.44-2.34-.9-3.51-1.38l-.42-.17h0c-8.56-3.53-17.06-8-23.55-13.57l103.16-303.34.06.02c.7-1.18,5.66-1.18,12.79-.2,20.27-100.74,91.41-136.62,136.53-149.33,1.09-3.67,2.7-7.11,4.73-10.26-6.03,1.61-10.4,2.75-12.05,3.2-8.99,2.45-27.8-27.8-27.8-27.8-.72-.84-1.21-1.71-1.55-2.59v.02s-.05-.15-.05-.15c-.44-1.2-.59-2.41-.55-3.56v-.14c.03-.56.1-1.11.2-1.64l.04-.19c.11-.52.24-1.02.38-1.48l.02-.06c.15-.47.32-.91.49-1.3v-.03c.17-.38.33-.71.48-.99l.06-.11.33-.61.05-.07.11-.19c9.81-4.09,225.65-77.67,225.65-77.67l62.27,5.93s11.45,4.7,11.31,8.79l-.23.83Z"/></clipPath></defs><g id="Ebene_1-2"><g id="Fire"><g class="cls-12"><g id="Fire_Hydrant"><path class="cls-11" d="M944.11,458.81v-9.45c0-1.46-1.19-2.67-2.67-2.67l-15.72-3.07c-.13,0-.24.02-.37.04v-5.61h.02v-13.78h-.02v-12.04l-14.86-4.97v-.99h-.05v-15.08h-22.26v-.05h-4.88v.26h-.05v9.12h-11.99v-9.14h-.02v-.11h-.04v-.04h-38.09c-6.71-.27-9.91-4.79-11-11.72h-.37v-33.14h10.44v-7.16h7.55v-10.24h8.74c1.68,0,3.05-1.37,3.05-3.03v-8.3h8.04c2.98.07,10.02-1.79,10.69-8.52v-1.13h.05c0-.4-.04-.8-.1-1.18-.13-1.18-.56-2.25-1.21-3.04-.75-1.02-1.76-1.64-2.88-1.64h-6.27v-10.89h5.41c2.32,0,4.2-2.45,4.2-5.48l-.02-1.61c-.1-.98-.33-1.85-.65-2.64,0,0,.02,0,.02,0-1.88-4.92-7.51-6.36-10.11-6.29h-6.45v-6.16c0-1.68-1.37-3.05-3.05-3.05h-9.08v-10.53h-9.21v.02h-10.93v-8.57c-.5-47.72-25.37-85.53-60.47-105.95-.63-3.14-4.11-5.56-8.31-5.56h-4.95v-12.3c0-2.15-1.03-4.05-2.61-5.26-.04-.03-.09-.07-.13-.1-.08-.06-.17-.12-.26-.18-.6-.41-1.27-.72-1.99-.91-2.6-11.38-12.79-19.87-24.96-19.87h-3.03v-23.8h-30.63v23.8h-2.47c-12.09,0-22.23,8.39-24.92,19.67-3.41.19-6.14,2.96-6.22,6.4.02,0,.05-.01.07-.02,0,.09-.01.18-.01.27v12.3h-4.92c-4.23,0-7.74,2.45-8.33,5.65-37.61,22.73-60.11,64.44-59.49,105.84v8.94h-20.03v10.16h-8.85c-1.68,0-3.03,1.37-3.03,3.05v6.16h-12.59c-2.89.07-6.31,2.56-7.79,5.7.03,0,.06-.01.09-.02-.49,1-.79,2.07-.82,3.15v1.7c0,3.03,1.88,5.48,4.2,5.48h4.84v10.89h-1.9c-.84,0-1.62.35-2.27.96-1.18.94-1.97,2.59-1.97,4.47v1.66c.09,4.26,4.75,8.32,8.54,8.43h9.45v8.3c0,1.66,1.37,3.03,3.05,3.03h9.63v9.56h7.62v7.16h11.77v35.16h-.02s0,.02,0,.04h-.43c-.4,2.53-1.08,4.73-2.11,6.52-2.04,2.84-5.11,4.53-9.15,5.15h-33.45v-.02h-4.88v.02h-.04v9.16h-11.99v-9.32h-.09v-.04h-26.96v.04h-.15v16.29l-14.91,4.74v31.42c-.12-.02-.24-.04-.37-.04l-15.72,3.09c-1.48,0-2.67,1.21-2.67,2.67v9.43h-.04v9.91c0,1.48,1.19,2.67,2.67,2.67l10.78,2.02c-.34.72-.55,1.65-.54,2.68l.2,28.08c-4.76.4-8.57,4.34-8.68,9.21l-.2,9.1c-.06,2.53.87,4.93,2.61,6.76,1.6,1.68,3.72,2.69,6.01,2.88l.16,5.81c-4.67.81-8.12,4.99-7.9,9.85l.44,8.93c.12,2.54,1.22,4.88,3.11,6.6,1.77,1.61,4.03,2.48,6.42,2.48.08,0,.15,0,.23,0l.92,6.22c-4.43,1.55-7.16,6.19-6.18,10.9l1.86,8.86c.51,2.48,1.97,4.61,4.1,6,1.56,1.02,3.35,1.55,5.17,1.55.65,0,1.31-.07,1.97-.21l.44-.09,2.64,6.15-.34.21c-4.3,2.71-5.61,8.42-2.91,12.74l5.1,8.09c1.3,2.08,3.34,3.53,5.74,4.08.69.16,1.39.24,2.08.24,1.72,0,3.41-.49,4.9-1.42l.22-.14,5.59,5.16c-1.23,2.21-1.53,4.77-.84,7.22.7,2.49,2.32,4.55,4.58,5.82l7.64,4.28h0c1.48.83,3.09,1.22,4.67,1.22,3.38,0,6.67-1.78,8.44-4.93l.44-.79,8.93,2.08c.16,5.12,4.37,9.24,9.52,9.24l8.94.02c5.01,0,9.13-3.89,9.5-8.8l8.49-1.38c1.15,2.67,3.43,4.52,6.06,5.24v5.24h-5.21v16.71h5.21v213.86h-9.19v-9.96h-27.38v9.96h-10.42c-1.88,0-3.4,1.54-3.4,3.4v8.11h-8.64c-1.04.02-2.13.22-3.21.55-2.82.84-5.74,2.64-7.01,4.72-.78,1.08-1.28,2.24-1.31,3.43v1.72c0,3.02,2.54,5.46,5.67,5.46h2.28v11.64h-1.22c-1.17,0-2.55.57-3.62,1.61-.85.78-1.44,1.82-1.66,2.97,0,.05-.01.1-.02.15-.02.1-.03.21-.04.31-.03.28-.05.57-.04.86,0,0,.01,0,.02,0v1.35c.15,4.4,6.45,8.59,11.55,8.7h8.13v7.93c0,1.86,1.54,3.38,3.4,3.38h9.19v9.65h7.62v7.16h12.17v-7.16h7.53v-9.65h9.61v17.87h179.09v.09h16.52v-.09h49.82v-17.87h9.54v9.76h7.62v7.16h12.17v-7.16h7.53v-9.76h13.18c1.88,0,3.4-1.52,3.4-3.38v-7.93h3.77c4.02.07,13.52-1.85,14.44-8.79l.04-1.63c0-1.92-1.03-3.61-2.59-4.58-.89-.62-1.89-.95-2.78-.95h-3.91v-11.64h2.23c3.14,0,5.68-2.45,5.68-5.46l-.04-1.63c-.16-1.22-.6-2.27-1.21-3.19-.03-.05-.06-.1-.09-.15-.03-.04-.06-.09-.1-.13-2.65-3.92-9.05-5.21-11.27-5.26h-.29c-.54-.04-1.05-.06-1.48-.05h-5.23v-8.11c0-1.86-1.54-3.4-3.4-3.4h-9.92v-9.87h-9.21v.02h-18.19v9.85h-9.89v-206.09h.07v-7.77h4.84v-16.71h-4.92v-5.17c.38-.11.76-.24,1.13-.4,2.26-.98,4.01-2.78,4.91-5.07l.23-.57,8.14,1.32c.38,4.91,4.49,8.79,9.5,8.79h8.96c2.55,0,4.95-1,6.75-2.81,1.73-1.74,2.7-4.02,2.76-6.44l8.96-2.07.43.77c1.25,2.25,3.3,3.88,5.78,4.58.87.25,1.76.37,2.64.37,1.62,0,3.23-.42,4.68-1.23l7.65-4.27c2.25-1.25,3.87-3.3,4.57-5.78.69-2.45.4-5.03-.83-7.27l5.56-5.15.23.15c1.52.95,3.21,1.4,4.88,1.4,3.08,0,6.09-1.53,7.85-4.32l5.08-8.1c1.31-2.08,1.73-4.56,1.18-6.97-.55-2.41-2.01-4.46-4.09-5.76l-.34-.22,2.54-5.92.34.07c.65.14,1.29.2,1.93.2,4.39,0,8.36-3.08,9.3-7.55l1.85-8.86c.96-4.67-1.68-9.25-6.01-10.84l.96-6.51c.09,0,.19,0,.28,0,2.36,0,4.6-.87,6.37-2.46,1.89-1.72,3-4.07,3.12-6.62l.42-8.94c.23-4.86-3.23-9.04-7.9-9.85l.19-6.76c2.06-.31,3.94-1.28,5.4-2.81,1.74-1.83,2.66-4.23,2.61-6.76l-.2-9.11c-.11-4.79-3.77-8.65-8.47-9.17l-.19-29.07c0-.44-.06-.86-.13-1.26l10.71-1.99c1.48,0,2.67-1.21,2.67-2.67v-9.91h-.04ZM917.63,522.5c.06,2.52,1.1,4.88,2.92,6.62,1.57,1.5,3.56,2.4,5.69,2.59l-.17,6.36c-2.1.17-4.04,1.01-5.61,2.44-1.89,1.72-3,4.06-3.12,6.6l-.42,8.94c-.21,4.49,2.74,8.41,6.87,9.61l-.86,5.84c-4.79-.52-9.28,2.7-10.3,7.5l-1.85,8.84c-.52,2.48-.05,5.02,1.34,7.15.88,1.35,2.06,2.42,3.44,3.16l-2.03,4.74c-1.57-.52-3.26-.61-4.92-.23-2.4.55-4.44,2-5.74,4.08l-5.1,8.1c-2.28,3.66-1.68,8.32,1.19,11.31l-4,3.7c-2.97-2.95-7.66-3.73-11.51-1.6l-7.64,4.28c-2.26,1.27-3.88,3.33-4.58,5.82-.36,1.28-.44,2.59-.27,3.86l-7.1,1.65c-1.01-4.19-4.77-7.31-9.27-7.31h-8.94c-4.66,0-8.55,3.37-9.37,7.81l-6.54-1.06c.42-4.02-1.84-8-5.77-9.55l-2.23-.88v-10.92h.05v-7.44h-.05v-.07h4.57v-12.01h.15v-4.59h-.15v-.13h-4.57v-58.41h.05c1.11-6.16,5.28-11.11,12.32-11.55h37.14v-9.98h12.04v9.76h.2v.04h26.94v-13.01l7.02-2.34c-.04.39-.06.79-.06,1.19l.22,9.1ZM823.28,642.25c-.55-.09-1.08.02-1.54.27v-4.35l.41.16c1.74.69,2.76,2.4,2.69,4.17l-1.57-.25ZM574.63,643.04l-1.44.23c-.51-2.06.54-4.23,2.57-5.03l.55-.22v5.37c-.48-.31-1.07-.45-1.68-.35ZM552.27,637.35h-8.99c-2.52,0-4.9.98-6.7,2.77-1.27,1.27-2.13,2.83-2.54,4.53l-7.1-1.64c.5-3.8-1.3-7.7-4.84-9.67l-7.66-4.27c-2.25-1.26-4.84-1.57-7.33-.86-1.61.46-3.03,1.3-4.18,2.45l-4.01-3.7c1.16-1.2,1.98-2.69,2.36-4.35.55-2.41.13-4.89-1.18-6.97l-5.08-8.08c-1.31-2.09-3.36-3.54-5.77-4.09-1.65-.38-3.34-.29-4.92.22l-2.15-5c3.54-1.97,5.56-6.08,4.69-10.24l-1.86-8.86c-.51-2.48-1.97-4.61-4.09-6-1.8-1.18-3.9-1.69-6.01-1.51l-.83-5.6c1.68-.49,3.2-1.42,4.41-2.75,1.71-1.89,2.58-4.33,2.45-6.85l-.42-8.94c-.12-2.54-1.23-4.89-3.12-6.6-1.57-1.43-3.54-2.27-5.62-2.44l-.15-5.56c1.9-.29,3.67-1.15,5.09-2.51,1.82-1.75,2.86-4.1,2.92-6.62l.22-9.12c.01-.63-.04-1.25-.15-1.85l7.28,2.31v13.26h22.32v.04h4.88v-9.83h11.99v9.98h38.67c6.16,1.57,9.81,5.67,11.39,11.83h.02v56.91h-5.12v16.72h5.12v18.28l-2.37.94c-4.22,1.67-6.52,6.11-5.64,10.42l-6.65,1.08c-.82-4.43-4.71-7.8-9.37-7.8ZM925.36,474.26s.02,0,.03,0c0,.07-.01.13-.01.2l.21,29.33c-.08.01-.15.03-.23.04v-29.58ZM471.73,475.53c.14,0,.27-.02.4-.04v7.64h-.02v17.24h.02v5.19c-.06-.01-.12-.02-.18-.03l-.2-28.07c0-.71-.11-1.38-.29-1.97l.27.05ZM463.75,527.02c-.83-.87-1.28-2.03-1.25-3.24l.2-9.1c.05-2.21,1.69-4,3.8-4.35.07,2.23,1.13,4.02,2.4,4.06l.69.04c1.26.03,2.29-1.64,2.38-3.81.05.02.11.03.16.06v.14l.68.22c1.32.82,2.2,2.29,2.17,3.95l-.22,9.1c-.03,1.21-.53,2.34-1.4,3.17-.52.5-1.14.83-1.81,1.03l-.06-2.15c-.04-1.33-1.15-2.38-2.47-2.34l-.69.04c-1.33.04-2.38,1.15-2.34,2.47l.06,2.03c-.87-.19-1.67-.63-2.3-1.29ZM465.31,560.86c-.91-.83-1.44-1.96-1.5-3.18l-.44-8.94c-.1-2.09,1.23-3.91,3.11-4.56l.02.74c.04,1.33,1.15,2.38,2.49,2.34l.69-.04c1.32-.04,2.36-1.15,2.32-2.47l-.02-.89c.8.17,1.54.53,2.16,1.1.91.83,1.45,1.96,1.5,3.18l.42,8.95c.06,1.21-.36,2.39-1.18,3.3-.43.47-.93.84-1.49,1.09l-.28-1.87c-.2-1.32-1.43-2.21-2.74-2.03l-.68.11c-1.32.2-2.23,1.43-2.03,2.74l.23,1.57c-.96-.11-1.87-.5-2.59-1.16ZM472.03,594.84c-1.02-.67-1.72-1.69-1.96-2.87l-1.86-8.86c-.4-1.93.51-3.83,2.1-4.81l.09.6c.2,1.32,1.43,2.21,2.74,2.03l.68-.11c1.32-.2,2.21-1.43,2.03-2.74l-.16-1.09s.07-.01.1-.01c.87,0,1.73.25,2.48.74,1.02.67,1.72,1.69,1.96,2.88l1.86,8.86c.38,1.82-.4,3.63-1.83,4.65l-.63-1.47c-.53-1.22-1.94-1.79-3.16-1.26l-.64.27c-1.21.53-1.77,1.96-1.24,3.16l.32.75c-1.01.09-2.01-.14-2.87-.7ZM488.23,626.7c-1.11-.26-2.06-.93-2.66-1.89l-5.1-8.1c-1.19-1.9-.69-4.37,1.05-5.71l.4.93c.53,1.21,1.94,1.77,3.16,1.24l.64-.27c1.21-.53,1.77-1.94,1.24-3.16l-.64-1.48c.29-.06.58-.1.88-.1.32,0,.65.04.97.11,1.12.26,2.08.94,2.7,1.91l5.08,8.08c.61.97.8,2.12.55,3.24-.19.81-.6,1.53-1.18,2.11l-1.35-1.25c-.99-.9-2.5-.84-3.4.15l-.48.51c-.9.97-.82,2.5.15,3.4l.21.2c-.71.22-1.47.27-2.22.1ZM513.7,648.36l-7.63-4.27c-1.1-.62-1.9-1.63-2.24-2.85-.21-.77-.21-1.55-.03-2.31l.13.12c.99.9,2.5.82,3.4-.15l.48-.51c.9-.97.84-2.5-.15-3.4l-1.06-.98c.53-.49,1.16-.87,1.88-1.07,1.2-.34,2.47-.19,3.57.42l7.66,4.28c1.57.88,2.42,2.54,2.38,4.24l-.68-.16c-1.3-.29-2.6.51-2.89,1.81l-.15.68c-.28,1.17.37,2.32,1.45,2.75-1.37,1.93-4,2.57-6.12,1.4ZM552.26,654.57l-8.94-.02c-2.05,0-3.77-1.35-4.36-3.21,1.07-.04,2.02-.78,2.26-1.86l.15-.68c.31-1.3-.51-2.6-1.81-2.89l-.69-.16c.2-.8.6-1.54,1.21-2.14.87-.86,2.01-1.34,3.23-1.34h8.98c2.22,0,4.07,1.58,4.51,3.66l-.56.09c-1.3.22-2.19,1.44-1.97,2.76l.11.68c.19,1.13,1.14,1.95,2.22,2.02-.63,1.79-2.32,3.08-4.33,3.08ZM575.48,648.47h.05c.29-.06.55-.16.79-.29v1.04c-.31-.21-.58-.47-.83-.75ZM821.75,649.21v-1.75c.2.1.41.17.64.21l.59.1c-.3.57-.71,1.06-1.23,1.44ZM854.61,653.77h-8.96c-2,0-3.69-1.29-4.33-3.08,1.09-.06,2.04-.87,2.23-2l.11-.68c.22-1.32-.66-2.56-1.97-2.78l-.54-.09c.44-2.09,2.29-3.66,4.5-3.66h8.94c2.15,0,3.95,1.49,4.46,3.5l-.69.16c-1.3.29-2.1,1.57-1.81,2.87l.15.68c.25,1.09,1.21,1.83,2.28,1.86-.22.69-.58,1.33-1.11,1.86-.87.87-2.03,1.36-3.25,1.36ZM891.86,643.28l-7.66,4.28h0c-1.09.61-2.36.76-3.56.42-1.04-.29-1.91-.94-2.53-1.81,1.07-.43,1.71-1.6,1.45-2.77l-.16-.68c-.29-1.28-1.57-2.1-2.87-1.81l-.69.16c-.01-.46.02-.93.15-1.4.34-1.22,1.14-2.23,2.24-2.85l7.63-4.27c.72-.4,1.51-.59,2.29-.59,1.17,0,2.31.44,3.19,1.24l-1.08,1c-.97.9-1.04,2.41-.15,3.4l.48.51c.9.97,2.41,1.04,3.4.15l.14-.13c.45,1.99-.4,4.11-2.26,5.14ZM917.99,612.66c.26,1.12.06,2.27-.55,3.24l-5.08,8.09c-1.06,1.68-3.1,2.36-4.91,1.81l.22-.21c.99-.9,1.04-2.41.15-3.4l-.46-.51c-.91-.97-2.43-1.04-3.42-.15l-1.36,1.26c-1.39-1.39-1.71-3.61-.62-5.34l5.1-8.1c.6-.96,1.55-1.64,2.66-1.89.32-.07.65-.11.97-.11.3,0,.6.04.89.11l-.64,1.49c-.53,1.21.04,2.63,1.26,3.16l.62.27c1.22.53,2.65-.04,3.16-1.26l.39-.92c.81.6,1.38,1.45,1.61,2.45ZM929.49,582.53l-1.85,8.84c-.48,2.24-2.52,3.73-4.73,3.61l.42-.98c.53-1.22-.02-2.65-1.24-3.16l-.64-.27c-1.21-.53-2.63.02-3.16,1.24l-.76,1.77c-.5-.34-.93-.77-1.26-1.28-.67-1.02-.9-2.24-.64-3.43l1.84-8.84c.46-2.15,2.36-3.64,4.47-3.64.09,0,.19.02.28.03l-.13.87c-.2,1.32.69,2.54,2.01,2.72l.69.11c1.3.2,2.54-.71,2.72-2.01l.04-.29c1.49,1,2.32,2.85,1.93,4.72ZM933.34,544.62c.83.91,1.25,2.09,1.2,3.32l-.42,8.94h0c-.06,1.23-.59,2.37-1.51,3.2-.73.66-1.64,1.06-2.6,1.15l.23-1.58c.2-1.3-.69-2.52-2.01-2.72l-.69-.11c-1.3-.2-2.54.71-2.74,2.03l-.27,1.85c-1.65-.76-2.76-2.47-2.67-4.4l.42-8.94c.06-1.22.59-2.35,1.5-3.18.62-.56,1.36-.93,2.16-1.1l-.02.89c-.04,1.33,1.01,2.45,2.34,2.49l.69.02c1.32.04,2.43-1.01,2.47-2.34l.02-.74c.72.25,1.38.66,1.91,1.24ZM934.63,513l.2,9.1h0c.03,1.22-.41,2.37-1.25,3.25-.48.5-1.06.86-1.68,1.1l.03-.94c.04-1.33-1.01-2.45-2.32-2.49l-.69-.02c-1.33-.04-2.45,1.01-2.49,2.34l-.04,1.42c-.9-.14-1.74-.55-2.42-1.19-.87-.84-1.37-1.97-1.4-3.18l-.22-9.1c-.03-1.14.38-2.22,1.14-3.08l1.88-.63v-.65c.14-.05.28-.11.43-.14.35,1.6,1.23,2.76,2.26,2.79l.69.04c1.07.03,1.98-1.21,2.27-2.94,2.02.42,3.57,2.19,3.62,4.33Z"/><path class="cls-6" d="M672.08,540.3l2.51-12.25h0c.3-1.53-.7-3.05-2.25-3.37l-.67-.13c-.75-.15-1.51,0-2.15.43-.64.42-1.07,1.07-1.22,1.81l-2.49,12.11c-1.31-.09-2.6.11-3.78.54.12-.36.22-.72.29-1.09l1.77-8.88c.5-2.48,0-5.01-1.4-7.12-1.4-2.11-3.54-3.54-6.04-4.04l-3.13-.62c-2.48-.49-5,.01-7.11,1.42-2.11,1.41-3.54,3.55-4.03,6.02l-1.77,8.89c-.5,2.48,0,5.01,1.4,7.12,1.13,1.69,2.73,2.93,4.59,3.62l-1.7,6.14c-2-.25-4.02.1-5.86,1.03-2.43,1.23-4.24,3.33-5.08,5.91l-2.4,7.19c-1.51,4.62.47,9.58,4.48,11.99l-2.15,5.09c-4.24-.86-8.71,1.15-10.8,5.19l-3.73,7.29c-2.04,4.01-1.08,8.78,2.06,11.74l-2.72,3.75c-3.72-2.48-8.82-1.99-11.99,1.38l-6.38,6.8c-2.99,3.21-3.3,7.96-1.03,11.48l-5.65,3.51c-.96-1.31-2.24-2.36-3.77-3.02-2.26-.98-4.76-1.02-7.04-.11l-8.92,3.53c-4.22,1.67-6.52,6.11-5.64,10.42l-6.65,1.08c-.82-4.43-4.71-7.8-9.37-7.8h-8.99c-2.52,0-4.9.98-6.7,2.77-1.27,1.27-2.13,2.83-2.54,4.53l-7.1-1.64c.5-3.8-1.3-7.7-4.84-9.67l-7.66-4.27c-2.25-1.26-4.84-1.57-7.33-.86-1.61.46-3.03,1.3-4.18,2.45l-4.01-3.7c1.16-1.2,1.98-2.69,2.36-4.35.55-2.41.13-4.89-1.18-6.97l-5.08-8.08c-1.31-2.09-3.36-3.54-5.77-4.09-1.65-.38-3.34-.29-4.92.22l-2.15-5c3.54-1.97,5.56-6.08,4.69-10.24l-1.86-8.86c-.51-2.48-1.97-4.61-4.09-6-1.8-1.18-3.9-1.69-6.01-1.51l-.83-5.6c1.68-.49,3.2-1.42,4.41-2.75,1.71-1.89,2.58-4.33,2.45-6.85l-.42-8.94c-.12-2.54-1.23-4.89-3.12-6.6-1.57-1.43-3.54-2.27-5.62-2.44l-.15-5.56c1.9-.29,3.67-1.15,5.09-2.51,1.82-1.75,2.86-4.1,2.92-6.62l.22-9.12c.1-5.21-4.05-9.56-9.25-9.68l-3.24-.07c-.06,0-.12,0-.18,0-5.12,0-9.36,4.11-9.48,9.25l-.2,9.1c-.06,2.53.87,4.93,2.61,6.76,1.6,1.68,3.72,2.69,6.01,2.88l.16,5.81c-4.67.81-8.12,4.99-7.9,9.85l.44,8.93c.12,2.54,1.22,4.88,3.11,6.6,1.77,1.61,4.03,2.48,6.42,2.48.08,0,.15,0,.23,0l.92,6.22c-4.43,1.55-7.16,6.19-6.18,10.9l1.86,8.86c.51,2.48,1.97,4.61,4.1,6,1.56,1.02,3.35,1.55,5.17,1.55.65,0,1.31-.07,1.97-.21l.44-.09,2.64,6.15-.34.21c-4.3,2.71-5.61,8.42-2.91,12.74l5.1,8.09c1.3,2.08,3.34,3.53,5.74,4.08.69.16,1.39.24,2.08.24,1.72,0,3.41-.49,4.9-1.42l.22-.14,5.59,5.16c-1.23,2.21-1.53,4.77-.84,7.22.7,2.49,2.32,4.55,4.58,5.82l7.64,4.28h0c1.48.83,3.09,1.22,4.67,1.22,3.38,0,6.67-1.78,8.44-4.93l.44-.79,8.93,2.08c.16,5.12,4.37,9.24,9.52,9.24l8.94.02c5.01,0,9.13-3.89,9.5-8.8l8.49-1.38c1.49,3.46,4.88,5.57,8.47,5.57,1.13,0,2.27-.21,3.38-.65l1.41-.56c.06.2.13.4.21.6l1.35,3.44c1.85,4.64,7.09,6.91,11.73,5.08l8.92-3.53c4.64-1.83,6.91-7.09,5.08-11.73l-.28-.71,8.04-4.99c3.7,3.15,9.26,2.88,12.61-.72l6.38-6.78c3.22-3.44,3.28-8.71.29-12.22l7.15-9.88c.09-.12.15-.25.22-.37.27.28.59.5.95.65l.64.28c.35.15.73.22,1.1.22s.74-.07,1.09-.22c.71-.29,1.26-.84,1.55-1.54l4.75-11.24c4.92,1.01,9.92-1.8,11.55-6.68l2.38-7.18c1.59-4.82-.68-9.99-5.12-12.17l1.94-7.01c4.55.26,8.71-2.86,9.63-7.47l1.77-8.88c.87-4.36-1.46-8.6-5.35-10.33ZM657.86,572.43c-4.13.09-7.95,2.73-9.34,6.89l-2.38,7.18c-1.35,4.09.08,8.42,3.25,10.97l-4.7,11.11c-.11-.11-.23-.23-.37-.32l-.56-.4c-.61-.45-1.35-.62-2.11-.51-.77.12-1.43.53-1.88,1.16l-6.76,9.32c-2.48-1.48-5.49-1.67-8.1-.62-.42-1.25-1.12-2.42-2.08-3.43l3.34-4.62c1.3.59,2.69.91,4.09.91,1.03,0,2.06-.16,3.07-.49,2.52-.82,4.58-2.57,5.77-4.93l3.73-7.28c1.2-2.36,1.41-5.05.6-7.57-.76-2.36-2.35-4.3-4.48-5.52l2.29-5.42c.55.09,1.11.14,1.66.14,1.57,0,3.13-.37,4.57-1.09,2.45-1.23,4.28-3.34,5.14-5.94l2.38-7.18h0c.31-.96.47-1.92.5-2.88.98,1.61,2.45,2.93,4.25,3.7l-1.89,6.81ZM607.52,641.16c-2.47-2.55-6.32-3.52-9.83-2.12l-1.25.49c-.08-.26-.16-.51-.26-.77l-.18-.46,7.23-4.5.06.05c1.8,1.68,4.1,2.52,6.39,2.52,1.25,0,2.5-.25,3.67-.74.18.51.41,1.01.69,1.49l-6.5,4.04ZM652.01,545.92c.36.04.71.07,1.06.07,1.13,0,2.23-.23,3.28-.62-.1.33-.2.66-.26,1.01l-1.77,8.88c-.09.43-.13.86-.16,1.29-.92-1.63-2.29-3.01-4-3.94l1.86-6.68ZM646.13,538.4c-.67-1.01-.91-2.22-.67-3.41l1.77-8.9c.23-1.18.92-2.2,1.93-2.88.76-.51,1.63-.77,2.52-.77.29,0,.59.03.89.09l3.12.62c2.46.5,4.07,2.9,3.57,5.35l-1.78,8.89c-.23,1.19-.92,2.22-1.93,2.89-.66.44-1.42.68-2.19.73l.2-.71c.35-1.28-.4-2.61-1.68-2.96l-.68-.18c-1.28-.35-2.6.4-2.96,1.68l-.31,1.11c-.72-.35-1.35-.87-1.81-1.56ZM636.26,566.58l2.4-7.19c.44-1.33,1.37-2.41,2.62-3.05.72-.36,1.5-.55,2.29-.57l-.29,1.04c-.35,1.28.4,2.61,1.68,2.96l.68.18c1.28.35,2.6-.4,2.94-1.68l.19-.67c1.55,1.36,2.23,3.57,1.55,5.65l-2.37,7.18c-.45,1.35-1.39,2.44-2.67,3.08-.63.32-1.31.5-1.99.55l.56-1.33c.51-1.22-.05-2.63-1.28-3.14l-.64-.27c-1.22-.51-2.65.07-3.16,1.3l-.75,1.77c-1.68-1.35-2.46-3.64-1.76-5.8ZM623.78,596.84l3.72-7.29c.88-1.71,2.61-2.7,4.41-2.71l-.39.93c-.51,1.22.05,2.65,1.28,3.16l.64.26c1.22.51,2.63-.05,3.14-1.28l.42-1c.81.61,1.42,1.44,1.74,2.43.41,1.27.3,2.62-.3,3.82l-3.73,7.28c-.6,1.19-1.63,2.07-2.9,2.48-.86.28-1.76.3-2.62.1l.63-.87c.79-1.08.53-2.58-.55-3.36l-.55-.4c-1.08-.77-2.6-.53-3.36.55l-.98,1.35c-1.22-1.49-1.53-3.62-.61-5.44ZM603.95,621.64l6.38-6.8c.87-.92,2.05-1.39,3.22-1.39.79,0,1.57.21,2.27.63l-1.4,1.94c-.77,1.08-.51,2.58.55,3.36l.57.4c1.08.77,2.6.53,3.36-.55l.93-1.29c.51.85.72,1.83.61,2.79l-5.16,5.5c-.95,1.01-1.62,2.19-2.03,3.43l-.34.36c-1.36,1.46-3.49,1.77-5.19.93.88-.76,1.09-2.06.47-3.08l-.37-.58c-.71-1.13-2.19-1.46-3.33-.77l-.98.61c-1.13-1.67-1-3.96.44-5.5ZM463.75,527.02c-.83-.87-1.28-2.03-1.25-3.24l.2-9.1c.06-2.46,2.09-4.43,4.54-4.43.03,0,.06,0,.09,0l3.23.07c2.49.06,4.47,2.15,4.43,4.64l-.22,9.1c-.03,1.21-.53,2.34-1.4,3.17-.52.5-1.14.83-1.81,1.03l-.06-2.15c-.04-1.33-1.15-2.38-2.47-2.34l-.69.04c-1.33.04-2.38,1.15-2.34,2.47l.06,2.03c-.87-.19-1.67-.63-2.3-1.29ZM465.31,560.86c-.91-.83-1.44-1.96-1.5-3.18l-.44-8.94c-.1-2.09,1.23-3.91,3.11-4.56l.02.74c.04,1.33,1.15,2.38,2.49,2.34l.69-.04c1.32-.04,2.36-1.15,2.32-2.47l-.02-.89c.8.17,1.54.53,2.16,1.1.91.83,1.45,1.96,1.5,3.18l.42,8.95c.06,1.21-.36,2.39-1.18,3.3-.43.47-.93.84-1.49,1.09l-.28-1.87c-.2-1.32-1.43-2.21-2.74-2.03l-.68.11c-1.32.2-2.23,1.43-2.03,2.74l.23,1.57c-.96-.11-1.87-.5-2.59-1.16ZM472.03,594.84c-1.02-.67-1.72-1.69-1.96-2.87l-1.86-8.86c-.4-1.93.51-3.83,2.1-4.81l.09.6c.2,1.32,1.43,2.21,2.74,2.03l.68-.11c1.32-.2,2.21-1.43,2.03-2.74l-.16-1.09s.07-.01.1-.01c.87,0,1.73.25,2.48.74,1.02.67,1.72,1.69,1.96,2.88l1.86,8.86c.38,1.82-.4,3.63-1.83,4.65l-.63-1.47c-.53-1.22-1.94-1.79-3.16-1.26l-.64.27c-1.21.53-1.77,1.96-1.24,3.16l.32.75c-1.01.09-2.01-.14-2.87-.7ZM488.23,626.7c-1.11-.26-2.06-.93-2.66-1.89l-5.1-8.1c-1.19-1.9-.69-4.37,1.05-5.71l.4.93c.53,1.21,1.94,1.77,3.16,1.24l.64-.27c1.21-.53,1.77-1.94,1.24-3.16l-.64-1.48c.29-.06.58-.1.88-.1.32,0,.65.04.97.11,1.12.26,2.08.94,2.7,1.91l5.08,8.08c.61.97.8,2.12.55,3.24-.19.81-.6,1.53-1.18,2.11l-1.35-1.25c-.99-.9-2.5-.84-3.4.15l-.48.51c-.9.97-.82,2.5.15,3.4l.21.2c-.71.22-1.47.27-2.22.1ZM513.7,648.36l-7.63-4.27c-1.1-.62-1.9-1.63-2.24-2.85-.21-.77-.21-1.55-.03-2.31l.13.12c.99.9,2.5.82,3.4-.15l.48-.51c.9-.97.84-2.5-.15-3.4l-1.06-.98c.53-.49,1.16-.87,1.88-1.07,1.2-.34,2.47-.19,3.57.42l7.66,4.28c1.57.88,2.42,2.54,2.38,4.24l-.68-.16c-1.3-.29-2.6.51-2.89,1.81l-.15.68c-.28,1.17.37,2.32,1.45,2.75-1.37,1.93-4,2.57-6.12,1.4ZM552.26,654.57l-8.94-.02c-2.05,0-3.77-1.35-4.36-3.21,1.07-.04,2.02-.78,2.26-1.86l.15-.68c.31-1.3-.51-2.6-1.81-2.89l-.69-.16c.2-.8.6-1.54,1.21-2.14.87-.86,2.01-1.34,3.23-1.34h8.98c2.22,0,4.07,1.58,4.51,3.66l-.56.09c-1.3.22-2.19,1.44-1.97,2.76l.11.68c.19,1.13,1.14,1.95,2.22,2.02-.63,1.79-2.32,3.08-4.33,3.08ZM580.28,649.66c-1.74.68-3.65.14-4.81-1.19h.05c1.32-.23,2.21-1.45,1.99-2.77l-.13-.68c-.2-1.32-1.44-2.21-2.76-1.99l-1.44.23c-.51-2.06.54-4.23,2.57-5.03l8.92-3.53c.51-.2,1.04-.3,1.57-.3.58,0,1.15.12,1.7.36.59.26,1.09.64,1.51,1.11l-.78.49c-1.13.71-1.46,2.19-.77,3.33l.37.58c.71,1.13,2.19,1.46,3.33.77l.12-.07c.04.13.09.26.11.39l-3.03,1.2c-2.69,1.06-4.58,3.27-5.34,5.84l-3.17,1.26ZM604.03,655.04l-8.92,3.53c-2.28.9-4.88-.22-5.79-2.52l-1.37-3.44c-.08-.2-.12-.41-.17-.62l3.22-1.28c2.29-.91,4.1-2.65,5.08-4.91.2-.46.35-.94.47-1.41l2.83-1.12c1.4-.54,2.9-.34,4.07.42l-.24.15c-.65.41-1.1,1.05-1.28,1.79-.17.75-.04,1.52.37,2.17l.36.58c.4.65,1.04,1.1,1.79,1.27.21.05.43.07.64.07.52,0,1.02-.15,1.47-.42.87,2.29-.26,4.85-2.52,5.75ZM634.19,631.23l-6.36,6.8c-1.32,1.4-3.32,1.79-5.02,1.13.44-.39.76-.9.9-1.5.17-.75.05-1.51-.36-2.16l-.38-.57c-.4-.65-1.03-1.11-1.77-1.28-.75-.17-1.52-.04-2.17.37l-1.11.69c-.37-.69-.56-1.44-.55-2.2l5.51-5.86h0c1.14-1.23,1.89-2.68,2.25-4.21,1.4-1.36,3.46-1.65,5.16-.84l-1.47,2.03c-.44.62-.62,1.38-.5,2.13.12.76.53,1.41,1.15,1.86l.56.4c.49.36,1.07.55,1.67.55.15,0,.3-.01.44-.04.76-.12,1.43-.53,1.89-1.16l.92-1.27c.8,1.66.56,3.71-.78,5.15ZM664.88,584.71l-2.39,7.2c-.78,2.35-3,3.82-5.35,3.75l.66-1.56h0c.61-1.46-.08-3.15-1.55-3.77l-.63-.25c-.71-.3-1.49-.3-2.2,0-.7.29-1.25.84-1.54,1.55l-.55,1.31c-1.03-1.39-1.4-3.24-.82-5.01l2.38-7.18c.59-1.77,1.99-3.03,3.66-3.52l-.18.66c-.2.74-.1,1.51.28,2.17.38.67,1,1.15,1.73,1.35l.66.18c.25.07.51.1.76.1,1.26,0,2.42-.84,2.77-2.1l.29-1.05c1.92,1.36,2.82,3.85,2.05,6.18ZM672.96,549.73l-1.77,8.88c-.4,1.99-1.99,3.42-3.87,3.73l.2-.73h0c.41-1.53-.48-3.11-2-3.52l-.66-.18c-.74-.2-1.51-.1-2.17.27-.67.38-1.15.99-1.35,1.73l-.33,1.19c-1.66-.99-2.61-2.95-2.21-4.96l1.77-8.88c.43-2.14,2.24-3.65,4.32-3.79l-.32,1.57c-.16.75-.01,1.52.41,2.16.42.64,1.07,1.07,1.82,1.22l.68.15c.18.04.37.05.55.05,1.33,0,2.53-.94,2.82-2.29l.27-1.32c1.43,1.05,2.21,2.87,1.84,4.72ZM931.57,538.32l.19-6.76c2.06-.31,3.94-1.28,5.4-2.81,1.74-1.83,2.66-4.23,2.61-6.76l-.2-9.11c-.12-5.2-4.41-9.3-9.67-9.24l-3.24.07c-2.52.06-4.88,1.1-6.63,2.93-1.75,1.83-2.68,4.23-2.62,6.76l.22,9.1c.06,2.52,1.1,4.88,2.92,6.62,1.57,1.5,3.56,2.4,5.69,2.59l-.17,6.36c-2.1.17-4.04,1.01-5.61,2.44-1.89,1.72-3,4.06-3.12,6.6l-.42,8.94c-.21,4.49,2.74,8.41,6.87,9.61l-.86,5.84c-4.79-.52-9.28,2.7-10.3,7.5l-1.85,8.84c-.52,2.48-.05,5.02,1.34,7.15.88,1.35,2.06,2.42,3.44,3.16l-2.03,4.74c-1.57-.52-3.26-.61-4.92-.23-2.4.55-4.44,2-5.74,4.08l-5.1,8.1c-2.28,3.66-1.68,8.32,1.19,11.31l-4,3.7c-2.97-2.95-7.66-3.73-11.51-1.6l-7.64,4.28c-2.26,1.27-3.88,3.33-4.58,5.82-.36,1.28-.44,2.59-.27,3.86l-7.1,1.65c-1.01-4.19-4.77-7.31-9.27-7.31h-8.94c-4.66,0-8.55,3.37-9.37,7.81l-6.54-1.06c.42-4.02-1.84-8-5.77-9.55l-8.9-3.53c-3.74-1.47-7.87-.33-10.36,2.55l-6.13-3.81c.93-1.42,1.46-3.06,1.51-4.8.08-2.5-.82-4.87-2.53-6.67l-6.36-6.8c-1.72-1.82-4.03-2.87-6.53-2.95-1.96-.06-3.86.5-5.48,1.57l-2.72-3.75c1.21-1.13,2.13-2.56,2.65-4.18.81-2.52.6-5.21-.6-7.58l-3.72-7.27c-2.05-4.04-6.53-6.06-10.79-5.21l-2.26-5.36c1.31-.95,2.39-2.2,3.14-3.69,1.23-2.44,1.43-5.22.57-7.8l-2.38-7.21c-.86-2.59-2.68-4.69-5.13-5.91-1.55-.78-3.23-1.14-4.91-1.08l-1.74-6.29c4.28-1.6,6.92-6.12,6.01-10.74l-1.77-8.89c-1.03-5.12-6.03-8.46-11.17-7.45l-3.11.64c-2.49.49-4.63,1.92-6.04,4.03-1.41,2.11-1.9,4.63-1.4,7.11l1.77,8.9c.49,2.48,1.92,4.62,4.03,6.03,1.58,1.05,3.4,1.6,5.25,1.6.35,0,.7-.02,1.05-.06l1.8,6.49c-.97.42-1.87.97-2.66,1.65-1.74-1.47-3.96-2.33-6.28-2.38l-3.46-12.5c-.2-.74-.67-1.36-1.34-1.74-.67-.38-1.44-.48-2.18-.28l-.68.18c-.74.2-1.35.68-1.73,1.35-.38.67-.47,1.44-.27,2.17l3.44,12.38c-4.44,2.17-6.72,7.35-5.12,12.18l2.38,7.18c1.61,4.88,6.62,7.68,11.55,6.68l2.47,5.86c-4.15,2.68-5.69,8.12-3.39,12.61l3.73,7.27c2.45,4.81,8.32,6.71,13.1,4.26l2.05-1.06c.52-.27,1-.58,1.46-.92,1.86,1.78,4.33,2.77,6.88,2.77,1.37,0,2.75-.3,4.07-.9l3.34,4.61c-.94,1-1.64,2.16-2.06,3.39-1.93.2-3.81,1-5.34,2.43l-2.5,2.34c-3.69,3.47-3.87,9.27-.42,12.98l6.38,6.78c3.35,3.6,8.91,3.87,12.61.72l8.04,4.99-.28.71c-1.83,4.64.44,9.91,5.08,11.73l8.92,3.53c4.64,1.83,9.89-.44,11.73-5.08l1.01-2.58c.32.03.65.06.97.06,1.24,0,2.48-.26,3.66-.76,2.26-.98,4.01-2.78,4.91-5.07l.23-.57,8.14,1.32c.38,4.91,4.49,8.79,9.5,8.79h8.96c2.55,0,4.95-1,6.75-2.81,1.73-1.74,2.7-4.02,2.76-6.44l8.96-2.07.43.77c1.25,2.25,3.3,3.88,5.78,4.58.87.25,1.76.37,2.64.37,1.62,0,3.23-.42,4.68-1.23l7.65-4.27c2.25-1.25,3.87-3.3,4.57-5.78.69-2.45.4-5.03-.83-7.27l5.56-5.15.23.15c1.52.95,3.21,1.4,4.88,1.4,3.08,0,6.09-1.53,7.85-4.32l5.08-8.1c1.31-2.08,1.73-4.56,1.18-6.97-.55-2.41-2.01-4.46-4.09-5.76l-.34-.22,2.54-5.92.34.07c.65.14,1.29.2,1.93.2,4.39,0,8.36-3.08,9.3-7.55l1.85-8.86c.96-4.67-1.68-9.25-6.01-10.84l.96-6.51c.09,0,.19,0,.28,0,2.36,0,4.6-.87,6.37-2.46,1.89-1.72,3-4.07,3.12-6.62l.42-8.94c.23-4.86-3.23-9.04-7.9-9.85ZM923.96,525.56c-.87-.84-1.37-1.97-1.4-3.18l-.22-9.1c-.03-1.21.42-2.35,1.26-3.23.84-.88,1.97-1.38,3.17-1.41l3.23-.07s.06,0,.09,0c2.46,0,4.49,1.97,4.55,4.42l.2,9.1h0c.03,1.22-.41,2.37-1.25,3.25-.48.5-1.06.86-1.68,1.1l.03-.94c.04-1.33-1.01-2.45-2.32-2.49l-.69-.02c-1.33-.04-2.45,1.01-2.49,2.34l-.04,1.42c-.9-.14-1.74-.55-2.42-1.19ZM794.78,640.93l-6.5-4.03c.25-.44.46-.89.63-1.35,2.06-.15,4.09-.98,5.72-2.5l.04-.04,7.51,4.66-.21.54c-2.69-.21-5.34.81-7.2,2.73ZM811.82,646.58c.88.35,1.59.95,2.08,1.69l-5.17-2.05c-.87-.34-1.55-.94-2.02-1.67l5.12,2.03ZM784.51,612.66c1.18.04,2.28.54,3.09,1.4l6.37,6.81c.8.85,1.23,1.96,1.19,3.14-.03.85-.3,1.66-.77,2.35l-.97-.6c-1.13-.71-2.61-.37-3.31.77l-.38.58c-.62,1-.4,2.3.46,3.07-.28.14-.57.25-.87.32-.33-1.62-1.08-3.17-2.3-4.47l-6.17-6.59c.53.03,1.06-.11,1.53-.44l.57-.4c1.08-.77,1.32-2.27.55-3.36l-1.39-1.92c.74-.43,1.59-.64,2.41-.64ZM757.74,584.3c-2.15-1.97-5.1-2.87-7.99-2.45l-2.5-5.93s.07-.06.11-.09c.65.58,1.38,1.08,2.18,1.49,1.45.73,3.01,1.1,4.58,1.1.85,0,1.71-.11,2.55-.33l2.28,5.39c-.43.25-.84.51-1.22.82ZM742.36,539.48c-1.01-.67-1.7-1.7-1.93-2.88l-1.77-8.9h0c-.24-1.19,0-2.4.67-3.41.67-1.01,1.7-1.69,2.91-1.93l3.11-.64c.3-.06.59-.09.88-.09,2.13,0,4.05,1.51,4.48,3.67l1.77,8.88c.41,2.07-.68,4.1-2.5,4.98l-.31-1.11c-.35-1.28-1.68-2.05-2.96-1.68l-.66.18c-1.28.35-2.05,1.66-1.68,2.94l.2.73c-.78-.05-1.54-.29-2.21-.74ZM749.34,557.46c.35,1.28,1.68,2.05,2.96,1.68l.66-.18c1.28-.35,2.05-1.66,1.68-2.94l-.2-.72c.45.09.88.24,1.3.45,1.27.64,2.21,1.72,2.66,3.05l2.38,7.21c.44,1.34.34,2.77-.3,4.03-.2.41-.47.77-.76,1.1l-.57-1.34c-.51-1.22-1.92-1.79-3.14-1.28l-.64.26c-1.22.51-1.81,1.92-1.3,3.14l.64,1.53c-1.01.11-2.03-.06-2.96-.53-.56-.28-1.05-.67-1.47-1.11.84-2.12.97-4.53.2-6.85l-2.38-7.18c-.05-.14-.11-.27-.16-.41.33-.35.69-.66,1.11-.9l.28,1ZM734.15,570.37l-2.38-7.18c-.78-2.35.12-4.85,2.04-6.2l.29,1.06c.34,1.27,1.5,2.1,2.77,2.1.25,0,.5-.03.75-.1l.66-.18c1.51-.41,2.41-1.99,2-3.52l-.18-.66c.85.25,1.63.7,2.27,1.31-.99,2.3-1.11,4.84-.31,7.23l1.48,4.48c-.11-.06-.21-.12-.32-.17-.71-.29-1.48-.29-2.17,0l-.64.27c-1.46.61-2.15,2.29-1.54,3.74l.66,1.56c-2.36.07-4.59-1.39-5.37-3.75ZM757.25,603.38l-2.05,1.04c-2.54,1.3-5.67.29-6.96-2.25l-3.71-7.29c-1.09-2.13-.54-4.65,1.15-6.18l.44,1.04c.29.7.84,1.24,1.54,1.53.35.14.72.22,1.09.22s.75-.07,1.1-.22l.65-.26c1.45-.61,2.13-2.28,1.52-3.74l-.39-.92c1.24.11,2.4.67,3.28,1.59-.16.36-.31.72-.43,1.1-.82,2.52-.6,5.21.61,7.56l3.12,6.14c-.29.25-.61.47-.96.65ZM763.85,602.59c1.1-2.57,1.09-5.58-.28-8.26l-3.03-5.91c.12-.11.23-.22.36-.32l.42,1c.51,1.22,1.92,1.81,3.14,1.3l.64-.27c1.22-.51,1.81-1.92,1.3-3.14l-.4-.94c1.8.02,3.53,1.01,4.4,2.72l3.72,7.26c.93,1.83.63,3.97-.61,5.46l-.98-1.35c-.77-1.08-2.27-1.33-3.34-.55l-.57.4c-1.08.77-1.32,2.27-.55,3.34l.63.88c-1.79.39-3.67-.23-4.87-1.62ZM778.27,617.41c-.08-.04-.17-.08-.25-.13.02-.04.05-.08.07-.12l.18.25ZM774.47,637.79l-6.36-6.78c-1.74-1.86-1.64-4.77.2-6.52l2.5-2.34c.55-.51,1.19-.84,1.86-1.04.31,1.71,1.08,3.36,2.35,4.71l6.38,6.8c.26.27.53.52.8.76-.36-.06-.74-.05-1.11.04-.74.17-1.37.63-1.77,1.28l-.36.58c-.76,1.19-.5,2.74.53,3.66-1.7.66-3.71.27-5.03-1.15ZM807.18,658.33l-8.92-3.51c-2.26-.91-3.39-3.46-2.52-5.75.45.27.95.42,1.47.42.21,0,.43-.03.64-.07.75-.17,1.39-.63,1.79-1.28l.36-.58c.84-1.32.44-3.09-.89-3.94l-.25-.15c.67-.43,1.44-.68,2.24-.71.2,3.48,2.36,6.71,5.81,8.07l6.96,2.75-.9,2.26c-.9,2.28-3.51,3.42-5.79,2.5ZM820.91,649.7c-.55.24-1.14.35-1.73.35-.26-3.34-2.37-6.4-5.68-7.7l-4.91-1.94c.42-.19.79-.5,1.05-.92l.37-.58c.71-1.11.37-2.6-.77-3.31l-.23-.14c.76-.6,1.69-.94,2.66-.94.52,0,1.06.1,1.57.3l8.9,3.53c1.74.69,2.76,2.4,2.69,4.17l-1.57-.25c-1.32-.22-2.54.68-2.76,1.97l-.11.69c-.22,1.3.66,2.54,1.97,2.76l.59.1c-.45.85-1.16,1.54-2.06,1.93ZM854.61,653.77h-8.96c-2,0-3.69-1.29-4.33-3.08,1.09-.06,2.04-.87,2.23-2l.11-.68c.22-1.32-.66-2.56-1.97-2.78l-.54-.09c.44-2.09,2.29-3.66,4.5-3.66h8.94c2.15,0,3.95,1.49,4.46,3.5l-.69.16c-1.3.29-2.1,1.57-1.81,2.87l.15.68c.25,1.09,1.21,1.83,2.28,1.86-.22.69-.58,1.33-1.11,1.86-.87.87-2.03,1.36-3.25,1.36ZM891.86,643.28l-7.66,4.28h0c-1.09.61-2.36.76-3.56.42-1.04-.29-1.91-.94-2.53-1.81,1.07-.43,1.71-1.6,1.45-2.77l-.16-.68c-.29-1.28-1.57-2.1-2.87-1.81l-.69.16c-.01-.46.02-.93.15-1.4.34-1.22,1.14-2.23,2.24-2.85l7.63-4.27c.72-.4,1.51-.59,2.29-.59,1.17,0,2.31.44,3.19,1.24l-1.08,1c-.97.9-1.04,2.41-.15,3.4l.48.51c.9.97,2.41,1.04,3.4.15l.14-.13c.45,1.99-.4,4.11-2.26,5.14ZM917.99,612.66c.26,1.12.06,2.27-.55,3.24l-5.08,8.09c-1.06,1.68-3.1,2.36-4.91,1.81l.22-.21c.99-.9,1.04-2.41.15-3.4l-.46-.51c-.91-.97-2.43-1.04-3.42-.15l-1.36,1.26c-1.39-1.39-1.71-3.61-.62-5.34l5.1-8.1c.6-.96,1.55-1.64,2.66-1.89.32-.07.65-.11.97-.11.3,0,.6.04.89.11l-.64,1.49c-.53,1.21.04,2.63,1.26,3.16l.62.27c1.22.53,2.65-.04,3.16-1.26l.39-.92c.81.6,1.38,1.45,1.61,2.45ZM929.49,582.53l-1.85,8.84c-.48,2.24-2.52,3.73-4.73,3.61l.42-.98c.53-1.22-.02-2.65-1.24-3.16l-.64-.27c-1.21-.53-2.63.02-3.16,1.24l-.76,1.77c-.5-.34-.93-.77-1.26-1.28-.67-1.02-.9-2.24-.64-3.43l1.84-8.84c.46-2.15,2.36-3.64,4.47-3.64.09,0,.19.02.28.03l-.13.87c-.2,1.32.69,2.54,2.01,2.72l.69.11c1.3.2,2.54-.71,2.72-2.01l.04-.29c1.49,1,2.32,2.85,1.93,4.72ZM934.12,556.87h0c-.06,1.23-.59,2.37-1.51,3.2-.73.66-1.64,1.06-2.6,1.15l.23-1.58c.2-1.3-.69-2.52-2.01-2.72l-.69-.11c-1.3-.2-2.54.71-2.74,2.03l-.27,1.85c-1.65-.76-2.76-2.47-2.67-4.4l.42-8.94c.06-1.22.59-2.35,1.5-3.18.62-.56,1.36-.93,2.16-1.1l-.02.89c-.04,1.33,1.01,2.45,2.34,2.49l.69.02c1.32.04,2.43-1.01,2.47-2.34l.02-.74c.72.25,1.38.66,1.91,1.24.83.91,1.25,2.09,1.2,3.32l-.42,8.94Z"/><path id="chain" class="cls-3" d="M744.87,545.19c-1.86,0-3.67-.55-5.25-1.6-2.11-1.41-3.54-3.55-4.03-6.03l-1.77-8.9c-.5-2.48,0-5.01,1.4-7.11,1.41-2.11,3.55-3.54,6.04-4.03l3.11-.64c5.14-1.01,10.14,2.33,11.17,7.45l1.77,8.89c1.01,5.12-2.33,10.13-7.45,11.16l-3.13.62c-.62.12-1.24.18-1.86.18ZM746.22,521.64c-.29,0-.59.03-.88.09l-3.11.64c-1.21.24-2.23.92-2.91,1.93-.67,1.01-.91,2.22-.67,3.4h0s1.77,8.91,1.77,8.91c.23,1.18.92,2.2,1.93,2.88,1.01.68,2.22.92,3.41.68l3.13-.62c2.45-.5,4.06-2.9,3.58-5.36l-1.77-8.88c-.44-2.16-2.35-3.67-4.48-3.67ZM642.91,579.01c-1.08,0-2.17-.17-3.23-.53l-1.6-.53c-5.34-1.78-8.26-7.58-6.51-12.93l2.4-7.19c.84-2.57,2.65-4.67,5.08-5.91,2.45-1.24,5.23-1.45,7.83-.59l1.61.53c5.35,1.78,8.27,7.57,6.5,12.93h0s-2.38,7.19-2.38,7.19c-.86,2.6-2.69,4.71-5.14,5.94-1.44.72-3,1.09-4.57,1.09ZM643.68,555.76c-.82,0-1.64.19-2.4.58-1.25.64-2.19,1.72-2.62,3.05l-2.4,7.19c-.9,2.76.61,5.77,3.37,6.69l1.6.53c1.34.45,2.77.34,4.03-.29,1.27-.64,2.22-1.73,2.67-3.08l2.37-7.18c.91-2.78-.6-5.78-3.37-6.7l-1.6-.53c-.54-.18-1.1-.27-1.66-.27ZM652.65,564.03h.02-.02ZM630.27,610.09c-1.55,0-3.09-.37-4.51-1.1l-2.04-1.04c-4.87-2.51-6.81-8.5-4.33-13.35l3.73-7.29c2.51-4.88,8.5-6.8,13.36-4.31l2.04,1.04c2.36,1.2,4.11,3.25,4.93,5.78.81,2.52.6,5.21-.6,7.57l-3.73,7.28c-1.2,2.36-3.25,4.11-5.77,4.93-1.01.33-2.04.49-3.07.49ZM631.95,586.84c-1.81,0-3.56.99-4.45,2.72l-3.72,7.29c-1.24,2.44-.26,5.46,2.19,6.72l2.04,1.04c1.2.61,2.55.72,3.82.31,1.27-.41,2.3-1.29,2.9-2.48l3.73-7.28c.6-1.19.71-2.55.3-3.82-.41-1.27-1.29-2.3-2.47-2.9l-2.05-1.04c-.73-.37-1.5-.55-2.27-.55ZM640.64,596.26h.02-.02ZM609.67,636.37c-2.29,0-4.59-.83-6.39-2.52l-2.51-2.36c-3.76-3.51-3.95-9.44-.42-13.22l6.38-6.8c3.54-3.76,9.46-3.94,13.21-.42l2.52,2.35c3.76,3.53,3.95,9.46.43,13.23h0s-6.38,6.79-6.38,6.79c-1.84,1.97-4.33,2.96-6.83,2.96ZM613.55,613.45c-1.18,0-2.35.47-3.22,1.39l-6.38,6.8c-1.67,1.78-1.58,4.59.2,6.25l2.51,2.36c1.78,1.66,4.58,1.57,6.25-.22l6.38-6.78c1.67-1.78,1.58-4.59-.2-6.26l-2.52-2.35c-.85-.8-1.93-1.19-3.02-1.19ZM621.09,624.94h.02-.02ZM578.71,654.9c-3.68,0-7.16-2.21-8.59-5.83l-1.37-3.43c-1.87-4.74.46-10.11,5.19-11.98l8.92-3.53c2.28-.9,4.78-.86,7.04.11,2.26.98,4.01,2.78,4.91,5.08l1.37,3.45c.91,2.28.87,4.79-.11,7.05-.98,2.26-2.78,4.01-5.08,4.91l-8.9,3.53c-1.11.44-2.26.65-3.38.65ZM586.24,634.41c-.53,0-1.06.1-1.57.3l-8.92,3.53c-2.2.87-3.28,3.37-2.41,5.57l1.37,3.43c.87,2.21,3.37,3.28,5.58,2.42l8.9-3.53c1.07-.42,1.91-1.23,2.36-2.28.45-1.05.47-2.21.05-3.26l-1.37-3.45c-.42-1.07-1.23-1.91-2.29-2.36-.55-.24-1.12-.36-1.7-.36ZM552.26,659.5l-8.94-.02c-5.26,0-9.54-4.28-9.54-9.54v-3.07c0-2.55,1-4.95,2.81-6.75,1.8-1.79,4.17-2.77,6.7-2.77h8.99c5.26,0,9.54,4.28,9.54,9.54l-.02,3.08c0,5.25-4.28,9.53-9.54,9.53ZM543.3,642.29c-1.22,0-2.36.47-3.23,1.34-.88.87-1.36,2.03-1.36,3.25v3.07c0,2.54,2.07,4.61,4.61,4.61l8.94.02c2.54,0,4.61-2.07,4.61-4.61l.02-3.08c0-2.53-2.07-4.59-4.61-4.59h-8.98ZM515.98,653.88c-1.59,0-3.19-.39-4.67-1.21h0s-7.64-4.28-7.64-4.28c-2.26-1.27-3.88-3.33-4.58-5.82-.69-2.47-.38-5.06.88-7.29l1.4-2.51c1.25-2.25,3.3-3.87,5.78-4.57,2.48-.71,5.08-.39,7.33.86l7.66,4.27c4.62,2.58,6.29,8.46,3.71,13.09l-1.41,2.53c-1.77,3.15-5.06,4.93-8.44,4.93ZM513.7,648.36c2.27,1.26,5.14.45,6.41-1.81l1.41-2.52c1.25-2.26.44-5.13-1.81-6.38l-7.66-4.28c-1.1-.62-2.37-.76-3.57-.42-1.21.34-2.2,1.13-2.81,2.23l-1.41,2.53c-.61,1.09-.76,2.34-.43,3.54.34,1.22,1.14,2.23,2.24,2.85l7.63,4.27ZM489.21,631.74c-.69,0-1.39-.08-2.08-.24-2.4-.55-4.44-2-5.74-4.08l-5.1-8.09c-2.7-4.32-1.39-10.03,2.91-12.74l3.11-1.95c2.09-1.32,4.57-1.73,6.97-1.18,2.4.55,4.45,2.01,5.77,4.09l5.08,8.08c1.31,2.08,1.73,4.56,1.18,6.97-.55,2.4-2.01,4.45-4.09,5.77l-3.11,1.96c-1.49.94-3.18,1.42-4.9,1.42ZM487.21,608.15c-.8,0-1.58.22-2.27.66l-3.11,1.96c-2.01,1.26-2.62,3.93-1.36,5.95l5.1,8.1c.6.97,1.55,1.64,2.66,1.89,1.12.26,2.28.06,3.25-.55l3.11-1.96c.97-.61,1.65-1.57,1.91-2.7.26-1.12.06-2.27-.55-3.24l-5.08-8.08c-.61-.97-1.57-1.65-2.7-1.91-.32-.07-.65-.11-.97-.11ZM474.5,600.51c-1.82,0-3.61-.53-5.17-1.55-2.13-1.39-3.58-3.52-4.1-6l-1.86-8.86c-1.06-5.12,2.23-10.16,7.35-11.24l3.1-.64c2.48-.52,5.01-.04,7.14,1.35,2.13,1.39,3.58,3.52,4.09,6l1.86,8.86c1.06,5.12-2.23,10.16-7.35,11.24l-3.1.64c-.65.14-1.31.21-1.97.21ZM475.78,576.96c-.32,0-.63.03-.95.1l-3.1.64c-2.45.52-4.04,2.94-3.53,5.4l1.86,8.86c.25,1.19.94,2.21,1.96,2.87,1.02.66,2.24.9,3.43.64l3.1-.64c2.45-.52,4.04-2.94,3.53-5.4l-1.86-8.86c-.25-1.19-.94-2.21-1.96-2.88-.75-.49-1.61-.74-2.48-.74ZM468.41,566.99c-2.38,0-4.64-.87-6.42-2.48-1.88-1.71-2.99-4.06-3.11-6.6l-.44-8.93c-.25-5.27,3.82-9.74,9.07-9.99l3.07-.15c2.53-.13,4.98.76,6.87,2.47,1.89,1.72,3,4.06,3.12,6.6l.42,8.94c.13,2.52-.74,4.96-2.45,6.85-1.72,1.9-4.07,3.01-6.62,3.13l-3.05.14c-.15,0-.31.01-.46.01ZM471.04,543.77c-.07,0-.15,0-.22,0l-3.07.15c-2.53.12-4.5,2.28-4.38,4.82l.44,8.94c.06,1.23.59,2.36,1.5,3.18.91.83,2.11,1.25,3.32,1.19l3.05-.14c1.23-.06,2.36-.6,3.2-1.51.82-.91,1.24-2.08,1.18-3.3l-.42-8.95c-.06-1.22-.59-2.35-1.5-3.18-.86-.78-1.95-1.2-3.1-1.2ZM470.25,533.43c-.08,0-.15,0-.23,0l-3.23-.07c-2.53-.06-4.88-1.1-6.62-2.93-1.74-1.83-2.67-4.23-2.61-6.76l.2-9.1c.12-5.14,4.36-9.25,9.48-9.25.06,0,.12,0,.18,0l3.24.07c5.2.12,9.34,4.46,9.25,9.68l-.22,9.12c-.06,2.52-1.1,4.87-2.92,6.62-1.77,1.7-4.08,2.62-6.52,2.63ZM467.24,510.25c-2.45,0-4.48,1.97-4.54,4.43l-.2,9.1c-.03,1.21.41,2.37,1.25,3.24.83.87,1.95,1.37,3.16,1.4l3.23.07c1.19,0,2.35-.42,3.22-1.25.88-.84,1.37-1.97,1.4-3.17l.22-9.1c.05-2.49-1.94-4.58-4.43-4.64l-3.23-.07s-.06,0-.09,0ZM460.03,523.73h.02-.02ZM651.88,537.34l-.68-.18c-1.28-.35-2.6.4-2.96,1.68l-4.97,17.97c-.35,1.28.4,2.61,1.68,2.96l.68.18c1.28.35,2.6-.4,2.94-1.68l4.99-17.97c.35-1.28-.4-2.61-1.68-2.96ZM642.56,569.58l-.64-.27c-1.22-.51-2.65.07-3.16,1.3l-7.24,17.16c-.51,1.22.05,2.65,1.28,3.16l.64.26c1.22.51,2.63-.05,3.14-1.28l7.26-17.18c.51-1.22-.05-2.63-1.28-3.14ZM629.28,600.78l-.55-.4c-1.08-.77-2.6-.53-3.36.55l-10.95,15.1c-.77,1.08-.51,2.58.55,3.36l.57.4c1.08.77,2.6.53,3.36-.55l10.93-15.1c.79-1.08.53-2.58-.55-3.36ZM608.18,627.88l-.37-.58c-.71-1.13-2.19-1.46-3.33-.77l-15.83,9.83c-1.13.71-1.46,2.19-.77,3.33l.37.58c.71,1.13,2.19,1.46,3.33.77l15.83-9.85c1.13-.69,1.46-2.17.77-3.31ZM577.52,645.7l-.13-.68c-.2-1.32-1.44-2.21-2.76-1.99l-18.4,3c-1.3.22-2.19,1.44-1.97,2.76l.11.68c.22,1.32,1.46,2.21,2.76,1.99l18.4-3c1.32-.22,2.21-1.44,1.99-2.76ZM541.22,649.49l.15-.68c.31-1.3-.51-2.6-1.81-2.89l-18.15-4.2c-1.3-.29-2.6.51-2.89,1.81l-.15.68c-.31,1.3.51,2.58,1.81,2.87l18.15,4.22c1.3.29,2.6-.53,2.89-1.81ZM507.33,638.91l.48-.51c.9-.97.84-2.5-.15-3.4l-13.69-12.65c-.99-.9-2.5-.84-3.4.15l-.48.51c-.9.97-.82,2.5.15,3.4l13.69,12.65c.99.9,2.5.82,3.4-.15ZM485.09,613.17l.64-.27c1.21-.53,1.77-1.94,1.24-3.16l-7.35-17.13c-.53-1.22-1.94-1.79-3.16-1.26l-.64.27c-1.21.53-1.77,1.96-1.24,3.16l7.35,17.14c.53,1.21,1.94,1.77,3.16,1.24ZM473.14,580.91l.68-.11c1.32-.2,2.21-1.43,2.03-2.74l-2.72-18.44c-.2-1.32-1.43-2.21-2.74-2.03l-.68.11c-1.32.2-2.23,1.43-2.03,2.74l2.72,18.44c.2,1.32,1.43,2.21,2.74,2.03ZM468.99,547.27l.69-.04c1.32-.04,2.36-1.15,2.32-2.47l-.51-18.64c-.04-1.33-1.15-2.38-2.47-2.34l-.69.04c-1.33.04-2.38,1.15-2.34,2.47l.51,18.64c.04,1.33,1.15,2.38,2.49,2.34ZM653.07,545.98c-.63,0-1.26-.06-1.89-.19l-3.12-.62c-2.48-.49-4.63-1.92-6.04-4.04-1.41-2.11-1.91-4.64-1.4-7.12l1.77-8.89c.49-2.47,1.92-4.61,4.03-6.02,2.11-1.41,4.63-1.91,7.11-1.42l3.13.62c2.49.5,4.63,1.94,6.04,4.04,1.41,2.11,1.9,4.64,1.4,7.12l-1.77,8.88c-.49,2.48-1.92,4.63-4.03,6.03-1.57,1.05-3.38,1.59-5.23,1.59ZM651.69,522.44c-.89,0-1.76.26-2.52.77-1.01.67-1.7,1.7-1.93,2.88l-1.77,8.9c-.24,1.19,0,2.4.67,3.41.67,1.01,1.7,1.7,2.89,1.93l3.13.62c1.19.25,2.41,0,3.41-.67,1.01-.67,1.69-1.7,1.93-2.89l1.78-8.89c.5-2.45-1.11-4.86-3.57-5.35l-3.12-.62c-.29-.06-.59-.09-.89-.09ZM672.26,525.13l-.68-.13c-1.3-.26-2.58.58-2.83,1.88l-3.75,18.26c-.27,1.3.57,2.58,1.88,2.83l.68.15c1.3.26,2.56-.58,2.83-1.88l3.75-18.28c.26-1.3-.58-2.56-1.88-2.83ZM668.03,548.63c-.18,0-.37-.02-.55-.05l-.68-.15c-.75-.14-1.4-.58-1.82-1.22-.42-.64-.57-1.41-.41-2.16l3.75-18.26c.15-.74.58-1.39,1.22-1.81.64-.42,1.4-.58,2.15-.43l.67.13c1.54.33,2.55,1.84,2.25,3.37h0s-3.75,18.28-3.75,18.28c-.29,1.35-1.49,2.29-2.82,2.29ZM671.12,525.42c-.38,0-.76.11-1.08.33-.44.29-.73.73-.83,1.23l-3.75,18.26c-.11.51,0,1.03.28,1.47.29.43.73.73,1.24.83l.69.15c1.04.21,2.07-.48,2.29-1.53l3.75-18.27c.21-1.04-.48-2.07-1.53-2.3l-.67-.13c-.13-.02-.26-.04-.38-.04ZM674.14,527.96h.01-.01ZM927.07,531.75c-2.44,0-4.75-.93-6.52-2.63-1.82-1.75-2.86-4.1-2.92-6.62l-.22-9.1c-.06-2.53.87-4.92,2.62-6.76,1.75-1.83,4.1-2.87,6.63-2.93l3.24-.07c5.26-.06,9.55,4.05,9.67,9.24l.2,9.11c.06,2.53-.87,4.93-2.61,6.76-1.74,1.83-4.09,2.87-6.62,2.93l-3.24.07c-.07,0-.15,0-.23,0ZM930.08,508.57s-.06,0-.09,0l-3.23.07c-1.2.03-2.33.53-3.17,1.41-.84.88-1.29,2.03-1.26,3.23l.22,9.1c.03,1.21.53,2.34,1.4,3.18.87.84,2.02,1.28,3.22,1.25l3.24-.07c1.2-.03,2.33-.52,3.16-1.4.83-.88,1.28-2.03,1.25-3.24h0s-.2-9.11-.2-9.11c-.06-2.46-2.09-4.42-4.55-4.42ZM744.36,539.5l4.97,17.97c.35,1.28,1.68,2.05,2.96,1.68l.66-.18c1.28-.35,2.05-1.66,1.68-2.94l-4.97-17.97c-.35-1.28-1.68-2.05-2.96-1.68l-.66.18c-1.28.35-2.05,1.66-1.68,2.94ZM754.07,571.92l7.26,17.18c.51,1.22,1.92,1.81,3.14,1.3l.64-.27c1.22-.51,1.81-1.92,1.3-3.14l-7.26-17.18c-.51-1.22-1.92-1.79-3.14-1.28l-.64.26c-1.22.51-1.81,1.92-1.3,3.14ZM768.09,603.34l10.93,15.1c.79,1.08,2.28,1.33,3.36.55l.57-.4c1.08-.77,1.32-2.27.55-3.36l-10.95-15.08c-.77-1.08-2.27-1.33-3.34-.55l-.57.4c-1.08.77-1.32,2.27-.55,3.34ZM790.5,630.41l15.85,9.83c1.11.71,2.61.37,3.31-.77l.37-.58c.71-1.11.37-2.6-.77-3.31l-15.83-9.83c-1.13-.71-2.61-.37-3.31.77l-.38.58c-.69,1.11-.35,2.6.77,3.31ZM822.39,647.68l18.4,2.98c1.3.22,2.54-.66,2.76-1.97l.11-.68c.22-1.32-.66-2.56-1.97-2.78l-18.4-2.98c-1.32-.22-2.54.68-2.76,1.97l-.11.69c-.22,1.3.66,2.54,1.97,2.76ZM859.58,650.49l18.17-4.2c1.28-.29,2.1-1.59,1.81-2.89l-.16-.68c-.29-1.28-1.57-2.1-2.87-1.81l-18.17,4.22c-1.3.29-2.1,1.57-1.81,2.87l.15.68c.29,1.3,1.59,2.1,2.89,1.81ZM893.98,638.27l13.69-12.67c.99-.9,1.04-2.41.15-3.4l-.46-.51c-.91-.97-2.43-1.04-3.42-.15l-13.69,12.67c-.97.9-1.04,2.41-.15,3.4l.48.51c.9.97,2.41,1.04,3.4.15ZM915.98,611.12l7.35-17.13c.53-1.22-.02-2.65-1.24-3.16l-.64-.27c-1.21-.53-2.63.02-3.16,1.24l-7.35,17.14c-.53,1.21.04,2.63,1.26,3.16l.62.27c1.22.53,2.65-.04,3.16-1.26ZM927.52,578.1l2.72-18.46c.2-1.3-.69-2.52-2.01-2.72l-.69-.11c-1.3-.2-2.54.71-2.74,2.03l-2.7,18.44c-.2,1.32.69,2.54,2.01,2.72l.69.11c1.3.2,2.54-.71,2.72-2.01ZM931.41,544.12l.51-18.62c.04-1.33-1.01-2.45-2.32-2.49l-.69-.02c-1.33-.04-2.45,1.01-2.49,2.34l-.51,18.62c-.04,1.33,1.01,2.45,2.34,2.49l.69.02c1.32.04,2.43-1.01,2.47-2.34ZM771.14,640.92l-6.38-6.78c-3.45-3.71-3.27-9.5.42-12.98l2.5-2.34c3.69-3.47,9.5-3.29,12.98.4l6.36,6.8c3.47,3.69,3.29,9.5-.4,12.98l-2.52,2.34c-3.69,3.47-9.5,3.29-12.96-.42ZM780.97,638.01l2.52-2.36c1.85-1.74,1.94-4.64.2-6.51l-6.38-6.8c-1.74-1.85-4.64-1.94-6.51-.2l-2.5,2.34c-1.85,1.75-1.94,4.66-.2,6.52l6.36,6.78c1.74,1.86,4.66,1.96,6.51.22ZM805.5,662.59l-8.92-3.53c-4.64-1.83-6.91-7.09-5.08-11.73l1.37-3.44c1.83-4.64,7.09-6.93,11.73-5.08l8.9,3.53c4.64,1.83,6.93,7.09,5.08,11.73l-1.35,3.44c-1.85,4.64-7.09,6.91-11.73,5.08ZM812.98,655.83l1.37-3.44c.9-2.3-.22-4.9-2.52-5.81l-8.9-3.53c-2.3-.91-4.9.22-5.81,2.52l-1.35,3.44c-.91,2.3.22,4.9,2.5,5.81l8.92,3.51c2.28.91,4.9-.22,5.79-2.5ZM780.1,638.83l15.85,9.83c1.11.71,2.61.37,3.31-.77l.37-.58c.71-1.11.37-2.6-.75-3.31l-15.85-9.83c-1.13-.71-2.61-.37-3.31.77l-.37.58c-.71,1.11-.37,2.6.75,3.31ZM797.21,649.49c-.53,0-1.05-.15-1.51-.44l-15.85-9.83c-1.33-.85-1.73-2.62-.89-3.94l.36-.58c.4-.65,1.03-1.1,1.77-1.28.75-.18,1.52-.05,2.17.36l15.84,9.83c1.34.86,1.73,2.63.89,3.94l-.36.58c-.4.65-1.04,1.11-1.79,1.28-.21.05-.43.07-.64.07ZM780.34,638.44l15.84,9.83c.44.28.96.37,1.46.25.51-.12.94-.43,1.22-.87l.37-.59c.57-.9.3-2.1-.61-2.68l-15.84-9.83c-.45-.28-.97-.37-1.48-.25-.5.12-.93.43-1.2.87l-.37.59c-.57.9-.3,2.1.61,2.68ZM729.82,571.81l-2.38-7.18c-1.75-5.26,1.11-10.97,6.38-12.7l1.59-.53c5.26-1.75,10.97,1.11,12.7,6.38l2.38,7.18c1.75,5.26-1.11,10.95-6.38,12.7l-1.59.53c-5.28,1.74-10.97-1.11-12.7-6.38ZM741.07,573.84l1.61-.53c2.87-.95,4.42-4.04,3.47-6.91l-2.38-7.2c-.95-2.85-4.06-4.42-6.93-3.47l-1.61.53c-2.87.95-4.42,4.06-3.47,6.93l2.38,7.18c.95,2.87,4.06,4.42,6.93,3.47ZM744.18,604.23l-3.73-7.27c-2.45-4.79-.55-10.66,4.24-13.1l2.05-1.04c4.79-2.45,10.66-.55,13.1,4.24l3.73,7.27c2.45,4.79.55,10.66-4.24,13.1l-2.05,1.06c-4.79,2.45-10.66.55-13.1-4.26ZM755.2,604.42l2.05-1.04c2.54-1.3,3.55-4.42,2.25-6.96l-3.71-7.29c-1.3-2.54-4.42-3.55-6.96-2.25l-2.05,1.04c-2.54,1.3-3.55,4.42-2.25,6.96l3.71,7.29c1.3,2.54,4.42,3.55,6.96,2.25ZM729.56,539.95l4.99,17.97c.35,1.28,1.66,2.03,2.96,1.68l.66-.18c1.28-.35,2.03-1.66,1.68-2.96l-4.97-17.95c-.35-1.3-1.68-2.05-2.96-1.7l-.68.18c-1.28.35-2.03,1.68-1.68,2.96ZM736.88,560.14c-1.27,0-2.43-.84-2.77-2.1l-4.99-17.97c-.2-.74-.1-1.51.27-2.17.38-.67.99-1.15,1.73-1.35l.68-.18c.75-.2,1.52-.1,2.18.28.66.38,1.14,1,1.34,1.74l4.97,17.94c.41,1.53-.49,3.11-2,3.52l-.66.18c-.25.07-.5.1-.75.1ZM730,539.83l4.99,17.97c.29,1.05,1.33,1.64,2.4,1.36l.66-.18c1.03-.28,1.64-1.36,1.36-2.4l-4.97-17.94c-.14-.51-.46-.93-.91-1.19-.46-.26-.98-.33-1.49-.19l-.68.18c-.5.14-.92.46-1.17.92-.26.45-.32.98-.19,1.48ZM739.28,572.38l7.26,17.18c.51,1.22,1.92,1.79,3.14,1.28l.64-.26c1.22-.51,1.79-1.92,1.28-3.14l-7.24-17.18c-.51-1.22-1.94-1.81-3.14-1.3l-.64.27c-1.22.51-1.81,1.92-1.3,3.14ZM748.75,591.48c-.37,0-.74-.07-1.09-.22-.7-.29-1.25-.83-1.54-1.53l-7.26-17.18c-.61-1.45.09-3.13,1.54-3.74l.64-.27c.69-.29,1.47-.3,2.17,0,.72.29,1.27.84,1.57,1.55l7.24,17.18c.61,1.46-.07,3.14-1.52,3.74l-.65.26c-.35.15-.73.22-1.1.22ZM739.7,572.2l7.26,17.18c.2.48.57.85,1.05,1.04.48.2,1.02.2,1.5,0l.65-.26c.98-.41,1.44-1.55,1.03-2.54l-7.24-17.18c-.2-.48-.58-.86-1.07-1.06-.48-.19-1-.19-1.47,0l-.64.27c-.99.42-1.47,1.56-1.05,2.55h0ZM754.12,578.43c-1.57,0-3.13-.37-4.58-1.1-2.44-1.23-4.26-3.33-5.11-5.92l-2.37-7.19c-.86-2.59-.66-5.36.57-7.81,1.23-2.44,3.33-4.26,5.92-5.11l1.61-.53c2.58-.86,5.35-.66,7.8.57,2.45,1.22,4.27,3.32,5.13,5.91l2.38,7.21c.86,2.58.66,5.36-.57,7.8-1.23,2.45-3.34,4.26-5.94,5.11l-1.6.53c-1.05.35-2.14.53-3.22.53ZM753.37,555.18c-.56,0-1.12.09-1.67.27l-1.62.53c-1.34.44-2.42,1.37-3.05,2.64-.64,1.27-.74,2.7-.3,4.04h0s2.38,7.21,2.38,7.21c.44,1.34,1.37,2.42,2.64,3.05,1.26.63,2.69.74,4.04.3l1.62-.53c1.35-.44,2.44-1.38,3.07-2.64.64-1.26.74-2.69.3-4.03l-2.38-7.21c-.44-1.33-1.39-2.42-2.66-3.05-.75-.37-1.56-.57-2.37-.57ZM654.13,599.72l-1.61-.53c-5.26-1.74-8.11-7.42-6.38-12.68l2.38-7.18c1.75-5.28,7.44-8.13,12.7-6.4l1.61.53c5.26,1.75,8.11,7.44,6.38,12.7l-2.38,7.18c-1.75,5.26-7.44,8.13-12.7,6.38ZM662.48,591.92l2.39-7.2c.95-2.85-.62-5.96-3.49-6.91l-1.59-.53c-2.87-.95-5.98.6-6.93,3.47l-2.38,7.18c-.95,2.87.6,5.98,3.47,6.93l1.61.53c2.87.95,5.96-.6,6.91-3.47ZM665.39,558.54l-.66-.18c-1.28-.35-2.61.4-2.96,1.68l-4.99,17.97c-.35,1.28.42,2.61,1.7,2.96l.66.18c1.28.35,2.61-.4,2.96-1.68l4.97-17.97c.35-1.28-.4-2.61-1.68-2.96ZM659.78,581.69c-.25,0-.5-.03-.75-.1l-.66-.18c-.73-.2-1.35-.68-1.73-1.35-.38-.67-.48-1.44-.28-2.17l4.99-17.97c.2-.73.68-1.35,1.35-1.73.67-.37,1.44-.47,2.17-.27l.66.18c1.52.41,2.41,1.99,2,3.52h0s-4.97,17.97-4.97,17.97c-.34,1.27-1.5,2.1-2.77,2.1ZM664.1,558.73c-.34,0-.67.09-.97.26-.45.26-.78.67-.91,1.17l-4.99,17.97c-.13.5-.07,1.02.2,1.48.26.46.68.78,1.18.92l.66.18c1.04.28,2.12-.33,2.4-1.36l4.97-17.97c.28-1.04-.33-2.12-1.36-2.4l-.66-.18c-.17-.05-.34-.07-.51-.07ZM667.07,561.5h.01-.01ZM656.07,590.76l-.64-.26c-1.22-.51-2.63.05-3.14,1.3l-7.26,17.16c-.51,1.22.07,2.63,1.3,3.14l.64.27c1.22.51,2.63-.07,3.14-1.3l7.26-17.16c.51-1.22-.07-2.65-1.3-3.16ZM647.89,613.03c-.37,0-.74-.07-1.1-.22l-.64-.28c-.7-.29-1.25-.84-1.54-1.55-.29-.71-.29-1.48,0-2.19l7.26-17.16c.29-.71.84-1.26,1.54-1.55.71-.29,1.49-.29,2.2,0l.63.25c1.47.62,2.16,2.3,1.55,3.76h0s-7.26,17.16-7.26,17.16c-.29.7-.85,1.25-1.55,1.54-.35.15-.72.22-1.09.22ZM654.49,590.78c-.25,0-.5.05-.74.15-.48.2-.85.57-1.05,1.05l-7.26,17.17c-.2.48-.2,1,0,1.49.2.48.57.86,1.05,1.06l.64.28c.99.41,2.13-.06,2.54-1.05l7.26-17.16c.2-.48.2-1.01,0-1.5-.2-.49-.57-.87-1.05-1.07l-.63-.25c-.25-.11-.51-.16-.77-.16ZM657.37,593.93h.01-.01ZM664.73,566.82l-3.13-.62c-5.04-1.01-8.32-5.92-7.29-10.95l1.77-8.88c1.01-5.04,5.9-8.32,10.93-7.31l3.13.62c5.03,1.01,8.3,5.9,7.29,10.95l-1.77,8.88c-1.01,5.04-5.9,8.32-10.93,7.31ZM671.18,558.62l1.77-8.88c.51-2.56-1.15-5.06-3.71-5.56l-3.13-.64c-2.56-.51-5.04,1.17-5.56,3.73l-1.77,8.88c-.51,2.56,1.15,5.06,3.71,5.56l3.13.64c2.56.49,5.04-1.17,5.56-3.73ZM767.67,609.28c-3.61,0-7.1-1.97-8.87-5.4l-3.71-7.3c-1.21-2.35-1.43-5.04-.61-7.56.81-2.52,2.56-4.58,4.91-5.79l2.06-1.05c4.89-2.48,10.88-.54,13.35,4.34l3.72,7.27c1.2,2.37,1.42,5.06.6,7.58-.82,2.53-2.57,4.58-4.94,5.78l-2.03,1.05c-1.44.73-2.98,1.08-4.5,1.08ZM765.95,586.04c-.76,0-1.54.17-2.27.54l-2.04,1.04c-2.44,1.26-3.41,4.27-2.16,6.71h0s3.71,7.3,3.71,7.3c1.26,2.44,4.27,3.42,6.71,2.17l2.03-1.05c2.46-1.25,3.44-4.26,2.19-6.73l-3.72-7.26c-.88-1.73-2.63-2.72-4.45-2.72ZM788.22,635.57c-2.5,0-4.99-.99-6.82-2.95l-6.38-6.8c-3.51-3.76-3.31-9.69.44-13.22l2.51-2.34c1.82-1.71,4.21-2.6,6.7-2.53,2.49.08,4.81,1.13,6.53,2.95l6.36,6.8c1.71,1.8,2.61,4.17,2.53,6.67-.07,2.51-1.13,4.83-2.96,6.54l-2.5,2.35c-1.81,1.69-4.12,2.53-6.42,2.53ZM778.63,622.45l6.38,6.8c1.66,1.78,4.47,1.87,6.26.2l2.5-2.35c.87-.81,1.37-1.91,1.4-3.09.04-1.17-.39-2.29-1.19-3.14l-6.37-6.81c-.81-.86-1.91-1.36-3.09-1.4-1.12,0-2.3.39-3.16,1.2l-2.51,2.34c-1.77,1.67-1.87,4.48-.21,6.25h0ZM819.22,654.99c-1.14,0-2.29-.22-3.39-.65l-8.92-3.53c-4.73-1.87-7.06-7.24-5.19-11.97l1.37-3.44c1.87-4.72,7.24-7.05,11.97-5.18l8.9,3.53c4.73,1.87,7.06,7.24,5.19,11.97l-1.37,3.44c-.9,2.29-2.65,4.09-4.91,5.07-1.18.51-2.42.76-3.66.76ZM811.68,634.5c-1.71,0-3.33,1.03-4,2.71l-1.37,3.44c-.87,2.2.22,4.7,2.42,5.57l8.92,3.53c1.06.42,2.22.4,3.27-.05,1.05-.46,1.86-1.29,2.28-2.36l1.37-3.44c.87-2.2-.22-4.7-2.41-5.56l-8.9-3.53c-.51-.2-1.05-.3-1.57-.3ZM854.61,658.7h-8.96c-5.26,0-9.54-4.28-9.54-9.54v-3.05c0-5.27,4.28-9.56,9.54-9.56h8.94c5.26,0,9.54,4.28,9.54,9.54v3.07c.01,2.53-.97,4.92-2.77,6.73-1.8,1.81-4.2,2.81-6.75,2.81ZM845.65,641.48c-2.54,0-4.61,2.08-4.61,4.62v3.05c0,2.54,2.07,4.61,4.61,4.61h8.96c1.23,0,2.38-.48,3.25-1.36.87-.87,1.34-2.02,1.34-3.24v-3.08c0-2.54-2.07-4.61-4.61-4.61h-8.94ZM881.93,653.09c-.88,0-1.77-.12-2.64-.37-2.48-.7-4.53-2.33-5.78-4.58l-1.4-2.52c-1.25-2.22-1.56-4.8-.87-7.28.7-2.49,2.32-4.55,4.58-5.82l7.64-4.28c4.64-2.58,10.52-.92,13.12,3.71l1.41,2.53c1.25,2.25,1.55,4.85.85,7.32-.7,2.48-2.32,4.53-4.57,5.78l-7.65,4.27c-1.45.82-3.06,1.23-4.68,1.23ZM888.14,631.97c-.78,0-1.56.19-2.29.59l-7.63,4.27c-1.1.62-1.9,1.63-2.24,2.85-.34,1.2-.19,2.45.42,3.53l1.41,2.53c.61,1.1,1.61,1.89,2.82,2.23,1.2.34,2.47.19,3.56-.42h0s7.66-4.28,7.66-4.28c2.26-1.25,3.07-4.12,1.81-6.39l-1.41-2.52c-.86-1.53-2.46-2.4-4.12-2.4ZM908.69,630.94c-1.67,0-3.37-.45-4.88-1.4l-3.11-1.96c-4.3-2.71-5.61-8.42-2.92-12.73l5.1-8.1c1.3-2.08,3.34-3.53,5.74-4.08,2.41-.56,4.89-.13,6.98,1.19l3.11,1.96c2.09,1.3,3.54,3.35,4.09,5.76.55,2.41.13,4.88-1.18,6.97l-5.08,8.1c-1.76,2.79-4.77,4.32-7.85,4.32ZM910.69,607.36c-.32,0-.65.04-.97.11-1.12.26-2.06.93-2.66,1.89l-5.1,8.1c-1.25,2-.64,4.67,1.37,5.94l3.11,1.96c2,1.25,4.67.64,5.94-1.37l5.08-8.09c.61-.97.81-2.12.55-3.24-.26-1.12-.93-2.07-1.9-2.68l-3.11-1.96c-.7-.44-1.48-.66-2.28-.66ZM914.45,625.31h.02-.02ZM923.17,599.94c-.64,0-1.28-.06-1.93-.2l-3.11-.66c-2.47-.52-4.6-1.97-5.99-4.1-1.39-2.13-1.87-4.66-1.34-7.15l1.85-8.84c1.09-5.12,6.11-8.43,11.24-7.36l3.11.66c5.1,1.06,8.4,6.1,7.34,11.23l-1.85,8.86c-.94,4.47-4.91,7.55-9.3,7.55ZM921.94,576.38c-2.11,0-4.02,1.48-4.47,3.64l-1.84,8.84c-.25,1.2-.02,2.41.64,3.43.67,1.02,1.68,1.72,2.87,1.97l3.11.66c2.45.51,4.87-1.08,5.39-3.54l1.85-8.84c.51-2.46-1.07-4.89-3.52-5.4l-3.11-.66c-.31-.06-.62-.09-.92-.09ZM930.06,591.88h.02-.02ZM929.55,566.19c-.17,0-.33,0-.5-.01l-3.06-.15c-5.25-.25-9.32-4.72-9.07-9.98l.42-8.94c.12-2.54,1.23-4.89,3.12-6.6,1.89-1.71,4.28-2.59,6.87-2.47l3.07.15c5.25.25,9.32,4.72,9.07,9.98l-.42,8.94c-.12,2.55-1.23,4.9-3.12,6.62-1.77,1.6-4.01,2.46-6.37,2.46ZM926.87,542.96c-1.15,0-2.24.42-3.1,1.2-.91.83-1.45,1.96-1.5,3.18l-.42,8.94c-.12,2.54,1.85,4.7,4.38,4.82l3.07.15c1.23.08,2.4-.36,3.31-1.18.91-.83,1.45-1.96,1.51-3.19h0s.42-8.94.42-8.94c.06-1.23-.37-2.4-1.2-3.32-.83-.91-1.96-1.45-3.18-1.5l-3.07-.15c-.07,0-.15,0-.22,0ZM618.2,641.56l-2.5-2.34c-3.71-3.47-3.89-9.28-.42-12.98l6.36-6.78c3.47-3.71,9.28-3.89,12.98-.42l2.5,2.34c3.69,3.47,3.87,9.28.42,12.98l-6.38,6.78c-3.45,3.71-9.27,3.89-12.96.42ZM627.83,638.03l6.36-6.8c1.74-1.86,1.64-4.77-.2-6.51l-2.5-2.36c-1.86-1.74-4.77-1.64-6.51.2l-6.38,6.8c-1.74,1.86-1.64,4.77.2,6.51l2.52,2.36c1.85,1.74,4.77,1.64,6.51-.2ZM585.06,657.73l-1.35-3.44c-1.85-4.64.44-9.91,5.08-11.73l8.9-3.53c4.64-1.85,9.91.44,11.73,5.08l1.37,3.44c1.83,4.64-.44,9.91-5.08,11.73l-8.92,3.53c-4.64,1.83-9.89-.44-11.73-5.08ZM595.12,658.57l8.92-3.53c2.28-.91,3.42-3.51,2.5-5.81l-1.35-3.44c-.91-2.3-3.51-3.42-5.81-2.52l-8.9,3.53c-2.3.91-3.42,3.51-2.52,5.81l1.37,3.44c.91,2.3,3.51,3.42,5.79,2.52ZM644.06,608.64l-.57-.4c-1.06-.79-2.58-.53-3.34.55l-10.95,15.1c-.77,1.08-.53,2.58.55,3.34l.57.4c1.08.79,2.58.53,3.36-.55l10.93-15.1c.79-1.08.53-2.58-.55-3.34ZM631.71,628.54c-.6,0-1.18-.19-1.67-.55l-.56-.4c-.62-.44-1.03-1.1-1.15-1.86-.12-.75.05-1.51.5-2.13l10.95-15.1c.44-.63,1.11-1.04,1.88-1.16.76-.11,1.5.06,2.11.51l.56.4c.63.45,1.04,1.11,1.16,1.86.12.75-.06,1.51-.51,2.12l-10.93,15.09c-.46.63-1.13,1.04-1.89,1.16-.15.02-.3.04-.44.04ZM642.11,608.24c-.1,0-.2,0-.31.02-.52.08-.97.36-1.28.79l-10.95,15.1c-.3.42-.42.94-.34,1.45.08.51.36.96.78,1.26l.57.4c.42.31.93.43,1.44.35.52-.08.98-.36,1.29-.79l10.93-15.1c.31-.42.43-.93.35-1.44-.08-.51-.36-.96-.79-1.26l-.57-.4c-.33-.25-.72-.37-1.12-.37ZM622.97,635.74l-.38-.58c-.69-1.13-2.17-1.48-3.31-.77l-15.83,9.83c-1.13.71-1.48,2.19-.77,3.33l.37.58c.69,1.11,2.19,1.46,3.31.75l15.85-9.83c1.11-.69,1.46-2.19.77-3.31ZM605.09,649.71c-.21,0-.43-.02-.64-.07-.75-.17-1.39-.62-1.79-1.27l-.37-.58c-.41-.65-.54-1.42-.37-2.17.17-.74.63-1.38,1.28-1.79l15.83-9.83c.65-.41,1.42-.54,2.17-.37.74.17,1.37.63,1.77,1.28l.38.57c.41.65.53,1.42.36,2.16-.17.75-.62,1.38-1.27,1.78h0s-15.85,9.83-15.85,9.83c-.45.29-.98.44-1.51.44ZM620.55,634.48c-.36,0-.72.1-1.03.3l-15.83,9.83c-.44.28-.75.71-.87,1.22-.12.51-.03,1.03.25,1.48l.37.58c.27.44.7.74,1.21.86.51.12,1.03.02,1.46-.25l15.85-9.83c.44-.27.74-.7.86-1.21.12-.51.03-1.03-.24-1.47l-.38-.58c-.28-.45-.71-.76-1.21-.88-.15-.03-.29-.05-.44-.05ZM622.2,639.05h.01-.01Z"/><path class="cls-5" d="M539.74,891.16v-10.77h27.38v10.77h-27.38ZM539.81,880.43v10.56h9.19v-10.56h-9.19ZM567.12,890.74v-10.34h-9.21v10.34h9.21ZM546.99,966.1v7.38h12.17v-7.38h-12.17ZM539.37,955.55v10.77h27.32v-10.77h-27.32ZM539.46,955.62v10.64h9.19v-10.64h-9.19ZM557.45,955.62v10.64h9.21v-10.64h-9.21ZM859.03,891.25v-10.75h-27.4v10.75h27.4ZM831.73,880.54v10.55h9.19v-10.55h-9.19ZM859.03,890.83v-10.34h-9.21v10.34h9.21ZM838.91,966.21v7.38h12.17v-7.38h-12.17ZM831.29,955.64v10.78h27.32v-10.78h-27.32ZM831.38,955.73v10.64h9.19v-10.64h-9.19ZM849.36,955.72v10.66h9.19v-10.66h-9.19ZM923.06,446.29v25.31c0,1.48,1.19,2.67,2.67,2.67l15.72-2.92c1.48,0,2.67-1.19,2.67-2.67v-19.32c0-1.46-1.19-2.67-2.67-2.67l-15.72-3.07c-1.48,0-2.67,1.19-2.67,2.67ZM925.76,474.3l15.72-2.92c1.48,0,2.67-1.21,2.67-2.67v-9.91h-21.05v12.83c0,1.46,1.19,2.67,2.67,2.67ZM909.84,407.03v107.72l15.52-5.17v-97.36l-15.52-5.19ZM471.77,444.82l-15.72,3.09c-1.48,0-2.67,1.21-2.67,2.67v19.32c0,1.46,1.19,2.67,2.67,2.67l15.72,2.92c1.48,0,2.67-1.21,2.67-2.67v-25.33c0-1.46-1.19-2.67-2.67-2.67ZM474.4,472.86v-12.85h-21.05v9.91c0,1.48,1.19,2.67,2.67,2.67l15.72,2.94c1.48,0,2.67-1.21,2.67-2.67ZM472.13,413.44v97.36l16.32,5.17v-107.72l-16.32,5.19ZM868.46,400.5v117.26h17.69v-117.26h-17.69ZM511.33,401.73v117.26h17.69v-117.26h-17.69ZM576.29,540.8h6.52v-159.94h-6.52c-1.17,6.95-5.19,10.71-11.7,11.72h-38.36v136.4h38.67c6.16,1.57,9.81,5.67,11.39,11.83ZM682.66,73v24.64h30.63v-24.64h-30.63ZM654.57,122.38h87.36c0-14.13-11.48-25.59-25.61-25.59h-36.13c-14.13,0-25.61,11.46-25.62,25.59ZM649.11,123.12v12.98c0,3.64,2.96,6.6,6.62,6.6h83.95c3.64,0,6.6-2.96,6.6-6.6v-12.98c0-3.66-2.96-6.62-6.6-6.62h-83.95c-3.66,0-6.62,2.96-6.62,6.62ZM682.75,73.15v23.63h15.37v-23.63h-15.37ZM576.36,246.9v20.67h243.63v-20.65c-.55-52.31-30.38-92.72-70.86-111.36h-103.15c-43.66,20.96-70.29,66.34-69.62,111.34ZM718.25,135.69v130.35h80.93c-3.98-55.8-22.97-100.69-62.89-130.35h-18.04ZM774.61,241c0,3.82,2.61,4.86,5.17,4.99l13.29-.11c3.34.22,5.04-2.16,4.97-4.55-2.25-34.12-15.43-62.38-37.47-84.8-1.96-1.97-4.46-2.27-6.62-2.28l-5.39.13c-2.6,0-3.8,1.83-2.25,3.89,17.05,26.78,25.72,52.95,28.29,82.74ZM777.88,237.33c0,3.69,2.61,4.7,5.19,4.83l13.27-.09c3.36.2,5.06-2.1,4.97-4.42-2.25-33.06-15.41-60.44-37.47-82.17-1.94-1.92-4.46-2.19-6.62-2.21l-5.39.13c-2.58,0-3.78,1.75-2.25,3.77,17.07,25.95,25.73,51.3,28.29,80.18ZM722.3,135.69c21.48,40.14,25.59,83.63,26.5,129.82h22.52c1.9-53.68-14.31-95.61-41.62-129.82h-7.4ZM710.26,242.26c0,2.91,1.15,4.57,4.04,4.5h28.95c3.31.09,4.77-1.41,4.39-4.5-1.02-31.25-4.77-57.37-18.4-83.53-1.72-3.07-4.5-4.62-8.55-4.33l-11.61.13c-4.09,0-5.52,1.94-4.75,5.45,4.81,28.55,6.32,60.31,5.94,82.28ZM713.99,238.13c.02,2.78,1.11,4.39,3.91,4.31h27.89c3.2.09,4.61-1.35,4.22-4.31-.97-30.03-4.59-55.12-17.73-80.25-1.66-2.94-4.33-4.44-8.24-4.15l-11.19.11c-3.95.02-5.32,1.86-4.57,5.25,4.61,27.42,6.09,57.94,5.7,79.05ZM661.52,135.6c-39.9,29.86-58.91,75.04-62.89,131.21h80.95v-131.21h-18.06ZM645.6,161.61c1.59-2.01.35-3.77-2.3-3.77l-5.56-.13c-2.23.02-4.83.31-6.82,2.21-22.72,21.73-36.28,49.11-38.6,82.17-.09,2.32,1.66,4.62,5.12,4.42l13.69.09c2.63-.11,5.34-1.13,5.34-4.83,2.63-28.88,11.57-54.23,29.13-80.18ZM649.43,157.82c1.55-2.01.35-3.77-2.25-3.77l-5.39-.13c-2.16.02-4.66.29-6.62,2.21-22.04,21.71-35.22,49.11-37.47,82.17-.07,2.32,1.63,4.62,4.97,4.4l13.29.11c2.56-.13,5.17-1.13,5.17-4.83,2.58-28.88,11.24-54.23,28.29-80.18ZM687.43,160.44c.77-3.49-.64-5.41-4.66-5.41l-11.4-.11c-3.98-.31-6.69,1.24-8.39,4.28-13.38,25.93-17.07,51.81-18.06,82.81-.38,3.07,1.04,4.55,4.3,4.44h28.42c2.83.09,3.97-1.57,3.97-4.44-.37-21.77,1.13-53.28,5.83-81.57ZM692.06,159.01c.75-3.38-.64-5.23-4.57-5.23l-11.2-.11c-3.91-.29-6.58,1.21-8.22,4.15-13.14,25.13-16.78,50.21-17.75,80.24-.37,2.98,1.02,4.42,4.22,4.31h27.91c2.78.07,3.89-1.54,3.89-4.31-.37-21.09,1.1-51.63,5.72-79.05ZM532.39,290.18v13.4h327.47v-13.4h-327.47ZM771.93,338.43v10.77h27.32v-10.77h-27.32ZM821.8,539.3c1.11-6.16,5.28-11.11,12.32-11.55h37.14v-136.38h-38.36c-6.49-.55-10.13-5.08-11.22-12.01h-6.05v159.94h6.18ZM871.21,444.86v-53.64h-38.09c-6.71-.27-9.91-4.79-11-11.72h-6.14v65.36h55.23ZM581.97,446.25v-65.36h-6.12c-1.1,6.93-4.3,11.44-11.02,11.72h-38.07v53.64h55.21ZM576.31,307.8v666.74h245.44V307.8h-245.44ZM603.65,324.18v649.54h42.77V324.18h-42.77ZM577.42,325.59v35.66h243.47v-35.66h-243.47ZM717.94,324.03v650.47h80.95V324.03h-80.95ZM755.4,356.84v617.79h16.52V356.84h-16.52ZM576.42,676.26v8.01h245.4v-8.01h-245.4ZM571.1,659.8v16.71h255.56v-16.71h-255.56ZM571.19,597.71v16.72h255.13v-16.72h-255.13ZM708.82,711.17v140.88c0,4.95,4.02,8.96,8.96,8.96h19.15c4.93,0,8.96-4,8.96-8.96v-140.88c0-4.95-4.02-8.96-8.96-8.96h-19.15c-4.93,0-8.96,4-8.96,8.96ZM714.61,709.13v137.17c0,4.93,4,8.94,8.94,8.94h19.15c4.95,0,8.96-4,8.96-8.94v-137.17c0-4.93-4-8.94-8.96-8.94h-19.15c-4.93,0-8.94,4-8.94,8.94ZM767.5,708.69v144.62c0,4.17,3.38,7.55,7.55,7.55h11.97c4.17,0,7.55-3.38,7.55-7.55v-144.62c0-4.17-3.38-7.55-7.55-7.55h-11.97c-4.17,0-7.55,3.38-7.55,7.55ZM773.74,707.15v139.95c0,4.17,3.38,7.57,7.55,7.57h11.97c4.17,0,7.55-3.4,7.55-7.57v-139.95c0-4.17-3.38-7.55-7.55-7.55h-11.97c-4.17,0-7.55,3.38-7.55,7.55ZM643.59,710.39v141.68c0,4.72,3.82,8.55,8.55,8.55h19.94c4.72,0,8.55-3.84,8.55-8.55v-141.68c0-4.72-3.84-8.55-8.55-8.55h-19.94c-4.73,0-8.55,3.84-8.55,8.55ZM649.45,708.49v137.94c0,4.73,3.84,8.55,8.57,8.55h19.94c4.72,0,8.55-3.82,8.55-8.55v-137.94c0-4.73-3.84-8.55-8.55-8.55h-19.94c-4.73,0-8.57,3.82-8.57,8.55ZM594.37,709.47v143.07c0,4.73,3.84,8.57,8.57,8.57h11.9c4.72,0,8.55-3.84,8.55-8.57v-143.07c0-4.72-3.84-8.55-8.55-8.55h-11.9c-4.73,0-8.57,3.84-8.57,8.55ZM600.8,708.49v137.94c0,4.73,3.82,8.55,8.55,8.55h9.96c4.72,0,8.55-3.82,8.55-8.55v-137.94c0-4.73-3.84-8.55-8.55-8.55h-9.96c-4.73,0-8.55,3.82-8.55,8.55ZM646.99,546.04c36.08,27.18,87.4,19.94,114.56-16.14,27.18-36.08,19.94-87.4-16.14-114.56-36.06-27.18-87.4-19.94-114.56,16.14-27.18,36.06-19.94,87.4,16.14,114.56ZM646.69,522.85v22.92c21.22,16.18,45.16,20.03,71.37,13.96v-21.2l-71.37-15.68ZM883.51,391.18v136.38h26.94v-136.38h-26.94ZM576.4,614.51v7.44h245.4v-7.44h-245.4ZM777.34,609.94v12.21h36.17v-12.21h-36.17ZM571.34,597.84v4.59h255.13v-4.59h-255.13ZM910.35,508.92v-13.34h-26.87v13.34h26.87ZM883.25,391.38v53.3h26.96v-53.3h-26.96ZM910.5,420.04v-13.78h-27.51v13.78h27.51ZM905.49,391.31v136.25h4.86v-136.25h-4.86ZM925.32,497.33v-17.24h-15.08v17.24h15.08ZM800.38,710.46v-2.38c0-4.72-3.82-8.55-8.55-8.55h-9.96c-4.72,0-8.24,3.69-8.24,8.41v1.79-.05c1.57-1.92,3.64-2.98,6.29-2.98h13.38c2.96,0,5.56,1.5,7.09,3.77ZM790.35,854.74h3.16c4.19,0,7.57-3.33,7.57-7.44v-140.27c0-4.09-3.38-7.44-7.57-7.44h-3.69c2.25,1.3,3.77,3.69,3.77,6.43v142.63c0,2.52-1.28,4.75-3.24,6.09ZM751.75,711.9v.05-2.94c0-4.95-4-8.96-8.94-8.96h-19.15c-4.95,0-8.96,4-8.96,8.96v1.7-.04c1.59-1.46,3.71-2.36,6.05-2.36h23.85c2.92,0,5.52,1.41,7.15,3.58ZM740.42,855.25h.35c5.63.84,11.73-3.8,11.73-8.64v-137.5c0-4.73-5.01-9.5-11.17-8.9,3.29,1.55,5.39,4.42,5.39,7.57v139.84c0,3.38-2.58,6.18-6.31,7.64ZM840.14,266.24v-10.75h-27.38v10.75h27.38ZM812.83,255.53v10.55h9.19v-10.55h-9.19ZM840.14,265.84v-10.36h-9.21v10.36h9.21ZM583.71,266.61v-10.77h-27.38v10.77h27.38ZM556.41,255.9v10.55h9.19v-10.55h-9.19ZM583.71,266.19v-10.34h-9.21v10.34h9.21ZM668.02,266.61v-10.77h-27.38v10.77h27.38ZM640.72,255.9v10.55h9.19v-10.55h-9.19ZM668.02,266.19v-10.34h-9.21v10.34h9.21ZM757.18,266.61v-10.77h-27.4v10.77h27.4ZM729.85,255.9v10.55h9.21v-10.55h-9.21ZM757.18,266.19v-10.34h-9.21v10.34h9.21ZM544.45,269.06v8.33c0,1.68,1.35,3.05,3.03,3.05h301.73c1.68,0,3.05-1.37,3.05-3.05v-8.33c0-1.68-1.37-3.05-3.05-3.05h-301.73c-1.68,0-3.03,1.37-3.03,3.05ZM523.34,284.04v1.7c0,3.03,1.88,5.48,4.2,5.48h337.72c2.32,0,4.2-2.45,4.2-5.48l-.02-1.61c-.68-6.96-7.71-8.88-10.69-8.81h-326.86c-3.78.09-8.44,4.3-8.55,8.72ZM820.01,339v7.37h12.17v-7.37h-12.17ZM812.39,328.44v10.77h27.34v-10.77h-27.34ZM812.48,328.51v10.64h9.19v-10.64h-9.19ZM830.48,328.51v10.64h9.19v-10.64h-9.19ZM564.54,338.31v7.38h12.17v-7.38h-12.17ZM556.92,327.74v10.78h27.32v-10.78h-27.32ZM557.01,327.82v10.66h9.19v-10.66h-9.19ZM574.99,327.82v10.64h9.19v-10.64h-9.19ZM603.82,328.64v32.77h42.77v-32.77h-42.77ZM647.9,339.35v7.38h12.17v-7.38h-12.17ZM640.28,328.78v10.78h27.34v-10.78h-27.34ZM640.37,328.86v10.66h9.19v-10.66h-9.19ZM658.37,328.86v10.64h9.19v-10.64h-9.19ZM717.7,325.51v35.64h81.53v-35.64h-81.53ZM544.23,317.6v8.33c0,1.66,1.37,3.03,3.05,3.03h301.18c1.68,0,3.05-1.37,3.05-3.03v-8.33c0-1.68-1.37-3.03-3.05-3.03h-301.18c-1.68,0-3.05,1.35-3.05,3.03ZM534.78,317.64h324.78c2.98.07,10.02-1.79,10.69-8.52l.02-1.57c0-2.92-1.88-5.3-4.2-5.3h-335.62c-2.32,0-4.2,2.38-4.2,5.3v1.66c.09,4.26,4.75,8.32,8.54,8.43ZM487.04,392.41v136.38h26.94v-136.38h-26.94ZM578.39,602.44v12.1h143.97v-12.1h-143.97ZM509.53,514.51v-13.34h-22.35v13.34h22.35ZM487.21,500.37v-17.24h-15.1v17.24h15.1ZM737.05,339.35v7.38h12.17v-7.38h-12.17ZM729.43,328.78v10.78h27.32v-10.78h-27.32ZM729.52,328.86v10.66h9.19v-10.66h-9.19ZM747.51,328.86v10.64h9.19v-10.64h-9.19ZM513.69,916.04v14.6h370.45v-14.6h-370.45ZM766.77,890.96v-10.77h-27.38v10.77h27.38ZM739.47,880.25v10.55h9.21v-10.55h-9.21ZM766.79,890.54v-10.34h-9.21v10.34h9.21ZM746.67,965.91v7.37h12.15v-7.37h-12.15ZM739.05,955.35v10.78h27.32v-10.78h-27.32ZM739.14,955.42v10.64h9.19v-10.64h-9.19ZM757.12,955.42v10.64h9.19v-10.64h-9.19ZM663.56,891.58v-10.75h-27.38v10.75h27.38ZM636.26,880.87v10.55h9.19v-10.55h-9.19ZM663.56,891.16v-10.34h-9.21v10.34h9.21ZM643.46,966.54v7.38h12.15v-7.38h-12.15ZM635.82,955.97v10.78h27.34v-10.78h-27.34ZM635.91,956.06v10.64h9.21v-10.64h-9.21ZM653.91,956.04v10.66h9.19v-10.66h-9.19ZM525.92,893.76v9.28c0,1.88,1.52,3.4,3.4,3.4h339.64c1.86,0,3.4-1.52,3.4-3.4v-9.28c0-1.86-1.54-3.4-3.4-3.4h-339.64c-1.88,0-3.4,1.54-3.4,3.4ZM526.78,944v9.28c0,1.86,1.54,3.38,3.4,3.38h341.61c1.88,0,3.4-1.52,3.4-3.38v-9.28c0-1.88-1.52-3.4-3.4-3.4h-341.61c-1.86,0-3.4,1.52-3.4,3.4ZM628.09,710.86v-2.38c0-4.72-3.84-8.55-8.57-8.55h-9.96c-4.72,0-8.55,3.84-8.55,8.55v1.79-.05c1.57-1.92,3.95-3.14,6.62-3.14h13.38c2.94,0,5.54,1.5,7.09,3.78ZM607.76,848.92v-142.5c0-2.74,1.52-5.14,3.77-6.43h-3.69c-4.17,0-7.57,3.33-7.57,7.44v140.17c0,4.09,3.4,7.42,7.57,7.42h3.16c-1.96-1.33-3.24-3.56-3.24-6.09ZM686.57,711.72v.05-2.94c0-4.93-4-8.96-8.96-8.96h-19.15c-4.93,0-8.94,4.02-8.94,8.96v1.7l-.02-.04c1.61-1.46,3.73-2.36,6.07-2.36h23.83c2.92,0,5.54,1.41,7.16,3.58ZM654.63,847.41v-139.65c0-3.14,2.1-6.01,5.39-7.57-6.14-.6-11.17,4.17-11.17,8.9v137.31c0,4.84,6.12,9.49,11.73,8.64h.35c-3.71-1.46-6.31-4.26-6.31-7.64ZM868.83,281.5c-1.88-4.92-7.51-6.36-10.11-6.29h-326.86c-2.89.07-6.31,2.56-7.79,5.7.64-.2,1.28-.33,1.9-.35h338.18c1.15-.02,2.91.24,4.68.93ZM526.29,308.04c.2-.04.42-.05.64-.05h343.39c-.04-3.25-1.9-5.87-4.19-5.87h-335.64c-2.3,0-4.19,2.65-4.2,5.92ZM571.12,659.89v5.1h255.13v-5.1h-255.13ZM871.46,419.93v-13.78h-49.66v13.78h49.66ZM871.17,509.54v-13.36h-49.38v13.36h49.38ZM876.49,517.6h6.91v-117.1h-6.91v117.1ZM925.38,438.04v-13.78h-15.01v13.78h15.01ZM866.36,391.25v136.44h4.88v-136.44h-4.88ZM755.44,328.66v32.24h16.5v-32.24h-16.5ZM703.74,108.27c2.49,2.67,9.34,3.93,15.3,2.8,5.94-1.11,8.74-4.19,6.25-6.85-2.5-2.67-9.36-3.93-15.3-2.8-5.96,1.11-8.75,4.19-6.25,6.85ZM487.19,392.37v53.3h26.96v-53.3h-26.96ZM514.33,420.37v-13.8h-27.14v13.8h27.14ZM576.27,420.26v-13.8h-50.43v13.8h50.43ZM519.67,518.88h6.91v-117.14h-6.91v117.14ZM509.36,392.41v136.42h4.88v-136.42h-4.88ZM575.74,513.62v-13.34h-49.4v13.34h49.4ZM487.1,438.81v-13.8h-14.84v13.8h14.84ZM545.53,280.77v10.36h143.82v-10.36h-143.82ZM546.39,308v9.83h143.82v-9.83h-143.82ZM578.26,665.06v11.5h143.95v-11.5h-143.95ZM783.84,280.66v10.34h36.17v-10.34h-36.17ZM784.04,307.88v9.83h36.17v-9.83h-36.17ZM758.86,664.91v11.59h36.17v-11.59h-36.17ZM526.27,392.55v136.35h4.88v-136.35h-4.88ZM883.3,391.13v136.4h4.88v-136.4h-4.88ZM505.74,910.57v1.72c0,3.02,2.54,5.46,5.67,5.46h374.97c3.14,0,5.68-2.45,5.68-5.46l-.04-1.63c-.91-6.95-10.42-8.86-14.44-8.79h-360.31c-5.1.11-11.4,4.3-11.53,8.7ZM518.65,945.35h360.31c4.02.07,13.52-1.85,14.44-8.79l.04-1.63c0-3.02-2.54-5.46-5.68-5.46h-374.97c-3.13,0-5.68,2.45-5.68,5.46v1.72c.15,4.4,6.45,8.59,11.55,8.7ZM698.8,116.33v19.28h38.73v-19.28h-38.73ZM649.05,122.86c.68-.26,1.43-.38,2.21-.38h94.09c.27,0,.55.02.82.05-.27-3.4-3.13-6.09-6.58-6.09h-83.95c-3.58,0-6.51,2.85-6.6,6.42ZM680.74,96.91c-9.49,4.84-14.11,11.77-16.65,19.54l24.82-.09c.26-7.22,2.89-13.63,7.09-19.54l-15.26.09ZM891.22,908.21c-2.14-4.73-9.45-6.23-11.86-6.29h-362.05c-3.62-.09-9.05,2.56-10.53,5.7.64-.2,1.28-.33,1.9-.35h377.84c1.17-.02,2.92.24,4.7.93ZM507.08,935.3c.2-.04.33-.04.53-.04h385.79c-.09-3.73-3.05-5.87-5.34-5.87h-375.59c-2.32,0-5.5,2.27-5.39,5.9ZM534.35,907.32v10.34h143.82v-10.34h-143.82ZM534.86,935.48v9.83h143.82v-9.83h-143.82ZM780.3,907.3v10.34h36.17v-10.34h-36.17ZM780.31,935.3v9.83h36.17v-9.83h-36.17ZM635.76,141.83c.88-.26,1.83-.38,2.83-.38h119.97c.35,0,.69.02,1.04.05-.33-3.4-3.97-6.09-8.39-6.09h-107.03c-4.57,0-8.3,2.85-8.43,6.42ZM746.67,180.39c2.27,3.02,6.56,3.64,9.58,1.37,3.03-2.28,3.64-6.58,1.37-9.6s-6.56-3.64-9.6-1.37c-3.02,2.27-3.62,6.56-1.35,9.6ZM654.48,242.41h2.63c-.6-.73-.8-1.79-.64-3.22.99-30.61,4.61-56.18,17.75-81.81.95-1.74,2.25-2.98,3.93-3.66h.05l-1.97-.02c-3.91-.29-6.58,1.21-8.24,4.15-13.14,25.13-16.76,50.21-17.73,80.25-.37,2.96,1.02,4.4,4.22,4.3ZM743.72,242.46h2.17c3.18.09,4.59-1.35,4.22-4.31-.99-30.03-4.61-55.1-17.75-80.25-1.64-2.92-4.31-4.42-8.22-4.15l-2.65.04h.07c2.1.57,3.67,1.92,4.79,3.95,13.14,25.64,16.76,51.25,17.75,81.9.15,1.19.02,2.12-.38,2.83ZM793.18,241.97h-.02l3.42-.02c3.34.2,5.04-2.1,4.95-4.42-2.23-33.06-15.41-60.44-37.45-82.15-1.96-1.92-4.46-2.19-6.62-2.23l-5.41.13c-.4,0-.79.05-1.13.15,2.16.02,4.66.29,6.62,2.21,22.06,21.86,35.22,49.4,37.47,82.67.05,1.43-.57,2.83-1.83,3.67ZM604.35,242.92c-1.11-.86-1.64-2.21-1.57-3.58,2.5-33.57,15.9-61.39,38.13-83.45.88-.86,1.85-1.39,2.85-1.74l.09.02-2.39-.07c-2.16.02-4.66.31-6.62,2.21-22.04,21.73-35.22,49.11-37.47,82.17-.07,2.32,1.63,4.62,4.97,4.42l2.05.02h-.04ZM766.61,158.1c-.9-.91-1.81-1.85-2.72-2.74-1.96-1.92-4.46-2.19-6.62-2.23l-5.39.13c-2.6,0-3.8,1.75-2.25,3.77.18.29.38.58.57.88.29-.02.58-.02.9-.02l9.69-.13c1.86,0,3.86.07,5.83.35ZM732.3,157.86c-1.66-2.92-4.33-4.42-8.24-4.15l-11.19.11c-3.95.02-5.32,1.86-4.59,5.25.04.16.05.33.09.49.95-.53,2.3-.8,4.11-.8l13.54-.11c3.14-.18,5.63.42,7.53,1.72-.42-.84-.84-1.66-1.26-2.5ZM666.93,160.02c1.85-.6,4-.84,6.56-.71l15.79.11c.99,0,1.86.05,2.63.18.02-.15.04-.29.07-.42.75-3.38-.64-5.25-4.57-5.25l-11.2-.11c-3.91-.29-6.58,1.21-8.22,4.15-.37.68-.71,1.37-1.06,2.05ZM648.37,158.97c.29-.44.57-.88.86-1.33,1.55-1.99.35-3.75-2.25-3.75l-5.39-.13c-2.16.02-4.66.29-6.62,2.21-.95.93-1.9,1.9-2.83,2.87l16.25.13h-.02ZM931.12,507.44l-.22-32.81c-.02-2.34-1.11-4.26-2.43-4.3l-.69-.04c-1.33-.04-2.39,1.83-2.39,4.17l.24,32.81c.02,2.34,1.1,4.26,2.43,4.3l.69.04c1.32.04,2.39-1.83,2.38-4.17ZM755.62,536.83c6.32-7.24,12.08-15.19,16.3-25.06v-18.83c-4.02,11.31-11.24,7-15.54,18.06-1.32,3.4.64,22.52-.77,25.83ZM648.01,524.68c36.08,27.18,87.4,19.94,114.58-16.14,27.16-36.08,19.92-87.4-16.16-114.56-36.06-27.18-87.4-19.94-114.56,16.14-27.18,36.06-19.94,87.4,16.14,114.56ZM664.11,503.93c24.47,18.42,59.29,13.52,77.71-10.95,18.42-24.47,13.52-59.29-10.95-77.71-24.47-18.42-59.29-13.52-77.71,10.95-18.42,24.47-13.52,59.29,10.95,77.71ZM681.05,491.28c12.14,9.14,29.39,6.71,38.53-5.43,9.14-12.14,6.71-29.41-5.43-38.55-12.14-9.12-29.39-6.69-38.53,5.43-9.14,12.14-6.71,29.41,5.43,38.55ZM680.54,481.21c12.14,9.14,29.41,6.71,38.55-5.43,9.12-12.14,6.69-29.39-5.43-38.53-12.14-9.14-29.41-6.71-38.55,5.43-9.14,12.14-6.71,29.39,5.43,38.53ZM682.06,459.46l5.9,18.75,19.67.18,6.25-18.62-15.81-11.72-16.01,11.4ZM681.75,453.58l5.9,18.75,19.65.18,6.25-18.64-15.79-11.7-16.01,11.4ZM615.64,467.08c.07-17.05,5.43-34.21,16.47-48.87,27.16-36.06,78.48-43.3,114.56-16.14,19.03,14.33,30.03,35.37,32.2,57.33.07-24.91-11.17-49.59-32.61-65.71-36.06-27.18-87.4-19.94-114.56,16.14-12.85,17.05-18,37.52-16.07,57.24ZM752.81,463.47c1.33-18.2-6.32-36.68-21.97-48.47-24.47-18.42-59.29-13.51-77.71,10.95-8.39,11.17-11.95,24.47-11,37.39.75-10.25,4.35-20.43,11-29.26,18.42-24.47,53.24-29.37,77.71-10.95,13.32,10.03,20.84,24.91,21.97,40.34ZM713.68,453.65l-15.81-11.7-16.01,11.4,1.08,3.45,14.93-10.64,14.68,10.86,1.13-3.38ZM471.98,510.25l-.24-32.81c0-2.34-1.1-4.28-2.43-4.31l-.68-.02c-1.33-.05-2.41,1.81-2.39,4.17l.24,32.81c0,2.34,1.1,4.26,2.41,4.3l.69.04c1.33.04,2.41-1.83,2.39-4.17Z"/></g><ellipse class="cls-8" cx="698.5" cy="974" rx="123.5" ry="18"/><ellipse class="cls-2" cx="698.5" cy="974" rx="123.5" ry="18"/></g><g id="Fire_extinguisher"><path class="cls-3" d="M674.24,167.93l-62.27-5.93s-215.84,73.58-225.65,77.67l-.11.19-.05.07-.33.61-.06.11c-.14.28-.3.61-.47.99v.03c-.17.39-.34.83-.49,1.3l-.02.06c-.15.46-.28.96-.38,1.48l-.04.19c-.1.52-.17,1.07-.2,1.64v.14c-.04,1.15.11,2.36.55,3.56l.04.15v-.02c.35.88.84,1.76,1.56,2.59,0,0,18.8,30.25,27.8,27.8,1.65-.45,6.02-1.59,12.05-3.2-2.03,3.15-3.64,6.59-4.73,10.26-45.11,12.71-116.26,48.59-136.53,149.33-7.14-.99-12.09-.98-12.79.2l-.06-.02-103.16,303.34c6.49,5.57,14.99,10.04,23.55,13.56h0s.42.18.42.18c1.17.48,2.34.93,3.51,1.38l.7.26c2.73,1.02,5.43,1.94,8.04,2.76h0s.26.09.26.09l.13.04.77.24c1.08.34,2.14.66,3.18.96l.39.12.76.21.36.1c.76.22,1.52.43,2.25.63l.86.23.7.19c.69.18,1.34.35,1.99.51.31.08.62.16.93.24l.83.21.14.03c.49.12.96.23,1.42.34l.69.16c.42.1.81.19,1.21.28l.15.04h0c.44.1.91.2,1.32.3.82.2,1.72.42,2.68.65.36.09.76.18,1.13.26.67.16,1.35.31,2.07.47.4.09.83.18,1.24.27.8.18,1.63.34,2.49.52.37.07.74.15,1.11.22.36.07.69.14,1.05.21h0c6.45,1.22,14.06,2.36,21.88,2.83h0s.24.02.24.02c1.98.11,3.98.18,5.97.2h.87c1.85,0,3.7-.04,5.52-.14l.61-.03c1.9-.12,3.77-.31,5.61-.56.4-.06.79-.12,1.18-.18,1.85-.28,3.68-.62,5.43-1.06l42.88-317.52-.06-.02c-.1-1.4-4.74-3.68-11.82-6.03,3.32-14.43,26.09-97.82,112.54-122.88.36.57.74,1.12,1.13,1.67l-.02.02c.28.39.59.76.89,1.15.35.44.68.9,1.04,1.34.71.85,1.45,1.67,2.23,2.45l.33.33v31.55h-14.68v36.66c-44.77,4.38-79.75,42.11-79.75,88.03v537c0,19.05,15.45,34.5,34.5,34.5h176.46c1.09,0,2.16-.06,3.21-.17.39-.03.78-.09,1.17-.15.65-.08,1.29-.18,1.92-.29.48-.09.95-.19,1.42-.3.52-.12,1.04-.26,1.55-.4.5-.14,1.01-.28,1.51-.44l.28-.08v-.02c13.62-4.61,23.44-17.47,23.44-32.65V483.95c0-36.69-22.34-68.16-54.15-81.56h0s-.53-.21-.53-.21c-1.14-.47-2.29-.93-3.46-1.36l-.54-.18c-1.17-.42-2.36-.83-3.56-1.2l-.51-.14c-1.21-.37-2.43-.72-3.67-1.04l-.73-.17c-1.17-.29-2.34-.57-3.53-.81-.34-.07-.68-.12-1.01-.18-1.1-.21-2.21-.42-3.33-.59-.45-.07-.91-.11-1.37-.17-1.01-.14-2.02-.28-3.04-.39l-.31-.02v-36.66h-14.68v-31.55c7.37-7.29,11.94-17.41,11.94-28.6,0-1.21-.07-2.41-.18-3.59-.04-.41-.08-.81-.13-1.22-.04-.32-.06-.65-.11-.97l-.03.06c-.61-4.25-1.87-8.28-3.7-11.99l.03-.03-.39-.72c-.25-.47-.5-.94-.77-1.41l130.38,10.15,38.92,15.92c6.16-1.42,10.02-4.61,12.29-7.28h0s.08-.11.08-.11c.43-.51.81-1,1.12-1.46l.12-.17c.31-.44.56-.86.76-1.2l.07-.12c.19-.34.34-.63.43-.82l.02-.05.13-.3-43.35-19.49-124.17-24.52c1.68-1.04,2.71-1.97,2.9-2.76,1.7-7.16,0-28.12,0-28.12l106.28-41.37s48.45,6.27,61.41,1.94h0s.06-.02.06-.02c.39-.13.72-.28,1.04-.43l.25-.11c.3-.15.55-.32.77-.5l.2-.14.48-.57.13-.16.23-.83c.14-4.09-11.31-8.79-11.31-8.79Z"/><path class="cls-3" d="M505.69,237.64c-2.08,0-3.76,1.68-3.76,3.76s1.68,3.76,3.76,3.76,3.76-1.68,3.76-3.76-1.68-3.76-3.76-3.76Z"/><path class="cls-3" d="M411.26,266.79c-2.08,0-3.76,1.68-3.76,3.76s1.68,3.76,3.76,3.76,3.76-1.68,3.76-3.76-1.68-3.76-3.76-3.76Z"/><path class="cls-3" d="M499.92,294.3c-.04-.32-.06-.65-.11-.97l-.03.06c-.61-4.25-1.87-8.28-3.7-11.99l.03-.03-.39-.72c-.25-.47-.5-.94-.77-1.41h0c-.34-.59-.69-1.17-1.05-1.73-.28-.44-.56-.88-.85-1.31-.42-.61-.88-1.19-1.33-1.78-.28-.35-.53-.72-.82-1.06-.71-.84-1.44-1.66-2.21-2.45h0c-2.15-2.19-4.57-4.11-7.18-5.76l.03-.02-.62-.35c-.96-.58-1.95-1.14-2.96-1.64l-.59-.32-.5-.21c-1.04-.48-2.1-.91-3.17-1.3-.33-.12-.66-.25-1-.37-1.4-.46-2.81-.86-4.27-1.17l-.06-.02c-1.54-.32-3.11-.55-4.7-.7l-.14-.02h-.02c-1.16-.09-2.32-.16-3.51-.16-14.21,0-26.66,7.38-33.83,18.49-2.03,3.15-3.64,6.59-4.73,10.26,2.51-.71,4.94-1.35,7.27-1.92,5.43-1.33,10.35-2.31,14.59-3.03,10.3-1.75,16.64-1.98,16.64-1.98,5.01,3.93,7.87,7.71,9.29,11.24h.01s.02.06.02.06c.3.75.52,1.48.7,2.2l.07.33c.32,1.45.41,2.84.31,4.17l-.03.3c-.06.66-.16,1.32-.3,1.94v.04c-.16.62-.34,1.22-.55,1.81l-.08.22c-.22.59-.47,1.16-.74,1.71l-.09.18c-.27.53-.55,1.04-.86,1.53l-.06.1c-.32.51-.65.99-1,1.46l-.16.21c-.69.92-1.4,1.74-2.11,2.48l-.17.17c-.34.35-.68.69-1.01.99l-.07.06c-.31.29-.61.56-.89.8l-.13.11-.79.65-.12.09-.56.43-.07.05-.41.29-.07.05-.11.08c-5.41.49-10.57,1.25-15.6,2.13-4.73.83-9.3,1.81-13.71,2.95-1.54.4-3.09.8-4.59,1.23.36.57.74,1.12,1.13,1.67l-.02.02c.28.39.59.76.89,1.15.35.44.68.9,1.04,1.34.71.85,1.45,1.67,2.23,2.45l.33.33v31.55h56.61v-31.55c7.37-7.29,11.94-17.41,11.94-28.6,0-1.21-.07-2.41-.18-3.59-.04-.41-.08-.81-.13-1.22Z"/><path class="cls-3" d="M674.24,167.93l-62.27-5.93s-215.84,73.58-225.65,77.67l-.11.19-.05.07-.33.61-.06.11c-.14.28-.3.61-.47.99v.03c-.17.39-.34.83-.49,1.3l-.02.06c-.15.46-.28.96-.38,1.48l-.04.19c-.1.52-.17,1.07-.2,1.64v.14c-.04,1.15.11,2.36.55,3.56l.04.15v-.02c.35.88.84,1.76,1.56,2.59,0,0,18.8,30.25,27.8,27.8,1.65-.45,6.02-1.59,12.05-3.2,7.16-11.11,19.62-18.49,33.83-18.49,1.18,0,2.35.08,3.51.18h.02s.14,0,.14,0c1.6.14,3.17.37,4.7.7l.06.02c1.46.31,2.87.71,4.27,1.17.33.11.67.25,1,.37,1.08.39,2.14.82,3.17,1.3l.5.21.59.32c1.01.51,2,1.06,2.96,1.64l.62.35-.03.02c2.61,1.65,5.02,3.58,7.18,5.77h0c.77.78,1.51,1.6,2.21,2.44.29.34.55.71.82,1.06.45.58.91,1.17,1.33,1.78.3.43.57.87.85,1.31.36.57.72,1.14,1.05,1.73h0s130.38,10.15,130.38,10.15l38.92,15.92c6.16-1.42,10.02-4.61,12.29-7.28h0s.08-.11.08-.11c.43-.51.81-1,1.12-1.46l.12-.17c.31-.44.56-.86.76-1.2l.07-.12c.19-.34.34-.63.43-.82l.02-.05.13-.3-43.35-19.49-124.17-24.52c1.68-1.04,2.71-1.97,2.9-2.76,1.7-7.16,0-28.12,0-28.12l106.28-41.37s48.45,6.27,61.41,1.94h0s.06-.02.06-.02c.39-.13.72-.28,1.04-.43l.25-.11c.3-.15.55-.32.77-.5l.2-.14.48-.57.13-.16.23-.83c.14-4.09-11.31-8.79-11.31-8.79ZM509.45,241.39c0,2.08-1.68,3.76-3.76,3.76s-3.76-1.68-3.76-3.76,1.68-3.76,3.76-3.76,3.76,1.68,3.76,3.76ZM411.26,274.31c-2.08,0-3.76-1.68-3.76-3.76s1.68-3.76,3.76-3.76,3.76,1.68,3.76,3.76-1.68,3.76-3.76,3.76Z"/><path class="cls-3" d="M469.95,294.19c-.18-.72-.4-1.45-.7-2.2l-.02-.06h-.01c-1.42-3.52-4.29-7.31-9.29-11.24,0,0-6.35.24-16.64,1.98-4.25.72-9.16,1.7-14.59,3.03-2.33.57-4.76,1.2-7.27,1.92-45.11,12.71-116.26,48.59-136.53,149.33-7.14-.99-12.09-.98-12.79.2l-.06-.02-103.16,303.34c6.49,5.57,14.99,10.04,23.55,13.56h0s.42.18.42.18c1.17.48,2.34.93,3.51,1.38l.7.26c2.73,1.02,5.43,1.94,8.04,2.76h0s.26.09.26.09l.13.04.77.24c1.08.34,2.14.66,3.18.96l.39.12.76.21.36.1c.76.22,1.52.43,2.25.63l.86.23.7.19c.69.18,1.34.35,1.99.51.31.08.62.16.93.24l.83.21.14.03c.49.12.96.23,1.42.34l.69.16c.42.1.81.19,1.21.28l.15.04h0c.44.1.91.2,1.32.3.82.2,1.72.42,2.68.65.36.09.76.18,1.13.26.67.16,1.35.31,2.07.47.4.09.83.18,1.24.27.8.18,1.63.34,2.49.52.37.07.74.15,1.11.22.36.07.69.14,1.05.21h0c6.45,1.22,14.06,2.36,21.88,2.83h0s.24.02.24.02c1.98.11,3.98.18,5.97.2h.87c1.85,0,3.7-.04,5.52-.14l.61-.03c1.9-.12,3.77-.31,5.61-.56.4-.06.79-.12,1.18-.18,1.85-.28,3.68-.62,5.43-1.06l42.88-317.52-.06-.02c-.1-1.4-4.74-3.68-11.82-6.03,3.32-14.43,26.09-97.82,112.54-122.88,1.5-.44,3.05-.83,4.59-1.23,4.4-1.14,8.98-2.12,13.71-2.95,5.04-.88,10.19-1.64,15.6-2.13l.11-.08.07-.05.41-.29.07-.05.56-.43.12-.09.79-.65.13-.11c.28-.24.58-.51.89-.8l.07-.06c.33-.3.66-.64,1.01-.99l.17-.17c.7-.73,1.42-1.56,2.11-2.48l.16-.21c.35-.46.68-.95,1-1.46l.06-.1c.3-.49.59-1,.86-1.53l.09-.18c.27-.55.52-1.12.74-1.71l.08-.22c.21-.59.39-1.19.54-1.81v-.04c.16-.63.25-1.28.31-1.94l.03-.3c.09-1.33,0-2.73-.31-4.17l-.07-.33Z"/><path class="cls-3" d="M498.8,395.61c.71.04,1.4.11,2.11.16.69.05,1.39.09,2.07.16v-36.66h-6.79v36.27c.87.02,1.75.02,2.62.07Z"/><path class="cls-3" d="M456.34,395.49h3.59v-36.22h-42.93v36.66c2.87-.28,5.77-.43,8.71-.43h30.62Z"/><path class="cls-3" d="M459.93,395.49h34.33c.65,0,1.28.04,1.92.05v-36.27h-36.25v36.22Z"/><rect class="cls-3" x="375.66" y="665.34" width="42.89" height="39.81"/><rect class="cls-3" x="375.66" y="717.09" width="42.89" height="39.81"/><rect class="cls-3" x="375.66" y="613.59" width="42.89" height="39.81"/><path class="cls-3" d="M363.75,883.58l-.26-.63v-378.61l.26-.63.62-.26h60.86c2.81-18.33,6.63-39.7,11.31-57.5,8.33-31.67-4.35-29.23-16.81-31.44,0,0-22.94-5.27-39.88,19.5-22.89,33.45-31.4,50.86-31.4,118.09s-10.62,452.92,0,459.99c10.62,7.08,51.31,23,62.81-8.84,3.58-9.9,5.75-57.93,7.04-119.42h-53.93l-.62-.26ZM395.34,428.86c17.4-7.97,32.88-2.36,32.88-2.36,6.51,1.46-6.63,47.18-11.22,60.15-4.59,12.98-39.06,7.67-49.67,4.72-10.62-2.95,10.61-54.54,28.01-62.51ZM399.76,899.46c12.39,1.74,4.13,86.69,0,102.02-4.13,15.34-33.02,7.08-43.64,4.13-10.61-2.95-6.49-93.18,0-103.2,6.49-10.03,43.64-2.95,43.64-2.95Z"/><path class="cls-3" d="M379.41,820.15v-31.85h40.21c.08-9.58.15-19.18.2-28.75h-46.82v-45.12h47.02c0-2.22,0-4.43.02-6.63h-47.04v-45.12h47.09c0-2.24,0-4.44,0-6.63h-47.09v-45.11h47.02c-.04-13.76-.08-25.86-.13-35.83h-24.57v-12.39h24.51c-.03-5.78-.06-10.26-.07-13.27h-35.63v-23h37.84c.8-6.1,1.8-13.36,2.99-21.23h-59.71v376.84h53.08c.4-19.57.72-40.48.97-61.92h-39.9Z"/><path class="cls-3" d="M559.28,510.97v-41.57c0-26.78-11.9-50.78-30.71-67.01h0s-.53-.21-.53-.21c-1.14-.47-2.29-.93-3.46-1.36l-.54-.18c-1.17-.42-2.36-.83-3.56-1.2l-.51-.14c-1.21-.37-2.43-.72-3.67-1.04l-.73-.17c-1.17-.29-2.34-.57-3.53-.81-.34-.07-.68-.12-1.01-.18-1.1-.21-2.21-.42-3.33-.59-.45-.07-.91-.11-1.37-.17-1.01-.14-2.02-.28-3.04-.39l-.31-.02c-.69-.07-1.38-.11-2.07-.16-.7-.05-1.4-.12-2.11-.16-.87-.05-1.74-.05-2.62-.07-.64-.01-1.28-.05-1.92-.05h-37.92c24,15.82,39.85,43.01,39.85,73.91v34.06h59.3l.62.26.26.63v378.61l-.26.63-.62.26h-59.3v171.62h52.04c1.09,0,2.16-.06,3.21-.17.39-.03.78-.09,1.17-.15.65-.08,1.29-.18,1.92-.29.48-.09.95-.19,1.42-.3.52-.12,1.04-.26,1.55-.4.5-.14,1.01-.28,1.51-.44l.28-.08V510.97Z"/><polygon class="cls-3" points="496.18 526.46 534.85 526.46 534.85 549.46 496.18 549.46 496.18 562.73 521.84 562.73 521.84 575.11 496.18 575.11 496.18 598.98 496.18 621.11 538.64 621.11 538.64 637.92 496.18 637.92 496.18 676.84 539.16 676.84 539.16 693.65 496.18 693.65 496.18 732.57 539.68 732.57 539.68 749.38 496.18 749.38 496.18 788.3 540.2 788.3 540.2 820.15 496.18 820.15 496.18 882.07 554.6 882.07 554.6 505.23 496.18 505.23 496.18 510.97 496.18 526.46"/><path class="cls-3" d="M364.37,503.46l-.62.26-.26.63v378.61l.26.63.62.26h191.11l.62-.26.26-.63v-378.61l-.26-.63-.62-.26h-191.11ZM554.6,505.23v376.84h-189.34v-376.84h189.34Z"/><path class="cls-10" d="M364.37,503.46l-.62.26-.26.63v378.61l.26.63.62.26h191.11l.62-.26.26-.63v-378.61l-.26-.63-.62-.26h-191.11ZM554.6,505.23v376.84h-189.34v-376.84h189.34Z"/><polygon class="cls-3" points="384.14 549.46 419.77 549.46 496.18 549.46 534.85 549.46 534.85 526.46 496.18 526.46 421.98 526.46 384.14 526.46 384.14 549.46"/><polygon class="cls-3" points="395.34 562.73 395.34 575.11 419.9 575.11 496.18 575.11 521.84 575.11 521.84 562.73 496.18 562.73 419.84 562.73 395.34 562.73"/><polygon class="cls-3" points="427.18 637.92 496.18 637.92 538.64 637.92 538.64 621.11 496.18 621.11 427.18 621.11 427.18 637.92"/><polygon class="cls-3" points="427.7 693.65 496.18 693.65 539.16 693.65 539.16 676.84 496.18 676.84 427.7 676.84 427.7 693.65"/><polygon class="cls-3" points="428.22 749.38 496.18 749.38 539.68 749.38 539.68 732.57 496.18 732.57 428.22 732.57 428.22 749.38"/><polygon class="cls-3" points="379.41 788.3 379.41 820.15 419.31 820.15 496.18 820.15 540.2 820.15 540.2 788.3 496.18 788.3 419.62 788.3 379.41 788.3"/><path class="cls-3" d="M421.21,610.94h-48.2v45.11h48.2v-45.11ZM418.55,653.4h-42.89v-39.81h42.89v39.81Z"/><path class="cls-3" d="M421.21,662.68h-48.2v45.12h48.2v-45.12ZM418.55,705.15h-42.89v-39.81h42.89v39.81Z"/><path class="cls-3" d="M421.21,714.43h-48.2v45.12h48.2v-45.12ZM418.55,756.89h-42.89v-39.81h42.89v39.81Z"/><path class="cls-3" d="M356.12,902.41c-6.49,10.03-10.61,100.26,0,103.2,10.62,2.95,39.51,11.21,43.64-4.13,4.13-15.33,12.39-100.28,0-102.02,0,0-37.15-7.08-43.64,2.95Z"/><path class="cls-3" d="M367.33,491.37c10.61,2.95,45.09,8.26,49.67-4.72,4.58-12.97,17.73-58.69,11.22-60.15,0,0-15.48-5.62-32.88,2.36-17.4,7.97-38.63,59.56-28.01,62.51Z"/><path class="cls-7" d="M509.45,241.39c0,2.08-1.68,3.76-3.76,3.76s-3.76-1.68-3.76-3.76,1.68-3.76,3.76-3.76,3.76,1.68,3.76,3.76ZM411.26,274.31c2.08,0,3.76-1.68,3.76-3.76s-1.68-3.76-3.76-3.76-3.76,1.68-3.76,3.76,1.68,3.76,3.76,3.76ZM499.92,294.3c-.04-.32-.06-.65-.11-.97l-.03.06c-8.17,14.38-25.7,36.49-58.01,41.59-1.98-1.01-3.86-2.18-5.64-3.49l13.56-11.33c3.11,1.53,6.59,2.41,10.29,2.41,12.95,0,23.44-10.5,23.44-23.44,0-2.22-.33-4.36-.9-6.39l13.56-11.33.03-.03-.39-.72c-.25-.48-.5-.95-.77-1.41-.34-.59-.69-1.16-1.05-1.73-.28-.44-.56-.88-.85-1.31-.42-.61-.88-1.19-1.33-1.78-.28-.35-.53-.72-.82-1.06-.71-.84-1.44-1.66-2.21-2.45h0c-2.15-2.19-4.57-4.11-7.18-5.76l.03-.02-.62-.35c-.96-.58-1.95-1.14-2.96-1.64l-.59-.32-.5-.21c-1.04-.48-2.1-.91-3.17-1.3-.33-.12-.66-.25-1-.37-1.4-.46-2.81-.86-4.27-1.17l-.06-.02c-1.54-.32-3.11-.55-4.7-.7l-.14-.02h-.02c-1.16-.09-2.32-.16-3.51-.16-14.21,0-26.66,7.38-33.83,18.49-2.03,3.15-3.64,6.59-4.73,10.26-45.11,12.71-116.26,48.59-136.53,149.33-7.14-.99-12.09-.98-12.79.2l-.06-.02-103.16,303.34c6.49,5.57,14.99,10.04,23.55,13.56h0s.42.18.42.18c1.17.48,2.34.93,3.51,1.38l.7.26c2.73,1.02,5.43,1.94,8.04,2.76h0s.26.09.26.09l.13.04.19.06c1.42.44,2.8.87,4.15,1.26l.76.21.36.1c.64.18,1.28.36,1.9.53.12.03.24.07.35.1l.86.23.7.19c.69.18,1.34.35,1.99.51.31.08.62.16.93.24l.83.21.14.03c.49.12.96.23,1.42.34l.69.16c.42.1.81.19,1.21.28l.15.04h0c.44.1.92.21,1.32.3.82.2,1.72.42,2.68.65.36.09.76.18,1.13.26.67.16,1.35.31,2.07.47.4.09.83.18,1.24.27.8.18,1.63.34,2.49.52.37.07.74.15,1.11.22.36.07.69.14,1.05.21h0c6.45,1.22,14.06,2.36,21.88,2.83h0s.24.02.24.02c1.98.11,3.98.18,5.97.2h.87c1.85,0,3.7-.04,5.52-.14l.61-.03c1.9-.12,3.77-.31,5.61-.56.4-.06.79-.12,1.18-.18,1.85-.28,3.68-.62,5.43-1.06l42.88-317.52-.06-.02c-.1-1.4-4.74-3.68-11.82-6.03-.32,1.38-.48,2.21-.48,2.21-1.04,0-2.2-.07-3.4-.18l-.42-.04c-1.16-.12-2.37-.28-3.62-.48l-.59-.09c-1.26-.21-2.53-.44-3.8-.7l-.42-.09c-1.24-.26-2.47-.53-3.66-.81l-.3-.07h0c16.37-120.31,138.3-146.48,172.38-151.47h.01s.02.06.02.06c.3.75.52,1.48.7,2.2l.07.33c.32,1.45.41,2.84.31,4.17l-.03.3c-.06.66-.16,1.32-.3,1.94v.04c-.16.62-.34,1.22-.55,1.81l-.08.22c-.22.59-.47,1.16-.74,1.71l-.09.18c-.27.53-.55,1.04-.86,1.53l-.06.1c-.32.51-.65.99-1,1.46l-.16.21c-.69.92-1.4,1.74-2.11,2.48l-.17.17c-.34.35-.68.69-1.01.99l-.07.06c-.31.29-.61.56-.89.8l-.13.11-.79.65-.12.09-.56.43-.07.05-.41.29-.07.05-.11.08c-5.41.49-10.57,1.25-15.6,2.13-4.73.83-9.3,1.81-13.71,2.95-1.54.4-3.09.8-4.59,1.23.36.57.74,1.12,1.13,1.67l-.02.02c.28.39.59.76.89,1.15.35.44.68.9,1.04,1.34.71.85,1.45,1.67,2.23,2.45l.33.33v31.55h56.61v-31.55c7.37-7.29,11.94-17.41,11.94-28.6,0-1.21-.07-2.41-.18-3.59-.04-.41-.08-.81-.13-1.22Z"/><path class="cls-3" d="M635.95,279.78l40.6,18.25c-2.27,2.66-6.13,5.86-12.29,7.28l-38.92-15.92-130.38-10.15h0c-.34-.59-.69-1.17-1.05-1.73-.28-.44-.56-.88-.85-1.31-.42-.61-.88-1.19-1.33-1.78-.28-.35-.53-.72-.82-1.06-.71-.84-1.44-1.66-2.21-2.45h0c-2.15-2.19-4.57-4.11-7.18-5.76l.03-.02-.62-.35c-.96-.58-1.95-1.14-2.96-1.64l-.59-.32c10.17-3.16,19.55-6.33,26.38-9.15l132.22,26.11ZM635.95,279.78l40.6,18.25h0s.08-.11.08-.11c.43-.51.81-1,1.12-1.46l.12-.17c.31-.44.56-.86.76-1.2l.07-.12c.19-.34.34-.63.43-.82l.02-.05.13-.3-43.35-19.49-124.17-24.52c-1.9,1.17-4.66,2.48-8.04,3.87l132.22,26.11ZM426.16,277.35c-6.03,1.61-10.4,2.75-12.05,3.2-8.99,2.45-27.8-27.8-27.8-27.8-.72-.84-1.21-1.71-1.55-2.59.64-2.03,1.55-3.41,1.55-3.41,9.81-4.08,225.65-77.67,225.65-77.67l62.27,5.93s4.79,1.97,8.14,4.46c-12.96,4.33-61.41-1.94-61.41-1.94l-106.28,41.37s1.7,20.96,0,28.12c-.19.79-1.22,1.73-2.9,2.76-1.9,1.17-4.66,2.48-8.04,3.87-6.83,2.82-16.21,5.99-26.38,9.15l-.5-.21c-1.04-.48-2.1-.91-3.17-1.3-.33-.12-.66-.25-1-.37-1.4-.46-2.81-.86-4.27-1.17l-.06-.02c-1.54-.32-3.11-.55-4.7-.7l-.14-.02h-.02c-1.16-.09-2.32-.16-3.51-.16-14.21,0-26.66,7.38-33.83,18.49ZM501.93,241.39c0,2.08,1.68,3.76,3.76,3.76s3.76-1.68,3.76-3.76-1.68-3.76-3.76-3.76-3.76,1.68-3.76,3.76ZM415.02,270.55c0-2.08-1.68-3.76-3.76-3.76s-3.76,1.68-3.76,3.76,1.68,3.76,3.76,3.76,3.76-1.68,3.76-3.76ZM384.71,250.03c-.44-1.2-.59-2.41-.55-3.56-.04,1.15.11,2.36.55,3.56ZM611.96,169.08l62.27,5.93s4.79,1.97,8.14,4.46h0s.06-.02.06-.02c.39-.13.72-.28,1.04-.43l.25-.11c.3-.15.55-.32.77-.5l.2-.14.48-.57.13-.16.23-.83c.14-4.09-11.31-8.79-11.31-8.79l-62.27-5.93s-215.84,73.58-225.65,77.67l-.11.19-.05.07-.33.61-.06.11c-.14.28-.3.61-.47.99v.03c-.17.39-.34.83-.49,1.3l-.02.06c-.15.46-.28.96-.38,1.48l-.04.19c-.1.52-.17,1.07-.2,1.64v.14c-.04,1.15.11,2.36.55,3.56l.04.15v-.02c.65-2.03,1.56-3.41,1.56-3.41,9.81-4.08,225.65-77.67,225.65-77.67Z"/><rect class="cls-9" x="363" y="504" width="193" height="380"/></g><ellipse class="cls-4" cx="460.5" cy="1048" rx="209.5" ry="26.19"/><ellipse class="cls-4" cx="701.5" cy="980" rx="209.5" ry="26.19"/></g></g></svg>