<?xml version="1.0" encoding="UTF-8"?><svg id="Ebene_2" xmlns="http://www.w3.org/2000/svg" xmlns:xlink="http://www.w3.org/1999/xlink" viewBox="0 0 347.42 194.08"><defs><style>.cls-1{font-family:MyriadPro-Regular, 'Myriad Pro';font-size:15.18px;stroke-width:.86px;}.cls-1,.cls-2,.cls-3{fill:none;stroke:#e9eaed;stroke-linecap:round;stroke-linejoin:round;}.cls-2{opacity:.55;}.cls-2,.cls-3{stroke-width:.86px;}.cls-4{clip-path:url(#clippath-1);}.cls-5{clip-path:url(#clippath-3);}.cls-6{clip-path:url(#clippath-2);}.cls-7{opacity:.23;}.cls-8{opacity:.21;}.cls-9{opacity:.33;}.cls-10{opacity:.08;}.cls-11{clip-path:url(#clippath);}</style><clipPath id="clippath"><path class="cls-3" d="M82.96,129.48c0,7.63-6.19,13.82-13.82,13.82s-13.82-6.19-13.82-13.82,6.19-13.82,13.82-13.82,13.82,6.19,13.82,13.82ZM135.95,86.82c-7.63,0-13.82,6.19-13.82,13.82s6.19,13.82,13.82,13.82,13.82-6.19,13.82-13.82-6.19-13.82-13.82-13.82ZM202.75,59.49c-7.63,0-13.82,6.19-13.82,13.82s6.19,13.82,13.82,13.82,13.82-6.19,13.82-13.82-6.19-13.82-13.82-13.82ZM271.08,35.2c-7.63,0-13.82,6.19-13.82,13.82s6.19,13.82,13.82,13.82,13.82-6.19,13.82-13.82-6.19-13.82-13.82-13.82ZM99.51,147.55c-7.63,0-13.82,6.19-13.82,13.82s6.19,13.82,13.82,13.82,13.82-6.19,13.82-13.82-6.19-13.82-13.82-13.82ZM166.32,118.7c-7.63,0-13.82,6.19-13.82,13.82s6.19,13.82,13.82,13.82,13.82-6.19,13.82-13.82-6.19-13.82-13.82-13.82ZM233.12,91.38c-7.63,0-13.82,6.19-13.82,13.82s6.19,13.82,13.82,13.82,13.82-6.19,13.82-13.82-6.19-13.82-13.82-13.82ZM301.44,67.08c-7.63,0-13.82,6.19-13.82,13.82s6.19,13.82,13.82,13.82,13.82-6.19,13.82-13.82-6.19-13.82-13.82-13.82Z"/></clipPath><clipPath id="clippath-1"><path class="cls-3" d="M315.11,11.06c0,5.87-4.76,10.63-10.63,10.63s-10.63-4.76-10.63-10.63,4.76-10.63,10.63-10.63,10.63,4.76,10.63,10.63ZM334.84,33.83c-5.87,0-10.63,4.76-10.63,10.63s4.76,10.63,10.63,10.63,10.63-4.76,10.63-10.63-4.76-10.63-10.63-10.63ZM336.36,94.56c-5.87,0-10.63,4.76-10.63,10.63s4.76,10.63,10.63,10.63,10.63-4.76,10.63-10.63-4.76-10.63-10.63-10.63ZM268.04,120.37c-5.87,0-10.63,4.76-10.63,10.63s4.76,10.63,10.63,10.63,10.63-4.76,10.63-10.63-4.76-10.63-10.63-10.63ZM274.11,94.56c-5.87,0-10.63,4.76-10.63,10.63s4.76,10.63,10.63,10.63,10.63-4.76,10.63-10.63-4.76-10.63-10.63-10.63ZM207.31,120.37c-5.87,0-10.63,4.76-10.63,10.63s4.76,10.63,10.63,10.63,10.63-4.76,10.63-10.63-4.76-10.63-10.63-10.63ZM140.51,146.19c-5.87,0-10.63,4.76-10.63,10.63s4.76,10.63,10.63,10.63,10.63-4.76,10.63-10.63-4.76-10.63-10.63-10.63ZM73.7,172c-5.87,0-10.63,4.76-10.63,10.63s4.76,10.63,10.63,10.63,10.63-4.76,10.63-10.63-4.76-10.63-10.63-10.63ZM243.75,1.95c-5.87,0-10.63,4.76-10.63,10.63s4.76,10.63,10.63,10.63,10.63-4.76,10.63-10.63-4.76-10.63-10.63-10.63ZM176.94,27.76c-5.87,0-10.63,4.76-10.63,10.63s4.76,10.63,10.63,10.63,10.63-4.76,10.63-10.63-4.76-10.63-10.63-10.63ZM237.67,26.24c-5.87,0-10.63,4.76-10.63,10.63s4.76,10.63,10.63,10.63,10.63-4.76,10.63-10.63-4.76-10.63-10.63-10.63ZM170.87,52.05c-5.87,0-10.63,4.76-10.63,10.63s4.76,10.63,10.63,10.63,10.63-4.76,10.63-10.63-4.76-10.63-10.63-10.63ZM110.14,53.57c-5.87,0-10.63,4.76-10.63,10.63s4.76,10.63,10.63,10.63,10.63-4.76,10.63-10.63-4.76-10.63-10.63-10.63ZM11.45,131c-5.87,0-10.63,4.76-10.63,10.63s4.76,10.63,10.63,10.63,10.63-4.76,10.63-10.63-4.76-10.63-10.63-10.63ZM199.72,146.19c-5.87,0-10.63,4.76-10.63,10.63s4.76,10.63,10.63,10.63,10.63-4.76,10.63-10.63-4.76-10.63-10.63-10.63ZM131.4,172c-5.87,0-10.63,4.76-10.63,10.63s4.76,10.63,10.63,10.63,10.63-4.76,10.63-10.63-4.76-10.63-10.63-10.63Z"/></clipPath><clipPath id="clippath-2"><path class="cls-3" d="M41.82,123.41c0,5.87-4.76,10.63-10.63,10.63s-10.63-4.76-10.63-10.63,4.76-10.63,10.63-10.63,10.63,4.76,10.63,10.63ZM72.18,68.75c-5.87,0-10.63,4.76-10.63,10.63s4.76,10.63,10.63,10.63,10.63-4.76,10.63-10.63-4.76-10.63-10.63-10.63Z"/></clipPath><clipPath id="clippath-3"><path class="cls-3" d="M82.81,123.41c0,5.87-4.76,10.63-10.63,10.63s-10.63-4.76-10.63-10.63,4.76-10.63,10.63-10.63,10.63,4.76,10.63,10.63ZM138.99,83.94c-5.87,0-10.63,4.76-10.63,10.63s4.76,10.63,10.63,10.63,10.63-4.76,10.63-10.63-4.76-10.63-10.63-10.63ZM205.79,56.61c-5.87,0-10.63,4.76-10.63,10.63s4.76,10.63,10.63,10.63,10.63-4.76,10.63-10.63-4.76-10.63-10.63-10.63ZM274.11,32.32c-5.87,0-10.63,4.76-10.63,10.63s4.76,10.63,10.63,10.63,10.63-4.76,10.63-10.63-4.76-10.63-10.63-10.63ZM102.55,144.67c-5.87,0-10.63,4.76-10.63,10.63s4.76,10.63,10.63,10.63,10.63-4.76,10.63-10.63-4.76-10.63-10.63-10.63ZM169.35,115.82c-5.87,0-10.63,4.76-10.63,10.63s4.76,10.63,10.63,10.63,10.63-4.76,10.63-10.63-4.76-10.63-10.63-10.63ZM236.16,88.49c-5.87,0-10.63,4.76-10.63,10.63s4.76,10.63,10.63,10.63,10.63-4.76,10.63-10.63-4.76-10.63-10.63-10.63ZM304.48,64.2c-5.87,0-10.63,4.76-10.63,10.63s4.76,10.63,10.63,10.63,10.63-4.76,10.63-10.63-4.76-10.63-10.63-10.63Z"/></clipPath></defs><g id="Ebene_17"><line class="cls-3" x1="176.94" y1="38.39" x2="268.04" y2="131"/><line class="cls-3" x1="108.62" y1="64.2" x2="199.72" y2="156.81"/><line class="cls-3" x1="245.27" y1="12.58" x2="336.36" y2="105.19"/><line class="cls-3" x1="73.7" y1="123.41" x2="131.4" y2="182.62"/><line class="cls-3" x1="172.39" y1="64.2" x2="140.51" y2="93.05"/><line class="cls-3" x1="240.71" y1="35.35" x2="208.83" y2="64.2"/><line class="cls-3" x1="304.48" y1="11.06" x2="274.11" y2="42.94"/><line class="cls-3" x1="333.33" y1="45.98" x2="301.44" y2="79.38"/><line class="cls-3" x1="271.08" y1="42.94" x2="240.71" y2="97.6"/><line class="cls-3" x1="204.27" y1="70.27" x2="170.87" y2="126.45"/><line class="cls-3" x1="140.51" y1="93.05" x2="99.51" y2="155.3"/><line class="cls-3" x1="303.62" y1="77.19" x2="271.73" y2="110.59"/><line class="cls-3" x1="238.68" y1="98.24" x2="206.8" y2="131.65"/><line class="cls-3" x1="167.34" y1="127.19" x2="135.45" y2="160.59"/><line class="cls-3" x1="103.82" y1="152.84" x2="71.93" y2="186.24"/><line class="cls-3" x1="67.63" y1="77.39" x2="67.63" y2="123.57"/><line class="cls-3" x1="76.74" y1="77.39" x2="76.74" y2="123.57"/><line class="cls-3" x1="71.58" y1="123" x2="31.19" y2="123.41"/><line class="cls-3" x1="31.19" y1="123.41" x2="11.45" y2="141.63"/><circle class="cls-3" cx="304.48" cy="11.06" r="10.63"/><circle class="cls-3" cx="334.84" cy="44.46" r="10.63"/><circle class="cls-3" cx="336.36" cy="105.19" r="10.63"/><circle class="cls-3" cx="268.04" cy="131" r="10.63"/><circle class="cls-3" cx="274.11" cy="105.19" r="10.63"/><circle class="cls-3" cx="207.31" cy="131" r="10.63"/><circle class="cls-3" cx="140.51" cy="156.81" r="10.63"/><circle class="cls-3" cx="73.7" cy="182.62" r="10.63"/><circle class="cls-3" cx="243.75" cy="12.58" r="10.63"/><circle class="cls-3" cx="176.94" cy="38.39" r="10.63"/><circle class="cls-3" cx="237.67" cy="36.87" r="10.63"/><circle class="cls-3" cx="170.87" cy="62.68" r="10.63"/><circle class="cls-3" cx="110.14" cy="64.2" r="10.63"/><circle class="cls-3" cx="11.45" cy="141.63" r="10.63"/><circle class="cls-3" cx="199.72" cy="156.81" r="10.63"/><circle class="cls-3" cx="131.4" cy="182.62" r="10.63"/><path class="cls-3" d="M146.5,144.62l-4.48,4.69c2.13.43,3.92,1.75,5.01,3.55l4.2-4.4c-1.26-1.61-2.87-2.93-4.72-3.85Z"/><path class="cls-3" d="M214.32,119.37l-4.3,4.5c1.97.75,3.56,2.28,4.36,4.23l4.31-4.52c-1.12-1.71-2.62-3.15-4.37-4.21Z"/><path class="cls-3" d="M179.69,45.51l4.37,4.45c1.74-1.08,3.23-2.53,4.33-4.26l-4.37-4.44c-.79,1.95-2.37,3.49-4.34,4.25Z"/><path class="cls-3" d="M196.97,149.69l-4.37-4.45c-1.74,1.08-3.23,2.53-4.33,4.26l4.37,4.44c.79-1.95,2.37-3.49,4.34-4.25Z"/><path class="cls-3" d="M165.03,74.95l5.18-4.68c-2.29-.2-4.29-1.39-5.56-3.16l-4.43,4.01c1.29,1.62,2.93,2.93,4.81,3.83Z"/><path class="cls-3" d="M116.7,68.08c-1.08,1.81-2.85,3.15-4.97,3.6l4.56,4.64c1.84-.94,3.43-2.28,4.67-3.91l-4.26-4.33Z"/><path class="cls-3" d="M81.68,171.63l-4.19,4.39c1.83,1.06,3.2,2.83,3.67,4.95l4.53-4.75c-.98-1.82-2.36-3.38-4.02-4.59Z"/><path class="cls-3" d="M128.69,175.49l-4.36-4.47c-1.75,1.07-3.24,2.52-4.35,4.23l4.35,4.46c.8-1.95,2.39-3.47,4.36-4.23Z"/><path class="cls-3" d="M333.62,98.07l-4.37-4.45c-1.74,1.08-3.23,2.53-4.33,4.26l4.37,4.44c.79-1.95,2.37-3.49,4.34-4.25Z"/><path class="cls-3" d="M327.85,56.11l4.3-4.51c-1.97-.75-3.57-2.27-4.38-4.21l-4.31,4.51c1.12,1.71,2.63,3.15,4.38,4.2Z"/><path class="cls-3" d="M282.73,94.68l-4.14,4.34c1.75,1.27,2.92,3.26,3.11,5.53l4.77-5c-.87-1.9-2.15-3.56-3.74-4.87Z"/><path class="cls-3" d="M297.55,22.74l4.31-4.52c-1.98-.73-3.59-2.23-4.42-4.17l-4.3,4.51c1.13,1.71,2.64,3.13,4.4,4.18Z"/><path class="cls-3" d="M19.13,130.41l-4.59,4.23c1.92.85,3.4,2.48,4.1,4.48l4.6-4.24c-1.02-1.78-2.43-3.31-4.12-4.47Z"/><path class="cls-3" d="M260.96,128.13c.79-1.95,2.37-3.49,4.34-4.25l-4.37-4.45c-1.74,1.08-3.23,2.53-4.33,4.26l4.37,4.44Z"/><path class="cls-3" d="M247.52,19.2l4.26,4.33c1.65-1.21,3.02-2.78,3.99-4.6l-4.57-4.65c-.48,2.11-1.85,3.87-3.68,4.92Z"/><path class="cls-3" d="M230.68,48.52l4.81-4.35c-2.06-.62-3.74-2.06-4.67-3.96l-4.53,4.1c1.12,1.72,2.63,3.16,4.39,4.22Z"/><circle class="cls-3" cx="31.19" cy="123.41" r="10.63"/><circle class="cls-3" cx="72.18" cy="79.38" r="10.63"/><g class="cls-11"><path class="cls-3" d="M74.13,188.34l-4.39-4.19,28.4-29.75-1.16-.76.78-1.18-26.14-26.83v.42s-39.22.4-39.22.4l-18.88,17.43-4.12-4.46,19.74-18.22,2.06,2.23-.03-3.04,33.43-.34v-42.64h6.07v42.58h.89s.06,5.48.06,5.48l2.1-2.04v-46.02h6.07v46.18h-1.68l23.08,23.69,34.04-51.69-28.76-29.23,4.33-4.26,27.98,28.45,31.58-28.57,4.07,4.5-31.39,28.4,26.86,27.3,31.77-53.44,2.06,1.23-28.95-29.43,4.33-4.26,91.1,92.61-4.33,4.26-28.57-29.05-28.31,29.66-4.39-4.19,28.44-29.8-26.66-27.1-32.1,53.98,27.59,28.05-4.33,4.26-28.59-29.06-31.31,32.81-4.39-4.19,31.45-32.94-25.14-25.56-34.06,51.72,28.06,28.8-4.35,4.24-26.1-26.78-29,30.38ZM273.93,112.69l-4.39-4.19,29.75-31.17-.04-.04,2.66-2.79-28.69-29.16-29.86,53.74-5.31-2.95,30.37-54.66,2.21,1.23-27.53-27.99,4.33-4.26,27.15,27.6,27.7-29.09,4.4,4.19-27.84,29.23,27.26,27.72,25.03-26.22,4.39,4.19-25.16,26.36,28.16,28.63-4.33,4.26-28.03-28.49-.4.42.04.04-31.88,33.4ZM210.86,66.45l-4.07-4.5,31.88-28.85,4.07,4.5-31.88,28.85Z"/></g><path class="cls-3" d="M82.96,129.48c0,7.63-6.19,13.82-13.82,13.82s-13.82-6.19-13.82-13.82,6.19-13.82,13.82-13.82,13.82,6.19,13.82,13.82ZM135.95,86.82c-7.63,0-13.82,6.19-13.82,13.82s6.19,13.82,13.82,13.82,13.82-6.19,13.82-13.82-6.19-13.82-13.82-13.82ZM202.75,59.49c-7.63,0-13.82,6.19-13.82,13.82s6.19,13.82,13.82,13.82,13.82-6.19,13.82-13.82-6.19-13.82-13.82-13.82ZM271.08,35.2c-7.63,0-13.82,6.19-13.82,13.82s6.19,13.82,13.82,13.82,13.82-6.19,13.82-13.82-6.19-13.82-13.82-13.82ZM99.51,147.55c-7.63,0-13.82,6.19-13.82,13.82s6.19,13.82,13.82,13.82,13.82-6.19,13.82-13.82-6.19-13.82-13.82-13.82ZM166.32,118.7c-7.63,0-13.82,6.19-13.82,13.82s6.19,13.82,13.82,13.82,13.82-6.19,13.82-13.82-6.19-13.82-13.82-13.82ZM233.12,91.38c-7.63,0-13.82,6.19-13.82,13.82s6.19,13.82,13.82,13.82,13.82-6.19,13.82-13.82-6.19-13.82-13.82-13.82ZM301.44,67.08c-7.63,0-13.82,6.19-13.82,13.82s6.19,13.82,13.82,13.82,13.82-6.19,13.82-13.82-6.19-13.82-13.82-13.82Z"/><circle class="cls-3" cx="72.18" cy="123.41" r="10.63"/><text class="cls-1" transform="translate(67.78 127.87)"><tspan x="0" y="0">C</tspan></text><circle class="cls-3" cx="138.99" cy="94.56" r="10.63"/><text class="cls-1" transform="translate(134.58 99.02)"><tspan x="0" y="0">C</tspan></text><circle class="cls-3" cx="205.79" cy="67.24" r="10.63"/><text class="cls-1" transform="translate(201.39 71.69)"><tspan x="0" y="0">C</tspan></text><circle class="cls-3" cx="274.11" cy="42.94" r="10.63"/><text class="cls-1" transform="translate(269.71 47.4)"><tspan x="0" y="0">C</tspan></text><circle class="cls-3" cx="102.55" cy="155.3" r="10.63"/><text class="cls-1" transform="translate(98.15 159.75)"><tspan x="0" y="0">C</tspan></text><circle class="cls-3" cx="169.35" cy="126.45" r="10.63"/><text class="cls-1" transform="translate(164.95 130.9)"><tspan x="0" y="0">C</tspan></text><circle class="cls-3" cx="236.16" cy="99.12" r="10.63"/><text class="cls-1" transform="translate(231.75 103.58)"><tspan x="0" y="0">C</tspan></text><circle class="cls-3" cx="304.48" cy="74.83" r="10.63"/><text class="cls-1" transform="translate(300.07 79.28)"><tspan x="0" y="0">C</tspan></text><g class="cls-4"><path class="cls-2" d="M232.73,12.21c0-4.07,2.14-7.64,5.36-9.66-2.33,2.04-3.8,5.03-3.8,8.36,0,6.14,4.98,11.13,11.13,11.13,3.34,0,6.32-1.48,8.36-3.8-2.01,3.22-5.58,5.36-9.66,5.36-6.29,0-11.38-5.1-11.38-11.38ZM304.84,22.08c4.07,0,7.64-2.14,9.66-5.36-2.04,2.33-5.03,3.8-8.36,3.8-6.14,0-11.13-4.98-11.13-11.13,0-3.34,1.48-6.32,3.8-8.36-3.22,2.01-5.36,5.58-5.36,9.66,0,6.29,5.1,11.38,11.38,11.38ZM335.21,55.48c4.07,0,7.64-2.14,9.66-5.36-2.04,2.33-5.03,3.8-8.36,3.8-6.14,0-11.13-4.98-11.13-11.13,0-3.34,1.48-6.32,3.8-8.36-3.22,2.01-5.36,5.58-5.36,9.66,0,6.29,5.1,11.38,11.38,11.38ZM336.73,116.21c4.07,0,7.64-2.14,9.66-5.36-2.04,2.33-5.03,3.8-8.36,3.8-6.14,0-11.13-4.98-11.13-11.13,0-3.34,1.48-6.32,3.8-8.36-3.22,2.01-5.36,5.58-5.36,9.66,0,6.29,5.1,11.38,11.38,11.38ZM274.48,116.21c4.07,0,7.64-2.14,9.66-5.36-2.04,2.33-5.03,3.8-8.36,3.8-6.14,0-11.13-4.98-11.13-11.13,0-3.34,1.48-6.32,3.8-8.36-3.22,2.01-5.36,5.58-5.36,9.66,0,6.29,5.1,11.38,11.38,11.38ZM238.04,47.89c4.07,0,7.64-2.14,9.66-5.36-2.04,2.33-5.03,3.8-8.36,3.8-6.14,0-11.13-4.98-11.13-11.13,0-3.34,1.48-6.32,3.8-8.36-3.22,2.01-5.36,5.58-5.36,9.66,0,6.29,5.1,11.38,11.38,11.38ZM177.31,49.41c4.07,0,7.64-2.14,9.66-5.36-2.04,2.33-5.03,3.8-8.36,3.8-6.14,0-11.13-4.98-11.13-11.13,0-3.34,1.48-6.32,3.8-8.36-3.22,2.01-5.36,5.58-5.36,9.66,0,6.29,5.1,11.38,11.38,11.38ZM171.23,73.7c4.07,0,7.64-2.14,9.66-5.36-2.04,2.33-5.03,3.8-8.36,3.8-6.14,0-11.13-4.98-11.13-11.13,0-3.34,1.48-6.32,3.8-8.36-3.22,2.01-5.36,5.58-5.36,9.66,0,6.29,5.1,11.38,11.38,11.38ZM110.5,75.22c4.07,0,7.64-2.14,9.66-5.36-2.04,2.33-5.03,3.8-8.36,3.8-6.14,0-11.13-4.98-11.13-11.13,0-3.34,1.48-6.32,3.8-8.36-3.22,2.01-5.36,5.58-5.36,9.66,0,6.29,5.1,11.38,11.38,11.38ZM207.67,142.02c4.07,0,7.64-2.14,9.66-5.36-2.04,2.33-5.03,3.8-8.36,3.8-6.14,0-11.13-4.98-11.13-11.13,0-3.34,1.48-6.32,3.8-8.36-3.22,2.01-5.36,5.58-5.36,9.66,0,6.29,5.1,11.38,11.38,11.38ZM268.4,142.02c4.07,0,7.64-2.14,9.66-5.36-2.04,2.33-5.03,3.8-8.36,3.8-6.14,0-11.13-4.98-11.13-11.13,0-3.34,1.48-6.32,3.8-8.36-3.22,2.01-5.36,5.58-5.36,9.66,0,6.29,5.1,11.38,11.38,11.38ZM200.08,167.83c4.07,0,7.64-2.14,9.66-5.36-2.04,2.33-5.03,3.8-8.36,3.8-6.14,0-11.13-4.98-11.13-11.13,0-3.34,1.48-6.32,3.8-8.36-3.22,2.01-5.36,5.58-5.36,9.66,0,6.29,5.1,11.38,11.38,11.38ZM140.87,167.83c4.07,0,7.64-2.14,9.66-5.36-2.04,2.33-5.03,3.8-8.36,3.8-6.14,0-11.13-4.98-11.13-11.13,0-3.34,1.48-6.32,3.8-8.36-3.22,2.01-5.36,5.58-5.36,9.66,0,6.29,5.1,11.38,11.38,11.38ZM74.06,193.64c4.07,0,7.64-2.14,9.66-5.36-2.04,2.33-5.03,3.8-8.36,3.8-6.14,0-11.13-4.98-11.13-11.13,0-3.34,1.48-6.32,3.8-8.36-3.22,2.01-5.36,5.58-5.36,9.66,0,6.29,5.1,11.38,11.38,11.38ZM131.76,193.64c4.07,0,7.64-2.14,9.66-5.36-2.04,2.33-5.03,3.8-8.36,3.8-6.14,0-11.13-4.98-11.13-11.13,0-3.34,1.48-6.32,3.8-8.36-3.22,2.01-5.36,5.58-5.36,9.66,0,6.29,5.1,11.38,11.38,11.38ZM11.82,152.65c4.07,0,7.64-2.14,9.66-5.36-2.04,2.33-5.03,3.8-8.36,3.8-6.14,0-11.13-4.98-11.13-11.13,0-3.34,1.48-6.32,3.8-8.36-3.22,2.01-5.36,5.58-5.36,9.66,0,6.29,5.1,11.38,11.38,11.38Z"/><g class="cls-7"><path class="cls-3" d="M244.1,3.47c-3.13,0-5.88,1.65-7.43,4.12,1.57-1.79,3.87-2.93,6.43-2.93,4.73,0,8.56,3.83,8.56,8.56,0,2.57-1.14,4.86-2.93,6.43,2.47-1.55,4.12-4.29,4.12-7.43,0-4.84-3.92-8.76-8.76-8.76Z"/><path class="cls-3" d="M304.83,1.95c-3.13,0-5.88,1.65-7.43,4.12,1.57-1.79,3.87-2.93,6.43-2.93,4.73,0,8.56,3.83,8.56,8.56,0,2.57-1.14,4.86-2.93,6.43,2.47-1.55,4.12-4.29,4.12-7.43,0-4.84-3.92-8.76-8.76-8.76Z"/><path class="cls-3" d="M335.2,35.35c-3.13,0-5.88,1.65-7.43,4.12,1.57-1.79,3.87-2.93,6.43-2.93,4.73,0,8.56,3.83,8.56,8.56,0,2.57-1.14,4.86-2.93,6.43,2.47-1.55,4.12-4.29,4.12-7.43,0-4.84-3.92-8.76-8.76-8.76Z"/><path class="cls-3" d="M336.71,96.08c-3.13,0-5.88,1.65-7.43,4.12,1.57-1.79,3.87-2.93,6.43-2.93,4.73,0,8.56,3.83,8.56,8.56,0,2.57-1.14,4.86-2.93,6.43,2.47-1.55,4.12-4.29,4.12-7.43,0-4.84-3.92-8.76-8.76-8.76Z"/><path class="cls-3" d="M274.47,96.08c-3.13,0-5.88,1.65-7.43,4.12,1.57-1.79,3.87-2.93,6.43-2.93,4.73,0,8.56,3.83,8.56,8.56,0,2.57-1.14,4.86-2.93,6.43,2.47-1.55,4.12-4.29,4.12-7.43,0-4.84-3.92-8.76-8.76-8.76Z"/><path class="cls-3" d="M238.03,27.76c-3.13,0-5.88,1.65-7.43,4.12,1.57-1.79,3.87-2.93,6.43-2.93,4.73,0,8.56,3.83,8.56,8.56,0,2.57-1.14,4.86-2.93,6.43,2.47-1.55,4.12-4.29,4.12-7.43,0-4.84-3.92-8.76-8.76-8.76Z"/><path class="cls-3" d="M177.3,29.28c-3.13,0-5.88,1.65-7.43,4.12,1.57-1.79,3.87-2.93,6.43-2.93,4.73,0,8.56,3.83,8.56,8.56,0,2.57-1.14,4.86-2.93,6.43,2.47-1.55,4.12-4.29,4.12-7.43,0-4.84-3.92-8.76-8.76-8.76Z"/><path class="cls-3" d="M171.22,53.57c-3.13,0-5.88,1.65-7.43,4.12,1.57-1.79,3.87-2.93,6.43-2.93,4.73,0,8.56,3.83,8.56,8.56,0,2.57-1.14,4.86-2.93,6.43,2.47-1.55,4.12-4.29,4.12-7.43,0-4.84-3.92-8.76-8.76-8.76Z"/><path class="cls-3" d="M110.49,55.09c-3.13,0-5.88,1.65-7.43,4.12,1.57-1.79,3.87-2.93,6.43-2.93,4.73,0,8.56,3.83,8.56,8.56,0,2.57-1.14,4.86-2.93,6.43,2.47-1.55,4.12-4.29,4.12-7.43,0-4.84-3.92-8.76-8.76-8.76Z"/><path class="cls-3" d="M207.66,121.89c-3.13,0-5.88,1.65-7.43,4.12,1.57-1.79,3.87-2.93,6.43-2.93,4.73,0,8.56,3.83,8.56,8.56,0,2.57-1.14,4.86-2.93,6.43,2.47-1.55,4.12-4.29,4.12-7.43,0-4.84-3.92-8.76-8.76-8.76Z"/><path class="cls-3" d="M268.39,121.89c-3.13,0-5.88,1.65-7.43,4.12,1.57-1.79,3.87-2.93,6.43-2.93,4.73,0,8.56,3.83,8.56,8.56,0,2.57-1.14,4.86-2.93,6.43,2.47-1.55,4.12-4.29,4.12-7.43,0-4.84-3.92-8.76-8.76-8.76Z"/><path class="cls-3" d="M200.07,147.7c-3.13,0-5.88,1.65-7.43,4.12,1.57-1.79,3.87-2.93,6.43-2.93,4.73,0,8.56,3.83,8.56,8.56,0,2.57-1.14,4.86-2.93,6.43,2.47-1.55,4.12-4.29,4.12-7.43,0-4.84-3.92-8.76-8.76-8.76Z"/><path class="cls-3" d="M140.86,147.7c-3.13,0-5.88,1.65-7.43,4.12,1.57-1.79,3.87-2.93,6.43-2.93,4.73,0,8.56,3.83,8.56,8.56,0,2.57-1.14,4.86-2.93,6.43,2.47-1.55,4.12-4.29,4.12-7.43,0-4.84-3.92-8.76-8.76-8.76Z"/><path class="cls-3" d="M74.05,173.51c-3.13,0-5.88,1.65-7.43,4.12,1.57-1.79,3.87-2.93,6.43-2.93,4.73,0,8.56,3.83,8.56,8.56,0,2.57-1.14,4.86-2.93,6.43,2.47-1.55,4.12-4.29,4.12-7.43,0-4.84-3.92-8.76-8.76-8.76Z"/><path class="cls-3" d="M131.75,173.51c-3.13,0-5.88,1.65-7.43,4.12,1.57-1.79,3.87-2.93,6.43-2.93,4.73,0,8.56,3.83,8.56,8.56,0,2.57-1.14,4.86-2.93,6.43,2.47-1.55,4.12-4.29,4.12-7.43,0-4.84-3.92-8.76-8.76-8.76Z"/><path class="cls-3" d="M11.81,132.52c-3.13,0-5.88,1.65-7.43,4.12,1.57-1.79,3.87-2.93,6.43-2.93,4.73,0,8.56,3.83,8.56,8.56,0,2.57-1.14,4.86-2.93,6.43,2.47-1.55,4.12-4.29,4.12-7.43,0-4.84-3.92-8.76-8.76-8.76Z"/></g></g><path class="cls-3" d="M315.11,11.06c0,5.87-4.76,10.63-10.63,10.63s-10.63-4.76-10.63-10.63,4.76-10.63,10.63-10.63,10.63,4.76,10.63,10.63ZM334.84,33.83c-5.87,0-10.63,4.76-10.63,10.63s4.76,10.63,10.63,10.63,10.63-4.76,10.63-10.63-4.76-10.63-10.63-10.63ZM336.36,94.56c-5.87,0-10.63,4.76-10.63,10.63s4.76,10.63,10.63,10.63,10.63-4.76,10.63-10.63-4.76-10.63-10.63-10.63ZM268.04,120.37c-5.87,0-10.63,4.76-10.63,10.63s4.76,10.63,10.63,10.63,10.63-4.76,10.63-10.63-4.76-10.63-10.63-10.63ZM274.11,94.56c-5.87,0-10.63,4.76-10.63,10.63s4.76,10.63,10.63,10.63,10.63-4.76,10.63-10.63-4.76-10.63-10.63-10.63ZM207.31,120.37c-5.87,0-10.63,4.76-10.63,10.63s4.76,10.63,10.63,10.63,10.63-4.76,10.63-10.63-4.76-10.63-10.63-10.63ZM140.51,146.19c-5.87,0-10.63,4.76-10.63,10.63s4.76,10.63,10.63,10.63,10.63-4.76,10.63-10.63-4.76-10.63-10.63-10.63ZM73.7,172c-5.87,0-10.63,4.76-10.63,10.63s4.76,10.63,10.63,10.63,10.63-4.76,10.63-10.63-4.76-10.63-10.63-10.63ZM243.75,1.95c-5.87,0-10.63,4.76-10.63,10.63s4.76,10.63,10.63,10.63,10.63-4.76,10.63-10.63-4.76-10.63-10.63-10.63ZM176.94,27.76c-5.87,0-10.63,4.76-10.63,10.63s4.76,10.63,10.63,10.63,10.63-4.76,10.63-10.63-4.76-10.63-10.63-10.63ZM237.67,26.24c-5.87,0-10.63,4.76-10.63,10.63s4.76,10.63,10.63,10.63,10.63-4.76,10.63-10.63-4.76-10.63-10.63-10.63ZM170.87,52.05c-5.87,0-10.63,4.76-10.63,10.63s4.76,10.63,10.63,10.63,10.63-4.76,10.63-10.63-4.76-10.63-10.63-10.63ZM110.14,53.57c-5.87,0-10.63,4.76-10.63,10.63s4.76,10.63,10.63,10.63,10.63-4.76,10.63-10.63-4.76-10.63-10.63-10.63ZM11.45,131c-5.87,0-10.63,4.76-10.63,10.63s4.76,10.63,10.63,10.63,10.63-4.76,10.63-10.63-4.76-10.63-10.63-10.63ZM199.72,146.19c-5.87,0-10.63,4.76-10.63,10.63s4.76,10.63,10.63,10.63,10.63-4.76,10.63-10.63-4.76-10.63-10.63-10.63ZM131.4,172c-5.87,0-10.63,4.76-10.63,10.63s4.76,10.63,10.63,10.63,10.63-4.76,10.63-10.63-4.76-10.63-10.63-10.63Z"/><g class="cls-6"><g class="cls-10"><path class="cls-3" d="M71.52,70.45c-3.13,0-5.88,1.65-7.43,4.12,1.57-1.79,3.87-2.93,6.43-2.93,4.73,0,8.56,3.83,8.56,8.56,0,2.57-1.14,4.86-2.93,6.43,2.47-1.55,4.12-4.29,4.12-7.43,0-4.84-3.92-8.76-8.76-8.76Z"/><path class="cls-3" d="M30.52,114.48c-3.13,0-5.88,1.65-7.43,4.12,1.57-1.79,3.87-2.93,6.43-2.93,4.73,0,8.56,3.83,8.56,8.56,0,2.57-1.14,4.86-2.93,6.43,2.47-1.55,4.12-4.29,4.12-7.43,0-4.84-3.92-8.76-8.76-8.76Z"/></g><g class="cls-9"><path class="cls-3" d="M72.72,91.12c3.96.07,7.47-1.95,9.48-5.05-2.02,2.23-4.95,3.61-8.2,3.56-5.98-.1-10.74-5.03-10.63-11.01.06-3.25,1.54-6.12,3.84-8.07-3.16,1.9-5.3,5.34-5.37,9.3-.11,6.12,4.77,11.16,10.88,11.26Z"/><path class="cls-3" d="M31.67,133.77c3.96.07,7.47-1.95,9.48-5.05-2.02,2.23-4.95,3.61-8.2,3.56-5.98-.1-10.74-5.03-10.63-11.01.06-3.25,1.54-6.12,3.84-8.07-3.16,1.9-5.3,5.34-5.37,9.3-.11,6.12,4.77,11.16,10.88,11.26Z"/></g></g><path class="cls-3" d="M41.82,123.41c0,5.87-4.76,10.63-10.63,10.63s-10.63-4.76-10.63-10.63,4.76-10.63,10.63-10.63,10.63,4.76,10.63,10.63ZM72.18,68.75c-5.87,0-10.63,4.76-10.63,10.63s4.76,10.63,10.63,10.63,10.63-4.76,10.63-10.63-4.76-10.63-10.63-10.63Z"/><g class="cls-5"><g class="cls-8"><path class="cls-3" d="M71.52,114.48c-3.13,0-5.88,1.65-7.43,4.12,1.57-1.79,3.87-2.93,6.43-2.93,4.73,0,8.56,3.83,8.56,8.56,0,2.57-1.14,4.86-2.93,6.43,2.47-1.55,4.12-4.29,4.12-7.43,0-4.84-3.92-8.76-8.76-8.76Z"/><path class="cls-3" d="M72.72,135.15c3.96.07,7.47-1.95,9.48-5.05-2.02,2.23-4.95,3.61-8.2,3.56-5.98-.1-10.74-5.03-10.63-11.01.06-3.25,1.54-6.12,3.84-8.07-3.16,1.9-5.3,5.34-5.37,9.3-.11,6.12,4.77,11.16,10.88,11.26Z"/><path class="cls-3" d="M138.32,85.63c-3.13,0-5.88,1.65-7.43,4.12,1.57-1.79,3.87-2.93,6.43-2.93,4.73,0,8.56,3.83,8.56,8.56,0,2.57-1.14,4.86-2.93,6.43,2.47-1.55,4.12-4.29,4.12-7.43,0-4.84-3.92-8.76-8.76-8.76Z"/><path class="cls-3" d="M139.53,106.3c3.96.07,7.47-1.95,9.48-5.05-2.02,2.23-4.95,3.61-8.2,3.56-5.98-.1-10.74-5.03-10.63-11.01.06-3.25,1.54-6.12,3.84-8.07-3.16,1.9-5.3,5.34-5.37,9.3-.11,6.12,4.77,11.16,10.88,11.26Z"/><path class="cls-3" d="M205.12,58.3c-3.13,0-5.88,1.65-7.43,4.12,1.57-1.79,3.87-2.93,6.43-2.93,4.73,0,8.56,3.83,8.56,8.56,0,2.57-1.14,4.86-2.93,6.43,2.47-1.55,4.12-4.29,4.12-7.43,0-4.84-3.92-8.76-8.76-8.76Z"/><path class="cls-3" d="M206.33,78.97c3.96.07,7.47-1.95,9.48-5.05-2.02,2.23-4.95,3.61-8.2,3.56-5.98-.1-10.74-5.03-10.63-11.01.06-3.25,1.54-6.12,3.84-8.07-3.16,1.9-5.3,5.34-5.37,9.3-.11,6.12,4.77,11.16,10.88,11.26Z"/><path class="cls-3" d="M273.45,34.01c-3.13,0-5.88,1.65-7.43,4.12,1.57-1.79,3.87-2.93,6.43-2.93,4.73,0,8.56,3.83,8.56,8.56,0,2.57-1.14,4.86-2.93,6.43,2.47-1.55,4.12-4.29,4.12-7.43,0-4.84-3.92-8.76-8.76-8.76Z"/><path class="cls-3" d="M274.65,54.68c3.96.07,7.47-1.95,9.48-5.05-2.02,2.23-4.95,3.61-8.2,3.56-5.98-.1-10.74-5.03-10.63-11.01.06-3.25,1.54-6.12,3.84-8.07-3.16,1.9-5.3,5.34-5.37,9.3-.11,6.12,4.77,11.16,10.88,11.26Z"/><path class="cls-3" d="M303.81,65.89c-3.13,0-5.88,1.65-7.43,4.12,1.57-1.79,3.87-2.93,6.43-2.93,4.73,0,8.56,3.83,8.56,8.56,0,2.57-1.14,4.86-2.93,6.43,2.47-1.55,4.12-4.29,4.12-7.43,0-4.84-3.92-8.76-8.76-8.76Z"/><path class="cls-3" d="M305.02,86.56c3.96.07,7.47-1.95,9.48-5.05-2.02,2.23-4.95,3.61-8.2,3.56-5.98-.1-10.74-5.03-10.63-11.01.06-3.25,1.54-6.12,3.84-8.07-3.16,1.9-5.3,5.34-5.37,9.3-.11,6.12,4.77,11.16,10.88,11.26Z"/><path class="cls-3" d="M235.49,90.19c-3.13,0-5.88,1.65-7.43,4.12,1.57-1.79,3.87-2.93,6.43-2.93,4.73,0,8.56,3.83,8.56,8.56,0,2.57-1.14,4.86-2.93,6.43,2.47-1.55,4.12-4.29,4.12-7.43,0-4.84-3.92-8.76-8.76-8.76Z"/><path class="cls-3" d="M236.7,110.85c3.96.07,7.47-1.95,9.48-5.05-2.02,2.23-4.95,3.61-8.2,3.56-5.98-.1-10.74-5.03-10.63-11.01.06-3.25,1.54-6.12,3.84-8.07-3.16,1.9-5.3,5.34-5.37,9.3-.11,6.12,4.77,11.16,10.88,11.26Z"/><path class="cls-3" d="M168.69,116c-3.13,0-5.88,1.65-7.43,4.12,1.57-1.79,3.87-2.93,6.43-2.93,4.73,0,8.56,3.83,8.56,8.56,0,2.57-1.14,4.86-2.93,6.43,2.47-1.55,4.12-4.29,4.12-7.43,0-4.84-3.92-8.76-8.76-8.76Z"/><path class="cls-3" d="M169.89,136.66c3.96.07,7.47-1.95,9.48-5.05-2.02,2.23-4.95,3.61-8.2,3.56-5.98-.1-10.74-5.03-10.63-11.01.06-3.25,1.54-6.12,3.84-8.07-3.16,1.9-5.3,5.34-5.37,9.3-.11,6.12,4.77,11.16,10.88,11.26Z"/><path class="cls-3" d="M101.88,146.36c-3.13,0-5.88,1.65-7.43,4.12,1.57-1.79,3.87-2.93,6.43-2.93,4.73,0,8.56,3.83,8.56,8.56,0,2.57-1.14,4.86-2.93,6.43,2.47-1.55,4.12-4.29,4.12-7.43,0-4.84-3.92-8.76-8.76-8.76Z"/><path class="cls-3" d="M103.09,167.03c3.96.07,7.47-1.95,9.48-5.05-2.02,2.23-4.95,3.61-8.2,3.56-5.98-.1-10.74-5.03-10.63-11.01.06-3.25,1.54-6.12,3.84-8.07-3.16,1.9-5.3,5.34-5.37,9.3-.11,6.12,4.77,11.16,10.88,11.26Z"/></g></g><path class="cls-3" d="M82.81,123.41c0,5.87-4.76,10.63-10.63,10.63s-10.63-4.76-10.63-10.63,4.76-10.63,10.63-10.63,10.63,4.76,10.63,10.63ZM138.99,83.94c-5.87,0-10.63,4.76-10.63,10.63s4.76,10.63,10.63,10.63,10.63-4.76,10.63-10.63-4.76-10.63-10.63-10.63ZM205.79,56.61c-5.87,0-10.63,4.76-10.63,10.63s4.76,10.63,10.63,10.63,10.63-4.76,10.63-10.63-4.76-10.63-10.63-10.63ZM274.11,32.32c-5.87,0-10.63,4.76-10.63,10.63s4.76,10.63,10.63,10.63,10.63-4.76,10.63-10.63-4.76-10.63-10.63-10.63ZM102.55,144.67c-5.87,0-10.63,4.76-10.63,10.63s4.76,10.63,10.63,10.63,10.63-4.76,10.63-10.63-4.76-10.63-10.63-10.63ZM169.35,115.82c-5.87,0-10.63,4.76-10.63,10.63s4.76,10.63,10.63,10.63,10.63-4.76,10.63-10.63-4.76-10.63-10.63-10.63ZM236.16,88.49c-5.87,0-10.63,4.76-10.63,10.63s4.76,10.63,10.63,10.63,10.63-4.76,10.63-10.63-4.76-10.63-10.63-10.63ZM304.48,64.2c-5.87,0-10.63,4.76-10.63,10.63s4.76,10.63,10.63,10.63,10.63-4.76,10.63-10.63-4.76-10.63-10.63-10.63Z"/></g></svg>